<svg xmlns="http://www.w3.org/2000/svg" viewBox="0 0 64 64" fill="none" stroke="currentColor" stroke-width="1.12" stroke-linecap="round" stroke-linejoin="round">
  <title>Cookie Preferences</title>
  <path d="M44 19 C42 23 45 27 50 26 C52 39 43 51 31 51 C20 51 12 43 12 32 C12 20 24 11 36 14 C35 18 39 21 44 19Z"/><circle cx="26" cy="28" r="1.5"/><circle cx="36" cy="37" r="1.5"/><circle cx="25" cy="42" r="1.2"/><g transform="translate(47 48) rotate(-28) scale(0.42)">
  <path d="M0 0 C4 -5 10 -5 14 0 C10 5 4 5 0 0Z"/>
  <path d="M1 0 C5 .2 9 .1 13 0"/>
</g><g transform="translate(16 17) scale(0.3)">
  <path d="M0 -5 V5"/>
  <path d="M-5 0 H5"/>
  <path d="M-3 -3 L3 3"/>
  <path d="M3 -3 L-3 3"/>
</g>
</svg>
