<svg xmlns="http://www.w3.org/2000/svg" viewBox="0 0 64 64" fill="none" stroke="currentColor" stroke-width="1.12" stroke-linecap="round" stroke-linejoin="round">
  <title>Responsible Care</title>
  <path d="M18 40 C22 34 29 32 34 36 L39 40"/><path d="M14 45 C25 54 39 54 50 45"/><path d="M32 35 C32 35 23 30 23 23 C23 19 29 17 32 22 C35 17 41 19 41 23 C41 30 32 35 32 35Z"/><g transform="translate(45 45) rotate(-20) scale(0.3)">
  <path d="M0 0 C4 -5 10 -5 14 0 C10 5 4 5 0 0Z"/>
  <path d="M1 0 C5 .2 9 .1 13 0"/>
</g>
</svg>
