<svg xmlns="http://www.w3.org/2000/svg" viewBox="0 0 64 64" fill="none" stroke="currentColor" stroke-width="1.12" stroke-linecap="round" stroke-linejoin="round">
  <title>Footer Whatsapp</title>
  <path d="M19 49 L21 42 C17 38 15 33 16 28 C18 18 27 12 37 15 C47 18 52 28 49 38 C46 48 35 53 26 48Z"/><path d="M26 25 C26 35 35 42 42 39"/><path d="M27 25 L30 23 L33 28 L31 30 C33 34 36 36 40 37 L42 34 L46 37 L44 41"/><g transform="translate(46 45) rotate(-20) scale(0.33)">
  <path d="M0 0 C4 -5 10 -5 14 0 C10 5 4 5 0 0Z"/>
  <path d="M1 0 C5 .2 9 .1 13 0"/>
</g>
</svg>
