<svg xmlns="http://www.w3.org/2000/svg" viewBox="0 0 64 64" fill="none" stroke="currentColor" stroke-width="1.12" stroke-linecap="round" stroke-linejoin="round">
  <title>Question</title>
  <path d="M16 20 H44 C49 20 52 24 52 29 V37 C52 42 48 45 43 45 H31 L20 52 L23 45 H16 C11 45 8 42 8 37 V29 C8 24 11 20 16 20Z"/><path d="M29 29 C29 25 35 24 37 27 C40 31 33 33 33 37"/><path d="M33 42 H33.2"/><g transform="translate(47 48) rotate(-28) scale(0.42)">
  <path d="M0 0 C4 -5 10 -5 14 0 C10 5 4 5 0 0Z"/>
  <path d="M1 0 C5 .2 9 .1 13 0"/>
</g><g transform="translate(16 17) scale(0.3)">
  <path d="M0 -5 V5"/>
  <path d="M-5 0 H5"/>
  <path d="M-3 -3 L3 3"/>
  <path d="M3 -3 L-3 3"/>
</g>
</svg>
