<svg xmlns="http://www.w3.org/2000/svg" width="109" height="99" viewBox="0 0 109 99" role="img" aria-hidden="true">
  <path d="M 107 0 L 104 0 L 100 2 L 89 12 L 86 19 L 86 26 L 84 28 L 81 19 L 82 11 L 84 8 L 81 4 L 79 4 L 77 6 L 75 11 L 75 14 L 79 18 L 82 35 L 74 49 L 65 59 L 64 56 L 65 55 L 65 51 L 70 43 L 71 34 L 70 33 L 69 24 L 66 18 L 64 16 L 61 17 L 58 24 L 56 33 L 57 42 L 61 50 L 61 54 L 57 65 L 52 70 L 44 75 L 25 81 L 24 78 L 28 74 L 31 73 L 40 64 L 43 56 L 42 43 L 39 43 L 35 46 L 28 55 L 26 61 L 26 70 L 25 72 L 19 78 L 14 81 L 8 82 L 0 81 L 1 85 L 8 86 L 25 85 L 34 87 L 42 94 L 50 98 L 62 98 L 71 95 L 72 91 L 66 87 L 58 83 L 43 80 L 65 66 L 68 65 L 76 65 L 84 67 L 90 66 L 97 63 L 104 57 L 108 52 L 106 50 L 90 49 L 80 53 L 71 61 L 70 59 L 75 54 L 80 46 L 92 42 L 95 42 L 99 45 L 104 41 L 104 38 L 102 36 L 97 36 L 93 40 L 85 39 L 85 37 L 87 33 L 98 27 L 104 20 L 107 12 L 108 5 Z M 57 94 L 58 92 L 61 93 Z M 60 92 L 62 90 L 64 90 L 66 92 L 62 93 Z M 45 91 L 50 90 L 54 92 L 52 94 L 50 94 Z M 51 88 L 52 86 L 54 86 L 55 87 L 58 87 L 62 90 L 59 91 Z M 94 59 L 92 61 L 87 63 L 85 60 L 91 58 Z M 90 55 L 91 53 L 101 54 L 96 58 L 94 56 Z M 102 39 L 98 40 L 100 37 Z M 62 29 L 63 40 L 61 42 L 60 31 Z M 62 24 L 65 25 L 67 31 L 65 33 L 61 28 Z M 104 10 L 102 16 L 99 19 L 98 14 L 100 11 Z M 100 9 L 98 11 L 98 12 L 95 15 L 94 12 Z" fill="currentColor" fill-rule="evenodd"/>
</svg>
