<svg xmlns="http://www.w3.org/2000/svg" width="212" height="103" viewBox="0 0 212 103" role="img" aria-hidden="true">
  <path d="M 95 102 L 119 102 L 111 98 L 104 98 L 100 99 Z M 140 13 L 141 17 L 209 17 L 210 13 Z M 93 11 L 89 11 L 87 13 L 87 17 L 91 20 L 96 16 L 95 12 Z M 1 13 L 1 17 L 7 20 L 12 20 L 21 17 L 23 15 L 15 11 L 5 11 Z M 6 15 L 8 13 L 11 13 L 13 15 L 11 17 Z M 20 3 L 20 7 L 24 11 L 26 12 L 31 12 L 34 15 L 31 18 L 25 18 L 20 23 L 21 27 L 28 25 L 37 17 L 76 17 L 78 15 L 76 13 L 38 13 L 30 6 L 23 3 Z M 118 0 L 116 6 L 111 11 L 106 13 L 106 17 L 111 18 L 117 24 L 120 31 L 122 29 L 124 23 L 129 18 L 132 17 L 135 14 L 130 12 L 124 6 L 122 1 Z M 120 7 L 127 15 L 123 18 L 120 23 L 113 14 L 118 8 Z" fill="currentColor" fill-rule="evenodd"/>
</svg>
