<svg xmlns="http://www.w3.org/2000/svg" width="157" height="147" viewBox="0 0 157 147" role="img" aria-hidden="true">
  <path d="M 142 7 L 135 3 L 125 0 L 90 0 L 80 1 L 51 0 L 27 1 L 18 4 L 8 12 L 3 20 L 0 31 L 0 87 L 3 97 L 10 107 L 16 112 L 22 115 L 27 116 L 29 118 L 28 136 L 30 146 L 34 146 L 63 117 L 126 117 L 139 112 L 149 103 L 154 94 L 156 88 L 156 29 L 150 15 Z M 12 20 L 20 12 L 26 9 L 31 8 L 125 8 L 134 11 L 144 20 L 147 25 L 149 33 L 149 84 L 146 94 L 136 105 L 124 110 L 60 110 L 37 132 L 35 110 L 27 109 L 19 105 L 13 99 L 8 89 L 8 29 Z M 35 68 L 36 73 L 38 74 L 52 73 L 91 74 L 95 71 L 94 67 L 83 66 L 56 66 Z M 35 42 L 36 47 L 38 48 L 77 47 L 117 48 L 121 45 L 121 43 L 118 40 L 108 41 L 37 40 Z M 71 5 L 72 3 L 76 4 L 74 6 Z M 105 5 L 106 2 L 110 4 L 108 6 Z M 98 4 L 99 2 L 103 3 L 101 5 Z M 36 4 L 37 2 L 46 3 L 44 5 Z" fill="currentColor" fill-rule="evenodd"/>
</svg>
