<svg xmlns="http://www.w3.org/2000/svg" width="301" height="227" viewBox="0 0 301 227" role="img" aria-hidden="true">
  <path d="M 0 194 L 0 199 L 1 196 Z M 12 167 L 7 167 L 0 170 L 0 172 L 7 170 Z M 24 161 L 8 161 L 2 163 L 0 165 L 0 167 L 12 163 L 19 164 L 12 171 L 6 175 L 0 176 L 0 179 L 10 176 L 20 167 Z M 284 111 L 281 111 L 272 129 L 272 146 L 274 154 L 272 161 L 266 173 L 256 185 L 245 194 L 244 192 L 249 185 L 253 182 L 254 177 L 257 171 L 258 166 L 258 147 L 255 147 L 244 162 L 242 167 L 242 172 L 241 173 L 242 189 L 239 195 L 231 203 L 208 214 L 208 210 L 212 207 L 216 202 L 220 194 L 220 189 L 221 188 L 220 183 L 218 183 L 209 193 L 206 198 L 205 202 L 194 213 L 184 219 L 169 220 L 170 222 L 187 222 L 197 220 L 205 217 L 213 217 L 225 224 L 232 226 L 236 226 L 240 225 L 242 223 L 237 218 L 232 215 L 222 213 L 223 210 L 225 210 L 227 208 L 235 205 L 242 205 L 254 210 L 261 210 L 272 207 L 277 204 L 281 203 L 283 200 L 279 198 L 267 195 L 245 197 L 255 190 L 267 179 L 269 178 L 282 177 L 289 173 L 296 166 L 299 156 L 295 156 L 285 159 L 278 164 L 271 172 L 270 170 L 273 165 L 276 155 L 283 144 L 286 137 L 287 126 Z M 223 218 L 226 218 L 230 220 L 234 219 L 236 221 L 234 223 L 227 223 L 223 221 Z M 248 203 L 261 203 L 267 201 L 254 200 L 255 198 L 269 198 L 276 201 L 271 205 L 261 208 L 251 207 Z M 210 198 L 211 201 L 207 205 L 207 207 L 203 211 L 199 211 Z M 217 194 L 211 197 L 211 195 L 214 192 Z M 285 165 L 283 167 L 279 166 L 280 166 L 282 164 Z M 295 161 L 291 167 L 285 173 L 277 173 L 282 169 L 285 168 L 288 165 L 288 162 L 290 160 Z M 255 157 L 255 167 L 253 175 L 250 179 L 249 176 L 251 171 L 250 165 L 247 178 L 245 180 L 244 172 L 246 166 L 250 159 Z M 283 120 L 284 122 L 283 138 L 280 143 L 279 136 L 281 129 L 279 128 L 277 136 L 277 142 L 275 144 L 274 132 L 278 122 Z M 276 87 L 275 90 L 276 95 L 280 98 L 283 97 L 286 93 L 286 89 L 283 86 Z M 279 90 L 282 92 L 280 94 L 278 92 Z M 109 116 L 109 119 L 114 125 L 127 138 L 135 144 L 138 145 L 142 149 L 145 149 L 159 155 L 176 158 L 195 157 L 209 153 L 220 148 L 237 136 L 254 118 L 254 116 L 250 111 L 237 98 L 223 88 L 208 81 L 188 77 L 167 78 L 150 83 L 138 89 L 123 100 L 114 109 Z M 114 118 L 114 116 L 123 106 L 140 93 L 154 86 L 171 82 L 194 82 L 211 87 L 230 98 L 236 103 L 249 117 L 233 134 L 218 144 L 202 151 L 183 154 L 165 152 L 148 146 L 139 141 L 128 133 Z M 180 88 L 174 89 L 165 93 L 157 101 L 153 112 L 153 123 L 157 133 L 162 139 L 169 144 L 174 146 L 183 147 L 194 144 L 200 140 L 208 131 L 211 123 L 211 111 L 209 105 L 201 95 L 192 90 Z M 177 93 L 186 93 L 195 96 L 203 104 L 207 113 L 207 120 L 203 130 L 194 139 L 186 142 L 177 142 L 169 139 L 161 131 L 157 119 L 158 110 L 162 102 L 167 97 Z M 0 75 L 1 89 L 0 147 L 4 143 L 12 140 L 19 134 L 25 120 L 25 116 L 21 116 L 12 121 L 6 127 L 4 134 L 2 136 L 1 131 L 3 114 L 8 102 L 9 90 L 3 76 Z M 21 121 L 21 124 L 18 130 L 7 137 L 9 134 L 12 132 L 15 127 L 13 127 L 10 130 L 9 128 L 17 121 Z M 6 91 L 6 99 L 4 101 Z M 215 52 L 212 54 L 206 65 L 208 68 L 211 65 L 216 55 Z M 149 52 L 149 56 L 157 69 L 159 67 L 159 65 L 153 54 L 151 52 Z M 2 57 L 6 61 L 11 55 L 7 50 L 2 55 Z M 183 43 L 180 44 L 180 62 L 182 65 L 185 62 L 185 45 Z M 0 41 L 0 43 L 2 42 Z M 196 1 L 173 0 L 159 2 L 141 8 L 127 16 L 118 23 L 109 32 L 100 44 L 90 63 L 84 85 L 82 96 L 82 120 L 86 140 L 91 155 L 96 166 L 104 178 L 120 195 L 133 204 L 152 212 L 158 213 L 174 212 L 167 212 L 150 208 L 133 200 L 127 196 L 110 180 L 102 169 L 97 160 L 89 139 L 86 121 L 86 95 L 88 82 L 91 71 L 98 54 L 110 36 L 120 26 L 134 16 L 143 11 L 165 4 L 194 4 L 216 10 L 234 20 L 253 38 L 259 46 L 269 65 L 270 70 L 271 67 L 269 59 L 265 50 L 254 34 L 241 21 L 237 19 L 233 15 L 215 6 Z" fill="currentColor" fill-rule="evenodd"/>
</svg>
