<svg xmlns="http://www.w3.org/2000/svg" width="275" height="62" viewBox="0 0 275 62" role="img" aria-hidden="true">
  <path d="M 274 30 L 263 25 L 257 24 L 247 24 L 240 26 L 233 30 L 221 30 L 219 27 L 231 14 L 221 13 L 210 16 L 207 18 L 199 27 L 193 30 L 173 28 L 181 23 L 192 12 L 197 0 L 186 2 L 177 6 L 169 15 L 165 23 L 159 28 L 154 30 L 145 30 L 140 25 L 135 25 L 129 30 L 121 30 L 118 29 L 112 25 L 111 22 L 98 7 L 91 3 L 83 1 L 78 1 L 80 7 L 86 16 L 92 22 L 103 28 L 101 30 L 81 30 L 67 18 L 54 13 L 44 13 L 45 16 L 49 21 L 59 28 L 57 30 L 41 30 L 36 27 L 26 24 L 16 24 L 0 29 L 1 32 L 16 37 L 29 37 L 40 33 L 63 34 L 61 36 L 56 37 L 51 40 L 43 48 L 42 53 L 53 52 L 62 49 L 79 33 L 97 34 L 87 40 L 82 45 L 74 57 L 75 61 L 83 59 L 93 54 L 99 48 L 105 38 L 111 33 L 129 33 L 133 38 L 137 40 L 140 39 L 144 34 L 163 33 L 167 35 L 171 39 L 175 47 L 184 56 L 187 56 L 200 61 L 202 59 L 196 49 L 187 39 L 179 36 L 179 33 L 193 33 L 199 35 L 204 41 L 204 43 L 208 47 L 217 50 L 219 52 L 226 53 L 233 51 L 226 42 L 218 37 L 214 33 L 235 33 L 237 35 L 244 37 L 259 37 L 272 32 Z M 175 42 L 177 41 L 180 43 L 183 41 L 192 49 L 195 54 L 192 56 L 183 51 Z M 100 41 L 90 52 L 86 53 L 84 55 L 81 54 L 83 48 L 93 40 Z M 65 42 L 54 49 L 48 49 L 48 47 L 59 39 L 61 39 L 62 41 Z M 211 41 L 213 38 L 222 43 L 225 47 L 223 49 L 217 48 L 212 45 Z M 139 29 L 141 31 L 141 33 L 137 36 L 134 33 L 134 31 L 136 29 Z M 252 32 L 253 32 L 255 27 L 259 27 L 266 30 L 262 33 L 255 35 Z M 10 29 L 16 27 L 28 28 L 26 30 L 20 30 L 21 32 L 29 33 L 27 35 L 19 35 L 10 32 Z M 51 18 L 59 17 L 66 21 L 71 27 L 69 29 L 63 27 L 56 23 Z M 224 17 L 215 25 L 208 28 L 203 28 L 203 26 L 208 21 L 213 18 L 219 16 Z M 191 7 L 188 12 L 180 20 L 176 19 L 178 16 L 176 16 L 174 18 L 173 15 L 179 9 L 187 5 Z M 85 5 L 94 8 L 102 15 L 105 19 L 101 24 L 93 19 L 89 15 L 84 7 Z" fill="currentColor" fill-rule="evenodd"/>
</svg>
