<svg xmlns="http://www.w3.org/2000/svg" width="153" height="262" viewBox="0 0 153 262" role="img" aria-hidden="true">
  <path d="M 63 111 L 48 115 L 37 120 L 27 127 L 16 138 L 10 147 L 5 157 L 2 166 L 0 179 L 0 192 L 3 207 L 10 223 L 16 232 L 30 246 L 39 252 L 56 259 L 67 261 L 84 261 L 100 257 L 113 251 L 128 240 L 136 231 L 142 222 L 149 206 L 152 190 L 152 177 L 147 158 L 141 146 L 135 138 L 123 126 L 110 118 L 98 113 L 79 110 Z M 66 118 L 85 118 L 95 120 L 104 123 L 119 132 L 130 143 L 135 150 L 141 162 L 144 172 L 145 180 L 145 192 L 141 208 L 131 226 L 118 239 L 108 246 L 95 251 L 79 254 L 70 254 L 55 251 L 41 245 L 28 235 L 21 227 L 21 225 L 13 214 L 10 206 L 7 191 L 7 178 L 10 164 L 13 156 L 23 141 L 32 132 L 43 125 L 55 120 Z M 69 137 L 57 141 L 46 151 L 40 163 L 39 179 L 42 189 L 50 205 L 71 234 L 76 237 L 90 221 L 105 197 L 110 187 L 113 171 L 110 160 L 107 154 L 98 144 L 87 138 L 82 137 Z M 72 143 L 83 144 L 95 150 L 103 160 L 106 169 L 105 182 L 98 197 L 83 220 L 79 225 L 75 228 L 67 219 L 55 201 L 50 192 L 46 181 L 46 166 L 50 156 L 55 150 L 61 146 L 67 144 L 71 144 Z M 69 156 L 65 158 L 60 163 L 57 170 L 57 177 L 60 184 L 65 189 L 71 192 L 80 192 L 86 189 L 92 183 L 94 179 L 95 173 L 92 164 L 86 158 L 81 156 Z M 71 162 L 80 162 L 82 163 L 88 170 L 87 179 L 79 186 L 73 186 L 68 184 L 64 179 L 63 176 L 64 168 L 67 164 Z M 69 0 L 82 9 L 93 14 L 105 14 L 112 11 L 119 3 L 120 0 L 114 0 L 109 6 L 102 9 L 96 9 L 90 7 L 79 0 Z M 7 0 L 18 18 L 35 34 L 50 42 L 63 46 L 71 47 L 92 46 L 105 42 L 117 36 L 124 31 L 139 16 L 146 5 L 148 0 L 139 1 L 136 8 L 133 12 L 120 25 L 113 30 L 108 31 L 106 34 L 91 39 L 83 40 L 65 39 L 49 34 L 35 25 L 22 12 L 16 1 Z" fill="currentColor" fill-rule="evenodd"/>
</svg>
