<svg xmlns="http://www.w3.org/2000/svg" width="210" height="325" viewBox="0 0 210 325" role="img" aria-hidden="true">
  <path d="M 71 324 L 86 323 L 88 321 L 90 321 L 92 324 L 98 324 L 93 319 L 85 319 L 83 321 L 77 323 L 79 317 L 81 315 L 86 313 L 91 313 L 96 315 L 101 321 L 100 324 L 107 324 L 104 316 L 100 312 L 94 309 L 83 309 L 79 311 L 74 316 Z M 142 48 L 123 49 L 116 48 L 116 159 L 113 162 L 106 162 L 104 160 L 103 74 L 90 73 L 77 74 L 77 159 L 74 162 L 68 162 L 66 160 L 65 153 L 65 100 L 39 100 L 42 158 L 43 103 L 60 103 L 62 105 L 62 159 L 59 162 L 46 162 L 47 164 L 49 165 L 114 165 L 117 162 L 117 158 L 119 154 L 120 128 L 120 51 L 138 52 L 140 54 L 140 123 L 143 119 L 144 90 L 143 81 L 144 71 Z M 82 77 L 99 77 L 101 79 L 101 125 L 100 135 L 100 156 L 101 159 L 98 162 L 90 161 L 83 162 L 81 160 Z M 42 14 L 28 25 L 19 35 L 11 47 L 5 60 L 0 81 L 0 104 L 2 115 L 8 133 L 10 135 L 10 137 L 19 152 L 34 167 L 42 173 L 64 183 L 73 185 L 81 185 L 87 187 L 85 189 L 82 189 L 82 192 L 89 191 L 96 188 L 108 185 L 121 185 L 132 191 L 136 192 L 149 192 L 160 188 L 162 186 L 151 180 L 144 178 L 129 177 L 137 171 L 147 167 L 153 167 L 159 169 L 168 170 L 177 167 L 184 162 L 189 157 L 193 151 L 170 152 L 161 155 L 154 161 L 150 161 L 161 150 L 163 146 L 171 139 L 186 135 L 194 130 L 201 122 L 209 104 L 206 103 L 198 108 L 190 110 L 178 122 L 178 124 L 174 131 L 171 134 L 170 131 L 173 126 L 173 122 L 175 119 L 174 115 L 178 107 L 181 105 L 181 113 L 183 108 L 185 98 L 185 80 L 183 70 L 174 48 L 163 32 L 148 15 L 152 13 L 154 10 L 147 10 L 139 8 L 127 8 L 127 10 L 137 28 L 138 32 L 141 32 L 142 25 L 143 23 L 145 22 L 159 34 L 169 47 L 177 64 L 181 80 L 182 100 L 180 102 L 178 100 L 178 93 L 176 87 L 172 81 L 171 77 L 169 76 L 165 88 L 164 99 L 166 108 L 171 117 L 171 122 L 168 132 L 164 140 L 159 145 L 158 142 L 163 131 L 164 122 L 159 107 L 156 104 L 154 104 L 154 109 L 150 119 L 150 132 L 151 137 L 153 140 L 153 148 L 149 156 L 135 169 L 120 177 L 117 175 L 125 168 L 132 164 L 138 155 L 141 146 L 140 130 L 138 130 L 134 136 L 128 142 L 123 151 L 122 160 L 119 170 L 107 181 L 101 184 L 96 185 L 94 183 L 72 181 L 54 175 L 38 165 L 25 152 L 15 138 L 8 121 L 4 100 L 4 86 L 7 69 L 11 57 L 15 49 L 24 36 L 37 23 L 44 18 L 59 10 L 77 5 L 93 4 L 105 5 L 117 8 L 118 4 L 94 0 L 77 1 L 67 3 L 55 7 Z M 88 186 L 90 184 L 94 185 L 92 187 L 89 188 Z M 133 185 L 141 186 L 142 184 L 138 183 L 139 181 L 144 181 L 151 184 L 153 186 L 151 188 L 141 190 L 136 189 Z M 131 161 L 128 164 L 127 162 Z M 160 164 L 171 161 L 173 159 L 165 160 L 165 157 L 170 155 L 185 156 L 176 164 L 168 167 Z M 138 140 L 138 147 L 135 155 L 132 158 L 132 152 L 130 152 L 128 157 L 126 159 L 125 156 L 128 147 L 135 139 Z M 158 115 L 161 123 L 161 130 L 159 132 L 158 123 L 156 124 L 156 133 L 154 135 L 152 131 L 152 122 L 154 116 Z M 199 110 L 201 113 L 201 115 L 197 122 L 189 130 L 179 133 L 180 130 L 187 125 L 193 119 L 191 118 L 183 125 L 182 122 L 184 119 L 192 113 Z M 172 86 L 175 96 L 173 98 L 172 96 L 170 96 L 170 98 L 168 100 L 167 91 L 169 86 Z" fill="currentColor" fill-rule="evenodd"/>
</svg>
