<svg xmlns="http://www.w3.org/2000/svg" width="125" height="125" viewBox="0 0 125 125" role="img" aria-hidden="true">
  <path d="M 2 19 L 0 25 L 0 110 L 4 118 L 9 122 L 16 124 L 91 123 L 95 124 L 99 123 L 106 119 L 109 116 L 112 108 L 112 75 L 110 73 L 104 74 L 104 102 L 103 109 L 96 115 L 15 115 L 9 110 L 9 24 L 12 21 L 45 21 L 49 18 L 48 13 L 46 12 L 14 12 L 9 13 Z M 120 0 L 106 1 L 78 0 L 75 1 L 74 5 L 75 7 L 78 9 L 107 10 L 93 25 L 60 57 L 56 62 L 56 66 L 58 68 L 62 68 L 75 54 L 114 16 L 116 18 L 116 47 L 120 50 L 124 46 L 124 3 Z" fill="currentColor" fill-rule="evenodd"/>
</svg>
