<svg xmlns="http://www.w3.org/2000/svg" width="233" height="20" viewBox="0 0 233 20" role="img" aria-hidden="true">
  <path d="M 112 5 L 110 7 L 110 11 L 113 14 L 116 14 L 120 10 L 120 8 L 117 5 Z M 207 8 L 207 10 L 214 16 L 219 16 L 220 13 L 227 13 L 231 11 L 231 7 L 220 5 L 220 2 L 215 2 L 211 4 Z M 222 10 L 223 8 L 226 9 Z M 214 7 L 217 8 L 217 10 L 215 12 L 213 10 Z M 25 9 L 18 3 L 13 2 L 10 5 L 6 5 L 1 7 L 0 10 L 3 13 L 13 14 L 14 17 L 18 15 Z M 14 11 L 16 9 L 15 8 L 18 8 L 20 9 Z M 202 9 L 199 7 L 175 8 L 168 6 L 169 3 L 168 0 L 159 2 L 153 7 L 129 8 L 130 11 L 154 12 L 159 17 L 164 19 L 167 19 L 169 16 L 168 12 L 170 11 L 191 12 L 200 11 Z M 30 8 L 31 11 L 33 12 L 53 11 L 65 13 L 62 16 L 63 19 L 66 19 L 71 17 L 78 11 L 94 11 L 98 12 L 101 9 L 77 7 L 72 2 L 66 0 L 62 2 L 64 5 L 62 7 L 54 8 L 51 7 L 50 8 Z" fill="currentColor" fill-rule="evenodd"/>
</svg>
