<svg xmlns="http://www.w3.org/2000/svg" width="233" height="458" viewBox="0 0 233 458" role="img" aria-hidden="true">
  <path d="M 66 457 L 69 457 L 76 452 L 84 449 L 90 445 L 103 441 L 115 439 L 137 439 L 149 441 L 163 446 L 165 445 L 173 449 L 175 452 L 177 453 L 178 452 L 163 444 L 151 440 L 133 437 L 119 437 L 104 439 L 88 444 L 81 447 Z M 77 156 L 74 161 L 74 286 L 75 289 L 82 295 L 177 295 L 180 294 L 186 287 L 186 164 L 184 158 L 180 155 L 156 154 L 156 151 L 153 147 L 141 147 L 138 142 L 133 138 L 125 138 L 123 139 L 117 147 L 106 147 L 104 148 L 104 152 L 101 155 L 79 155 Z M 81 158 L 102 158 L 104 160 L 104 165 L 106 167 L 152 167 L 155 164 L 156 158 L 178 158 L 182 162 L 183 164 L 183 285 L 178 291 L 81 291 L 78 288 L 78 161 Z M 117 270 L 118 273 L 165 273 L 167 271 Z M 117 245 L 118 247 L 166 245 Z M 108 239 L 102 242 L 102 243 L 96 248 L 93 245 L 91 245 L 91 247 L 97 252 L 105 244 Z M 117 219 L 118 221 L 166 219 Z M 107 212 L 104 213 L 100 219 L 96 222 L 93 219 L 91 219 L 91 221 L 97 226 L 101 222 Z M 117 193 L 118 196 L 135 195 L 165 196 L 167 194 Z M 108 188 L 104 188 L 96 196 L 93 193 L 91 193 L 91 195 L 97 200 Z M 130 142 L 128 144 L 127 144 L 124 147 L 124 142 L 126 141 Z M 91 111 L 78 117 L 70 122 L 61 129 L 53 137 L 42 152 L 34 169 L 31 179 L 31 183 L 29 185 L 27 183 L 27 179 L 24 171 L 24 167 L 21 162 L 17 172 L 15 181 L 15 193 L 18 202 L 22 209 L 23 227 L 21 229 L 15 219 L 0 205 L 0 209 L 5 227 L 9 234 L 15 240 L 21 244 L 27 251 L 29 258 L 37 275 L 36 278 L 26 269 L 18 265 L 6 261 L 7 264 L 16 278 L 21 283 L 31 289 L 39 290 L 50 295 L 62 307 L 68 311 L 68 315 L 58 309 L 53 308 L 33 308 L 33 310 L 44 318 L 53 322 L 81 321 L 95 327 L 109 331 L 116 332 L 146 332 L 154 338 L 160 340 L 176 339 L 178 338 L 178 335 L 171 331 L 161 328 L 161 325 L 163 323 L 176 323 L 181 322 L 192 317 L 206 302 L 197 304 L 183 305 L 172 311 L 161 322 L 153 326 L 147 327 L 144 326 L 150 320 L 152 316 L 154 309 L 154 306 L 152 306 L 145 312 L 141 319 L 140 325 L 136 329 L 134 330 L 112 329 L 95 324 L 82 318 L 73 312 L 66 305 L 63 298 L 62 282 L 56 266 L 54 266 L 54 270 L 52 276 L 52 283 L 54 290 L 58 297 L 56 298 L 50 292 L 45 285 L 42 275 L 42 268 L 49 251 L 47 228 L 42 236 L 37 248 L 37 261 L 40 271 L 38 273 L 32 264 L 33 262 L 28 247 L 29 230 L 31 226 L 39 218 L 43 211 L 47 193 L 45 189 L 33 203 L 31 207 L 28 219 L 28 229 L 26 231 L 24 222 L 24 207 L 27 199 L 29 188 L 30 188 L 32 183 L 34 174 L 36 169 L 38 167 L 38 164 L 44 152 L 52 141 L 65 128 L 75 121 L 77 121 L 80 118 L 99 110 L 122 106 L 145 107 L 162 111 L 170 114 L 189 125 L 194 129 L 210 146 L 217 157 L 226 178 L 230 196 L 231 216 L 228 239 L 223 255 L 216 270 L 209 281 L 205 285 L 205 287 L 215 274 L 225 254 L 230 238 L 232 224 L 232 199 L 229 182 L 224 168 L 217 154 L 207 140 L 194 127 L 186 121 L 171 113 L 157 108 L 142 105 L 125 104 L 108 106 Z M 154 333 L 158 334 L 160 330 L 169 332 L 174 335 L 171 338 L 165 339 L 154 336 Z M 150 310 L 152 312 L 150 318 L 146 321 L 144 319 L 144 316 L 145 314 Z M 40 310 L 55 310 L 60 312 L 60 315 L 55 314 L 56 316 L 63 317 L 66 319 L 64 321 L 58 321 L 50 319 L 40 313 Z M 201 306 L 194 313 L 185 319 L 175 321 L 175 318 L 177 318 L 180 315 L 189 311 L 185 311 L 173 317 L 172 314 L 180 308 L 186 306 L 195 305 Z M 38 278 L 45 287 L 44 290 L 40 286 L 37 280 Z M 56 273 L 58 275 L 61 286 L 59 288 L 57 283 L 54 281 Z M 11 267 L 14 266 L 19 267 L 25 270 L 29 273 L 35 280 L 33 282 L 29 279 L 35 285 L 33 287 L 21 281 Z M 42 259 L 43 261 L 41 263 L 40 261 Z M 47 237 L 47 241 L 48 242 L 47 251 L 45 258 L 43 260 L 42 253 L 39 252 L 39 247 L 43 237 Z M 5 212 L 13 219 L 18 227 L 13 228 L 17 236 L 15 237 L 9 231 L 7 227 L 3 214 Z M 44 197 L 44 201 L 41 211 L 39 215 L 34 220 L 33 217 L 34 213 L 32 216 L 31 212 L 33 206 L 35 203 Z M 23 170 L 23 173 L 26 181 L 26 195 L 24 197 L 21 188 L 21 196 L 19 198 L 17 194 L 17 179 L 19 175 L 19 171 Z M 73 0 L 77 0 L 78 1 L 87 1 L 88 0 L 90 0 Z" fill="currentColor" fill-rule="evenodd"/>
</svg>
