<svg xmlns="http://www.w3.org/2000/svg" width="810" height="163" viewBox="0 0 810 163" role="img" aria-hidden="true">
  <path d="M 0 128 L 0 134 L 3 138 L 8 138 L 13 134 L 15 128 L 25 125 L 44 125 L 51 126 L 56 128 L 43 136 L 35 136 L 32 139 L 31 142 L 32 147 L 37 151 L 43 149 L 46 146 L 48 138 L 57 133 L 67 130 L 117 130 L 131 128 L 135 129 L 128 135 L 115 136 L 105 141 L 99 148 L 96 154 L 97 160 L 109 160 L 118 157 L 126 150 L 131 139 L 136 134 L 142 130 L 154 126 L 169 125 L 171 127 L 167 131 L 162 131 L 158 133 L 157 135 L 157 142 L 159 144 L 162 145 L 165 144 L 170 139 L 170 134 L 180 127 L 183 126 L 201 126 L 226 130 L 251 137 L 273 141 L 285 142 L 321 140 L 332 141 L 328 144 L 322 144 L 318 149 L 318 154 L 321 157 L 326 157 L 328 156 L 332 150 L 332 147 L 335 144 L 342 140 L 346 139 L 365 140 L 379 143 L 390 148 L 394 151 L 404 162 L 414 151 L 427 144 L 443 140 L 450 139 L 464 139 L 468 140 L 477 145 L 480 153 L 484 157 L 489 157 L 492 154 L 493 150 L 488 144 L 482 144 L 481 140 L 519 142 L 534 141 L 548 139 L 574 132 L 579 132 L 583 130 L 607 126 L 627 126 L 634 129 L 641 135 L 641 140 L 647 145 L 650 144 L 654 140 L 654 135 L 649 131 L 643 131 L 640 125 L 655 126 L 662 128 L 670 132 L 679 139 L 682 148 L 688 155 L 699 160 L 713 160 L 714 154 L 712 150 L 702 139 L 693 135 L 682 135 L 677 132 L 676 128 L 680 128 L 682 130 L 692 129 L 736 129 L 753 134 L 758 137 L 762 141 L 763 147 L 768 151 L 773 150 L 777 146 L 777 140 L 773 136 L 764 136 L 754 130 L 754 127 L 765 125 L 783 125 L 792 128 L 795 131 L 795 134 L 799 138 L 804 138 L 809 133 L 808 127 L 800 120 L 800 118 L 803 114 L 803 112 L 800 109 L 794 109 L 792 110 L 787 116 L 775 120 L 765 120 L 758 122 L 731 125 L 725 124 L 724 125 L 720 123 L 722 121 L 736 121 L 748 116 L 755 110 L 760 103 L 764 94 L 763 89 L 749 90 L 737 94 L 726 104 L 723 109 L 722 114 L 716 120 L 706 125 L 680 124 L 673 121 L 671 123 L 669 123 L 661 119 L 667 119 L 673 116 L 681 108 L 684 102 L 685 97 L 683 95 L 679 95 L 672 97 L 665 101 L 660 108 L 658 114 L 653 119 L 649 121 L 624 120 L 597 122 L 581 126 L 575 126 L 573 128 L 567 129 L 566 125 L 571 124 L 580 119 L 587 110 L 591 102 L 593 95 L 592 89 L 587 89 L 575 94 L 568 101 L 564 109 L 562 116 L 562 121 L 554 129 L 547 133 L 533 136 L 524 134 L 527 131 L 528 128 L 527 124 L 524 121 L 517 121 L 515 122 L 513 126 L 513 129 L 509 133 L 502 136 L 491 136 L 472 134 L 473 131 L 477 128 L 483 127 L 490 124 L 501 114 L 506 105 L 509 95 L 508 90 L 500 91 L 487 97 L 481 103 L 477 111 L 475 118 L 475 123 L 467 131 L 461 134 L 438 135 L 438 133 L 442 129 L 448 120 L 450 112 L 449 102 L 445 95 L 441 91 L 433 87 L 420 87 L 412 91 L 404 101 L 401 96 L 396 91 L 388 87 L 375 87 L 368 90 L 363 95 L 359 105 L 359 113 L 361 121 L 366 129 L 371 134 L 368 136 L 351 134 L 344 131 L 337 125 L 336 116 L 330 103 L 319 94 L 311 91 L 303 90 L 303 96 L 305 103 L 311 115 L 319 123 L 324 126 L 334 128 L 338 133 L 336 135 L 308 136 L 301 133 L 297 129 L 297 126 L 294 122 L 292 121 L 285 121 L 283 123 L 283 131 L 286 134 L 284 136 L 275 136 L 264 134 L 256 130 L 248 122 L 248 116 L 246 109 L 240 99 L 234 94 L 223 89 L 217 89 L 217 96 L 224 112 L 231 120 L 239 125 L 244 125 L 247 128 L 241 129 L 239 127 L 228 126 L 225 124 L 218 124 L 202 121 L 188 120 L 161 121 L 155 118 L 152 115 L 149 106 L 142 99 L 131 95 L 126 95 L 126 101 L 128 107 L 130 110 L 139 118 L 150 120 L 148 122 L 113 125 L 100 124 L 96 122 L 89 116 L 87 109 L 84 104 L 74 95 L 62 90 L 46 89 L 49 101 L 54 109 L 61 116 L 70 120 L 79 122 L 77 124 L 66 124 L 60 122 L 50 122 L 43 120 L 29 119 L 21 116 L 18 112 L 14 109 L 7 110 L 6 115 L 7 117 L 11 120 L 19 121 L 13 125 L 3 124 Z M 489 150 L 485 153 L 483 150 L 487 149 Z M 326 150 L 323 153 L 322 150 Z M 686 143 L 698 151 L 702 150 L 693 143 L 694 140 L 700 143 L 707 150 L 708 154 L 706 156 L 695 154 L 691 152 L 686 147 Z M 35 144 L 36 140 L 41 140 L 43 143 L 40 146 L 37 146 Z M 768 139 L 770 139 L 773 143 L 770 146 L 768 146 L 766 144 L 766 141 Z M 125 145 L 118 152 L 114 154 L 107 156 L 103 156 L 101 153 L 104 148 L 108 144 L 118 139 L 121 140 L 109 148 L 109 151 L 115 149 L 122 144 Z M 164 135 L 166 137 L 162 140 L 160 137 L 162 135 Z M 514 136 L 515 134 L 519 135 L 517 137 Z M 292 136 L 293 134 L 296 135 Z M 803 128 L 805 131 L 801 134 L 799 132 L 800 128 Z M 519 124 L 521 124 L 524 128 L 520 129 L 519 128 Z M 288 124 L 290 124 L 293 128 L 289 131 L 287 129 Z M 81 123 L 82 121 L 87 121 L 90 123 L 88 125 L 83 125 Z M 790 121 L 791 119 L 794 119 L 796 122 L 794 124 L 792 123 Z M 732 116 L 733 113 L 737 114 Z M 678 100 L 680 102 L 677 107 L 670 113 L 669 111 L 673 107 L 671 102 Z M 132 100 L 137 101 L 142 105 L 140 107 L 138 107 L 138 112 L 131 103 Z M 309 96 L 312 96 L 319 99 L 327 106 L 330 112 L 327 114 L 319 106 L 317 106 L 318 109 L 325 117 L 324 121 L 320 118 L 313 110 L 308 99 Z M 502 95 L 504 98 L 498 111 L 487 121 L 483 120 L 492 110 L 494 106 L 491 106 L 481 117 L 480 114 L 484 106 L 490 100 Z M 759 95 L 757 100 L 752 107 L 743 114 L 740 113 L 739 110 L 747 103 L 741 103 L 728 109 L 736 100 L 743 96 L 750 94 Z M 588 95 L 588 98 L 582 110 L 573 118 L 572 115 L 580 105 L 577 104 L 575 105 L 569 113 L 568 109 L 573 101 L 580 96 L 585 94 Z M 225 95 L 231 97 L 237 102 L 242 111 L 240 113 L 235 106 L 231 105 L 234 115 L 232 115 L 226 108 L 222 99 Z M 51 95 L 53 93 L 66 96 L 75 101 L 81 108 L 78 110 L 71 105 L 65 102 L 63 102 L 63 104 L 66 107 L 76 113 L 76 116 L 68 115 L 63 112 L 57 106 Z M 364 105 L 367 98 L 373 93 L 376 92 L 386 92 L 394 96 L 398 100 L 400 105 L 398 108 L 398 114 L 400 117 L 403 119 L 407 118 L 412 112 L 412 110 L 410 107 L 410 101 L 415 95 L 422 92 L 432 92 L 438 95 L 442 99 L 444 104 L 445 111 L 444 112 L 444 116 L 439 125 L 431 133 L 413 145 L 404 153 L 401 149 L 383 137 L 379 133 L 377 133 L 370 126 L 364 114 Z M 778 0 L 780 2 L 785 2 L 787 0 Z M 721 0 L 725 1 L 729 5 L 737 4 L 735 2 L 735 0 Z M 712 0 L 715 5 L 719 9 L 730 14 L 744 15 L 750 14 L 752 12 L 752 10 L 745 0 L 739 0 L 746 8 L 743 11 L 733 10 L 731 8 L 726 8 L 721 5 L 716 0 Z M 660 0 L 664 6 L 669 11 L 680 15 L 691 15 L 694 14 L 696 11 L 692 5 L 687 0 Z M 669 5 L 673 4 L 676 6 L 680 0 L 689 8 L 685 11 L 680 11 L 672 8 Z M 601 0 L 605 1 L 609 5 L 609 7 L 616 15 L 622 18 L 634 19 L 639 18 L 641 16 L 641 14 L 637 8 L 629 0 Z M 617 10 L 621 9 L 624 10 L 626 7 L 629 6 L 635 13 L 633 15 L 626 15 L 622 14 Z M 503 0 L 505 2 L 508 4 L 512 4 L 508 0 Z M 495 0 L 499 7 L 502 10 L 509 14 L 518 16 L 525 16 L 527 14 L 526 9 L 523 3 L 520 0 L 514 0 L 521 8 L 520 11 L 511 10 L 507 8 L 500 0 Z M 393 0 L 400 3 L 403 6 L 405 6 L 410 2 L 415 0 Z M 283 16 L 296 15 L 303 12 L 310 6 L 314 0 L 301 0 L 298 2 L 298 5 L 304 1 L 308 2 L 298 10 L 289 12 L 287 9 L 290 4 L 294 0 L 288 0 L 282 12 Z M 172 18 L 184 19 L 191 17 L 195 15 L 202 8 L 205 2 L 210 0 L 184 0 L 176 6 L 171 14 Z M 197 8 L 191 13 L 186 15 L 177 14 L 178 10 L 182 6 L 188 3 L 191 4 L 187 7 L 187 10 L 189 10 L 194 7 Z M 116 14 L 129 15 L 136 13 L 141 10 L 147 4 L 149 0 L 139 0 L 131 4 L 127 3 L 131 0 L 121 1 L 115 9 Z M 121 10 L 122 6 L 125 3 L 128 4 L 128 8 L 139 3 L 142 4 L 134 10 L 129 11 Z M 73 5 L 76 5 L 88 0 L 77 0 Z M 59 14 L 78 14 L 87 11 L 91 8 L 98 0 L 93 0 L 83 8 L 77 10 L 71 10 L 70 11 L 64 10 L 64 7 L 69 0 L 63 1 L 58 10 Z M 22 0 L 24 2 L 28 2 L 30 0 Z" fill="currentColor" fill-rule="evenodd"/>
</svg>
