<svg xmlns="http://www.w3.org/2000/svg" width="213" height="377" viewBox="0 0 213 377" role="img" aria-hidden="true">
  <path d="M 63 376 L 74 376 L 85 371 L 102 367 L 122 367 L 140 371 L 151 376 L 162 376 L 160 374 L 147 368 L 130 363 L 120 362 L 103 362 L 96 364 L 90 363 L 83 366 L 81 368 L 69 372 Z M 55 74 L 54 77 L 54 155 L 58 158 L 64 158 L 71 156 L 91 155 L 101 156 L 115 161 L 119 161 L 129 157 L 142 155 L 156 155 L 170 157 L 175 159 L 181 154 L 181 77 L 179 74 L 171 72 L 171 65 L 169 63 L 161 61 L 142 62 L 134 64 L 128 67 L 119 74 L 116 75 L 111 70 L 101 65 L 91 62 L 74 61 L 66 62 L 64 64 L 64 72 L 62 74 L 58 73 Z M 177 79 L 177 152 L 175 154 L 171 154 L 168 152 L 163 151 L 140 150 L 136 152 L 134 149 L 147 145 L 168 146 L 171 143 L 173 76 Z M 59 77 L 61 76 L 64 77 L 63 94 L 64 144 L 66 146 L 83 145 L 90 146 L 94 148 L 100 149 L 100 152 L 89 150 L 83 151 L 80 150 L 76 152 L 64 153 L 63 154 L 58 153 Z M 165 67 L 167 69 L 167 138 L 165 140 L 139 142 L 133 145 L 130 145 L 128 147 L 126 147 L 121 152 L 119 150 L 120 131 L 119 90 L 121 77 L 133 70 L 142 67 L 148 66 L 160 66 Z M 69 67 L 85 66 L 96 68 L 110 75 L 115 80 L 116 87 L 116 150 L 113 152 L 105 146 L 94 142 L 89 141 L 70 142 L 68 140 Z M 99 0 L 80 4 L 70 8 L 56 16 L 42 27 L 32 40 L 21 59 L 20 67 L 16 79 L 16 84 L 18 83 L 19 75 L 23 64 L 31 48 L 43 33 L 54 23 L 73 12 L 94 6 L 115 5 L 135 8 L 144 11 L 148 14 L 152 15 L 156 18 L 158 18 L 164 23 L 170 26 L 184 40 L 192 50 L 201 68 L 207 90 L 207 119 L 205 129 L 200 144 L 189 165 L 185 170 L 167 188 L 143 202 L 117 208 L 102 207 L 84 202 L 82 200 L 76 199 L 67 194 L 60 189 L 54 182 L 53 179 L 50 179 L 45 173 L 42 166 L 42 157 L 46 147 L 46 136 L 42 122 L 39 122 L 34 133 L 33 139 L 34 150 L 32 152 L 30 149 L 29 143 L 26 136 L 25 121 L 29 112 L 31 104 L 30 93 L 31 88 L 28 81 L 28 78 L 26 76 L 24 76 L 21 81 L 16 97 L 17 113 L 22 123 L 23 130 L 21 132 L 15 124 L 3 113 L 0 113 L 2 128 L 6 137 L 15 147 L 23 150 L 31 158 L 37 171 L 35 171 L 30 167 L 26 166 L 13 165 L 10 166 L 10 168 L 17 175 L 27 180 L 34 181 L 39 180 L 43 181 L 70 201 L 88 209 L 104 212 L 123 212 L 142 207 L 161 198 L 173 189 L 189 172 L 200 155 L 207 137 L 211 118 L 212 98 L 209 78 L 206 68 L 203 63 L 200 54 L 188 37 L 167 17 L 165 17 L 154 9 L 151 9 L 136 3 L 119 0 Z M 17 168 L 25 173 L 25 176 L 23 176 L 16 170 Z M 35 154 L 36 156 L 34 158 L 33 156 Z M 39 140 L 39 142 L 37 144 Z M 39 132 L 42 133 L 42 135 L 38 136 Z M 11 132 L 15 139 L 13 141 L 8 134 Z M 6 120 L 17 132 L 16 135 L 12 131 L 11 128 L 4 125 Z M 23 86 L 26 86 L 26 90 L 28 92 L 28 105 L 27 109 L 25 111 L 24 106 L 25 92 L 23 92 L 22 103 L 20 105 L 19 98 Z" fill="currentColor" fill-rule="evenodd"/>
</svg>
