<svg xmlns="http://www.w3.org/2000/svg" viewBox="0 0 64 64" fill="none" stroke="currentColor" stroke-width="1.12" stroke-linecap="round" stroke-linejoin="round">
  <title>Anchor</title>
  <circle cx="32" cy="16" r="4"/><path d="M32 20 V48"/><path d="M20 32 H44"/><path d="M17 40 C22 51 42 51 47 40"/><path d="M17 40 L13 44"/><path d="M47 40 L51 44"/><g transform="translate(47 48) rotate(-28) scale(0.42)">
  <path d="M0 0 C4 -5 10 -5 14 0 C10 5 4 5 0 0Z"/>
  <path d="M1 0 C5 .2 9 .1 13 0"/>
</g><g transform="translate(16 17) scale(0.3)">
  <path d="M0 -5 V5"/>
  <path d="M-5 0 H5"/>
  <path d="M-3 -3 L3 3"/>
  <path d="M3 -3 L-3 3"/>
</g>
</svg>
