<svg xmlns="http://www.w3.org/2000/svg" width="298" height="206" viewBox="0 0 298 206" role="img" aria-hidden="true">
  <path d="M 0 165 L 5 163 L 13 157 L 19 151 L 19 149 L 17 148 L 2 148 L 0 149 L 0 152 L 13 152 L 8 157 L 4 157 L 6 155 L 3 154 L 1 155 L 0 158 L 2 157 L 5 158 L 0 162 Z M 291 82 L 288 82 L 285 87 L 275 98 L 269 108 L 267 117 L 267 134 L 260 150 L 255 157 L 255 159 L 263 149 L 270 136 L 275 133 L 285 123 L 288 118 L 293 104 L 293 87 Z M 271 117 L 274 119 L 273 121 L 271 123 Z M 287 90 L 290 91 L 288 109 L 282 120 L 277 125 L 276 122 L 285 103 L 287 96 L 285 96 L 282 104 L 276 112 L 274 109 L 274 107 L 277 101 Z M 13 82 L 10 82 L 0 96 L 0 104 L 4 96 L 8 96 L 3 105 L 0 114 L 0 132 L 5 127 L 13 113 L 15 104 L 15 89 Z M 9 90 L 12 91 L 12 102 L 7 118 L 1 126 L 0 123 L 6 109 L 8 99 L 9 98 L 7 95 Z M 185 61 L 181 62 L 181 97 L 178 100 L 159 99 L 145 100 L 146 105 L 153 106 L 179 105 L 181 107 L 181 143 L 184 145 L 186 143 L 186 112 L 191 106 L 221 105 L 223 102 L 221 100 L 188 100 L 186 98 Z M 143 10 L 125 24 L 115 34 L 109 42 L 99 62 L 95 74 L 92 90 L 92 117 L 94 130 L 101 150 L 112 168 L 126 183 L 136 191 L 155 201 L 171 205 L 192 205 L 211 200 L 229 190 L 237 190 L 244 192 L 251 192 L 256 191 L 267 186 L 268 182 L 266 182 L 261 179 L 251 179 L 248 175 L 244 180 L 235 185 L 234 183 L 246 172 L 252 168 L 255 167 L 269 167 L 281 163 L 287 159 L 297 148 L 291 146 L 282 146 L 273 149 L 269 149 L 252 163 L 252 161 L 250 162 L 249 159 L 253 153 L 257 141 L 257 136 L 255 132 L 254 123 L 251 116 L 247 117 L 245 122 L 242 125 L 240 136 L 240 147 L 244 159 L 244 164 L 241 171 L 224 187 L 219 190 L 215 191 L 212 194 L 204 198 L 201 198 L 198 200 L 177 201 L 170 200 L 153 195 L 132 182 L 114 163 L 104 145 L 99 132 L 99 127 L 96 116 L 96 92 L 97 84 L 100 76 L 100 72 L 106 57 L 118 38 L 132 24 L 150 13 L 164 8 L 173 6 L 195 5 L 218 10 L 223 14 L 226 14 L 232 17 L 247 28 L 253 34 L 263 48 L 271 66 L 275 88 L 276 73 L 273 60 L 269 49 L 263 39 L 255 29 L 237 13 L 231 11 L 225 7 L 216 5 L 211 2 L 188 0 L 177 0 L 166 2 L 154 6 L 149 9 Z M 261 184 L 256 188 L 245 190 L 244 186 L 253 185 L 254 182 Z M 280 158 L 276 162 L 269 164 L 267 161 L 277 157 Z M 274 154 L 275 151 L 278 150 L 290 151 L 284 156 L 282 154 L 277 155 Z M 249 124 L 251 126 L 253 134 L 253 143 L 251 151 L 249 153 L 248 149 L 250 139 L 249 132 L 247 133 L 247 147 L 245 149 L 243 145 L 244 132 L 247 125 Z" fill="currentColor" fill-rule="evenodd"/>
</svg>
