<svg xmlns="http://www.w3.org/2000/svg" width="236" height="225" viewBox="0 0 236 225" role="img" aria-hidden="true">
  <path d="M 131 194 L 126 194 L 124 196 L 124 201 L 128 206 L 126 215 L 120 224 L 122 224 L 126 219 L 130 210 L 130 204 L 134 200 L 134 197 Z M 130 196 L 132 199 L 128 202 L 126 200 L 127 196 Z M 39 150 L 42 154 L 41 150 Z M 204 60 L 200 73 L 199 80 L 199 93 L 201 101 L 207 113 L 207 122 L 205 133 L 203 137 L 203 145 L 202 148 L 198 152 L 195 157 L 194 150 L 197 141 L 198 129 L 192 115 L 183 105 L 181 105 L 181 130 L 183 137 L 187 145 L 192 151 L 190 167 L 185 176 L 175 189 L 154 209 L 153 205 L 164 189 L 166 184 L 168 173 L 167 165 L 164 156 L 161 150 L 157 149 L 151 162 L 148 173 L 148 183 L 152 196 L 152 203 L 149 209 L 142 217 L 128 224 L 155 223 L 172 224 L 173 222 L 169 222 L 160 218 L 164 217 L 169 217 L 181 221 L 181 224 L 188 223 L 178 217 L 169 215 L 158 216 L 149 221 L 145 222 L 144 220 L 166 204 L 176 201 L 192 201 L 201 198 L 213 187 L 220 176 L 209 175 L 199 178 L 188 184 L 175 199 L 172 197 L 186 181 L 194 168 L 199 164 L 199 162 L 206 155 L 216 151 L 226 142 L 230 136 L 235 121 L 235 116 L 232 116 L 219 124 L 216 131 L 211 136 L 209 140 L 207 150 L 200 157 L 199 154 L 204 145 L 209 128 L 211 113 L 214 107 L 217 97 L 217 84 L 215 77 L 207 62 Z M 215 179 L 213 183 L 202 194 L 195 198 L 191 199 L 185 197 L 188 194 L 190 194 L 196 190 L 201 190 L 201 188 L 204 185 L 207 184 L 208 182 L 206 182 L 200 185 L 193 190 L 185 192 L 185 190 L 193 183 L 203 179 L 209 179 L 210 178 Z M 159 154 L 162 157 L 165 167 L 165 179 L 164 183 L 161 186 L 161 189 L 158 193 L 157 190 L 159 186 L 160 175 L 158 164 L 157 183 L 156 188 L 153 191 L 151 187 L 151 179 L 153 178 L 154 172 L 152 170 L 152 167 L 157 155 Z M 228 121 L 231 124 L 230 129 L 225 139 L 214 149 L 214 145 L 211 144 L 212 139 L 218 129 Z M 226 128 L 223 129 L 222 131 L 222 133 L 225 131 Z M 186 112 L 192 120 L 195 130 L 195 138 L 193 140 L 190 128 L 188 127 L 188 125 L 191 137 L 191 141 L 189 143 L 185 137 L 183 130 Z M 208 69 L 213 79 L 212 82 L 214 83 L 215 94 L 214 100 L 211 104 L 209 90 L 210 82 L 206 76 L 208 90 L 208 103 L 206 105 L 204 102 L 202 95 L 201 82 L 203 80 L 202 77 L 203 73 Z M 176 23 L 159 12 L 140 4 L 118 0 L 97 0 L 78 4 L 69 7 L 58 12 L 56 14 L 54 14 L 39 25 L 25 39 L 15 54 L 9 66 L 4 81 L 0 102 L 0 127 L 3 145 L 7 157 L 13 169 L 17 175 L 28 186 L 36 192 L 34 194 L 5 193 L 6 195 L 37 197 L 12 215 L 12 218 L 15 215 L 18 214 L 36 201 L 40 201 L 35 224 L 38 223 L 38 219 L 40 212 L 44 209 L 46 209 L 48 211 L 53 224 L 55 224 L 52 213 L 48 205 L 49 200 L 71 214 L 79 216 L 54 200 L 51 199 L 51 196 L 58 197 L 87 194 L 61 194 L 58 190 L 58 192 L 56 194 L 51 191 L 56 189 L 60 185 L 69 180 L 82 170 L 79 170 L 76 173 L 74 173 L 50 189 L 48 190 L 47 188 L 64 155 L 66 153 L 70 154 L 78 146 L 95 134 L 99 134 L 104 132 L 111 127 L 133 105 L 161 74 L 164 69 L 165 63 L 164 58 L 159 51 L 148 40 L 136 33 L 128 33 L 121 35 L 118 37 L 111 47 L 102 57 L 76 93 L 72 104 L 71 117 L 64 139 L 61 144 L 61 147 L 63 149 L 63 151 L 47 182 L 44 185 L 40 158 L 41 188 L 39 190 L 32 185 L 21 174 L 15 165 L 11 157 L 7 145 L 4 129 L 4 101 L 8 81 L 17 58 L 28 42 L 37 32 L 46 24 L 62 14 L 71 10 L 85 6 L 97 4 L 120 4 L 127 5 L 148 11 L 167 21 L 175 27 L 178 31 L 189 41 L 197 52 L 199 49 L 196 44 Z M 44 203 L 46 206 L 43 209 Z M 66 142 L 68 142 L 72 146 L 72 148 L 69 150 L 65 147 Z M 108 124 L 103 128 L 97 128 L 104 123 Z M 76 117 L 88 125 L 93 131 L 76 144 L 68 138 L 68 135 L 71 129 L 74 118 Z M 79 99 L 85 103 L 90 108 L 94 110 L 104 119 L 95 127 L 75 111 L 76 101 Z M 161 64 L 160 69 L 155 74 L 153 72 L 153 70 L 156 66 Z M 118 45 L 120 48 L 107 64 L 106 67 L 98 76 L 94 83 L 88 90 L 88 92 L 91 90 L 116 57 L 122 51 L 124 51 L 147 72 L 116 107 L 115 113 L 149 75 L 153 77 L 112 122 L 95 106 L 82 98 L 80 96 L 80 94 L 92 76 L 106 59 L 108 55 L 112 50 Z M 134 37 L 136 37 L 146 43 L 159 57 L 155 63 L 149 69 L 126 49 L 126 46 Z M 129 38 L 123 44 L 119 44 L 119 42 L 124 37 Z" fill="currentColor" fill-rule="evenodd"/>
</svg>
