<svg xmlns="http://www.w3.org/2000/svg" width="280" height="194" viewBox="0 0 280 194" role="img" aria-hidden="true">
  <path d="M 0 166 L 0 180 L 4 175 L 4 171 Z M 98 108 L 99 122 L 104 135 L 113 145 L 120 149 L 123 149 L 128 154 L 130 158 L 134 162 L 134 166 L 131 163 L 120 159 L 105 159 L 104 160 L 101 160 L 101 163 L 109 170 L 116 174 L 126 176 L 136 173 L 140 173 L 146 175 L 156 182 L 154 184 L 142 184 L 140 185 L 139 188 L 141 190 L 145 190 L 151 187 L 164 187 L 168 189 L 176 190 L 170 185 L 167 178 L 167 168 L 163 163 L 160 164 L 160 172 L 165 181 L 162 182 L 158 180 L 151 173 L 149 168 L 149 160 L 151 154 L 151 148 L 149 141 L 142 128 L 140 126 L 138 126 L 135 136 L 135 143 L 138 156 L 140 160 L 146 166 L 144 168 L 135 159 L 127 149 L 125 141 L 125 136 L 123 130 L 119 125 L 118 122 L 105 111 L 100 108 Z M 107 164 L 108 162 L 121 162 L 125 164 L 123 166 L 116 165 L 117 167 L 119 167 L 122 169 L 127 169 L 129 171 L 127 173 L 118 172 L 114 170 Z M 139 135 L 143 135 L 147 144 L 145 146 L 141 140 L 141 144 L 139 146 L 138 137 Z M 110 122 L 112 121 L 118 127 L 120 131 L 118 134 L 113 128 Z M 103 114 L 109 118 L 109 122 L 105 120 L 109 128 L 117 139 L 115 142 L 107 135 L 105 131 L 101 118 Z M 279 105 L 275 105 L 261 114 L 254 121 L 248 134 L 246 146 L 239 155 L 227 167 L 226 163 L 234 153 L 237 145 L 236 126 L 234 122 L 231 122 L 227 128 L 222 139 L 221 153 L 223 159 L 223 164 L 219 172 L 210 180 L 203 182 L 204 176 L 210 169 L 210 164 L 208 162 L 204 162 L 202 164 L 202 175 L 197 184 L 189 191 L 189 193 L 192 193 L 194 191 L 206 186 L 222 186 L 226 189 L 227 192 L 233 193 L 237 189 L 237 187 L 234 183 L 228 183 L 224 185 L 214 183 L 214 181 L 222 175 L 229 172 L 237 171 L 245 174 L 255 174 L 262 172 L 273 165 L 278 159 L 271 157 L 254 157 L 248 158 L 243 160 L 235 167 L 234 165 L 240 159 L 249 147 L 261 142 L 266 138 L 272 131 L 276 122 Z M 250 168 L 252 166 L 261 163 L 254 162 L 257 160 L 268 160 L 271 162 L 267 166 L 258 171 L 254 172 L 251 170 Z M 234 140 L 234 144 L 232 146 Z M 233 131 L 234 135 L 232 137 L 230 137 L 227 146 L 227 150 L 225 152 L 224 146 L 225 145 L 225 139 L 229 132 Z M 267 116 L 266 119 L 255 132 L 254 127 L 258 121 L 262 117 Z M 273 110 L 275 112 L 272 124 L 268 132 L 260 138 L 257 137 L 257 135 L 268 121 L 270 112 Z M 188 0 L 178 0 L 167 2 L 157 6 L 147 12 L 137 22 L 132 29 L 128 38 L 125 50 L 125 68 L 131 89 L 149 122 L 153 126 L 183 176 L 190 168 L 196 157 L 204 146 L 207 139 L 212 133 L 230 103 L 240 81 L 244 63 L 243 48 L 240 38 L 235 28 L 228 19 L 219 11 L 206 4 L 196 1 Z M 190 9 L 202 12 L 210 16 L 223 27 L 228 34 L 233 45 L 235 56 L 235 62 L 234 63 L 234 70 L 232 77 L 226 92 L 205 128 L 199 136 L 194 146 L 189 152 L 187 157 L 182 159 L 180 154 L 177 151 L 166 131 L 161 125 L 141 90 L 134 70 L 134 50 L 137 39 L 140 33 L 145 26 L 152 19 L 167 11 L 177 9 Z M 186 33 L 177 34 L 166 39 L 162 44 L 157 57 L 157 66 L 162 77 L 171 85 L 179 88 L 188 88 L 199 83 L 206 76 L 211 66 L 211 54 L 206 44 L 200 38 L 194 35 Z M 179 42 L 189 42 L 192 43 L 200 50 L 203 57 L 202 67 L 193 77 L 189 79 L 180 79 L 173 76 L 168 71 L 166 66 L 166 54 L 169 48 L 174 44 Z" fill="currentColor" fill-rule="evenodd"/>
</svg>
