<svg xmlns="http://www.w3.org/2000/svg" width="270" height="160" viewBox="0 0 270 160" role="img" aria-hidden="true">
  <path d="M 0 100 L 0 135 L 0 132 L 2 127 L 2 108 Z M 239 17 L 220 6 L 207 2 L 189 0 L 173 1 L 163 3 L 148 9 L 137 16 L 124 28 L 117 38 L 109 56 L 107 67 L 107 89 L 109 99 L 116 115 L 122 123 L 122 127 L 119 137 L 113 150 L 113 156 L 116 159 L 129 158 L 138 155 L 150 148 L 152 148 L 165 154 L 182 157 L 201 156 L 218 151 L 228 146 L 241 137 L 249 129 L 258 117 L 264 105 L 268 90 L 269 74 L 266 56 L 259 40 L 252 30 Z M 236 25 L 246 35 L 255 50 L 259 61 L 261 71 L 261 85 L 258 98 L 253 110 L 244 123 L 237 130 L 233 132 L 225 139 L 215 144 L 195 149 L 180 149 L 166 146 L 153 140 L 150 140 L 142 145 L 140 145 L 138 147 L 122 152 L 121 149 L 128 133 L 130 121 L 122 110 L 116 95 L 114 84 L 114 71 L 117 57 L 121 47 L 127 37 L 133 30 L 143 21 L 156 14 L 164 11 L 178 8 L 196 8 L 210 11 L 226 18 Z M 180 64 L 179 66 L 179 117 L 180 119 L 193 120 L 196 117 L 196 66 L 194 64 Z M 186 69 L 191 72 L 191 112 L 189 114 L 185 113 L 184 71 Z M 183 37 L 180 39 L 178 43 L 178 49 L 181 54 L 185 56 L 190 56 L 196 51 L 197 49 L 197 43 L 195 40 L 191 37 Z M 183 45 L 185 43 L 189 43 L 192 47 L 190 49 L 185 49 L 183 47 Z" fill="currentColor" fill-rule="evenodd"/>
</svg>
