<svg xmlns="http://www.w3.org/2000/svg" width="85" height="259" viewBox="0 0 85 259" role="img" aria-hidden="true">
  <path d="M 43 222 L 39 222 L 26 238 L 21 248 L 20 258 L 24 258 L 28 244 L 33 236 L 41 231 L 42 247 L 38 258 L 44 257 L 47 247 L 47 238 Z M 83 0 L 77 0 L 68 4 L 61 10 L 55 20 L 53 26 L 53 33 L 48 38 L 40 49 L 39 46 L 42 41 L 44 34 L 42 22 L 38 15 L 33 10 L 29 9 L 27 11 L 23 20 L 22 30 L 25 40 L 34 50 L 34 57 L 29 67 L 25 71 L 22 70 L 20 62 L 17 56 L 10 49 L 4 48 L 0 58 L 0 69 L 5 80 L 14 88 L 15 90 L 15 95 L 7 114 L 1 136 L 0 146 L 2 148 L 5 145 L 6 136 L 9 124 L 13 115 L 19 111 L 36 112 L 40 111 L 47 107 L 52 102 L 56 96 L 56 94 L 51 90 L 48 89 L 39 89 L 32 91 L 21 97 L 22 90 L 28 79 L 32 75 L 40 71 L 43 71 L 52 74 L 58 74 L 65 72 L 75 65 L 80 59 L 81 56 L 73 51 L 60 50 L 50 54 L 42 61 L 41 64 L 36 66 L 36 63 L 42 56 L 45 50 L 55 38 L 65 35 L 71 32 L 79 24 L 82 18 L 84 10 Z M 21 97 L 22 100 L 18 106 L 17 102 Z M 49 96 L 49 98 L 43 104 L 37 107 L 27 107 L 25 105 L 25 103 L 31 97 L 35 95 L 42 94 Z M 74 58 L 66 66 L 62 68 L 51 69 L 46 67 L 46 64 L 51 59 L 57 56 L 68 55 Z M 8 54 L 15 62 L 17 68 L 17 76 L 16 79 L 13 81 L 8 76 L 5 70 L 5 57 L 6 55 Z M 30 16 L 32 16 L 38 24 L 38 40 L 37 42 L 34 44 L 30 39 L 27 32 L 27 24 Z M 77 6 L 79 8 L 79 11 L 76 19 L 72 24 L 64 30 L 61 31 L 58 29 L 59 23 L 62 17 L 70 9 Z" fill="currentColor" fill-rule="evenodd"/>
</svg>
