<svg xmlns="http://www.w3.org/2000/svg" width="234" height="240" viewBox="0 0 234 240" role="img" aria-hidden="true">
  <path d="M 76 236 L 73 232 L 69 233 L 66 239 L 76 239 Z M 23 230 L 23 234 L 25 239 L 44 239 L 41 236 L 31 231 Z M 205 86 L 205 90 L 207 96 L 215 113 L 222 123 L 233 132 L 233 125 L 227 120 L 220 111 L 214 99 L 213 91 L 224 91 L 233 94 L 233 88 L 219 85 L 207 85 Z M 105 0 L 98 1 L 88 7 L 78 15 L 69 27 L 61 45 L 58 57 L 49 70 L 46 66 L 46 61 L 48 52 L 47 45 L 48 41 L 45 26 L 38 10 L 36 8 L 33 9 L 29 26 L 28 46 L 30 59 L 33 68 L 38 78 L 38 88 L 25 115 L 23 117 L 22 109 L 23 99 L 22 92 L 18 79 L 12 68 L 8 64 L 5 59 L 0 58 L 0 81 L 1 87 L 3 90 L 4 96 L 10 108 L 18 119 L 18 129 L 3 157 L 3 162 L 5 164 L 8 161 L 15 146 L 18 143 L 24 140 L 35 140 L 54 136 L 65 130 L 76 121 L 78 118 L 76 116 L 58 116 L 51 117 L 35 124 L 29 128 L 23 134 L 22 131 L 26 126 L 27 121 L 34 110 L 47 102 L 59 101 L 67 99 L 78 94 L 89 86 L 104 69 L 103 66 L 93 66 L 77 70 L 67 75 L 57 82 L 41 99 L 40 96 L 44 88 L 48 84 L 49 80 L 60 62 L 79 48 L 87 40 L 95 29 L 102 14 Z M 66 122 L 62 126 L 50 132 L 46 133 L 43 132 L 41 134 L 34 133 L 35 130 L 48 123 L 57 121 Z M 95 73 L 81 86 L 74 90 L 70 91 L 68 93 L 58 96 L 52 94 L 63 84 L 74 77 L 85 73 L 90 73 L 91 72 Z M 8 71 L 15 84 L 17 91 L 18 106 L 16 108 L 11 100 L 6 86 L 5 80 Z M 38 21 L 42 35 L 42 61 L 41 67 L 39 69 L 37 66 L 35 59 L 33 40 L 34 25 Z M 97 11 L 94 20 L 84 35 L 71 48 L 66 49 L 69 38 L 79 22 L 93 10 Z" fill="currentColor" fill-rule="evenodd"/>
</svg>
