<svg xmlns="http://www.w3.org/2000/svg" width="120" height="254" viewBox="0 0 120 254" role="img" aria-hidden="true">
  <path d="M 6 215 L 4 217 L 4 250 L 6 252 L 9 252 L 10 253 L 29 252 L 33 247 L 33 220 L 31 216 L 29 215 Z M 13 222 L 24 222 L 26 224 L 26 242 L 23 245 L 12 245 L 10 243 L 10 230 L 11 224 Z M 52 196 L 48 198 L 47 200 L 47 249 L 48 251 L 72 252 L 76 248 L 76 200 L 71 196 Z M 55 203 L 67 203 L 69 205 L 69 242 L 66 245 L 56 245 L 54 243 Z M 94 170 L 92 171 L 90 174 L 90 249 L 91 251 L 97 253 L 115 252 L 119 247 L 119 174 L 115 170 L 104 171 Z M 98 177 L 110 177 L 112 179 L 112 242 L 109 245 L 99 245 L 97 243 Z M 114 122 L 111 119 L 99 119 L 83 121 L 84 127 L 100 128 L 80 149 L 65 161 L 51 170 L 25 182 L 8 187 L 4 187 L 0 189 L 1 195 L 11 194 L 30 188 L 40 184 L 59 174 L 85 155 L 104 135 L 107 136 L 108 151 L 110 152 L 114 148 Z M 22 0 L 26 3 L 42 11 L 50 14 L 57 15 L 79 15 L 89 13 L 98 10 L 115 0 L 98 0 L 93 3 L 77 7 L 60 7 L 51 5 L 39 0 Z" fill="currentColor" fill-rule="evenodd"/>
</svg>
