<svg xmlns="http://www.w3.org/2000/svg" viewBox="0 0 64 64" fill="none" stroke="currentColor" stroke-width="1.12" stroke-linecap="round" stroke-linejoin="round">
  <title>Body Silhouette</title>
  <path d="M32 13 C27 19 26 26 28 34 C24 41 22 48 21 53"/><path d="M32 13 C37 19 38 26 36 34 C40 41 42 48 43 53"/><path d="M25 31 C29 34 35 34 39 31"/><g transform="translate(44 46) rotate(-20) scale(0.34)">
  <path d="M0 0 C4 -5 10 -5 14 0 C10 5 4 5 0 0Z"/>
  <path d="M1 0 C5 .2 9 .1 13 0"/>
</g>
</svg>
