<svg xmlns="http://www.w3.org/2000/svg" width="208" height="178" viewBox="0 0 208 178" role="img" aria-hidden="true">
  <path d="M 207 123 L 203 122 L 188 124 L 177 128 L 167 137 L 165 141 L 155 150 L 150 156 L 145 159 L 143 156 L 148 151 L 154 147 L 159 141 L 162 129 L 163 114 L 162 111 L 159 112 L 159 114 L 148 124 L 143 132 L 142 135 L 142 151 L 137 159 L 128 167 L 103 177 L 115 176 L 127 173 L 130 171 L 142 171 L 154 176 L 166 176 L 176 173 L 179 170 L 169 164 L 161 163 L 156 161 L 153 161 L 150 163 L 149 161 L 152 158 L 154 158 L 161 153 L 175 153 L 187 148 L 196 140 Z M 152 172 L 152 169 L 160 170 L 161 168 L 156 167 L 157 165 L 162 165 L 169 168 L 171 170 L 169 172 L 160 174 L 156 174 Z M 192 137 L 185 145 L 177 148 L 175 145 L 183 139 L 189 136 Z M 199 128 L 195 132 L 191 131 L 187 132 L 183 135 L 181 135 L 178 138 L 176 138 L 173 141 L 170 139 L 175 134 L 184 129 L 192 127 Z M 159 122 L 158 132 L 156 134 L 156 126 L 154 127 L 150 133 L 149 129 L 150 127 L 156 121 Z M 85 50 L 75 55 L 64 66 L 58 77 L 56 87 L 56 103 L 57 108 L 66 124 L 81 137 L 85 137 L 93 140 L 102 141 L 116 139 L 124 134 L 127 134 L 132 130 L 142 119 L 145 113 L 148 103 L 149 86 L 145 78 L 144 72 L 141 67 L 125 53 L 121 52 L 117 49 L 112 48 L 95 48 Z M 98 53 L 109 54 L 117 56 L 119 58 L 121 58 L 126 61 L 133 68 L 138 75 L 142 83 L 143 88 L 143 98 L 141 108 L 135 118 L 122 130 L 116 133 L 108 135 L 93 134 L 76 126 L 70 120 L 66 114 L 62 103 L 62 83 L 68 70 L 78 60 L 88 55 L 97 54 Z M 94 74 L 90 76 L 85 81 L 83 85 L 82 90 L 83 100 L 87 107 L 94 113 L 97 114 L 110 113 L 121 103 L 123 95 L 123 89 L 119 82 L 112 76 L 107 74 L 102 74 L 101 73 Z M 100 80 L 103 84 L 102 86 L 96 92 L 92 92 L 90 90 L 90 84 L 94 80 Z M 0 92 L 2 98 L 7 105 L 23 120 L 38 132 L 47 137 L 49 137 L 52 140 L 58 142 L 60 144 L 69 146 L 75 149 L 80 149 L 85 151 L 95 152 L 114 152 L 125 150 L 130 148 L 134 144 L 134 141 L 129 143 L 123 143 L 111 146 L 93 146 L 81 144 L 74 141 L 71 141 L 69 139 L 66 139 L 49 131 L 44 126 L 42 126 L 39 123 L 33 120 L 31 117 L 24 110 L 20 108 L 9 96 L 9 92 L 12 87 L 32 68 L 48 57 L 54 55 L 62 50 L 87 43 L 94 43 L 95 42 L 117 43 L 122 45 L 132 46 L 146 52 L 153 57 L 169 65 L 178 74 L 180 74 L 188 83 L 198 92 L 198 94 L 189 105 L 181 113 L 177 115 L 175 120 L 175 123 L 177 123 L 182 120 L 198 104 L 206 93 L 204 89 L 200 86 L 194 78 L 189 74 L 185 69 L 165 54 L 152 47 L 149 47 L 139 43 L 137 41 L 127 38 L 115 36 L 111 37 L 90 36 L 81 37 L 73 39 L 67 42 L 58 44 L 52 47 L 49 50 L 40 54 L 32 61 L 26 64 L 21 70 L 9 81 Z M 37 22 L 37 26 L 41 30 L 42 33 L 47 39 L 49 37 L 48 33 L 45 30 L 41 23 Z M 166 21 L 163 22 L 163 24 L 155 35 L 155 39 L 159 36 L 168 23 Z M 138 6 L 135 7 L 135 9 L 132 14 L 132 18 L 130 21 L 132 27 L 135 23 L 139 9 Z M 66 6 L 66 11 L 69 21 L 72 27 L 75 26 L 75 23 L 71 13 L 71 10 L 69 6 Z M 103 0 L 101 0 L 100 2 L 102 23 L 105 20 L 105 2 Z" fill="currentColor" fill-rule="evenodd"/>
</svg>
