<svg xmlns="http://www.w3.org/2000/svg" width="114" height="265" viewBox="0 0 114 265" role="img" aria-hidden="true">
  <path d="M 55 97 L 51 98 L 51 103 L 59 112 L 64 121 L 67 130 L 67 138 L 69 149 L 74 157 L 81 164 L 93 173 L 83 182 L 83 188 L 87 195 L 79 200 L 80 205 L 85 208 L 82 212 L 82 218 L 84 223 L 84 228 L 80 232 L 75 234 L 69 234 L 54 231 L 45 232 L 41 234 L 36 238 L 32 245 L 28 257 L 28 262 L 30 264 L 32 264 L 35 261 L 36 254 L 40 245 L 45 240 L 48 239 L 57 239 L 64 241 L 79 241 L 84 239 L 88 235 L 91 230 L 91 222 L 89 218 L 89 214 L 94 209 L 94 205 L 92 203 L 92 200 L 95 196 L 95 192 L 90 187 L 90 185 L 99 177 L 100 175 L 99 169 L 95 165 L 86 159 L 78 151 L 78 149 L 82 145 L 81 141 L 75 142 L 74 140 L 74 130 L 71 119 L 60 101 Z M 70 3 L 72 5 L 105 5 L 108 4 L 113 0 L 70 0 Z M 0 0 L 7 5 L 40 5 L 44 0 Z" fill="currentColor" fill-rule="evenodd"/>
</svg>
