<svg xmlns="http://www.w3.org/2000/svg" width="116" height="206" viewBox="0 0 116 206" role="img" aria-hidden="true">
  <path d="M 2 202 L 4 204 L 24 205 L 44 204 L 61 205 L 62 204 L 101 205 L 106 204 L 109 201 L 109 198 L 105 195 L 85 196 L 5 195 L 3 196 Z M 2 162 L 2 167 L 5 170 L 105 170 L 109 166 L 109 164 L 106 161 L 4 161 Z M 2 133 L 4 135 L 10 136 L 105 135 L 109 131 L 109 129 L 106 126 L 5 126 L 3 127 Z M 0 0 L 6 6 L 11 8 L 104 8 L 109 6 L 115 0 Z" fill="currentColor" fill-rule="evenodd"/>
</svg>
