<svg xmlns="http://www.w3.org/2000/svg" width="219" height="210" viewBox="0 0 219 210" role="img" aria-hidden="true">
  <path d="M 52 57 L 49 63 L 48 68 L 48 84 L 52 99 L 57 107 L 59 113 L 67 125 L 82 141 L 91 148 L 103 155 L 117 159 L 126 159 L 137 154 L 143 148 L 147 140 L 147 133 L 145 129 L 138 123 L 125 116 L 119 116 L 116 118 L 109 126 L 107 126 L 98 119 L 90 111 L 78 93 L 78 88 L 86 82 L 88 77 L 88 71 L 85 65 L 82 54 L 76 48 L 70 47 L 61 49 Z M 61 55 L 66 53 L 73 53 L 78 57 L 83 72 L 83 77 L 79 82 L 73 86 L 73 93 L 81 108 L 88 115 L 94 123 L 97 124 L 103 129 L 107 131 L 110 131 L 112 130 L 119 122 L 125 122 L 132 127 L 137 128 L 142 133 L 141 142 L 133 151 L 129 153 L 122 154 L 108 151 L 102 147 L 99 147 L 96 144 L 94 144 L 88 138 L 82 134 L 74 125 L 72 120 L 68 117 L 68 114 L 62 108 L 58 100 L 52 80 L 52 70 L 53 66 L 56 60 Z M 21 37 L 17 42 L 14 49 L 9 56 L 4 69 L 0 87 L 0 118 L 3 132 L 11 153 L 26 175 L 36 184 L 40 189 L 42 189 L 51 196 L 75 206 L 91 209 L 105 209 L 125 204 L 141 196 L 151 189 L 158 187 L 170 190 L 181 189 L 192 184 L 195 181 L 190 178 L 186 177 L 169 177 L 161 182 L 160 180 L 173 168 L 179 165 L 194 164 L 203 160 L 214 150 L 218 144 L 217 141 L 205 142 L 195 145 L 191 149 L 187 151 L 186 148 L 190 142 L 191 138 L 202 127 L 207 118 L 209 109 L 209 92 L 206 86 L 203 87 L 200 93 L 192 104 L 189 118 L 190 134 L 186 142 L 186 145 L 182 149 L 179 156 L 175 160 L 174 157 L 176 155 L 178 150 L 180 139 L 178 127 L 175 122 L 174 118 L 170 117 L 165 128 L 164 135 L 164 144 L 169 160 L 166 169 L 153 182 L 150 183 L 141 191 L 127 199 L 124 199 L 115 203 L 110 204 L 90 204 L 80 201 L 75 201 L 58 194 L 54 190 L 50 189 L 45 184 L 38 180 L 23 163 L 20 158 L 19 154 L 13 146 L 6 126 L 4 112 L 4 90 L 5 83 L 9 68 L 17 51 L 29 35 L 40 25 L 43 24 L 49 19 L 58 14 L 74 8 L 90 5 L 109 5 L 120 7 L 136 12 L 156 24 L 170 37 L 180 51 L 189 72 L 192 85 L 192 96 L 194 95 L 194 77 L 188 56 L 180 43 L 180 41 L 162 22 L 144 10 L 135 6 L 119 1 L 89 0 L 69 4 L 46 14 L 36 22 Z M 167 186 L 168 184 L 175 185 L 173 187 Z M 177 183 L 180 182 L 178 181 L 179 179 L 185 180 L 187 182 L 185 184 L 179 186 Z M 184 156 L 183 158 L 179 162 L 178 160 L 180 157 Z M 213 146 L 204 155 L 199 155 L 206 150 L 198 151 L 197 152 L 194 151 L 201 146 L 205 145 Z M 172 125 L 175 129 L 176 136 L 174 138 L 171 131 L 171 148 L 169 150 L 167 146 L 167 136 L 168 131 Z M 201 103 L 198 109 L 197 115 L 193 121 L 192 116 L 196 105 L 198 102 Z M 205 96 L 206 99 L 206 108 L 204 115 L 201 118 L 200 114 L 203 105 L 203 101 L 201 99 L 201 97 Z" fill="currentColor" fill-rule="evenodd"/>
</svg>
