<svg xmlns="http://www.w3.org/2000/svg" width="160" height="158" viewBox="0 0 160 158" role="img" aria-hidden="true">
  <path d="M 120 123 L 117 125 L 115 129 L 115 133 L 117 137 L 119 138 L 121 137 L 122 144 L 124 146 L 128 143 L 128 137 L 132 133 L 133 130 L 129 124 L 127 123 Z M 121 127 L 125 127 L 129 131 L 129 133 L 126 137 L 120 136 L 119 129 Z M 20 30 L 13 37 L 6 49 L 1 63 L 0 73 L 0 94 L 5 111 L 15 127 L 28 140 L 40 148 L 49 152 L 69 157 L 90 156 L 104 152 L 114 147 L 117 144 L 112 143 L 110 145 L 100 149 L 83 153 L 68 152 L 67 148 L 70 148 L 75 146 L 85 140 L 88 137 L 86 135 L 81 136 L 65 133 L 54 133 L 41 137 L 34 137 L 27 132 L 42 132 L 48 131 L 50 129 L 34 115 L 29 112 L 16 107 L 8 98 L 5 90 L 4 85 L 6 80 L 10 83 L 15 83 L 20 78 L 20 73 L 17 70 L 14 70 L 14 72 L 17 76 L 14 79 L 11 79 L 9 77 L 9 73 L 7 74 L 5 72 L 5 68 L 7 66 L 6 61 L 7 59 L 10 59 L 12 63 L 16 65 L 19 61 L 13 55 L 13 45 L 17 38 L 23 31 Z M 52 139 L 54 137 L 68 137 L 76 140 L 70 144 L 63 146 L 60 143 L 64 141 Z M 20 115 L 24 114 L 27 115 L 28 119 L 25 119 Z M 14 115 L 15 113 L 25 121 L 31 122 L 31 119 L 33 119 L 40 126 L 38 128 L 28 126 L 22 123 Z M 35 9 L 30 10 L 29 12 L 30 17 L 26 22 L 26 28 L 32 33 L 36 33 L 39 31 L 43 26 L 42 21 L 36 17 L 37 11 Z M 32 20 L 35 20 L 39 23 L 39 25 L 35 29 L 33 29 L 30 26 L 30 22 Z M 42 10 L 43 13 L 45 13 L 54 8 L 72 4 L 86 4 L 87 8 L 78 12 L 72 16 L 70 19 L 72 21 L 82 21 L 90 23 L 102 23 L 109 22 L 113 20 L 124 20 L 132 25 L 130 27 L 127 25 L 108 25 L 108 27 L 125 42 L 144 51 L 149 56 L 153 64 L 154 74 L 151 76 L 149 74 L 142 74 L 139 76 L 137 80 L 137 86 L 141 91 L 141 98 L 146 102 L 146 108 L 140 118 L 136 122 L 137 126 L 147 115 L 155 99 L 159 82 L 159 67 L 156 53 L 149 38 L 141 27 L 132 18 L 122 11 L 108 4 L 92 0 L 69 0 L 56 3 Z M 144 78 L 147 78 L 152 84 L 152 94 L 150 96 L 141 87 L 142 79 Z M 117 30 L 118 28 L 130 30 L 139 35 L 143 39 L 141 40 L 137 37 L 128 33 L 130 36 L 137 40 L 137 44 L 126 38 Z M 80 16 L 82 14 L 91 11 L 100 12 L 98 14 L 93 15 L 104 17 L 102 19 L 89 19 Z" fill="currentColor" fill-rule="evenodd"/>
</svg>
