<svg xmlns="http://www.w3.org/2000/svg" width="130" height="239" viewBox="0 0 130 239" role="img" aria-hidden="true">
  <path d="M 128 84 L 125 84 L 116 89 L 113 92 L 110 93 L 105 98 L 101 104 L 98 112 L 98 121 L 97 124 L 82 144 L 74 152 L 73 149 L 77 144 L 80 136 L 80 123 L 73 106 L 71 103 L 67 102 L 60 119 L 60 136 L 64 145 L 68 150 L 68 156 L 65 160 L 65 162 L 53 174 L 49 175 L 49 177 L 41 181 L 45 175 L 47 168 L 47 156 L 43 145 L 38 137 L 34 137 L 29 148 L 27 156 L 28 170 L 32 179 L 35 182 L 34 190 L 15 208 L 9 216 L 0 233 L 2 238 L 5 235 L 6 231 L 14 217 L 27 203 L 31 201 L 33 198 L 39 193 L 42 193 L 49 190 L 53 190 L 63 196 L 79 197 L 81 195 L 83 195 L 95 188 L 99 184 L 97 182 L 90 179 L 78 176 L 68 176 L 59 180 L 58 176 L 68 166 L 75 162 L 85 161 L 88 163 L 101 163 L 112 158 L 127 141 L 124 138 L 110 138 L 97 140 L 92 143 L 91 140 L 101 127 L 111 123 L 122 112 L 128 96 L 129 89 Z M 50 185 L 51 182 L 55 183 Z M 64 189 L 64 183 L 67 181 L 80 181 L 86 183 L 88 186 L 86 188 L 76 192 L 68 192 Z M 37 146 L 41 152 L 43 159 L 43 168 L 40 172 L 39 164 L 36 164 L 36 170 L 34 172 L 32 168 L 32 155 L 34 148 Z M 118 144 L 112 151 L 103 157 L 99 158 L 91 158 L 89 157 L 88 153 L 89 151 L 96 146 L 107 143 Z M 71 113 L 75 122 L 76 133 L 74 135 L 73 133 L 70 131 L 69 138 L 67 140 L 64 132 L 64 127 L 66 116 L 67 114 Z M 123 93 L 121 103 L 117 110 L 111 117 L 103 121 L 102 117 L 106 105 L 112 98 L 117 94 Z M 47 0 L 42 0 L 41 2 L 43 12 L 46 9 Z" fill="currentColor" fill-rule="evenodd"/>
</svg>
