<svg xmlns="http://www.w3.org/2000/svg" width="230" height="116" viewBox="0 0 230 116" role="img" aria-hidden="true">
  <path d="M 151 115 L 159 115 L 159 113 L 157 111 L 152 112 Z M 0 111 L 0 115 L 18 115 L 17 113 L 14 111 Z M 164 112 L 165 115 L 167 115 L 176 110 L 194 106 L 208 106 L 209 110 L 199 115 L 208 115 L 213 113 L 221 113 L 221 115 L 229 115 L 229 106 L 214 102 L 191 102 L 178 105 Z M 141 0 L 79 0 L 77 1 L 78 65 L 81 62 L 88 61 L 95 58 L 101 51 L 103 45 L 102 33 L 98 24 L 95 21 L 95 17 L 106 23 L 112 25 L 125 25 L 131 22 L 137 16 L 140 10 Z M 97 49 L 91 55 L 90 53 L 93 50 L 93 49 Z M 95 34 L 95 38 L 92 48 L 85 57 L 81 57 L 83 33 L 86 36 L 89 36 L 92 33 Z M 125 19 L 126 17 L 129 18 Z M 101 12 L 103 12 L 104 16 L 102 16 L 100 14 Z M 82 9 L 84 11 L 84 13 L 89 22 L 89 24 L 82 30 L 80 11 Z M 111 16 L 111 14 L 113 12 L 113 9 L 110 6 L 111 4 L 133 4 L 135 7 L 126 15 L 123 16 L 116 15 Z M 85 6 L 86 4 L 106 6 L 105 8 L 102 10 L 99 7 L 95 7 L 93 9 L 88 9 Z" fill="currentColor" fill-rule="evenodd"/>
</svg>
