<svg xmlns="http://www.w3.org/2000/svg" width="200" height="358" viewBox="0 0 200 358" role="img" aria-hidden="true">
  <path d="M 55 357 L 69 357 L 74 355 L 83 354 L 105 355 L 111 357 L 126 357 L 114 353 L 102 351 L 80 351 L 68 353 Z M 167 209 L 165 210 L 162 214 L 166 219 L 169 219 L 173 215 L 173 212 L 171 210 Z M 195 145 L 193 144 L 192 146 L 192 148 L 194 147 Z M 182 135 L 179 135 L 169 149 L 167 155 L 167 176 L 164 182 L 157 192 L 146 203 L 143 205 L 142 203 L 147 197 L 152 186 L 152 173 L 149 163 L 146 164 L 140 175 L 140 177 L 138 179 L 139 203 L 136 209 L 130 215 L 124 219 L 110 226 L 98 230 L 88 232 L 81 232 L 82 234 L 92 234 L 111 229 L 120 224 L 127 224 L 136 229 L 144 231 L 155 230 L 158 227 L 148 220 L 145 220 L 143 218 L 139 218 L 138 219 L 134 216 L 137 215 L 141 216 L 143 214 L 152 213 L 153 214 L 157 212 L 152 212 L 144 209 L 149 204 L 157 200 L 172 200 L 180 198 L 190 191 L 198 183 L 182 182 L 174 184 L 170 187 L 168 187 L 165 190 L 164 186 L 170 176 L 178 169 L 185 159 L 184 152 L 185 147 L 184 139 Z M 151 226 L 149 228 L 140 228 L 136 225 L 142 224 L 145 222 Z M 162 193 L 159 196 L 158 194 Z M 191 185 L 182 194 L 177 196 L 173 196 L 170 198 L 167 196 L 169 194 L 172 194 L 174 192 L 185 187 L 173 191 L 171 188 L 175 186 L 183 184 Z M 149 172 L 150 180 L 148 190 L 146 192 L 145 188 L 146 180 L 144 181 L 144 189 L 143 193 L 141 195 L 140 183 L 142 177 L 145 172 Z M 182 148 L 181 154 L 182 158 L 174 169 L 173 166 L 175 163 L 178 154 L 178 151 Z M 175 146 L 178 147 L 176 152 L 174 154 L 175 157 L 172 165 L 170 167 L 169 157 L 171 151 Z M 181 124 L 181 126 L 185 127 L 184 124 Z M 194 102 L 189 103 L 187 106 L 187 111 L 191 115 L 194 114 L 198 110 L 199 107 L 198 105 Z M 190 109 L 191 105 L 193 105 L 196 108 L 194 110 Z M 176 76 L 174 76 L 170 80 L 171 83 L 174 86 L 179 81 Z M 150 21 L 148 21 L 145 23 L 139 30 L 120 48 L 107 66 L 98 86 L 93 107 L 93 132 L 99 159 L 98 170 L 94 171 L 93 169 L 93 158 L 91 144 L 87 134 L 81 125 L 74 118 L 68 114 L 64 113 L 60 110 L 58 110 L 41 100 L 36 95 L 33 95 L 33 98 L 35 101 L 38 113 L 40 140 L 43 153 L 47 161 L 55 171 L 65 178 L 75 182 L 81 186 L 88 193 L 92 203 L 95 224 L 97 222 L 98 203 L 100 192 L 100 180 L 101 172 L 103 168 L 116 155 L 127 147 L 142 131 L 151 115 L 154 101 L 154 88 L 148 61 Z M 93 176 L 95 176 L 97 178 L 97 190 L 96 196 L 94 198 L 91 190 L 91 184 Z M 41 103 L 51 110 L 66 117 L 72 121 L 83 133 L 87 142 L 90 158 L 89 179 L 87 181 L 80 165 L 70 148 L 60 135 L 59 132 L 55 129 L 56 133 L 69 153 L 84 181 L 82 183 L 78 180 L 66 175 L 59 170 L 49 158 L 46 152 L 43 140 L 42 119 L 39 108 Z M 144 65 L 146 67 L 146 71 L 150 85 L 150 105 L 146 117 L 137 132 L 127 142 L 113 153 L 103 164 L 102 156 L 108 127 L 121 110 L 124 105 L 124 103 L 130 95 L 132 91 L 132 88 L 137 79 L 137 76 Z M 147 28 L 147 35 L 144 55 L 142 62 L 139 65 L 140 68 L 135 78 L 132 87 L 129 91 L 128 95 L 123 101 L 118 110 L 111 118 L 110 115 L 117 94 L 127 73 L 134 63 L 134 61 L 132 61 L 126 72 L 121 78 L 120 82 L 117 86 L 113 95 L 107 113 L 103 131 L 102 142 L 99 145 L 96 131 L 96 111 L 99 94 L 104 80 L 114 61 L 124 48 Z M 110 0 L 95 1 L 78 5 L 57 15 L 44 24 L 29 39 L 19 53 L 9 73 L 3 93 L 0 113 L 1 140 L 4 155 L 11 175 L 13 177 L 14 181 L 25 198 L 40 213 L 47 218 L 63 225 L 69 225 L 55 219 L 42 210 L 30 198 L 28 194 L 25 192 L 14 173 L 8 156 L 4 135 L 4 114 L 6 97 L 13 73 L 19 60 L 32 41 L 46 27 L 56 20 L 59 19 L 62 16 L 72 11 L 94 4 L 99 4 Z" fill="currentColor" fill-rule="evenodd"/>
</svg>
