<svg xmlns="http://www.w3.org/2000/svg" width="154" height="146" viewBox="0 0 154 146" role="img" aria-hidden="true">
  <path d="M 32 51 L 32 102 L 35 107 L 40 109 L 81 109 L 87 108 L 91 109 L 106 109 L 115 108 L 120 103 L 121 101 L 121 53 L 120 50 L 115 46 L 36 46 Z M 40 58 L 74 85 L 79 84 L 112 58 L 115 59 L 114 66 L 115 98 L 111 103 L 40 103 L 38 101 Z M 45 54 L 46 52 L 108 53 L 99 61 L 81 74 L 76 79 L 55 62 L 51 60 Z M 48 4 L 36 10 L 23 20 L 15 29 L 7 42 L 1 61 L 0 73 L 1 90 L 7 109 L 20 128 L 28 136 L 42 145 L 70 145 L 59 144 L 42 137 L 33 131 L 19 116 L 12 103 L 8 91 L 7 85 L 7 69 L 9 57 L 18 37 L 26 27 L 34 20 L 46 13 L 65 7 L 85 7 L 104 12 L 119 21 L 134 37 L 141 50 L 144 59 L 146 74 L 145 86 L 142 98 L 135 113 L 129 121 L 120 130 L 116 133 L 112 134 L 108 138 L 94 144 L 83 145 L 110 145 L 121 138 L 134 126 L 142 115 L 149 100 L 152 88 L 153 74 L 151 58 L 147 46 L 142 36 L 131 22 L 122 14 L 106 5 L 87 0 L 65 0 Z" fill="currentColor" fill-rule="evenodd"/>
</svg>
