<svg xmlns="http://www.w3.org/2000/svg" width="494" height="347" viewBox="0 0 494 347" role="img" aria-hidden="true">
  <path d="M 61 322 L 64 325 L 63 322 Z M 61 314 L 64 317 L 64 314 Z M 61 285 L 61 301 L 64 309 L 64 305 L 63 304 L 64 288 L 63 285 Z M 83 275 L 79 275 L 76 278 L 74 278 L 68 282 L 67 285 Z M 15 272 L 17 272 L 19 270 L 15 270 Z M 97 267 L 94 266 L 90 270 L 86 271 L 85 273 L 87 273 Z M 22 268 L 24 268 L 26 266 L 22 266 Z M 200 247 L 198 245 L 196 245 L 181 261 L 176 276 L 176 290 L 169 301 L 155 315 L 146 319 L 156 307 L 161 296 L 160 277 L 158 277 L 155 280 L 147 293 L 145 300 L 145 317 L 142 322 L 137 327 L 128 332 L 125 332 L 121 335 L 118 333 L 128 323 L 132 316 L 134 310 L 133 297 L 131 297 L 123 306 L 120 312 L 118 320 L 118 328 L 117 331 L 108 339 L 95 342 L 87 342 L 88 344 L 96 344 L 108 342 L 123 337 L 133 337 L 149 345 L 159 345 L 170 341 L 171 339 L 162 333 L 153 331 L 146 331 L 140 333 L 137 331 L 149 323 L 151 323 L 153 321 L 158 319 L 168 319 L 178 321 L 189 318 L 194 315 L 205 303 L 202 302 L 188 302 L 177 305 L 164 315 L 161 313 L 171 303 L 177 293 L 193 278 L 199 264 Z M 142 337 L 154 339 L 160 339 L 163 337 L 165 339 L 163 341 L 156 343 L 151 343 L 142 340 Z M 150 336 L 151 334 L 156 334 L 160 336 L 158 338 Z M 128 311 L 131 312 L 130 316 L 126 322 L 125 319 Z M 123 311 L 126 312 L 125 317 L 121 323 L 120 320 Z M 198 307 L 190 314 L 181 318 L 173 316 L 175 314 L 181 313 L 190 309 L 185 309 L 178 312 L 176 309 L 185 305 Z M 151 291 L 154 292 L 152 301 L 148 307 L 147 301 L 149 294 Z M 159 284 L 158 298 L 155 305 L 153 307 L 152 303 L 156 294 L 155 285 Z M 196 253 L 197 259 L 194 271 L 188 280 L 184 284 L 183 281 L 187 274 L 188 269 L 194 257 L 191 259 L 188 267 L 185 271 L 182 279 L 180 281 L 179 273 L 181 267 L 186 259 L 192 253 Z M 431 288 L 417 289 L 410 281 L 407 272 L 409 261 L 411 263 L 412 268 L 415 274 L 421 279 L 429 282 L 423 277 L 416 269 L 411 253 L 409 237 L 409 242 L 404 260 L 404 274 L 407 283 L 412 290 L 409 293 L 385 304 L 375 305 L 364 299 L 349 293 L 344 292 L 331 292 L 332 294 L 339 294 L 347 296 L 350 298 L 353 298 L 371 307 L 378 309 L 380 311 L 397 316 L 410 314 L 398 313 L 390 311 L 386 309 L 387 306 L 392 305 L 400 300 L 416 293 L 423 291 L 427 291 Z M 364 237 L 364 252 L 359 269 L 347 280 L 338 285 L 337 289 L 362 291 L 366 286 L 371 274 L 371 260 L 368 251 L 367 242 Z M 368 263 L 368 271 L 366 279 L 363 284 L 359 288 L 353 288 L 345 285 L 361 272 L 365 262 Z M 493 234 L 486 242 L 482 250 L 480 259 L 480 272 L 479 275 L 476 278 L 474 284 L 461 302 L 454 309 L 453 305 L 454 302 L 460 294 L 463 288 L 466 277 L 466 265 L 462 254 L 459 252 L 449 272 L 448 277 L 448 289 L 451 298 L 451 305 L 450 309 L 446 316 L 442 320 L 426 331 L 420 331 L 429 322 L 433 315 L 435 308 L 433 294 L 428 299 L 427 302 L 421 310 L 419 330 L 411 338 L 398 343 L 389 344 L 390 346 L 399 345 L 413 341 L 431 331 L 435 330 L 443 330 L 454 334 L 464 335 L 474 332 L 483 326 L 484 324 L 469 319 L 462 319 L 453 321 L 442 327 L 441 325 L 460 307 L 467 304 L 483 305 L 492 302 L 493 299 L 486 302 L 480 303 L 479 299 L 493 294 L 493 292 L 491 292 L 483 296 L 480 294 L 486 290 L 493 288 L 493 286 L 487 287 L 481 290 L 475 296 L 467 299 L 475 286 L 479 282 L 480 278 L 483 273 L 493 264 L 493 260 L 488 266 L 487 263 L 492 254 L 493 246 L 486 261 L 484 263 L 483 257 L 484 252 L 488 244 L 493 239 Z M 475 327 L 473 329 L 466 332 L 456 332 L 450 328 L 471 326 Z M 456 323 L 458 322 L 472 323 L 470 325 L 463 325 L 462 326 Z M 426 316 L 425 318 L 423 320 L 422 316 Z M 431 301 L 433 303 L 432 312 L 430 314 L 430 308 L 428 309 L 425 313 L 424 310 L 429 302 Z M 461 261 L 463 266 L 463 281 L 461 287 L 458 291 L 457 284 L 459 276 L 458 268 L 456 283 L 454 285 L 455 289 L 452 292 L 451 285 L 453 283 L 451 281 L 452 272 L 456 263 Z M 22 220 L 22 222 L 24 224 L 26 222 L 24 220 Z M 14 216 L 17 220 L 19 218 L 17 216 Z M 0 207 L 0 209 L 2 211 L 4 209 L 2 207 Z M 395 160 L 392 159 L 382 159 L 378 161 L 374 165 L 370 175 L 370 183 L 372 191 L 375 197 L 379 201 L 379 205 L 374 210 L 362 213 L 355 218 L 352 224 L 351 243 L 348 260 L 342 265 L 336 273 L 324 285 L 314 286 L 310 288 L 307 292 L 306 302 L 308 306 L 313 312 L 322 317 L 339 322 L 353 324 L 391 324 L 408 322 L 410 320 L 405 319 L 400 321 L 388 320 L 360 321 L 342 319 L 330 316 L 318 311 L 312 306 L 310 302 L 310 294 L 312 291 L 318 288 L 329 288 L 331 286 L 330 282 L 351 262 L 354 246 L 355 228 L 357 221 L 363 216 L 370 215 L 379 211 L 381 209 L 383 204 L 391 204 L 396 211 L 401 214 L 413 217 L 418 222 L 420 226 L 421 247 L 424 263 L 439 277 L 440 275 L 427 260 L 424 242 L 424 230 L 421 220 L 419 217 L 415 214 L 403 211 L 397 207 L 396 201 L 401 195 L 405 185 L 405 174 L 401 165 Z M 382 163 L 392 163 L 394 164 L 400 170 L 401 177 L 402 178 L 400 189 L 398 193 L 389 201 L 386 201 L 379 196 L 375 189 L 374 185 L 374 173 L 376 168 Z M 94 148 L 64 165 L 63 204 L 65 206 L 59 207 L 30 224 L 30 264 L 62 282 L 67 278 L 74 275 L 84 268 L 89 266 L 97 260 L 97 262 L 101 266 L 129 282 L 145 272 L 159 265 L 162 262 L 161 225 L 130 207 L 128 207 L 123 210 L 120 209 L 129 203 L 128 166 L 97 148 Z M 153 225 L 153 228 L 149 233 L 148 238 L 143 244 L 140 244 L 139 251 L 135 255 L 133 254 L 127 259 L 125 257 L 122 257 L 122 259 L 118 262 L 113 262 L 107 265 L 101 261 L 102 226 L 128 211 L 131 211 L 138 216 L 145 219 Z M 113 213 L 115 211 L 118 212 L 116 214 Z M 63 211 L 80 221 L 82 224 L 84 224 L 86 227 L 79 234 L 77 239 L 69 248 L 64 251 L 62 254 L 53 255 L 49 259 L 46 258 L 38 259 L 41 263 L 44 264 L 47 267 L 44 268 L 33 261 L 33 227 L 60 211 Z M 71 211 L 74 210 L 94 222 L 97 222 L 110 214 L 113 215 L 108 219 L 99 223 L 95 226 L 86 220 L 79 217 Z M 64 207 L 67 206 L 70 208 L 72 210 L 69 211 L 66 209 Z M 121 166 L 122 170 L 120 170 L 112 180 L 109 180 L 106 184 L 106 188 L 103 191 L 103 193 L 94 200 L 89 201 L 86 205 L 80 206 L 81 208 L 79 209 L 68 203 L 66 197 L 66 188 L 67 187 L 66 169 L 68 167 L 94 152 L 97 152 L 104 157 Z M 474 187 L 462 169 L 449 156 L 437 148 L 417 139 L 397 135 L 379 135 L 355 140 L 338 148 L 327 155 L 312 170 L 305 180 L 295 202 L 291 222 L 291 245 L 294 260 L 298 272 L 301 276 L 301 278 L 303 281 L 304 278 L 299 267 L 294 247 L 294 220 L 297 206 L 301 194 L 305 186 L 315 171 L 325 161 L 340 150 L 355 143 L 376 138 L 399 138 L 410 140 L 425 145 L 438 152 L 450 161 L 459 170 L 469 184 L 476 199 L 480 213 L 482 238 L 484 237 L 483 216 L 477 193 L 474 189 Z M 439 28 L 440 44 L 447 42 L 442 41 L 443 36 L 447 35 L 443 35 L 441 33 L 442 30 L 447 28 Z M 403 28 L 403 41 L 406 44 L 411 44 L 415 39 L 413 28 L 412 39 L 409 42 L 407 42 L 405 40 Z M 369 28 L 373 35 L 369 41 L 369 44 L 372 40 L 375 39 L 379 44 L 381 42 L 377 37 L 377 33 L 380 28 L 378 28 L 374 32 L 371 28 Z M 354 28 L 355 44 L 362 42 L 358 42 L 356 40 L 362 35 L 358 35 L 356 33 L 357 30 L 362 28 Z M 347 28 L 337 28 L 338 30 L 341 32 L 342 44 L 344 42 L 345 30 L 346 30 Z M 422 27 L 422 30 L 421 31 L 422 43 L 424 42 L 426 38 L 431 44 L 432 42 L 430 39 L 430 36 L 432 33 L 432 31 L 429 28 Z M 424 34 L 425 30 L 427 30 L 429 32 Z M 395 27 L 386 28 L 387 30 L 390 32 L 391 44 L 393 42 L 393 31 L 395 30 Z M 409 0 L 409 15 L 411 14 L 413 6 L 418 13 L 422 14 L 420 0 L 420 7 L 418 9 L 412 0 Z M 401 0 L 399 0 L 399 15 L 401 14 Z M 380 0 L 380 15 L 385 11 L 390 16 L 391 14 L 386 8 L 386 6 L 391 0 L 386 1 L 383 5 L 382 0 Z M 364 0 L 363 5 L 371 11 L 368 14 L 366 14 L 363 12 L 363 14 L 365 16 L 369 16 L 373 12 L 373 9 L 365 4 L 366 1 L 369 2 L 372 1 Z M 181 0 L 181 15 L 183 14 L 186 8 L 189 13 L 193 14 L 193 0 L 191 0 L 191 7 L 189 9 L 184 1 Z M 162 0 L 159 3 L 158 6 L 159 12 L 163 16 L 169 16 L 174 11 L 174 5 L 170 0 Z M 162 3 L 169 2 L 172 5 L 172 9 L 168 14 L 164 14 L 161 10 L 161 5 Z M 151 0 L 149 0 L 150 16 L 152 14 Z M 143 0 L 132 0 L 133 2 L 135 2 L 137 4 L 136 13 L 137 16 L 139 14 L 140 2 Z M 120 0 L 115 15 L 119 12 L 124 12 L 127 16 L 128 12 L 126 9 L 126 6 L 123 0 Z M 99 0 L 99 7 L 98 8 L 99 16 L 104 12 L 107 16 L 108 13 L 106 11 L 106 8 L 108 2 L 105 0 Z M 102 2 L 105 3 L 105 5 L 101 6 Z M 79 0 L 80 16 L 85 16 L 91 11 L 92 9 L 91 4 L 87 0 Z M 82 2 L 86 2 L 89 5 L 89 10 L 85 14 L 83 14 L 81 12 Z M 60 0 L 65 9 L 65 15 L 67 14 L 67 10 L 70 3 L 72 1 L 69 1 L 64 4 Z M 41 0 L 41 15 L 43 14 L 44 9 L 49 9 L 51 11 L 51 15 L 53 14 L 51 0 L 51 4 L 48 7 L 45 7 L 43 5 L 43 0 Z" fill="currentColor" fill-rule="evenodd"/>
</svg>
