<svg xmlns="http://www.w3.org/2000/svg" width="189" height="171" viewBox="0 0 189 171" role="img" aria-hidden="true">
  <path d="M 76 115 L 73 117 L 71 121 L 71 127 L 72 129 L 76 132 L 82 132 L 87 128 L 88 126 L 88 121 L 83 115 Z M 176 67 L 173 66 L 160 80 L 156 90 L 155 96 L 156 109 L 149 125 L 142 134 L 141 129 L 146 119 L 147 110 L 144 99 L 139 90 L 137 88 L 134 89 L 131 99 L 131 117 L 138 130 L 136 140 L 134 144 L 125 153 L 119 157 L 118 154 L 120 151 L 122 142 L 123 142 L 126 138 L 126 134 L 125 132 L 122 130 L 116 131 L 115 133 L 115 140 L 118 146 L 117 151 L 113 159 L 109 163 L 99 167 L 100 170 L 107 168 L 116 163 L 120 162 L 130 163 L 132 165 L 140 165 L 143 164 L 145 162 L 138 158 L 135 158 L 130 160 L 125 159 L 126 156 L 134 151 L 138 150 L 150 150 L 153 155 L 157 156 L 159 155 L 163 150 L 159 146 L 153 146 L 151 148 L 140 148 L 139 145 L 143 140 L 151 135 L 166 135 L 172 133 L 178 129 L 186 120 L 187 115 L 174 116 L 162 119 L 151 131 L 150 128 L 158 114 L 158 111 L 172 98 L 174 94 L 177 82 L 177 69 Z M 177 125 L 169 131 L 165 128 L 173 124 Z M 178 119 L 181 121 L 179 123 L 177 121 Z M 170 120 L 172 119 L 177 120 L 175 122 L 172 123 Z M 139 96 L 142 102 L 143 110 L 141 112 L 140 106 L 137 101 L 138 114 L 134 115 L 133 113 L 133 102 L 135 96 Z M 174 79 L 173 88 L 168 90 L 168 86 L 171 78 Z M 173 75 L 169 78 L 168 82 L 161 91 L 160 88 L 166 78 L 170 74 Z M 88 33 L 73 33 L 62 38 L 56 45 L 54 52 L 55 59 L 59 63 L 65 63 L 69 60 L 70 57 L 67 50 L 68 44 L 73 40 L 84 40 L 88 42 L 92 46 L 94 50 L 94 61 L 92 68 L 80 81 L 76 90 L 77 104 L 80 104 L 83 100 L 83 93 L 86 87 L 104 70 L 108 61 L 108 53 L 104 44 L 96 36 Z M 69 0 L 55 3 L 39 10 L 29 17 L 15 31 L 7 45 L 1 63 L 0 68 L 0 92 L 3 106 L 9 120 L 16 131 L 27 143 L 35 149 L 52 158 L 68 162 L 85 163 L 101 160 L 108 157 L 113 151 L 112 148 L 109 148 L 106 150 L 95 153 L 80 155 L 65 153 L 49 148 L 39 142 L 25 129 L 19 121 L 13 109 L 8 90 L 8 71 L 11 57 L 14 49 L 23 34 L 37 21 L 43 17 L 56 11 L 69 8 L 88 8 L 99 10 L 107 13 L 120 20 L 125 24 L 138 38 L 146 52 L 149 61 L 151 71 L 151 83 L 153 81 L 153 79 L 159 72 L 157 58 L 154 50 L 143 31 L 133 20 L 121 11 L 109 5 L 91 0 Z" fill="currentColor" fill-rule="evenodd"/>
</svg>
