<svg xmlns="http://www.w3.org/2000/svg" width="82" height="259" viewBox="0 0 82 259" role="img" aria-hidden="true">
  <path d="M 80 249 L 77 249 L 62 258 L 77 258 L 81 253 Z M 25 242 L 23 247 L 23 258 L 33 258 L 29 243 Z M 80 215 L 75 216 L 64 228 L 53 245 L 50 254 L 48 256 L 47 253 L 50 244 L 51 224 L 49 222 L 46 222 L 41 242 L 40 258 L 54 258 L 78 226 L 81 219 Z M 74 2 L 69 2 L 67 3 L 66 9 L 54 21 L 53 15 L 54 10 L 56 8 L 55 1 L 53 0 L 48 0 L 46 2 L 46 9 L 49 12 L 49 26 L 43 38 L 40 41 L 38 37 L 39 23 L 35 15 L 31 11 L 27 11 L 26 13 L 27 26 L 31 34 L 35 39 L 35 54 L 30 65 L 28 67 L 26 63 L 26 59 L 23 51 L 23 49 L 25 46 L 24 37 L 21 34 L 18 33 L 13 33 L 8 37 L 8 44 L 9 46 L 14 51 L 16 51 L 20 55 L 22 59 L 23 70 L 24 71 L 23 81 L 18 97 L 16 99 L 14 82 L 10 73 L 5 68 L 3 67 L 0 68 L 0 78 L 1 82 L 5 89 L 11 96 L 13 111 L 7 137 L 7 146 L 9 148 L 12 145 L 12 137 L 16 117 L 20 111 L 30 101 L 47 97 L 58 87 L 59 81 L 57 80 L 45 82 L 39 85 L 30 95 L 22 102 L 21 99 L 24 94 L 26 85 L 30 77 L 40 66 L 42 66 L 46 62 L 59 62 L 64 66 L 66 66 L 70 63 L 71 60 L 70 58 L 67 56 L 62 56 L 60 58 L 57 58 L 55 56 L 55 53 L 61 48 L 68 48 L 72 44 L 72 40 L 69 37 L 64 37 L 62 38 L 61 43 L 56 48 L 52 50 L 45 57 L 37 63 L 36 60 L 40 51 L 43 47 L 43 45 L 55 26 L 62 18 L 68 13 L 73 13 L 77 9 L 77 6 Z M 53 86 L 46 92 L 40 95 L 37 94 L 38 91 L 49 85 Z M 7 76 L 9 79 L 8 83 L 5 82 L 4 79 Z M 64 61 L 65 59 L 68 60 Z M 14 37 L 17 37 L 21 41 L 21 46 L 19 48 L 16 48 L 13 45 Z M 33 20 L 34 22 L 34 24 L 35 26 L 33 28 L 30 24 Z" fill="currentColor" fill-rule="evenodd"/>
</svg>
