<svg xmlns="http://www.w3.org/2000/svg" width="148" height="183" viewBox="0 0 148 183" role="img" aria-hidden="true">
  <path d="M 20 3 L 18 5 L 16 10 L 16 18 L 13 21 L 9 21 L 5 23 L 1 28 L 0 32 L 1 111 L 0 169 L 3 177 L 10 182 L 118 182 L 122 180 L 128 173 L 129 161 L 135 161 L 140 159 L 147 151 L 147 38 L 146 36 L 109 1 L 101 0 L 37 0 L 24 1 Z M 94 34 L 109 49 L 112 54 L 117 58 L 115 60 L 101 60 L 94 59 L 92 57 L 91 51 Z M 9 29 L 11 28 L 83 28 L 85 30 L 85 61 L 89 66 L 120 66 L 122 68 L 122 169 L 118 174 L 116 175 L 12 175 L 8 172 L 7 169 L 7 32 Z M 27 141 L 28 146 L 30 147 L 71 147 L 76 143 L 75 141 Z M 27 117 L 27 121 L 29 123 L 99 123 L 103 119 L 100 116 Z M 27 93 L 27 97 L 29 99 L 100 99 L 103 96 L 103 94 L 101 92 Z M 27 7 L 102 7 L 104 9 L 104 24 L 106 26 L 108 26 L 110 24 L 112 13 L 134 34 L 132 36 L 120 37 L 121 42 L 123 43 L 139 43 L 141 45 L 141 133 L 140 149 L 137 153 L 135 154 L 129 153 L 128 137 L 129 114 L 128 102 L 129 80 L 128 59 L 101 31 L 90 21 L 27 21 L 23 18 L 23 10 Z" fill="currentColor" fill-rule="evenodd"/>
</svg>
