<svg xmlns="http://www.w3.org/2000/svg" width="297" height="64" viewBox="0 0 297 64" role="img" aria-hidden="true">
  <path d="M 148 25 L 147 29 L 140 36 L 137 37 L 137 41 L 142 43 L 146 47 L 150 54 L 152 52 L 154 46 L 164 39 L 158 36 L 154 32 L 151 25 Z M 149 33 L 152 34 L 156 39 L 150 46 L 144 40 L 144 38 Z M 170 37 L 171 42 L 173 42 L 175 44 L 176 48 L 182 56 L 190 61 L 198 63 L 209 62 L 223 57 L 231 52 L 242 43 L 248 41 L 283 41 L 287 45 L 290 46 L 296 41 L 296 37 L 295 35 L 292 33 L 288 33 L 285 35 L 251 33 L 244 37 L 215 37 L 211 34 L 213 31 L 213 25 L 208 17 L 203 14 L 199 13 L 191 13 L 181 18 L 175 27 L 174 34 Z M 180 42 L 183 41 L 236 42 L 225 51 L 223 51 L 215 56 L 208 58 L 197 58 L 188 55 L 181 48 Z M 287 39 L 288 37 L 290 37 L 292 39 L 289 41 Z M 208 24 L 209 28 L 208 31 L 201 37 L 180 37 L 178 35 L 181 24 L 187 19 L 198 17 L 203 19 Z M 127 14 L 123 7 L 118 3 L 111 0 L 104 0 L 100 1 L 95 4 L 92 7 L 89 13 L 89 25 L 91 30 L 95 35 L 93 37 L 56 37 L 49 33 L 4 33 L 0 36 L 0 42 L 3 45 L 8 45 L 12 41 L 23 42 L 56 41 L 64 46 L 80 52 L 85 53 L 101 52 L 111 48 L 120 41 L 127 41 L 128 37 L 126 37 L 124 34 L 127 28 Z M 70 44 L 70 41 L 111 42 L 101 48 L 96 49 L 82 48 Z M 8 39 L 4 40 L 6 37 Z M 98 7 L 102 5 L 113 5 L 117 7 L 122 13 L 123 16 L 123 26 L 120 33 L 116 37 L 106 37 L 100 34 L 95 29 L 93 25 L 92 18 L 95 10 Z" fill="currentColor" fill-rule="evenodd"/>
</svg>
