<svg xmlns="http://www.w3.org/2000/svg" width="987" height="142" viewBox="0 0 987 142" role="img" aria-hidden="true">
  <path d="M 121 141 L 131 141 L 129 140 L 123 140 Z M 667 141 L 678 141 L 676 140 L 675 139 L 669 139 Z M 316 141 L 327 141 L 325 140 L 324 139 L 318 139 Z M 813 138 L 808 138 L 799 141 L 811 141 Z M 774 141 L 773 138 L 770 136 L 766 136 L 764 137 L 761 141 L 757 141 L 769 140 Z M 918 137 L 916 135 L 912 135 L 906 137 L 901 141 L 918 140 Z M 555 141 L 564 141 L 565 140 L 575 141 L 580 140 L 580 136 L 577 135 L 567 135 L 563 136 Z M 485 141 L 489 141 L 491 139 L 493 139 L 495 141 L 500 141 L 499 138 L 495 135 L 490 135 L 488 136 Z M 426 136 L 427 141 L 433 141 L 434 140 L 451 141 L 445 137 L 438 135 Z M 214 139 L 214 141 L 231 141 L 228 141 L 225 137 L 222 135 L 217 135 Z M 66 136 L 67 141 L 73 140 L 83 141 L 76 136 L 72 135 Z M 832 133 L 831 130 L 829 129 L 818 127 L 807 128 L 800 131 L 793 136 L 790 141 L 797 141 L 798 137 L 809 132 L 822 132 L 826 134 L 820 141 L 825 141 Z M 157 129 L 157 133 L 163 141 L 169 141 L 164 136 L 165 132 L 180 132 L 187 135 L 189 137 L 188 140 L 185 140 L 182 138 L 176 138 L 176 140 L 178 141 L 199 141 L 192 133 L 182 128 L 167 127 Z M 976 122 L 962 122 L 955 124 L 950 127 L 943 134 L 939 141 L 954 141 L 956 140 L 961 134 L 958 134 L 949 138 L 949 134 L 952 131 L 958 128 L 966 126 L 971 127 L 971 130 L 963 141 L 968 141 L 972 137 L 977 125 Z M 660 122 L 647 122 L 636 126 L 628 133 L 624 141 L 638 141 L 641 139 L 645 134 L 629 139 L 636 131 L 649 126 L 656 128 L 652 135 L 646 141 L 652 141 L 655 138 L 661 126 Z M 349 122 L 349 126 L 354 138 L 357 141 L 363 141 L 359 137 L 355 130 L 356 126 L 365 127 L 372 130 L 376 133 L 381 139 L 378 141 L 372 136 L 368 134 L 365 134 L 365 136 L 372 141 L 387 141 L 381 132 L 374 126 L 363 122 Z M 9 122 L 9 128 L 15 140 L 22 141 L 18 137 L 14 129 L 15 126 L 19 126 L 31 130 L 34 132 L 39 138 L 36 140 L 27 134 L 23 134 L 27 139 L 30 141 L 45 141 L 45 139 L 43 136 L 33 126 L 23 122 L 16 121 Z M 579 28 L 575 31 L 575 38 L 577 41 L 582 42 L 588 37 L 588 32 L 585 29 Z M 580 32 L 582 32 L 584 35 L 581 38 L 579 36 Z M 403 28 L 399 31 L 398 37 L 401 41 L 406 42 L 411 38 L 412 34 L 409 29 Z M 406 32 L 408 35 L 404 38 L 402 36 L 403 32 Z M 986 34 L 969 24 L 963 23 L 950 23 L 940 27 L 933 32 L 632 33 L 597 32 L 596 33 L 593 33 L 594 37 L 614 38 L 767 38 L 778 37 L 781 38 L 910 38 L 927 37 L 934 38 L 945 45 L 953 47 L 962 47 L 971 44 L 982 38 Z M 939 34 L 948 28 L 960 27 L 970 30 L 976 33 L 977 35 L 975 37 L 966 41 L 962 42 L 952 42 L 942 38 Z M 0 33 L 1 37 L 9 42 L 19 46 L 25 47 L 37 46 L 53 37 L 74 38 L 324 38 L 327 37 L 336 38 L 390 38 L 392 37 L 393 33 L 391 32 L 327 33 L 61 33 L 52 32 L 42 25 L 35 23 L 20 23 L 14 25 Z M 9 33 L 20 28 L 31 27 L 40 30 L 46 35 L 43 38 L 36 41 L 23 42 L 10 37 Z M 419 33 L 420 37 L 428 42 L 435 43 L 436 42 L 440 42 L 444 40 L 447 40 L 449 42 L 451 42 L 461 48 L 470 51 L 491 54 L 511 52 L 527 47 L 540 40 L 550 42 L 551 43 L 557 42 L 566 37 L 568 34 L 566 32 L 560 30 L 550 30 L 542 33 L 538 36 L 532 36 L 536 30 L 538 23 L 536 21 L 529 21 L 523 22 L 516 25 L 507 34 L 504 41 L 500 45 L 496 45 L 496 43 L 502 33 L 503 29 L 503 17 L 501 9 L 494 0 L 490 1 L 484 12 L 482 21 L 485 36 L 491 45 L 489 47 L 483 43 L 480 35 L 471 26 L 461 21 L 450 21 L 450 27 L 453 39 L 444 33 L 435 30 L 426 30 Z M 549 35 L 551 34 L 559 35 L 556 38 Z M 427 36 L 428 34 L 434 34 L 438 36 L 436 38 L 429 38 Z M 456 26 L 460 26 L 468 29 L 474 36 L 472 38 L 469 35 L 467 35 L 470 43 L 466 42 L 460 37 L 455 29 Z M 532 26 L 531 31 L 522 40 L 515 44 L 515 40 L 521 35 L 511 36 L 518 29 L 524 26 L 528 25 Z M 490 8 L 495 8 L 499 16 L 499 20 L 500 21 L 499 29 L 497 34 L 495 36 L 492 24 L 491 32 L 489 34 L 487 30 L 486 21 L 487 15 Z" fill="currentColor" fill-rule="evenodd"/>
</svg>
