<svg xmlns="http://www.w3.org/2000/svg" width="130" height="179" viewBox="0 0 130 179" role="img" aria-hidden="true">
  <path d="M 6 24 L 2 29 L 0 35 L 1 110 L 0 115 L 1 118 L 0 156 L 1 166 L 3 170 L 9 176 L 14 178 L 114 178 L 122 174 L 126 170 L 129 162 L 128 153 L 129 36 L 126 28 L 119 22 L 116 21 L 99 21 L 93 16 L 79 15 L 79 11 L 77 6 L 74 3 L 68 0 L 59 0 L 54 3 L 50 8 L 50 13 L 47 16 L 35 16 L 32 17 L 28 21 L 12 21 Z M 13 29 L 15 28 L 25 28 L 31 30 L 31 40 L 35 45 L 94 45 L 98 40 L 99 29 L 110 28 L 115 29 L 119 32 L 121 35 L 121 162 L 114 170 L 106 171 L 28 170 L 17 171 L 12 169 L 10 167 L 8 163 L 8 35 Z M 59 143 L 61 145 L 103 145 L 107 140 L 105 138 L 59 139 Z M 20 137 L 20 139 L 25 144 L 27 153 L 32 150 L 35 150 L 39 153 L 42 152 L 41 145 L 46 136 L 40 136 L 37 133 L 36 130 L 34 128 L 32 128 L 30 130 L 30 133 L 27 136 Z M 59 110 L 61 112 L 104 111 L 107 107 L 105 105 L 59 105 Z M 46 100 L 44 98 L 41 98 L 29 109 L 24 105 L 21 106 L 21 110 L 30 118 L 39 110 L 46 102 Z M 59 77 L 61 79 L 104 79 L 107 75 L 105 73 L 70 72 L 59 74 Z M 46 68 L 44 66 L 41 66 L 29 77 L 25 73 L 21 74 L 21 78 L 30 86 L 39 78 L 46 70 Z M 39 24 L 54 23 L 57 20 L 57 11 L 58 9 L 62 7 L 66 7 L 72 12 L 72 21 L 76 24 L 88 24 L 91 27 L 91 35 L 88 38 L 43 38 L 39 36 L 38 33 Z" fill="currentColor" fill-rule="evenodd"/>
</svg>
