<svg xmlns="http://www.w3.org/2000/svg" width="166" height="180" viewBox="0 0 166 180" role="img" aria-hidden="true">
  <path d="M 145 163 L 141 166 L 140 172 L 143 177 L 145 178 L 150 178 L 154 175 L 155 167 L 150 163 Z M 149 168 L 151 170 L 147 174 L 145 172 L 146 168 Z M 108 163 L 102 164 L 99 169 L 100 175 L 103 178 L 106 179 L 111 177 L 114 173 L 114 168 L 113 166 Z M 104 172 L 105 168 L 108 168 L 110 170 L 107 173 Z M 68 163 L 63 163 L 61 164 L 58 168 L 58 173 L 62 178 L 65 179 L 68 178 L 73 173 L 73 168 L 72 166 Z M 63 171 L 64 168 L 66 168 L 67 169 L 69 170 L 65 173 Z M 22 163 L 18 166 L 17 172 L 18 175 L 21 178 L 25 179 L 32 173 L 33 170 L 30 165 L 26 163 Z M 23 168 L 25 168 L 27 171 L 24 173 L 22 171 Z M 2 146 L 2 148 L 5 151 L 163 151 L 165 149 L 164 144 L 80 143 L 4 144 Z M 92 56 L 72 91 L 70 97 L 70 108 L 71 112 L 75 119 L 83 126 L 87 128 L 100 128 L 108 124 L 116 115 L 119 108 L 119 97 L 112 82 L 102 67 L 97 57 Z M 95 68 L 102 78 L 112 97 L 112 108 L 110 112 L 103 119 L 101 119 L 97 122 L 92 122 L 86 120 L 79 113 L 76 105 L 76 100 L 77 96 L 92 69 Z M 36 7 L 33 8 L 32 18 L 28 29 L 25 34 L 17 42 L 11 45 L 0 48 L 1 52 L 3 53 L 8 53 L 16 56 L 26 65 L 31 76 L 32 85 L 34 91 L 36 91 L 38 89 L 39 79 L 42 70 L 46 63 L 53 57 L 62 53 L 67 53 L 69 52 L 71 49 L 69 47 L 63 46 L 54 42 L 45 33 L 40 22 L 38 9 Z M 37 29 L 43 40 L 47 44 L 55 49 L 52 52 L 46 55 L 42 59 L 38 67 L 35 70 L 29 60 L 23 54 L 18 51 L 17 49 L 29 38 L 33 30 Z M 129 0 L 128 10 L 124 18 L 116 26 L 111 28 L 104 29 L 105 34 L 112 35 L 117 37 L 120 41 L 124 44 L 128 52 L 128 57 L 130 63 L 132 63 L 134 61 L 134 56 L 136 48 L 140 41 L 143 38 L 150 35 L 156 34 L 159 31 L 157 29 L 148 27 L 139 19 L 135 11 L 133 0 Z M 133 19 L 135 23 L 144 31 L 131 44 L 119 31 L 128 21 Z" fill="currentColor" fill-rule="evenodd"/>
</svg>
