<svg xmlns="http://www.w3.org/2000/svg" width="227" height="458" viewBox="0 0 227 458" role="img" aria-hidden="true">
  <path d="M 64 457 L 67 457 L 74 453 L 93 446 L 111 443 L 123 443 L 138 445 L 153 450 L 155 449 L 160 453 L 162 452 L 164 453 L 166 456 L 171 457 L 167 454 L 144 445 L 128 442 L 115 441 L 106 443 L 100 443 L 88 446 L 77 450 Z M 88 269 L 90 272 L 127 272 L 129 270 Z M 88 252 L 89 255 L 163 253 L 149 253 L 148 252 L 120 253 Z M 88 236 L 89 238 L 107 239 L 163 236 Z M 88 219 L 89 222 L 162 222 L 164 220 Z M 88 203 L 89 205 L 127 203 L 119 203 L 118 202 Z M 88 185 L 89 188 L 128 188 L 130 186 Z M 12 180 L 9 192 L 9 209 L 12 219 L 21 233 L 28 262 L 25 257 L 19 251 L 11 246 L 0 243 L 5 253 L 9 259 L 17 267 L 31 273 L 37 278 L 49 298 L 63 313 L 79 325 L 89 330 L 103 335 L 124 337 L 134 335 L 143 331 L 153 322 L 159 319 L 173 319 L 181 317 L 188 313 L 192 309 L 198 306 L 199 304 L 196 303 L 180 303 L 171 306 L 162 314 L 161 312 L 166 307 L 172 297 L 180 291 L 191 291 L 201 288 L 215 278 L 217 275 L 199 275 L 193 277 L 189 280 L 187 280 L 182 286 L 181 283 L 191 269 L 194 266 L 205 260 L 212 253 L 216 246 L 220 235 L 220 232 L 205 241 L 201 245 L 197 252 L 194 262 L 192 264 L 191 261 L 193 256 L 193 248 L 192 243 L 189 237 L 188 241 L 186 243 L 185 190 L 152 156 L 145 157 L 73 156 L 71 157 L 69 160 L 69 296 L 70 298 L 74 301 L 150 299 L 147 298 L 76 298 L 72 295 L 73 160 L 75 159 L 108 160 L 149 159 L 151 161 L 151 190 L 154 193 L 180 193 L 182 195 L 182 278 L 170 298 L 168 300 L 167 297 L 172 287 L 172 274 L 168 262 L 166 262 L 162 275 L 163 303 L 162 307 L 157 315 L 146 327 L 138 332 L 125 335 L 109 334 L 92 329 L 77 321 L 62 309 L 52 298 L 43 285 L 36 270 L 34 261 L 34 246 L 37 239 L 40 236 L 43 226 L 40 202 L 30 221 L 29 234 L 30 241 L 32 246 L 32 253 L 30 255 L 28 252 L 22 233 L 23 206 L 18 191 Z M 194 306 L 181 315 L 175 317 L 169 315 L 171 313 L 179 311 L 182 309 L 178 309 L 174 311 L 172 308 L 179 305 L 188 304 Z M 212 278 L 206 283 L 197 288 L 191 289 L 190 287 L 197 282 L 195 282 L 192 284 L 189 282 L 197 277 L 205 276 Z M 169 270 L 171 282 L 170 287 L 168 289 L 166 282 L 166 287 L 164 289 L 163 279 L 164 275 Z M 6 247 L 15 250 L 22 256 L 25 261 L 23 262 L 18 258 L 23 268 L 19 266 L 11 259 L 5 249 Z M 188 245 L 191 246 L 191 251 L 187 255 L 187 259 L 185 261 L 184 255 Z M 215 237 L 217 239 L 210 253 L 204 259 L 200 258 L 208 248 L 206 247 L 204 251 L 200 255 L 199 252 L 203 245 L 206 242 Z M 41 210 L 41 213 L 42 214 L 41 226 L 39 232 L 36 236 L 36 228 L 34 229 L 34 232 L 32 234 L 31 224 L 37 210 Z M 15 190 L 15 193 L 18 196 L 21 204 L 21 213 L 19 215 L 16 208 L 17 217 L 15 219 L 12 214 L 11 210 L 11 193 Z M 156 165 L 178 188 L 176 190 L 156 190 L 154 188 L 154 168 Z M 25 200 L 27 197 L 28 189 L 33 173 L 40 159 L 50 145 L 62 133 L 70 127 L 85 119 L 96 115 L 115 111 L 131 111 L 154 115 L 172 122 L 186 131 L 201 146 L 209 157 L 219 178 L 223 191 L 224 201 L 225 195 L 219 174 L 214 163 L 211 161 L 210 156 L 202 145 L 187 130 L 166 117 L 139 110 L 119 109 L 104 111 L 85 117 L 67 127 L 54 138 L 44 150 L 33 169 L 28 183 Z M 160 0 L 162 0 L 163 1 L 177 1 L 178 0 L 181 0 Z M 110 0 L 113 2 L 115 8 L 118 5 L 118 2 L 120 0 Z M 48 0 L 52 0 L 53 1 L 66 1 L 67 0 L 69 0 Z" fill="currentColor" fill-rule="evenodd"/>
</svg>
