<svg xmlns="http://www.w3.org/2000/svg" width="145" height="64" viewBox="0 0 145 64" role="img" aria-hidden="true">
  <path d="M 29 58 L 29 61 L 31 63 L 34 63 L 36 61 L 36 58 L 33 55 Z M 144 28 L 142 30 L 144 32 Z M 58 29 L 58 33 L 60 35 L 62 35 L 64 33 L 64 30 L 62 28 Z M 2 28 L 0 30 L 1 34 L 4 35 L 6 34 L 8 31 L 5 28 Z M 31 10 L 29 23 L 22 29 L 11 30 L 12 33 L 14 34 L 22 34 L 26 37 L 26 39 L 28 39 L 30 41 L 34 52 L 35 42 L 36 40 L 40 38 L 40 35 L 42 34 L 51 34 L 54 31 L 40 28 L 36 24 L 35 12 L 34 10 Z M 33 27 L 36 30 L 36 32 L 32 35 L 29 32 L 29 30 Z M 31 0 L 29 2 L 29 4 L 33 7 L 36 4 L 36 2 L 34 0 Z" fill="currentColor" fill-rule="evenodd"/>
</svg>
