<svg xmlns="http://www.w3.org/2000/svg" width="231" height="366" viewBox="0 0 231 366" role="img" aria-hidden="true">
  <path d="M 115 348 L 112 351 L 112 361 L 116 365 L 123 365 L 127 359 L 127 353 L 126 351 L 122 348 Z M 117 349 L 121 349 L 125 354 L 124 360 L 119 364 L 117 363 L 114 359 L 114 352 Z M 102 349 L 99 349 L 94 364 L 96 363 L 97 360 L 102 360 L 104 363 L 106 361 Z M 90 348 L 82 348 L 82 364 L 84 363 L 85 357 L 89 355 L 86 355 L 84 353 L 85 350 Z M 143 162 L 130 155 L 110 150 L 90 151 L 81 153 L 66 160 L 59 165 L 49 175 L 45 181 L 39 195 L 37 203 L 37 218 L 38 225 L 43 238 L 51 250 L 57 256 L 57 259 L 54 267 L 54 271 L 51 279 L 53 282 L 76 268 L 93 272 L 111 272 L 127 268 L 142 260 L 156 247 L 162 238 L 167 226 L 169 216 L 168 199 L 164 187 L 155 173 Z M 145 168 L 153 176 L 158 183 L 162 191 L 165 202 L 165 220 L 164 224 L 158 238 L 153 245 L 143 255 L 136 260 L 119 267 L 109 269 L 95 269 L 76 264 L 62 272 L 57 276 L 56 272 L 58 268 L 61 254 L 53 247 L 48 240 L 42 226 L 41 221 L 41 201 L 44 191 L 52 177 L 63 166 L 71 161 L 83 156 L 92 154 L 114 154 L 123 156 L 138 163 Z M 100 240 L 98 241 L 97 246 L 100 249 L 103 249 L 106 246 L 106 243 L 104 241 Z M 108 175 L 96 175 L 88 179 L 84 184 L 82 190 L 82 194 L 83 196 L 86 198 L 90 193 L 86 187 L 91 181 L 99 178 L 103 178 L 111 181 L 116 187 L 117 190 L 116 199 L 113 204 L 103 214 L 100 220 L 100 231 L 102 230 L 103 222 L 106 217 L 121 203 L 124 197 L 124 189 L 120 182 L 114 177 Z M 34 130 L 23 142 L 12 159 L 5 176 L 0 198 L 0 225 L 4 246 L 8 258 L 15 272 L 21 281 L 37 298 L 49 307 L 63 314 L 81 319 L 101 320 L 114 318 L 135 311 L 144 306 L 155 306 L 162 311 L 169 314 L 181 314 L 188 312 L 190 310 L 186 306 L 178 301 L 174 300 L 162 300 L 158 301 L 156 303 L 152 303 L 153 300 L 156 299 L 165 291 L 177 287 L 193 288 L 197 287 L 203 284 L 211 277 L 214 273 L 211 273 L 210 272 L 195 272 L 190 274 L 190 276 L 196 274 L 208 276 L 203 281 L 193 286 L 185 285 L 186 282 L 179 283 L 175 286 L 174 283 L 188 267 L 191 261 L 196 256 L 202 252 L 212 249 L 217 246 L 223 240 L 230 226 L 230 223 L 227 223 L 213 230 L 208 235 L 203 246 L 198 252 L 197 249 L 198 248 L 198 245 L 201 240 L 203 232 L 203 227 L 208 219 L 211 210 L 211 197 L 205 181 L 202 179 L 201 184 L 196 195 L 195 202 L 196 213 L 201 226 L 200 233 L 195 248 L 191 256 L 188 259 L 188 261 L 183 267 L 182 264 L 186 258 L 187 254 L 187 241 L 182 228 L 180 228 L 174 240 L 172 248 L 172 263 L 174 269 L 174 274 L 170 282 L 162 290 L 149 300 L 143 303 L 142 300 L 147 292 L 148 284 L 152 280 L 152 276 L 150 274 L 146 273 L 144 274 L 143 281 L 146 284 L 145 291 L 140 300 L 132 308 L 120 313 L 107 316 L 84 316 L 65 311 L 51 304 L 40 296 L 24 279 L 18 270 L 12 258 L 6 239 L 4 227 L 4 198 L 10 173 L 19 154 L 27 143 L 42 128 L 51 122 L 66 114 L 75 111 L 90 108 L 117 108 L 127 110 L 141 115 L 155 122 L 169 133 L 181 146 L 188 156 L 195 171 L 197 169 L 196 164 L 189 151 L 182 141 L 168 127 L 150 115 L 133 108 L 113 104 L 91 104 L 84 105 L 64 111 L 50 118 Z M 162 307 L 165 302 L 174 302 L 182 306 L 185 309 L 180 312 L 169 312 L 163 309 Z M 146 276 L 149 277 L 149 279 L 147 281 L 145 279 Z M 181 267 L 182 269 L 180 272 L 177 275 L 176 272 Z M 181 235 L 184 239 L 185 243 L 185 252 L 183 259 L 180 263 L 179 260 L 174 261 L 174 249 L 177 240 Z M 222 227 L 225 230 L 225 232 L 221 238 L 213 246 L 209 248 L 208 245 L 217 235 L 209 241 L 208 238 L 214 232 Z M 205 187 L 209 199 L 209 208 L 208 213 L 205 217 L 204 211 L 205 201 L 203 196 L 203 208 L 202 215 L 200 217 L 198 213 L 198 197 L 201 188 Z M 143 0 L 144 2 L 147 5 L 148 3 L 146 0 Z M 140 0 L 137 0 L 137 3 L 139 2 Z M 121 2 L 122 5 L 130 3 L 126 3 L 124 0 L 122 0 Z M 116 0 L 113 0 L 109 3 L 107 1 L 105 1 L 108 5 L 111 5 L 113 4 Z M 86 4 L 89 2 L 89 1 L 95 0 L 97 2 L 97 3 L 100 2 L 99 0 L 87 1 L 87 2 Z M 74 0 L 75 5 L 82 3 L 78 3 L 76 0 Z" fill="currentColor" fill-rule="evenodd"/>
</svg>
