<svg xmlns="http://www.w3.org/2000/svg" width="145" height="144" viewBox="0 0 145 144" role="img" aria-hidden="true">
  <path d="M 61 0 L 51 2 L 36 8 L 26 15 L 13 29 L 7 39 L 2 53 L 0 66 L 1 84 L 5 98 L 9 107 L 17 118 L 25 126 L 33 132 L 42 137 L 58 142 L 64 143 L 80 143 L 96 139 L 110 132 L 119 125 L 131 112 L 138 100 L 143 83 L 143 75 L 144 74 L 143 59 L 140 47 L 133 32 L 122 19 L 112 11 L 103 6 L 90 1 L 83 0 Z M 56 9 L 61 8 L 80 8 L 86 9 L 98 13 L 107 18 L 124 34 L 131 46 L 134 56 L 135 67 L 136 68 L 135 82 L 131 95 L 127 103 L 122 110 L 107 124 L 94 131 L 84 134 L 76 135 L 59 134 L 47 130 L 36 124 L 31 120 L 19 107 L 13 96 L 9 82 L 9 60 L 13 46 L 19 35 L 22 31 L 36 18 L 43 14 Z M 69 118 L 69 128 L 72 130 L 75 127 L 74 118 Z M 118 73 L 120 75 L 127 75 L 130 71 L 128 69 L 118 70 Z M 14 69 L 15 75 L 23 75 L 25 73 L 24 69 Z M 70 35 L 68 37 L 68 65 L 65 69 L 65 74 L 69 79 L 77 79 L 96 93 L 99 93 L 101 91 L 101 88 L 91 80 L 85 77 L 79 71 L 79 69 L 76 66 L 76 38 L 73 35 Z M 69 14 L 69 23 L 72 25 L 75 22 L 74 14 Z M 92 6 L 95 5 L 96 8 L 94 8 Z" fill="currentColor" fill-rule="evenodd"/>
</svg>
