<svg xmlns="http://www.w3.org/2000/svg" width="299" height="199" viewBox="0 0 299 199" role="img" aria-hidden="true">
  <path d="M 3 105 L 0 107 L 0 119 L 3 111 Z M 162 66 L 162 185 L 166 185 L 166 79 L 165 68 Z M 179 65 L 176 65 L 176 184 L 180 181 L 180 67 Z M 217 46 L 201 47 L 200 46 L 143 47 L 142 46 L 136 47 L 128 55 L 126 59 L 125 68 L 127 75 L 129 78 L 135 83 L 138 84 L 148 83 L 150 85 L 151 186 L 153 184 L 154 159 L 153 147 L 154 135 L 153 134 L 153 124 L 154 123 L 154 114 L 153 113 L 153 79 L 157 74 L 158 70 L 157 61 L 166 60 L 198 60 L 200 62 L 199 74 L 203 81 L 202 125 L 203 143 L 206 141 L 208 83 L 217 84 L 221 82 L 227 77 L 230 70 L 230 60 L 228 56 L 224 51 Z M 129 62 L 131 57 L 135 53 L 139 51 L 216 51 L 220 53 L 225 58 L 226 61 L 226 69 L 224 73 L 218 79 L 211 80 L 205 76 L 203 72 L 203 64 L 204 62 L 207 60 L 213 60 L 215 61 L 218 65 L 217 69 L 213 72 L 210 69 L 210 67 L 213 65 L 208 64 L 206 66 L 206 70 L 211 76 L 214 76 L 218 74 L 222 69 L 222 63 L 221 61 L 215 56 L 196 56 L 195 57 L 187 57 L 186 56 L 160 57 L 156 55 L 153 57 L 142 56 L 137 58 L 134 62 L 134 69 L 136 73 L 140 76 L 144 76 L 150 69 L 147 64 L 142 64 L 142 67 L 145 69 L 142 72 L 138 68 L 138 64 L 139 62 L 142 60 L 149 61 L 153 66 L 153 73 L 149 78 L 145 80 L 139 80 L 135 78 L 131 74 L 129 70 Z M 204 5 L 184 1 L 169 1 L 164 3 L 153 4 L 137 11 L 119 24 L 110 34 L 103 45 L 97 58 L 93 72 L 92 86 L 91 87 L 92 106 L 94 117 L 100 133 L 109 148 L 125 165 L 133 171 L 140 173 L 130 165 L 111 145 L 103 131 L 98 116 L 95 100 L 95 87 L 96 76 L 102 55 L 106 47 L 115 34 L 127 22 L 147 10 L 162 5 L 177 3 L 206 6 Z M 279 16 L 276 14 L 267 31 L 265 39 L 265 50 L 267 58 L 265 60 L 262 52 L 253 36 L 252 28 L 249 19 L 238 7 L 230 1 L 226 0 L 229 16 L 232 24 L 240 33 L 249 38 L 252 41 L 259 53 L 257 55 L 246 45 L 235 40 L 233 40 L 233 42 L 236 46 L 236 48 L 241 57 L 251 66 L 255 68 L 258 68 L 262 72 L 266 80 L 266 100 L 260 120 L 257 124 L 256 118 L 259 108 L 259 101 L 256 91 L 249 80 L 245 77 L 245 82 L 244 83 L 244 103 L 252 119 L 252 130 L 248 140 L 233 157 L 227 159 L 227 157 L 235 147 L 240 133 L 240 123 L 236 110 L 234 109 L 227 122 L 224 131 L 225 156 L 221 164 L 215 170 L 212 171 L 208 175 L 200 178 L 194 182 L 190 181 L 194 177 L 201 173 L 208 166 L 213 154 L 211 142 L 198 155 L 196 159 L 195 165 L 193 167 L 192 159 L 194 156 L 194 69 L 193 67 L 190 67 L 190 167 L 192 166 L 194 169 L 194 173 L 189 180 L 181 186 L 175 189 L 164 190 L 159 192 L 136 196 L 138 198 L 158 196 L 188 188 L 202 188 L 206 191 L 212 193 L 224 193 L 235 189 L 237 186 L 222 181 L 214 180 L 207 182 L 206 180 L 218 172 L 224 170 L 234 170 L 245 174 L 254 174 L 264 170 L 271 165 L 275 160 L 258 157 L 248 157 L 232 162 L 250 144 L 257 141 L 268 141 L 272 140 L 285 133 L 293 123 L 298 113 L 298 111 L 296 111 L 273 119 L 270 121 L 259 133 L 258 130 L 260 128 L 269 106 L 273 101 L 281 97 L 289 90 L 294 81 L 297 68 L 295 59 L 281 72 L 274 85 L 274 89 L 271 94 L 269 81 L 269 64 L 271 58 L 276 52 L 281 43 L 281 26 Z M 228 187 L 223 191 L 217 192 L 209 190 L 209 187 L 218 186 L 220 183 L 224 184 Z M 240 167 L 247 167 L 253 164 L 247 161 L 249 160 L 259 160 L 267 163 L 264 166 L 251 171 L 244 171 Z M 207 150 L 210 152 L 208 160 L 204 166 L 204 161 L 202 162 L 201 165 L 198 168 L 197 165 L 202 155 Z M 234 119 L 236 121 L 237 125 L 237 134 L 234 139 L 234 131 L 232 130 L 230 143 L 228 145 L 227 133 L 229 126 L 232 120 Z M 291 119 L 287 126 L 279 134 L 272 137 L 268 136 L 268 134 L 270 132 L 281 125 L 279 124 L 269 130 L 268 127 L 271 124 L 276 121 L 285 118 Z M 250 88 L 254 94 L 256 101 L 254 103 L 251 99 L 249 109 L 249 106 L 247 104 L 246 100 L 246 92 Z M 293 70 L 293 74 L 290 83 L 285 90 L 280 94 L 279 91 L 285 83 L 287 77 L 285 78 L 280 84 L 279 81 L 288 70 L 290 69 Z M 241 47 L 248 49 L 250 54 L 248 54 L 251 58 L 250 61 L 243 55 L 240 49 Z M 277 25 L 278 28 L 278 39 L 276 46 L 273 50 L 272 45 L 274 40 L 274 35 L 272 36 L 272 38 L 269 42 L 268 39 L 273 26 Z M 232 8 L 234 8 L 242 15 L 243 22 L 238 17 L 238 19 L 245 30 L 243 32 L 237 26 L 233 18 L 231 11 Z" fill="currentColor" fill-rule="evenodd"/>
</svg>
