<svg xmlns="http://www.w3.org/2000/svg" width="161" height="159" viewBox="0 0 161 159" role="img" aria-hidden="true">
  <path d="M 26 89 L 26 93 L 28 95 L 86 95 L 89 91 L 87 89 L 82 88 L 36 88 L 35 89 Z M 151 72 L 145 69 L 138 70 L 82 127 L 74 150 L 74 156 L 76 158 L 100 151 L 159 90 L 160 87 L 159 80 Z M 87 138 L 90 142 L 94 145 L 92 147 L 83 150 L 82 146 L 85 138 Z M 132 88 L 142 99 L 130 110 L 104 138 L 99 142 L 89 132 L 89 130 L 129 88 Z M 141 76 L 146 76 L 154 85 L 152 89 L 147 94 L 136 83 L 136 81 Z M 26 65 L 26 69 L 28 71 L 106 71 L 109 68 L 109 66 L 107 64 Z M 26 41 L 26 44 L 29 47 L 105 47 L 109 44 L 109 42 L 107 40 Z M 129 1 L 126 0 L 8 0 L 2 4 L 0 9 L 0 144 L 2 149 L 5 152 L 9 154 L 66 154 L 69 151 L 68 148 L 66 147 L 10 147 L 7 143 L 7 10 L 10 7 L 124 7 L 126 8 L 129 12 L 128 33 L 129 67 L 131 69 L 135 65 L 135 9 L 134 6 Z" fill="currentColor" fill-rule="evenodd"/>
</svg>
