<svg xmlns="http://www.w3.org/2000/svg" width="228" height="24" viewBox="0 0 228 24" role="img" aria-hidden="true">
  <path d="M 111 7 L 109 9 L 110 15 L 113 16 L 117 13 L 117 10 L 114 7 Z M 0 12 L 6 16 L 12 16 L 19 13 L 21 11 L 19 9 L 13 7 L 6 7 L 1 9 Z M 6 12 L 7 10 L 12 11 L 10 13 Z M 227 11 L 224 8 L 221 7 L 214 7 L 208 10 L 205 10 L 206 13 L 203 14 L 201 12 L 201 10 L 205 7 L 210 1 L 204 0 L 201 1 L 193 9 L 128 9 L 129 14 L 194 14 L 201 21 L 207 23 L 209 21 L 209 19 L 205 14 L 209 13 L 215 16 L 220 16 L 225 14 Z M 215 12 L 216 10 L 221 11 L 219 13 Z M 18 0 L 19 5 L 22 8 L 28 11 L 26 13 L 21 14 L 18 18 L 21 22 L 23 22 L 28 19 L 31 15 L 97 14 L 99 12 L 98 9 L 34 10 L 31 6 L 25 1 Z" fill="currentColor" fill-rule="evenodd"/>
</svg>
