<svg xmlns="http://www.w3.org/2000/svg" width="196" height="184" viewBox="0 0 196 184" role="img" aria-hidden="true">
  <path d="M 87 1 L 81 20 L 74 37 L 68 57 L 64 62 L 62 63 L 0 64 L 0 66 L 5 71 L 9 73 L 49 104 L 51 107 L 47 122 L 44 128 L 43 135 L 41 138 L 40 145 L 36 158 L 34 161 L 33 165 L 34 171 L 40 166 L 49 161 L 53 157 L 64 150 L 75 141 L 81 138 L 87 133 L 90 133 L 102 142 L 105 143 L 113 150 L 130 162 L 130 166 L 127 172 L 121 178 L 112 181 L 113 183 L 117 183 L 132 177 L 143 170 L 152 162 L 160 158 L 173 159 L 185 154 L 192 147 L 195 142 L 179 142 L 172 144 L 165 149 L 164 147 L 169 141 L 171 136 L 177 133 L 183 127 L 187 120 L 189 111 L 188 100 L 185 100 L 177 108 L 170 118 L 169 123 L 169 135 L 166 138 L 163 145 L 152 157 L 151 154 L 155 149 L 160 138 L 160 128 L 157 117 L 155 115 L 153 115 L 146 129 L 145 140 L 148 151 L 148 156 L 143 163 L 140 160 L 139 151 L 137 149 L 138 143 L 137 138 L 127 108 L 128 104 L 178 66 L 177 63 L 118 63 L 114 62 L 111 59 L 91 1 Z M 142 165 L 137 170 L 131 172 L 131 169 L 135 163 Z M 189 146 L 184 149 L 178 155 L 169 156 L 170 153 L 179 150 L 182 145 Z M 154 122 L 156 124 L 157 134 L 155 136 L 153 130 L 152 137 L 149 140 L 147 138 L 149 129 L 152 123 Z M 184 119 L 178 127 L 177 125 L 180 119 Z M 186 107 L 186 109 L 183 112 L 181 112 L 175 120 L 174 117 L 178 111 L 183 106 Z M 88 23 L 91 24 L 94 32 L 94 35 L 101 51 L 105 65 L 108 69 L 110 70 L 153 70 L 156 72 L 140 86 L 119 102 L 119 108 L 125 125 L 125 129 L 130 141 L 130 144 L 131 146 L 135 148 L 132 149 L 129 152 L 117 142 L 115 142 L 91 124 L 85 125 L 51 150 L 47 150 L 48 141 L 54 125 L 60 103 L 42 88 L 31 81 L 22 73 L 23 70 L 67 70 L 70 69 L 73 65 L 78 48 L 82 40 L 85 29 Z" fill="currentColor" fill-rule="evenodd"/>
</svg>
