<svg xmlns="http://www.w3.org/2000/svg" width="126" height="56" viewBox="0 0 126 56" role="img" aria-hidden="true">
  <path d="M 125 42 L 123 38 L 118 33 L 112 30 L 103 29 L 94 25 L 95 22 L 100 21 L 107 15 L 102 13 L 95 13 L 85 16 L 80 19 L 71 15 L 68 11 L 78 5 L 80 0 L 78 0 L 61 10 L 46 1 L 42 1 L 45 5 L 53 9 L 56 12 L 53 15 L 42 19 L 35 15 L 28 13 L 24 13 L 17 15 L 18 18 L 25 22 L 28 22 L 30 24 L 28 26 L 21 29 L 15 29 L 7 32 L 0 40 L 1 44 L 4 45 L 10 44 L 14 42 L 24 31 L 31 28 L 34 29 L 31 35 L 30 42 L 32 46 L 34 46 L 40 40 L 43 34 L 43 29 L 45 22 L 49 21 L 53 18 L 55 21 L 53 30 L 54 43 L 56 48 L 61 55 L 68 47 L 71 39 L 71 29 L 69 19 L 76 21 L 80 24 L 80 31 L 82 37 L 85 42 L 91 47 L 94 44 L 93 35 L 89 29 L 92 28 L 99 31 L 109 42 L 113 44 L 123 44 Z M 15 37 L 12 40 L 7 41 L 5 38 L 9 35 L 14 35 Z M 107 35 L 108 33 L 111 33 L 115 35 L 119 39 L 117 41 L 115 41 L 111 39 Z M 86 31 L 88 33 L 88 35 L 90 38 L 88 40 L 84 34 Z M 36 32 L 39 33 L 39 35 L 35 40 L 34 37 Z M 61 19 L 64 20 L 67 27 L 67 40 L 64 46 L 61 48 L 59 46 L 57 41 L 57 27 L 59 21 Z M 92 19 L 93 17 L 97 18 L 95 20 Z M 29 19 L 30 17 L 33 18 Z" fill="currentColor" fill-rule="evenodd"/>
</svg>
