<svg xmlns="http://www.w3.org/2000/svg" width="193" height="328" viewBox="0 0 193 328" role="img" aria-hidden="true">
  <path d="M 3 214 L 0 221 L 0 315 L 3 322 L 10 327 L 180 327 L 184 325 L 190 319 L 192 313 L 192 225 L 189 216 L 185 212 L 180 210 L 10 210 Z M 10 217 L 23 216 L 175 216 L 180 217 L 185 223 L 185 314 L 184 316 L 178 320 L 172 321 L 140 320 L 136 321 L 116 321 L 115 320 L 102 321 L 101 320 L 26 320 L 15 321 L 11 320 L 7 316 L 6 313 L 7 308 L 6 294 L 6 260 L 7 259 L 6 242 L 7 221 Z M 152 290 L 150 292 L 150 305 L 151 307 L 166 308 L 169 304 L 168 291 L 166 290 Z M 161 295 L 163 297 L 163 299 L 161 301 L 157 302 L 155 300 L 156 296 Z M 54 291 L 54 305 L 57 308 L 134 308 L 137 304 L 137 292 L 135 290 Z M 132 297 L 132 299 L 129 302 L 108 301 L 66 301 L 61 302 L 59 300 L 60 296 L 126 295 Z M 23 290 L 22 292 L 22 305 L 23 307 L 38 308 L 41 303 L 41 293 L 40 291 Z M 27 300 L 28 296 L 33 296 L 35 299 L 32 302 L 29 302 Z M 151 260 L 150 262 L 150 275 L 151 277 L 165 278 L 169 274 L 169 262 L 167 260 Z M 155 270 L 156 265 L 159 265 L 163 267 L 163 269 L 160 272 L 157 272 Z M 118 261 L 118 275 L 119 277 L 133 278 L 137 274 L 137 262 L 135 260 Z M 125 265 L 131 266 L 131 269 L 128 272 L 126 272 L 124 270 Z M 86 261 L 86 274 L 89 278 L 102 278 L 105 275 L 105 262 L 103 260 Z M 93 265 L 98 265 L 100 267 L 97 272 L 94 272 L 92 270 Z M 54 261 L 54 276 L 56 278 L 69 278 L 73 274 L 73 262 L 71 260 Z M 61 265 L 65 266 L 67 269 L 64 272 L 61 272 L 59 270 Z M 23 260 L 22 262 L 22 275 L 23 277 L 37 278 L 40 275 L 41 263 L 40 261 Z M 29 265 L 33 266 L 35 269 L 32 272 L 29 272 L 27 270 Z M 151 230 L 150 232 L 150 245 L 153 248 L 164 248 L 169 244 L 169 232 L 167 230 L 158 229 Z M 157 235 L 161 235 L 163 237 L 163 240 L 161 242 L 158 242 L 156 240 Z M 120 229 L 118 231 L 119 247 L 121 248 L 133 248 L 137 244 L 137 232 L 134 229 Z M 125 235 L 129 235 L 131 237 L 131 239 L 128 242 L 126 242 L 124 240 Z M 86 231 L 86 245 L 89 248 L 100 248 L 105 244 L 105 232 L 102 229 L 91 229 Z M 93 235 L 99 236 L 99 240 L 97 242 L 94 242 L 92 240 Z M 56 229 L 54 231 L 55 247 L 57 248 L 68 248 L 72 245 L 72 239 L 73 238 L 73 233 L 72 231 L 69 229 Z M 61 235 L 65 235 L 67 237 L 67 239 L 64 242 L 60 241 Z M 24 229 L 22 231 L 22 245 L 23 247 L 35 248 L 38 247 L 40 245 L 39 230 L 37 229 Z M 27 240 L 28 235 L 33 235 L 35 237 L 35 239 L 32 242 L 29 242 Z M 56 79 L 59 82 L 125 82 L 128 79 L 128 77 L 126 75 L 57 75 Z M 56 50 L 56 53 L 58 55 L 125 55 L 128 52 L 127 49 L 125 48 L 106 49 L 66 48 Z M 56 26 L 59 29 L 125 29 L 128 26 L 127 22 L 57 22 Z M 32 0 L 31 27 L 31 83 L 32 84 L 31 101 L 32 109 L 37 115 L 39 116 L 144 116 L 151 111 L 153 107 L 153 4 L 150 0 L 108 0 L 109 5 L 113 8 L 144 8 L 146 10 L 146 105 L 142 109 L 74 110 L 41 109 L 38 106 L 38 0 Z" fill="currentColor" fill-rule="evenodd"/>
</svg>
