<svg xmlns="http://www.w3.org/2000/svg" width="204" height="207" viewBox="0 0 204 207" role="img" aria-hidden="true">
  <path d="M 48 70 L 46 74 L 46 143 L 48 147 L 52 151 L 56 153 L 71 153 L 72 152 L 110 153 L 124 152 L 132 145 L 134 138 L 133 102 L 129 102 L 129 140 L 124 146 L 112 148 L 94 147 L 67 147 L 56 148 L 51 143 L 50 140 L 50 82 L 51 75 L 54 72 L 61 71 L 96 71 L 98 68 L 96 66 L 78 67 L 56 66 Z M 143 51 L 134 51 L 109 54 L 109 57 L 112 59 L 123 58 L 124 57 L 134 58 L 86 110 L 85 112 L 86 115 L 88 116 L 108 93 L 111 91 L 121 79 L 128 73 L 136 63 L 140 63 L 142 89 L 144 87 L 145 84 L 145 53 Z M 32 24 L 15 45 L 13 51 L 11 53 L 2 79 L 0 92 L 0 112 L 4 135 L 13 157 L 23 172 L 39 188 L 48 194 L 53 196 L 56 199 L 77 205 L 90 206 L 108 203 L 131 191 L 135 190 L 139 190 L 148 193 L 156 193 L 171 188 L 172 184 L 158 180 L 147 179 L 147 177 L 151 173 L 161 168 L 178 168 L 185 166 L 192 162 L 203 152 L 203 150 L 201 149 L 186 149 L 172 155 L 169 153 L 176 143 L 178 138 L 189 128 L 197 114 L 199 105 L 199 90 L 197 83 L 194 83 L 180 104 L 176 118 L 177 127 L 176 137 L 168 148 L 165 155 L 158 163 L 157 159 L 161 154 L 166 143 L 166 132 L 165 125 L 163 121 L 163 117 L 162 115 L 158 115 L 152 126 L 150 135 L 150 148 L 152 154 L 152 163 L 151 166 L 140 178 L 126 189 L 104 199 L 94 201 L 81 201 L 68 198 L 52 191 L 42 184 L 29 171 L 18 156 L 10 138 L 6 123 L 5 110 L 4 109 L 5 88 L 10 67 L 13 59 L 21 45 L 26 38 L 39 25 L 50 17 L 65 10 L 85 5 L 105 5 L 123 9 L 131 12 L 147 21 L 152 25 L 166 40 L 171 48 L 178 64 L 181 76 L 182 89 L 184 84 L 184 75 L 182 63 L 177 52 L 176 47 L 172 40 L 166 32 L 163 30 L 154 20 L 147 16 L 143 12 L 130 6 L 113 1 L 103 0 L 86 0 L 79 2 L 73 1 L 66 4 L 64 6 L 52 10 Z M 157 187 L 158 183 L 167 186 L 165 188 L 162 188 L 161 189 L 159 189 Z M 189 159 L 185 163 L 181 163 L 178 165 L 175 162 L 186 158 Z M 168 158 L 165 162 L 161 165 L 160 163 L 165 157 Z M 197 153 L 192 158 L 188 158 L 190 156 L 187 155 L 173 161 L 173 157 L 181 153 L 185 152 Z M 161 123 L 163 131 L 163 139 L 162 143 L 160 145 L 160 132 L 158 130 L 156 149 L 154 151 L 152 145 L 153 134 L 157 124 Z M 192 97 L 187 106 L 184 117 L 180 122 L 179 119 L 180 118 L 180 114 L 182 108 L 188 97 Z M 193 91 L 196 92 L 196 103 L 191 119 L 185 127 L 184 124 L 190 110 L 192 100 L 193 99 L 191 96 Z" fill="currentColor" fill-rule="evenodd"/>
</svg>
