<svg xmlns="http://www.w3.org/2000/svg" width="353" height="350" viewBox="0 0 353 350" role="img" aria-hidden="true">
  <path d="M 290 335 L 287 336 L 286 338 L 286 347 L 287 349 L 289 349 L 289 346 L 292 341 Z M 262 257 L 262 259 L 264 261 L 267 258 L 265 256 Z M 272 246 L 269 246 L 270 251 Z M 281 238 L 277 237 L 278 241 Z M 285 229 L 287 233 L 288 229 Z M 296 222 L 298 225 L 300 223 Z M 312 217 L 309 217 L 310 220 Z M 315 199 L 310 198 L 300 201 L 282 210 L 271 218 L 256 234 L 249 245 L 242 264 L 240 266 L 239 261 L 243 254 L 246 243 L 245 230 L 243 225 L 242 218 L 240 218 L 234 229 L 231 240 L 232 253 L 237 264 L 238 276 L 239 277 L 239 300 L 235 301 L 233 291 L 234 284 L 230 281 L 227 274 L 215 260 L 212 260 L 212 272 L 213 281 L 217 292 L 225 301 L 232 305 L 237 310 L 243 318 L 249 329 L 249 331 L 252 335 L 251 338 L 244 332 L 240 325 L 235 320 L 229 317 L 225 313 L 209 310 L 209 312 L 212 315 L 212 317 L 215 322 L 223 331 L 234 336 L 243 336 L 256 343 L 262 349 L 266 349 L 264 347 L 265 341 L 269 345 L 270 349 L 273 349 L 272 343 L 276 332 L 276 320 L 274 313 L 270 307 L 270 304 L 268 302 L 266 302 L 266 306 L 262 315 L 261 329 L 264 338 L 262 340 L 259 340 L 257 338 L 250 325 L 250 317 L 248 311 L 250 298 L 251 296 L 258 290 L 262 282 L 263 270 L 261 267 L 256 271 L 250 278 L 248 284 L 249 296 L 246 301 L 247 310 L 245 312 L 243 307 L 244 302 L 241 295 L 241 283 L 244 266 L 248 255 L 254 244 L 261 238 L 263 238 L 268 233 L 264 231 L 264 229 L 280 215 L 282 215 L 284 217 L 287 214 L 290 213 L 294 207 L 304 203 L 313 201 Z M 224 316 L 228 319 L 222 323 L 219 322 L 219 317 Z M 272 315 L 274 322 L 269 324 L 269 323 L 263 324 L 263 321 L 268 316 Z M 221 272 L 224 275 L 225 280 L 223 282 L 221 281 L 222 285 L 220 287 L 217 286 L 215 281 L 217 275 L 220 279 L 221 277 Z M 236 235 L 240 238 L 238 240 L 237 240 L 235 242 Z M 316 203 L 316 206 L 318 208 L 321 207 L 324 203 L 328 202 L 333 207 L 340 201 L 345 207 L 348 208 L 351 204 L 347 200 L 342 200 L 340 198 L 340 195 L 337 193 L 338 188 L 336 186 L 330 187 L 330 190 L 327 194 L 327 197 L 324 200 L 320 200 Z M 336 201 L 332 202 L 334 199 Z M 330 193 L 331 191 L 334 190 L 338 194 L 336 196 L 331 197 Z M 14 150 L 9 146 L 5 147 L 5 154 L 10 154 L 5 158 L 0 156 L 0 160 L 7 160 L 9 159 L 14 154 Z M 97 4 L 97 19 L 99 27 L 102 32 L 107 37 L 111 39 L 117 46 L 123 64 L 123 84 L 121 86 L 118 82 L 118 75 L 114 65 L 103 55 L 99 55 L 103 72 L 110 80 L 115 82 L 117 84 L 122 95 L 124 105 L 122 107 L 118 102 L 111 97 L 111 94 L 108 90 L 105 89 L 98 90 L 98 97 L 101 101 L 106 102 L 108 100 L 112 100 L 123 112 L 123 123 L 121 125 L 115 120 L 114 116 L 112 115 L 106 116 L 106 121 L 109 124 L 117 123 L 123 129 L 123 152 L 120 155 L 115 155 L 116 158 L 292 158 L 294 156 L 289 154 L 281 155 L 279 153 L 279 143 L 283 133 L 288 127 L 291 125 L 300 125 L 305 119 L 303 117 L 299 117 L 294 119 L 289 125 L 282 130 L 282 132 L 280 134 L 279 131 L 280 125 L 285 116 L 293 108 L 303 109 L 307 107 L 310 104 L 311 95 L 302 95 L 300 96 L 295 101 L 295 104 L 282 115 L 281 112 L 282 111 L 282 107 L 286 96 L 294 82 L 299 77 L 310 72 L 315 66 L 318 58 L 318 52 L 306 56 L 301 61 L 297 70 L 297 74 L 285 93 L 284 84 L 285 78 L 292 55 L 300 47 L 303 40 L 303 26 L 301 18 L 299 18 L 298 21 L 293 26 L 289 34 L 290 56 L 289 58 L 283 63 L 281 61 L 279 55 L 282 43 L 283 47 L 284 44 L 283 43 L 283 40 L 280 37 L 279 20 L 281 14 L 283 15 L 285 13 L 285 0 L 277 0 L 277 10 L 275 12 L 273 8 L 267 2 L 264 0 L 260 0 L 262 15 L 265 20 L 269 24 L 274 27 L 277 34 L 277 49 L 275 51 L 273 48 L 274 45 L 273 41 L 267 40 L 265 41 L 264 43 L 265 47 L 267 49 L 271 49 L 277 57 L 277 84 L 274 87 L 271 84 L 271 82 L 268 79 L 267 76 L 258 66 L 253 65 L 254 68 L 253 82 L 256 93 L 261 100 L 267 105 L 270 106 L 274 110 L 276 116 L 276 134 L 274 136 L 267 128 L 267 125 L 263 122 L 258 123 L 258 128 L 261 131 L 266 130 L 272 137 L 276 149 L 276 152 L 272 155 L 135 155 L 133 153 L 133 127 L 134 123 L 137 117 L 139 115 L 142 115 L 147 109 L 144 105 L 139 106 L 137 109 L 138 113 L 133 117 L 133 119 L 131 121 L 128 114 L 127 100 L 129 92 L 132 86 L 137 81 L 143 78 L 152 68 L 156 54 L 155 43 L 152 43 L 138 56 L 134 64 L 131 83 L 126 90 L 125 78 L 126 77 L 126 65 L 129 54 L 132 49 L 133 41 L 142 31 L 147 20 L 146 7 L 143 7 L 133 20 L 132 13 L 133 0 L 130 0 L 130 11 L 128 13 L 127 0 L 122 0 L 126 22 L 128 15 L 130 17 L 130 45 L 127 53 L 122 55 L 120 47 L 115 39 L 115 25 L 113 20 L 109 14 L 99 4 Z M 129 139 L 130 141 L 130 152 L 128 154 L 126 144 Z M 128 121 L 130 132 L 128 134 L 126 131 L 125 126 Z M 299 102 L 300 99 L 304 100 Z M 103 92 L 105 94 L 103 96 L 101 94 Z M 283 91 L 283 98 L 280 103 L 279 92 Z M 262 77 L 264 77 L 269 83 L 267 85 L 265 85 L 260 81 Z M 282 69 L 283 79 L 282 83 L 280 85 Z M 307 66 L 309 64 L 312 65 Z M 108 62 L 112 67 L 110 69 L 108 67 L 107 65 Z M 310 60 L 303 64 L 303 62 L 305 60 L 307 59 Z M 147 60 L 148 58 L 150 58 L 152 60 L 149 62 Z M 148 54 L 148 56 L 143 61 L 140 62 L 139 59 L 144 53 Z M 299 36 L 300 38 L 298 40 L 297 38 Z M 106 15 L 110 20 L 106 21 Z M 265 9 L 267 11 L 268 13 L 264 14 L 263 12 Z" fill="currentColor" fill-rule="evenodd"/>
</svg>
