<svg xmlns="http://www.w3.org/2000/svg" width="91" height="494" viewBox="0 0 91 494" role="img" aria-hidden="true">
  <path d="M 42 0 L 37 0 L 34 4 L 31 19 L 31 32 L 37 55 L 44 70 L 50 87 L 48 89 L 37 79 L 36 71 L 31 66 L 28 65 L 19 66 L 16 68 L 13 75 L 14 82 L 19 88 L 28 89 L 31 88 L 34 85 L 39 86 L 50 98 L 54 108 L 54 129 L 53 136 L 49 150 L 45 151 L 45 147 L 42 136 L 36 127 L 23 115 L 17 114 L 17 123 L 23 144 L 29 153 L 39 162 L 40 165 L 40 172 L 30 198 L 23 230 L 23 260 L 24 269 L 29 292 L 38 320 L 37 323 L 35 321 L 33 313 L 26 303 L 13 294 L 0 291 L 0 298 L 7 312 L 15 320 L 21 324 L 29 327 L 33 327 L 45 340 L 49 348 L 54 370 L 55 396 L 51 420 L 48 424 L 47 418 L 49 412 L 49 400 L 45 388 L 39 377 L 24 360 L 20 360 L 20 384 L 22 397 L 29 411 L 33 416 L 42 424 L 44 434 L 44 440 L 39 449 L 29 477 L 27 490 L 30 493 L 32 493 L 35 489 L 36 479 L 43 460 L 48 453 L 61 441 L 65 441 L 69 444 L 76 444 L 83 438 L 84 435 L 83 428 L 79 424 L 77 423 L 68 423 L 63 427 L 62 429 L 62 435 L 53 442 L 52 439 L 58 422 L 62 402 L 62 372 L 56 345 L 40 302 L 41 287 L 43 282 L 55 271 L 62 258 L 67 232 L 66 223 L 61 224 L 42 244 L 36 259 L 36 275 L 34 277 L 31 262 L 31 230 L 33 217 L 38 205 L 49 195 L 53 195 L 58 199 L 66 199 L 72 194 L 74 190 L 74 186 L 71 180 L 67 177 L 60 176 L 55 178 L 53 180 L 51 188 L 47 192 L 44 193 L 41 196 L 40 193 L 45 179 L 49 172 L 58 147 L 62 125 L 61 112 L 65 98 L 78 87 L 84 78 L 90 57 L 89 49 L 84 49 L 71 60 L 62 76 L 61 90 L 59 92 L 56 84 L 55 76 L 53 74 L 52 69 L 45 54 L 40 38 L 39 20 L 40 12 L 43 5 Z M 70 427 L 75 427 L 79 432 L 75 436 L 72 436 L 69 433 Z M 27 371 L 35 380 L 42 393 L 44 399 L 44 404 L 42 406 L 39 401 L 34 387 L 32 384 L 30 383 L 31 388 L 37 401 L 37 405 L 38 406 L 36 410 L 30 403 L 27 395 L 25 385 Z M 6 300 L 11 299 L 20 305 L 18 307 L 15 307 L 22 318 L 10 307 Z M 60 241 L 60 247 L 55 261 L 46 273 L 45 269 L 47 266 L 47 263 L 51 254 L 53 252 L 55 244 L 57 241 Z M 54 238 L 55 241 L 47 258 L 42 265 L 41 259 L 46 248 Z M 57 186 L 57 183 L 59 181 L 65 181 L 68 184 L 62 190 Z M 27 130 L 29 134 L 33 149 L 31 147 L 24 132 Z M 19 73 L 22 70 L 28 71 L 29 74 L 32 76 L 29 79 L 24 80 L 19 76 Z M 84 58 L 83 67 L 79 77 L 77 80 L 70 83 L 73 78 L 74 74 L 70 77 L 68 80 L 67 77 L 72 67 Z M 40 4 L 39 7 L 37 9 L 36 6 L 37 4 Z" fill="currentColor" fill-rule="evenodd"/>
</svg>
