<svg xmlns="http://www.w3.org/2000/svg" width="867" height="160" viewBox="0 0 867 160" role="img" aria-hidden="true">
  <path d="M 0 117 L 0 121 L 5 126 L 17 132 L 27 132 L 31 131 L 37 127 L 62 128 L 60 130 L 54 131 L 50 134 L 50 140 L 52 142 L 56 142 L 61 137 L 61 135 L 65 131 L 74 127 L 99 127 L 107 129 L 105 131 L 98 134 L 91 141 L 86 150 L 87 154 L 106 154 L 115 151 L 124 143 L 128 136 L 131 133 L 136 131 L 144 131 L 160 134 L 150 140 L 143 149 L 144 154 L 148 155 L 157 155 L 166 152 L 175 144 L 177 140 L 183 137 L 209 138 L 212 140 L 204 146 L 199 154 L 200 158 L 204 159 L 212 159 L 223 155 L 230 148 L 232 143 L 239 139 L 261 138 L 287 134 L 309 132 L 324 133 L 316 140 L 310 152 L 311 156 L 324 155 L 331 152 L 335 149 L 341 142 L 344 134 L 352 130 L 380 130 L 404 133 L 416 137 L 428 143 L 431 146 L 433 146 L 438 142 L 446 138 L 466 132 L 482 130 L 512 130 L 519 133 L 522 136 L 525 144 L 530 150 L 537 154 L 546 156 L 553 156 L 555 154 L 555 152 L 551 143 L 543 136 L 543 132 L 556 132 L 579 134 L 596 137 L 628 139 L 633 141 L 637 145 L 637 147 L 644 155 L 650 158 L 655 159 L 667 158 L 669 156 L 669 154 L 665 148 L 657 141 L 658 138 L 669 137 L 682 137 L 685 138 L 689 141 L 692 146 L 697 151 L 708 155 L 719 155 L 722 154 L 724 151 L 720 145 L 714 139 L 707 136 L 707 133 L 729 131 L 734 133 L 738 137 L 743 145 L 750 151 L 758 154 L 772 155 L 778 154 L 780 152 L 780 150 L 775 142 L 763 131 L 761 128 L 766 127 L 790 127 L 794 128 L 801 132 L 804 135 L 804 138 L 808 142 L 813 142 L 815 140 L 816 136 L 813 132 L 807 131 L 805 129 L 813 127 L 827 127 L 836 132 L 847 132 L 858 127 L 863 123 L 866 119 L 864 117 L 855 113 L 851 112 L 841 112 L 835 114 L 827 121 L 823 123 L 805 122 L 793 120 L 798 119 L 804 116 L 811 109 L 817 99 L 816 96 L 800 96 L 796 97 L 789 101 L 784 107 L 781 115 L 778 118 L 769 122 L 753 124 L 742 122 L 748 116 L 750 116 L 755 111 L 754 107 L 748 106 L 746 107 L 745 112 L 735 122 L 728 126 L 721 126 L 714 128 L 703 128 L 697 130 L 693 128 L 701 123 L 707 117 L 712 108 L 713 100 L 703 100 L 692 104 L 686 110 L 683 116 L 681 125 L 675 130 L 667 133 L 659 134 L 653 133 L 640 135 L 603 133 L 595 131 L 595 128 L 599 129 L 602 128 L 605 125 L 606 122 L 603 119 L 597 120 L 593 124 L 582 129 L 566 129 L 563 128 L 561 125 L 565 121 L 573 122 L 579 117 L 580 115 L 580 110 L 579 108 L 575 105 L 568 105 L 566 106 L 563 111 L 563 116 L 559 120 L 548 126 L 543 127 L 510 124 L 516 120 L 522 114 L 526 108 L 525 105 L 510 105 L 503 108 L 496 115 L 495 118 L 487 125 L 460 128 L 435 137 L 436 131 L 445 120 L 456 118 L 465 113 L 471 107 L 478 94 L 478 91 L 479 90 L 478 87 L 470 87 L 463 89 L 456 93 L 449 101 L 446 107 L 444 115 L 436 124 L 435 102 L 441 92 L 443 84 L 443 78 L 441 70 L 435 59 L 430 59 L 423 74 L 423 88 L 424 92 L 431 104 L 430 112 L 431 119 L 428 123 L 421 115 L 421 111 L 417 102 L 410 94 L 399 88 L 387 87 L 388 96 L 394 107 L 402 115 L 411 119 L 417 119 L 419 120 L 430 132 L 431 136 L 428 138 L 424 135 L 411 130 L 394 126 L 378 125 L 371 119 L 367 112 L 363 109 L 354 105 L 340 105 L 340 109 L 342 113 L 350 121 L 355 124 L 353 126 L 334 127 L 324 126 L 319 127 L 315 126 L 307 122 L 302 118 L 302 113 L 298 107 L 296 106 L 289 106 L 287 107 L 285 111 L 285 116 L 287 120 L 290 122 L 299 122 L 304 126 L 301 129 L 290 130 L 281 129 L 272 125 L 266 120 L 259 121 L 259 125 L 262 128 L 266 128 L 269 130 L 267 132 L 250 134 L 226 135 L 197 133 L 194 132 L 186 125 L 185 117 L 181 110 L 175 104 L 164 100 L 154 100 L 156 109 L 161 118 L 168 125 L 178 129 L 174 130 L 171 129 L 159 129 L 152 127 L 141 127 L 135 125 L 127 120 L 121 114 L 121 111 L 117 106 L 111 106 L 110 111 L 114 116 L 118 117 L 125 123 L 122 125 L 96 123 L 85 116 L 81 107 L 74 100 L 65 96 L 52 95 L 48 97 L 48 99 L 52 107 L 55 111 L 62 117 L 68 120 L 73 121 L 71 123 L 42 123 L 39 122 L 33 116 L 23 112 L 13 112 Z M 645 150 L 649 149 L 652 150 L 654 147 L 657 146 L 663 153 L 661 155 L 654 155 L 650 154 Z M 225 148 L 219 153 L 214 155 L 205 154 L 206 150 L 210 146 L 216 143 L 219 144 L 215 147 L 215 150 L 217 150 L 222 147 Z M 149 150 L 150 146 L 153 143 L 156 144 L 156 148 L 167 143 L 170 144 L 162 150 L 157 151 Z M 697 145 L 701 144 L 704 146 L 708 140 L 717 148 L 713 151 L 708 151 L 700 148 Z M 744 140 L 746 138 L 753 141 L 757 145 L 765 144 L 763 142 L 765 138 L 774 148 L 771 151 L 761 150 L 759 148 L 754 148 Z M 168 139 L 166 141 L 159 144 L 155 143 L 160 139 L 164 139 L 165 138 Z M 530 139 L 536 144 L 540 144 L 534 138 L 536 136 L 540 138 L 549 148 L 548 151 L 542 151 L 535 148 Z M 333 137 L 326 142 L 326 145 L 332 141 L 336 142 L 332 146 L 326 150 L 317 152 L 315 149 L 318 144 L 323 139 L 329 136 Z M 747 135 L 748 133 L 756 133 L 761 136 L 759 138 L 754 138 Z M 122 139 L 117 144 L 111 148 L 105 150 L 99 150 L 98 151 L 92 150 L 92 147 L 97 140 L 106 134 L 109 133 L 118 134 L 112 138 L 106 139 L 101 145 L 104 145 L 119 138 Z M 181 131 L 182 129 L 185 130 Z M 839 125 L 844 124 L 848 121 L 844 121 L 841 117 L 843 116 L 849 116 L 856 118 L 859 120 L 856 123 L 846 128 Z M 6 120 L 8 118 L 16 116 L 21 116 L 23 118 L 27 118 L 29 120 L 27 122 L 24 122 L 23 120 L 17 121 L 17 123 L 19 124 L 23 124 L 28 126 L 26 128 L 18 128 L 8 123 Z M 291 110 L 295 110 L 297 112 L 297 115 L 294 118 L 292 118 L 290 116 Z M 570 109 L 573 109 L 575 111 L 575 115 L 572 118 L 570 118 L 568 116 L 568 111 Z M 519 111 L 511 119 L 507 121 L 506 119 L 511 114 L 505 115 L 505 112 L 513 109 Z M 346 111 L 347 109 L 355 110 L 360 112 L 360 115 L 356 115 L 355 119 Z M 708 105 L 708 107 L 704 114 L 698 120 L 693 123 L 692 120 L 695 118 L 701 111 L 696 112 L 690 117 L 689 113 L 695 107 L 699 105 L 703 105 L 704 104 Z M 161 104 L 172 107 L 178 114 L 175 116 L 172 113 L 167 111 L 172 117 L 175 124 L 170 121 L 163 114 L 162 110 L 160 108 Z M 809 101 L 810 104 L 802 112 L 791 117 L 790 115 L 793 112 L 796 111 L 798 105 L 792 109 L 791 106 L 795 102 L 802 100 L 807 100 Z M 55 100 L 67 101 L 70 108 L 65 107 L 67 110 L 72 113 L 72 116 L 70 116 L 62 112 L 54 102 Z M 474 93 L 469 103 L 461 111 L 456 114 L 453 112 L 464 101 L 461 100 L 452 108 L 451 105 L 452 103 L 459 96 L 468 92 Z M 394 92 L 400 93 L 404 95 L 413 103 L 415 106 L 412 108 L 405 101 L 402 100 L 403 105 L 409 113 L 405 112 L 397 104 L 393 97 Z M 433 65 L 436 68 L 439 77 L 439 85 L 437 92 L 435 94 L 434 88 L 435 80 L 432 74 L 431 77 L 431 90 L 429 92 L 427 88 L 427 74 L 429 68 Z M 828 0 L 832 5 L 835 7 L 844 10 L 859 9 L 862 8 L 864 5 L 859 0 L 853 0 L 856 3 L 853 6 L 841 5 L 836 1 L 839 0 L 844 2 L 848 0 Z M 775 0 L 780 10 L 785 15 L 792 19 L 800 21 L 816 21 L 818 19 L 813 10 L 802 0 Z M 786 6 L 800 12 L 802 10 L 798 8 L 794 4 L 789 3 L 791 1 L 797 2 L 801 4 L 811 15 L 809 17 L 804 17 L 792 14 L 787 11 Z M 727 0 L 732 11 L 740 18 L 747 21 L 762 23 L 765 20 L 759 9 L 748 0 Z M 738 7 L 748 13 L 751 12 L 744 6 L 745 3 L 749 5 L 757 13 L 758 16 L 755 18 L 746 16 L 740 13 Z M 658 0 L 661 3 L 659 6 L 660 13 L 664 17 L 669 17 L 674 13 L 675 5 L 671 1 Z M 665 5 L 669 6 L 671 9 L 668 12 L 664 9 Z M 572 0 L 574 1 L 575 2 L 578 1 Z M 561 0 L 565 5 L 572 9 L 581 11 L 588 11 L 590 8 L 587 1 L 580 0 L 583 4 L 581 6 L 574 5 L 566 0 Z M 277 11 L 292 9 L 299 5 L 304 0 L 298 0 L 290 5 L 286 6 L 281 4 L 283 1 L 286 1 L 286 3 L 293 0 L 279 0 L 276 5 Z M 206 0 L 196 0 L 193 1 L 189 6 L 189 11 L 190 13 L 195 17 L 201 16 L 205 12 L 206 7 L 204 4 L 204 2 Z M 195 5 L 199 5 L 201 7 L 201 9 L 197 13 L 194 10 Z M 138 0 L 115 0 L 104 12 L 101 18 L 102 23 L 113 22 L 125 18 L 129 15 L 134 9 Z M 130 7 L 123 14 L 119 16 L 109 18 L 107 15 L 111 10 L 116 13 L 126 7 Z M 116 5 L 118 4 L 121 5 L 119 7 Z M 49 21 L 65 21 L 70 20 L 80 15 L 87 7 L 90 0 L 63 0 L 53 9 L 49 16 Z M 82 6 L 75 13 L 68 16 L 62 16 L 61 17 L 55 16 L 56 12 L 64 4 L 70 1 L 74 1 L 75 0 L 78 1 L 76 3 L 65 8 L 64 12 Z M 2 5 L 3 8 L 10 10 L 21 10 L 31 6 L 37 0 L 30 1 L 17 0 L 18 2 L 21 2 L 25 0 L 29 1 L 26 4 L 20 6 L 12 6 L 10 5 L 9 2 L 12 0 L 6 0 Z" fill="currentColor" fill-rule="evenodd"/>
</svg>
