<svg xmlns="http://www.w3.org/2000/svg" width="154" height="303" viewBox="0 0 154 303" role="img" aria-hidden="true">
  <path d="M 36 289 L 39 292 L 105 292 L 108 289 L 107 285 L 37 285 Z M 14 230 L 12 234 L 11 290 L 12 302 L 18 302 L 18 239 L 21 234 L 86 234 L 88 236 L 88 266 L 89 268 L 93 271 L 124 271 L 126 273 L 126 302 L 133 302 L 133 267 L 132 265 L 120 252 L 94 227 L 21 227 Z M 97 240 L 119 262 L 117 264 L 97 264 L 95 262 Z M 88 84 L 80 88 L 75 93 L 72 101 L 72 114 L 76 123 L 79 127 L 109 156 L 112 157 L 130 141 L 148 122 L 152 114 L 153 109 L 152 101 L 149 94 L 143 88 L 134 84 L 122 84 L 113 89 L 110 89 L 101 84 Z M 134 90 L 138 92 L 143 97 L 146 103 L 146 111 L 141 121 L 111 149 L 109 146 L 98 137 L 81 119 L 78 111 L 79 100 L 82 95 L 89 90 L 100 90 L 104 92 L 112 99 L 118 93 L 123 90 Z M 72 3 L 63 0 L 49 0 L 42 2 L 31 9 L 24 20 L 22 25 L 22 43 L 24 49 L 29 57 L 35 63 L 40 66 L 37 69 L 28 72 L 18 79 L 9 89 L 3 100 L 0 112 L 0 136 L 2 139 L 6 141 L 79 141 L 81 139 L 81 137 L 78 134 L 19 135 L 8 134 L 6 132 L 6 114 L 9 103 L 14 93 L 19 87 L 26 81 L 37 75 L 50 72 L 62 72 L 76 76 L 80 79 L 86 79 L 88 76 L 86 74 L 73 68 L 72 66 L 85 54 L 88 49 L 91 40 L 91 28 L 86 16 L 80 9 Z M 49 7 L 62 7 L 73 12 L 81 21 L 84 30 L 84 39 L 80 49 L 73 57 L 62 63 L 55 64 L 50 63 L 46 60 L 40 58 L 32 50 L 28 40 L 28 29 L 31 20 L 38 12 Z" fill="currentColor" fill-rule="evenodd"/>
</svg>
