<svg xmlns="http://www.w3.org/2000/svg" width="129" height="181" viewBox="0 0 129 181" role="img" aria-hidden="true">
  <path d="M 17 155 L 17 159 L 19 161 L 26 164 L 28 164 L 30 162 L 29 159 L 25 158 L 20 155 Z M 44 148 L 40 150 L 36 155 L 34 159 L 34 167 L 37 174 L 40 177 L 46 180 L 53 180 L 58 178 L 63 174 L 66 168 L 67 163 L 66 159 L 61 151 L 55 148 Z M 46 154 L 53 154 L 55 155 L 60 161 L 60 166 L 59 168 L 55 172 L 51 174 L 46 173 L 41 168 L 41 160 Z M 3 141 L 3 144 L 8 152 L 11 153 L 13 151 L 13 149 L 8 141 Z M 5 120 L 0 121 L 1 135 L 3 135 L 6 131 Z M 15 101 L 10 102 L 5 108 L 7 114 L 16 104 Z M 34 93 L 32 91 L 26 92 L 22 94 L 21 98 L 24 100 L 27 98 L 30 98 L 34 95 Z M 119 74 L 117 74 L 109 82 L 110 87 L 112 87 L 119 81 L 121 78 L 121 76 Z M 46 64 L 42 67 L 38 73 L 37 77 L 38 90 L 42 97 L 54 110 L 67 122 L 71 123 L 97 98 L 101 92 L 104 84 L 102 73 L 96 66 L 89 63 L 81 63 L 74 66 L 70 70 L 64 65 L 59 63 Z M 50 70 L 59 70 L 64 73 L 67 78 L 70 80 L 78 71 L 83 69 L 86 69 L 91 71 L 97 78 L 97 83 L 95 90 L 70 116 L 53 100 L 44 88 L 43 79 L 45 74 Z M 126 54 L 123 54 L 122 62 L 124 69 L 127 66 L 128 61 L 128 56 Z M 117 35 L 117 38 L 121 46 L 124 48 L 126 46 L 126 44 L 123 36 L 120 34 Z M 109 25 L 109 28 L 114 32 L 116 30 L 116 28 L 113 25 Z M 91 17 L 91 20 L 95 23 L 102 25 L 105 21 L 103 19 L 98 17 Z M 73 0 L 67 0 L 61 2 L 56 7 L 54 11 L 54 20 L 57 26 L 61 30 L 70 33 L 77 31 L 83 25 L 86 19 L 86 12 L 82 5 L 77 1 Z M 67 6 L 72 6 L 74 7 L 80 14 L 80 17 L 78 21 L 72 26 L 67 26 L 65 25 L 61 20 L 61 11 L 63 8 Z" fill="currentColor" fill-rule="evenodd"/>
</svg>
