<svg xmlns="http://www.w3.org/2000/svg" width="269" height="187" viewBox="0 0 269 187" role="img" aria-hidden="true">
  <path d="M 264 34 L 257 39 L 254 44 L 253 48 L 254 165 L 255 168 L 259 173 L 266 177 L 268 177 L 267 167 L 268 155 L 263 160 L 264 54 L 268 57 L 268 48 L 265 44 L 268 34 Z M 19 6 L 11 14 L 3 28 L 0 39 L 0 57 L 3 70 L 8 83 L 14 93 L 14 95 L 29 118 L 49 143 L 75 166 L 93 178 L 103 183 L 115 186 L 126 186 L 139 181 L 149 172 L 159 154 L 163 150 L 169 149 L 173 147 L 178 142 L 181 135 L 182 129 L 180 127 L 177 127 L 167 132 L 164 135 L 161 143 L 159 145 L 157 125 L 155 116 L 153 112 L 153 108 L 155 105 L 156 98 L 152 89 L 146 82 L 137 75 L 134 76 L 133 84 L 133 94 L 136 103 L 142 109 L 148 111 L 151 114 L 154 125 L 155 143 L 152 159 L 149 165 L 147 167 L 142 166 L 135 172 L 126 176 L 115 176 L 108 174 L 100 169 L 94 167 L 84 160 L 78 154 L 73 151 L 52 130 L 42 118 L 26 95 L 16 76 L 10 54 L 10 44 L 12 33 L 19 20 L 25 14 L 32 10 L 38 10 L 42 13 L 59 45 L 59 51 L 49 61 L 45 63 L 41 70 L 41 77 L 46 88 L 57 104 L 67 116 L 84 133 L 91 137 L 96 137 L 100 135 L 110 126 L 116 126 L 141 148 L 147 150 L 148 142 L 122 118 L 118 116 L 109 116 L 101 121 L 95 127 L 93 127 L 80 116 L 64 97 L 56 85 L 51 75 L 51 71 L 66 58 L 70 51 L 70 44 L 53 11 L 45 2 L 40 0 L 31 0 Z M 176 131 L 177 137 L 170 145 L 167 143 L 172 138 L 170 136 L 171 133 Z M 138 81 L 140 81 L 150 91 L 153 98 L 153 101 L 151 103 L 145 92 L 142 91 L 146 104 L 143 106 L 139 102 L 136 93 Z" fill="currentColor" fill-rule="evenodd"/>
</svg>
