<svg xmlns="http://www.w3.org/2000/svg" width="191" height="218" viewBox="0 0 191 218" role="img" aria-hidden="true">
  <path d="M 27 165 L 29 167 L 92 167 L 94 166 L 96 163 L 94 161 L 27 162 Z M 27 136 L 27 140 L 29 142 L 38 141 L 95 141 L 111 142 L 113 140 L 113 138 L 111 136 Z M 27 113 L 27 116 L 29 118 L 128 117 L 130 115 L 129 112 L 52 111 Z M 186 91 L 184 91 L 175 98 L 165 103 L 154 114 L 150 123 L 148 133 L 149 154 L 146 163 L 137 179 L 128 184 L 131 180 L 135 169 L 136 159 L 135 154 L 128 142 L 127 138 L 124 137 L 119 161 L 120 170 L 124 179 L 123 187 L 120 191 L 118 197 L 114 201 L 106 206 L 104 206 L 99 210 L 91 213 L 84 214 L 84 217 L 92 216 L 105 212 L 118 205 L 124 200 L 130 197 L 134 193 L 141 190 L 160 190 L 168 187 L 175 181 L 179 176 L 180 173 L 190 162 L 176 161 L 169 162 L 157 166 L 150 172 L 144 182 L 137 185 L 146 170 L 149 167 L 154 154 L 158 150 L 164 147 L 177 133 L 180 127 L 181 120 L 183 116 L 184 101 Z M 180 167 L 174 176 L 169 181 L 164 182 L 160 186 L 157 187 L 152 185 L 170 174 L 173 170 L 167 171 L 160 176 L 157 175 L 152 178 L 152 176 L 155 173 L 157 173 L 159 170 L 167 166 L 173 166 L 174 165 Z M 131 156 L 132 166 L 130 168 L 128 157 Z M 124 155 L 127 156 L 126 167 L 124 169 Z M 179 112 L 178 121 L 174 130 L 162 142 L 160 139 L 167 124 L 171 119 L 173 114 L 176 111 Z M 174 107 L 168 115 L 162 127 L 158 131 L 156 138 L 153 141 L 152 133 L 155 122 L 159 115 L 168 106 L 170 105 Z M 27 91 L 30 93 L 116 93 L 129 92 L 131 89 L 129 87 L 27 88 Z M 27 63 L 27 66 L 29 68 L 94 68 L 96 66 L 95 62 Z M 8 0 L 2 4 L 0 9 L 0 195 L 1 199 L 3 202 L 8 206 L 91 206 L 98 203 L 100 200 L 13 200 L 10 199 L 7 195 L 6 167 L 7 10 L 10 7 L 105 7 L 107 9 L 108 31 L 107 44 L 109 50 L 113 53 L 149 53 L 152 56 L 152 81 L 154 90 L 154 104 L 157 102 L 157 89 L 159 83 L 158 59 L 159 58 L 159 47 L 146 35 L 142 29 L 136 24 L 131 17 L 119 7 L 119 5 L 114 0 Z M 115 10 L 148 45 L 146 47 L 117 47 L 113 44 Z" fill="currentColor" fill-rule="evenodd"/>
</svg>
