<svg xmlns="http://www.w3.org/2000/svg" width="307" height="231" viewBox="0 0 307 231" role="img" aria-hidden="true">
  <path d="M 194 192 L 192 193 L 191 200 L 193 202 L 197 202 L 201 197 L 199 193 Z M 193 197 L 194 195 L 196 195 L 198 197 L 195 199 Z M 168 141 L 167 139 L 163 136 L 156 136 L 137 148 L 131 153 L 125 156 L 122 159 L 119 160 L 117 158 L 109 155 L 101 155 L 84 152 L 71 145 L 63 142 L 58 141 L 45 141 L 37 143 L 0 163 L 0 166 L 2 166 L 43 145 L 58 145 L 68 148 L 77 153 L 88 157 L 109 159 L 115 161 L 117 163 L 117 168 L 110 173 L 95 173 L 73 169 L 69 170 L 71 173 L 80 175 L 96 177 L 108 177 L 116 174 L 120 170 L 121 164 L 123 162 L 141 151 L 151 143 L 158 140 L 162 140 L 164 142 L 164 145 L 161 150 L 146 166 L 126 182 L 100 198 L 94 200 L 84 200 L 47 188 L 35 188 L 15 198 L 15 203 L 35 192 L 47 192 L 76 202 L 85 204 L 94 204 L 100 202 L 110 196 L 112 196 L 115 193 L 124 188 L 143 174 L 160 157 L 166 149 L 168 145 Z M 215 92 L 212 93 L 203 110 L 203 122 L 205 129 L 205 135 L 202 147 L 200 150 L 200 153 L 198 155 L 197 149 L 200 140 L 199 127 L 197 121 L 190 108 L 186 105 L 185 107 L 185 113 L 182 127 L 183 128 L 183 132 L 185 139 L 194 153 L 194 162 L 192 169 L 186 180 L 177 190 L 174 195 L 167 202 L 166 199 L 171 193 L 178 180 L 179 169 L 177 154 L 173 155 L 171 160 L 167 165 L 164 173 L 163 181 L 164 197 L 158 207 L 151 213 L 136 220 L 124 224 L 114 226 L 81 225 L 68 222 L 64 220 L 65 222 L 77 227 L 95 230 L 114 229 L 134 224 L 142 224 L 155 221 L 162 221 L 166 225 L 169 225 L 173 221 L 173 218 L 171 216 L 165 216 L 161 220 L 147 219 L 165 207 L 180 201 L 185 200 L 187 198 L 183 198 L 180 200 L 173 199 L 177 196 L 183 189 L 189 179 L 196 172 L 201 169 L 210 168 L 220 163 L 227 156 L 235 142 L 231 141 L 230 142 L 226 142 L 219 144 L 211 148 L 204 156 L 202 161 L 200 163 L 199 160 L 205 146 L 208 134 L 218 119 L 219 107 L 217 96 Z M 168 218 L 170 220 L 168 222 L 166 220 Z M 176 170 L 176 173 L 174 175 Z M 173 161 L 176 163 L 173 166 Z M 227 150 L 223 156 L 213 164 L 208 166 L 205 164 L 219 153 Z M 228 148 L 225 148 L 219 151 L 208 159 L 207 156 L 214 150 L 218 149 L 223 146 Z M 193 119 L 197 130 L 197 136 L 195 138 L 190 122 Z M 189 119 L 189 124 L 193 141 L 191 143 L 186 134 Z M 216 105 L 217 114 L 215 120 L 211 125 L 210 121 L 212 115 L 212 110 Z M 212 104 L 212 107 L 209 112 L 209 121 L 207 123 L 206 113 L 208 105 Z M 207 72 L 202 73 L 201 75 L 201 79 L 204 82 L 206 82 L 210 74 Z M 75 55 L 68 62 L 64 71 L 64 83 L 66 90 L 72 100 L 108 134 L 110 134 L 135 112 L 149 97 L 155 85 L 156 76 L 155 75 L 154 68 L 151 62 L 146 57 L 141 54 L 134 52 L 128 52 L 121 54 L 116 57 L 112 62 L 109 64 L 103 57 L 96 53 L 85 52 Z M 80 57 L 89 56 L 99 59 L 105 65 L 109 72 L 112 69 L 113 66 L 120 59 L 124 57 L 133 56 L 142 59 L 147 64 L 151 70 L 152 81 L 150 87 L 145 96 L 125 116 L 109 130 L 99 121 L 90 111 L 86 109 L 78 101 L 70 89 L 68 83 L 68 72 L 70 66 Z M 306 43 L 301 51 L 292 70 L 288 85 L 286 98 L 286 125 L 290 144 L 296 160 L 301 170 L 306 177 L 306 170 L 298 156 L 295 148 L 290 124 L 290 95 L 291 89 L 298 65 L 306 51 Z M 197 54 L 185 36 L 174 25 L 162 16 L 147 8 L 131 3 L 114 0 L 93 1 L 81 3 L 69 7 L 51 16 L 37 27 L 25 41 L 14 60 L 9 73 L 5 93 L 6 117 L 8 127 L 11 135 L 13 138 L 9 118 L 9 91 L 13 71 L 18 59 L 30 40 L 46 24 L 53 19 L 68 11 L 88 5 L 97 4 L 115 4 L 139 9 L 155 16 L 170 26 L 186 42 L 197 60 L 199 59 Z" fill="currentColor" fill-rule="evenodd"/>
</svg>
