<svg xmlns="http://www.w3.org/2000/svg" width="256" height="148" viewBox="0 0 256 148" role="img" aria-hidden="true">
  <path d="M 246 87 L 241 88 L 239 97 L 240 107 L 242 112 L 246 117 L 246 122 L 244 126 L 240 130 L 233 133 L 226 134 L 227 138 L 238 137 L 254 132 L 255 117 L 253 119 L 252 116 L 255 109 L 255 100 L 250 91 Z M 248 95 L 251 101 L 251 105 L 247 110 L 244 105 L 244 96 Z M 69 0 L 66 1 L 62 14 L 59 33 L 58 67 L 61 94 L 63 100 L 61 102 L 58 95 L 53 75 L 40 47 L 40 44 L 36 40 L 29 28 L 24 28 L 25 42 L 29 62 L 40 89 L 53 109 L 51 111 L 44 104 L 33 91 L 33 88 L 30 88 L 15 73 L 4 64 L 0 64 L 0 69 L 6 84 L 18 101 L 32 115 L 41 122 L 64 134 L 66 136 L 66 145 L 68 147 L 71 144 L 71 135 L 73 133 L 83 129 L 102 117 L 116 104 L 126 91 L 137 69 L 136 64 L 133 64 L 116 77 L 85 111 L 84 109 L 86 105 L 92 97 L 96 89 L 100 86 L 99 83 L 102 78 L 110 56 L 113 40 L 112 27 L 108 28 L 103 35 L 97 47 L 94 50 L 89 65 L 84 75 L 78 95 L 76 97 L 75 93 L 76 92 L 76 87 L 78 82 L 79 39 L 75 15 L 71 2 Z M 93 115 L 88 120 L 87 117 Z M 28 93 L 40 106 L 39 109 L 37 107 L 32 108 L 26 102 L 25 98 Z M 88 87 L 90 90 L 83 100 L 82 97 L 85 88 Z M 124 81 L 123 86 L 120 89 L 116 96 L 106 105 L 100 112 L 98 113 L 93 112 L 93 110 L 103 98 L 121 80 Z M 12 78 L 25 90 L 21 96 L 12 84 L 10 80 Z M 34 45 L 44 65 L 47 76 L 53 90 L 55 97 L 52 100 L 46 89 L 48 87 L 46 87 L 44 85 L 41 79 L 41 76 L 38 73 L 31 49 Z M 107 44 L 107 46 L 105 48 L 104 58 L 98 75 L 94 83 L 91 86 L 89 82 L 89 76 L 91 73 L 91 70 L 94 62 L 100 51 L 102 50 L 103 45 Z M 70 15 L 72 22 L 74 43 L 74 70 L 72 79 L 72 86 L 70 88 L 67 88 L 65 86 L 63 71 L 64 60 L 63 39 L 66 18 Z" fill="currentColor" fill-rule="evenodd"/>
</svg>
