<svg xmlns="http://www.w3.org/2000/svg" width="200" height="326" viewBox="0 0 200 326" role="img" aria-hidden="true">
  <path d="M 59 325 L 87 325 L 74 324 Z M 181 38 L 177 38 L 175 40 L 175 45 L 177 48 L 175 50 L 174 57 L 176 55 L 178 49 L 183 45 L 184 42 Z M 186 56 L 182 57 L 182 59 L 179 64 L 174 70 L 169 52 L 163 40 L 152 27 L 149 21 L 135 13 L 132 10 L 130 10 L 124 6 L 115 4 L 112 2 L 102 0 L 74 0 L 68 1 L 54 6 L 31 20 L 18 34 L 11 45 L 4 60 L 3 68 L 1 71 L 0 76 L 1 80 L 0 106 L 4 123 L 7 127 L 11 138 L 14 142 L 8 162 L 4 170 L 1 181 L 2 186 L 5 186 L 42 172 L 44 172 L 57 179 L 77 184 L 96 184 L 116 179 L 128 172 L 140 172 L 142 173 L 145 177 L 150 178 L 153 174 L 153 172 L 150 169 L 145 169 L 143 171 L 136 167 L 149 162 L 160 162 L 164 166 L 169 165 L 172 160 L 170 156 L 168 155 L 163 155 L 157 160 L 154 159 L 147 161 L 144 159 L 154 148 L 157 147 L 160 144 L 180 141 L 186 137 L 195 127 L 197 123 L 187 122 L 172 128 L 162 139 L 161 136 L 166 129 L 172 117 L 178 112 L 182 112 L 190 108 L 198 99 L 198 94 L 190 95 L 180 102 L 180 105 L 174 111 L 173 108 L 177 98 L 178 92 L 188 74 L 188 65 Z M 191 126 L 189 130 L 182 136 L 176 139 L 171 138 L 173 136 L 177 135 L 180 132 L 181 127 L 187 125 Z M 194 100 L 190 104 L 184 105 L 184 103 L 188 99 L 190 98 Z M 159 89 L 162 90 L 162 93 L 164 98 L 161 101 L 158 100 Z M 183 65 L 185 68 L 184 76 L 182 78 L 178 77 L 178 72 L 181 66 Z M 137 19 L 143 26 L 145 26 L 157 39 L 157 42 L 165 54 L 170 69 L 172 84 L 171 106 L 169 113 L 166 117 L 165 114 L 166 113 L 168 102 L 167 94 L 165 92 L 164 87 L 161 81 L 157 80 L 157 85 L 155 90 L 154 99 L 156 110 L 161 118 L 161 127 L 159 133 L 157 135 L 157 137 L 146 152 L 129 167 L 118 173 L 103 178 L 88 180 L 70 178 L 57 174 L 45 167 L 41 167 L 11 179 L 7 178 L 13 158 L 19 145 L 19 141 L 15 135 L 15 131 L 10 125 L 7 116 L 4 97 L 4 84 L 7 67 L 11 56 L 19 41 L 32 26 L 45 16 L 53 13 L 57 10 L 76 5 L 101 5 L 108 6 L 129 14 Z M 49 44 L 40 54 L 38 62 L 38 77 L 41 81 L 48 97 L 53 103 L 54 107 L 74 128 L 81 131 L 84 134 L 94 140 L 109 145 L 120 144 L 127 140 L 136 131 L 138 127 L 139 120 L 136 114 L 117 104 L 110 104 L 103 112 L 99 115 L 90 110 L 76 97 L 69 87 L 68 84 L 69 81 L 73 78 L 74 75 L 77 72 L 77 66 L 69 47 L 65 42 L 55 40 Z M 52 48 L 60 46 L 65 50 L 73 69 L 72 71 L 64 78 L 63 80 L 63 86 L 70 98 L 73 100 L 82 110 L 86 112 L 93 118 L 102 120 L 113 108 L 115 108 L 123 113 L 127 114 L 134 120 L 134 124 L 132 128 L 124 136 L 119 139 L 115 140 L 110 140 L 107 138 L 103 138 L 100 136 L 97 136 L 85 129 L 80 124 L 77 123 L 71 118 L 63 109 L 49 89 L 45 81 L 43 72 L 43 61 L 47 53 Z" fill="currentColor" fill-rule="evenodd"/>
</svg>
