<svg xmlns="http://www.w3.org/2000/svg" width="133" height="155" viewBox="0 0 133 155" role="img" aria-hidden="true">
  <path d="M 62 0 L 49 8 L 47 8 L 45 10 L 33 15 L 19 19 L 3 21 L 0 25 L 0 75 L 2 88 L 6 101 L 12 113 L 18 122 L 30 134 L 45 145 L 63 154 L 67 154 L 84 146 L 100 135 L 111 124 L 121 110 L 128 93 L 132 72 L 132 27 L 131 24 L 126 20 L 118 20 L 107 18 L 84 9 L 70 0 Z M 64 7 L 68 8 L 75 13 L 89 20 L 92 20 L 95 22 L 112 27 L 120 27 L 125 30 L 124 43 L 125 58 L 124 75 L 122 87 L 118 99 L 110 113 L 95 129 L 84 137 L 75 142 L 71 143 L 69 145 L 66 145 L 65 144 L 62 145 L 59 143 L 57 143 L 50 139 L 46 135 L 44 135 L 27 121 L 14 101 L 11 93 L 7 74 L 8 28 L 22 26 L 36 22 L 57 12 Z M 103 52 L 100 49 L 96 50 L 75 76 L 68 83 L 64 89 L 59 93 L 46 81 L 40 74 L 35 75 L 35 79 L 57 102 L 61 103 L 102 55 Z" fill="currentColor" fill-rule="evenodd"/>
</svg>
