<svg xmlns="http://www.w3.org/2000/svg" width="61" height="66" viewBox="0 0 61 66" role="img" aria-hidden="true">
  <path d="M 31 0 L 27 1 L 27 9 L 23 21 L 17 27 L 11 30 L 0 32 L 0 34 L 2 36 L 9 36 L 17 39 L 24 46 L 27 54 L 27 59 L 31 64 L 32 62 L 32 54 L 35 46 L 42 39 L 50 36 L 56 36 L 60 33 L 56 31 L 48 30 L 42 27 L 36 21 L 32 10 L 32 2 Z M 31 18 L 35 26 L 39 30 L 44 33 L 34 41 L 32 46 L 29 49 L 25 41 L 21 37 L 17 35 L 15 32 L 19 30 L 25 24 L 28 18 Z" fill="currentColor" fill-rule="evenodd"/>
</svg>
