<svg xmlns="http://www.w3.org/2000/svg" width="190" height="182" viewBox="0 0 190 182" role="img" aria-hidden="true">
  <path d="M 161 131 L 157 143 L 153 147 L 139 148 L 139 152 L 150 162 L 150 165 L 147 174 L 148 180 L 151 180 L 161 173 L 165 173 L 174 179 L 178 180 L 180 178 L 179 170 L 177 165 L 178 160 L 189 151 L 188 148 L 173 147 L 170 143 L 167 133 L 165 131 Z M 177 154 L 171 159 L 172 167 L 169 169 L 164 166 L 162 166 L 156 170 L 155 167 L 157 161 L 151 156 L 151 153 L 158 152 L 161 149 L 161 147 L 164 145 L 169 152 Z M 22 132 L 18 143 L 14 147 L 0 148 L 0 152 L 11 162 L 8 179 L 10 181 L 22 173 L 26 173 L 36 180 L 39 180 L 41 178 L 41 173 L 38 162 L 44 157 L 50 150 L 48 148 L 34 147 L 32 145 L 28 133 L 26 131 Z M 25 144 L 30 152 L 38 154 L 33 158 L 32 169 L 30 169 L 26 166 L 23 166 L 17 170 L 16 167 L 18 161 L 13 153 L 19 152 L 21 150 L 23 145 Z M 92 93 L 84 115 L 80 120 L 77 121 L 63 121 L 56 123 L 52 123 L 52 128 L 73 146 L 73 149 L 71 153 L 67 171 L 67 176 L 70 178 L 86 168 L 92 163 L 96 163 L 119 178 L 123 173 L 120 164 L 120 159 L 117 150 L 117 145 L 136 129 L 139 125 L 136 122 L 111 121 L 107 118 L 104 108 L 98 94 L 96 92 Z M 95 106 L 99 112 L 104 125 L 111 127 L 118 127 L 126 129 L 110 143 L 111 152 L 113 156 L 114 164 L 112 166 L 97 156 L 93 156 L 79 165 L 75 164 L 79 148 L 79 143 L 69 135 L 65 128 L 84 126 L 89 118 L 92 108 Z M 29 0 L 32 2 L 37 1 L 38 0 L 41 0 Z" fill="currentColor" fill-rule="evenodd"/>
</svg>
