<svg xmlns="http://www.w3.org/2000/svg" width="214" height="350" viewBox="0 0 214 350" role="img" aria-hidden="true">
  <path d="M 63 335 L 62 337 L 62 342 L 65 349 L 67 349 L 67 346 L 69 342 L 68 338 L 65 335 Z M 87 303 L 84 304 L 84 306 L 80 312 L 78 320 L 78 333 L 82 343 L 80 349 L 83 349 L 84 345 L 88 341 L 88 339 L 91 335 L 93 326 L 92 316 Z M 87 256 L 87 259 L 89 261 L 91 259 L 90 256 Z M 81 246 L 83 250 L 84 246 Z M 73 237 L 75 240 L 77 238 Z M 64 228 L 66 232 L 68 230 L 66 228 Z M 54 222 L 55 225 L 57 223 Z M 41 219 L 44 217 L 41 217 Z M 39 198 L 40 201 L 55 205 L 63 209 L 66 214 L 70 217 L 74 216 L 83 223 L 90 230 L 87 232 L 87 234 L 91 238 L 94 239 L 102 247 L 108 261 L 111 271 L 113 283 L 112 302 L 111 307 L 108 311 L 107 302 L 105 297 L 106 284 L 104 279 L 96 271 L 95 268 L 91 267 L 92 282 L 96 291 L 105 301 L 106 312 L 104 324 L 101 331 L 96 337 L 93 343 L 87 349 L 92 349 L 97 343 L 109 336 L 121 335 L 132 329 L 137 324 L 141 316 L 144 313 L 142 310 L 136 311 L 131 314 L 122 315 L 114 324 L 109 332 L 103 337 L 103 333 L 104 333 L 105 329 L 110 321 L 110 319 L 122 304 L 128 301 L 135 294 L 139 287 L 141 280 L 142 264 L 141 260 L 139 260 L 126 275 L 122 283 L 121 288 L 119 290 L 119 302 L 115 307 L 114 303 L 115 295 L 117 293 L 116 271 L 117 262 L 120 258 L 123 247 L 122 235 L 115 219 L 113 217 L 111 217 L 111 223 L 108 235 L 109 248 L 115 261 L 115 266 L 113 268 L 112 262 L 108 252 L 101 239 L 94 230 L 80 216 L 73 212 L 70 209 L 62 205 L 43 198 Z M 135 323 L 130 325 L 130 323 L 133 321 Z M 133 317 L 129 321 L 127 321 L 125 323 L 122 322 L 123 319 L 128 318 L 128 317 Z M 128 281 L 129 278 L 132 280 Z M 99 276 L 102 280 L 96 284 L 94 281 L 95 278 Z M 114 240 L 115 242 L 112 244 L 110 242 L 113 240 Z M 114 236 L 110 237 L 112 234 Z M 0 198 L 0 201 L 2 199 Z M 3 203 L 3 206 L 5 208 L 8 207 L 11 203 L 15 202 L 20 207 L 27 201 L 32 207 L 35 208 L 38 204 L 34 200 L 29 200 L 27 198 L 27 195 L 24 193 L 25 188 L 23 186 L 17 187 L 17 190 L 14 194 L 14 197 L 11 200 L 7 200 Z M 23 201 L 19 202 L 21 199 Z M 17 193 L 18 191 L 21 190 L 25 194 L 23 196 L 18 197 Z M 5 52 L 1 53 L 0 69 L 5 58 Z M 176 0 L 173 0 L 171 5 L 168 6 L 166 4 L 167 1 L 170 0 L 154 0 L 155 13 L 157 19 L 161 26 L 171 37 L 173 41 L 175 56 L 175 74 L 173 87 L 171 94 L 169 96 L 168 90 L 166 88 L 164 66 L 156 52 L 146 42 L 144 42 L 139 38 L 126 33 L 124 31 L 121 31 L 124 42 L 125 52 L 127 58 L 133 69 L 146 81 L 159 86 L 164 91 L 166 96 L 166 112 L 161 128 L 157 134 L 154 122 L 148 114 L 147 111 L 141 106 L 141 101 L 136 97 L 130 97 L 127 100 L 127 107 L 130 110 L 135 111 L 138 109 L 140 109 L 146 115 L 151 123 L 154 131 L 154 143 L 150 150 L 151 153 L 154 150 L 159 141 L 166 123 L 171 114 L 184 94 L 192 86 L 198 82 L 200 82 L 202 84 L 207 84 L 212 80 L 213 76 L 211 72 L 208 70 L 202 70 L 200 71 L 198 74 L 198 78 L 190 84 L 180 94 L 173 105 L 172 101 L 175 93 L 177 80 L 188 55 L 195 44 L 198 43 L 200 44 L 207 38 L 207 34 L 204 30 L 198 29 L 194 32 L 194 42 L 187 51 L 180 68 L 178 70 L 177 67 L 178 60 L 177 48 L 175 40 L 175 33 L 179 21 L 179 10 Z M 135 100 L 138 103 L 133 107 L 131 105 L 132 100 Z M 201 77 L 201 75 L 203 73 L 207 73 L 209 76 L 207 78 Z M 143 44 L 146 47 L 147 55 L 144 57 L 141 55 L 144 59 L 142 61 L 140 61 L 136 58 L 135 54 L 140 52 L 139 48 L 142 47 L 141 45 Z M 199 32 L 202 32 L 204 35 L 201 38 L 199 38 L 197 36 L 197 34 Z M 159 4 L 161 6 L 161 8 L 158 11 Z M 165 2 L 166 8 L 164 10 L 162 6 Z" fill="currentColor" fill-rule="evenodd"/>
</svg>
