<svg xmlns="http://www.w3.org/2000/svg" width="93" height="472" viewBox="0 0 93 472" role="img" aria-hidden="true">
  <path d="M 24 0 L 20 24 L 20 43 L 23 59 L 27 70 L 33 80 L 38 86 L 41 106 L 42 144 L 40 174 L 38 176 L 36 172 L 36 148 L 33 136 L 26 122 L 15 107 L 7 99 L 2 100 L 2 114 L 4 132 L 8 145 L 16 159 L 31 173 L 36 189 L 37 203 L 35 211 L 32 240 L 32 269 L 30 271 L 27 266 L 23 262 L 24 255 L 22 251 L 16 247 L 7 248 L 4 251 L 3 259 L 5 264 L 11 268 L 16 268 L 18 266 L 21 266 L 26 272 L 33 286 L 33 296 L 35 305 L 35 314 L 39 333 L 40 346 L 42 350 L 40 352 L 37 348 L 37 341 L 34 331 L 28 319 L 14 304 L 4 297 L 0 298 L 0 304 L 4 323 L 9 333 L 19 345 L 35 355 L 39 361 L 46 377 L 48 394 L 48 416 L 44 440 L 41 449 L 33 465 L 33 469 L 35 471 L 37 471 L 41 467 L 47 455 L 51 443 L 55 423 L 55 399 L 62 379 L 72 369 L 80 357 L 85 341 L 85 318 L 84 312 L 82 310 L 78 310 L 67 326 L 59 342 L 57 353 L 57 378 L 55 380 L 53 376 L 51 357 L 45 329 L 44 315 L 41 301 L 41 282 L 45 266 L 47 263 L 48 257 L 52 248 L 58 244 L 66 236 L 71 229 L 77 217 L 81 198 L 81 181 L 79 179 L 77 179 L 65 191 L 54 207 L 51 214 L 47 230 L 47 245 L 44 253 L 41 257 L 40 236 L 47 183 L 49 160 L 49 146 L 51 143 L 52 137 L 56 129 L 57 123 L 69 113 L 77 104 L 82 96 L 88 82 L 91 69 L 92 58 L 91 50 L 87 50 L 74 62 L 64 75 L 56 92 L 54 102 L 54 119 L 50 125 L 48 123 L 48 110 L 46 102 L 46 93 L 44 85 L 48 70 L 48 61 L 49 60 L 48 45 L 40 20 L 30 1 Z M 80 321 L 80 342 L 79 346 L 76 351 L 76 353 L 74 355 L 73 359 L 68 365 L 67 361 L 72 348 L 75 334 L 73 334 L 73 337 L 66 352 L 66 355 L 63 359 L 62 352 L 67 337 L 73 327 L 73 325 L 76 321 Z M 8 306 L 20 317 L 27 327 L 25 330 L 19 324 L 16 319 L 12 316 L 13 315 L 11 314 L 21 333 L 27 341 L 25 342 L 23 341 L 12 328 L 8 318 L 6 309 Z M 8 256 L 9 252 L 11 251 L 15 251 L 18 254 L 15 257 L 12 258 Z M 76 191 L 75 206 L 71 219 L 65 229 L 58 237 L 57 233 L 61 226 L 65 213 L 68 208 L 67 205 L 64 212 L 54 228 L 53 224 L 55 217 L 61 205 L 66 198 Z M 10 116 L 12 118 L 14 123 L 16 133 L 19 138 L 20 144 L 26 157 L 24 159 L 19 154 L 11 138 L 8 125 Z M 13 113 L 16 116 L 26 132 L 31 150 L 29 152 L 24 142 L 23 137 L 18 129 L 15 121 L 11 117 L 11 115 Z M 87 60 L 85 73 L 81 87 L 72 102 L 63 112 L 62 109 L 79 75 L 73 80 L 70 87 L 67 90 L 62 101 L 60 103 L 59 100 L 63 88 L 72 72 L 84 59 Z M 30 12 L 38 29 L 40 38 L 42 41 L 44 53 L 44 63 L 41 68 L 36 43 L 33 32 L 31 29 L 32 43 L 34 50 L 34 59 L 36 64 L 36 68 L 34 70 L 30 63 L 27 54 L 25 43 L 26 16 Z" fill="currentColor" fill-rule="evenodd"/>
</svg>
