<svg xmlns="http://www.w3.org/2000/svg" width="302" height="366" viewBox="0 0 302 366" role="img" aria-hidden="true">
  <path d="M 147 348 L 146 362 L 147 365 L 154 363 L 151 363 L 149 361 Z M 135 348 L 133 349 L 128 364 L 130 363 L 131 360 L 136 360 L 140 365 L 142 363 L 139 359 Z M 133 355 L 136 357 L 134 359 L 132 357 Z M 110 348 L 110 364 L 112 363 L 114 355 L 117 360 L 123 363 L 121 348 L 121 355 L 119 357 L 115 351 L 112 348 Z M 94 348 L 93 362 L 94 365 L 98 359 L 103 365 L 104 363 L 101 359 L 101 357 L 103 355 L 104 351 L 100 348 Z M 97 350 L 100 351 L 100 353 L 96 354 Z M 75 348 L 75 362 L 78 365 L 83 365 L 87 361 L 85 348 L 85 360 L 82 363 L 80 363 L 78 361 Z M 57 348 L 54 353 L 54 360 L 57 364 L 59 365 L 64 365 L 69 360 L 70 357 L 68 350 L 65 348 Z M 60 349 L 64 350 L 67 354 L 66 360 L 61 364 L 57 360 L 58 350 Z M 46 348 L 46 360 L 43 363 L 41 363 L 42 365 L 45 365 L 48 362 L 49 359 Z M 207 267 L 202 266 L 193 268 L 191 270 L 189 270 L 183 276 L 181 280 L 175 285 L 176 287 L 179 285 L 183 286 L 194 283 L 200 278 Z M 202 270 L 202 272 L 194 280 L 191 282 L 187 282 L 188 279 L 191 278 L 194 275 L 191 275 L 187 278 L 186 276 L 189 273 L 197 269 Z M 301 187 L 301 192 L 299 198 L 299 225 L 301 238 Z M 33 171 L 32 179 L 29 182 L 24 184 L 27 269 L 45 265 L 72 265 L 80 267 L 86 272 L 93 273 L 97 271 L 101 267 L 110 265 L 137 265 L 152 269 L 157 268 L 158 242 L 157 208 L 158 188 L 156 183 L 152 182 L 150 180 L 149 173 L 147 171 L 134 168 L 117 169 L 101 175 L 90 184 L 81 176 L 71 171 L 64 169 L 47 168 Z M 27 187 L 31 186 L 32 189 L 31 212 L 32 216 L 31 220 L 32 243 L 31 251 L 30 252 L 31 259 L 45 255 L 63 255 L 74 257 L 80 259 L 89 264 L 93 264 L 102 259 L 116 255 L 135 255 L 144 258 L 149 257 L 150 255 L 152 185 L 154 187 L 155 202 L 154 217 L 155 263 L 152 266 L 148 264 L 137 262 L 108 263 L 104 262 L 99 264 L 92 270 L 87 269 L 82 264 L 71 262 L 46 262 L 32 265 L 27 264 Z M 37 173 L 41 172 L 62 172 L 78 178 L 89 188 L 89 257 L 86 259 L 81 256 L 65 252 L 45 252 L 39 254 L 35 253 L 35 184 Z M 47 226 L 48 228 L 65 228 L 76 232 L 76 229 L 66 226 L 59 226 L 58 225 Z M 48 209 L 48 211 L 51 212 L 59 211 L 70 213 L 76 216 L 79 215 L 77 213 L 63 209 Z M 48 193 L 49 195 L 66 196 L 77 200 L 78 198 L 64 193 Z M 145 174 L 147 176 L 146 193 L 147 200 L 146 204 L 146 244 L 147 245 L 147 252 L 145 254 L 141 254 L 135 252 L 115 252 L 93 258 L 93 187 L 94 185 L 106 176 L 118 172 L 132 171 Z M 134 226 L 121 225 L 111 227 L 103 230 L 104 232 L 111 229 L 116 228 L 132 228 Z M 133 209 L 113 210 L 104 213 L 104 216 L 114 212 Z M 104 200 L 115 196 L 133 193 L 117 193 L 112 194 L 104 197 Z M 38 124 L 23 140 L 15 152 L 5 176 L 0 200 L 0 224 L 4 249 L 9 264 L 16 278 L 26 292 L 38 304 L 53 314 L 70 321 L 85 324 L 104 324 L 121 320 L 133 315 L 145 308 L 151 303 L 157 304 L 168 303 L 171 304 L 176 310 L 178 310 L 182 306 L 182 303 L 179 300 L 175 300 L 173 302 L 156 301 L 156 299 L 162 293 L 170 290 L 171 287 L 167 286 L 175 275 L 184 258 L 194 249 L 203 247 L 213 242 L 223 231 L 229 218 L 222 218 L 215 220 L 212 222 L 209 222 L 199 232 L 195 239 L 194 243 L 191 247 L 188 247 L 188 245 L 190 242 L 191 235 L 197 220 L 198 215 L 201 210 L 206 205 L 216 200 L 222 194 L 227 184 L 229 172 L 227 172 L 225 174 L 221 175 L 212 183 L 210 186 L 210 191 L 212 189 L 213 185 L 217 181 L 222 178 L 226 179 L 221 191 L 210 199 L 210 197 L 208 198 L 207 196 L 205 197 L 204 204 L 201 207 L 200 199 L 201 188 L 209 167 L 209 157 L 206 145 L 202 139 L 199 137 L 193 153 L 193 170 L 196 180 L 199 185 L 198 200 L 191 230 L 188 234 L 187 219 L 189 212 L 189 201 L 183 186 L 173 175 L 171 175 L 170 191 L 171 192 L 172 203 L 177 214 L 185 224 L 185 241 L 182 254 L 169 279 L 162 288 L 146 303 L 146 298 L 148 296 L 150 296 L 153 294 L 148 293 L 148 290 L 151 287 L 151 282 L 148 280 L 145 280 L 143 282 L 143 287 L 146 290 L 146 295 L 140 305 L 134 311 L 116 318 L 101 321 L 81 320 L 72 318 L 51 309 L 41 302 L 27 288 L 17 273 L 9 254 L 4 232 L 3 205 L 5 189 L 8 177 L 12 169 L 12 166 L 21 149 L 29 138 L 48 121 L 59 115 L 72 110 L 86 107 L 112 107 L 135 113 L 150 121 L 157 126 L 174 144 L 178 145 L 178 143 L 159 123 L 152 118 L 134 109 L 116 104 L 90 103 L 70 107 L 51 115 Z M 147 282 L 149 284 L 149 286 L 147 288 L 145 286 Z M 224 223 L 220 231 L 212 240 L 203 245 L 199 243 L 210 233 L 215 230 L 218 226 L 216 226 L 200 240 L 199 236 L 207 227 L 219 221 Z M 175 181 L 180 186 L 186 197 L 186 204 L 184 206 L 182 203 L 179 192 L 177 190 L 177 193 L 181 203 L 183 212 L 181 214 L 178 211 L 174 203 L 173 198 Z M 201 143 L 204 147 L 207 159 L 205 173 L 203 175 L 202 158 L 200 154 L 199 161 L 200 174 L 198 176 L 196 173 L 195 168 L 195 155 L 196 150 L 198 148 L 198 145 Z M 228 0 L 226 0 L 226 4 L 228 3 Z M 213 0 L 214 2 L 216 4 L 217 0 Z M 207 0 L 205 1 L 205 4 L 207 3 Z M 191 0 L 192 5 L 199 3 L 196 3 L 194 0 Z M 185 0 L 183 0 L 184 5 Z M 175 0 L 177 3 L 179 0 Z M 162 0 L 160 0 L 160 4 L 162 3 Z M 141 1 L 141 5 L 143 3 L 144 0 L 149 0 L 151 2 L 152 5 L 154 3 L 153 1 Z M 128 0 L 129 5 L 136 3 L 132 3 L 130 0 Z M 117 0 L 119 2 L 119 3 L 121 5 L 123 3 L 122 0 Z M 114 0 L 112 0 L 112 4 L 114 3 Z M 103 0 L 101 0 L 101 4 L 103 3 Z M 82 0 L 79 1 L 78 4 L 78 7 L 80 6 Z M 58 0 L 58 5 L 66 3 L 62 3 L 60 0 Z M 47 0 L 49 4 L 51 2 L 51 1 Z M 44 0 L 42 0 L 41 2 L 42 5 L 44 3 Z M 23 4 L 26 2 L 26 1 L 32 0 L 34 2 L 35 5 L 37 3 L 36 1 L 24 0 L 24 2 Z M 7 0 L 13 5 L 17 4 L 19 1 L 16 3 L 13 3 L 10 0 Z" fill="currentColor" fill-rule="evenodd"/>
</svg>
