<svg xmlns="http://www.w3.org/2000/svg" width="115" height="486" viewBox="0 0 115 486" role="img" aria-hidden="true">
  <path d="M 42 0 L 41 11 L 38 25 L 39 51 L 42 60 L 47 70 L 56 82 L 65 91 L 66 98 L 65 136 L 60 156 L 57 164 L 54 167 L 52 160 L 52 152 L 54 145 L 54 129 L 51 118 L 46 107 L 28 87 L 24 87 L 22 101 L 22 117 L 24 129 L 29 140 L 33 146 L 47 159 L 49 171 L 48 188 L 43 204 L 40 209 L 38 222 L 36 224 L 34 222 L 30 211 L 26 206 L 26 204 L 28 202 L 28 195 L 23 189 L 19 187 L 12 187 L 10 188 L 6 192 L 4 197 L 4 200 L 7 207 L 9 209 L 13 211 L 23 210 L 28 217 L 31 225 L 35 242 L 34 260 L 37 291 L 40 300 L 40 304 L 46 318 L 44 320 L 41 317 L 40 310 L 36 301 L 32 295 L 22 285 L 14 279 L 5 275 L 0 276 L 0 279 L 1 280 L 3 292 L 10 306 L 23 318 L 33 322 L 37 322 L 52 336 L 60 352 L 66 368 L 71 389 L 71 393 L 69 395 L 65 389 L 65 383 L 62 375 L 53 362 L 41 353 L 29 347 L 25 348 L 27 361 L 34 376 L 37 380 L 46 388 L 53 392 L 61 394 L 66 400 L 71 413 L 71 428 L 68 441 L 64 449 L 63 455 L 60 459 L 59 453 L 60 441 L 55 426 L 45 413 L 38 407 L 28 400 L 24 401 L 25 422 L 30 437 L 35 445 L 42 452 L 54 460 L 55 463 L 55 471 L 51 478 L 51 483 L 54 485 L 60 478 L 73 450 L 77 436 L 79 421 L 85 409 L 93 405 L 105 393 L 110 385 L 114 370 L 114 358 L 112 356 L 108 357 L 91 370 L 91 373 L 85 383 L 83 389 L 82 405 L 80 407 L 79 393 L 76 375 L 70 358 L 70 341 L 72 333 L 75 330 L 82 329 L 86 325 L 88 319 L 86 313 L 82 310 L 73 310 L 69 313 L 68 315 L 68 323 L 70 326 L 70 328 L 68 331 L 66 341 L 64 343 L 56 326 L 50 310 L 47 298 L 47 285 L 51 273 L 66 263 L 72 257 L 79 247 L 85 230 L 87 211 L 85 209 L 83 209 L 75 214 L 66 221 L 56 232 L 51 241 L 47 256 L 47 271 L 44 275 L 42 271 L 42 248 L 44 230 L 47 221 L 47 215 L 51 200 L 61 181 L 67 173 L 81 160 L 86 159 L 91 162 L 96 162 L 100 160 L 105 154 L 106 148 L 101 141 L 97 139 L 88 140 L 84 144 L 83 153 L 79 157 L 71 162 L 64 170 L 63 166 L 70 147 L 73 129 L 79 119 L 79 117 L 89 110 L 100 98 L 104 89 L 107 77 L 106 68 L 101 68 L 95 72 L 85 82 L 79 93 L 76 104 L 76 109 L 74 111 L 73 99 L 71 92 L 71 87 L 74 81 L 76 70 L 76 48 L 74 39 L 67 24 L 55 10 L 54 7 L 46 0 Z M 30 409 L 32 409 L 45 420 L 53 433 L 54 440 L 52 442 L 49 437 L 48 433 L 41 427 L 49 443 L 51 449 L 49 451 L 41 444 L 35 436 L 30 420 L 29 413 Z M 107 364 L 109 366 L 109 370 L 106 381 L 103 388 L 95 397 L 92 395 L 92 393 L 95 386 L 101 379 L 101 377 L 98 377 L 95 385 L 89 392 L 88 388 L 92 379 L 100 369 Z M 34 357 L 39 358 L 45 362 L 56 374 L 57 376 L 55 378 L 38 362 L 43 370 L 54 382 L 52 385 L 48 383 L 37 371 L 34 365 L 33 360 Z M 74 317 L 75 314 L 81 316 L 77 320 Z M 9 283 L 17 287 L 24 293 L 29 299 L 32 304 L 30 307 L 20 297 L 18 297 L 30 311 L 29 314 L 23 312 L 13 301 L 7 287 Z M 80 227 L 78 237 L 73 248 L 57 263 L 56 260 L 58 256 L 61 254 L 64 246 L 71 235 L 75 231 L 76 228 Z M 77 222 L 74 225 L 71 232 L 64 239 L 64 241 L 59 246 L 53 256 L 52 253 L 55 244 L 59 237 L 70 224 L 74 221 Z M 13 192 L 19 192 L 22 195 L 16 203 L 13 203 L 10 198 L 11 193 Z M 91 144 L 97 144 L 101 148 L 101 150 L 99 152 L 94 153 L 90 148 Z M 30 97 L 41 109 L 48 123 L 50 136 L 50 141 L 48 143 L 41 123 L 38 119 L 35 111 L 33 110 L 35 115 L 35 118 L 41 131 L 44 145 L 42 147 L 33 137 L 28 123 L 27 109 Z M 101 77 L 101 82 L 97 94 L 85 107 L 84 104 L 92 92 L 91 89 L 83 101 L 82 98 L 88 86 L 97 77 Z M 48 9 L 57 19 L 68 38 L 69 45 L 71 49 L 71 68 L 70 73 L 68 75 L 66 72 L 65 63 L 62 56 L 62 51 L 59 41 L 54 31 L 54 27 L 52 25 L 50 20 L 51 29 L 54 38 L 54 44 L 56 48 L 56 53 L 60 62 L 62 74 L 63 75 L 63 77 L 61 79 L 51 67 L 47 58 L 44 47 L 43 30 L 45 15 Z" fill="currentColor" fill-rule="evenodd"/>
</svg>
