<svg xmlns="http://www.w3.org/2000/svg" width="134" height="226" viewBox="0 0 134 226" role="img" aria-hidden="true">
  <path d="M 109 0 L 103 1 L 98 6 L 88 13 L 75 26 L 63 45 L 59 56 L 57 68 L 58 86 L 57 94 L 53 111 L 51 115 L 51 122 L 49 124 L 40 97 L 32 83 L 33 74 L 32 71 L 27 67 L 20 67 L 16 70 L 15 78 L 17 82 L 21 85 L 28 85 L 30 87 L 39 105 L 45 124 L 47 139 L 49 143 L 50 160 L 53 175 L 51 177 L 47 172 L 42 155 L 35 143 L 31 139 L 23 133 L 12 127 L 4 124 L 0 124 L 0 129 L 5 146 L 12 158 L 22 168 L 34 173 L 43 175 L 48 179 L 54 188 L 57 194 L 63 212 L 69 224 L 71 225 L 73 223 L 73 220 L 71 217 L 71 203 L 74 194 L 80 184 L 89 184 L 91 183 L 95 177 L 94 171 L 89 167 L 82 168 L 78 173 L 79 180 L 71 192 L 69 201 L 66 204 L 62 193 L 62 177 L 67 158 L 72 151 L 79 147 L 82 147 L 87 145 L 100 137 L 107 131 L 115 121 L 121 111 L 126 99 L 129 87 L 132 81 L 132 76 L 128 76 L 116 81 L 99 90 L 86 101 L 75 117 L 70 129 L 67 149 L 61 163 L 60 171 L 58 173 L 56 169 L 54 151 L 54 129 L 59 100 L 64 89 L 69 84 L 80 76 L 90 66 L 96 57 L 102 44 L 106 31 L 110 3 Z M 30 159 L 26 163 L 23 161 L 25 159 Z M 35 152 L 38 155 L 37 158 L 35 158 L 33 156 Z M 9 134 L 17 145 L 16 150 L 17 157 L 14 154 L 8 142 L 7 138 Z M 11 134 L 14 133 L 17 134 L 22 138 L 19 142 L 17 141 Z M 81 117 L 83 119 L 83 124 L 81 126 L 79 126 L 77 124 L 77 122 L 79 118 Z M 107 107 L 107 110 L 108 110 L 109 112 L 107 114 L 104 112 L 103 118 L 100 121 L 95 120 L 95 117 L 103 108 Z M 114 99 L 115 97 L 118 97 L 120 100 L 117 102 Z M 104 95 L 104 97 L 106 100 L 103 103 L 97 105 L 95 99 L 101 94 Z M 73 64 L 77 64 L 78 66 L 77 68 L 74 69 Z M 90 57 L 83 61 L 82 59 L 83 56 L 85 55 L 88 55 Z M 78 55 L 79 53 L 82 54 Z M 90 35 L 92 42 L 96 46 L 94 51 L 86 50 L 83 47 L 83 45 L 88 36 Z M 80 27 L 83 28 L 83 38 L 77 46 L 72 40 L 72 38 L 76 31 Z M 100 9 L 104 10 L 103 15 L 101 17 L 97 12 Z" fill="currentColor" fill-rule="evenodd"/>
</svg>
