<svg xmlns="http://www.w3.org/2000/svg" width="1017" height="160" viewBox="0 0 1017 160" role="img" aria-hidden="true">
  <path d="M 576 159 L 589 159 L 587 157 L 584 157 L 583 156 L 578 157 Z M 428 159 L 441 159 L 435 156 L 430 157 Z M 1006 159 L 1016 159 L 1014 156 L 1011 155 L 1007 156 Z M 0 159 L 11 159 L 10 157 L 7 155 L 1 156 Z M 558 150 L 545 151 L 537 155 L 533 159 L 539 159 L 544 156 L 548 155 L 553 156 L 553 159 L 557 159 L 559 154 Z M 459 150 L 460 159 L 465 159 L 465 155 L 472 156 L 477 159 L 484 159 L 480 155 L 468 150 Z M 689 159 L 732 159 L 752 156 L 790 154 L 839 155 L 861 157 L 865 159 L 918 159 L 910 159 L 903 157 L 854 151 L 821 149 L 763 150 L 707 156 L 695 158 L 694 159 Z M 98 159 L 149 159 L 153 157 L 192 154 L 249 155 L 274 157 L 283 159 L 327 159 L 322 159 L 321 158 L 315 158 L 308 156 L 285 153 L 231 149 L 187 149 L 171 150 L 160 152 L 140 153 L 126 156 L 119 156 L 105 158 L 104 159 Z M 509 145 L 507 149 L 507 159 L 511 159 L 511 154 Z M 979 147 L 976 144 L 969 144 L 966 147 L 966 150 L 962 154 L 952 158 L 943 159 L 962 159 L 967 156 L 972 157 L 979 151 Z M 971 148 L 974 150 L 972 152 L 970 150 Z M 39 147 L 40 153 L 44 156 L 51 156 L 56 159 L 75 159 L 67 158 L 56 154 L 53 151 L 52 147 L 47 143 L 43 143 L 41 144 Z M 506 132 L 499 146 L 498 152 L 499 159 L 502 159 L 503 146 L 505 141 L 509 138 L 511 140 L 515 149 L 515 159 L 519 159 L 519 150 L 517 143 L 512 134 L 509 131 Z M 25 1 L 25 7 L 29 16 L 40 28 L 50 32 L 63 32 L 68 35 L 72 36 L 73 38 L 67 42 L 60 50 L 59 54 L 61 56 L 66 57 L 79 56 L 84 53 L 92 44 L 98 42 L 125 45 L 116 55 L 113 61 L 114 65 L 126 64 L 136 60 L 142 54 L 147 45 L 157 40 L 174 36 L 192 34 L 222 35 L 224 37 L 222 39 L 219 39 L 213 42 L 207 47 L 201 58 L 202 63 L 211 63 L 216 62 L 222 59 L 231 50 L 234 43 L 236 41 L 241 39 L 250 39 L 263 42 L 274 43 L 299 43 L 316 41 L 322 39 L 328 39 L 334 37 L 337 39 L 329 47 L 325 48 L 324 51 L 325 57 L 327 59 L 332 59 L 334 58 L 337 53 L 339 52 L 342 54 L 347 53 L 351 49 L 350 41 L 355 36 L 360 34 L 390 34 L 396 35 L 400 37 L 390 43 L 384 49 L 380 55 L 381 59 L 390 61 L 401 60 L 407 58 L 412 55 L 423 43 L 426 42 L 453 42 L 460 43 L 453 51 L 454 56 L 461 56 L 469 52 L 476 43 L 485 40 L 495 41 L 501 43 L 509 48 L 517 43 L 529 40 L 557 40 L 564 41 L 568 43 L 576 53 L 582 56 L 591 56 L 593 54 L 593 52 L 588 46 L 589 43 L 599 43 L 611 41 L 618 43 L 623 49 L 632 57 L 639 60 L 650 61 L 651 60 L 657 60 L 662 57 L 657 49 L 652 44 L 641 38 L 641 35 L 662 34 L 670 37 L 675 42 L 674 48 L 677 53 L 679 54 L 682 54 L 685 52 L 688 53 L 689 56 L 692 59 L 697 59 L 701 55 L 701 50 L 698 47 L 695 47 L 691 43 L 691 39 L 718 43 L 749 43 L 768 39 L 778 39 L 783 41 L 786 44 L 791 54 L 800 61 L 806 63 L 817 63 L 819 61 L 819 59 L 813 48 L 805 41 L 796 36 L 798 35 L 820 34 L 841 36 L 861 41 L 868 45 L 871 48 L 876 57 L 881 61 L 888 64 L 901 65 L 903 63 L 903 61 L 899 54 L 891 47 L 891 44 L 904 44 L 915 42 L 922 42 L 926 43 L 934 52 L 941 56 L 953 57 L 960 55 L 962 53 L 959 48 L 948 38 L 949 34 L 953 32 L 966 32 L 970 31 L 979 26 L 988 16 L 993 4 L 992 1 L 978 1 L 971 3 L 966 6 L 959 13 L 955 20 L 954 25 L 951 28 L 945 31 L 924 37 L 921 35 L 931 26 L 934 19 L 934 16 L 932 14 L 928 14 L 922 16 L 919 18 L 915 23 L 913 30 L 907 36 L 902 39 L 878 39 L 874 38 L 872 36 L 873 33 L 879 33 L 883 30 L 885 25 L 883 21 L 874 20 L 872 22 L 871 27 L 866 32 L 861 34 L 853 34 L 840 31 L 834 31 L 832 28 L 837 25 L 848 12 L 847 9 L 845 8 L 834 6 L 823 7 L 816 10 L 808 16 L 804 23 L 801 26 L 789 32 L 788 25 L 790 23 L 790 19 L 788 16 L 782 15 L 780 16 L 777 20 L 772 21 L 771 23 L 772 30 L 768 34 L 762 36 L 755 36 L 748 38 L 731 38 L 731 36 L 740 26 L 739 21 L 735 21 L 726 24 L 716 35 L 713 36 L 701 36 L 691 33 L 690 31 L 694 27 L 694 22 L 693 19 L 691 18 L 685 18 L 683 20 L 683 23 L 678 28 L 668 30 L 660 27 L 671 17 L 677 5 L 676 1 L 663 1 L 652 5 L 644 12 L 638 25 L 631 31 L 627 33 L 598 38 L 581 38 L 580 34 L 586 31 L 594 23 L 596 15 L 593 14 L 583 14 L 575 17 L 567 24 L 565 28 L 561 32 L 554 35 L 526 35 L 521 36 L 518 38 L 513 38 L 513 28 L 516 24 L 516 19 L 513 15 L 511 14 L 506 14 L 504 15 L 501 19 L 501 24 L 503 28 L 508 32 L 508 38 L 506 40 L 499 37 L 484 35 L 476 31 L 472 25 L 466 19 L 461 16 L 454 14 L 442 15 L 442 18 L 445 24 L 450 30 L 459 35 L 464 36 L 462 38 L 435 38 L 416 34 L 409 30 L 405 26 L 403 20 L 397 11 L 390 5 L 379 1 L 365 1 L 365 5 L 370 17 L 379 26 L 376 29 L 351 29 L 344 24 L 344 22 L 342 19 L 340 18 L 334 18 L 332 20 L 332 26 L 336 31 L 334 33 L 329 33 L 316 36 L 305 36 L 302 35 L 299 32 L 298 29 L 293 24 L 285 21 L 278 22 L 278 24 L 283 33 L 288 36 L 286 38 L 272 38 L 251 34 L 248 31 L 248 28 L 250 25 L 249 22 L 247 20 L 244 20 L 241 16 L 238 14 L 233 14 L 231 16 L 230 21 L 232 24 L 232 28 L 228 31 L 222 28 L 216 22 L 214 18 L 205 10 L 193 6 L 183 6 L 173 8 L 173 12 L 176 17 L 184 25 L 189 28 L 187 30 L 167 33 L 159 33 L 152 30 L 150 28 L 149 22 L 145 19 L 139 19 L 137 20 L 136 22 L 136 28 L 138 31 L 142 33 L 148 32 L 152 35 L 150 37 L 139 39 L 114 39 L 110 37 L 105 32 L 100 21 L 92 15 L 88 14 L 82 15 L 82 19 L 87 29 L 90 32 L 96 35 L 93 37 L 84 35 L 67 29 L 63 25 L 61 18 L 59 15 L 49 5 L 39 1 L 32 0 Z M 883 56 L 886 55 L 889 57 L 890 55 L 886 51 L 889 50 L 894 54 L 897 59 L 895 61 L 885 58 Z M 693 50 L 695 50 L 697 53 L 694 55 L 692 53 Z M 136 54 L 129 59 L 119 60 L 120 56 L 126 50 L 130 48 L 133 49 L 131 51 L 126 53 L 126 57 L 133 53 Z M 581 47 L 583 47 L 587 51 L 585 53 L 581 51 Z M 463 47 L 465 49 L 461 52 L 458 50 L 461 47 Z M 228 48 L 222 54 L 212 59 L 207 58 L 207 55 L 211 49 L 214 50 L 216 53 L 225 47 Z M 956 51 L 954 53 L 945 53 L 941 52 L 938 49 L 944 49 L 948 45 L 950 45 Z M 793 49 L 795 48 L 799 51 L 805 51 L 801 47 L 803 45 L 810 51 L 813 57 L 811 59 L 804 58 L 798 55 Z M 679 45 L 681 45 L 683 48 L 680 51 L 678 49 Z M 343 45 L 345 45 L 347 48 L 344 51 L 342 49 Z M 939 44 L 940 42 L 944 43 L 942 45 Z M 84 48 L 76 53 L 66 52 L 66 49 L 71 44 L 76 42 L 82 43 L 80 45 L 74 47 L 74 49 L 80 47 Z M 629 43 L 630 41 L 636 41 L 643 43 L 651 49 L 651 52 L 653 52 L 655 54 L 653 56 L 641 56 L 631 51 L 630 47 L 635 48 L 641 51 L 643 48 L 637 45 L 633 45 Z M 411 42 L 409 44 L 401 46 L 397 49 L 398 51 L 400 51 L 410 47 L 413 48 L 408 53 L 401 56 L 388 56 L 386 53 L 393 46 L 398 43 L 405 41 Z M 285 26 L 290 27 L 290 30 L 287 31 L 284 28 Z M 141 26 L 142 24 L 145 25 Z M 686 24 L 687 22 L 689 22 L 691 24 L 688 26 Z M 336 21 L 338 21 L 340 23 L 337 26 L 335 24 Z M 924 20 L 929 22 L 925 26 L 923 25 L 922 22 Z M 591 20 L 584 28 L 578 30 L 575 29 L 583 24 L 576 21 L 578 21 L 581 19 Z M 450 19 L 457 19 L 462 21 L 464 23 L 461 25 L 457 24 L 459 27 L 463 29 L 461 31 L 453 27 L 449 22 Z M 90 20 L 93 22 L 92 24 L 90 26 L 87 22 Z M 507 18 L 509 18 L 512 21 L 512 23 L 508 26 L 505 23 L 505 20 Z M 842 13 L 835 21 L 828 26 L 821 28 L 814 27 L 815 24 L 827 20 L 829 17 L 820 18 L 814 21 L 814 16 L 817 14 L 825 11 L 838 11 Z M 181 11 L 196 11 L 203 14 L 205 16 L 204 19 L 201 19 L 198 17 L 192 17 L 192 19 L 208 26 L 206 28 L 201 28 L 188 23 L 180 15 Z M 987 6 L 986 11 L 982 17 L 976 23 L 971 26 L 962 29 L 961 27 L 964 24 L 969 22 L 977 13 L 974 13 L 965 17 L 965 13 L 968 10 L 977 6 L 982 5 Z M 672 7 L 668 14 L 660 22 L 652 26 L 648 24 L 657 18 L 661 13 L 645 18 L 652 10 L 665 5 Z M 372 5 L 384 7 L 392 12 L 397 18 L 394 20 L 384 13 L 381 13 L 381 15 L 394 24 L 392 26 L 390 26 L 380 21 L 373 13 L 371 9 Z M 31 5 L 40 6 L 42 8 L 45 8 L 50 11 L 55 17 L 52 19 L 43 13 L 39 13 L 46 20 L 41 23 L 34 16 L 30 8 Z" fill="currentColor" fill-rule="evenodd"/>
</svg>
