<svg xmlns="http://www.w3.org/2000/svg" width="166" height="167" viewBox="0 0 166 167" role="img" aria-hidden="true">
  <path d="M 72 61 L 63 64 L 55 71 L 51 79 L 50 93 L 52 100 L 55 105 L 61 111 L 69 115 L 80 116 L 92 111 L 99 104 L 104 93 L 104 84 L 102 82 L 97 83 L 98 89 L 95 98 L 84 108 L 81 109 L 72 109 L 68 106 L 66 106 L 59 99 L 57 94 L 56 85 L 58 79 L 66 70 L 72 68 L 82 69 L 86 64 L 82 61 Z M 71 36 L 61 38 L 50 43 L 44 47 L 35 56 L 27 72 L 25 81 L 25 95 L 28 107 L 32 115 L 37 122 L 46 131 L 62 139 L 72 141 L 81 141 L 91 139 L 102 134 L 109 129 L 118 120 L 123 113 L 127 104 L 129 94 L 129 81 L 124 66 L 118 66 L 118 70 L 120 73 L 122 81 L 122 95 L 116 111 L 111 118 L 98 129 L 84 134 L 69 134 L 62 132 L 52 127 L 46 122 L 39 114 L 33 101 L 32 96 L 32 79 L 34 72 L 38 64 L 50 51 L 59 46 L 70 43 L 83 43 L 94 46 L 99 49 L 101 49 L 104 46 L 103 43 L 92 38 L 82 36 Z M 68 11 L 50 15 L 41 19 L 31 25 L 16 39 L 9 50 L 2 67 L 0 77 L 0 98 L 5 117 L 11 129 L 20 141 L 27 148 L 40 157 L 57 164 L 69 166 L 85 166 L 99 163 L 115 156 L 126 148 L 136 138 L 144 127 L 148 119 L 152 107 L 154 95 L 154 79 L 152 68 L 145 52 L 139 52 L 139 56 L 143 63 L 147 77 L 147 98 L 143 113 L 134 129 L 120 144 L 113 149 L 101 155 L 85 159 L 68 159 L 50 154 L 36 146 L 34 143 L 31 142 L 19 129 L 11 114 L 7 98 L 7 78 L 10 65 L 17 50 L 22 43 L 32 33 L 39 28 L 54 21 L 70 18 L 82 18 L 95 20 L 112 27 L 116 23 L 113 20 L 105 16 L 86 11 Z M 146 0 L 142 0 L 126 16 L 125 18 L 126 34 L 74 85 L 74 90 L 76 92 L 78 92 L 127 43 L 130 41 L 145 41 L 165 22 L 164 18 L 151 17 L 149 15 L 148 2 Z M 140 11 L 143 12 L 144 20 L 146 22 L 154 24 L 143 35 L 134 35 L 131 30 L 131 20 Z" fill="currentColor" fill-rule="evenodd"/>
</svg>
