<svg xmlns="http://www.w3.org/2000/svg" width="296" height="229" viewBox="0 0 296 229" role="img" aria-hidden="true">
  <path d="M 295 110 L 295 97 L 294 104 L 295 105 Z M 80 44 L 80 52 L 81 54 L 85 56 L 86 65 L 85 81 L 85 137 L 86 157 L 85 175 L 87 183 L 89 186 L 94 190 L 99 192 L 104 192 L 111 189 L 119 180 L 119 165 L 123 157 L 124 161 L 131 173 L 140 182 L 146 186 L 157 191 L 167 193 L 176 193 L 187 191 L 199 186 L 206 181 L 213 174 L 220 164 L 224 155 L 226 145 L 226 130 L 223 118 L 216 105 L 204 93 L 191 86 L 179 83 L 159 84 L 150 87 L 140 93 L 128 106 L 123 117 L 121 119 L 119 103 L 119 65 L 121 55 L 125 52 L 124 43 Z M 164 86 L 181 86 L 199 93 L 213 106 L 217 112 L 222 124 L 224 139 L 223 147 L 219 160 L 216 165 L 208 175 L 201 181 L 188 188 L 182 190 L 165 190 L 152 186 L 141 179 L 131 168 L 128 163 L 124 153 L 122 144 L 123 125 L 130 108 L 140 97 L 149 91 Z M 170 89 L 155 92 L 140 101 L 135 107 L 129 117 L 125 134 L 125 142 L 127 153 L 133 165 L 141 175 L 148 180 L 159 185 L 175 187 L 176 186 L 182 186 L 193 182 L 201 177 L 210 168 L 215 161 L 219 150 L 220 131 L 215 114 L 210 107 L 204 101 L 194 94 L 181 90 Z M 218 144 L 214 158 L 210 165 L 195 179 L 189 182 L 177 185 L 170 185 L 156 182 L 143 174 L 135 165 L 128 148 L 129 142 L 147 142 L 151 137 L 151 135 L 155 134 L 155 137 L 162 159 L 165 157 L 174 127 L 177 123 L 180 127 L 182 135 L 189 152 L 191 150 L 195 140 L 199 139 L 201 142 L 216 141 Z M 128 127 L 134 112 L 146 99 L 162 92 L 182 92 L 189 94 L 197 98 L 209 109 L 215 119 L 218 129 L 218 136 L 215 139 L 203 139 L 201 137 L 199 132 L 196 132 L 191 143 L 189 145 L 178 115 L 175 116 L 174 122 L 172 125 L 172 128 L 169 134 L 165 149 L 163 151 L 155 127 L 152 126 L 149 135 L 145 139 L 128 138 Z M 89 55 L 114 55 L 116 57 L 116 177 L 114 181 L 107 188 L 104 189 L 95 187 L 90 181 L 88 173 L 89 129 L 89 62 L 88 61 Z M 94 93 L 94 175 L 96 174 L 96 173 L 105 170 L 101 170 L 97 168 L 96 164 L 97 154 L 104 152 L 98 152 L 96 150 L 97 136 L 103 136 L 105 134 L 98 133 L 96 131 L 97 117 L 106 115 L 98 115 L 96 113 Z M 83 50 L 84 46 L 120 46 L 122 49 L 119 52 L 85 52 Z M 117 0 L 105 2 L 93 6 L 73 16 L 63 24 L 53 34 L 47 42 L 42 52 L 37 59 L 36 44 L 35 43 L 35 40 L 33 40 L 23 61 L 23 87 L 21 95 L 19 97 L 16 86 L 12 78 L 8 73 L 3 69 L 4 85 L 6 93 L 11 101 L 16 106 L 19 114 L 20 130 L 23 144 L 21 146 L 18 141 L 0 124 L 0 130 L 2 141 L 8 156 L 16 164 L 32 173 L 40 181 L 47 191 L 57 200 L 59 206 L 51 198 L 41 193 L 33 191 L 21 190 L 29 199 L 35 204 L 41 207 L 51 210 L 63 209 L 70 211 L 82 218 L 97 224 L 120 228 L 131 228 L 148 226 L 169 219 L 182 211 L 191 203 L 175 214 L 163 220 L 150 224 L 136 226 L 120 226 L 106 224 L 90 219 L 73 210 L 65 203 L 62 202 L 53 193 L 48 181 L 48 171 L 52 161 L 53 146 L 49 128 L 47 128 L 39 148 L 39 161 L 40 166 L 45 175 L 47 183 L 45 185 L 38 176 L 28 156 L 24 143 L 22 130 L 23 118 L 25 114 L 32 109 L 38 103 L 44 90 L 45 80 L 28 94 L 25 101 L 24 107 L 22 109 L 21 104 L 22 103 L 24 88 L 26 83 L 32 75 L 38 64 L 38 61 L 42 53 L 49 42 L 59 30 L 72 19 L 92 8 L 104 4 L 114 2 L 142 2 L 148 3 L 154 6 L 158 6 L 162 8 L 164 7 L 176 15 L 179 15 L 167 8 L 154 3 L 137 0 Z M 28 195 L 29 193 L 34 193 L 42 195 L 50 199 L 50 202 L 44 200 L 45 202 L 49 203 L 54 206 L 52 208 L 49 208 L 40 205 L 35 202 Z M 27 159 L 29 161 L 29 163 L 27 165 L 26 162 Z M 49 135 L 51 143 L 51 159 L 49 164 L 47 166 L 45 151 L 45 156 L 42 161 L 40 157 L 41 147 L 45 136 Z M 5 132 L 12 137 L 20 147 L 22 152 L 21 155 L 19 155 L 14 148 L 12 147 L 14 152 L 19 157 L 20 160 L 23 163 L 21 165 L 9 154 L 7 150 L 3 136 Z M 43 87 L 39 98 L 29 109 L 26 104 L 29 96 L 40 86 Z M 8 77 L 14 85 L 15 88 L 14 91 L 12 91 L 13 96 L 11 98 L 8 93 L 6 86 L 6 80 Z M 34 48 L 35 51 L 34 67 L 29 75 L 28 71 L 30 67 L 29 63 L 27 72 L 25 74 L 24 64 L 26 57 L 30 49 Z" fill="currentColor" fill-rule="evenodd"/>
</svg>
