<svg xmlns="http://www.w3.org/2000/svg" viewBox="0 0 64 64" fill="none" stroke="currentColor" stroke-width="1.12" stroke-linecap="round" stroke-linejoin="round">
  <title>Facial Botox</title>
  <path d="M22 23 C26 16 38 16 42 23 C47 31 45 45 32 50 C19 45 17 31 22 23Z"/><path d="M26 29 C29 28 31 28 33 30"/><path d="M35 30 C37 28 40 28 42 29"/><path d="M28 38 C31 40 35 40 38 38"/><path d="M29 23 H34"/><path d="M36 23 H39"/><g transform="translate(47 48) rotate(-28) scale(0.42)">
  <path d="M0 0 C4 -5 10 -5 14 0 C10 5 4 5 0 0Z"/>
  <path d="M1 0 C5 .2 9 .1 13 0"/>
</g><g transform="translate(16 17) scale(0.3)">
  <path d="M0 -5 V5"/>
  <path d="M-5 0 H5"/>
  <path d="M-3 -3 L3 3"/>
  <path d="M3 -3 L-3 3"/>
</g>
</svg>
