<svg xmlns="http://www.w3.org/2000/svg" viewBox="0 0 64 64" fill="none" stroke="currentColor" stroke-width="1.12" stroke-linecap="round" stroke-linejoin="round">
  <title>Facial Cleansing</title>
  <path d="M22 23 C25 15 39 15 43 24 C47 34 42 46 32 50 C22 46 17 34 22 23Z"/><circle cx="44" cy="19" r="3"/><circle cx="49" cy="28" r="2"/><circle cx="20" cy="43" r="2.5"/><path d="M25 38 C29 41 35 41 39 38"/><g transform="translate(35 31) rotate(-25) scale(0.32)">
  <path d="M0 0 C4 -5 10 -5 14 0 C10 5 4 5 0 0Z"/>
  <path d="M1 0 C5 .2 9 .1 13 0"/>
</g>
</svg>
