<svg xmlns="http://www.w3.org/2000/svg" width="72" height="63" viewBox="0 0 72 63" role="img" aria-hidden="true">
  <path d="M 45 44 L 42 45 L 42 47 L 37 52 L 35 52 L 36 55 L 39 55 L 44 62 L 46 60 L 46 58 L 53 53 L 49 52 L 46 49 Z M 42 54 L 43 52 L 46 53 Z M 22 10 L 20 10 L 19 12 L 19 19 L 17 24 L 11 30 L 7 32 L 0 33 L 1 36 L 9 37 L 16 42 L 19 49 L 19 55 L 21 59 L 23 57 L 24 47 L 27 41 L 31 38 L 39 36 L 41 33 L 35 32 L 27 27 L 24 21 L 24 16 Z M 19 26 L 23 26 L 25 30 L 29 34 L 24 39 L 21 44 L 13 33 Z M 56 0 L 54 9 L 51 12 L 44 16 L 46 18 L 51 19 L 55 23 L 59 30 L 61 21 L 63 19 L 69 18 L 71 16 L 64 13 L 61 10 L 60 3 L 59 1 Z M 56 12 L 58 12 L 61 16 L 57 19 L 54 16 L 54 14 Z" fill="currentColor" fill-rule="evenodd"/>
</svg>
