<svg xmlns="http://www.w3.org/2000/svg" width="216" height="176" viewBox="0 0 216 176" role="img" aria-hidden="true">
  <path d="M 198 57 L 192 56 L 186 61 L 186 69 L 190 75 L 187 87 L 179 99 L 168 110 L 155 119 L 105 165 L 105 169 L 127 168 L 131 173 L 134 174 L 139 174 L 144 170 L 146 164 L 144 160 L 140 157 L 132 158 L 127 164 L 116 163 L 116 161 L 122 155 L 124 155 L 127 151 L 131 148 L 134 148 L 135 147 L 157 148 L 161 153 L 164 154 L 168 154 L 174 149 L 175 143 L 170 137 L 164 136 L 160 138 L 156 143 L 139 142 L 139 140 L 149 130 L 152 128 L 154 128 L 163 118 L 171 115 L 196 115 L 200 120 L 205 122 L 208 121 L 214 115 L 215 112 L 213 107 L 208 103 L 199 106 L 195 110 L 179 111 L 176 110 L 176 108 L 187 96 L 192 86 L 194 80 L 194 76 L 201 70 L 202 62 Z M 134 162 L 138 162 L 141 166 L 136 170 L 133 166 Z M 167 142 L 169 144 L 169 146 L 165 149 L 163 147 L 164 142 Z M 205 109 L 208 109 L 210 111 L 210 113 L 207 116 L 204 113 Z M 190 67 L 191 63 L 195 62 L 198 66 L 193 70 Z M 38 1 L 28 5 L 20 10 L 12 18 L 8 24 L 3 35 L 0 49 L 0 61 L 2 72 L 8 87 L 20 104 L 26 109 L 46 130 L 69 151 L 79 159 L 89 169 L 92 169 L 132 131 L 134 131 L 136 129 L 136 127 L 148 115 L 156 109 L 156 107 L 170 91 L 176 81 L 181 63 L 181 42 L 178 32 L 172 21 L 156 6 L 139 0 L 124 0 L 113 3 L 100 11 L 91 21 L 81 11 L 73 5 L 67 2 L 59 0 L 43 0 Z M 147 9 L 151 11 L 155 15 L 157 15 L 164 21 L 166 25 L 170 29 L 174 38 L 176 48 L 176 60 L 172 76 L 164 90 L 157 99 L 138 118 L 112 141 L 103 151 L 90 162 L 80 151 L 77 150 L 75 146 L 73 146 L 67 139 L 64 138 L 50 123 L 39 113 L 37 113 L 35 111 L 35 109 L 28 101 L 19 93 L 16 88 L 15 84 L 11 80 L 7 67 L 6 54 L 8 38 L 14 25 L 26 13 L 34 9 L 44 6 L 55 6 L 70 10 L 75 13 L 87 26 L 88 29 L 91 31 L 96 26 L 97 23 L 107 13 L 114 9 L 125 6 L 135 6 Z M 26 83 L 27 88 L 63 89 L 67 85 L 68 78 L 72 66 L 76 63 L 84 97 L 85 107 L 87 110 L 87 114 L 89 119 L 91 119 L 94 116 L 97 102 L 100 97 L 103 85 L 107 84 L 109 87 L 134 87 L 142 93 L 147 93 L 149 92 L 154 85 L 153 79 L 151 77 L 146 75 L 143 75 L 139 77 L 135 82 L 118 82 L 113 81 L 106 70 L 102 71 L 101 75 L 99 77 L 99 83 L 95 93 L 94 100 L 91 104 L 89 101 L 89 96 L 86 88 L 83 66 L 81 58 L 79 55 L 79 50 L 77 48 L 72 49 L 71 57 L 64 74 L 64 77 L 60 82 L 55 83 Z M 143 81 L 147 81 L 149 83 L 149 85 L 145 89 L 142 86 Z" fill="currentColor" fill-rule="evenodd"/>
</svg>
