<svg xmlns="http://www.w3.org/2000/svg" width="122" height="255" viewBox="0 0 122 255" role="img" aria-hidden="true">
  <path d="M 43 217 L 40 217 L 38 219 L 29 233 L 25 245 L 25 254 L 30 254 L 30 243 L 35 231 L 38 227 L 40 226 L 42 228 L 45 240 L 44 251 L 42 254 L 48 254 L 48 251 L 49 250 L 49 239 L 45 227 Z M 50 0 L 43 0 L 38 3 L 36 1 L 31 0 L 21 3 L 18 5 L 13 11 L 9 12 L 6 15 L 4 21 L 1 24 L 0 27 L 0 37 L 1 39 L 5 43 L 9 45 L 18 46 L 31 52 L 42 64 L 46 74 L 48 87 L 48 99 L 46 110 L 43 120 L 39 128 L 31 139 L 32 143 L 36 142 L 43 131 L 46 124 L 52 117 L 53 114 L 58 109 L 61 104 L 70 95 L 78 92 L 93 92 L 105 97 L 111 97 L 115 95 L 119 91 L 121 87 L 121 75 L 119 73 L 119 67 L 116 61 L 113 58 L 110 57 L 102 47 L 97 44 L 89 44 L 87 42 L 73 42 L 67 47 L 65 52 L 65 58 L 70 73 L 70 79 L 68 88 L 59 100 L 52 104 L 53 91 L 52 79 L 50 72 L 50 57 L 54 45 L 58 39 L 71 26 L 73 21 L 73 18 L 71 13 L 58 2 Z M 73 48 L 83 46 L 89 50 L 95 49 L 99 51 L 103 55 L 103 57 L 100 60 L 101 63 L 110 62 L 114 66 L 114 75 L 116 77 L 117 82 L 115 88 L 112 91 L 107 92 L 93 87 L 87 86 L 79 87 L 74 85 L 74 82 L 75 81 L 74 69 L 70 58 L 70 51 Z M 27 6 L 35 6 L 37 8 L 37 11 L 39 13 L 42 10 L 43 6 L 45 5 L 54 6 L 56 7 L 61 13 L 64 13 L 68 18 L 68 22 L 51 40 L 48 46 L 46 55 L 43 57 L 30 45 L 16 40 L 10 40 L 8 39 L 5 35 L 5 28 L 8 26 L 10 18 L 14 15 L 18 16 L 20 14 L 21 10 Z" fill="currentColor" fill-rule="evenodd"/>
</svg>
