<svg xmlns="http://www.w3.org/2000/svg" width="198" height="291" viewBox="0 0 198 291" role="img" aria-hidden="true">
  <path d="M 76 290 L 100 290 L 89 284 L 87 284 Z M 157 152 L 154 160 L 151 163 L 147 164 L 147 167 L 149 169 L 151 169 L 156 174 L 156 178 L 157 180 L 159 181 L 162 177 L 163 172 L 166 169 L 169 168 L 170 164 L 166 163 L 164 161 L 162 157 L 162 154 L 160 152 Z M 158 162 L 160 162 L 163 166 L 159 170 L 155 165 Z M 181 108 L 178 109 L 176 118 L 170 124 L 164 126 L 165 130 L 170 131 L 175 135 L 177 138 L 178 146 L 180 148 L 183 145 L 184 138 L 186 134 L 190 131 L 195 130 L 196 126 L 190 124 L 186 120 L 184 116 L 183 110 Z M 181 121 L 183 124 L 187 127 L 180 135 L 175 130 L 174 127 Z M 75 0 L 65 2 L 50 7 L 32 19 L 24 27 L 17 37 L 9 56 L 7 65 L 6 83 L 1 90 L 0 100 L 3 115 L 6 120 L 14 129 L 17 141 L 23 153 L 30 163 L 39 172 L 48 179 L 60 185 L 71 189 L 79 189 L 85 186 L 87 189 L 89 190 L 102 186 L 119 176 L 137 158 L 144 148 L 151 134 L 157 117 L 161 94 L 161 63 L 153 39 L 147 30 L 130 14 L 120 8 L 107 3 L 93 0 L 87 0 L 83 5 L 80 0 Z M 89 7 L 103 9 L 112 12 L 120 16 L 136 28 L 142 35 L 150 49 L 153 58 L 155 77 L 154 96 L 151 112 L 146 128 L 141 139 L 132 153 L 119 167 L 107 176 L 93 182 L 89 181 L 88 179 Z M 137 83 L 135 81 L 133 81 L 125 86 L 119 87 L 113 87 L 104 82 L 99 82 L 99 85 L 106 91 L 112 93 L 123 93 L 129 91 L 137 85 Z M 74 7 L 77 7 L 79 9 L 79 131 L 76 134 L 70 135 L 70 138 L 77 140 L 79 142 L 79 180 L 76 183 L 69 180 L 63 179 L 53 174 L 50 170 L 46 169 L 39 161 L 35 158 L 29 150 L 25 142 L 20 128 L 20 123 L 17 119 L 15 119 L 10 113 L 8 109 L 7 103 L 7 94 L 9 90 L 11 90 L 13 88 L 13 72 L 15 59 L 19 48 L 29 32 L 43 19 L 62 10 L 69 8 L 73 8 Z M 41 144 L 38 145 L 38 148 L 40 150 L 43 146 Z M 49 144 L 49 148 L 51 150 L 53 150 L 56 147 L 55 143 Z M 40 126 L 36 127 L 35 131 L 39 134 L 43 131 L 43 129 Z M 55 121 L 53 123 L 53 126 L 57 129 L 61 124 L 58 121 Z M 30 91 L 31 96 L 41 101 L 52 101 L 59 98 L 64 94 L 63 91 L 59 91 L 52 95 L 45 96 L 40 93 L 37 93 L 35 91 Z M 27 68 L 27 71 L 30 73 L 35 69 L 43 67 L 54 68 L 61 72 L 63 72 L 65 70 L 65 68 L 60 64 L 50 61 L 37 62 L 32 64 Z" fill="currentColor" fill-rule="evenodd"/>
</svg>
