<svg xmlns="http://www.w3.org/2000/svg" width="109" height="146" viewBox="0 0 109 146" role="img" aria-hidden="true">
  <path d="M 5 2 L 1 6 L 0 9 L 0 133 L 2 140 L 6 144 L 9 145 L 99 145 L 101 144 L 107 138 L 108 134 L 108 42 L 106 38 L 69 1 L 28 0 L 7 1 Z M 72 13 L 95 36 L 93 38 L 72 38 L 70 36 Z M 9 7 L 63 7 L 65 9 L 64 33 L 65 40 L 69 44 L 99 44 L 101 46 L 102 52 L 101 62 L 102 128 L 101 135 L 97 139 L 10 139 L 7 136 L 6 133 L 7 16 L 6 15 L 6 12 Z M 26 66 L 27 73 L 23 80 L 18 93 L 18 97 L 24 102 L 37 102 L 44 96 L 42 89 L 39 84 L 36 72 L 50 71 L 52 73 L 52 113 L 49 116 L 37 116 L 38 122 L 70 122 L 73 118 L 71 116 L 59 116 L 57 114 L 58 71 L 65 71 L 73 73 L 73 76 L 65 93 L 65 96 L 68 100 L 72 102 L 84 102 L 91 97 L 91 93 L 82 73 L 82 70 L 83 69 L 82 66 L 59 66 L 57 64 L 56 56 L 52 56 L 52 63 L 49 66 Z M 80 81 L 80 83 L 85 93 L 83 95 L 72 94 L 72 91 L 76 82 Z M 31 79 L 33 81 L 37 90 L 37 92 L 35 94 L 25 93 L 25 89 L 28 84 L 29 80 Z" fill="currentColor" fill-rule="evenodd"/>
</svg>
