<svg xmlns="http://www.w3.org/2000/svg" width="193" height="193" viewBox="0 0 193 193" role="img" aria-hidden="true">
  <path d="M 81 126 L 76 130 L 75 132 L 75 137 L 80 143 L 85 143 L 88 142 L 91 139 L 92 133 L 89 128 L 84 126 Z M 188 68 L 185 66 L 182 73 L 174 80 L 162 93 L 158 101 L 156 110 L 156 127 L 155 130 L 152 134 L 152 137 L 148 145 L 134 162 L 124 171 L 123 167 L 125 163 L 135 154 L 140 147 L 141 142 L 140 124 L 136 116 L 136 113 L 135 111 L 133 110 L 131 117 L 122 131 L 120 136 L 121 164 L 116 170 L 115 173 L 108 180 L 92 187 L 80 189 L 73 189 L 74 192 L 85 192 L 103 187 L 118 179 L 122 178 L 131 170 L 142 163 L 145 162 L 165 162 L 173 159 L 181 152 L 185 147 L 191 136 L 183 138 L 174 138 L 167 140 L 159 144 L 152 151 L 151 154 L 147 158 L 145 159 L 144 156 L 155 141 L 155 139 L 159 133 L 167 125 L 174 121 L 184 110 L 189 99 L 190 91 L 188 78 Z M 183 143 L 180 148 L 173 155 L 163 159 L 159 156 L 169 152 L 176 147 L 168 147 L 164 151 L 160 150 L 161 147 L 164 145 L 178 141 Z M 136 140 L 136 142 L 135 145 L 133 147 L 132 142 L 133 140 Z M 137 128 L 137 134 L 135 136 Z M 132 128 L 129 133 L 127 147 L 125 149 L 124 139 L 126 136 L 126 133 L 128 129 Z M 184 83 L 186 85 L 184 101 L 178 111 L 168 120 L 167 117 L 170 111 L 173 108 Z M 183 78 L 184 80 L 177 87 L 176 93 L 173 98 L 168 102 L 167 108 L 162 114 L 161 105 L 167 92 L 171 88 L 173 88 L 180 80 Z M 89 32 L 79 32 L 67 36 L 58 44 L 55 52 L 55 62 L 59 67 L 62 67 L 66 64 L 66 62 L 64 60 L 64 51 L 72 41 L 77 39 L 90 39 L 97 42 L 103 48 L 105 52 L 106 59 L 104 66 L 101 70 L 101 72 L 98 76 L 85 88 L 80 96 L 78 104 L 78 110 L 79 113 L 82 116 L 84 116 L 88 113 L 89 110 L 89 101 L 91 99 L 92 94 L 110 77 L 115 65 L 115 55 L 114 51 L 110 44 L 100 35 Z M 142 18 L 140 18 L 127 9 L 118 5 L 114 5 L 110 3 L 94 0 L 78 0 L 70 1 L 55 5 L 53 7 L 41 12 L 29 20 L 24 25 L 9 46 L 2 65 L 0 75 L 0 92 L 2 107 L 5 117 L 13 132 L 13 136 L 10 143 L 7 158 L 4 165 L 4 169 L 6 171 L 12 172 L 16 170 L 25 169 L 38 165 L 46 165 L 48 167 L 64 173 L 80 176 L 94 176 L 100 174 L 108 169 L 77 169 L 70 168 L 58 162 L 52 161 L 47 158 L 31 160 L 24 163 L 13 165 L 12 157 L 15 148 L 17 146 L 17 141 L 19 137 L 20 131 L 16 125 L 15 120 L 10 110 L 7 97 L 7 79 L 9 66 L 14 51 L 26 33 L 31 28 L 40 21 L 42 21 L 46 17 L 65 9 L 72 9 L 78 7 L 96 7 L 106 9 L 115 13 L 119 13 L 123 16 L 125 16 L 132 20 L 140 26 L 152 38 L 157 46 L 157 48 L 160 52 L 163 59 L 163 63 L 165 66 L 167 78 L 169 77 L 170 75 L 169 59 L 167 53 L 157 34 Z" fill="currentColor" fill-rule="evenodd"/>
</svg>
