<svg xmlns="http://www.w3.org/2000/svg" width="228" height="105" viewBox="0 0 228 105" role="img" aria-hidden="true">
  <path d="M 221 100 L 220 104 L 227 104 L 225 99 Z M 146 18 L 147 20 L 158 19 L 169 24 L 178 23 L 182 21 L 183 18 L 176 13 L 164 13 L 159 14 L 154 17 Z M 165 18 L 166 16 L 174 16 L 176 17 L 177 19 L 175 21 L 171 21 L 167 20 Z M 155 6 L 149 5 L 144 7 L 140 10 L 133 18 L 111 22 L 113 24 L 137 23 L 143 28 L 149 31 L 152 31 L 154 28 L 148 23 L 140 21 L 138 18 L 142 14 L 148 14 Z M 0 17 L 0 20 L 2 22 L 7 24 L 12 24 L 23 19 L 28 19 L 34 22 L 31 25 L 29 24 L 28 28 L 29 31 L 36 30 L 47 22 L 69 24 L 70 20 L 57 20 L 49 18 L 42 10 L 33 5 L 29 5 L 29 8 L 34 14 L 40 14 L 44 19 L 41 21 L 36 17 L 31 16 L 26 17 L 24 15 L 18 13 L 6 13 Z M 7 17 L 11 16 L 19 17 L 17 19 L 12 21 L 10 21 Z M 89 0 L 89 3 L 86 8 L 82 12 L 74 16 L 75 19 L 81 21 L 87 27 L 91 35 L 93 33 L 94 29 L 98 23 L 108 17 L 106 15 L 102 14 L 96 8 L 94 2 L 92 0 Z M 90 9 L 93 10 L 96 14 L 100 17 L 97 19 L 91 26 L 84 18 L 84 15 Z" fill="currentColor" fill-rule="evenodd"/>
</svg>
