<svg xmlns="http://www.w3.org/2000/svg" width="175" height="174" viewBox="0 0 175 174" role="img" aria-hidden="true">
  <path d="M 84 0 L 78 4 L 68 23 L 67 27 L 64 31 L 62 37 L 56 48 L 53 51 L 34 56 L 13 59 L 7 61 L 1 66 L 0 68 L 0 75 L 2 80 L 35 115 L 28 159 L 29 166 L 33 171 L 38 173 L 44 172 L 84 152 L 89 152 L 118 166 L 122 169 L 132 173 L 135 173 L 140 171 L 145 164 L 145 154 L 143 148 L 141 127 L 139 120 L 139 114 L 171 80 L 174 71 L 171 64 L 167 61 L 143 57 L 124 52 L 120 52 L 118 50 L 96 5 L 90 0 Z M 62 120 L 68 115 L 76 112 L 96 112 L 106 116 L 113 123 L 116 129 L 117 133 L 117 156 L 115 158 L 107 153 L 90 145 L 83 145 L 56 157 L 56 135 L 57 129 Z M 81 63 L 92 63 L 98 66 L 103 72 L 105 81 L 102 89 L 95 96 L 90 98 L 82 98 L 75 94 L 70 87 L 69 82 L 70 74 L 72 70 L 77 65 Z M 83 8 L 88 7 L 92 11 L 94 17 L 103 33 L 109 47 L 113 54 L 116 57 L 122 59 L 164 67 L 168 72 L 167 75 L 133 111 L 132 117 L 135 129 L 139 158 L 139 163 L 136 166 L 132 166 L 127 164 L 124 161 L 123 158 L 124 136 L 121 124 L 117 118 L 112 113 L 96 102 L 100 100 L 107 93 L 109 89 L 111 82 L 111 78 L 109 71 L 107 67 L 99 59 L 95 57 L 89 56 L 79 57 L 73 60 L 67 66 L 64 71 L 63 75 L 63 84 L 65 91 L 67 94 L 76 102 L 83 104 L 81 106 L 71 107 L 61 112 L 58 115 L 52 124 L 50 132 L 50 157 L 49 161 L 42 166 L 38 166 L 35 163 L 37 142 L 41 122 L 41 112 L 9 78 L 7 75 L 7 69 L 9 67 L 22 65 L 31 62 L 57 57 L 61 53 L 62 49 L 76 24 Z" fill="currentColor" fill-rule="evenodd"/>
</svg>
