<svg xmlns="http://www.w3.org/2000/svg" width="127" height="226" viewBox="0 0 127 226" role="img" aria-hidden="true">
  <path d="M 15 65 L 10 70 L 8 74 L 8 214 L 9 217 L 15 223 L 19 225 L 113 225 L 118 223 L 124 217 L 126 212 L 126 101 L 118 92 L 89 64 L 18 64 Z M 93 77 L 113 98 L 111 100 L 109 100 L 106 98 L 104 100 L 93 100 L 91 98 Z M 18 72 L 23 71 L 83 71 L 85 73 L 85 104 L 89 107 L 116 107 L 118 109 L 119 134 L 118 171 L 119 206 L 118 212 L 113 217 L 109 218 L 86 217 L 31 218 L 20 217 L 16 214 L 15 212 L 15 76 Z M 33 192 L 33 196 L 35 198 L 60 198 L 63 195 L 63 193 L 61 191 L 35 191 Z M 76 173 L 76 196 L 78 198 L 98 198 L 101 195 L 101 176 L 100 174 Z M 82 179 L 93 179 L 95 181 L 95 187 L 94 189 L 89 192 L 83 192 L 81 190 Z M 33 171 L 34 176 L 38 177 L 42 176 L 50 177 L 61 176 L 63 174 L 63 172 L 61 170 Z M 33 149 L 34 154 L 36 155 L 68 154 L 78 155 L 79 154 L 97 155 L 101 151 L 100 149 L 64 147 Z M 33 126 L 34 132 L 48 133 L 98 132 L 101 129 L 100 127 Z M 66 68 L 67 66 L 74 67 L 72 69 Z M 16 68 L 18 66 L 23 67 L 21 69 Z M 16 0 L 10 0 L 0 10 L 0 13 L 2 13 Z" fill="currentColor" fill-rule="evenodd"/>
</svg>
