<svg xmlns="http://www.w3.org/2000/svg" width="292" height="209" viewBox="0 0 292 209" role="img" aria-hidden="true">
  <path d="M 0 44 L 0 54 L 3 58 L 6 65 L 12 88 L 12 112 L 7 134 L 9 133 L 14 117 L 16 104 L 16 86 L 14 81 L 14 76 L 12 67 L 4 50 Z M 164 42 L 164 52 L 162 54 L 148 54 L 140 61 L 138 66 L 138 147 L 141 154 L 148 159 L 219 159 L 220 155 L 210 154 L 177 155 L 148 154 L 146 153 L 143 149 L 144 88 L 153 87 L 240 88 L 242 90 L 244 120 L 246 118 L 247 107 L 247 94 L 246 93 L 247 68 L 242 58 L 235 54 L 223 54 L 221 52 L 221 46 L 219 42 L 215 43 L 215 52 L 213 54 L 171 54 L 169 52 L 168 42 Z M 143 65 L 147 60 L 150 59 L 162 59 L 164 61 L 164 69 L 166 71 L 169 68 L 170 59 L 213 59 L 215 61 L 215 69 L 218 71 L 221 68 L 222 59 L 233 59 L 238 61 L 242 67 L 242 80 L 237 83 L 212 82 L 152 82 L 145 83 L 143 81 Z M 196 0 L 187 0 L 173 2 L 156 6 L 140 14 L 126 24 L 110 41 L 108 46 L 99 60 L 94 76 L 91 96 L 91 111 L 94 133 L 96 136 L 96 139 L 101 151 L 104 155 L 104 157 L 116 174 L 128 186 L 144 197 L 162 205 L 177 208 L 192 208 L 202 206 L 218 199 L 227 193 L 235 186 L 246 180 L 262 180 L 271 177 L 279 172 L 291 159 L 291 157 L 289 155 L 273 156 L 269 158 L 262 159 L 255 165 L 250 171 L 249 168 L 253 161 L 256 158 L 260 150 L 263 147 L 272 142 L 280 133 L 285 123 L 288 110 L 287 98 L 283 98 L 265 115 L 265 117 L 260 123 L 258 133 L 258 148 L 253 155 L 251 162 L 238 179 L 237 176 L 245 165 L 248 155 L 248 147 L 246 136 L 243 128 L 241 128 L 234 138 L 230 151 L 230 159 L 234 171 L 234 178 L 232 182 L 221 192 L 214 197 L 197 203 L 175 203 L 158 198 L 146 193 L 138 186 L 132 183 L 123 174 L 110 158 L 110 156 L 101 139 L 96 118 L 96 87 L 99 74 L 102 65 L 109 51 L 118 39 L 134 24 L 149 15 L 156 12 L 169 8 L 181 6 L 201 6 L 214 8 L 226 12 L 244 21 L 252 27 L 265 40 L 266 43 L 269 46 L 279 65 L 282 76 L 283 88 L 285 87 L 284 67 L 282 65 L 282 62 L 275 45 L 255 23 L 249 18 L 247 18 L 232 8 L 220 4 Z M 248 174 L 245 177 L 245 173 Z M 276 169 L 268 175 L 265 176 L 261 175 L 261 172 L 272 167 L 274 167 Z M 285 161 L 278 165 L 278 163 L 274 163 L 265 166 L 260 166 L 262 164 L 274 159 Z M 237 156 L 237 163 L 235 165 Z M 241 137 L 244 142 L 244 157 L 243 161 L 240 165 L 239 161 L 241 155 L 239 145 L 238 151 L 234 152 L 234 149 L 237 140 Z M 284 106 L 284 114 L 280 126 L 276 132 L 268 139 L 267 136 L 278 118 L 280 112 L 278 112 L 274 117 L 273 121 L 266 129 L 264 136 L 262 138 L 261 133 L 262 129 L 267 119 L 281 105 Z" fill="currentColor" fill-rule="evenodd"/>
</svg>
