<svg xmlns="http://www.w3.org/2000/svg" width="296" height="207" viewBox="0 0 296 207" role="img" aria-hidden="true">
  <path d="M 140 61 L 137 61 L 79 132 L 75 126 L 72 124 L 64 115 L 54 101 L 49 101 L 49 105 L 64 122 L 68 129 L 76 138 L 79 139 L 86 132 L 97 117 L 127 82 L 134 72 L 141 65 Z M 295 46 L 287 61 L 281 81 L 279 95 L 279 111 L 281 125 L 287 145 L 295 160 L 295 150 L 289 138 L 284 117 L 284 88 L 289 68 L 295 56 Z M 35 24 L 25 34 L 21 41 L 17 45 L 9 60 L 2 83 L 0 99 L 1 120 L 5 138 L 9 148 L 13 154 L 13 156 L 24 172 L 39 187 L 48 193 L 59 199 L 78 205 L 87 205 L 88 206 L 104 205 L 114 202 L 132 194 L 139 194 L 146 197 L 155 198 L 161 197 L 172 193 L 174 191 L 166 186 L 158 184 L 152 184 L 151 185 L 145 184 L 145 182 L 150 177 L 161 171 L 179 171 L 183 170 L 195 163 L 205 153 L 198 150 L 183 151 L 177 153 L 168 161 L 167 158 L 173 150 L 176 148 L 181 137 L 189 132 L 196 125 L 203 112 L 205 104 L 205 86 L 204 85 L 204 82 L 201 82 L 189 95 L 186 100 L 180 114 L 179 135 L 176 139 L 175 143 L 172 146 L 172 149 L 164 158 L 162 162 L 157 167 L 156 164 L 165 151 L 168 136 L 166 125 L 162 115 L 158 115 L 156 120 L 153 123 L 151 130 L 151 151 L 153 156 L 153 165 L 149 171 L 149 173 L 128 191 L 113 198 L 104 199 L 99 201 L 85 201 L 80 199 L 71 198 L 58 193 L 54 190 L 52 190 L 45 184 L 41 182 L 31 171 L 24 165 L 17 151 L 13 146 L 8 132 L 5 119 L 4 99 L 9 72 L 17 54 L 25 42 L 37 29 L 47 21 L 69 10 L 92 5 L 113 6 L 126 9 L 147 19 L 156 26 L 164 34 L 176 51 L 178 58 L 180 60 L 183 68 L 186 81 L 186 89 L 188 77 L 185 62 L 179 47 L 170 33 L 149 14 L 142 11 L 139 8 L 114 1 L 105 0 L 81 1 L 68 6 L 59 8 Z M 166 191 L 164 193 L 158 195 L 149 195 L 148 191 L 159 191 L 160 188 L 162 188 Z M 167 162 L 164 165 L 164 161 Z M 192 161 L 188 164 L 181 167 L 178 167 L 175 169 L 172 167 L 174 165 L 177 165 L 188 160 Z M 198 155 L 193 160 L 191 158 L 185 158 L 182 160 L 179 160 L 175 163 L 174 160 L 180 156 L 187 154 Z M 161 123 L 164 134 L 163 146 L 160 150 L 159 147 L 160 128 L 158 129 L 157 150 L 155 152 L 153 147 L 153 137 L 156 127 Z M 202 98 L 198 115 L 190 125 L 189 122 L 196 107 L 198 99 Z M 197 97 L 187 118 L 184 121 L 183 117 L 186 107 L 193 97 Z" fill="currentColor" fill-rule="evenodd"/>
</svg>
