<svg xmlns="http://www.w3.org/2000/svg" width="112" height="278" viewBox="0 0 112 278" role="img" aria-hidden="true">
  <path d="M 45 0 L 42 9 L 42 15 L 44 20 L 51 25 L 61 53 L 64 69 L 64 84 L 62 98 L 59 108 L 56 112 L 55 105 L 53 102 L 54 77 L 50 58 L 49 56 L 45 53 L 41 47 L 30 36 L 28 36 L 28 66 L 31 77 L 36 86 L 50 100 L 53 109 L 53 123 L 51 126 L 50 133 L 46 145 L 44 147 L 42 145 L 41 134 L 36 123 L 37 113 L 35 109 L 28 103 L 24 103 L 24 106 L 23 107 L 23 117 L 27 122 L 32 123 L 35 126 L 40 141 L 41 148 L 41 162 L 38 173 L 38 179 L 36 181 L 37 184 L 35 191 L 36 201 L 34 203 L 31 198 L 32 173 L 27 157 L 22 148 L 3 130 L 0 130 L 2 162 L 5 174 L 12 186 L 21 195 L 29 201 L 36 218 L 37 232 L 41 248 L 38 250 L 27 232 L 18 222 L 18 218 L 15 213 L 13 212 L 5 212 L 3 213 L 2 219 L 3 221 L 8 225 L 16 224 L 23 231 L 28 238 L 37 254 L 49 271 L 52 277 L 60 277 L 61 265 L 64 261 L 76 251 L 83 238 L 86 226 L 86 220 L 88 216 L 84 215 L 71 223 L 64 231 L 60 239 L 58 247 L 58 275 L 56 277 L 53 272 L 47 256 L 47 239 L 49 229 L 55 216 L 59 210 L 70 200 L 81 201 L 83 200 L 87 196 L 89 192 L 88 187 L 82 186 L 75 188 L 72 191 L 71 196 L 59 206 L 51 217 L 47 227 L 46 237 L 43 241 L 40 225 L 40 220 L 43 205 L 46 196 L 53 182 L 55 180 L 79 170 L 85 166 L 98 152 L 102 145 L 106 134 L 108 120 L 111 112 L 106 111 L 97 117 L 89 120 L 75 129 L 63 143 L 58 154 L 53 177 L 44 193 L 42 201 L 40 203 L 39 193 L 40 192 L 40 182 L 44 160 L 51 138 L 55 129 L 68 111 L 83 97 L 90 93 L 93 93 L 96 95 L 100 95 L 102 94 L 106 89 L 105 85 L 102 82 L 96 82 L 94 83 L 92 86 L 92 88 L 88 92 L 79 97 L 65 110 L 64 113 L 61 116 L 60 113 L 64 99 L 72 83 L 81 71 L 83 70 L 86 71 L 89 70 L 95 64 L 94 58 L 86 58 L 83 60 L 82 62 L 82 67 L 73 77 L 67 87 L 66 83 L 67 77 L 66 62 L 68 52 L 73 40 L 78 39 L 83 35 L 85 29 L 84 25 L 81 20 L 78 20 L 73 25 L 71 30 L 72 38 L 68 45 L 66 54 L 64 56 L 57 32 L 54 28 L 54 25 L 53 24 L 53 22 L 56 18 L 56 12 L 52 4 L 48 0 Z M 77 235 L 80 236 L 80 240 L 78 242 L 76 237 Z M 77 232 L 78 230 L 81 231 Z M 6 216 L 8 214 L 10 214 L 14 217 L 11 219 Z M 79 192 L 80 190 L 85 191 L 83 193 Z M 10 154 L 13 157 L 15 164 L 13 166 L 10 159 L 8 157 Z M 13 155 L 14 153 L 18 155 L 15 157 Z M 91 152 L 87 156 L 86 154 Z M 79 142 L 75 146 L 74 143 Z M 77 138 L 76 140 L 73 143 L 72 141 L 73 139 Z M 102 136 L 100 142 L 97 145 L 96 143 L 93 145 L 93 142 L 89 143 L 83 150 L 81 151 L 80 148 L 86 141 L 89 140 L 91 135 L 94 133 L 98 136 Z M 93 131 L 84 140 L 83 138 L 88 131 Z M 89 126 L 85 130 L 81 129 L 84 126 L 86 125 Z M 97 88 L 98 85 L 100 85 L 102 87 L 100 89 Z M 88 60 L 91 62 L 89 64 L 86 62 Z M 35 49 L 38 48 L 38 49 L 41 52 L 38 53 L 36 51 Z M 76 28 L 77 25 L 81 27 L 79 29 Z M 54 12 L 54 14 L 52 16 Z" fill="currentColor" fill-rule="evenodd"/>
</svg>
