<svg xmlns="http://www.w3.org/2000/svg" width="170" height="156" viewBox="0 0 170 156" role="img" aria-hidden="true">
  <path d="M 2 3 L 0 6 L 0 17 L 3 27 L 8 36 L 10 42 L 12 65 L 10 112 L 0 136 L 0 147 L 3 152 L 9 155 L 14 155 L 21 153 L 35 146 L 54 146 L 74 148 L 132 146 L 147 153 L 153 155 L 159 155 L 163 153 L 168 148 L 169 140 L 165 128 L 160 118 L 157 97 L 157 56 L 158 44 L 160 36 L 166 24 L 168 18 L 168 14 L 169 13 L 168 7 L 164 2 L 158 0 L 149 1 L 135 8 L 128 9 L 127 10 L 102 8 L 63 8 L 40 10 L 30 7 L 21 2 L 14 0 L 8 0 Z M 6 9 L 8 7 L 15 7 L 36 16 L 51 16 L 52 15 L 69 14 L 97 14 L 117 16 L 131 16 L 152 7 L 159 7 L 162 10 L 162 15 L 152 39 L 150 62 L 150 88 L 152 113 L 155 123 L 161 135 L 162 144 L 158 148 L 153 148 L 132 139 L 112 139 L 100 141 L 69 141 L 52 139 L 36 139 L 29 141 L 20 146 L 14 148 L 9 148 L 6 145 L 6 139 L 14 121 L 17 108 L 18 97 L 18 54 L 16 38 L 7 19 Z M 100 93 L 101 98 L 118 115 L 126 120 L 129 120 L 131 118 L 131 116 L 120 108 L 104 92 Z M 68 92 L 65 92 L 50 108 L 41 114 L 40 119 L 42 121 L 54 113 L 70 96 L 70 94 Z M 81 66 L 77 68 L 74 72 L 74 82 L 79 88 L 87 89 L 95 82 L 96 80 L 96 73 L 92 68 L 88 66 Z M 79 75 L 80 73 L 87 72 L 91 77 L 86 83 L 84 83 L 80 80 Z M 130 35 L 125 35 L 116 41 L 101 56 L 100 61 L 103 63 L 105 62 L 119 47 L 131 38 Z M 40 35 L 40 39 L 47 44 L 67 63 L 70 60 L 70 58 L 63 50 L 53 41 L 44 35 Z" fill="currentColor" fill-rule="evenodd"/>
</svg>
