<svg xmlns="http://www.w3.org/2000/svg" width="313" height="366" viewBox="0 0 313 366" role="img" aria-hidden="true">
  <path d="M 223 348 L 222 350 L 223 355 L 230 360 L 227 363 L 225 363 L 222 361 L 222 363 L 224 365 L 229 365 L 233 361 L 233 359 L 231 356 L 228 355 L 226 350 L 228 350 L 230 348 Z M 217 348 L 206 348 L 206 350 L 209 350 L 211 352 L 211 365 L 213 363 L 214 350 Z M 197 348 L 195 348 L 196 365 L 203 363 L 198 362 Z M 176 348 L 176 361 L 179 365 L 184 365 L 189 360 L 187 348 L 187 360 L 184 363 L 181 363 L 179 361 L 178 348 Z M 153 348 L 145 348 L 146 365 L 153 363 L 148 362 L 149 357 L 152 355 L 148 354 L 149 350 Z M 127 348 L 128 364 L 130 363 L 132 358 L 137 365 L 139 363 L 136 359 L 136 356 L 138 354 L 138 351 L 135 348 Z M 131 349 L 133 349 L 136 352 L 132 356 L 130 354 Z M 163 347 L 161 348 L 160 353 L 163 357 L 168 360 L 165 363 L 160 362 L 162 365 L 167 365 L 171 360 L 168 356 L 162 352 L 163 349 L 166 349 L 168 351 L 168 348 Z M 123 251 L 122 262 L 124 292 L 126 290 L 127 254 L 143 254 L 145 256 L 146 292 L 148 290 L 147 251 Z M 6 231 L 0 233 L 0 235 L 3 237 L 0 242 L 0 248 L 7 234 Z M 163 229 L 164 292 L 166 290 L 167 232 L 185 233 L 187 292 L 189 290 L 188 229 Z M 203 196 L 203 214 L 202 215 L 202 273 L 204 292 L 206 290 L 207 199 L 223 199 L 225 201 L 224 266 L 225 291 L 228 290 L 227 196 Z M 279 167 L 273 185 L 273 197 L 275 205 L 279 214 L 278 228 L 275 237 L 275 239 L 278 240 L 277 237 L 280 230 L 282 215 L 287 205 L 289 196 L 287 180 L 282 169 Z M 282 175 L 286 185 L 287 195 L 286 196 L 285 204 L 283 206 L 282 182 L 280 180 L 280 205 L 278 207 L 277 201 L 275 198 L 275 187 L 279 175 Z M 227 147 L 223 146 L 208 151 L 208 154 L 211 154 L 215 152 L 218 153 L 205 170 L 184 191 L 169 203 L 157 211 L 142 219 L 134 222 L 130 225 L 114 230 L 113 233 L 119 232 L 122 230 L 125 230 L 133 227 L 155 216 L 166 208 L 169 207 L 192 188 L 206 174 L 219 159 L 220 156 L 223 157 L 224 166 L 226 164 Z M 182 96 L 160 98 L 142 103 L 126 111 L 111 122 L 104 129 L 93 143 L 85 157 L 78 176 L 74 197 L 74 224 L 79 248 L 88 269 L 97 283 L 114 301 L 127 310 L 141 317 L 153 321 L 173 324 L 190 323 L 200 321 L 212 317 L 229 308 L 238 301 L 256 293 L 265 293 L 269 297 L 272 297 L 276 293 L 275 288 L 273 287 L 268 287 L 264 291 L 247 292 L 255 283 L 261 278 L 273 272 L 287 273 L 291 271 L 302 261 L 302 259 L 287 259 L 279 263 L 273 271 L 262 273 L 269 262 L 276 248 L 285 240 L 293 238 L 296 236 L 305 227 L 307 224 L 307 221 L 309 219 L 312 210 L 308 210 L 299 214 L 289 223 L 286 228 L 284 237 L 276 245 L 275 243 L 273 243 L 272 248 L 267 259 L 265 261 L 264 258 L 265 252 L 267 248 L 269 239 L 268 227 L 266 221 L 261 213 L 256 207 L 254 207 L 252 216 L 252 233 L 255 242 L 262 253 L 262 262 L 260 270 L 254 280 L 247 287 L 246 284 L 248 279 L 248 275 L 246 267 L 243 267 L 241 265 L 242 262 L 245 260 L 241 260 L 239 262 L 239 265 L 240 267 L 245 271 L 245 284 L 241 293 L 234 300 L 217 311 L 201 317 L 186 320 L 161 319 L 141 313 L 129 307 L 116 298 L 104 286 L 97 277 L 92 269 L 85 254 L 81 242 L 78 227 L 77 204 L 79 187 L 82 175 L 88 159 L 101 138 L 109 129 L 119 120 L 135 110 L 154 103 L 174 100 L 189 100 L 201 102 L 220 108 L 230 113 L 242 121 L 248 126 L 261 140 L 273 159 L 275 157 L 268 144 L 260 133 L 250 123 L 234 111 L 220 104 L 209 100 Z M 270 289 L 272 289 L 274 292 L 271 294 L 269 292 Z M 297 263 L 288 270 L 283 269 L 288 266 L 289 264 L 287 264 L 284 266 L 283 264 L 285 262 L 288 261 Z M 308 215 L 303 226 L 296 233 L 291 236 L 290 233 L 304 218 L 302 218 L 297 222 L 291 229 L 290 226 L 291 224 L 298 217 L 302 216 L 304 214 Z M 257 213 L 261 217 L 266 228 L 265 234 L 266 242 L 264 244 L 262 236 L 263 232 L 261 230 L 258 222 L 258 226 L 262 243 L 260 245 L 256 239 L 254 228 L 254 219 Z M 288 0 L 289 4 L 292 5 L 296 3 L 292 3 L 290 0 Z M 273 0 L 275 5 L 278 5 L 282 3 L 277 2 L 277 0 Z M 268 0 L 266 0 L 266 4 L 268 3 Z M 255 0 L 252 0 L 252 4 L 255 2 Z M 232 0 L 235 4 L 238 5 L 242 4 L 246 0 L 243 0 L 240 3 L 237 3 L 235 0 Z M 222 0 L 223 2 L 226 5 L 226 1 Z M 219 0 L 216 0 L 217 5 L 219 3 Z M 204 0 L 201 0 L 202 5 L 204 3 Z M 184 0 L 182 0 L 182 3 L 181 4 L 181 7 L 183 5 L 184 2 Z M 166 0 L 163 0 L 164 5 L 166 3 Z M 143 2 L 145 4 L 149 5 L 151 4 L 154 0 L 152 0 L 149 3 L 147 3 L 145 0 L 143 0 Z M 122 0 L 125 4 L 127 5 L 132 4 L 136 0 L 133 0 L 130 3 L 127 3 L 125 0 Z M 106 5 L 113 4 L 116 0 L 114 0 L 111 3 L 109 3 L 107 0 L 105 0 Z M 86 2 L 86 4 L 88 3 L 90 0 L 94 0 L 98 5 L 100 3 L 99 1 L 87 0 Z" fill="currentColor" fill-rule="evenodd"/>
</svg>
