<svg xmlns="http://www.w3.org/2000/svg" viewBox="0 0 64 64" fill="none" stroke="currentColor" stroke-width="1.12" stroke-linecap="round" stroke-linejoin="round">
  <title>Hand</title>
  <path d="M22 35 V24 C22 21 26 21 26 24 V33"/><path d="M26 33 V20 C26 17 30 17 30 20 V33"/><path d="M30 33 V22 C30 19 34 19 34 22 V34"/><path d="M34 34 V26 C34 23 38 23 38 26 V39 C38 49 25 52 19 43 L15 37 C14 35 16 32 19 34Z"/><g transform="translate(47 48) rotate(-28) scale(0.42)">
  <path d="M0 0 C4 -5 10 -5 14 0 C10 5 4 5 0 0Z"/>
  <path d="M1 0 C5 .2 9 .1 13 0"/>
</g><g transform="translate(16 17) scale(0.3)">
  <path d="M0 -5 V5"/>
  <path d="M-5 0 H5"/>
  <path d="M-3 -3 L3 3"/>
  <path d="M3 -3 L-3 3"/>
</g>
</svg>
