<svg xmlns="http://www.w3.org/2000/svg" width="146" height="144" viewBox="0 0 146 144" role="img" aria-hidden="true">
  <path d="M 52 133 L 52 135 L 54 137 L 56 137 L 57 133 L 55 132 Z M 62 135 L 63 139 L 67 140 L 67 141 L 70 143 L 75 143 L 81 138 L 83 135 L 80 135 L 74 130 L 70 130 L 64 135 Z M 73 134 L 75 137 L 73 139 L 70 138 L 70 136 Z M 45 130 L 46 134 L 48 134 L 50 132 L 48 130 Z M 106 126 L 103 126 L 99 130 L 95 130 L 93 132 L 87 133 L 87 135 L 90 137 L 93 134 L 98 134 L 101 131 L 104 131 Z M 38 126 L 38 129 L 41 131 L 43 128 L 41 126 Z M 110 122 L 112 126 L 116 122 Z M 30 122 L 30 124 L 35 126 L 36 124 L 33 121 Z M 122 114 L 119 114 L 117 116 L 119 119 L 122 116 Z M 23 114 L 24 119 L 26 119 L 27 115 L 25 114 Z M 16 105 L 16 109 L 19 111 L 21 108 L 18 105 Z M 10 95 L 11 100 L 13 102 L 15 100 L 14 96 Z M 134 94 L 131 94 L 130 102 L 124 107 L 124 109 L 126 111 L 130 107 L 130 104 L 135 97 Z M 7 88 L 7 90 L 9 92 L 12 89 L 10 87 Z M 9 57 L 6 58 L 7 63 L 4 65 L 0 70 L 2 77 L 5 79 L 7 84 L 10 81 L 10 77 L 13 74 L 13 69 L 9 65 L 9 62 L 10 61 Z M 7 69 L 9 72 L 5 73 Z M 133 48 L 133 53 L 136 56 L 136 64 L 132 68 L 132 75 L 136 79 L 136 84 L 134 86 L 135 92 L 138 89 L 137 83 L 139 81 L 139 79 L 144 74 L 145 70 L 144 68 L 139 64 L 139 60 L 137 57 L 137 50 L 135 48 Z M 11 47 L 9 47 L 8 49 L 10 53 L 13 49 Z M 129 39 L 129 43 L 131 45 L 133 43 L 133 41 L 131 39 Z M 15 39 L 12 40 L 14 45 L 16 43 L 17 41 Z M 123 32 L 123 34 L 126 36 L 128 33 L 126 31 Z M 17 32 L 19 36 L 22 33 L 20 31 Z M 116 24 L 116 26 L 119 29 L 121 27 L 120 24 Z M 27 24 L 23 25 L 25 29 Z M 109 18 L 109 20 L 112 22 L 114 19 L 112 17 Z M 31 18 L 33 22 L 35 20 L 36 18 Z M 101 13 L 101 15 L 104 17 L 105 13 Z M 88 8 L 89 11 L 94 12 L 97 14 L 98 10 L 95 10 L 91 7 Z M 56 7 L 52 7 L 50 10 L 46 9 L 43 12 L 38 13 L 39 17 L 41 17 L 45 13 L 55 11 Z M 61 6 L 62 9 L 66 9 L 70 13 L 74 13 L 78 9 L 81 9 L 83 7 L 74 0 L 70 0 L 64 5 Z M 71 4 L 73 4 L 75 6 L 72 9 L 70 7 Z" fill="currentColor" fill-rule="evenodd"/>
</svg>
