<svg xmlns="http://www.w3.org/2000/svg" width="198" height="207" viewBox="0 0 198 207" role="img" aria-hidden="true">
  <path d="M 100 134 L 95 147 L 95 160 L 100 172 L 102 175 L 105 177 L 106 180 L 102 189 L 103 194 L 107 194 L 113 192 L 123 186 L 152 186 L 162 183 L 173 172 L 176 167 L 179 156 L 179 152 L 176 141 L 174 137 L 162 126 L 153 123 L 120 123 L 110 126 Z M 100 144 L 103 138 L 107 134 L 118 128 L 154 128 L 162 132 L 169 138 L 174 148 L 174 159 L 169 170 L 164 175 L 158 179 L 153 181 L 121 181 L 117 185 L 112 188 L 108 187 L 109 182 L 111 179 L 111 176 L 102 168 L 99 158 L 99 148 Z M 150 151 L 150 156 L 151 158 L 155 159 L 158 156 L 159 153 L 156 150 Z M 121 150 L 115 150 L 115 157 L 118 159 L 123 155 L 123 152 Z M 135 149 L 133 150 L 132 155 L 135 159 L 137 159 L 141 156 L 141 152 L 139 150 Z M 125 3 L 104 0 L 85 1 L 73 3 L 64 6 L 44 16 L 35 23 L 23 35 L 15 45 L 5 66 L 0 85 L 0 116 L 2 128 L 7 143 L 20 167 L 37 185 L 49 194 L 59 199 L 79 205 L 95 206 L 98 204 L 89 204 L 71 200 L 59 193 L 55 192 L 46 186 L 43 183 L 41 177 L 40 161 L 42 157 L 47 152 L 53 150 L 61 150 L 69 146 L 80 134 L 81 132 L 80 129 L 74 129 L 61 132 L 50 141 L 48 147 L 43 152 L 42 146 L 45 136 L 54 118 L 62 110 L 68 107 L 72 107 L 86 111 L 100 109 L 110 104 L 123 92 L 123 90 L 108 87 L 100 87 L 88 89 L 86 91 L 81 92 L 64 104 L 79 88 L 94 76 L 105 76 L 115 73 L 123 69 L 134 56 L 142 37 L 141 33 L 138 33 L 109 47 L 101 56 L 96 65 L 94 71 L 87 78 L 82 80 L 75 88 L 67 95 L 66 91 L 73 84 L 78 77 L 83 62 L 84 54 L 83 39 L 82 34 L 80 32 L 77 32 L 64 49 L 59 64 L 59 75 L 62 88 L 62 97 L 55 111 L 51 115 L 51 117 L 45 124 L 44 121 L 50 105 L 51 93 L 48 80 L 46 77 L 46 73 L 43 69 L 41 63 L 39 61 L 36 62 L 35 67 L 30 76 L 28 84 L 28 97 L 30 107 L 32 112 L 40 124 L 41 137 L 39 141 L 34 174 L 29 170 L 16 151 L 9 135 L 4 110 L 4 93 L 6 79 L 12 61 L 22 44 L 38 27 L 51 18 L 57 16 L 66 11 L 85 6 L 112 6 L 126 9 L 147 18 L 162 29 L 170 37 L 177 46 L 184 58 L 190 74 L 190 78 L 192 82 L 193 88 L 193 112 L 188 134 L 190 133 L 194 121 L 197 104 L 197 86 L 195 81 L 195 76 L 193 67 L 187 54 L 181 45 L 179 40 L 163 23 L 147 12 L 135 6 Z M 74 134 L 74 136 L 68 142 L 60 147 L 57 144 L 66 140 L 62 139 L 55 141 L 59 137 L 70 133 Z M 115 93 L 110 100 L 101 105 L 93 106 L 92 107 L 88 107 L 81 105 L 82 102 L 97 100 L 108 97 L 111 95 L 107 95 L 106 96 L 94 96 L 85 98 L 83 100 L 81 97 L 83 95 L 90 92 L 104 90 L 111 91 Z M 37 70 L 40 71 L 47 90 L 47 100 L 45 106 L 45 110 L 43 112 L 40 96 L 40 82 L 38 79 L 39 111 L 37 113 L 34 107 L 31 95 L 31 91 L 33 86 L 33 81 Z M 135 44 L 135 46 L 128 59 L 122 65 L 108 72 L 103 71 L 103 69 L 121 56 L 132 45 L 130 45 L 127 48 L 125 48 L 114 57 L 108 60 L 103 65 L 102 61 L 112 50 L 128 42 L 132 41 Z M 79 40 L 80 47 L 80 61 L 79 65 L 73 78 L 71 80 L 70 75 L 72 70 L 73 59 L 76 53 L 76 47 L 74 48 L 71 60 L 68 66 L 67 74 L 64 78 L 63 62 L 64 58 L 69 48 L 75 40 Z" fill="currentColor" fill-rule="evenodd"/>
</svg>
