<svg xmlns="http://www.w3.org/2000/svg" width="189" height="341" viewBox="0 0 189 341" role="img" aria-hidden="true">
  <path d="M 42 340 L 49 340 L 52 337 L 64 330 L 79 325 L 100 325 L 115 329 L 123 333 L 131 340 L 140 340 L 124 328 L 118 325 L 113 324 L 111 322 L 102 320 L 79 320 L 74 321 L 71 323 L 68 323 L 52 331 Z M 187 185 L 183 181 L 178 178 L 168 174 L 153 174 L 146 176 L 144 178 L 138 179 L 130 177 L 136 171 L 141 164 L 139 162 L 123 165 L 113 175 L 110 181 L 105 186 L 98 188 L 87 194 L 86 192 L 98 182 L 98 179 L 101 174 L 103 166 L 102 163 L 100 163 L 94 166 L 86 174 L 83 181 L 82 188 L 77 195 L 68 201 L 59 203 L 52 203 L 53 206 L 57 206 L 78 201 L 81 199 L 90 199 L 92 200 L 97 206 L 104 211 L 111 213 L 121 213 L 123 211 L 114 202 L 109 199 L 93 195 L 97 192 L 108 188 L 116 188 L 118 189 L 128 200 L 134 204 L 144 205 L 145 206 L 150 205 L 150 203 L 143 196 L 142 193 L 136 190 L 126 187 L 122 184 L 124 184 L 127 182 L 144 181 L 161 189 L 177 189 L 185 187 Z M 101 205 L 108 202 L 112 204 L 116 208 L 114 210 L 110 210 L 103 207 Z M 127 195 L 130 194 L 133 196 L 137 195 L 140 197 L 142 202 L 136 201 L 130 198 Z M 155 183 L 156 181 L 158 181 L 159 182 L 161 183 L 159 185 Z M 160 178 L 168 177 L 174 179 L 178 183 L 174 186 L 166 187 L 164 184 L 167 181 L 162 180 Z M 98 171 L 97 175 L 93 178 L 91 176 L 91 173 L 94 170 Z M 133 169 L 125 177 L 121 179 L 118 174 L 123 169 L 130 167 Z M 112 156 L 112 163 L 114 163 L 117 159 L 118 153 L 123 147 L 134 141 L 150 139 L 166 142 L 172 147 L 174 147 L 180 154 L 182 159 L 182 163 L 185 169 L 188 166 L 187 159 L 182 148 L 174 141 L 168 138 L 158 135 L 140 135 L 131 137 L 119 144 L 114 151 Z M 0 163 L 0 167 L 3 169 L 5 167 L 6 158 L 10 150 L 17 144 L 25 141 L 39 139 L 48 140 L 62 145 L 70 155 L 72 160 L 72 163 L 75 168 L 77 166 L 76 157 L 71 146 L 68 145 L 63 140 L 54 136 L 30 134 L 21 137 L 8 145 L 3 152 Z M 145 86 L 140 87 L 132 94 L 128 103 L 128 113 L 131 120 L 141 130 L 151 130 L 160 127 L 169 116 L 170 105 L 168 98 L 160 89 L 156 87 Z M 154 92 L 158 94 L 163 99 L 165 105 L 165 111 L 163 116 L 157 123 L 148 126 L 140 123 L 135 118 L 133 111 L 133 103 L 135 98 L 140 93 L 144 92 Z M 41 86 L 30 88 L 24 92 L 20 97 L 18 105 L 19 117 L 29 128 L 33 130 L 42 130 L 52 126 L 58 118 L 60 110 L 59 101 L 55 94 L 48 88 Z M 45 92 L 53 99 L 55 104 L 55 112 L 52 118 L 46 124 L 38 126 L 30 123 L 26 119 L 24 115 L 23 104 L 25 99 L 30 94 L 37 92 Z M 128 9 L 117 3 L 113 3 L 104 0 L 82 0 L 65 5 L 62 8 L 56 11 L 49 18 L 45 24 L 41 35 L 42 50 L 43 54 L 49 64 L 60 75 L 66 76 L 68 78 L 67 84 L 64 90 L 65 95 L 68 95 L 80 89 L 87 83 L 102 83 L 117 79 L 129 72 L 134 68 L 140 61 L 145 50 L 147 38 L 142 23 L 140 20 Z M 129 15 L 137 24 L 141 32 L 142 45 L 137 58 L 125 70 L 115 75 L 107 78 L 85 79 L 81 83 L 70 88 L 72 76 L 63 69 L 58 67 L 52 61 L 47 52 L 46 48 L 46 33 L 52 21 L 58 15 L 61 13 L 63 13 L 68 9 L 75 6 L 88 4 L 108 5 Z M 114 19 L 110 19 L 102 23 L 99 28 L 98 34 L 90 44 L 89 40 L 91 37 L 90 24 L 87 24 L 82 31 L 80 38 L 81 51 L 73 58 L 74 62 L 79 57 L 86 57 L 93 61 L 100 60 L 101 56 L 94 53 L 88 52 L 89 49 L 92 48 L 109 49 L 115 46 L 116 42 L 109 40 L 96 41 L 101 37 L 103 37 L 106 35 L 113 28 L 114 26 Z M 102 45 L 104 43 L 110 44 L 107 47 Z M 89 31 L 89 35 L 87 40 L 83 41 L 83 35 L 85 31 Z M 110 24 L 110 26 L 108 29 L 103 33 L 101 30 L 102 28 L 106 24 Z" fill="currentColor" fill-rule="evenodd"/>
</svg>
