<svg xmlns="http://www.w3.org/2000/svg" width="192" height="370" viewBox="0 0 192 370" role="img" aria-hidden="true">
  <path d="M 0 326 L 0 333 L 31 364 L 38 369 L 45 369 L 42 368 L 11 340 L 3 330 L 3 328 L 5 326 L 9 326 L 15 328 L 35 343 L 50 352 L 52 354 L 53 358 L 56 361 L 62 363 L 82 363 L 91 362 L 103 359 L 118 358 L 96 357 L 83 360 L 62 360 L 59 359 L 55 355 L 55 352 L 59 347 L 68 345 L 76 345 L 88 343 L 94 341 L 111 332 L 124 329 L 137 329 L 151 334 L 165 344 L 177 350 L 187 354 L 191 352 L 167 341 L 155 332 L 149 329 L 136 325 L 124 326 L 120 325 L 118 327 L 114 327 L 109 329 L 97 336 L 81 341 L 69 341 L 63 343 L 39 330 L 33 330 L 29 334 L 20 327 L 11 323 L 4 323 Z M 35 334 L 40 334 L 54 342 L 56 345 L 51 349 L 38 341 L 34 337 Z M 159 229 L 156 228 L 149 242 L 148 248 L 148 260 L 153 275 L 153 281 L 150 290 L 146 297 L 138 307 L 137 303 L 141 291 L 140 279 L 134 269 L 131 266 L 129 266 L 129 270 L 127 277 L 127 283 L 129 291 L 135 301 L 135 307 L 132 312 L 125 319 L 121 321 L 120 323 L 122 323 L 133 316 L 140 313 L 157 317 L 164 316 L 173 311 L 175 308 L 168 305 L 160 304 L 152 305 L 147 307 L 145 309 L 141 308 L 142 306 L 153 296 L 168 293 L 175 289 L 183 279 L 186 272 L 180 271 L 168 276 L 163 280 L 157 289 L 153 290 L 156 276 L 160 270 L 165 255 L 164 242 Z M 169 309 L 162 314 L 154 315 L 151 311 L 159 311 L 163 310 L 165 308 Z M 137 280 L 138 282 L 138 284 L 136 286 L 134 281 Z M 182 276 L 178 282 L 173 287 L 164 292 L 163 289 L 176 279 L 172 280 L 164 286 L 163 284 L 168 279 L 176 275 Z M 132 272 L 134 274 L 133 282 L 135 289 L 135 292 L 133 294 L 131 292 L 130 288 Z M 159 236 L 162 245 L 162 257 L 161 261 L 158 265 L 156 244 L 155 264 L 153 266 L 151 264 L 150 260 L 150 249 L 155 236 Z M 47 188 L 47 197 L 49 202 L 51 219 L 51 229 L 54 250 L 55 276 L 58 302 L 58 325 L 61 329 L 90 329 L 94 325 L 94 302 L 96 293 L 96 281 L 98 269 L 98 257 L 103 207 L 105 199 L 104 187 Z M 63 305 L 75 307 L 74 313 L 72 316 L 73 323 L 70 326 L 64 326 L 62 324 Z M 53 199 L 85 200 L 85 205 L 87 210 L 87 216 L 84 224 L 83 232 L 80 234 L 78 232 L 77 226 L 75 226 L 75 232 L 73 234 L 68 234 L 68 236 L 70 238 L 75 239 L 76 245 L 78 243 L 78 239 L 80 237 L 83 237 L 85 239 L 85 241 L 83 244 L 83 247 L 80 253 L 79 273 L 76 276 L 73 285 L 74 294 L 68 301 L 62 301 L 60 299 L 60 284 L 57 242 L 55 234 L 55 224 L 53 207 L 52 206 Z M 51 194 L 52 190 L 100 190 L 102 193 L 97 196 L 55 196 Z M 162 66 L 155 67 L 156 74 L 159 75 L 161 78 L 158 80 L 154 78 L 154 80 L 159 83 L 164 79 L 163 74 L 160 73 L 158 68 L 162 69 Z M 139 67 L 139 72 L 144 75 L 146 78 L 144 80 L 139 79 L 140 82 L 143 83 L 146 82 L 148 80 L 148 75 L 144 73 L 142 68 L 146 69 L 146 66 Z M 124 66 L 124 82 L 132 80 L 128 80 L 127 76 L 130 75 L 131 73 L 128 73 L 126 71 L 127 68 L 132 66 Z M 104 66 L 104 81 L 106 80 L 108 73 L 115 82 L 117 80 L 115 66 L 115 70 L 112 74 L 106 66 Z M 89 66 L 90 82 L 97 80 L 92 79 L 91 66 Z M 74 66 L 75 82 L 82 80 L 79 80 L 77 78 L 76 66 Z M 59 66 L 60 82 L 67 80 L 63 80 L 61 78 L 62 75 L 66 73 L 63 73 L 61 71 L 62 68 L 67 66 Z M 33 66 L 36 80 L 38 82 L 40 80 L 41 76 L 43 75 L 45 77 L 45 79 L 47 82 L 50 78 L 53 67 L 50 66 L 49 72 L 47 74 L 45 72 L 44 67 L 41 67 L 40 72 L 38 74 L 36 68 Z M 95 34 L 96 36 L 100 36 L 119 31 L 137 21 L 141 20 L 149 20 L 160 24 L 170 25 L 182 21 L 189 16 L 190 14 L 180 10 L 168 9 L 159 11 L 148 17 L 147 15 L 163 0 L 155 0 L 152 6 L 144 13 L 132 21 L 126 21 L 135 12 L 140 2 L 140 0 L 138 0 L 138 2 L 136 4 L 135 0 L 131 3 L 130 0 L 127 0 L 125 20 L 117 28 L 111 31 L 99 34 Z M 181 17 L 179 19 L 172 22 L 162 22 L 156 18 L 177 16 Z M 162 13 L 164 12 L 178 13 L 176 15 L 169 15 L 168 16 Z M 132 6 L 131 8 L 129 10 L 128 6 Z M 85 0 L 91 3 L 103 6 L 116 4 L 104 3 L 95 0 Z M 17 0 L 28 7 L 45 12 L 59 14 L 97 14 L 114 12 L 116 10 L 114 9 L 111 9 L 106 11 L 94 10 L 66 11 L 54 10 L 36 6 L 23 0 Z" fill="currentColor" fill-rule="evenodd"/>
</svg>
