<svg xmlns="http://www.w3.org/2000/svg" width="197" height="233" viewBox="0 0 197 233" role="img" aria-hidden="true">
  <path d="M 164 207 L 159 207 L 158 209 L 159 213 L 162 210 L 162 209 Z M 67 156 L 68 159 L 109 159 L 111 157 L 108 156 Z M 54 146 L 52 146 L 38 161 L 31 154 L 28 155 L 28 157 L 39 167 L 51 153 Z M 67 119 L 68 122 L 133 122 L 135 120 L 132 118 L 125 119 L 72 118 L 71 119 Z M 55 110 L 51 109 L 38 123 L 31 116 L 28 117 L 28 119 L 38 130 L 46 122 Z M 68 81 L 69 84 L 73 85 L 125 85 L 134 81 Z M 55 73 L 51 72 L 38 86 L 31 79 L 29 79 L 29 83 L 36 91 L 39 92 L 46 85 L 48 81 Z M 6 25 L 1 31 L 0 52 L 1 57 L 0 61 L 1 215 L 3 219 L 10 223 L 61 224 L 57 227 L 47 229 L 49 232 L 67 228 L 89 221 L 100 221 L 118 229 L 125 229 L 134 227 L 145 222 L 147 219 L 144 219 L 126 212 L 110 213 L 106 215 L 103 214 L 106 211 L 116 206 L 119 203 L 129 199 L 137 199 L 148 203 L 161 201 L 169 196 L 180 185 L 177 184 L 168 185 L 156 184 L 145 187 L 134 195 L 133 192 L 145 179 L 154 171 L 159 169 L 163 169 L 170 167 L 179 163 L 188 154 L 193 145 L 194 136 L 188 140 L 181 142 L 173 146 L 166 152 L 160 162 L 155 167 L 154 165 L 160 155 L 161 150 L 165 141 L 175 128 L 179 118 L 179 104 L 177 98 L 177 92 L 175 88 L 173 88 L 172 93 L 166 102 L 161 113 L 160 126 L 161 134 L 162 135 L 162 141 L 158 149 L 158 152 L 156 154 L 155 150 L 157 144 L 157 133 L 152 121 L 148 115 L 146 114 L 146 120 L 143 128 L 143 140 L 150 156 L 150 163 L 148 169 L 139 182 L 125 195 L 124 192 L 128 185 L 132 181 L 138 167 L 138 155 L 133 143 L 133 140 L 130 141 L 128 148 L 123 157 L 122 162 L 122 171 L 125 181 L 124 190 L 120 197 L 114 203 L 105 209 L 91 216 L 88 214 L 107 197 L 110 189 L 110 172 L 108 172 L 96 185 L 93 192 L 91 207 L 89 211 L 81 218 L 79 218 L 72 223 L 69 224 L 68 222 L 78 214 L 82 204 L 80 201 L 72 207 L 69 216 L 67 218 L 10 218 L 6 215 L 5 213 L 5 33 L 6 31 L 9 29 L 38 29 L 40 31 L 40 43 L 41 45 L 121 46 L 125 42 L 125 36 L 124 35 L 125 29 L 156 29 L 160 34 L 160 104 L 164 97 L 165 43 L 163 30 L 157 25 L 142 24 L 123 25 L 118 21 L 102 21 L 100 19 L 100 14 L 97 7 L 93 3 L 87 0 L 76 0 L 72 2 L 67 7 L 64 14 L 64 18 L 61 21 L 44 21 L 38 25 L 28 25 L 27 24 Z M 109 220 L 124 219 L 115 218 L 113 216 L 114 214 L 122 214 L 126 216 L 133 217 L 139 221 L 137 223 L 128 226 L 119 226 L 112 224 Z M 75 208 L 78 210 L 74 214 L 73 210 Z M 171 189 L 164 196 L 158 199 L 145 200 L 143 199 L 143 196 L 158 193 L 159 191 L 155 192 L 151 191 L 151 188 L 167 187 Z M 108 180 L 106 191 L 102 200 L 98 204 L 97 201 L 102 193 L 102 191 L 100 192 L 99 196 L 95 202 L 94 198 L 96 191 L 101 183 L 105 179 Z M 129 151 L 133 151 L 135 157 L 135 167 L 134 171 L 132 173 L 131 162 L 129 162 L 129 169 L 126 173 L 125 161 Z M 189 146 L 186 152 L 177 161 L 172 164 L 165 166 L 164 164 L 177 154 L 179 151 L 173 155 L 167 155 L 173 149 L 184 144 Z M 149 124 L 151 126 L 153 131 L 152 134 L 149 134 L 147 144 L 145 137 L 145 132 L 146 128 Z M 173 99 L 175 101 L 176 105 L 176 118 L 173 126 L 169 131 L 168 127 L 169 126 L 171 114 L 169 115 L 169 119 L 166 126 L 164 128 L 163 116 L 167 105 L 170 100 Z M 44 31 L 46 29 L 118 29 L 120 31 L 120 39 L 117 42 L 46 42 L 44 40 Z M 81 12 L 83 12 L 85 14 L 85 17 L 82 19 L 79 16 L 79 14 Z M 70 12 L 74 6 L 79 4 L 84 4 L 89 6 L 93 10 L 94 14 L 92 16 L 86 10 L 78 10 L 76 12 L 70 14 Z" fill="currentColor" fill-rule="evenodd"/>
</svg>
