<svg xmlns="http://www.w3.org/2000/svg" width="131" height="264" viewBox="0 0 131 264" role="img" aria-hidden="true">
  <path d="M 124 70 L 116 72 L 101 79 L 93 85 L 83 99 L 79 113 L 79 129 L 57 173 L 55 175 L 54 171 L 55 170 L 54 161 L 55 160 L 55 155 L 58 150 L 62 137 L 62 121 L 60 113 L 54 99 L 52 97 L 50 92 L 46 91 L 37 112 L 35 121 L 35 129 L 36 135 L 41 147 L 50 158 L 51 161 L 51 172 L 48 191 L 39 208 L 36 216 L 34 218 L 32 211 L 32 204 L 35 195 L 35 178 L 33 175 L 33 172 L 30 169 L 29 166 L 19 155 L 12 149 L 8 150 L 8 159 L 6 169 L 6 178 L 8 186 L 13 195 L 28 208 L 29 210 L 29 224 L 24 234 L 16 244 L 0 260 L 0 263 L 2 263 L 7 259 L 21 244 L 28 238 L 40 231 L 52 227 L 60 227 L 68 234 L 74 232 L 77 229 L 78 224 L 77 221 L 73 218 L 65 218 L 60 223 L 48 224 L 34 228 L 34 226 L 39 217 L 47 209 L 60 201 L 63 200 L 92 201 L 103 197 L 115 187 L 130 165 L 105 164 L 89 167 L 83 170 L 75 176 L 69 182 L 63 193 L 59 197 L 48 204 L 47 201 L 53 188 L 56 184 L 57 180 L 61 175 L 62 171 L 70 163 L 81 155 L 94 148 L 103 147 L 106 150 L 112 150 L 118 144 L 117 138 L 114 135 L 105 135 L 102 138 L 102 140 L 98 144 L 86 148 L 72 155 L 72 150 L 76 144 L 77 140 L 80 135 L 87 129 L 98 124 L 104 120 L 116 107 L 121 94 L 123 81 L 126 72 Z M 67 220 L 71 220 L 74 223 L 75 226 L 69 231 L 65 227 L 65 222 Z M 21 196 L 23 195 L 25 197 L 23 198 Z M 85 196 L 86 193 L 91 195 L 89 197 Z M 74 194 L 76 192 L 78 192 L 83 195 L 80 197 Z M 85 190 L 86 187 L 94 187 L 95 188 L 105 189 L 98 194 L 96 194 L 94 192 L 89 192 Z M 13 179 L 22 189 L 20 191 L 18 189 L 14 188 L 12 184 Z M 84 179 L 76 188 L 72 187 L 77 180 L 82 177 Z M 99 171 L 93 176 L 87 183 L 83 182 L 87 177 L 87 173 L 96 170 Z M 121 170 L 117 177 L 108 187 L 96 184 L 98 182 L 113 175 L 118 171 Z M 118 169 L 116 171 L 110 173 L 107 176 L 98 179 L 95 177 L 102 170 L 109 170 L 114 168 Z M 14 162 L 16 167 L 16 170 L 14 172 L 11 171 Z M 17 159 L 24 168 L 21 175 L 21 172 L 19 170 L 15 161 Z M 106 138 L 111 138 L 114 142 L 110 147 L 108 147 L 105 144 Z M 56 137 L 56 138 L 57 140 L 56 144 L 54 146 Z M 43 126 L 49 138 L 49 144 L 47 146 L 42 140 L 40 135 Z M 58 122 L 58 130 L 54 131 L 54 125 Z M 110 107 L 99 118 L 91 123 L 88 122 L 88 120 L 91 117 L 93 117 L 103 108 L 107 106 Z M 52 105 L 56 116 L 54 118 L 54 123 L 50 124 L 49 110 Z M 47 105 L 46 118 L 48 126 L 46 128 L 42 118 L 42 111 L 43 108 Z M 95 94 L 92 99 L 90 109 L 88 111 L 88 114 L 85 118 L 84 112 L 88 99 L 91 96 L 92 93 Z M 119 83 L 114 99 L 111 102 L 109 101 L 97 111 L 96 108 L 108 91 L 116 82 Z M 114 81 L 102 94 L 94 105 L 93 102 L 96 97 L 96 93 L 98 88 L 102 84 L 110 80 Z M 55 0 L 65 11 L 69 10 L 78 0 L 66 1 Z" fill="currentColor" fill-rule="evenodd"/>
</svg>
