<svg xmlns="http://www.w3.org/2000/svg" width="116" height="246" viewBox="0 0 116 246" role="img" aria-hidden="true">
  <path d="M 6 245 L 14 245 L 17 240 L 23 234 L 35 227 L 42 225 L 58 225 L 68 228 L 79 235 L 85 241 L 87 245 L 95 245 L 93 240 L 83 229 L 70 221 L 59 218 L 42 218 L 31 221 L 23 225 L 12 235 Z M 59 0 L 55 0 L 42 10 L 30 16 L 19 19 L 3 20 L 1 21 L 0 23 L 0 78 L 1 85 L 5 98 L 11 109 L 22 122 L 34 132 L 51 141 L 57 143 L 78 133 L 91 123 L 97 117 L 103 109 L 112 92 L 115 78 L 115 24 L 112 20 L 97 19 L 85 16 L 72 10 Z M 56 9 L 58 9 L 67 16 L 78 22 L 96 27 L 106 27 L 108 29 L 108 73 L 107 81 L 103 94 L 96 106 L 80 122 L 59 134 L 55 134 L 50 132 L 43 127 L 41 127 L 31 120 L 22 111 L 13 98 L 9 87 L 7 77 L 8 27 L 17 27 L 31 24 L 47 16 Z M 51 37 L 47 39 L 41 47 L 41 58 L 35 63 L 33 68 L 34 95 L 39 101 L 42 102 L 73 102 L 79 98 L 81 93 L 81 67 L 74 57 L 74 51 L 71 44 L 63 37 L 60 36 Z M 40 68 L 42 66 L 58 67 L 72 66 L 75 69 L 75 92 L 71 96 L 67 96 L 66 95 L 43 96 L 40 93 Z M 53 74 L 54 85 L 57 88 L 60 85 L 61 76 L 60 74 Z M 51 44 L 54 43 L 60 43 L 62 44 L 67 49 L 67 57 L 64 60 L 49 60 L 47 58 L 47 50 Z" fill="currentColor" fill-rule="evenodd"/>
</svg>
