<svg xmlns="http://www.w3.org/2000/svg" width="122" height="76" viewBox="0 0 122 76" role="img" aria-hidden="true">
  <path d="M 0 15 L 0 20 L 3 23 L 6 22 L 12 26 L 17 31 L 18 35 L 21 38 L 19 40 L 15 37 L 3 37 L 1 38 L 0 41 L 4 45 L 6 45 L 10 48 L 14 49 L 29 48 L 32 50 L 34 53 L 32 55 L 28 55 L 24 57 L 23 59 L 24 62 L 28 64 L 36 64 L 44 60 L 49 60 L 55 62 L 57 64 L 51 68 L 50 70 L 51 74 L 55 75 L 62 74 L 67 71 L 72 66 L 90 66 L 99 64 L 117 56 L 121 52 L 117 51 L 111 55 L 101 59 L 93 60 L 89 57 L 88 51 L 82 45 L 80 45 L 74 40 L 70 41 L 69 46 L 72 49 L 74 49 L 82 58 L 88 60 L 86 62 L 73 62 L 58 59 L 53 54 L 54 41 L 47 30 L 44 31 L 43 33 L 43 43 L 48 52 L 45 54 L 38 50 L 33 45 L 32 43 L 33 29 L 30 24 L 26 23 L 23 26 L 23 29 L 25 32 L 23 34 L 21 32 L 20 23 L 22 17 L 22 13 L 16 1 L 12 1 L 11 12 L 8 16 Z M 57 69 L 59 67 L 64 68 L 61 71 Z M 29 58 L 31 57 L 36 59 L 34 61 Z M 9 40 L 12 40 L 14 43 L 9 44 Z M 46 37 L 49 38 L 49 42 L 47 42 L 45 40 Z M 17 9 L 18 11 L 14 12 Z" fill="currentColor" fill-rule="evenodd"/>
</svg>
