<svg xmlns="http://www.w3.org/2000/svg" width="202" height="182" viewBox="0 0 202 182" role="img" aria-hidden="true">
  <path d="M 21 7 L 16 11 L 9 19 L 4 28 L 0 42 L 0 57 L 4 74 L 11 88 L 22 103 L 31 113 L 75 156 L 82 166 L 83 171 L 85 170 L 86 164 L 74 148 L 30 105 L 21 94 L 20 90 L 13 82 L 7 67 L 5 54 L 6 39 L 10 27 L 14 21 L 25 11 L 36 6 L 53 5 L 62 10 L 65 10 L 69 12 L 73 17 L 79 22 L 88 36 L 91 27 L 94 22 L 107 10 L 112 9 L 114 7 L 120 5 L 131 5 L 145 9 L 151 15 L 153 15 L 159 21 L 164 30 L 167 42 L 167 58 L 163 73 L 157 89 L 153 92 L 153 96 L 151 98 L 151 100 L 141 112 L 140 109 L 144 102 L 149 98 L 150 94 L 148 92 L 149 76 L 147 70 L 147 65 L 145 63 L 143 63 L 141 69 L 136 77 L 134 86 L 135 102 L 137 108 L 136 114 L 131 124 L 110 147 L 109 143 L 118 128 L 120 117 L 120 110 L 117 97 L 114 93 L 112 95 L 107 104 L 104 114 L 105 147 L 101 156 L 96 161 L 91 170 L 86 175 L 85 177 L 86 181 L 89 179 L 90 176 L 97 169 L 104 166 L 112 166 L 120 169 L 128 169 L 141 164 L 142 160 L 135 157 L 128 156 L 117 157 L 111 159 L 106 163 L 101 162 L 103 159 L 119 144 L 125 141 L 130 140 L 148 141 L 157 140 L 169 135 L 183 125 L 179 123 L 171 122 L 153 123 L 145 126 L 128 137 L 125 136 L 134 126 L 137 125 L 140 120 L 159 110 L 166 108 L 170 108 L 174 106 L 177 106 L 181 110 L 185 110 L 189 106 L 189 103 L 186 100 L 182 100 L 176 105 L 168 105 L 161 107 L 158 109 L 155 109 L 148 113 L 147 110 L 163 94 L 172 89 L 181 88 L 187 86 L 190 84 L 201 72 L 193 71 L 181 75 L 172 83 L 171 81 L 174 77 L 178 68 L 188 54 L 190 45 L 190 36 L 187 34 L 182 39 L 177 48 L 175 55 L 175 66 L 174 70 L 172 72 L 172 74 L 168 81 L 164 85 L 163 82 L 170 67 L 172 55 L 172 40 L 169 29 L 164 19 L 161 15 L 153 8 L 146 4 L 142 3 L 140 1 L 134 0 L 120 0 L 111 2 L 96 11 L 94 13 L 93 17 L 87 25 L 83 19 L 73 9 L 62 2 L 52 0 L 38 0 L 28 3 Z M 117 163 L 118 160 L 121 159 L 130 159 L 134 160 L 136 162 L 134 164 L 131 164 L 128 166 L 122 166 Z M 174 127 L 168 132 L 157 137 L 152 138 L 142 135 L 151 134 L 156 130 L 149 131 L 149 128 L 157 125 L 171 125 Z M 115 103 L 117 111 L 116 120 L 114 122 L 113 116 L 111 116 L 109 131 L 107 133 L 106 119 L 112 103 Z M 146 88 L 146 90 L 144 92 Z M 194 76 L 189 81 L 187 81 L 183 84 L 180 85 L 176 83 L 179 80 L 189 75 Z M 145 73 L 146 75 L 146 83 L 144 85 L 142 84 L 141 86 L 141 91 L 138 96 L 137 88 L 141 74 Z M 187 44 L 186 50 L 183 54 L 183 56 L 181 58 L 178 57 L 181 46 L 183 43 Z" fill="currentColor" fill-rule="evenodd"/>
</svg>
