<svg xmlns="http://www.w3.org/2000/svg" width="295" height="213" viewBox="0 0 295 213" role="img" aria-hidden="true">
  <path d="M 186 180 L 186 184 L 189 186 L 192 182 L 190 180 Z M 148 180 L 149 185 L 151 185 L 154 182 L 152 180 Z M 156 164 L 155 166 L 155 168 L 153 171 L 153 173 L 156 171 L 158 165 Z M 180 162 L 181 167 L 184 172 L 185 168 L 182 162 Z M 124 151 L 119 151 L 119 155 L 121 157 Z M 214 151 L 215 156 L 218 156 L 220 154 L 220 152 L 218 150 Z M 214 111 L 214 115 L 216 117 L 220 114 L 220 112 L 218 110 Z M 119 114 L 121 116 L 123 116 L 126 112 L 124 110 L 119 111 Z M 277 86 L 275 87 L 272 95 L 267 101 L 262 113 L 262 129 L 264 135 L 264 140 L 257 157 L 255 159 L 254 156 L 257 148 L 257 141 L 252 128 L 250 129 L 246 141 L 246 147 L 250 157 L 249 166 L 246 171 L 231 185 L 230 182 L 238 172 L 241 163 L 241 156 L 239 150 L 239 146 L 236 147 L 232 153 L 229 161 L 229 181 L 225 186 L 224 189 L 219 194 L 214 197 L 206 198 L 212 193 L 216 187 L 218 180 L 216 175 L 208 182 L 203 197 L 197 203 L 190 206 L 180 208 L 155 208 L 137 204 L 117 194 L 108 187 L 95 173 L 95 175 L 101 183 L 110 192 L 121 200 L 139 208 L 158 212 L 178 212 L 194 209 L 205 205 L 227 194 L 236 194 L 248 199 L 256 199 L 273 192 L 274 190 L 263 185 L 249 183 L 247 185 L 243 185 L 239 187 L 236 186 L 252 171 L 259 168 L 271 167 L 278 164 L 283 160 L 288 154 L 294 142 L 285 143 L 277 146 L 267 152 L 263 152 L 263 150 L 265 147 L 265 144 L 268 138 L 276 129 L 281 117 L 281 100 Z M 243 192 L 253 192 L 255 190 L 248 187 L 250 186 L 259 187 L 264 189 L 266 191 L 262 194 L 254 196 L 246 196 Z M 215 183 L 212 189 L 209 192 L 208 188 L 211 183 Z M 238 155 L 239 160 L 232 169 L 231 163 L 234 156 Z M 263 152 L 264 154 L 259 161 L 258 158 Z M 288 148 L 285 153 L 276 162 L 271 163 L 268 165 L 266 162 L 270 161 L 276 156 L 277 154 L 275 154 L 272 156 L 270 153 L 280 148 L 284 147 Z M 251 137 L 253 139 L 251 142 L 249 140 Z M 275 97 L 277 99 L 278 103 L 278 117 L 276 123 L 271 130 L 270 126 L 272 119 L 270 118 L 269 123 L 266 127 L 265 113 L 272 99 Z M 190 81 L 186 82 L 187 88 L 189 88 L 192 85 L 192 83 Z M 151 81 L 148 82 L 148 86 L 151 88 L 154 85 L 153 82 Z M 170 0 L 168 0 L 168 3 L 167 4 L 168 85 L 167 114 L 165 116 L 157 97 L 154 95 L 162 117 L 160 119 L 131 91 L 129 91 L 129 93 L 153 119 L 152 123 L 143 121 L 135 117 L 132 117 L 134 120 L 141 122 L 153 128 L 151 130 L 142 131 L 102 131 L 103 135 L 141 135 L 154 137 L 151 140 L 141 145 L 138 145 L 132 148 L 131 150 L 134 150 L 152 142 L 156 143 L 135 166 L 131 172 L 131 175 L 155 151 L 158 149 L 160 152 L 159 160 L 161 158 L 163 153 L 165 152 L 167 154 L 167 180 L 169 196 L 171 194 L 172 184 L 172 154 L 173 152 L 176 152 L 178 157 L 179 147 L 196 164 L 208 171 L 189 150 L 187 143 L 189 143 L 204 150 L 208 149 L 204 146 L 197 143 L 194 143 L 188 140 L 187 136 L 200 135 L 235 135 L 237 133 L 235 131 L 194 131 L 186 128 L 192 124 L 206 119 L 208 116 L 203 117 L 185 125 L 184 122 L 210 92 L 207 92 L 200 98 L 179 119 L 178 115 L 185 99 L 185 97 L 182 97 L 181 102 L 176 114 L 174 116 L 172 110 L 172 2 Z" fill="currentColor" fill-rule="evenodd"/>
</svg>
