<svg xmlns="http://www.w3.org/2000/svg" width="231" height="193" viewBox="0 0 231 193" role="img" aria-hidden="true">
  <path d="M 162 32 L 152 38 L 147 44 L 145 61 L 141 67 L 136 52 L 131 50 L 129 56 L 129 67 L 136 80 L 134 92 L 132 94 L 129 87 L 121 79 L 119 79 L 119 91 L 120 94 L 130 105 L 129 121 L 131 120 L 133 112 L 137 108 L 148 105 L 156 97 L 157 94 L 156 90 L 147 92 L 140 97 L 135 105 L 134 98 L 138 86 L 144 81 L 151 80 L 157 77 L 161 73 L 165 66 L 165 64 L 163 64 L 159 66 L 153 66 L 149 68 L 140 80 L 140 75 L 142 73 L 146 62 L 160 51 L 163 42 Z M 154 95 L 149 101 L 146 99 L 148 98 L 149 94 Z M 159 71 L 153 73 L 154 71 L 156 69 Z M 136 58 L 132 59 L 134 56 Z M 157 38 L 160 39 L 160 42 L 157 49 L 155 51 L 154 48 L 156 44 L 153 45 L 152 43 L 153 41 Z M 0 14 L 0 172 L 4 175 L 80 174 L 86 175 L 92 180 L 104 182 L 102 184 L 100 184 L 92 189 L 92 192 L 111 183 L 123 183 L 130 186 L 136 186 L 148 183 L 149 181 L 147 181 L 145 179 L 142 179 L 136 176 L 129 176 L 123 178 L 123 174 L 135 168 L 146 168 L 158 175 L 167 178 L 180 178 L 187 176 L 200 169 L 201 167 L 190 165 L 184 162 L 172 159 L 162 159 L 152 162 L 146 165 L 142 163 L 162 150 L 170 147 L 181 146 L 195 150 L 200 150 L 210 147 L 218 142 L 230 129 L 230 127 L 202 129 L 190 133 L 178 142 L 177 140 L 195 121 L 204 116 L 213 105 L 216 99 L 218 91 L 215 69 L 212 74 L 204 81 L 197 89 L 191 102 L 190 120 L 185 128 L 173 139 L 164 145 L 163 142 L 174 130 L 179 120 L 178 100 L 176 100 L 176 102 L 168 110 L 164 118 L 163 122 L 163 138 L 159 146 L 153 152 L 139 161 L 137 161 L 128 168 L 127 165 L 141 153 L 147 144 L 151 127 L 150 123 L 148 123 L 134 137 L 129 149 L 128 160 L 124 167 L 116 175 L 115 172 L 119 166 L 119 162 L 120 162 L 123 158 L 120 157 L 109 162 L 104 162 L 104 15 L 110 11 L 123 7 L 135 5 L 169 5 L 183 8 L 185 10 L 185 96 L 187 95 L 187 92 L 189 88 L 193 84 L 194 69 L 193 26 L 195 19 L 197 19 L 199 21 L 200 77 L 204 74 L 204 16 L 202 14 L 194 14 L 190 12 L 190 6 L 188 4 L 161 0 L 142 0 L 132 1 L 113 5 L 101 11 L 94 7 L 72 1 L 41 0 L 16 3 L 14 5 L 14 11 L 11 14 Z M 132 179 L 136 179 L 140 181 L 138 183 L 134 183 L 132 182 Z M 95 176 L 96 174 L 109 175 L 107 177 Z M 75 169 L 76 167 L 80 168 L 78 170 Z M 19 166 L 66 165 L 72 166 L 74 168 L 72 170 L 57 169 L 21 170 L 19 169 Z M 157 171 L 157 168 L 169 169 L 175 168 L 163 166 L 162 162 L 167 161 L 177 162 L 187 166 L 191 169 L 189 171 L 179 175 L 166 175 Z M 19 160 L 38 157 L 61 157 L 69 159 L 67 161 L 49 160 L 24 163 Z M 142 148 L 141 150 L 137 154 L 136 151 L 138 148 Z M 15 147 L 16 161 L 12 162 Z M 15 134 L 15 138 L 13 140 Z M 188 144 L 190 142 L 194 142 L 202 139 L 205 139 L 207 137 L 198 138 L 194 135 L 202 132 L 222 133 L 214 141 L 204 146 L 194 147 Z M 146 132 L 146 136 L 144 142 L 142 144 L 138 144 L 136 149 L 133 152 L 132 148 L 137 138 Z M 175 124 L 174 127 L 172 129 L 171 126 L 172 124 Z M 176 110 L 176 119 L 174 121 L 171 120 L 169 127 L 167 129 L 166 121 L 170 113 Z M 215 79 L 215 88 L 212 100 L 208 107 L 199 116 L 198 114 L 202 108 L 206 96 L 204 97 L 195 112 L 194 105 L 196 97 L 201 89 L 212 78 Z M 15 34 L 15 40 L 13 42 Z M 5 18 L 7 18 L 9 20 L 9 165 L 11 166 L 12 168 L 10 170 L 6 170 L 4 168 Z M 21 7 L 29 7 L 36 5 L 67 5 L 84 8 L 90 10 L 100 16 L 100 161 L 97 163 L 85 157 L 66 153 L 33 153 L 26 155 L 19 154 L 19 9 Z M 36 117 L 37 120 L 80 117 Z M 36 98 L 37 101 L 81 98 Z M 37 82 L 40 83 L 43 82 L 46 83 L 58 82 L 59 83 L 81 83 L 83 81 L 81 79 Z M 36 58 L 37 61 L 74 62 L 81 58 Z M 36 37 L 37 40 L 49 39 L 81 40 L 83 38 Z" fill="currentColor" fill-rule="evenodd"/>
</svg>
