<svg xmlns="http://www.w3.org/2000/svg" width="298" height="273" viewBox="0 0 298 273" role="img" aria-hidden="true">
  <path d="M 267 256 L 267 271 L 269 270 L 272 264 L 275 269 L 279 270 L 279 256 L 277 256 L 277 263 L 275 265 L 270 257 Z M 237 256 L 235 256 L 236 272 L 238 270 Z M 229 256 L 218 256 L 219 258 L 221 258 L 223 260 L 222 269 L 223 272 L 225 270 L 226 258 Z M 206 256 L 201 271 L 205 268 L 210 268 L 213 272 L 214 268 L 212 265 L 212 262 L 209 256 Z M 185 256 L 185 263 L 184 264 L 185 272 L 190 268 L 193 272 L 194 269 L 192 267 L 192 264 L 194 258 L 191 256 Z M 188 258 L 191 259 L 191 261 L 187 262 Z M 165 256 L 166 272 L 171 272 L 177 267 L 178 265 L 177 260 L 173 256 Z M 168 258 L 172 258 L 175 261 L 175 266 L 171 270 L 169 270 L 167 268 Z M 146 256 L 151 265 L 151 271 L 153 270 L 153 266 L 156 259 L 158 257 L 155 257 L 150 260 Z M 127 256 L 127 271 L 129 270 L 130 265 L 135 265 L 137 267 L 137 271 L 139 270 L 137 256 L 137 260 L 134 263 L 131 263 L 129 261 L 129 256 Z M 251 255 L 248 256 L 245 259 L 244 264 L 245 265 L 245 268 L 249 272 L 255 272 L 260 267 L 260 261 L 256 256 Z M 248 259 L 255 258 L 258 261 L 258 265 L 254 270 L 250 270 L 247 266 L 247 261 Z M 145 149 L 146 156 L 149 165 L 157 176 L 161 180 L 169 184 L 175 186 L 181 185 L 173 183 L 163 177 L 153 166 Z M 202 115 L 202 119 L 200 124 L 195 129 L 193 129 L 191 131 L 197 133 L 200 136 L 202 141 L 202 145 L 204 144 L 204 139 L 206 135 L 209 132 L 212 132 L 215 130 L 212 130 L 206 126 Z M 203 127 L 206 130 L 202 133 L 200 131 L 200 129 Z M 225 92 L 227 104 L 227 112 L 229 111 L 230 106 L 228 96 Z M 0 83 L 0 118 L 5 121 L 2 122 L 0 121 L 0 214 L 7 214 L 13 210 L 15 205 L 15 130 L 13 124 L 7 118 L 4 117 L 1 114 L 1 110 L 4 107 L 4 85 L 2 83 Z M 4 122 L 6 121 L 8 123 L 6 124 Z M 193 0 L 185 24 L 176 42 L 145 91 L 138 106 L 134 118 L 131 134 L 132 155 L 137 172 L 146 186 L 153 193 L 163 200 L 173 204 L 181 206 L 185 206 L 187 204 L 185 202 L 180 202 L 173 200 L 161 194 L 157 191 L 145 178 L 140 168 L 136 155 L 135 137 L 138 118 L 144 102 L 152 87 L 176 50 L 186 32 L 193 14 L 195 13 L 198 17 L 200 24 L 210 44 L 218 56 L 220 61 L 235 83 L 248 109 L 253 128 L 253 149 L 252 156 L 249 161 L 247 140 L 246 138 L 244 137 L 237 146 L 232 157 L 231 161 L 232 185 L 228 193 L 221 199 L 209 205 L 202 205 L 214 193 L 217 187 L 219 179 L 218 167 L 216 167 L 206 178 L 202 190 L 201 201 L 193 210 L 188 212 L 173 215 L 151 215 L 151 217 L 154 218 L 169 218 L 184 216 L 190 214 L 202 214 L 218 222 L 227 222 L 232 219 L 221 213 L 206 210 L 208 208 L 219 204 L 228 204 L 244 210 L 254 210 L 265 206 L 268 204 L 269 202 L 267 200 L 259 197 L 243 196 L 230 200 L 228 198 L 239 191 L 245 185 L 252 182 L 270 182 L 283 177 L 295 165 L 297 162 L 297 160 L 288 160 L 273 164 L 262 171 L 257 177 L 255 178 L 254 175 L 260 168 L 268 152 L 278 143 L 284 133 L 286 125 L 286 107 L 285 105 L 283 104 L 271 117 L 266 127 L 265 132 L 265 152 L 260 162 L 250 176 L 241 185 L 235 189 L 234 187 L 237 183 L 237 181 L 243 174 L 246 167 L 250 166 L 249 169 L 254 161 L 257 148 L 257 128 L 253 110 L 245 92 L 216 46 L 202 18 L 198 7 L 198 4 L 196 0 Z M 216 216 L 222 215 L 226 218 L 224 220 L 218 220 Z M 237 203 L 257 202 L 250 202 L 245 200 L 246 198 L 253 198 L 260 200 L 263 202 L 260 205 L 251 208 L 240 207 Z M 212 181 L 207 192 L 205 194 L 204 190 L 206 184 L 209 180 Z M 214 173 L 217 174 L 217 178 L 215 186 L 210 194 L 209 191 L 213 183 Z M 291 165 L 280 176 L 273 179 L 266 177 L 272 173 L 281 170 L 284 167 L 277 169 L 270 173 L 266 172 L 274 166 L 288 163 Z M 245 145 L 246 149 L 246 161 L 243 170 L 239 175 L 238 172 L 241 163 L 243 150 L 241 151 L 237 171 L 234 176 L 233 163 L 236 154 L 241 146 Z M 283 118 L 283 126 L 281 133 L 277 140 L 273 144 L 272 141 L 274 138 L 274 135 L 278 126 L 279 121 Z M 279 116 L 271 139 L 268 143 L 267 134 L 270 125 L 275 117 Z" fill="currentColor" fill-rule="evenodd"/>
</svg>
