<svg xmlns="http://www.w3.org/2000/svg" width="198" height="231" viewBox="0 0 198 231" role="img" aria-hidden="true">
  <path d="M 184 230 L 190 229 L 195 230 L 192 225 L 187 225 L 185 226 Z M 164 230 L 174 227 L 173 224 L 171 223 L 166 223 L 164 225 Z M 0 11 L 0 20 L 2 23 L 2 32 L 0 36 L 0 48 L 3 44 L 6 37 L 8 27 L 6 18 Z M 137 0 L 132 1 L 127 5 L 126 7 L 126 15 L 130 21 L 134 23 L 138 23 L 142 28 L 150 52 L 152 69 L 150 71 L 138 57 L 139 50 L 136 44 L 132 41 L 127 40 L 120 43 L 117 47 L 117 56 L 121 61 L 125 63 L 135 62 L 144 71 L 152 85 L 152 99 L 148 112 L 145 119 L 143 121 L 136 104 L 132 100 L 132 98 L 135 94 L 135 90 L 133 86 L 126 81 L 119 81 L 117 82 L 113 87 L 113 96 L 114 98 L 119 103 L 128 103 L 131 106 L 135 113 L 138 123 L 138 130 L 132 140 L 125 148 L 126 154 L 134 146 L 145 129 L 155 120 L 169 113 L 175 113 L 181 118 L 186 118 L 190 116 L 195 109 L 195 104 L 193 100 L 189 97 L 182 96 L 177 98 L 175 100 L 174 105 L 171 108 L 166 109 L 158 113 L 157 110 L 163 101 L 169 94 L 173 93 L 173 87 L 179 78 L 190 76 L 196 70 L 197 64 L 196 60 L 191 55 L 182 54 L 175 60 L 174 64 L 175 75 L 163 92 L 160 98 L 157 101 L 156 98 L 158 89 L 157 65 L 161 49 L 165 40 L 171 40 L 173 39 L 178 34 L 180 29 L 177 21 L 173 18 L 166 17 L 162 19 L 157 26 L 158 33 L 161 37 L 157 45 L 157 48 L 155 50 L 153 48 L 148 29 L 144 22 L 144 20 L 148 16 L 148 9 L 143 2 Z M 181 101 L 187 101 L 190 104 L 190 109 L 185 113 L 181 112 L 178 109 L 179 102 Z M 120 86 L 126 86 L 130 90 L 130 94 L 125 99 L 122 99 L 117 93 L 117 90 Z M 182 59 L 188 59 L 192 63 L 192 67 L 187 72 L 184 72 L 179 67 L 180 61 Z M 126 45 L 131 46 L 134 50 L 134 53 L 129 58 L 125 58 L 122 55 L 122 48 Z M 167 22 L 172 23 L 175 27 L 175 30 L 170 35 L 166 35 L 162 31 L 162 26 Z M 134 5 L 139 5 L 143 9 L 144 12 L 139 18 L 134 18 L 131 15 L 132 6 Z" fill="currentColor" fill-rule="evenodd"/>
</svg>
