<svg xmlns="http://www.w3.org/2000/svg" width="224" height="226" viewBox="0 0 224 226" role="img" aria-hidden="true">
  <path d="M 12 100 L 7 100 L 0 102 L 0 108 L 3 107 L 6 108 L 5 117 L 0 134 L 0 149 L 5 139 L 9 126 L 10 116 L 14 104 L 14 102 Z M 151 82 L 144 93 L 138 105 L 132 123 L 132 147 L 133 151 L 140 167 L 152 180 L 153 186 L 152 195 L 150 197 L 144 182 L 134 171 L 124 163 L 111 158 L 102 156 L 87 157 L 87 162 L 96 183 L 101 190 L 109 198 L 115 202 L 124 206 L 137 209 L 144 208 L 148 209 L 151 213 L 152 223 L 155 225 L 158 222 L 158 213 L 162 208 L 179 208 L 192 203 L 200 198 L 208 190 L 214 182 L 221 168 L 223 161 L 222 157 L 212 156 L 197 158 L 182 165 L 176 170 L 169 178 L 165 185 L 162 188 L 162 191 L 159 195 L 158 180 L 159 178 L 165 173 L 174 157 L 176 149 L 177 133 L 176 132 L 176 124 L 173 112 L 170 105 L 168 103 L 168 101 L 163 94 L 158 84 L 155 81 Z M 215 163 L 214 169 L 209 179 L 204 186 L 197 193 L 183 201 L 170 203 L 166 202 L 165 197 L 172 183 L 180 174 L 189 168 L 199 164 L 211 162 Z M 95 162 L 110 164 L 116 166 L 128 173 L 136 181 L 143 193 L 145 201 L 143 203 L 130 202 L 124 200 L 113 194 L 102 182 L 101 178 L 95 168 L 94 165 Z M 154 91 L 162 102 L 167 113 L 171 126 L 172 136 L 169 153 L 164 164 L 159 170 L 157 151 L 157 131 L 156 129 L 152 129 L 151 132 L 153 168 L 150 170 L 146 166 L 140 154 L 138 146 L 138 124 L 144 106 L 147 102 L 147 100 L 151 93 Z M 124 0 L 113 0 L 104 4 L 105 8 L 110 7 Z" fill="currentColor" fill-rule="evenodd"/>
</svg>
