<svg xmlns="http://www.w3.org/2000/svg" width="151" height="263" viewBox="0 0 151 263" role="img" aria-hidden="true">
  <path d="M 68 112 L 51 115 L 36 122 L 26 129 L 16 139 L 9 150 L 2 167 L 0 180 L 0 192 L 2 205 L 9 223 L 18 236 L 27 245 L 35 251 L 47 257 L 56 260 L 68 262 L 80 262 L 96 259 L 116 250 L 136 231 L 141 223 L 148 207 L 150 198 L 150 175 L 147 163 L 141 150 L 134 140 L 121 127 L 106 118 L 94 114 L 81 112 Z M 68 119 L 79 119 L 96 122 L 113 130 L 117 133 L 129 145 L 134 152 L 140 165 L 143 176 L 143 196 L 141 205 L 135 219 L 129 228 L 121 237 L 109 246 L 98 251 L 95 251 L 92 253 L 80 255 L 70 255 L 58 253 L 49 250 L 33 241 L 24 232 L 17 223 L 10 208 L 7 194 L 7 178 L 10 165 L 17 150 L 23 142 L 30 135 L 40 128 L 53 122 Z M 73 236 L 72 238 L 72 244 L 75 248 L 78 245 L 78 238 L 76 236 Z M 125 184 L 126 189 L 133 190 L 136 187 L 135 184 Z M 14 184 L 14 188 L 16 190 L 24 189 L 26 186 L 24 184 Z M 72 148 L 72 180 L 69 183 L 69 190 L 72 193 L 75 194 L 79 193 L 88 199 L 92 203 L 101 209 L 103 209 L 105 207 L 105 205 L 100 201 L 97 197 L 93 196 L 86 191 L 82 187 L 82 184 L 78 180 L 77 147 Z M 73 126 L 72 128 L 72 136 L 75 138 L 78 135 L 78 128 L 76 126 Z M 33 0 L 39 3 L 80 3 L 86 2 L 90 3 L 105 3 L 114 2 L 116 0 Z M 5 0 L 12 13 L 19 22 L 27 30 L 37 37 L 47 42 L 67 47 L 83 47 L 89 46 L 105 41 L 116 35 L 125 28 L 133 20 L 141 9 L 145 0 L 137 0 L 134 7 L 128 15 L 115 27 L 111 28 L 107 32 L 99 36 L 89 39 L 81 40 L 70 40 L 58 38 L 41 31 L 32 25 L 21 14 L 13 0 Z" fill="currentColor" fill-rule="evenodd"/>
</svg>
