<svg xmlns="http://www.w3.org/2000/svg" width="140" height="502" viewBox="0 0 140 502" role="img" aria-hidden="true">
  <path d="M 111 0 L 107 1 L 97 8 L 86 20 L 80 31 L 77 49 L 79 69 L 73 92 L 71 106 L 68 111 L 69 115 L 66 118 L 64 107 L 62 103 L 63 92 L 65 84 L 65 75 L 63 66 L 58 52 L 48 40 L 46 36 L 34 25 L 31 25 L 30 27 L 31 33 L 30 45 L 31 64 L 33 73 L 39 86 L 43 92 L 50 98 L 58 107 L 62 125 L 61 154 L 59 158 L 59 162 L 57 165 L 57 168 L 54 171 L 51 167 L 52 160 L 51 146 L 47 135 L 44 130 L 30 115 L 23 110 L 18 110 L 19 130 L 22 144 L 29 156 L 35 162 L 45 167 L 47 169 L 50 181 L 50 191 L 43 219 L 41 232 L 41 241 L 39 243 L 36 238 L 37 232 L 34 219 L 27 206 L 15 194 L 3 187 L 0 188 L 2 208 L 9 223 L 16 232 L 21 236 L 28 240 L 30 240 L 34 244 L 37 251 L 37 254 L 40 258 L 42 276 L 40 278 L 34 272 L 33 266 L 29 263 L 23 264 L 21 268 L 21 271 L 25 276 L 32 276 L 36 280 L 42 289 L 46 299 L 47 307 L 49 310 L 52 320 L 53 328 L 57 335 L 58 339 L 56 341 L 50 335 L 49 330 L 41 317 L 34 310 L 27 305 L 12 299 L 7 300 L 8 306 L 13 317 L 22 329 L 32 336 L 39 339 L 47 340 L 60 353 L 65 361 L 69 374 L 69 376 L 66 379 L 62 376 L 62 373 L 59 369 L 53 368 L 51 369 L 49 372 L 49 376 L 53 381 L 60 380 L 65 385 L 69 391 L 74 403 L 75 410 L 75 437 L 74 442 L 70 443 L 67 437 L 66 426 L 63 416 L 59 407 L 56 403 L 44 392 L 33 386 L 30 383 L 23 380 L 21 380 L 20 382 L 22 396 L 28 413 L 33 421 L 43 431 L 53 437 L 60 439 L 64 443 L 67 449 L 69 457 L 69 466 L 65 480 L 59 494 L 59 499 L 62 501 L 67 495 L 75 471 L 81 446 L 81 432 L 85 419 L 90 410 L 103 400 L 110 391 L 115 381 L 118 370 L 119 361 L 118 357 L 114 357 L 104 363 L 94 373 L 87 388 L 86 392 L 86 407 L 83 411 L 81 404 L 81 396 L 78 381 L 78 373 L 79 370 L 85 363 L 86 359 L 92 355 L 101 356 L 103 355 L 107 350 L 107 345 L 105 342 L 101 340 L 98 340 L 93 342 L 92 348 L 81 358 L 79 361 L 78 350 L 80 343 L 96 328 L 103 316 L 107 300 L 108 289 L 107 273 L 105 271 L 103 271 L 97 276 L 85 289 L 78 300 L 73 314 L 73 333 L 75 339 L 74 348 L 71 351 L 69 349 L 63 331 L 62 325 L 61 304 L 63 287 L 68 275 L 68 272 L 71 269 L 81 265 L 91 258 L 99 250 L 104 243 L 112 224 L 115 206 L 114 196 L 110 196 L 97 205 L 95 205 L 92 207 L 77 221 L 71 230 L 68 236 L 65 246 L 64 268 L 62 271 L 57 293 L 57 299 L 53 300 L 53 296 L 51 291 L 48 272 L 48 235 L 49 226 L 51 221 L 52 211 L 61 194 L 71 184 L 76 181 L 81 180 L 85 184 L 91 185 L 94 184 L 101 176 L 100 169 L 96 165 L 94 164 L 85 164 L 81 168 L 80 173 L 77 176 L 72 178 L 64 184 L 59 190 L 58 186 L 66 162 L 70 155 L 81 142 L 86 142 L 103 137 L 117 127 L 123 120 L 134 97 L 135 89 L 130 88 L 109 95 L 97 102 L 88 111 L 81 124 L 77 139 L 69 147 L 68 142 L 69 141 L 69 136 L 71 132 L 71 127 L 76 110 L 90 89 L 101 77 L 117 65 L 120 65 L 124 68 L 129 69 L 134 67 L 139 60 L 139 53 L 134 47 L 132 46 L 123 46 L 121 47 L 117 53 L 117 59 L 103 69 L 86 86 L 80 94 L 79 89 L 80 88 L 80 83 L 85 68 L 101 53 L 109 41 L 111 35 L 113 15 L 113 2 Z M 29 393 L 35 400 L 36 403 L 43 409 L 47 417 L 54 425 L 57 430 L 55 432 L 46 427 L 37 418 L 34 413 L 34 411 L 31 407 L 27 395 Z M 32 390 L 46 400 L 51 405 L 52 408 L 57 414 L 59 420 L 57 422 L 40 403 L 40 399 L 37 399 L 30 392 Z M 113 366 L 111 377 L 108 384 L 103 392 L 95 400 L 94 397 L 101 385 L 101 381 L 93 392 L 92 387 L 100 374 L 110 365 Z M 98 344 L 100 344 L 102 347 L 99 349 L 97 347 Z M 15 306 L 17 306 L 28 312 L 32 316 L 29 318 L 23 314 L 34 325 L 38 333 L 30 329 L 23 322 L 14 308 Z M 102 289 L 102 296 L 99 311 L 90 327 L 84 333 L 83 328 L 87 321 L 88 315 L 92 308 L 94 299 L 97 294 L 98 290 Z M 101 283 L 95 292 L 93 299 L 86 309 L 82 318 L 80 327 L 78 329 L 77 324 L 78 323 L 79 314 L 81 310 L 81 306 L 86 298 L 86 296 L 91 290 Z M 109 205 L 109 211 L 106 226 L 101 235 L 100 239 L 96 245 L 88 253 L 74 262 L 73 259 L 75 254 L 82 242 L 88 235 L 98 219 L 94 222 L 91 227 L 84 233 L 84 236 L 77 242 L 72 253 L 70 255 L 69 249 L 74 235 L 80 228 L 84 221 L 103 206 Z M 8 196 L 14 200 L 26 213 L 29 219 L 27 221 L 21 215 L 19 211 L 15 209 L 19 219 L 27 230 L 25 232 L 15 222 L 14 218 L 10 214 L 8 210 L 8 206 L 6 202 Z M 86 172 L 87 168 L 92 168 L 95 171 L 90 176 Z M 26 127 L 31 134 L 32 138 L 36 144 L 36 146 L 40 153 L 41 158 L 39 158 L 32 151 L 28 144 L 24 129 Z M 30 125 L 32 124 L 40 133 L 44 140 L 45 144 L 43 146 L 41 144 L 35 131 Z M 128 96 L 127 101 L 123 110 L 116 120 L 106 129 L 96 134 L 89 136 L 88 133 L 113 110 L 111 109 L 109 111 L 107 111 L 102 114 L 87 128 L 86 124 L 93 113 L 99 107 L 112 99 L 115 99 L 118 97 L 125 95 Z M 124 51 L 130 51 L 134 54 L 135 56 L 134 59 L 130 63 L 127 63 L 122 59 L 121 55 Z M 38 36 L 43 41 L 51 52 L 56 61 L 58 67 L 60 86 L 58 88 L 56 85 L 55 77 L 52 68 L 49 67 L 44 52 L 42 50 L 45 64 L 49 73 L 53 90 L 51 92 L 49 89 L 49 85 L 45 84 L 42 81 L 37 66 L 36 56 Z M 108 9 L 107 30 L 103 42 L 88 58 L 87 55 L 92 45 L 93 39 L 104 16 L 102 15 L 101 19 L 86 46 L 85 53 L 83 55 L 82 46 L 84 35 L 86 33 L 92 20 L 105 8 Z" fill="currentColor" fill-rule="evenodd"/>
</svg>
