<svg xmlns="http://www.w3.org/2000/svg" width="99" height="261" viewBox="0 0 99 261" role="img" aria-hidden="true">
  <path d="M 88 252 L 84 253 L 79 260 L 89 260 Z M 0 253 L 1 260 L 9 260 L 5 253 Z M 45 225 L 42 226 L 37 244 L 35 260 L 40 260 L 42 243 L 46 240 L 48 247 L 49 260 L 54 260 L 51 240 L 47 227 Z M 21 0 L 21 4 L 26 17 L 36 26 L 42 28 L 47 28 L 52 33 L 56 39 L 54 42 L 50 38 L 44 36 L 41 31 L 38 35 L 30 36 L 28 38 L 28 41 L 33 47 L 41 52 L 50 53 L 56 51 L 60 53 L 65 59 L 68 79 L 66 81 L 64 74 L 56 66 L 49 63 L 40 63 L 40 68 L 44 76 L 52 83 L 61 84 L 66 90 L 65 101 L 62 110 L 58 117 L 50 126 L 49 123 L 52 119 L 54 111 L 53 106 L 49 99 L 44 98 L 40 107 L 40 117 L 44 124 L 41 133 L 33 140 L 20 144 L 8 145 L 8 147 L 10 149 L 20 149 L 31 146 L 37 143 L 47 143 L 55 148 L 64 149 L 73 145 L 75 143 L 75 141 L 67 135 L 64 134 L 54 135 L 51 133 L 59 124 L 65 113 L 72 106 L 74 105 L 81 105 L 87 103 L 94 96 L 98 87 L 97 82 L 92 82 L 84 84 L 78 88 L 74 94 L 73 98 L 71 100 L 70 96 L 72 90 L 73 79 L 77 71 L 79 69 L 84 67 L 89 62 L 92 55 L 93 45 L 91 39 L 87 39 L 79 45 L 74 54 L 74 67 L 72 69 L 70 64 L 69 56 L 66 50 L 66 43 L 68 36 L 73 31 L 76 25 L 76 15 L 73 4 L 71 2 L 67 3 L 61 13 L 60 16 L 61 32 L 59 35 L 56 32 L 54 27 L 50 24 L 49 18 L 47 14 L 39 6 L 29 1 Z M 54 139 L 60 138 L 61 139 L 65 139 L 68 141 L 65 144 L 58 144 L 55 143 Z M 48 105 L 50 112 L 49 116 L 46 119 L 44 115 L 44 108 Z M 89 90 L 90 93 L 85 98 L 79 101 L 77 99 L 77 97 L 84 89 Z M 91 87 L 93 89 L 91 91 Z M 45 69 L 46 67 L 53 69 L 56 73 L 53 76 L 50 76 Z M 88 47 L 87 56 L 79 65 L 78 56 L 79 53 L 85 46 Z M 35 42 L 36 40 L 42 40 L 45 41 L 49 46 L 47 48 L 43 48 L 40 47 Z M 68 11 L 71 12 L 72 22 L 70 28 L 65 30 L 64 18 L 66 13 Z M 30 11 L 36 10 L 42 15 L 45 20 L 40 22 L 36 21 L 32 17 Z" fill="currentColor" fill-rule="evenodd"/>
</svg>
