<svg xmlns="http://www.w3.org/2000/svg" width="122" height="259" viewBox="0 0 122 259" role="img" aria-hidden="true">
  <path d="M 5 114 L 2 118 L 0 124 L 1 149 L 1 210 L 0 211 L 1 229 L 0 237 L 1 246 L 3 250 L 9 256 L 14 258 L 107 258 L 112 256 L 120 248 L 121 245 L 121 123 L 118 116 L 110 111 L 93 110 L 87 105 L 77 105 L 75 103 L 74 97 L 68 91 L 65 90 L 56 90 L 52 92 L 48 96 L 47 101 L 43 105 L 34 105 L 31 106 L 27 110 L 14 110 L 10 111 Z M 12 119 L 15 118 L 27 118 L 30 121 L 30 131 L 34 134 L 88 134 L 92 130 L 93 118 L 106 118 L 113 123 L 114 127 L 114 241 L 109 248 L 105 250 L 17 250 L 13 249 L 9 245 L 8 242 L 8 124 Z M 56 221 L 57 227 L 60 228 L 96 228 L 100 225 L 100 222 L 98 220 L 58 220 Z M 44 217 L 42 215 L 39 215 L 34 219 L 29 225 L 25 222 L 20 223 L 21 227 L 29 234 L 32 232 L 44 219 Z M 55 191 L 56 195 L 59 197 L 75 196 L 92 196 L 93 197 L 96 197 L 100 194 L 100 191 L 98 189 L 57 189 Z M 44 187 L 42 185 L 38 185 L 29 194 L 24 190 L 22 190 L 20 192 L 21 196 L 29 203 Z M 56 160 L 57 164 L 97 165 L 100 162 L 100 160 L 98 158 L 58 158 Z M 42 153 L 37 154 L 29 163 L 26 160 L 20 161 L 21 165 L 28 172 L 30 172 L 43 158 L 44 155 Z M 38 113 L 51 113 L 54 110 L 54 102 L 57 98 L 64 98 L 67 102 L 68 111 L 70 113 L 83 113 L 85 115 L 85 123 L 82 126 L 39 126 L 37 124 Z M 47 0 L 39 0 L 37 6 L 37 11 L 39 13 L 41 13 L 44 10 L 45 3 Z" fill="currentColor" fill-rule="evenodd"/>
</svg>
