<svg xmlns="http://www.w3.org/2000/svg" viewBox="0 0 64 64" fill="none" stroke="currentColor" stroke-width="1.12" stroke-linecap="round" stroke-linejoin="round">
  <title>Jawline Contour</title>
  <path d="M39 13 C29 16 24 25 26 34 C27 40 31 44 38 46"/><path d="M36 29 C34 36 31 45 25 53"/><path d="M38 46 C44 49 50 48 54 43"/><path d="M26 36 C35 35 43 33 50 28"/><g transform="translate(47 45) rotate(-20) scale(0.34)">
  <path d="M0 0 C4 -5 10 -5 14 0 C10 5 4 5 0 0Z"/>
  <path d="M1 0 C5 .2 9 .1 13 0"/>
</g>
</svg>
