<svg xmlns="http://www.w3.org/2000/svg" width="122" height="122" viewBox="0 0 122 122" role="img" aria-hidden="true">
  <path d="M 67 47 L 59 43 L 54 43 L 53 42 L 41 44 L 37 46 L 30 52 L 5 78 L 1 87 L 0 96 L 1 97 L 2 104 L 5 110 L 12 117 L 21 121 L 34 120 L 42 116 L 67 90 L 66 86 L 59 86 L 35 110 L 28 113 L 21 112 L 17 110 L 11 104 L 9 99 L 9 88 L 11 84 L 42 53 L 47 51 L 57 51 L 61 53 L 67 59 L 70 59 L 73 54 Z M 109 4 L 100 0 L 88 0 L 79 4 L 55 28 L 54 32 L 57 36 L 59 36 L 85 10 L 91 8 L 98 8 L 103 10 L 109 15 L 112 21 L 112 31 L 110 35 L 85 61 L 74 70 L 65 70 L 59 67 L 55 63 L 50 62 L 48 64 L 48 68 L 55 75 L 60 78 L 64 79 L 73 79 L 81 76 L 88 70 L 117 40 L 119 37 L 121 30 L 121 22 L 117 12 L 114 8 Z" fill="currentColor" fill-rule="evenodd"/>
</svg>
