<svg xmlns="http://www.w3.org/2000/svg" width="329" height="260" viewBox="0 0 329 260" role="img" aria-hidden="true">
  <path d="M 194 259 L 204 259 L 201 256 L 195 257 Z M 328 203 L 324 203 L 317 201 L 310 201 L 302 203 L 293 209 L 290 215 L 289 221 L 286 224 L 271 225 L 264 219 L 260 219 L 258 221 L 258 227 L 260 229 L 264 229 L 267 226 L 287 226 L 290 229 L 292 235 L 298 241 L 302 243 L 310 243 L 314 241 L 318 237 L 318 231 L 311 231 L 313 237 L 309 241 L 303 241 L 294 233 L 292 229 L 293 224 L 296 224 L 312 216 L 328 216 L 328 213 L 315 213 L 312 215 L 306 216 L 297 221 L 292 221 L 294 213 L 302 206 L 308 204 L 320 204 L 325 206 L 328 206 Z M 38 0 L 29 12 L 29 14 L 26 18 L 23 27 L 23 40 L 28 56 L 26 93 L 24 95 L 22 85 L 19 78 L 9 64 L 4 61 L 4 82 L 7 92 L 13 102 L 23 112 L 25 117 L 25 134 L 27 149 L 25 151 L 23 147 L 21 136 L 11 125 L 5 120 L 0 119 L 5 143 L 13 155 L 18 159 L 21 160 L 26 165 L 30 171 L 35 187 L 40 197 L 39 200 L 32 191 L 26 185 L 20 181 L 6 175 L 3 175 L 3 178 L 10 193 L 20 205 L 31 211 L 41 212 L 51 218 L 57 224 L 67 239 L 58 231 L 53 228 L 38 224 L 30 224 L 20 227 L 14 227 L 14 229 L 22 236 L 31 242 L 42 246 L 56 246 L 63 243 L 74 243 L 78 244 L 85 249 L 90 251 L 90 254 L 78 251 L 68 252 L 62 251 L 47 259 L 54 259 L 57 256 L 93 259 L 98 257 L 105 257 L 109 259 L 132 259 L 124 257 L 117 251 L 118 243 L 115 239 L 111 239 L 109 241 L 109 245 L 110 247 L 118 254 L 119 258 L 106 255 L 102 253 L 97 248 L 96 246 L 97 227 L 96 222 L 91 211 L 87 205 L 84 204 L 83 207 L 83 211 L 81 216 L 81 227 L 84 236 L 94 247 L 92 249 L 77 239 L 70 231 L 69 225 L 66 221 L 66 210 L 71 201 L 71 194 L 69 187 L 67 187 L 65 189 L 61 197 L 61 207 L 64 212 L 64 220 L 66 225 L 63 227 L 53 214 L 49 202 L 49 190 L 50 187 L 53 185 L 56 181 L 56 176 L 55 174 L 51 173 L 48 175 L 47 178 L 48 187 L 44 200 L 43 194 L 39 188 L 38 185 L 38 174 L 40 170 L 52 158 L 56 152 L 59 145 L 62 131 L 61 127 L 55 129 L 50 133 L 42 142 L 37 155 L 36 161 L 37 171 L 35 173 L 33 170 L 30 157 L 29 143 L 32 134 L 36 130 L 41 127 L 50 117 L 54 108 L 56 95 L 53 95 L 47 98 L 38 106 L 33 116 L 31 124 L 31 131 L 29 133 L 28 96 L 33 85 L 36 82 L 47 76 L 59 63 L 64 51 L 66 44 L 66 40 L 63 40 L 52 45 L 42 53 L 36 64 L 33 74 L 33 79 L 30 84 L 29 64 L 31 53 L 40 38 L 43 23 L 41 14 L 40 0 Z M 68 258 L 68 254 L 71 253 L 76 253 L 80 255 L 78 257 Z M 28 235 L 29 233 L 41 235 L 47 238 L 42 243 L 37 242 Z M 47 231 L 51 231 L 49 233 Z M 31 229 L 32 227 L 43 227 L 48 230 L 45 234 L 41 234 L 40 233 L 35 233 Z M 90 217 L 93 220 L 94 225 L 91 227 L 88 224 Z M 40 199 L 42 201 L 44 206 L 44 210 L 40 205 L 39 202 Z M 23 195 L 26 198 L 22 202 L 20 200 L 21 196 Z M 13 188 L 15 188 L 20 193 L 20 197 L 18 199 L 12 191 Z M 12 183 L 16 182 L 20 184 L 31 194 L 29 196 L 26 196 L 21 191 L 21 189 L 18 186 L 15 186 Z M 52 176 L 54 178 L 51 181 Z M 50 151 L 51 155 L 48 158 L 48 155 Z M 53 142 L 56 143 L 56 145 L 53 149 L 51 147 L 51 144 Z M 50 141 L 48 143 L 48 146 L 46 150 L 42 151 L 43 145 Z M 7 130 L 10 136 L 7 139 L 5 136 L 4 131 Z M 10 128 L 15 133 L 15 135 L 13 137 L 9 134 L 8 130 Z M 42 105 L 45 104 L 47 106 L 47 110 L 50 112 L 47 115 L 45 114 L 44 111 L 39 111 L 39 109 Z M 12 73 L 17 79 L 18 83 L 14 84 L 11 80 L 12 78 L 10 75 Z M 9 74 L 9 76 L 13 84 L 10 87 L 7 86 L 6 80 Z M 44 56 L 47 57 L 47 61 L 45 63 L 41 62 L 41 60 Z M 57 55 L 58 59 L 53 66 L 50 66 L 48 68 L 46 66 L 46 64 L 52 58 L 52 56 L 54 54 Z M 61 51 L 58 54 L 57 51 Z M 54 50 L 53 54 L 48 56 L 49 51 L 50 50 Z M 32 20 L 33 23 L 29 27 L 27 25 L 27 22 L 28 20 Z" fill="currentColor" fill-rule="evenodd"/>
</svg>
