<svg xmlns="http://www.w3.org/2000/svg" width="205" height="191" viewBox="0 0 205 191" role="img" aria-hidden="true">
  <path d="M 152 168 L 149 172 L 149 175 L 153 180 L 156 180 L 161 176 L 161 171 L 158 168 Z M 154 171 L 156 171 L 158 173 L 155 176 L 153 174 Z M 49 41 L 41 49 L 36 59 L 36 75 L 37 79 L 43 92 L 45 94 L 45 96 L 48 102 L 63 119 L 68 127 L 87 141 L 97 146 L 100 149 L 109 151 L 120 151 L 123 148 L 129 145 L 137 137 L 140 132 L 140 124 L 139 122 L 129 113 L 118 107 L 110 107 L 98 118 L 94 116 L 86 108 L 83 107 L 74 97 L 68 86 L 68 82 L 74 78 L 74 76 L 78 71 L 78 66 L 68 44 L 61 39 L 54 39 Z M 46 50 L 55 44 L 59 44 L 63 47 L 67 53 L 69 60 L 73 67 L 73 70 L 63 80 L 62 82 L 62 89 L 66 93 L 68 98 L 77 107 L 80 112 L 85 117 L 89 118 L 96 123 L 101 123 L 112 112 L 117 112 L 122 115 L 124 118 L 130 120 L 135 125 L 136 129 L 134 133 L 127 141 L 124 143 L 121 143 L 114 146 L 106 145 L 101 143 L 87 135 L 81 130 L 73 121 L 70 120 L 64 114 L 58 106 L 48 88 L 45 85 L 42 76 L 40 64 L 43 54 Z M 53 6 L 49 10 L 39 14 L 36 18 L 30 22 L 23 29 L 16 38 L 7 55 L 1 75 L 0 94 L 1 109 L 5 126 L 8 131 L 8 134 L 17 149 L 24 158 L 37 169 L 41 174 L 43 174 L 45 176 L 48 176 L 62 183 L 84 187 L 106 185 L 113 182 L 120 182 L 127 184 L 130 188 L 133 190 L 138 186 L 138 182 L 135 180 L 133 180 L 128 183 L 126 181 L 121 179 L 123 177 L 135 174 L 143 174 L 145 172 L 137 172 L 137 168 L 142 165 L 149 158 L 158 153 L 167 153 L 184 148 L 196 133 L 185 132 L 169 138 L 159 149 L 158 146 L 168 133 L 169 128 L 173 123 L 179 118 L 185 116 L 193 111 L 200 102 L 203 95 L 204 89 L 200 88 L 191 93 L 183 101 L 182 104 L 179 107 L 178 101 L 180 90 L 182 85 L 186 80 L 191 67 L 191 62 L 188 51 L 188 47 L 184 46 L 177 59 L 175 72 L 175 77 L 177 82 L 177 97 L 175 104 L 173 107 L 169 122 L 166 126 L 165 123 L 168 117 L 169 112 L 169 99 L 165 88 L 161 83 L 159 83 L 156 96 L 156 107 L 158 116 L 162 124 L 162 130 L 160 137 L 153 148 L 135 166 L 131 169 L 123 172 L 116 177 L 110 178 L 107 180 L 95 182 L 78 182 L 68 180 L 50 173 L 46 169 L 36 163 L 25 152 L 16 139 L 12 131 L 7 116 L 5 104 L 5 80 L 11 57 L 13 55 L 17 45 L 26 33 L 37 22 L 40 21 L 51 13 L 56 12 L 63 8 L 78 5 L 104 6 L 115 9 L 122 12 L 126 15 L 130 16 L 142 25 L 154 38 L 159 45 L 166 61 L 169 71 L 171 88 L 173 87 L 172 67 L 169 55 L 157 34 L 143 19 L 137 16 L 128 9 L 124 8 L 120 5 L 112 4 L 104 1 L 91 0 L 68 2 Z M 189 137 L 184 143 L 174 149 L 169 146 L 175 144 L 177 141 L 174 140 L 178 137 L 181 136 Z M 195 94 L 198 97 L 198 99 L 196 103 L 187 111 L 186 109 L 191 102 L 188 100 Z M 163 92 L 163 95 L 165 98 L 166 104 L 164 106 L 162 106 L 163 112 L 161 114 L 159 110 L 159 98 Z M 183 54 L 185 54 L 187 56 L 188 64 L 187 68 L 185 70 L 183 67 L 180 68 L 179 63 Z" fill="currentColor" fill-rule="evenodd"/>
</svg>
