<svg xmlns="http://www.w3.org/2000/svg" width="206" height="172" viewBox="0 0 206 172" role="img" aria-hidden="true">
  <path d="M 70 40 L 63 42 L 52 48 L 44 56 L 37 70 L 36 87 L 39 98 L 42 104 L 51 115 L 59 120 L 68 123 L 82 124 L 98 119 L 102 116 L 114 103 L 119 90 L 119 75 L 117 67 L 110 55 L 101 47 L 95 44 L 86 42 L 83 40 Z M 73 46 L 88 47 L 95 50 L 99 53 L 110 65 L 114 77 L 114 85 L 112 94 L 105 106 L 98 112 L 94 112 L 88 117 L 78 119 L 66 117 L 55 111 L 49 105 L 43 94 L 41 81 L 44 67 L 49 59 L 56 52 L 63 48 Z M 177 38 L 174 39 L 169 54 L 169 69 L 174 84 L 174 91 L 167 112 L 165 114 L 164 111 L 165 110 L 165 106 L 167 103 L 167 87 L 160 72 L 157 71 L 157 75 L 155 79 L 154 85 L 154 95 L 157 105 L 161 112 L 161 119 L 156 130 L 138 149 L 137 145 L 141 138 L 145 134 L 148 125 L 148 112 L 146 103 L 144 99 L 141 99 L 136 109 L 133 119 L 134 144 L 132 149 L 125 157 L 118 162 L 109 166 L 97 168 L 97 171 L 107 170 L 123 163 L 135 163 L 138 165 L 143 166 L 154 166 L 158 165 L 163 162 L 168 161 L 170 159 L 168 157 L 163 155 L 154 153 L 146 153 L 139 156 L 139 152 L 147 145 L 156 142 L 166 142 L 176 140 L 182 136 L 192 126 L 195 119 L 180 121 L 166 127 L 157 137 L 156 135 L 172 112 L 182 105 L 193 105 L 196 101 L 196 98 L 194 94 L 198 90 L 201 92 L 199 95 L 199 98 L 202 96 L 205 89 L 205 87 L 203 85 L 194 88 L 192 90 L 192 92 L 188 96 L 185 97 L 184 100 L 181 103 L 177 104 L 175 106 L 174 102 L 177 93 L 177 88 L 184 69 L 183 53 Z M 148 158 L 149 156 L 154 156 L 158 159 L 155 162 L 152 163 L 149 162 Z M 132 158 L 133 156 L 136 157 Z M 188 125 L 180 134 L 174 137 L 171 137 L 170 138 L 167 136 L 174 131 L 165 133 L 168 130 L 180 124 Z M 144 125 L 144 128 L 142 130 Z M 142 107 L 144 109 L 145 113 L 145 120 L 143 122 L 140 120 L 139 128 L 135 129 L 135 123 L 137 115 Z M 160 81 L 162 83 L 164 89 L 164 93 L 159 96 L 157 93 L 157 89 Z M 178 48 L 181 57 L 181 68 L 179 70 L 176 62 L 176 71 L 174 73 L 172 70 L 172 57 L 174 49 Z M 118 25 L 113 28 L 110 33 L 110 36 L 112 41 L 116 45 L 122 46 L 129 41 L 131 37 L 131 34 L 127 27 L 124 25 Z M 115 32 L 117 30 L 123 30 L 126 33 L 126 36 L 123 39 L 119 40 L 116 37 Z M 21 5 L 16 8 L 9 15 L 4 23 L 1 31 L 0 46 L 1 54 L 0 61 L 0 80 L 1 86 L 0 94 L 1 95 L 0 120 L 1 127 L 5 138 L 10 145 L 17 152 L 33 159 L 84 160 L 110 159 L 114 157 L 116 155 L 113 155 L 112 154 L 48 155 L 36 154 L 25 151 L 19 147 L 12 140 L 9 134 L 9 131 L 6 126 L 6 34 L 7 29 L 11 21 L 16 15 L 25 9 L 35 6 L 120 6 L 124 7 L 135 12 L 144 21 L 148 28 L 150 35 L 151 65 L 150 76 L 152 75 L 155 66 L 155 33 L 147 16 L 144 12 L 141 11 L 132 4 L 121 1 L 46 0 L 34 1 Z" fill="currentColor" fill-rule="evenodd"/>
</svg>
