<svg xmlns="http://www.w3.org/2000/svg" width="289" height="42" viewBox="0 0 289 42" role="img" aria-hidden="true">
  <path d="M 179 21 L 177 22 L 175 26 L 175 29 L 179 33 L 183 33 L 186 30 L 187 25 L 184 22 Z M 180 25 L 183 27 L 181 29 L 179 27 Z M 0 10 L 0 14 L 7 16 L 8 12 Z M 198 26 L 199 29 L 209 28 L 217 37 L 223 40 L 233 40 L 235 38 L 230 32 L 222 25 L 236 25 L 245 28 L 256 34 L 266 35 L 273 33 L 281 29 L 288 22 L 277 20 L 269 17 L 255 18 L 245 23 L 234 22 L 232 19 L 240 11 L 245 1 L 240 0 L 228 3 L 220 7 L 215 13 L 212 21 L 209 24 Z M 220 34 L 225 33 L 227 35 L 225 37 L 223 37 Z M 256 22 L 258 21 L 268 21 L 276 23 L 279 25 L 276 28 L 271 30 L 262 31 L 257 27 L 263 25 Z M 238 6 L 238 8 L 231 15 L 226 16 L 227 12 L 223 15 L 220 13 L 227 7 L 233 5 Z M 75 21 L 75 24 L 82 30 L 87 33 L 96 35 L 108 33 L 118 27 L 126 25 L 138 26 L 134 29 L 127 37 L 127 39 L 129 41 L 134 41 L 141 39 L 144 37 L 152 28 L 157 28 L 158 29 L 163 26 L 154 24 L 150 20 L 145 11 L 138 5 L 131 2 L 122 0 L 117 0 L 117 2 L 122 12 L 131 20 L 129 22 L 117 23 L 113 20 L 103 17 L 95 17 L 79 21 Z M 142 33 L 139 36 L 134 36 L 134 34 L 136 32 Z M 83 25 L 85 23 L 92 21 L 103 21 L 107 23 L 105 25 L 98 25 L 101 28 L 107 28 L 105 30 L 93 31 L 84 27 Z M 125 5 L 134 7 L 139 10 L 143 15 L 140 16 L 135 13 L 136 15 L 139 17 L 137 19 L 133 17 L 126 11 L 124 8 Z" fill="currentColor" fill-rule="evenodd"/>
</svg>
