<svg xmlns="http://www.w3.org/2000/svg" width="218" height="153" viewBox="0 0 218 153" role="img" aria-hidden="true">
  <path d="M 8 69 L 0 70 L 0 73 L 6 72 Z M 23 64 L 9 60 L 0 60 L 0 65 L 6 65 L 16 68 L 7 76 L 1 79 L 0 85 L 11 79 Z M 14 18 L 11 17 L 8 18 L 4 22 L 0 24 L 0 31 L 7 27 L 9 27 L 6 26 L 8 23 Z M 211 0 L 208 0 L 203 3 L 197 8 L 193 13 L 190 21 L 190 32 L 186 33 L 186 29 L 179 17 L 177 15 L 174 16 L 173 22 L 174 43 L 173 44 L 173 48 L 176 46 L 180 51 L 180 57 L 177 67 L 175 69 L 173 56 L 171 54 L 169 48 L 162 42 L 159 43 L 158 47 L 158 61 L 160 71 L 168 80 L 169 83 L 168 88 L 163 98 L 161 100 L 159 89 L 156 81 L 150 73 L 145 72 L 144 75 L 144 93 L 146 100 L 149 105 L 153 109 L 153 111 L 150 116 L 140 126 L 139 122 L 141 117 L 140 109 L 134 98 L 132 96 L 129 96 L 126 106 L 126 120 L 130 129 L 130 133 L 120 141 L 104 148 L 105 152 L 110 151 L 119 147 L 134 138 L 141 138 L 147 142 L 155 144 L 161 144 L 175 139 L 177 136 L 167 130 L 159 128 L 151 129 L 147 127 L 154 119 L 160 116 L 169 118 L 180 117 L 190 112 L 194 109 L 198 104 L 196 102 L 185 100 L 172 102 L 166 106 L 165 103 L 171 92 L 174 89 L 178 87 L 189 87 L 192 86 L 198 81 L 201 80 L 209 70 L 207 68 L 193 68 L 187 70 L 180 75 L 179 71 L 184 60 L 187 57 L 197 56 L 204 53 L 211 47 L 217 39 L 216 36 L 205 36 L 196 39 L 192 43 L 191 39 L 193 34 L 202 28 L 206 23 L 209 17 L 212 5 Z M 148 134 L 151 133 L 161 133 L 167 136 L 162 139 L 152 139 L 149 138 Z M 131 107 L 134 107 L 136 112 L 136 119 L 135 123 L 133 125 L 130 119 L 130 109 Z M 189 106 L 186 109 L 178 113 L 168 111 L 174 106 L 179 105 Z M 151 82 L 155 90 L 155 99 L 153 101 L 150 97 L 149 88 L 148 87 Z M 199 75 L 191 81 L 185 83 L 182 82 L 182 80 L 189 74 L 192 73 Z M 164 52 L 167 55 L 170 61 L 170 71 L 168 73 L 166 71 L 163 64 L 162 58 Z M 209 42 L 198 51 L 193 51 L 194 47 L 197 44 L 205 41 Z M 180 26 L 183 36 L 183 40 L 180 42 L 177 39 Z M 206 10 L 205 16 L 203 20 L 195 25 L 195 19 L 197 15 L 203 9 Z M 30 0 L 26 0 L 12 4 L 0 11 L 0 18 L 9 11 L 22 6 L 25 7 L 25 9 L 16 26 L 8 34 L 3 34 L 4 36 L 0 38 L 0 44 L 4 43 L 10 39 L 19 30 L 23 24 L 31 4 Z" fill="currentColor" fill-rule="evenodd"/>
</svg>
