<svg xmlns="http://www.w3.org/2000/svg" width="136" height="218" viewBox="0 0 136 218" role="img" aria-hidden="true">
  <path d="M 49 217 L 81 217 L 77 213 L 78 209 L 75 203 L 71 200 L 67 199 L 63 199 L 59 201 L 55 207 L 55 213 L 51 217 Z M 64 206 L 67 206 L 71 211 L 67 215 L 64 215 L 61 212 L 61 209 Z M 57 0 L 48 2 L 35 7 L 28 11 L 14 24 L 5 40 L 1 53 L 0 60 L 1 83 L 5 95 L 10 105 L 16 113 L 29 125 L 42 132 L 55 136 L 65 137 L 78 136 L 92 132 L 102 127 L 108 123 L 122 109 L 130 96 L 135 79 L 135 56 L 133 47 L 127 34 L 121 25 L 109 13 L 106 12 L 103 9 L 87 2 L 79 0 Z M 31 109 L 34 104 L 44 95 L 59 90 L 74 90 L 86 93 L 95 98 L 102 106 L 105 115 L 96 122 L 87 126 L 75 129 L 58 129 L 47 126 L 35 120 L 30 116 Z M 29 20 L 38 14 L 50 9 L 60 7 L 73 7 L 84 9 L 98 15 L 105 20 L 117 32 L 125 47 L 128 58 L 128 77 L 125 88 L 120 98 L 111 110 L 108 103 L 99 93 L 91 88 L 83 85 L 79 85 L 77 83 L 57 83 L 43 88 L 35 93 L 31 97 L 26 107 L 23 110 L 18 104 L 10 88 L 7 76 L 7 60 L 8 54 L 14 38 L 23 26 Z M 62 29 L 53 33 L 48 38 L 44 47 L 44 61 L 49 72 L 57 79 L 62 81 L 72 80 L 75 81 L 79 78 L 89 67 L 92 54 L 91 48 L 85 36 L 80 32 L 71 29 Z M 63 35 L 71 35 L 76 37 L 82 43 L 85 49 L 85 61 L 84 63 L 75 73 L 71 75 L 61 74 L 53 67 L 50 60 L 50 49 L 52 44 L 58 37 Z M 81 5 L 82 3 L 85 4 Z" fill="currentColor" fill-rule="evenodd"/>
</svg>
