<svg xmlns="http://www.w3.org/2000/svg" width="156" height="250" viewBox="0 0 156 250" role="img" aria-hidden="true">
  <path d="M 0 132 L 0 237 L 2 240 L 4 241 L 53 241 L 69 245 L 72 248 L 75 249 L 79 249 L 85 245 L 101 241 L 150 241 L 154 238 L 155 235 L 155 133 L 152 130 L 146 130 L 144 128 L 144 121 L 142 118 L 140 117 L 125 117 L 109 119 L 93 124 L 76 134 L 67 127 L 49 120 L 29 117 L 15 117 L 13 118 L 11 121 L 11 127 L 8 130 L 2 130 Z M 146 137 L 148 139 L 148 231 L 146 233 L 143 233 L 140 231 L 138 231 L 134 234 L 111 234 L 107 230 L 123 227 L 139 227 L 141 226 L 144 222 Z M 9 137 L 11 139 L 11 223 L 12 225 L 15 227 L 28 227 L 46 230 L 50 232 L 48 234 L 36 234 L 35 233 L 12 234 L 7 232 Z M 135 125 L 137 127 L 137 217 L 134 220 L 121 220 L 101 224 L 92 228 L 88 231 L 86 231 L 84 233 L 81 232 L 81 141 L 90 134 L 107 127 L 117 125 Z M 19 125 L 37 125 L 50 128 L 64 134 L 74 142 L 74 229 L 71 233 L 60 227 L 46 222 L 35 220 L 20 220 L 18 218 Z M 90 0 L 81 1 L 79 8 L 79 12 L 81 14 L 83 14 L 86 11 L 87 6 Z" fill="currentColor" fill-rule="evenodd"/>
</svg>
