<svg xmlns="http://www.w3.org/2000/svg" width="144" height="152" viewBox="0 0 144 152" role="img" aria-hidden="true">
  <path d="M 101 129 L 102 133 L 104 133 L 105 129 Z M 111 123 L 112 127 L 114 127 L 116 125 L 115 122 Z M 123 114 L 120 115 L 121 120 L 123 119 L 125 116 Z M 11 112 L 12 117 L 15 121 L 20 125 L 27 127 L 34 127 L 37 129 L 35 131 L 30 132 L 25 135 L 25 138 L 27 140 L 36 141 L 44 139 L 47 137 L 50 140 L 54 139 L 56 136 L 61 137 L 59 139 L 57 139 L 49 148 L 50 151 L 58 151 L 68 146 L 75 138 L 86 138 L 91 137 L 93 135 L 91 133 L 82 134 L 77 132 L 75 130 L 71 121 L 61 113 L 58 113 L 58 119 L 56 121 L 49 122 L 49 120 L 47 117 L 40 110 L 36 108 L 33 108 L 33 112 L 36 124 L 24 113 Z M 62 121 L 66 121 L 64 123 Z M 18 116 L 20 116 L 22 119 L 20 121 L 17 118 Z M 40 115 L 40 119 L 38 117 Z M 127 106 L 128 110 L 130 110 L 132 108 L 131 105 Z M 11 101 L 8 102 L 8 105 L 11 107 L 13 105 L 13 103 Z M 133 94 L 135 99 L 138 96 L 136 94 Z M 5 93 L 7 98 L 9 96 L 8 93 Z M 136 83 L 136 85 L 139 87 L 141 85 L 140 82 Z M 5 81 L 1 82 L 1 85 L 4 87 L 6 85 Z M 0 69 L 1 74 L 3 74 L 5 72 L 4 69 Z M 140 68 L 137 69 L 137 73 L 140 75 L 143 72 L 142 69 Z M 136 57 L 136 60 L 139 62 L 141 60 L 140 57 Z M 1 57 L 2 62 L 4 62 L 6 60 L 5 57 Z M 133 45 L 134 50 L 136 50 L 138 48 L 137 45 Z M 5 45 L 7 50 L 9 48 L 8 45 Z M 128 34 L 129 39 L 131 39 L 133 37 L 132 34 Z M 14 34 L 10 34 L 12 39 Z M 121 24 L 122 29 L 124 29 L 126 26 L 124 24 Z M 17 25 L 18 29 L 20 29 L 22 27 L 21 24 Z M 112 17 L 113 20 L 115 21 L 118 18 L 116 16 Z M 25 17 L 25 19 L 28 21 L 30 19 L 29 16 Z M 103 10 L 104 14 L 106 14 L 107 10 Z M 38 10 L 35 10 L 36 15 Z M 92 5 L 92 8 L 95 10 L 97 8 L 96 5 Z M 46 5 L 48 10 L 50 8 L 49 5 Z M 85 2 L 81 2 L 81 5 L 83 7 Z M 61 2 L 57 2 L 59 7 Z M 72 0 L 69 1 L 69 4 L 71 6 L 74 2 Z" fill="currentColor" fill-rule="evenodd"/>
</svg>
