<svg xmlns="http://www.w3.org/2000/svg" width="231" height="116" viewBox="0 0 231 116" role="img" aria-hidden="true">
  <path d="M 0 102 L 0 106 L 6 106 L 7 110 L 0 113 L 0 115 L 6 115 L 11 113 L 45 115 L 37 110 L 25 105 L 12 102 Z M 179 115 L 212 115 L 212 113 L 216 109 L 218 109 L 222 113 L 224 113 L 228 109 L 230 110 L 230 105 L 227 105 L 224 103 L 220 104 L 217 108 L 213 108 L 205 101 L 197 100 L 195 101 L 193 104 L 194 108 L 197 108 L 200 110 L 198 112 L 194 112 L 188 110 L 182 110 L 180 111 Z M 221 107 L 225 107 L 223 109 Z M 67 0 L 67 3 L 71 10 L 75 25 L 82 36 L 90 43 L 101 48 L 112 51 L 115 55 L 113 57 L 110 56 L 107 53 L 100 54 L 99 56 L 100 60 L 102 62 L 105 62 L 108 59 L 116 59 L 122 61 L 124 59 L 124 4 L 120 3 L 118 6 L 114 2 L 109 2 L 107 3 L 106 5 L 106 10 L 109 13 L 112 14 L 117 10 L 120 11 L 120 50 L 118 52 L 114 46 L 109 29 L 104 20 L 97 13 L 91 9 L 76 4 L 69 0 Z M 78 9 L 83 10 L 93 15 L 101 23 L 107 35 L 105 38 L 93 26 L 93 28 L 104 42 L 102 44 L 90 38 L 83 31 L 79 24 L 78 18 L 75 12 Z" fill="currentColor" fill-rule="evenodd"/>
</svg>
