<svg xmlns="http://www.w3.org/2000/svg" width="292" height="210" viewBox="0 0 292 210" role="img" aria-hidden="true">
  <path d="M 23 127 L 23 130 L 26 134 L 27 139 L 34 151 L 47 164 L 56 171 L 69 177 L 73 176 L 74 178 L 77 177 L 68 175 L 60 171 L 47 162 L 41 156 L 31 143 L 27 134 L 25 127 Z M 189 47 L 187 46 L 187 49 L 183 60 L 181 71 L 181 76 L 184 89 L 190 101 L 190 109 L 187 114 L 182 95 L 171 83 L 169 83 L 174 106 L 179 115 L 183 118 L 185 125 L 182 136 L 174 152 L 164 164 L 153 175 L 144 182 L 143 180 L 161 161 L 167 149 L 168 145 L 168 135 L 165 119 L 162 120 L 159 127 L 153 135 L 148 149 L 148 165 L 147 170 L 141 180 L 133 188 L 123 195 L 110 201 L 104 202 L 98 205 L 91 207 L 91 209 L 95 209 L 115 202 L 128 202 L 138 207 L 146 209 L 154 209 L 164 206 L 172 202 L 174 199 L 160 194 L 143 192 L 142 193 L 138 191 L 150 182 L 161 178 L 179 179 L 190 175 L 200 167 L 210 153 L 206 152 L 200 155 L 182 158 L 172 164 L 164 172 L 163 170 L 174 157 L 181 145 L 189 137 L 197 133 L 208 123 L 213 114 L 216 102 L 214 91 L 200 105 L 193 117 L 192 122 L 190 124 L 189 121 L 192 112 L 192 106 L 194 99 L 197 95 L 199 89 L 200 80 L 199 70 L 195 59 L 190 51 Z M 138 201 L 149 202 L 154 200 L 144 198 L 145 196 L 155 196 L 159 197 L 165 201 L 163 203 L 152 206 L 141 205 Z M 202 159 L 192 170 L 186 174 L 180 176 L 173 173 L 187 167 L 190 163 L 182 167 L 177 168 L 174 167 L 184 161 L 191 159 L 196 159 L 197 158 Z M 163 131 L 164 133 L 164 149 L 163 153 L 160 156 L 160 145 L 158 145 L 155 152 L 153 161 L 151 163 L 150 156 L 153 142 L 158 133 Z M 178 104 L 182 107 L 180 111 L 176 106 Z M 212 102 L 211 109 L 208 117 L 196 130 L 195 128 L 205 113 L 205 111 L 203 112 L 198 119 L 197 116 L 199 112 L 209 101 Z M 177 95 L 180 98 L 178 101 L 175 100 Z M 189 58 L 191 60 L 196 72 L 197 83 L 196 86 L 192 87 L 190 76 L 190 87 L 188 89 L 186 87 L 185 83 L 184 71 L 187 59 Z M 63 37 L 59 39 L 56 39 L 45 47 L 35 57 L 26 72 L 22 85 L 25 81 L 35 60 L 50 45 L 60 40 Z M 285 35 L 285 193 L 287 195 L 291 196 L 291 191 L 289 189 L 290 137 L 289 40 L 291 39 L 291 35 Z M 97 33 L 95 33 L 94 35 L 94 41 L 91 60 L 89 65 L 87 82 L 84 85 L 74 77 L 64 71 L 76 89 L 77 92 L 75 94 L 71 94 L 50 99 L 44 99 L 32 102 L 28 102 L 29 104 L 32 105 L 38 105 L 44 107 L 51 107 L 55 109 L 75 112 L 77 114 L 74 117 L 70 125 L 63 135 L 85 120 L 87 122 L 88 134 L 92 152 L 95 175 L 97 174 L 97 168 L 99 161 L 99 154 L 102 143 L 104 125 L 107 121 L 122 131 L 127 136 L 128 134 L 115 116 L 115 112 L 137 109 L 156 105 L 162 102 L 151 101 L 141 98 L 130 97 L 125 95 L 116 94 L 114 91 L 128 71 L 124 72 L 109 83 L 105 83 L 97 39 Z M 99 108 L 104 114 L 102 126 L 100 131 L 100 136 L 98 138 Z M 103 107 L 104 105 L 122 106 L 120 108 L 112 110 L 107 110 Z M 65 107 L 65 104 L 87 104 L 90 105 L 84 110 Z M 102 101 L 102 99 L 105 96 L 110 96 L 116 98 L 123 98 L 128 100 L 126 102 Z M 90 100 L 88 102 L 64 99 L 86 96 Z M 95 68 L 95 96 L 93 98 L 89 94 L 89 86 L 91 79 L 91 72 Z M 103 22 L 105 25 L 122 29 L 137 36 L 149 45 L 160 57 L 166 66 L 171 78 L 175 78 L 170 65 L 166 58 L 151 41 L 138 32 L 120 24 L 112 22 Z M 95 0 L 93 6 L 93 10 L 92 11 L 92 14 L 94 16 L 94 19 L 92 21 L 86 21 L 70 24 L 53 31 L 45 36 L 30 50 L 20 65 L 16 74 L 12 88 L 11 99 L 8 102 L 0 102 L 1 104 L 7 104 L 11 107 L 12 121 L 19 143 L 26 155 L 40 171 L 54 181 L 67 187 L 82 191 L 98 192 L 107 191 L 125 186 L 132 182 L 138 175 L 135 175 L 120 183 L 100 187 L 81 186 L 73 184 L 53 175 L 49 171 L 46 170 L 34 158 L 24 142 L 21 134 L 21 130 L 18 125 L 16 111 L 17 104 L 22 102 L 18 102 L 16 100 L 17 88 L 21 74 L 29 59 L 43 43 L 57 34 L 71 28 L 95 24 L 97 22 L 97 17 L 100 12 L 97 4 L 97 0 Z" fill="currentColor" fill-rule="evenodd"/>
</svg>
