<svg xmlns="http://www.w3.org/2000/svg" width="302" height="235" viewBox="0 0 302 235" role="img" aria-hidden="true">
  <path d="M 288 149 L 288 151 L 297 165 L 301 168 L 301 166 L 296 161 L 293 155 L 296 154 L 301 157 L 300 154 Z M 301 93 L 301 97 L 299 102 L 299 117 L 297 119 L 289 110 L 286 109 L 290 127 L 294 134 L 301 141 L 300 117 Z M 291 115 L 295 119 L 298 124 L 298 126 L 296 127 L 298 131 L 297 134 L 293 130 L 289 117 Z M 193 36 L 181 47 L 174 51 L 165 60 L 162 66 L 160 75 L 160 83 L 164 101 L 159 120 L 157 122 L 152 105 L 152 85 L 150 77 L 147 72 L 140 65 L 119 55 L 117 55 L 119 71 L 122 82 L 125 88 L 132 96 L 145 103 L 150 108 L 153 114 L 155 126 L 155 136 L 153 144 L 148 150 L 141 147 L 134 142 L 116 134 L 111 133 L 96 133 L 90 134 L 78 139 L 54 158 L 49 164 L 51 164 L 80 142 L 92 137 L 105 136 L 122 140 L 132 145 L 139 150 L 148 154 L 152 155 L 173 155 L 179 157 L 182 160 L 182 164 L 179 167 L 172 170 L 149 170 L 128 165 L 119 165 L 117 166 L 118 169 L 130 169 L 151 174 L 174 173 L 180 171 L 185 166 L 186 164 L 186 161 L 185 160 L 186 156 L 194 152 L 214 137 L 220 134 L 226 134 L 229 138 L 201 167 L 189 177 L 181 182 L 147 198 L 137 197 L 98 185 L 84 185 L 74 190 L 69 195 L 69 197 L 82 189 L 85 188 L 96 188 L 138 201 L 148 201 L 154 199 L 179 187 L 194 178 L 201 172 L 231 141 L 232 139 L 232 134 L 228 131 L 223 131 L 219 125 L 217 124 L 213 124 L 209 126 L 202 125 L 197 128 L 184 139 L 167 149 L 165 149 L 163 151 L 155 151 L 154 147 L 157 138 L 158 130 L 162 115 L 166 104 L 172 99 L 183 93 L 192 83 L 196 74 L 197 70 L 197 47 L 195 42 L 195 38 Z M 218 129 L 213 134 L 210 135 L 195 147 L 188 151 L 184 155 L 182 155 L 172 150 L 175 147 L 177 147 L 186 142 L 189 139 L 194 138 L 201 132 L 208 128 L 216 127 Z M 122 60 L 127 63 L 136 66 L 139 68 L 145 75 L 148 81 L 150 89 L 150 95 L 148 97 L 144 88 L 140 82 L 130 71 L 128 70 L 129 73 L 145 95 L 145 99 L 143 99 L 136 95 L 126 84 L 122 73 L 121 67 Z M 193 44 L 195 55 L 195 63 L 192 75 L 187 84 L 179 92 L 173 96 L 169 96 L 169 92 L 173 84 L 174 79 L 179 69 L 184 62 L 186 56 L 191 47 L 188 49 L 187 53 L 176 69 L 169 83 L 168 88 L 165 91 L 163 87 L 163 73 L 168 62 L 173 56 L 182 50 L 190 43 Z M 134 0 L 118 0 L 106 2 L 92 6 L 76 14 L 59 27 L 45 44 L 44 41 L 46 34 L 44 12 L 35 26 L 31 35 L 30 39 L 30 64 L 25 77 L 25 80 L 23 82 L 21 78 L 21 74 L 18 66 L 9 53 L 9 77 L 13 86 L 19 95 L 20 100 L 20 123 L 18 125 L 15 114 L 7 102 L 2 96 L 0 95 L 1 109 L 4 120 L 7 126 L 18 137 L 21 143 L 25 157 L 24 163 L 14 154 L 4 150 L 4 152 L 11 164 L 18 171 L 30 177 L 35 182 L 46 198 L 53 205 L 69 217 L 90 227 L 99 230 L 113 232 L 116 234 L 141 232 L 161 227 L 183 216 L 190 211 L 196 205 L 174 220 L 156 227 L 136 231 L 118 231 L 105 229 L 88 224 L 74 217 L 57 205 L 44 191 L 37 181 L 26 155 L 26 140 L 36 128 L 40 120 L 43 102 L 40 103 L 29 115 L 26 121 L 25 135 L 23 137 L 22 106 L 26 96 L 37 89 L 43 83 L 52 65 L 49 64 L 46 67 L 41 69 L 33 75 L 30 74 L 30 70 L 32 65 L 53 36 L 66 23 L 73 18 L 76 18 L 81 13 L 85 11 L 109 3 L 115 2 L 140 2 L 147 4 L 151 3 L 152 5 L 157 5 L 148 2 Z M 10 155 L 14 156 L 22 163 L 19 164 L 21 171 L 13 164 L 9 157 Z M 38 109 L 39 117 L 35 126 L 30 132 L 29 128 L 31 126 L 31 124 L 28 123 L 28 121 L 31 115 Z M 5 103 L 12 112 L 15 120 L 13 122 L 12 120 L 10 119 L 12 123 L 12 125 L 10 127 L 4 115 L 3 110 Z M 31 77 L 31 79 L 27 85 L 26 81 L 27 78 Z M 47 72 L 42 81 L 32 90 L 31 87 L 35 83 L 32 82 L 32 80 L 38 73 L 43 70 Z M 11 62 L 13 62 L 15 64 L 19 75 L 17 77 L 15 77 L 17 83 L 15 85 L 12 80 L 10 72 Z M 44 21 L 44 35 L 43 40 L 39 49 L 37 51 L 36 47 L 39 38 L 37 38 L 35 47 L 33 49 L 32 38 L 34 32 L 39 23 Z" fill="currentColor" fill-rule="evenodd"/>
</svg>
