<svg xmlns="http://www.w3.org/2000/svg" viewBox="0 0 64 64" fill="none" stroke="currentColor" stroke-width="1.12" stroke-linecap="round" stroke-linejoin="round">
  <title>Melan Peel</title>
  <path d="M13 43 C23 36 41 36 51 43"/><path d="M15 51 C25 45 39 45 49 51"/><path d="M32 14 C40 24 44 30 44 36 C44 42 39 46 32 46 C25 46 20 42 20 36 C20 30 24 24 32 14Z"/><circle cx="25" cy="39" r="1"/><circle cx="37" cy="38" r="1"/><circle cx="42" cy="41" r="1"/><path d="M45 16 L54 20 V28 C54 34 50 38 45 40 C40 38 36 34 36 28 V20Z"/>
</svg>
