<svg xmlns="http://www.w3.org/2000/svg" width="318" height="221" viewBox="0 0 318 221" role="img" aria-hidden="true">
  <path d="M 234 194 L 236 200 L 238 200 L 241 196 L 238 193 Z M 8 163 L 0 163 L 0 165 L 3 166 L 0 169 L 0 172 L 3 170 Z M 18 117 L 13 117 L 1 122 L 0 126 L 6 122 L 9 123 L 0 130 L 0 133 L 9 126 L 11 128 L 0 138 L 0 141 L 3 140 L 13 131 L 14 126 L 18 119 Z M 158 106 L 156 106 L 155 109 L 144 121 L 139 130 L 137 136 L 137 148 L 138 152 L 142 160 L 146 166 L 152 172 L 158 182 L 158 195 L 156 201 L 153 205 L 156 203 L 159 199 L 161 194 L 162 187 L 158 175 L 144 158 L 142 154 L 140 147 L 141 134 L 144 127 L 153 115 Z M 296 106 L 293 106 L 287 118 L 285 125 L 285 139 L 287 145 L 287 153 L 282 166 L 282 171 L 280 177 L 277 180 L 274 180 L 262 194 L 261 192 L 268 183 L 272 175 L 274 166 L 272 152 L 269 147 L 267 146 L 260 159 L 258 165 L 257 177 L 259 185 L 259 191 L 254 201 L 243 211 L 232 218 L 226 220 L 234 220 L 246 212 L 256 209 L 265 211 L 275 211 L 282 209 L 290 204 L 298 195 L 295 195 L 294 194 L 280 194 L 270 197 L 256 206 L 256 204 L 277 182 L 285 177 L 294 175 L 301 171 L 310 162 L 317 148 L 313 147 L 310 148 L 296 156 L 293 159 L 283 175 L 282 172 L 287 162 L 287 159 L 290 151 L 299 136 L 300 121 Z M 293 198 L 283 206 L 281 206 L 278 208 L 276 207 L 274 209 L 265 206 L 271 204 L 274 205 L 281 200 L 275 201 L 268 204 L 267 202 L 270 199 L 280 196 L 291 196 Z M 269 154 L 269 156 L 271 159 L 271 171 L 268 178 L 266 180 L 266 172 L 264 172 L 263 179 L 261 181 L 260 167 L 261 163 L 265 154 Z M 312 152 L 306 163 L 300 169 L 293 173 L 292 170 L 300 163 L 302 159 L 292 164 L 294 161 L 304 153 L 308 151 Z M 296 133 L 296 136 L 295 138 L 293 140 L 292 134 Z M 294 112 L 297 116 L 298 129 L 296 131 L 294 129 L 294 124 L 292 125 L 292 129 L 290 131 L 291 136 L 288 140 L 287 128 L 288 123 L 292 113 Z M 230 54 L 229 60 L 227 62 L 224 70 L 213 82 L 187 96 L 180 102 L 174 110 L 171 116 L 168 128 L 168 142 L 169 147 L 181 171 L 185 185 L 184 197 L 182 203 L 180 205 L 180 207 L 183 205 L 187 197 L 188 193 L 188 182 L 186 174 L 175 153 L 172 143 L 172 125 L 173 121 L 178 110 L 185 102 L 197 94 L 199 94 L 217 83 L 224 76 L 228 70 L 229 66 L 233 65 L 235 76 L 232 90 L 234 96 L 240 106 L 236 110 L 233 111 L 233 117 L 230 120 L 228 120 L 228 122 L 230 125 L 228 127 L 228 135 L 227 137 L 222 141 L 218 141 L 206 137 L 197 138 L 194 144 L 191 155 L 191 166 L 195 174 L 200 178 L 216 185 L 222 191 L 224 195 L 225 207 L 221 215 L 216 220 L 219 220 L 222 217 L 226 210 L 228 203 L 227 193 L 224 188 L 220 184 L 203 176 L 196 170 L 194 165 L 194 157 L 197 145 L 201 140 L 204 140 L 217 144 L 223 144 L 227 142 L 231 136 L 231 129 L 234 125 L 234 121 L 236 119 L 236 114 L 238 112 L 240 112 L 244 108 L 244 106 L 236 91 L 236 84 L 238 77 L 236 62 L 233 56 Z M 212 34 L 201 31 L 180 31 L 170 34 L 161 39 L 147 54 L 140 69 L 134 91 L 128 101 L 118 113 L 114 120 L 111 131 L 111 142 L 113 150 L 117 159 L 133 176 L 137 182 L 139 187 L 139 195 L 141 193 L 141 184 L 138 177 L 122 160 L 116 150 L 114 141 L 114 134 L 117 122 L 123 112 L 127 108 L 135 96 L 141 82 L 142 74 L 145 65 L 151 54 L 159 45 L 164 41 L 175 36 L 184 34 L 198 34 L 212 38 L 218 41 L 225 48 L 225 50 L 221 57 L 212 66 L 205 71 L 195 76 L 181 81 L 169 90 L 169 92 L 174 88 L 207 73 L 213 69 L 226 55 L 228 46 L 222 40 Z M 233 10 L 217 4 L 202 1 L 190 0 L 174 1 L 152 6 L 135 14 L 120 24 L 104 41 L 97 51 L 90 64 L 83 84 L 80 103 L 80 133 L 84 153 L 92 174 L 100 188 L 107 197 L 120 210 L 134 220 L 143 220 L 136 217 L 127 211 L 109 194 L 98 178 L 93 168 L 88 154 L 84 135 L 83 109 L 85 92 L 93 66 L 107 43 L 124 26 L 143 14 L 162 7 L 180 4 L 203 5 L 223 10 L 242 19 L 253 27 L 267 41 L 274 50 L 285 71 L 289 84 L 291 95 L 293 93 L 293 87 L 291 78 L 287 67 L 275 45 L 260 28 L 250 20 Z" fill="currentColor" fill-rule="evenodd"/>
</svg>
