<svg xmlns="http://www.w3.org/2000/svg" width="157" height="188" viewBox="0 0 157 188" role="img" aria-hidden="true">
  <path d="M 75 0 L 74 76 L 75 89 L 74 98 L 74 127 L 75 131 L 74 135 L 72 137 L 68 131 L 61 124 L 58 118 L 55 116 L 46 104 L 43 104 L 41 106 L 41 109 L 57 130 L 54 138 L 49 135 L 45 136 L 45 140 L 48 143 L 56 147 L 54 149 L 42 148 L 1 149 L 0 153 L 3 156 L 60 157 L 47 166 L 31 175 L 30 179 L 34 182 L 58 167 L 61 168 L 53 179 L 53 182 L 56 185 L 71 169 L 74 170 L 75 172 L 76 186 L 78 187 L 82 183 L 84 169 L 98 184 L 101 184 L 103 182 L 103 179 L 94 169 L 96 166 L 122 182 L 126 179 L 125 175 L 98 159 L 98 156 L 153 156 L 156 151 L 154 149 L 111 148 L 105 149 L 101 148 L 102 145 L 108 142 L 112 138 L 109 135 L 106 135 L 94 142 L 91 141 L 91 139 L 98 129 L 113 111 L 115 107 L 111 104 L 108 105 L 88 132 L 83 137 L 82 3 L 81 1 Z M 82 144 L 90 150 L 88 156 L 86 158 L 86 160 L 84 162 L 80 162 L 77 164 L 75 162 L 70 161 L 70 159 L 67 156 L 67 154 L 69 152 L 69 149 L 71 146 L 75 145 L 77 143 Z M 58 138 L 60 136 L 62 136 L 64 138 L 64 142 L 60 141 Z" fill="currentColor" fill-rule="evenodd"/>
</svg>
