<svg xmlns="http://www.w3.org/2000/svg" width="213" height="264" viewBox="0 0 213 264" role="img" aria-hidden="true">
  <path d="M 185 245 L 185 262 L 187 260 L 188 252 L 194 260 L 197 260 L 198 251 L 196 246 L 196 250 L 193 253 L 190 249 Z M 168 245 L 164 248 L 163 256 L 166 261 L 172 263 L 179 257 L 179 250 L 178 248 L 174 245 Z M 174 247 L 177 252 L 176 257 L 172 261 L 169 261 L 166 256 L 166 250 L 167 248 Z M 156 245 L 155 254 L 156 262 L 158 261 Z M 150 245 L 140 245 L 140 247 L 142 247 L 144 249 L 144 262 L 146 261 L 148 247 L 149 247 Z M 130 245 L 125 257 L 124 262 L 126 261 L 127 258 L 133 258 L 136 262 L 137 258 L 132 246 Z M 121 245 L 111 245 L 112 247 L 114 247 L 116 249 L 116 261 L 118 260 L 119 247 L 120 247 Z M 100 245 L 101 262 L 108 261 L 105 261 L 103 259 L 102 245 Z M 82 245 L 82 259 L 85 262 L 89 263 L 91 262 L 94 258 L 93 246 L 92 258 L 89 261 L 87 261 L 84 258 Z M 74 245 L 67 246 L 66 248 L 67 252 L 72 255 L 74 258 L 71 261 L 69 259 L 66 259 L 68 262 L 72 263 L 76 259 L 77 256 L 70 249 L 72 246 L 74 248 Z M 48 245 L 48 261 L 50 260 L 52 253 L 56 258 L 61 260 L 59 245 L 59 253 L 57 255 L 50 245 Z M 31 245 L 27 250 L 27 256 L 31 262 L 38 262 L 43 256 L 43 250 L 41 247 L 38 245 Z M 33 246 L 36 246 L 40 250 L 40 256 L 36 261 L 33 261 L 30 257 L 30 249 Z M 14 245 L 10 248 L 9 256 L 13 262 L 18 263 L 20 262 L 22 259 L 16 261 L 12 256 L 12 251 L 14 247 L 19 247 L 21 249 L 23 247 L 20 245 Z M 150 87 L 143 93 L 141 97 L 140 106 L 142 113 L 148 120 L 157 123 L 159 121 L 163 120 L 170 113 L 172 108 L 172 98 L 169 92 L 164 88 L 161 87 Z M 152 90 L 160 90 L 162 91 L 169 99 L 169 108 L 167 112 L 160 118 L 156 119 L 150 117 L 144 110 L 144 98 L 146 94 Z M 46 87 L 41 89 L 38 92 L 35 98 L 35 109 L 38 116 L 44 121 L 47 121 L 48 123 L 51 123 L 60 119 L 65 113 L 67 106 L 67 101 L 65 95 L 61 90 L 55 87 Z M 47 90 L 54 90 L 58 92 L 61 95 L 64 104 L 62 111 L 55 118 L 52 119 L 48 119 L 44 117 L 40 113 L 38 108 L 39 98 L 41 94 Z M 127 33 L 118 28 L 108 26 L 91 26 L 76 31 L 65 41 L 60 53 L 60 64 L 63 74 L 68 81 L 80 90 L 80 95 L 78 99 L 78 102 L 83 101 L 94 93 L 107 93 L 118 90 L 128 84 L 135 77 L 138 72 L 140 65 L 140 52 L 135 41 Z M 124 35 L 131 41 L 137 53 L 138 59 L 137 65 L 132 75 L 123 84 L 117 87 L 104 90 L 94 89 L 86 96 L 82 95 L 82 86 L 75 83 L 70 78 L 64 67 L 63 57 L 65 48 L 69 41 L 73 37 L 82 32 L 94 29 L 107 29 L 118 32 Z M 80 58 L 80 61 L 83 64 L 87 61 L 86 57 Z M 115 56 L 113 58 L 113 61 L 116 64 L 120 61 L 119 57 Z M 101 56 L 97 57 L 97 62 L 100 64 L 103 61 L 103 58 Z M 42 19 L 24 36 L 17 46 L 8 64 L 1 91 L 0 117 L 3 139 L 11 161 L 24 182 L 39 197 L 47 203 L 62 211 L 81 217 L 97 219 L 113 218 L 136 211 L 145 206 L 156 206 L 160 209 L 168 211 L 175 210 L 184 207 L 186 205 L 182 202 L 170 198 L 159 200 L 157 202 L 153 201 L 165 190 L 172 187 L 190 188 L 202 182 L 212 172 L 194 171 L 189 173 L 189 175 L 195 173 L 207 174 L 200 181 L 193 185 L 189 186 L 183 184 L 185 182 L 190 181 L 196 177 L 191 178 L 188 180 L 183 180 L 183 178 L 179 179 L 174 185 L 173 182 L 184 166 L 188 162 L 193 159 L 199 152 L 203 142 L 205 129 L 202 128 L 195 133 L 188 141 L 184 152 L 183 158 L 184 162 L 180 166 L 180 141 L 177 134 L 172 129 L 168 127 L 157 125 L 155 127 L 152 127 L 146 130 L 143 133 L 139 143 L 139 162 L 134 166 L 115 166 L 111 170 L 111 177 L 114 181 L 117 182 L 154 181 L 156 183 L 156 189 L 153 195 L 147 201 L 139 206 L 121 213 L 108 215 L 88 215 L 71 211 L 59 206 L 46 198 L 30 183 L 30 141 L 31 138 L 35 133 L 42 130 L 55 131 L 63 138 L 65 143 L 66 164 L 68 168 L 93 169 L 95 176 L 92 179 L 56 179 L 52 174 L 50 163 L 50 157 L 48 153 L 46 153 L 49 176 L 53 181 L 56 182 L 92 182 L 98 177 L 98 171 L 97 169 L 93 166 L 72 166 L 69 163 L 69 148 L 67 139 L 65 135 L 60 130 L 53 127 L 39 127 L 34 129 L 30 133 L 26 145 L 24 175 L 22 173 L 10 149 L 6 135 L 4 123 L 4 98 L 7 79 L 10 69 L 20 48 L 29 36 L 45 21 L 69 8 L 90 3 L 112 3 L 120 4 L 141 10 L 151 15 L 166 25 L 178 37 L 184 45 L 195 65 L 199 76 L 203 100 L 202 115 L 203 118 L 206 114 L 206 95 L 204 82 L 196 58 L 182 36 L 172 26 L 158 15 L 140 6 L 127 2 L 115 0 L 90 0 L 68 5 L 54 11 Z M 162 205 L 171 203 L 165 202 L 166 200 L 175 201 L 181 205 L 179 207 L 173 209 L 166 209 Z M 199 133 L 202 135 L 200 144 L 195 154 L 189 159 L 186 156 L 186 152 L 188 146 L 193 138 Z M 166 130 L 170 132 L 175 137 L 177 142 L 177 168 L 176 173 L 174 176 L 158 193 L 157 189 L 163 182 L 167 173 L 167 163 L 165 161 L 166 168 L 164 176 L 161 180 L 160 174 L 162 170 L 161 163 L 159 167 L 159 177 L 157 179 L 156 166 L 158 160 L 161 157 L 163 158 L 161 150 L 156 159 L 154 165 L 154 176 L 151 179 L 117 179 L 114 176 L 114 171 L 116 169 L 139 168 L 141 166 L 142 144 L 145 136 L 149 132 L 154 130 Z" fill="currentColor" fill-rule="evenodd"/>
</svg>
