<svg xmlns="http://www.w3.org/2000/svg" width="195" height="212" viewBox="0 0 195 212" role="img" aria-hidden="true">
  <path d="M 37 1 L 35 6 L 36 11 L 43 16 L 43 77 L 42 80 L 39 83 L 23 92 L 15 100 L 8 110 L 4 118 L 0 133 L 0 152 L 2 161 L 8 174 L 17 186 L 29 196 L 41 202 L 47 204 L 56 205 L 59 207 L 56 209 L 56 211 L 59 211 L 67 207 L 93 198 L 106 197 L 119 202 L 129 203 L 141 200 L 154 193 L 156 190 L 152 190 L 137 185 L 123 185 L 119 186 L 108 192 L 105 190 L 115 182 L 124 173 L 131 170 L 151 169 L 162 164 L 166 161 L 172 154 L 181 139 L 177 139 L 172 142 L 165 144 L 155 145 L 147 150 L 134 164 L 133 161 L 141 149 L 146 137 L 154 129 L 173 122 L 182 114 L 187 105 L 189 98 L 194 88 L 192 87 L 168 99 L 160 108 L 153 125 L 149 125 L 151 120 L 153 108 L 155 104 L 155 97 L 157 89 L 159 85 L 168 75 L 173 66 L 176 52 L 175 33 L 177 24 L 174 22 L 172 26 L 159 41 L 153 52 L 150 64 L 150 71 L 154 90 L 153 98 L 149 102 L 147 100 L 147 96 L 144 85 L 139 78 L 128 66 L 126 65 L 127 92 L 128 96 L 133 106 L 143 118 L 144 131 L 142 139 L 137 149 L 123 168 L 122 165 L 124 162 L 127 150 L 127 132 L 124 121 L 115 103 L 110 99 L 106 94 L 93 85 L 89 84 L 86 81 L 85 75 L 86 14 L 88 14 L 92 10 L 92 3 L 89 0 L 39 0 Z M 115 195 L 119 194 L 131 194 L 133 192 L 118 189 L 126 187 L 139 188 L 147 192 L 144 195 L 138 198 L 128 200 L 118 199 Z M 173 146 L 169 153 L 160 162 L 154 165 L 146 167 L 141 165 L 143 163 L 145 163 L 154 158 L 161 152 L 157 153 L 149 158 L 142 158 L 149 152 L 165 146 L 169 146 L 170 145 Z M 149 104 L 151 106 L 151 110 L 149 118 L 147 120 L 146 112 Z M 187 96 L 181 110 L 173 118 L 161 124 L 160 121 L 165 117 L 175 106 L 173 106 L 168 111 L 162 115 L 161 113 L 164 108 L 171 101 L 183 95 Z M 132 76 L 139 84 L 144 95 L 144 99 L 142 101 L 140 98 L 138 90 L 135 88 L 141 106 L 139 108 L 135 104 L 135 102 L 132 99 L 130 92 Z M 169 35 L 172 36 L 172 58 L 168 69 L 166 71 L 166 73 L 160 80 L 159 73 L 164 57 L 162 58 L 157 72 L 153 73 L 153 64 L 156 53 L 163 41 Z M 45 4 L 58 5 L 86 4 L 88 6 L 88 8 L 85 11 L 75 11 L 74 12 L 71 12 L 71 14 L 79 14 L 81 16 L 80 35 L 81 80 L 83 85 L 86 88 L 99 94 L 111 106 L 120 122 L 123 136 L 123 149 L 118 166 L 112 177 L 108 182 L 100 189 L 98 189 L 90 195 L 76 201 L 54 201 L 41 197 L 33 193 L 24 186 L 14 175 L 11 167 L 8 164 L 5 153 L 5 132 L 8 120 L 11 116 L 11 114 L 15 107 L 26 96 L 35 90 L 42 87 L 47 81 L 48 14 L 51 12 L 42 10 L 40 8 L 41 5 Z M 8 137 L 8 146 L 10 157 L 13 163 L 13 166 L 16 169 L 20 176 L 30 186 L 45 194 L 57 197 L 77 196 L 95 188 L 110 173 L 113 167 L 114 162 L 117 157 L 119 148 L 118 136 L 111 137 L 100 141 L 89 142 L 74 141 L 60 137 L 55 137 L 46 134 L 38 133 L 19 134 Z M 12 148 L 13 140 L 18 138 L 26 137 L 45 138 L 60 142 L 78 145 L 96 145 L 110 142 L 111 141 L 113 141 L 115 143 L 115 149 L 112 161 L 104 174 L 95 183 L 86 189 L 74 193 L 55 193 L 44 190 L 35 185 L 21 171 L 14 157 Z M 70 173 L 70 178 L 73 180 L 77 177 L 77 174 L 75 172 Z M 81 153 L 78 154 L 78 158 L 81 160 L 84 157 Z M 46 152 L 44 153 L 42 159 L 44 163 L 48 165 L 53 161 L 54 157 L 51 153 Z M 46 159 L 47 156 L 50 158 Z M 77 111 L 73 113 L 72 122 L 75 126 L 80 127 L 87 122 L 88 117 L 83 112 Z M 81 114 L 84 117 L 84 119 L 78 124 L 75 120 L 75 117 L 77 115 Z M 53 107 L 47 108 L 46 110 L 46 114 L 50 118 L 56 113 L 56 111 Z M 53 112 L 49 113 L 51 110 Z M 62 89 L 61 94 L 63 98 L 67 100 L 71 96 L 72 92 L 71 90 L 68 88 Z M 66 91 L 68 94 L 66 96 L 64 94 Z M 75 58 L 77 57 L 77 38 L 76 36 Z" fill="currentColor" fill-rule="evenodd"/>
</svg>
