<svg xmlns="http://www.w3.org/2000/svg" width="210" height="377" viewBox="0 0 210 377" role="img" aria-hidden="true">
  <path d="M 50 376 L 61 376 L 73 371 L 87 368 L 112 368 L 129 372 L 137 376 L 149 376 L 130 367 L 113 363 L 82 363 L 80 365 L 68 367 Z M 51 103 L 51 107 L 53 109 L 63 108 L 131 108 L 135 110 L 124 123 L 119 127 L 110 137 L 111 141 L 113 141 L 126 127 L 133 121 L 146 106 L 146 104 L 138 97 L 136 93 L 128 86 L 114 71 L 110 71 L 110 75 L 115 79 L 130 95 L 131 98 L 135 101 L 133 103 Z M 38 23 L 31 29 L 21 41 L 11 56 L 2 81 L 0 93 L 0 116 L 4 137 L 15 162 L 25 176 L 45 195 L 47 195 L 54 200 L 64 205 L 72 208 L 87 211 L 106 211 L 116 209 L 131 203 L 144 196 L 150 196 L 156 198 L 169 198 L 181 192 L 183 190 L 180 188 L 170 185 L 159 185 L 151 188 L 162 177 L 169 173 L 183 173 L 194 169 L 207 157 L 209 153 L 207 152 L 190 152 L 177 160 L 176 158 L 182 146 L 195 134 L 198 129 L 202 116 L 201 96 L 198 96 L 184 113 L 184 116 L 181 121 L 180 126 L 180 145 L 174 153 L 172 159 L 168 164 L 168 158 L 170 154 L 170 140 L 166 126 L 164 124 L 161 125 L 159 128 L 156 138 L 156 155 L 160 166 L 159 172 L 157 176 L 147 187 L 138 194 L 123 202 L 116 204 L 112 204 L 108 206 L 95 207 L 76 204 L 51 193 L 44 188 L 27 171 L 12 146 L 5 121 L 4 111 L 5 110 L 4 96 L 7 79 L 9 72 L 17 55 L 29 38 L 43 25 L 64 13 L 78 8 L 90 6 L 114 6 L 133 11 L 145 17 L 157 25 L 172 40 L 181 53 L 185 61 L 191 78 L 193 94 L 194 80 L 192 67 L 189 59 L 180 42 L 167 27 L 155 17 L 147 13 L 144 10 L 139 9 L 132 5 L 121 2 L 107 0 L 95 0 L 74 4 L 65 7 L 53 13 Z M 155 195 L 156 193 L 166 194 L 164 196 Z M 167 190 L 169 188 L 176 190 L 173 193 L 171 193 Z M 171 169 L 168 172 L 168 168 Z M 203 156 L 192 166 L 186 169 L 180 168 L 182 166 L 187 165 L 193 162 L 195 159 L 193 159 L 186 162 L 184 164 L 182 164 L 180 162 L 185 158 L 195 155 Z M 162 132 L 165 133 L 165 136 L 167 140 L 167 151 L 165 153 L 164 141 L 162 141 L 162 155 L 160 157 L 158 152 L 158 145 L 159 139 Z M 196 104 L 199 105 L 199 115 L 197 123 L 191 132 L 190 127 L 195 116 L 195 113 L 192 113 L 191 118 L 186 129 L 183 129 L 183 126 L 190 111 Z" fill="currentColor" fill-rule="evenodd"/>
</svg>
