<svg xmlns="http://www.w3.org/2000/svg" width="127" height="263" viewBox="0 0 127 263" role="img" aria-hidden="true">
  <path d="M 46 114 L 29 119 L 15 129 L 7 140 L 4 146 L 1 155 L 0 170 L 5 191 L 17 216 L 20 219 L 22 224 L 40 249 L 52 262 L 54 262 L 59 258 L 76 237 L 90 216 L 102 192 L 107 173 L 107 159 L 103 146 L 99 138 L 96 134 L 84 123 L 73 117 L 66 115 Z M 59 122 L 68 124 L 80 130 L 88 137 L 93 144 L 98 156 L 99 161 L 99 173 L 94 191 L 82 214 L 64 240 L 53 252 L 36 231 L 20 206 L 10 183 L 8 173 L 8 163 L 10 153 L 15 142 L 24 132 L 31 127 L 38 124 L 48 122 Z M 47 144 L 39 147 L 34 152 L 30 160 L 29 166 L 30 175 L 35 185 L 40 189 L 49 193 L 57 193 L 65 190 L 74 182 L 78 175 L 78 162 L 75 155 L 65 146 L 60 144 Z M 50 151 L 57 151 L 64 154 L 69 159 L 71 164 L 71 172 L 68 178 L 62 183 L 55 186 L 51 186 L 45 183 L 38 176 L 36 171 L 36 166 L 39 158 L 44 153 Z M 46 0 L 61 11 L 76 19 L 93 22 L 100 21 L 110 17 L 122 6 L 126 0 L 118 0 L 109 9 L 103 13 L 94 15 L 85 14 L 83 12 L 76 11 L 63 4 L 58 0 Z" fill="currentColor" fill-rule="evenodd"/>
</svg>
