<svg xmlns="http://www.w3.org/2000/svg" width="195" height="184" viewBox="0 0 195 184" role="img" aria-hidden="true">
  <path d="M 194 105 L 191 104 L 184 110 L 173 114 L 171 116 L 169 116 L 166 118 L 158 127 L 154 135 L 153 140 L 143 150 L 138 153 L 131 161 L 128 163 L 124 163 L 124 161 L 135 151 L 138 144 L 139 139 L 138 127 L 135 128 L 125 139 L 121 149 L 120 158 L 118 160 L 118 162 L 116 165 L 108 173 L 100 177 L 88 180 L 81 183 L 90 183 L 105 179 L 116 174 L 126 171 L 136 171 L 141 173 L 153 173 L 157 172 L 170 163 L 176 162 L 177 158 L 175 157 L 163 156 L 158 154 L 155 154 L 152 156 L 147 156 L 138 162 L 134 166 L 131 164 L 140 158 L 152 147 L 156 145 L 168 143 L 179 138 L 185 131 L 190 121 L 190 112 Z M 145 169 L 146 167 L 150 168 L 148 170 Z M 166 161 L 162 165 L 155 169 L 151 167 L 153 165 L 158 164 L 160 159 Z M 147 161 L 151 159 L 158 160 L 153 163 Z M 187 112 L 189 114 L 183 128 L 172 138 L 164 139 L 164 137 L 171 132 L 183 120 L 180 119 L 176 123 L 173 123 L 165 132 L 162 130 L 163 127 L 170 120 L 173 119 L 176 116 Z M 48 45 L 42 51 L 39 58 L 38 65 L 39 74 L 42 81 L 42 84 L 48 96 L 53 100 L 64 115 L 69 119 L 76 122 L 79 125 L 95 133 L 111 133 L 118 131 L 121 129 L 128 119 L 129 111 L 127 107 L 124 104 L 108 96 L 105 96 L 101 98 L 94 106 L 92 106 L 83 99 L 80 98 L 67 84 L 67 78 L 73 72 L 74 65 L 71 57 L 64 46 L 58 43 L 54 43 Z M 51 50 L 58 49 L 62 52 L 64 56 L 65 62 L 67 64 L 67 68 L 60 74 L 59 81 L 75 102 L 79 106 L 92 112 L 96 112 L 102 107 L 105 102 L 109 102 L 123 112 L 122 118 L 116 124 L 110 127 L 101 127 L 89 124 L 77 117 L 71 110 L 66 107 L 58 99 L 52 90 L 49 82 L 46 79 L 44 72 L 45 59 Z M 151 30 L 135 15 L 123 8 L 110 3 L 96 0 L 73 0 L 52 6 L 34 16 L 23 26 L 10 44 L 3 63 L 1 75 L 1 95 L 4 110 L 6 113 L 6 116 L 11 126 L 11 134 L 8 139 L 6 150 L 0 164 L 1 169 L 11 166 L 16 166 L 25 162 L 39 158 L 42 158 L 50 164 L 59 168 L 82 172 L 96 171 L 104 167 L 107 164 L 103 163 L 91 165 L 79 165 L 69 163 L 61 159 L 52 157 L 45 151 L 38 151 L 34 153 L 30 153 L 27 155 L 24 155 L 21 157 L 12 158 L 11 152 L 15 144 L 17 134 L 20 129 L 20 127 L 14 117 L 13 110 L 10 105 L 8 94 L 9 71 L 12 60 L 18 46 L 24 37 L 32 28 L 42 20 L 53 14 L 66 9 L 76 7 L 93 7 L 102 10 L 107 10 L 129 20 L 146 36 L 151 43 L 158 56 L 159 62 L 161 65 L 163 77 L 163 92 L 161 104 L 156 118 L 156 121 L 158 120 L 159 117 L 167 108 L 170 93 L 170 74 L 168 64 L 163 50 Z" fill="currentColor" fill-rule="evenodd"/>
</svg>
