<svg xmlns="http://www.w3.org/2000/svg" width="187" height="226" viewBox="0 0 187 226" role="img" aria-hidden="true">
  <path d="M 32 73 L 33 75 L 37 77 L 46 78 L 55 75 L 56 71 L 50 73 L 41 73 L 39 71 L 39 66 L 37 69 Z M 33 47 L 35 51 L 40 49 L 47 49 L 54 51 L 61 56 L 63 54 L 57 49 L 50 46 L 38 45 Z M 43 2 L 36 9 L 27 23 L 22 41 L 22 61 L 21 64 L 15 74 L 0 91 L 0 98 L 3 102 L 12 108 L 8 115 L 8 120 L 12 126 L 11 134 L 17 140 L 15 146 L 15 156 L 17 160 L 20 163 L 27 166 L 36 166 L 47 164 L 63 164 L 67 166 L 74 173 L 76 177 L 79 187 L 79 198 L 76 207 L 70 213 L 65 214 L 63 216 L 50 221 L 44 222 L 47 224 L 53 223 L 67 218 L 88 207 L 96 205 L 102 205 L 114 209 L 128 209 L 135 207 L 150 197 L 126 191 L 116 192 L 106 197 L 101 197 L 117 182 L 123 178 L 129 176 L 140 177 L 151 174 L 158 170 L 167 161 L 175 148 L 170 148 L 164 151 L 149 154 L 137 161 L 128 171 L 127 169 L 134 159 L 140 147 L 150 137 L 164 132 L 177 120 L 186 99 L 184 98 L 182 100 L 180 100 L 178 102 L 164 108 L 157 115 L 153 121 L 151 126 L 151 129 L 147 134 L 146 131 L 149 123 L 150 113 L 152 110 L 153 103 L 156 96 L 162 88 L 165 77 L 165 67 L 159 43 L 157 43 L 146 65 L 145 69 L 145 86 L 150 100 L 150 109 L 148 111 L 149 115 L 146 126 L 144 128 L 143 123 L 145 112 L 144 109 L 145 108 L 144 101 L 135 86 L 127 80 L 127 97 L 128 104 L 132 114 L 140 125 L 141 131 L 138 144 L 131 158 L 125 167 L 117 176 L 116 173 L 121 162 L 127 153 L 131 142 L 132 127 L 129 117 L 111 92 L 107 78 L 107 68 L 103 53 L 100 51 L 103 59 L 104 80 L 106 89 L 112 101 L 122 112 L 128 122 L 129 125 L 129 137 L 127 141 L 127 146 L 124 155 L 120 159 L 117 147 L 113 139 L 94 118 L 90 109 L 87 96 L 87 109 L 90 118 L 96 127 L 102 132 L 110 141 L 114 149 L 116 157 L 116 166 L 113 175 L 106 187 L 96 197 L 88 203 L 84 205 L 81 203 L 83 198 L 83 186 L 82 181 L 77 170 L 70 163 L 67 161 L 60 160 L 59 159 L 46 161 L 27 161 L 23 160 L 19 155 L 19 148 L 21 143 L 21 138 L 20 136 L 16 133 L 15 129 L 17 127 L 27 125 L 15 121 L 12 118 L 12 116 L 16 110 L 16 106 L 12 102 L 9 101 L 4 97 L 5 91 L 18 77 L 25 66 L 26 63 L 26 46 L 28 34 L 35 17 L 38 12 L 46 3 Z M 109 202 L 112 201 L 123 201 L 125 199 L 122 198 L 114 199 L 112 196 L 121 194 L 129 194 L 137 196 L 141 199 L 134 204 L 124 207 L 113 206 Z M 167 155 L 162 162 L 156 168 L 144 173 L 138 171 L 145 166 L 149 165 L 154 162 L 155 160 L 143 165 L 140 163 L 146 158 L 151 156 L 161 155 L 162 154 Z M 179 106 L 178 111 L 173 120 L 165 128 L 159 131 L 158 128 L 165 121 L 169 115 L 164 118 L 159 123 L 158 119 L 161 115 L 167 110 L 175 106 Z M 133 90 L 140 100 L 136 102 L 137 109 L 139 113 L 137 117 L 132 109 L 130 102 L 130 94 Z M 157 54 L 159 56 L 161 63 L 162 78 L 158 90 L 155 94 L 154 76 L 152 83 L 152 88 L 150 90 L 148 83 L 148 70 L 154 56 Z M 65 1 L 67 2 L 82 3 L 93 7 L 103 12 L 117 25 L 127 41 L 131 56 L 132 68 L 136 78 L 137 73 L 136 72 L 136 63 L 134 58 L 133 49 L 126 31 L 117 19 L 104 9 L 94 4 L 80 0 Z" fill="currentColor" fill-rule="evenodd"/>
</svg>
