<svg xmlns="http://www.w3.org/2000/svg" width="221" height="160" viewBox="0 0 221 160" role="img" aria-hidden="true">
  <path d="M 100 3 L 94 0 L 88 0 L 81 5 L 79 9 L 79 13 L 80 17 L 83 21 L 83 24 L 76 37 L 69 45 L 61 50 L 60 37 L 64 33 L 66 25 L 65 21 L 62 16 L 56 13 L 49 13 L 44 16 L 42 20 L 42 30 L 47 36 L 52 38 L 55 41 L 57 51 L 57 59 L 55 61 L 51 71 L 48 74 L 41 59 L 36 52 L 36 50 L 38 48 L 39 44 L 38 37 L 33 32 L 28 30 L 21 31 L 16 35 L 15 37 L 15 47 L 16 49 L 21 54 L 32 56 L 37 62 L 43 77 L 44 85 L 35 107 L 31 112 L 29 106 L 22 96 L 22 92 L 24 89 L 24 82 L 21 77 L 16 74 L 8 74 L 1 79 L 0 89 L 2 93 L 8 98 L 17 98 L 22 104 L 27 117 L 27 123 L 25 128 L 20 135 L 16 144 L 9 154 L 9 157 L 11 159 L 15 155 L 25 138 L 33 131 L 49 124 L 55 124 L 59 128 L 64 130 L 70 129 L 76 124 L 79 116 L 77 110 L 70 105 L 61 105 L 56 109 L 54 115 L 50 119 L 46 119 L 34 126 L 33 122 L 43 101 L 46 100 L 53 94 L 65 90 L 74 91 L 74 93 L 80 98 L 86 98 L 90 96 L 95 91 L 97 86 L 95 79 L 88 73 L 81 73 L 77 75 L 70 84 L 63 85 L 49 91 L 48 88 L 58 68 L 65 63 L 74 59 L 80 58 L 85 63 L 90 65 L 93 65 L 98 63 L 102 59 L 104 55 L 104 48 L 99 42 L 95 40 L 88 40 L 84 42 L 79 48 L 79 50 L 77 52 L 69 56 L 68 54 L 82 37 L 87 27 L 89 25 L 96 24 L 100 21 L 103 17 L 104 10 Z M 64 110 L 69 111 L 73 115 L 72 120 L 68 124 L 63 124 L 59 120 L 59 114 Z M 80 79 L 86 79 L 91 84 L 91 87 L 87 92 L 84 93 L 81 92 L 77 88 L 77 84 Z M 9 79 L 14 79 L 16 80 L 19 84 L 19 88 L 14 93 L 8 92 L 6 90 L 5 85 L 6 82 Z M 89 45 L 95 46 L 99 51 L 98 55 L 94 59 L 89 59 L 85 54 L 85 49 Z M 23 36 L 29 36 L 33 40 L 33 45 L 29 49 L 23 49 L 19 44 L 19 41 Z M 49 19 L 57 19 L 60 22 L 61 26 L 57 31 L 51 32 L 47 29 L 46 24 Z M 92 5 L 95 6 L 98 9 L 98 15 L 95 18 L 90 20 L 85 16 L 85 8 L 87 6 Z" fill="currentColor" fill-rule="evenodd"/>
</svg>
