<svg xmlns="http://www.w3.org/2000/svg" width="349" height="274" viewBox="0 0 349 274" role="img" aria-hidden="true">
  <path d="M 213 265 L 214 267 L 218 265 Z M 295 256 L 291 259 L 290 269 L 293 272 L 299 273 L 304 270 L 303 264 L 298 264 L 301 268 L 298 271 L 296 270 L 293 266 L 293 260 L 295 258 L 300 258 L 302 260 L 302 257 L 300 256 Z M 271 256 L 272 261 L 272 273 L 277 265 L 279 269 L 284 271 L 282 256 L 282 263 L 280 265 L 273 256 Z M 262 256 L 262 272 L 264 271 L 265 258 Z M 246 256 L 243 258 L 241 265 L 243 270 L 245 272 L 251 273 L 256 269 L 255 264 L 250 264 L 252 268 L 248 271 L 244 267 L 244 261 L 247 258 L 254 257 L 252 256 Z M 229 256 L 223 272 L 227 269 L 232 269 L 235 273 L 237 271 L 233 263 L 232 258 Z M 205 256 L 205 272 L 207 271 L 208 259 L 207 257 Z M 199 256 L 188 256 L 188 258 L 191 258 L 193 260 L 193 272 L 195 271 L 196 258 Z M 170 256 L 170 272 L 172 271 L 174 263 L 181 273 L 182 256 L 180 256 L 181 262 L 178 265 L 175 260 Z M 156 256 L 151 269 L 151 272 L 153 271 L 153 270 L 161 270 L 161 271 L 164 271 L 162 264 L 158 256 Z M 0 192 L 0 199 L 14 201 L 9 204 L 0 203 L 0 206 L 13 206 L 25 201 L 26 197 L 18 193 L 8 191 L 2 191 Z M 0 196 L 1 194 L 13 194 L 21 198 L 16 202 L 14 200 L 16 198 L 10 198 L 9 197 Z M 148 155 L 148 158 L 150 162 L 156 166 L 164 166 L 166 163 L 157 163 L 154 162 Z M 148 140 L 148 145 L 149 147 L 154 151 L 163 151 L 174 155 L 182 155 L 184 153 L 177 152 L 173 150 L 165 142 L 161 140 L 155 140 L 154 139 Z M 150 143 L 152 141 L 154 143 L 162 143 L 167 147 L 164 149 L 153 147 Z M 4 136 L 2 136 L 0 139 L 0 145 L 3 146 L 0 148 L 0 158 L 0 155 L 4 151 L 4 155 L 2 163 L 0 166 L 0 170 L 4 163 L 6 156 L 6 142 Z M 158 118 L 159 121 L 163 122 L 165 124 L 168 123 L 164 119 Z M 295 115 L 291 117 L 289 121 L 290 130 L 282 139 L 284 139 L 292 132 L 293 130 L 292 119 Z M 0 115 L 0 117 L 2 118 L 12 117 L 6 117 Z M 264 114 L 261 114 L 251 121 L 251 125 L 256 125 L 248 138 L 236 151 L 221 162 L 213 166 L 204 169 L 196 170 L 198 172 L 209 170 L 217 167 L 233 158 L 245 147 L 251 140 L 257 130 L 261 129 L 262 132 L 265 128 Z M 49 104 L 39 111 L 31 120 L 26 134 L 24 150 L 11 167 L 0 177 L 0 182 L 9 177 L 26 178 L 27 177 L 35 176 L 41 173 L 51 160 L 36 160 L 31 161 L 24 164 L 16 170 L 10 172 L 19 162 L 27 150 L 30 147 L 37 143 L 44 135 L 48 127 L 50 119 L 51 106 Z M 39 164 L 37 166 L 27 169 L 26 167 L 28 165 L 33 163 Z M 46 164 L 40 170 L 30 175 L 23 172 L 38 167 L 41 162 L 43 162 Z M 48 111 L 47 119 L 42 133 L 34 141 L 33 138 L 35 136 L 35 134 L 41 124 L 43 119 L 42 117 L 33 135 L 29 140 L 28 135 L 29 131 L 34 121 L 42 112 L 45 110 Z M 0 103 L 9 104 L 13 103 L 15 101 L 7 102 L 0 100 Z M 193 88 L 196 90 L 195 92 L 200 93 L 200 96 L 207 96 L 216 98 L 231 94 L 232 89 L 228 89 L 222 92 L 215 93 L 206 91 L 200 86 L 201 76 L 199 77 L 198 84 Z M 189 56 L 190 62 L 193 59 L 203 56 L 219 56 L 224 57 L 236 62 L 247 71 L 248 69 L 236 58 L 227 53 L 212 50 L 204 50 L 194 52 Z M 298 41 L 309 58 L 316 78 L 318 95 L 318 103 L 317 111 L 316 112 L 316 117 L 318 115 L 320 103 L 320 86 L 318 74 L 315 64 L 304 46 Z M 0 35 L 0 39 L 6 47 L 14 62 L 20 82 L 22 96 L 22 112 L 18 134 L 10 155 L 10 158 L 12 156 L 18 143 L 23 125 L 25 110 L 24 88 L 19 67 L 10 48 Z M 207 1 L 216 2 L 227 6 L 234 10 L 247 20 L 263 37 L 265 46 L 268 51 L 273 66 L 282 81 L 283 90 L 290 104 L 294 108 L 302 112 L 306 116 L 308 120 L 308 129 L 304 139 L 301 143 L 292 151 L 286 154 L 280 155 L 273 149 L 273 156 L 267 171 L 264 185 L 264 214 L 266 220 L 262 223 L 261 226 L 282 216 L 288 216 L 294 219 L 303 221 L 313 220 L 322 215 L 323 211 L 315 208 L 309 208 L 308 207 L 303 207 L 293 210 L 288 210 L 302 197 L 308 194 L 324 194 L 333 191 L 336 189 L 347 177 L 348 174 L 335 174 L 321 180 L 311 190 L 310 187 L 318 175 L 321 168 L 332 157 L 338 146 L 340 137 L 339 122 L 337 122 L 326 132 L 320 143 L 318 151 L 318 169 L 310 183 L 303 192 L 291 204 L 290 201 L 299 188 L 301 181 L 300 165 L 299 163 L 297 162 L 289 174 L 287 182 L 288 202 L 286 206 L 277 215 L 272 218 L 268 218 L 267 216 L 267 190 L 270 173 L 275 158 L 278 157 L 284 158 L 295 153 L 306 142 L 310 135 L 311 131 L 311 120 L 308 113 L 302 108 L 297 106 L 289 98 L 285 90 L 286 86 L 292 93 L 296 95 L 304 102 L 311 105 L 303 97 L 294 90 L 285 80 L 273 59 L 270 45 L 288 62 L 292 67 L 295 67 L 274 45 L 258 26 L 243 12 L 227 3 L 216 0 Z M 298 215 L 301 214 L 314 215 L 309 218 Z M 310 212 L 311 210 L 314 211 Z M 343 177 L 334 187 L 325 191 L 321 189 L 323 187 L 335 181 L 332 181 L 324 185 L 324 181 L 327 179 L 333 177 L 338 177 L 339 176 Z M 298 170 L 299 179 L 297 181 L 295 175 L 292 189 L 290 191 L 289 183 L 291 176 L 294 171 Z M 337 135 L 335 147 L 331 154 L 327 158 L 326 154 L 333 136 Z M 332 135 L 332 137 L 326 148 L 324 155 L 322 157 L 321 148 L 322 144 L 326 137 Z M 187 0 L 170 10 L 161 20 L 153 34 L 147 49 L 147 59 L 150 72 L 149 78 L 143 80 L 145 86 L 145 90 L 140 100 L 138 108 L 138 131 L 140 151 L 143 165 L 143 186 L 146 194 L 152 199 L 162 202 L 187 201 L 190 203 L 194 208 L 198 218 L 201 237 L 203 236 L 203 229 L 199 212 L 194 203 L 195 199 L 202 198 L 224 191 L 236 185 L 245 179 L 249 175 L 251 175 L 252 177 L 254 176 L 257 168 L 256 165 L 253 165 L 245 168 L 246 170 L 248 171 L 238 180 L 229 185 L 214 191 L 184 198 L 175 198 L 174 199 L 159 198 L 151 194 L 147 189 L 146 186 L 146 164 L 144 153 L 145 149 L 143 147 L 141 133 L 141 110 L 143 101 L 148 89 L 150 87 L 158 86 L 161 88 L 157 94 L 145 107 L 145 115 L 148 121 L 154 128 L 155 125 L 148 115 L 148 108 L 162 92 L 167 83 L 169 77 L 169 67 L 166 57 L 159 49 L 155 48 L 153 46 L 155 38 L 163 23 L 173 12 L 182 5 L 188 2 L 189 0 Z M 151 52 L 154 52 L 158 54 L 165 62 L 166 65 L 166 75 L 165 79 L 162 82 L 155 82 L 152 79 L 153 69 L 150 59 Z" fill="currentColor" fill-rule="evenodd"/>
</svg>
