<svg xmlns="http://www.w3.org/2000/svg" width="225" height="261" viewBox="0 0 225 261" role="img" aria-hidden="true">
  <path d="M 134 242 L 134 258 L 136 257 L 138 250 L 143 257 L 146 257 L 145 242 L 145 249 L 141 250 L 139 246 Z M 118 242 L 116 243 L 114 246 L 114 255 L 116 258 L 122 260 L 128 255 L 129 253 L 129 248 L 124 242 Z M 123 244 L 126 247 L 126 254 L 122 258 L 119 258 L 116 253 L 116 247 L 117 245 Z M 108 242 L 106 242 L 106 258 L 108 257 L 109 253 Z M 93 242 L 91 244 L 91 248 L 99 255 L 96 258 L 94 258 L 90 255 L 90 257 L 92 259 L 96 260 L 100 257 L 101 253 L 93 247 L 94 244 L 98 245 L 98 242 Z M 78 242 L 76 244 L 76 248 L 84 255 L 80 258 L 78 256 L 76 256 L 77 259 L 81 260 L 86 256 L 86 252 L 79 247 L 80 244 L 82 244 L 84 246 L 86 244 L 83 242 Z M 69 242 L 68 256 L 71 258 Z M 47 242 L 47 259 L 49 258 L 52 253 L 54 258 L 57 253 L 60 253 L 61 259 L 61 242 L 59 242 L 57 249 L 53 250 L 51 244 L 49 242 Z M 202 89 L 199 90 L 195 98 L 193 106 L 193 115 L 197 129 L 196 136 L 198 134 L 199 128 L 204 120 L 207 111 L 206 100 Z M 198 97 L 202 97 L 204 100 L 205 106 L 204 115 L 201 120 L 199 110 L 199 118 L 197 120 L 195 116 L 195 107 L 196 101 Z M 142 41 L 131 42 L 123 41 L 114 38 L 109 38 L 107 35 L 102 31 L 98 32 L 98 36 L 100 38 L 100 77 L 78 104 L 71 110 L 60 98 L 57 98 L 17 143 L 16 147 L 49 112 L 57 102 L 59 102 L 70 114 L 53 135 L 53 137 L 59 132 L 67 123 L 74 113 L 82 105 L 89 95 L 100 83 L 102 83 L 134 123 L 142 115 L 144 115 L 167 141 L 169 139 L 151 117 L 144 110 L 142 110 L 134 118 L 103 79 L 103 62 L 105 60 L 115 60 L 120 62 L 125 62 L 130 60 L 141 59 L 134 51 L 134 49 Z M 47 16 L 34 26 L 19 44 L 7 68 L 1 90 L 0 98 L 1 131 L 8 156 L 16 172 L 26 186 L 42 201 L 59 211 L 78 217 L 87 218 L 106 217 L 125 212 L 144 203 L 149 204 L 160 203 L 168 209 L 173 205 L 173 202 L 171 200 L 167 199 L 163 202 L 151 202 L 151 198 L 162 190 L 171 187 L 190 188 L 201 182 L 206 174 L 191 173 L 181 177 L 171 186 L 170 183 L 184 166 L 195 155 L 208 152 L 218 143 L 224 131 L 221 130 L 220 131 L 217 131 L 206 136 L 198 146 L 197 150 L 191 156 L 188 156 L 185 159 L 184 156 L 185 155 L 185 152 L 187 150 L 189 137 L 188 131 L 184 123 L 181 119 L 179 119 L 176 137 L 177 138 L 178 146 L 182 153 L 182 160 L 176 172 L 166 183 L 163 184 L 158 190 L 157 187 L 164 178 L 167 170 L 167 158 L 164 148 L 162 147 L 154 161 L 153 174 L 155 180 L 155 188 L 152 193 L 142 201 L 132 206 L 131 203 L 134 199 L 136 193 L 140 189 L 139 183 L 134 182 L 132 183 L 132 189 L 134 192 L 134 195 L 130 202 L 123 209 L 111 213 L 92 215 L 75 213 L 65 210 L 56 206 L 41 196 L 32 187 L 32 185 L 34 183 L 48 176 L 73 169 L 82 168 L 105 168 L 120 170 L 126 172 L 127 170 L 122 170 L 119 168 L 107 166 L 83 165 L 66 168 L 51 172 L 40 177 L 31 183 L 29 183 L 22 175 L 10 152 L 5 132 L 3 104 L 6 84 L 14 60 L 24 43 L 35 30 L 55 15 L 75 7 L 90 4 L 112 4 L 136 10 L 157 22 L 176 40 L 182 48 L 192 68 L 194 77 L 196 80 L 197 76 L 192 60 L 185 47 L 177 36 L 165 24 L 156 17 L 137 7 L 120 2 L 98 0 L 73 4 L 64 7 L 62 9 Z M 203 177 L 190 186 L 186 186 L 185 187 L 181 186 L 182 183 L 185 182 L 181 179 L 191 175 L 198 175 Z M 164 154 L 165 161 L 166 162 L 164 173 L 161 178 L 159 173 L 159 176 L 157 178 L 155 176 L 156 162 L 159 158 L 160 154 Z M 220 135 L 215 143 L 211 147 L 204 151 L 203 148 L 212 139 L 202 143 L 208 137 L 217 133 Z M 180 125 L 183 126 L 187 136 L 186 144 L 181 147 L 178 140 Z" fill="currentColor" fill-rule="evenodd"/>
</svg>
