<svg xmlns="http://www.w3.org/2000/svg" width="195" height="213" viewBox="0 0 195 213" role="img" aria-hidden="true">
  <path d="M 180 77 L 178 77 L 169 94 L 168 99 L 168 115 L 170 120 L 169 124 L 167 126 L 166 131 L 161 139 L 160 135 L 163 127 L 163 115 L 161 108 L 157 101 L 155 100 L 151 114 L 151 126 L 156 139 L 155 150 L 148 161 L 133 176 L 132 173 L 142 157 L 145 149 L 145 142 L 143 131 L 139 121 L 136 119 L 128 141 L 128 155 L 131 164 L 131 169 L 125 180 L 117 188 L 112 190 L 104 196 L 92 201 L 91 198 L 106 187 L 112 180 L 116 168 L 117 155 L 116 151 L 113 151 L 100 165 L 96 174 L 93 192 L 84 201 L 71 207 L 66 207 L 61 209 L 51 210 L 34 208 L 35 211 L 38 212 L 63 212 L 79 209 L 95 204 L 106 204 L 116 209 L 125 212 L 136 212 L 153 207 L 155 204 L 133 195 L 113 195 L 130 183 L 137 181 L 142 181 L 148 184 L 161 186 L 166 185 L 175 181 L 187 172 L 188 170 L 164 167 L 150 170 L 145 174 L 140 174 L 157 155 L 164 151 L 172 149 L 179 145 L 186 138 L 191 128 L 193 122 L 192 116 L 178 125 L 174 129 L 170 129 L 172 120 L 179 112 L 182 106 L 183 101 L 183 90 Z M 116 203 L 133 202 L 121 200 L 122 198 L 128 198 L 138 200 L 144 203 L 145 205 L 143 207 L 137 209 L 123 209 L 116 206 Z M 149 179 L 154 179 L 159 177 L 163 177 L 166 175 L 155 172 L 157 171 L 166 170 L 180 173 L 172 179 L 165 182 L 152 183 Z M 110 159 L 113 160 L 112 171 L 107 182 L 103 186 L 102 183 L 104 181 L 105 177 L 108 172 L 105 172 L 103 178 L 99 184 L 98 177 L 102 168 Z M 136 129 L 139 130 L 141 137 L 141 150 L 139 152 L 136 141 L 135 151 L 132 156 L 130 151 L 130 145 L 133 135 Z M 188 125 L 185 134 L 175 145 L 171 147 L 170 144 L 181 133 L 181 131 L 176 135 L 175 132 L 184 125 Z M 158 110 L 160 117 L 157 119 L 156 122 L 157 126 L 155 128 L 153 125 L 153 117 L 154 111 Z M 179 88 L 180 98 L 174 100 L 174 104 L 171 109 L 170 101 L 174 90 Z M 53 56 L 59 63 L 59 110 L 55 115 L 52 115 L 53 117 L 70 115 L 68 115 L 65 110 L 65 93 L 66 87 L 78 88 L 82 94 L 102 104 L 106 108 L 108 112 L 108 119 L 106 123 L 99 129 L 91 130 L 85 128 L 78 122 L 74 111 L 74 129 L 79 128 L 89 132 L 96 132 L 105 129 L 111 123 L 114 116 L 113 106 L 104 96 L 87 89 L 83 83 L 83 78 L 85 73 L 88 70 L 99 69 L 105 73 L 107 76 L 109 83 L 108 67 L 106 69 L 104 69 L 101 67 L 95 66 L 93 64 L 92 56 L 56 57 Z M 87 59 L 91 64 L 80 72 L 77 79 L 77 83 L 74 85 L 67 85 L 65 83 L 65 66 L 67 59 L 72 58 L 84 58 Z M 79 15 L 67 24 L 51 31 L 34 36 L 11 39 L 11 90 L 13 106 L 19 126 L 26 141 L 32 151 L 40 161 L 58 178 L 81 193 L 83 193 L 88 189 L 89 186 L 86 186 L 84 188 L 81 188 L 70 182 L 51 167 L 38 153 L 37 150 L 30 141 L 24 129 L 17 106 L 15 92 L 14 61 L 16 42 L 30 40 L 51 34 L 65 28 L 80 19 L 84 19 L 89 23 L 112 34 L 129 39 L 148 42 L 150 44 L 150 86 L 147 105 L 149 104 L 153 93 L 154 73 L 153 40 L 151 38 L 142 38 L 123 34 L 101 26 L 96 22 L 92 21 L 83 15 Z M 83 0 L 80 0 L 74 5 L 61 13 L 42 21 L 28 25 L 0 29 L 0 94 L 3 113 L 9 132 L 18 150 L 31 168 L 51 187 L 74 202 L 77 200 L 77 197 L 75 197 L 66 192 L 55 183 L 51 181 L 35 165 L 27 155 L 16 136 L 11 123 L 6 102 L 5 92 L 5 34 L 7 32 L 15 32 L 27 30 L 46 25 L 70 14 L 79 7 L 83 6 L 86 9 L 96 15 L 115 24 L 136 30 L 158 33 L 160 35 L 159 96 L 161 101 L 163 100 L 165 88 L 165 30 L 163 28 L 146 27 L 131 24 L 116 19 L 92 7 Z" fill="currentColor" fill-rule="evenodd"/>
</svg>
