<svg xmlns="http://www.w3.org/2000/svg" width="134" height="220" viewBox="0 0 134 220" role="img" aria-hidden="true">
  <path d="M 6 219 L 39 219 L 40 215 L 53 215 L 56 212 L 56 204 L 57 202 L 60 200 L 66 201 L 69 205 L 69 212 L 72 215 L 84 215 L 86 217 L 86 219 L 118 219 L 114 214 L 108 212 L 94 212 L 90 208 L 77 208 L 75 206 L 74 199 L 70 195 L 66 193 L 59 193 L 53 196 L 50 200 L 49 205 L 46 208 L 34 208 L 30 212 L 15 212 L 8 216 Z M 100 100 L 98 100 L 97 106 L 93 110 L 88 111 L 88 113 L 90 115 L 93 115 L 97 119 L 99 126 L 101 124 L 102 118 L 105 115 L 109 114 L 109 111 L 106 111 L 102 108 Z M 97 114 L 98 110 L 100 110 L 102 112 Z M 23 30 L 22 35 L 19 38 L 16 38 L 17 41 L 20 41 L 22 43 L 24 49 L 26 47 L 26 44 L 32 39 L 29 38 L 27 36 L 26 32 Z M 116 6 L 116 10 L 114 16 L 107 21 L 103 21 L 104 25 L 108 25 L 114 30 L 117 39 L 119 37 L 121 29 L 124 26 L 130 25 L 133 22 L 124 19 L 121 15 L 119 7 Z M 116 18 L 118 18 L 122 23 L 117 28 L 113 24 L 113 21 Z M 59 0 L 58 2 L 56 24 L 48 46 L 36 58 L 31 61 L 13 66 L 2 66 L 0 67 L 1 72 L 3 73 L 16 74 L 31 78 L 37 81 L 46 89 L 52 100 L 55 109 L 58 125 L 58 134 L 59 136 L 61 137 L 64 134 L 66 115 L 70 101 L 73 94 L 78 87 L 87 80 L 94 77 L 105 74 L 119 73 L 121 72 L 123 69 L 121 67 L 109 66 L 99 64 L 91 61 L 84 57 L 75 48 L 70 38 L 66 23 L 64 2 L 62 0 Z M 60 30 L 63 31 L 65 41 L 74 56 L 81 62 L 91 67 L 99 69 L 97 71 L 91 72 L 82 76 L 72 85 L 67 93 L 64 100 L 63 106 L 61 108 L 59 105 L 57 97 L 50 84 L 46 80 L 38 75 L 26 71 L 26 68 L 39 63 L 50 53 L 57 41 Z M 63 11 L 63 17 L 61 19 L 59 17 L 59 14 Z" fill="currentColor" fill-rule="evenodd"/>
</svg>
