<svg xmlns="http://www.w3.org/2000/svg" width="130" height="140" viewBox="0 0 130 140" role="img" aria-hidden="true">
  <path d="M 83 0 L 79 0 L 70 10 L 62 23 L 60 30 L 60 44 L 63 54 L 58 69 L 55 73 L 54 66 L 51 65 L 49 55 L 43 43 L 37 38 L 32 37 L 30 44 L 29 61 L 33 74 L 42 85 L 41 98 L 35 112 L 27 120 L 26 117 L 29 110 L 29 101 L 28 98 L 20 88 L 15 89 L 13 98 L 14 108 L 16 113 L 20 118 L 20 123 L 18 127 L 14 131 L 7 134 L 0 135 L 1 139 L 7 139 L 26 134 L 30 131 L 32 131 L 41 126 L 56 115 L 66 106 L 75 101 L 83 99 L 87 99 L 95 102 L 100 109 L 100 114 L 99 116 L 92 122 L 88 121 L 86 118 L 88 113 L 84 113 L 82 115 L 82 121 L 84 124 L 89 127 L 93 127 L 97 125 L 103 119 L 105 115 L 105 107 L 103 103 L 98 98 L 92 95 L 81 94 L 76 95 L 74 97 L 72 97 L 65 101 L 35 124 L 31 126 L 30 124 L 36 118 L 39 113 L 44 111 L 44 108 L 47 102 L 51 98 L 51 96 L 58 89 L 69 83 L 78 80 L 93 78 L 103 74 L 111 69 L 124 57 L 129 51 L 125 48 L 115 46 L 103 46 L 92 49 L 78 57 L 63 73 L 62 70 L 64 67 L 67 56 L 81 41 L 86 29 L 87 16 Z M 22 96 L 25 102 L 25 106 L 21 111 L 18 106 L 18 97 Z M 54 72 L 55 76 L 51 85 L 46 87 L 46 83 L 49 74 L 52 72 Z M 121 53 L 108 65 L 98 71 L 89 74 L 79 75 L 71 78 L 69 76 L 69 73 L 80 62 L 95 53 L 102 51 L 116 51 Z M 37 45 L 42 50 L 45 56 L 47 65 L 47 69 L 45 71 L 44 68 L 42 66 L 40 66 L 41 72 L 39 74 L 36 70 L 34 61 L 34 50 Z M 81 9 L 82 25 L 80 32 L 75 42 L 72 45 L 71 37 L 69 37 L 68 42 L 66 44 L 64 42 L 64 34 L 68 22 L 73 14 Z" fill="currentColor" fill-rule="evenodd"/>
</svg>
