<svg xmlns="http://www.w3.org/2000/svg" width="269" height="345" viewBox="0 0 269 345" role="img" aria-hidden="true">
  <path d="M 22 309 L 15 310 L 11 315 L 11 344 L 14 344 L 14 317 L 17 313 L 20 314 L 19 320 L 21 322 L 23 322 L 27 318 L 26 312 Z M 146 0 L 141 0 L 131 3 L 123 9 L 117 21 L 111 27 L 106 30 L 101 31 L 93 35 L 92 31 L 97 22 L 99 20 L 101 20 L 104 17 L 105 14 L 102 10 L 97 10 L 95 12 L 95 17 L 97 20 L 92 29 L 83 39 L 80 41 L 77 41 L 74 45 L 72 46 L 71 43 L 74 39 L 78 29 L 82 28 L 85 24 L 85 19 L 82 16 L 79 16 L 75 21 L 76 30 L 74 32 L 67 48 L 58 54 L 58 52 L 60 50 L 62 34 L 60 32 L 58 22 L 56 22 L 55 25 L 49 33 L 47 42 L 48 53 L 50 57 L 49 65 L 42 79 L 37 86 L 36 68 L 40 63 L 40 59 L 36 54 L 32 54 L 29 59 L 30 66 L 34 70 L 35 81 L 34 94 L 32 101 L 30 104 L 28 117 L 26 119 L 25 112 L 26 111 L 26 104 L 28 101 L 26 98 L 26 93 L 24 87 L 19 78 L 18 74 L 16 74 L 15 79 L 12 84 L 11 90 L 12 106 L 18 116 L 22 120 L 26 132 L 27 152 L 25 154 L 19 145 L 19 138 L 15 130 L 5 122 L 2 122 L 6 137 L 11 143 L 15 144 L 19 147 L 24 157 L 22 159 L 18 160 L 13 157 L 0 154 L 0 156 L 9 172 L 15 177 L 22 180 L 31 182 L 41 191 L 45 198 L 49 202 L 48 206 L 46 206 L 34 201 L 29 195 L 23 194 L 21 195 L 20 201 L 23 205 L 28 205 L 30 203 L 35 203 L 46 207 L 54 212 L 60 214 L 69 222 L 80 229 L 77 231 L 64 223 L 50 220 L 47 220 L 38 223 L 33 223 L 36 227 L 44 233 L 54 237 L 66 237 L 74 233 L 87 233 L 107 240 L 105 242 L 90 243 L 88 245 L 84 246 L 79 250 L 74 252 L 76 255 L 83 256 L 90 259 L 101 259 L 110 255 L 117 248 L 130 243 L 141 244 L 145 242 L 150 243 L 143 249 L 138 251 L 135 251 L 129 255 L 128 259 L 129 263 L 137 260 L 141 255 L 142 251 L 150 245 L 167 237 L 172 238 L 162 250 L 158 250 L 156 252 L 157 258 L 159 260 L 163 260 L 166 257 L 167 254 L 165 251 L 166 247 L 178 234 L 188 229 L 198 222 L 201 223 L 197 227 L 187 233 L 182 238 L 178 246 L 176 259 L 181 256 L 185 255 L 193 249 L 197 244 L 200 238 L 202 224 L 207 216 L 222 200 L 224 196 L 230 193 L 225 199 L 221 208 L 221 224 L 222 225 L 222 230 L 227 226 L 234 214 L 235 205 L 232 196 L 233 185 L 237 172 L 240 167 L 241 161 L 244 157 L 246 159 L 247 166 L 245 168 L 245 175 L 250 181 L 252 182 L 255 181 L 256 171 L 255 169 L 249 164 L 246 152 L 245 129 L 248 118 L 249 129 L 254 142 L 261 149 L 268 152 L 268 137 L 263 127 L 255 119 L 252 118 L 246 111 L 242 102 L 236 83 L 238 83 L 246 91 L 247 96 L 250 102 L 256 108 L 261 110 L 263 107 L 262 102 L 259 97 L 255 93 L 247 90 L 237 79 L 230 74 L 223 66 L 224 63 L 226 63 L 234 67 L 252 65 L 249 61 L 240 53 L 231 51 L 227 51 L 221 53 L 214 53 L 206 50 L 198 44 L 195 43 L 194 39 L 197 39 L 198 38 L 205 39 L 209 42 L 218 42 L 226 36 L 222 35 L 220 33 L 211 32 L 205 36 L 198 37 L 187 37 L 184 35 L 181 29 L 183 28 L 188 28 L 192 31 L 194 31 L 201 26 L 201 24 L 199 22 L 191 22 L 185 27 L 180 27 L 176 29 L 168 29 L 167 27 L 165 27 L 163 29 L 153 27 L 146 27 L 145 23 L 148 22 L 152 22 L 156 24 L 166 24 L 171 22 L 181 16 L 183 13 L 174 10 L 163 10 L 154 14 L 143 23 L 132 26 L 122 26 L 118 28 L 118 24 L 122 24 L 133 19 L 140 12 L 144 6 Z M 86 255 L 87 252 L 89 252 L 91 254 L 89 256 Z M 92 248 L 89 251 L 85 252 L 85 248 L 87 247 Z M 190 246 L 190 249 L 188 251 L 184 251 L 184 249 Z M 187 242 L 187 244 L 183 249 L 180 249 L 181 244 L 184 241 Z M 113 243 L 114 241 L 116 241 L 117 242 L 120 243 L 118 245 L 115 245 Z M 144 237 L 146 235 L 151 237 L 149 239 L 146 239 Z M 44 228 L 46 226 L 54 230 L 51 233 L 48 233 Z M 45 225 L 46 223 L 51 223 L 53 225 L 51 227 L 47 227 Z M 157 216 L 160 219 L 156 218 Z M 232 208 L 231 215 L 228 218 L 227 215 L 228 214 L 228 211 Z M 227 205 L 226 216 L 222 217 L 223 208 Z M 196 205 L 193 208 L 193 204 Z M 25 197 L 28 199 L 26 201 L 24 199 Z M 72 196 L 75 200 L 75 202 L 73 204 L 71 201 L 68 199 Z M 253 170 L 253 171 L 254 173 L 252 175 L 251 173 L 250 172 Z M 217 169 L 218 166 L 221 168 Z M 28 165 L 30 167 L 31 172 L 34 177 L 33 180 L 27 170 Z M 13 159 L 15 161 L 15 164 L 10 169 L 7 165 L 8 162 L 11 162 L 9 160 Z M 51 158 L 53 160 L 52 166 L 48 165 L 46 171 L 44 167 L 44 161 L 47 159 L 48 161 L 49 159 Z M 253 135 L 254 133 L 256 133 L 258 136 L 260 135 L 261 133 L 263 133 L 265 135 L 265 138 L 263 140 L 256 139 Z M 223 116 L 226 117 L 225 119 L 223 121 L 222 118 Z M 212 92 L 213 89 L 216 91 Z M 209 88 L 211 91 L 209 93 L 207 91 Z M 22 88 L 23 94 L 18 95 L 18 97 L 16 99 L 13 96 L 14 90 L 16 90 L 17 92 Z M 196 63 L 198 63 L 200 66 L 198 68 L 195 65 Z M 65 64 L 65 67 L 62 70 L 57 73 L 53 73 L 50 76 L 49 73 L 55 67 L 62 63 Z M 57 59 L 53 63 L 52 60 L 53 58 Z M 37 59 L 33 60 L 35 57 Z M 213 56 L 216 55 L 218 56 L 220 62 L 217 59 L 216 59 Z M 86 52 L 87 50 L 91 51 L 89 53 Z M 157 47 L 158 45 L 162 46 L 160 48 Z M 175 30 L 177 33 L 174 32 Z M 139 31 L 154 30 L 159 33 L 157 35 L 142 34 Z M 120 30 L 127 30 L 135 32 L 139 34 L 155 51 L 165 55 L 174 57 L 176 55 L 173 52 L 169 44 L 164 40 L 162 32 L 177 37 L 188 47 L 194 57 L 195 60 L 193 62 L 193 70 L 194 72 L 198 75 L 203 69 L 202 63 L 196 59 L 194 52 L 189 45 L 192 44 L 199 48 L 204 53 L 210 63 L 212 73 L 206 84 L 206 96 L 208 101 L 208 104 L 214 99 L 218 90 L 217 74 L 224 87 L 224 91 L 227 100 L 227 109 L 222 113 L 220 117 L 220 126 L 223 132 L 226 130 L 231 124 L 232 116 L 228 112 L 229 101 L 228 91 L 220 75 L 211 62 L 212 59 L 223 70 L 228 77 L 230 83 L 236 93 L 240 105 L 242 115 L 242 122 L 238 140 L 234 148 L 230 152 L 215 158 L 207 172 L 207 174 L 215 174 L 225 169 L 232 160 L 233 153 L 238 144 L 242 143 L 240 157 L 234 174 L 227 184 L 216 194 L 213 195 L 197 195 L 190 197 L 185 200 L 179 206 L 179 208 L 184 208 L 189 210 L 196 210 L 203 207 L 211 199 L 218 194 L 221 195 L 218 201 L 215 203 L 215 201 L 215 203 L 205 213 L 199 216 L 196 219 L 183 223 L 172 223 L 169 222 L 163 215 L 159 213 L 151 214 L 151 217 L 153 222 L 158 226 L 161 226 L 165 223 L 186 223 L 189 224 L 184 228 L 177 230 L 168 235 L 153 235 L 146 233 L 134 220 L 127 217 L 113 216 L 113 218 L 116 221 L 116 225 L 118 225 L 123 231 L 134 235 L 139 235 L 141 237 L 138 240 L 124 240 L 117 238 L 107 233 L 98 225 L 98 220 L 96 216 L 89 210 L 89 218 L 91 222 L 96 225 L 102 234 L 97 234 L 90 230 L 81 221 L 77 214 L 77 201 L 75 194 L 70 186 L 66 185 L 64 190 L 65 201 L 68 209 L 75 215 L 78 220 L 75 222 L 73 221 L 59 208 L 53 197 L 51 190 L 52 183 L 56 172 L 56 164 L 50 150 L 50 146 L 47 146 L 47 149 L 42 162 L 42 173 L 44 180 L 49 188 L 50 192 L 49 197 L 44 191 L 43 184 L 39 181 L 36 175 L 34 165 L 34 153 L 35 146 L 38 137 L 41 132 L 47 130 L 52 125 L 53 115 L 51 115 L 43 120 L 40 126 L 41 130 L 38 133 L 36 139 L 33 143 L 33 149 L 31 151 L 29 149 L 29 130 L 31 122 L 34 116 L 38 111 L 48 107 L 57 99 L 65 84 L 60 83 L 58 85 L 48 89 L 41 96 L 38 105 L 34 110 L 33 105 L 36 96 L 43 83 L 49 78 L 57 74 L 61 75 L 65 74 L 67 71 L 67 61 L 90 62 L 107 53 L 108 51 L 99 48 L 82 48 L 80 50 L 78 50 L 70 57 L 67 57 L 62 61 L 61 59 L 72 49 L 83 42 L 92 38 L 111 38 L 121 41 L 125 44 L 126 48 L 129 51 L 136 53 L 138 51 L 137 47 L 134 43 L 129 41 L 123 41 L 121 39 L 116 38 L 114 36 L 106 33 Z M 221 179 L 219 179 L 216 182 L 215 187 L 222 182 Z M 78 22 L 79 19 L 82 21 Z M 162 20 L 166 17 L 169 17 L 171 19 L 169 21 Z M 166 13 L 173 13 L 171 15 L 168 15 Z M 163 12 L 165 15 L 160 17 L 160 13 Z" fill="currentColor" fill-rule="evenodd"/>
</svg>
