<svg xmlns="http://www.w3.org/2000/svg" width="112" height="482" viewBox="0 0 112 482" role="img" aria-hidden="true">
  <path d="M 47 0 L 36 0 L 28 3 L 20 10 L 16 20 L 16 33 L 19 40 L 25 46 L 30 48 L 38 48 L 46 42 L 48 38 L 48 33 L 44 28 L 41 29 L 41 36 L 37 40 L 30 40 L 26 36 L 24 30 L 24 21 L 26 16 L 31 11 L 35 9 L 45 8 L 49 9 L 54 12 L 58 16 L 63 24 L 65 36 L 64 54 L 62 62 L 54 85 L 51 89 L 51 92 L 49 94 L 48 88 L 46 86 L 46 81 L 48 78 L 47 73 L 43 70 L 38 70 L 36 71 L 34 74 L 34 80 L 35 82 L 43 88 L 44 101 L 42 113 L 34 130 L 32 139 L 30 141 L 29 136 L 31 133 L 32 124 L 31 114 L 26 99 L 19 88 L 15 84 L 11 84 L 10 91 L 8 96 L 8 115 L 9 120 L 15 133 L 24 143 L 26 151 L 26 160 L 24 168 L 24 200 L 26 206 L 26 212 L 28 219 L 26 221 L 22 214 L 17 209 L 8 204 L 0 203 L 0 209 L 3 218 L 7 224 L 16 232 L 25 235 L 36 246 L 54 284 L 52 286 L 42 282 L 34 282 L 26 285 L 20 291 L 17 297 L 16 308 L 18 316 L 24 323 L 30 326 L 36 326 L 42 323 L 46 317 L 46 310 L 45 308 L 40 307 L 40 314 L 36 319 L 32 319 L 30 318 L 25 312 L 24 309 L 24 301 L 26 296 L 31 291 L 34 290 L 44 290 L 50 293 L 56 299 L 65 314 L 68 325 L 70 340 L 70 362 L 65 391 L 58 411 L 56 413 L 55 419 L 52 423 L 51 415 L 53 413 L 54 407 L 54 389 L 53 384 L 47 371 L 43 365 L 33 354 L 30 355 L 28 369 L 28 390 L 30 398 L 35 408 L 45 421 L 45 436 L 38 451 L 22 475 L 22 479 L 24 481 L 26 481 L 31 476 L 47 451 L 50 444 L 56 438 L 64 433 L 75 434 L 86 431 L 96 425 L 110 411 L 109 407 L 104 406 L 90 406 L 78 410 L 74 413 L 64 423 L 61 428 L 60 425 L 63 420 L 70 401 L 74 386 L 75 377 L 81 365 L 84 362 L 89 360 L 94 356 L 104 344 L 109 332 L 111 322 L 110 313 L 106 313 L 96 320 L 86 332 L 83 338 L 81 347 L 78 351 L 77 333 L 75 320 L 69 302 L 69 289 L 70 283 L 80 270 L 85 260 L 88 250 L 89 235 L 87 221 L 84 212 L 78 212 L 68 227 L 62 241 L 61 252 L 60 253 L 61 268 L 64 280 L 62 282 L 60 280 L 48 255 L 41 235 L 42 214 L 45 210 L 60 200 L 70 189 L 74 183 L 78 173 L 79 168 L 78 160 L 69 160 L 60 163 L 57 163 L 60 160 L 59 155 L 54 151 L 49 151 L 47 153 L 46 161 L 48 163 L 49 168 L 43 177 L 43 179 L 41 181 L 38 189 L 38 211 L 36 213 L 34 211 L 31 188 L 31 175 L 36 149 L 43 129 L 45 127 L 45 125 L 52 114 L 64 103 L 69 100 L 71 100 L 74 103 L 79 105 L 82 105 L 87 103 L 93 96 L 93 87 L 92 85 L 86 80 L 77 80 L 72 83 L 70 88 L 70 93 L 67 96 L 61 99 L 56 104 L 55 101 L 65 79 L 70 63 L 73 44 L 73 34 L 70 21 L 65 11 L 54 2 Z M 102 412 L 93 421 L 84 426 L 78 428 L 72 425 L 86 419 L 88 417 L 75 418 L 84 413 L 90 411 Z M 42 373 L 48 384 L 48 388 L 50 392 L 50 404 L 48 406 L 46 403 L 45 394 L 43 391 L 40 381 L 41 378 L 39 374 Z M 36 368 L 37 378 L 39 381 L 44 401 L 45 408 L 43 410 L 38 403 L 33 390 Z M 105 322 L 104 331 L 101 339 L 97 345 L 89 353 L 88 350 L 95 337 L 93 337 L 90 343 L 87 346 L 86 343 L 90 334 L 100 323 Z M 16 222 L 20 229 L 16 226 L 14 224 Z M 80 220 L 82 222 L 83 226 L 84 245 L 81 257 L 72 272 L 71 268 L 72 267 L 75 244 L 77 238 L 75 238 L 69 257 L 69 261 L 66 266 L 65 250 L 69 236 L 76 225 L 76 223 Z M 6 212 L 8 209 L 13 212 L 18 217 L 16 218 L 13 216 L 12 221 Z M 73 166 L 73 172 L 71 178 L 66 186 L 47 203 L 46 200 L 49 195 L 53 192 L 54 188 L 60 181 L 56 180 L 54 181 L 46 194 L 43 197 L 42 194 L 47 180 L 51 179 L 54 174 L 56 174 L 62 168 L 70 165 Z M 52 167 L 53 162 L 56 162 L 58 164 Z M 52 153 L 54 156 L 52 158 L 51 156 Z M 17 95 L 22 103 L 27 120 L 27 124 L 25 126 L 23 123 L 23 119 L 19 108 L 17 107 L 18 116 L 21 124 L 18 128 L 13 113 L 13 99 Z M 80 84 L 85 85 L 89 90 L 88 94 L 83 99 L 81 99 L 77 95 L 76 92 L 76 87 Z M 56 9 L 58 8 L 59 12 Z" fill="currentColor" fill-rule="evenodd"/>
</svg>
