<svg xmlns="http://www.w3.org/2000/svg" width="242" height="226" viewBox="0 0 242 226" role="img" aria-hidden="true">
  <path d="M 17 165 L 18 173 L 24 172 L 25 167 L 23 165 Z M 219 74 L 216 74 L 210 86 L 208 95 L 208 105 L 209 109 L 215 122 L 215 132 L 210 151 L 206 152 L 204 142 L 202 140 L 200 140 L 200 143 L 203 147 L 205 153 L 206 161 L 198 175 L 189 186 L 182 193 L 177 196 L 176 194 L 182 188 L 186 182 L 190 172 L 190 155 L 187 153 L 183 157 L 176 167 L 174 172 L 172 193 L 168 201 L 159 209 L 144 216 L 130 220 L 127 219 L 127 217 L 133 210 L 135 203 L 132 203 L 132 208 L 129 213 L 119 221 L 100 221 L 85 218 L 76 215 L 60 207 L 51 199 L 49 193 L 42 187 L 39 186 L 34 187 L 36 195 L 42 201 L 50 203 L 64 213 L 70 216 L 89 223 L 101 225 L 119 225 L 139 221 L 155 215 L 161 215 L 177 222 L 188 222 L 200 218 L 202 216 L 193 210 L 186 208 L 169 207 L 179 199 L 187 195 L 204 196 L 212 194 L 221 189 L 228 181 L 211 179 L 211 177 L 217 170 L 222 170 L 227 165 L 224 164 L 221 168 L 217 168 L 212 174 L 204 181 L 200 181 L 194 187 L 193 185 L 202 174 L 209 161 L 215 155 L 223 153 L 230 149 L 237 141 L 239 136 L 240 128 L 234 129 L 222 136 L 216 146 L 215 142 L 218 137 L 217 134 L 219 120 L 226 104 L 226 95 Z M 194 215 L 191 218 L 179 220 L 172 218 L 171 214 L 177 214 L 184 216 L 188 215 L 188 214 Z M 183 213 L 184 211 L 187 212 Z M 38 192 L 39 190 L 41 190 L 46 194 L 44 196 L 41 196 Z M 220 184 L 214 190 L 204 192 L 201 194 L 200 190 L 206 190 L 214 185 L 210 184 L 211 182 L 218 182 Z M 185 179 L 184 181 L 182 183 L 181 179 Z M 188 167 L 188 169 L 185 172 L 184 168 Z M 186 164 L 185 167 L 184 167 L 182 170 L 179 182 L 176 186 L 175 178 L 176 174 L 182 164 Z M 236 135 L 232 144 L 229 147 L 227 147 L 222 151 L 221 148 L 232 137 L 225 138 L 233 133 Z M 221 88 L 222 91 L 222 107 L 221 111 L 219 113 L 218 101 L 220 99 L 220 96 L 218 94 Z M 216 88 L 215 97 L 216 110 L 214 112 L 211 106 L 211 98 L 212 92 Z M 189 51 L 189 56 L 191 58 L 195 58 L 198 54 L 198 52 L 196 50 Z M 56 52 L 53 56 L 53 58 L 56 63 L 47 87 L 39 104 L 32 124 L 29 127 L 30 132 L 41 142 L 50 145 L 58 146 L 69 145 L 81 140 L 88 133 L 90 128 L 86 123 L 78 100 L 63 65 L 63 61 L 67 58 L 70 59 L 104 58 L 108 62 L 107 68 L 108 157 L 102 165 L 94 166 L 91 168 L 86 175 L 77 178 L 74 183 L 75 189 L 77 190 L 145 190 L 148 187 L 148 183 L 146 179 L 141 176 L 135 176 L 130 168 L 127 166 L 120 165 L 114 158 L 114 62 L 116 59 L 119 58 L 141 58 L 142 59 L 154 58 L 156 60 L 156 66 L 151 76 L 147 89 L 140 104 L 133 124 L 130 127 L 130 131 L 138 140 L 144 143 L 158 146 L 170 145 L 181 140 L 190 131 L 191 128 L 187 123 L 184 113 L 179 103 L 177 95 L 165 68 L 164 61 L 166 59 L 166 54 L 164 52 L 157 52 L 155 54 L 132 53 L 118 54 L 114 50 L 114 46 L 118 42 L 119 36 L 118 34 L 114 31 L 107 31 L 105 32 L 104 34 L 104 42 L 108 48 L 103 54 L 96 53 L 64 54 L 62 52 Z M 79 185 L 79 183 L 82 180 L 87 179 L 139 179 L 141 180 L 144 184 L 142 186 Z M 93 172 L 97 169 L 124 169 L 126 170 L 128 175 L 112 174 L 95 175 Z M 108 164 L 109 162 L 114 163 L 112 165 Z M 137 133 L 138 131 L 184 132 L 181 135 L 172 140 L 161 142 L 147 140 L 141 137 Z M 37 133 L 38 131 L 83 132 L 78 137 L 68 141 L 51 141 L 41 137 Z M 62 79 L 64 79 L 66 81 L 72 95 L 73 100 L 80 115 L 81 120 L 83 123 L 83 125 L 81 127 L 63 127 L 61 125 Z M 165 76 L 165 78 L 168 83 L 169 88 L 174 98 L 184 124 L 181 127 L 164 127 L 162 125 Z M 159 76 L 158 125 L 156 127 L 141 127 L 139 126 L 138 119 L 141 111 L 143 109 L 143 106 L 150 88 L 155 80 L 155 77 Z M 58 77 L 57 81 L 57 115 L 58 116 L 58 124 L 55 127 L 38 127 L 36 124 L 43 104 L 54 77 Z M 159 55 L 161 55 L 163 57 L 160 60 L 158 58 Z M 57 58 L 58 55 L 60 55 L 62 57 L 60 59 Z M 109 53 L 111 53 L 113 55 L 113 57 L 110 59 L 108 57 Z M 112 34 L 115 37 L 115 40 L 112 43 L 110 43 L 107 40 L 108 35 Z M 183 35 L 170 22 L 156 12 L 143 6 L 131 2 L 120 0 L 90 0 L 83 1 L 62 8 L 45 17 L 26 34 L 17 46 L 8 63 L 3 77 L 0 94 L 0 120 L 6 144 L 15 158 L 11 151 L 10 144 L 6 135 L 4 124 L 3 97 L 5 84 L 11 65 L 17 53 L 26 40 L 29 38 L 42 24 L 49 21 L 54 16 L 66 10 L 75 7 L 95 3 L 114 3 L 132 6 L 141 9 L 157 17 L 185 38 Z" fill="currentColor" fill-rule="evenodd"/>
</svg>
