<svg xmlns="http://www.w3.org/2000/svg" width="349" height="38" viewBox="0 0 349 38" role="img" aria-hidden="true">
  <path d="M 126 15 L 124 16 L 123 18 L 123 22 L 126 26 L 130 26 L 133 23 L 134 19 L 131 16 Z M 126 21 L 127 18 L 130 20 Z M 348 8 L 340 8 L 332 10 L 333 14 L 339 12 L 348 12 Z M 0 17 L 0 19 L 3 22 L 12 26 L 22 26 L 29 22 L 34 23 L 31 25 L 28 29 L 27 32 L 28 36 L 36 34 L 39 32 L 45 24 L 66 24 L 60 29 L 63 32 L 65 32 L 71 29 L 77 24 L 82 23 L 109 23 L 110 19 L 101 18 L 79 19 L 74 14 L 67 10 L 61 10 L 61 12 L 66 17 L 64 19 L 53 19 L 48 18 L 37 6 L 28 3 L 23 3 L 20 6 L 18 6 L 18 8 L 14 12 L 8 13 Z M 38 28 L 35 31 L 33 32 L 32 29 L 35 26 Z M 70 16 L 72 18 L 73 18 L 75 20 L 73 22 L 71 20 L 70 20 L 68 18 Z M 8 17 L 11 16 L 21 17 L 25 20 L 20 23 L 15 23 L 9 21 Z M 23 10 L 25 10 L 26 15 L 24 14 L 22 12 Z M 30 7 L 34 8 L 35 10 L 32 13 L 29 9 Z M 265 18 L 263 16 L 254 12 L 241 11 L 238 14 L 234 13 L 240 7 L 243 1 L 232 0 L 225 3 L 218 10 L 216 14 L 213 17 L 205 19 L 192 17 L 197 11 L 191 10 L 183 14 L 178 19 L 146 19 L 147 23 L 179 23 L 187 30 L 191 32 L 198 31 L 198 29 L 194 26 L 194 23 L 214 22 L 218 28 L 223 33 L 233 37 L 236 36 L 236 32 L 234 28 L 229 24 L 229 21 L 232 21 L 242 26 L 252 26 L 261 21 L 263 21 Z M 225 27 L 228 27 L 230 32 L 228 32 L 226 31 L 224 29 Z M 186 19 L 183 22 L 182 20 Z M 243 19 L 248 18 L 244 17 L 245 15 L 251 15 L 258 18 L 255 21 L 248 23 Z M 236 5 L 235 7 L 229 12 L 229 9 L 227 6 L 231 4 Z" fill="currentColor" fill-rule="evenodd"/>
</svg>
