<svg xmlns="http://www.w3.org/2000/svg" width="214" height="370" viewBox="0 0 214 370" role="img" aria-hidden="true">
  <path d="M 194 264 L 191 266 L 187 272 L 181 284 L 180 299 L 183 313 L 181 321 L 176 332 L 169 343 L 163 349 L 162 346 L 168 335 L 169 322 L 164 308 L 161 306 L 156 321 L 156 334 L 160 345 L 158 353 L 149 362 L 137 369 L 143 369 L 156 362 L 163 362 L 171 365 L 182 364 L 191 360 L 198 352 L 193 350 L 178 350 L 170 353 L 165 357 L 161 356 L 176 339 L 180 337 L 194 335 L 200 332 L 207 325 L 212 317 L 213 314 L 207 313 L 200 315 L 191 320 L 181 332 L 180 329 L 185 318 L 187 310 L 196 297 L 198 289 L 198 278 L 196 268 Z M 171 359 L 180 358 L 184 356 L 174 354 L 177 353 L 191 355 L 186 360 L 177 363 L 174 363 Z M 203 319 L 191 327 L 190 325 L 195 320 L 200 318 Z M 164 317 L 166 319 L 166 322 L 164 324 Z M 161 317 L 162 333 L 158 334 L 158 323 L 159 319 Z M 208 318 L 206 320 L 206 322 L 197 331 L 193 333 L 188 333 L 189 330 L 198 325 L 205 316 Z M 195 276 L 196 286 L 195 287 L 194 294 L 190 300 L 189 293 L 191 286 L 190 280 L 186 300 L 184 302 L 182 297 L 182 292 L 185 281 L 187 277 L 190 275 L 191 277 Z M 11 190 L 9 192 L 6 200 L 0 247 L 0 285 L 4 295 L 9 300 L 13 302 L 21 303 L 23 305 L 23 313 L 20 316 L 16 316 L 14 318 L 14 327 L 17 330 L 20 330 L 23 335 L 23 354 L 20 357 L 7 357 L 5 358 L 3 362 L 3 369 L 7 369 L 8 361 L 13 360 L 66 362 L 60 367 L 47 369 L 113 369 L 120 366 L 132 355 L 135 349 L 138 336 L 138 328 L 141 325 L 142 321 L 142 309 L 145 306 L 148 299 L 148 246 L 153 240 L 156 234 L 157 216 L 155 207 L 149 200 L 141 196 L 128 196 L 120 200 L 116 205 L 114 210 L 114 234 L 117 241 L 122 247 L 122 299 L 125 307 L 128 310 L 128 324 L 132 329 L 132 336 L 130 345 L 126 353 L 117 361 L 106 364 L 104 361 L 99 357 L 88 357 L 86 355 L 87 330 L 90 330 L 94 326 L 94 320 L 93 318 L 90 316 L 88 316 L 86 314 L 87 303 L 94 302 L 98 300 L 104 294 L 108 284 L 108 254 L 106 243 L 106 232 L 102 201 L 99 193 L 96 190 L 91 188 L 15 188 Z M 27 330 L 50 331 L 51 333 L 56 336 L 56 343 L 55 345 L 50 350 L 47 351 L 47 354 L 44 357 L 28 357 L 26 355 Z M 17 324 L 18 319 L 59 320 L 56 322 L 55 324 L 57 325 L 55 327 L 49 327 L 48 325 L 19 326 Z M 132 311 L 135 312 L 135 322 L 137 324 L 134 326 L 131 323 Z M 27 303 L 42 305 L 48 309 L 49 314 L 47 316 L 28 316 L 26 314 Z M 51 270 L 56 270 L 59 273 L 56 275 L 57 279 L 55 281 L 51 281 L 48 278 L 48 273 Z M 126 248 L 130 248 L 136 250 L 137 254 L 136 285 L 134 293 L 134 301 L 133 305 L 131 307 L 127 303 L 125 297 Z M 28 210 L 79 210 L 81 212 L 82 242 L 79 245 L 67 244 L 28 245 L 26 243 L 26 224 Z M 77 204 L 78 202 L 80 202 L 81 203 L 83 204 L 81 206 L 79 206 Z M 20 205 L 22 203 L 27 202 L 41 202 L 70 206 L 68 207 L 25 207 L 23 239 L 24 247 L 76 248 L 73 251 L 63 252 L 58 251 L 22 252 L 19 249 Z M 139 199 L 141 201 L 142 206 L 141 214 L 139 217 L 140 219 L 138 222 L 137 228 L 135 230 L 135 233 L 133 235 L 133 238 L 131 241 L 133 243 L 131 245 L 125 245 L 119 238 L 117 231 L 118 219 L 117 213 L 118 209 L 121 204 L 127 200 L 130 199 Z M 90 191 L 92 193 L 85 200 L 22 200 L 19 202 L 17 213 L 16 250 L 20 255 L 63 255 L 65 257 L 65 265 L 64 270 L 62 272 L 56 267 L 51 267 L 47 269 L 46 271 L 46 280 L 49 283 L 56 285 L 47 295 L 43 295 L 44 297 L 42 299 L 30 298 L 30 296 L 28 296 L 25 299 L 15 299 L 11 297 L 5 290 L 3 280 L 3 255 L 5 246 L 5 234 L 7 226 L 8 209 L 11 195 L 14 192 L 18 191 Z M 19 270 L 15 273 L 15 279 L 18 282 L 22 282 L 26 278 L 27 274 L 26 272 L 22 270 Z M 18 273 L 22 273 L 24 276 L 20 280 L 17 277 Z M 115 95 L 116 111 L 123 109 L 119 109 L 117 107 Z M 126 94 L 127 97 L 129 97 L 131 99 L 131 110 L 133 109 L 134 97 L 136 97 L 138 95 Z M 95 94 L 95 106 L 97 110 L 103 111 L 107 107 L 108 96 L 105 94 L 105 106 L 102 109 L 100 109 L 97 106 L 98 97 L 97 94 Z M 81 94 L 79 95 L 79 101 L 82 103 L 85 107 L 82 109 L 79 108 L 81 111 L 85 111 L 89 107 L 89 104 L 86 101 L 84 101 L 83 97 L 88 96 L 86 94 Z M 63 94 L 65 111 L 72 109 L 68 109 L 66 107 L 67 104 L 70 104 L 72 102 L 68 101 L 67 97 L 72 95 Z M 47 94 L 46 101 L 47 111 L 49 108 L 51 107 L 55 111 L 56 108 L 54 106 L 54 103 L 56 101 L 56 97 L 54 95 Z M 51 96 L 54 99 L 51 102 L 49 100 Z M 144 66 L 146 83 L 152 80 L 147 79 Z M 128 67 L 123 82 L 126 80 L 126 79 L 132 78 L 135 82 L 136 77 L 134 74 L 134 71 L 132 67 Z M 107 66 L 107 82 L 109 81 L 111 77 L 113 80 L 117 80 L 115 78 L 115 74 L 117 72 L 117 69 L 114 66 Z M 110 68 L 112 68 L 114 71 L 111 74 L 109 72 Z M 87 66 L 87 79 L 89 82 L 94 83 L 99 79 L 97 66 L 97 77 L 92 81 L 89 78 Z M 80 66 L 69 66 L 70 68 L 72 68 L 74 70 L 74 82 L 76 81 L 77 79 L 77 75 L 76 74 L 77 68 Z M 57 66 L 57 69 L 54 74 L 52 82 L 55 80 L 55 79 L 61 78 L 64 83 L 66 81 L 66 78 L 63 74 L 61 67 Z M 33 66 L 33 82 L 35 81 L 37 73 L 44 83 L 46 81 L 45 66 L 43 66 L 43 73 L 41 75 L 36 67 Z M 75 41 L 85 38 L 104 28 L 114 25 L 122 26 L 137 33 L 151 33 L 163 29 L 165 26 L 163 24 L 152 19 L 148 18 L 133 18 L 121 22 L 120 19 L 139 5 L 144 3 L 153 2 L 165 5 L 172 5 L 185 0 L 178 0 L 173 2 L 160 2 L 159 0 L 140 0 L 135 4 L 135 0 L 132 0 L 128 8 L 122 14 L 116 18 L 104 22 L 112 13 L 118 0 L 115 0 L 114 5 L 111 9 L 110 5 L 112 0 L 110 0 L 109 7 L 106 12 L 106 0 L 104 0 L 104 19 L 101 24 L 91 32 L 75 39 Z M 130 28 L 130 25 L 140 25 L 141 26 L 151 25 L 141 24 L 135 22 L 136 20 L 147 20 L 153 22 L 158 26 L 153 30 L 149 31 L 139 31 Z M 70 0 L 75 12 L 77 22 L 80 28 L 81 26 L 77 9 L 75 6 L 74 0 Z" fill="currentColor" fill-rule="evenodd"/>
</svg>
