<svg xmlns="http://www.w3.org/2000/svg" width="153" height="155" viewBox="0 0 153 155" role="img" aria-hidden="true">
  <path d="M 2 20 L 0 24 L 0 142 L 2 146 L 7 151 L 15 154 L 24 153 L 25 154 L 40 153 L 41 154 L 135 154 L 142 152 L 148 146 L 151 140 L 152 119 L 152 31 L 151 25 L 149 21 L 144 16 L 137 13 L 121 14 L 118 13 L 118 3 L 115 0 L 111 0 L 109 2 L 109 12 L 106 14 L 63 14 L 46 13 L 44 15 L 44 6 L 43 2 L 41 0 L 35 1 L 34 3 L 34 12 L 31 14 L 14 13 L 6 16 Z M 8 54 L 142 54 L 144 56 L 144 139 L 143 141 L 137 146 L 13 146 L 11 145 L 7 139 Z M 103 109 L 102 125 L 104 129 L 106 130 L 121 129 L 123 127 L 122 109 Z M 108 114 L 116 114 L 118 116 L 118 121 L 115 124 L 109 124 Z M 65 110 L 66 129 L 83 129 L 86 126 L 85 109 Z M 71 114 L 79 114 L 81 116 L 81 121 L 78 124 L 72 124 L 70 122 Z M 28 110 L 29 129 L 47 129 L 49 127 L 49 111 L 47 109 Z M 35 115 L 44 116 L 43 122 L 41 124 L 36 124 L 34 122 Z M 103 73 L 102 91 L 106 94 L 121 93 L 123 91 L 123 75 L 121 73 Z M 109 78 L 116 78 L 118 80 L 118 85 L 115 88 L 108 87 Z M 65 74 L 66 93 L 84 93 L 86 91 L 86 75 L 84 73 Z M 72 78 L 79 78 L 81 81 L 80 86 L 78 88 L 71 87 Z M 28 74 L 28 92 L 30 94 L 47 93 L 49 91 L 49 75 L 47 73 Z M 35 78 L 42 78 L 44 80 L 44 86 L 42 88 L 36 87 L 34 83 Z M 7 27 L 8 24 L 12 21 L 26 20 L 34 21 L 34 29 L 36 33 L 39 34 L 43 31 L 45 19 L 53 21 L 103 21 L 107 19 L 109 21 L 109 31 L 112 34 L 114 34 L 118 30 L 120 19 L 123 21 L 133 20 L 140 22 L 144 27 L 144 44 L 141 47 L 9 47 L 7 45 Z" fill="currentColor" fill-rule="evenodd"/>
</svg>
