<svg xmlns="http://www.w3.org/2000/svg" width="152" height="261" viewBox="0 0 152 261" role="img" aria-hidden="true">
  <path d="M 13 130 L 5 141 L 2 151 L 2 229 L 4 236 L 8 244 L 12 249 L 19 255 L 32 260 L 111 260 L 118 258 L 128 252 L 137 241 L 140 235 L 142 226 L 142 153 L 140 145 L 132 132 L 127 127 L 119 123 L 107 120 L 91 121 L 51 120 L 31 121 L 24 123 Z M 20 135 L 29 130 L 33 129 L 109 129 L 118 132 L 128 140 L 132 147 L 134 155 L 134 226 L 130 237 L 119 248 L 113 251 L 108 252 L 34 252 L 25 249 L 18 243 L 14 238 L 11 232 L 10 227 L 10 154 L 14 142 Z M 62 156 L 50 162 L 43 169 L 40 174 L 37 183 L 37 197 L 38 201 L 45 214 L 55 222 L 68 226 L 81 225 L 91 220 L 102 208 L 106 198 L 107 190 L 106 183 L 104 177 L 98 167 L 88 159 L 79 156 Z M 66 164 L 77 164 L 85 167 L 92 173 L 95 177 L 98 184 L 98 197 L 94 205 L 85 214 L 74 218 L 64 217 L 56 213 L 49 206 L 45 197 L 45 185 L 49 175 L 56 168 Z M 106 145 L 104 146 L 102 149 L 102 157 L 107 161 L 111 161 L 118 155 L 118 149 L 114 145 Z M 0 0 L 0 9 L 2 13 L 7 18 L 15 21 L 24 20 L 25 21 L 40 20 L 41 21 L 135 21 L 142 19 L 148 13 L 151 7 L 151 0 L 144 0 L 144 6 L 143 8 L 137 13 L 13 13 L 9 10 L 7 6 L 7 0 Z" fill="currentColor" fill-rule="evenodd"/>
</svg>
