<svg xmlns="http://www.w3.org/2000/svg" width="303" height="352" viewBox="0 0 303 352" role="img" aria-hidden="true">
  <path d="M 155 351 L 205 351 L 201 351 L 196 349 L 189 348 L 173 348 Z M 6 175 L 0 182 L 0 190 L 8 191 L 6 193 L 0 193 L 0 195 L 7 195 L 4 198 L 2 198 L 0 200 L 0 202 L 2 202 L 16 194 L 19 190 L 1 186 L 1 184 L 5 179 Z M 289 86 L 287 87 L 279 101 L 279 108 L 276 113 L 273 106 L 269 103 L 268 106 L 268 121 L 270 128 L 273 133 L 273 145 L 265 163 L 259 172 L 258 169 L 263 156 L 263 147 L 258 132 L 255 130 L 255 133 L 251 143 L 250 149 L 250 158 L 253 167 L 253 175 L 249 184 L 233 199 L 232 196 L 237 190 L 238 186 L 237 180 L 234 180 L 229 186 L 228 193 L 224 202 L 219 207 L 209 212 L 189 217 L 165 217 L 166 219 L 191 220 L 205 217 L 214 213 L 223 213 L 236 219 L 249 218 L 253 215 L 246 209 L 230 205 L 240 197 L 254 192 L 262 192 L 265 195 L 269 196 L 273 192 L 273 189 L 270 186 L 266 186 L 261 190 L 256 191 L 247 190 L 262 174 L 268 172 L 282 171 L 287 168 L 298 153 L 295 152 L 287 153 L 280 156 L 277 156 L 270 160 L 276 143 L 284 136 L 287 136 L 293 133 L 300 126 L 301 121 L 297 121 L 285 126 L 282 131 L 281 127 L 284 124 L 285 120 L 288 116 L 292 107 L 292 95 L 291 88 Z M 229 212 L 231 210 L 238 210 L 241 213 L 239 215 L 234 216 L 230 214 Z M 234 188 L 233 192 L 231 194 L 230 190 L 231 188 Z M 292 157 L 283 167 L 279 169 L 273 169 L 274 166 L 281 164 L 284 160 L 281 159 L 284 156 Z M 258 140 L 260 147 L 256 148 L 255 146 Z M 296 126 L 291 131 L 288 130 L 293 125 Z M 279 125 L 279 127 L 277 129 Z M 273 113 L 274 115 L 274 118 L 273 119 L 274 123 L 272 125 L 270 121 Z M 289 105 L 287 114 L 285 116 L 284 113 L 285 112 L 285 109 Z M 286 100 L 284 105 L 284 109 L 282 111 L 281 106 L 282 102 Z M 8 85 L 6 85 L 6 88 L 0 100 L 0 127 L 4 135 L 5 140 L 4 149 L 0 159 L 0 171 L 3 168 L 18 162 L 26 155 L 32 144 L 36 133 L 31 132 L 15 142 L 9 149 L 8 155 L 6 157 L 5 152 L 8 144 L 9 135 L 15 122 L 15 107 Z M 30 138 L 29 144 L 23 154 L 15 161 L 11 163 L 10 160 L 22 148 L 26 142 L 24 142 L 16 151 L 12 151 L 14 147 L 22 140 Z M 6 95 L 9 96 L 9 101 L 11 102 L 13 109 L 13 120 L 11 126 L 9 128 L 6 105 L 6 126 L 4 128 L 1 122 L 0 117 L 0 111 L 3 101 Z M 260 71 L 263 74 L 266 74 L 270 69 L 267 65 L 261 66 Z M 3 66 L 4 70 L 8 73 L 12 68 L 12 66 L 8 62 Z M 118 61 L 113 68 L 112 71 L 112 79 L 111 80 L 112 148 L 116 156 L 121 161 L 128 164 L 134 165 L 140 164 L 169 164 L 175 165 L 183 164 L 208 187 L 213 188 L 217 183 L 216 173 L 217 165 L 224 164 L 231 161 L 238 154 L 242 143 L 242 75 L 238 65 L 232 59 L 225 56 L 128 56 Z M 124 62 L 130 60 L 224 60 L 228 62 L 236 70 L 238 77 L 237 114 L 238 141 L 237 147 L 235 151 L 228 158 L 224 160 L 215 160 L 213 161 L 212 163 L 212 174 L 210 177 L 212 178 L 212 181 L 210 183 L 184 160 L 129 160 L 123 157 L 119 153 L 116 147 L 116 73 L 119 67 Z M 155 89 L 149 94 L 147 98 L 147 110 L 151 118 L 168 135 L 175 141 L 177 141 L 203 116 L 207 107 L 206 98 L 199 90 L 194 88 L 184 89 L 176 95 L 172 91 L 165 88 Z M 195 92 L 202 98 L 203 101 L 202 110 L 199 115 L 176 137 L 155 117 L 150 108 L 150 100 L 152 96 L 158 92 L 168 93 L 174 99 L 175 102 L 179 99 L 184 93 L 186 92 Z M 4 48 L 4 50 L 6 53 L 6 49 Z M 230 17 L 212 7 L 197 2 L 183 0 L 158 1 L 138 7 L 122 16 L 114 22 L 103 33 L 95 44 L 87 58 L 79 83 L 77 95 L 77 119 L 80 137 L 88 159 L 99 176 L 109 184 L 96 167 L 89 153 L 85 142 L 81 124 L 81 93 L 83 81 L 90 61 L 93 58 L 96 49 L 105 36 L 116 25 L 125 18 L 136 12 L 152 6 L 161 4 L 187 4 L 207 9 L 220 15 L 228 20 L 248 39 L 257 52 L 258 50 L 252 39 L 247 33 Z" fill="currentColor" fill-rule="evenodd"/>
</svg>
