<svg xmlns="http://www.w3.org/2000/svg" width="163" height="160" viewBox="0 0 163 160" role="img" aria-hidden="true">
  <path d="M 54 0 L 52 1 L 50 4 L 51 8 L 54 8 L 57 10 L 55 12 L 51 12 L 45 10 L 39 10 L 37 11 L 36 23 L 31 27 L 22 26 L 17 28 L 17 34 L 23 37 L 20 40 L 14 41 L 13 48 L 16 51 L 15 53 L 11 57 L 6 58 L 2 61 L 0 64 L 0 67 L 6 71 L 3 75 L 3 78 L 5 81 L 5 85 L 11 90 L 11 94 L 4 105 L 3 112 L 6 116 L 8 116 L 13 110 L 17 110 L 16 120 L 18 122 L 20 122 L 22 120 L 25 121 L 27 125 L 27 138 L 29 141 L 32 143 L 38 135 L 39 140 L 41 143 L 44 141 L 46 141 L 50 144 L 50 148 L 52 154 L 58 159 L 60 159 L 62 157 L 62 148 L 64 148 L 69 152 L 80 151 L 84 155 L 87 155 L 92 150 L 97 149 L 105 154 L 112 154 L 114 152 L 113 149 L 110 148 L 109 144 L 113 144 L 117 146 L 121 137 L 125 137 L 128 139 L 135 139 L 140 137 L 142 135 L 142 132 L 138 129 L 135 130 L 131 128 L 134 124 L 141 123 L 147 118 L 147 116 L 144 113 L 144 111 L 147 105 L 155 104 L 162 96 L 161 92 L 154 92 L 152 94 L 152 87 L 155 86 L 159 81 L 158 75 L 153 72 L 153 66 L 157 61 L 159 57 L 159 54 L 157 50 L 154 50 L 150 54 L 149 49 L 154 45 L 153 42 L 148 42 L 148 45 L 144 46 L 145 31 L 140 25 L 135 24 L 132 29 L 125 22 L 125 11 L 120 4 L 118 3 L 114 4 L 112 14 L 108 12 L 105 8 L 100 4 L 84 5 L 81 3 L 77 4 L 74 8 L 70 8 L 62 1 Z M 57 148 L 59 150 L 59 152 L 57 154 L 55 152 Z M 63 137 L 61 139 L 59 140 L 58 138 L 60 136 Z M 106 140 L 106 138 L 107 136 L 109 135 L 111 138 Z M 129 135 L 130 132 L 136 134 L 134 136 Z M 36 125 L 37 123 L 41 125 L 38 127 Z M 19 101 L 22 104 L 27 106 L 25 108 L 21 109 L 18 105 Z M 14 102 L 8 111 L 7 107 L 9 103 L 11 101 Z M 150 99 L 152 97 L 155 98 Z M 142 92 L 143 95 L 141 97 L 140 95 L 139 94 Z M 10 78 L 12 78 L 15 82 L 13 84 L 10 84 L 8 82 L 8 80 Z M 148 80 L 149 77 L 152 77 L 154 78 L 155 80 L 151 83 Z M 20 64 L 22 66 L 20 68 Z M 141 59 L 143 61 L 141 63 L 139 61 Z M 21 45 L 17 46 L 19 43 Z M 21 31 L 22 29 L 25 30 Z M 60 18 L 64 19 L 60 19 Z M 105 17 L 108 16 L 112 18 L 113 20 L 111 22 L 108 21 Z M 86 9 L 93 16 L 101 18 L 101 21 L 103 23 L 103 27 L 107 30 L 114 30 L 121 26 L 123 26 L 125 28 L 125 32 L 131 33 L 133 38 L 124 39 L 124 41 L 130 46 L 139 45 L 141 48 L 140 51 L 145 57 L 134 56 L 134 59 L 140 66 L 145 67 L 149 70 L 149 72 L 141 75 L 140 77 L 141 81 L 148 87 L 148 90 L 145 94 L 144 91 L 139 86 L 136 86 L 135 92 L 138 99 L 142 103 L 142 107 L 138 110 L 135 107 L 131 107 L 131 113 L 134 116 L 134 120 L 130 125 L 129 116 L 127 114 L 124 114 L 121 117 L 120 127 L 118 129 L 111 128 L 104 130 L 99 134 L 97 142 L 92 146 L 89 143 L 81 144 L 77 149 L 74 147 L 79 143 L 78 140 L 73 140 L 68 144 L 65 145 L 62 143 L 67 139 L 70 135 L 68 133 L 59 133 L 50 139 L 49 134 L 47 132 L 48 125 L 44 121 L 42 120 L 29 121 L 26 115 L 29 115 L 32 112 L 32 110 L 29 107 L 29 105 L 31 103 L 30 100 L 27 97 L 23 95 L 17 94 L 14 91 L 14 89 L 19 83 L 18 79 L 14 75 L 14 70 L 18 69 L 23 74 L 25 72 L 25 65 L 19 57 L 22 52 L 23 55 L 26 56 L 29 53 L 30 50 L 26 46 L 25 41 L 28 37 L 31 38 L 31 41 L 34 47 L 36 45 L 38 41 L 38 37 L 36 33 L 36 28 L 40 25 L 44 30 L 48 30 L 51 26 L 53 16 L 55 15 L 58 16 L 55 21 L 55 23 L 58 27 L 62 25 L 67 20 L 69 16 L 69 13 L 73 9 L 75 9 L 79 13 L 81 13 Z M 120 9 L 120 10 L 121 12 L 119 14 L 117 12 Z M 95 7 L 98 7 L 101 11 L 98 14 L 96 14 L 93 11 L 93 9 Z M 78 7 L 82 7 L 80 9 Z" fill="currentColor" fill-rule="evenodd"/>
</svg>
