<svg xmlns="http://www.w3.org/2000/svg" width="315" height="235" viewBox="0 0 315 235" role="img" aria-hidden="true">
  <path d="M 297 146 L 298 149 L 307 161 L 314 166 L 314 164 L 305 156 L 302 151 L 305 150 L 314 153 L 313 151 L 300 146 Z M 103 113 L 104 115 L 155 114 L 152 114 L 151 113 Z M 314 98 L 312 115 L 310 117 L 304 111 L 300 109 L 301 117 L 306 129 L 314 136 Z M 304 115 L 306 115 L 312 123 L 309 124 L 314 131 L 312 133 L 307 128 L 303 119 Z M 103 96 L 104 98 L 156 96 L 154 96 L 153 97 L 115 97 Z M 103 80 L 104 82 L 155 80 Z M 223 68 L 215 69 L 213 76 L 209 79 L 207 83 L 207 86 L 201 101 L 196 119 L 178 170 L 176 181 L 177 203 L 179 203 L 182 200 L 191 187 L 195 183 L 196 178 L 198 175 L 198 172 L 202 164 L 213 129 L 215 128 L 217 130 L 221 124 L 229 99 L 229 95 L 226 92 L 227 84 L 226 83 L 226 80 L 228 73 L 227 71 Z M 180 178 L 190 181 L 191 183 L 186 190 L 182 193 L 179 190 Z M 226 100 L 220 119 L 216 125 L 215 122 L 221 104 L 223 100 Z M 221 84 L 223 89 L 221 97 L 218 103 L 217 109 L 210 127 L 208 137 L 203 148 L 195 175 L 191 180 L 182 176 L 181 170 L 190 146 L 191 140 L 194 134 L 197 122 L 201 113 L 207 92 L 210 86 L 210 83 L 214 82 Z M 217 72 L 222 71 L 225 74 L 225 77 L 222 81 L 217 80 L 216 76 Z M 79 50 L 76 54 L 76 63 L 73 66 L 69 67 L 70 70 L 74 70 L 76 72 L 76 81 L 73 84 L 69 84 L 70 87 L 74 87 L 76 89 L 76 98 L 73 101 L 69 101 L 70 104 L 74 104 L 76 106 L 76 115 L 73 118 L 69 118 L 70 122 L 74 122 L 76 124 L 76 132 L 73 135 L 69 136 L 70 139 L 74 139 L 76 141 L 76 150 L 74 152 L 69 153 L 70 156 L 75 158 L 76 160 L 76 167 L 74 169 L 69 170 L 70 173 L 73 173 L 76 176 L 76 190 L 77 192 L 82 196 L 160 196 L 164 194 L 162 193 L 98 191 L 100 189 L 118 180 L 134 181 L 142 178 L 149 173 L 156 165 L 141 165 L 135 166 L 126 171 L 119 178 L 118 175 L 127 166 L 127 164 L 130 161 L 139 158 L 150 148 L 155 135 L 156 129 L 153 129 L 138 138 L 134 142 L 130 150 L 128 160 L 120 171 L 119 168 L 122 161 L 118 148 L 115 146 L 111 158 L 111 166 L 114 175 L 112 179 L 106 185 L 101 188 L 95 189 L 95 191 L 93 193 L 83 193 L 79 189 L 80 173 L 86 174 L 87 170 L 81 170 L 79 168 L 80 156 L 86 156 L 88 154 L 81 153 L 79 151 L 80 139 L 86 139 L 88 137 L 86 135 L 81 135 L 79 133 L 80 122 L 86 122 L 87 118 L 81 118 L 79 116 L 80 105 L 86 105 L 87 101 L 81 101 L 79 99 L 80 87 L 85 88 L 88 85 L 86 83 L 81 83 L 79 81 L 80 70 L 86 70 L 87 66 L 82 67 L 79 64 L 79 55 L 84 52 L 107 52 L 114 53 L 146 53 L 163 52 L 164 53 L 171 52 L 172 53 L 175 53 L 178 57 L 178 151 L 179 137 L 180 136 L 180 56 L 178 52 L 175 50 Z M 151 168 L 145 174 L 135 179 L 127 177 L 129 175 L 133 175 L 138 172 L 134 172 L 130 174 L 130 170 L 137 167 Z M 118 153 L 119 159 L 117 161 L 114 160 L 114 154 Z M 150 133 L 152 136 L 149 146 L 142 154 L 137 157 L 134 155 L 144 144 L 140 145 L 133 153 L 132 150 L 142 137 Z M 113 1 L 91 7 L 77 14 L 64 23 L 51 36 L 41 50 L 35 62 L 31 76 L 29 78 L 27 76 L 26 64 L 23 60 L 16 80 L 16 98 L 19 106 L 19 117 L 17 119 L 15 117 L 14 112 L 2 97 L 0 96 L 0 103 L 2 114 L 5 123 L 8 128 L 18 138 L 20 142 L 27 164 L 27 169 L 16 161 L 5 157 L 5 159 L 17 176 L 26 182 L 32 183 L 36 185 L 55 205 L 65 213 L 78 221 L 89 226 L 104 231 L 125 234 L 147 233 L 165 228 L 179 222 L 190 215 L 198 208 L 185 217 L 172 224 L 161 228 L 147 231 L 123 232 L 110 230 L 92 225 L 72 215 L 61 207 L 49 195 L 43 182 L 43 172 L 47 161 L 46 139 L 42 135 L 42 137 L 39 142 L 35 153 L 35 165 L 40 177 L 39 182 L 37 180 L 36 176 L 29 164 L 26 152 L 23 145 L 24 133 L 36 119 L 39 112 L 42 99 L 39 98 L 28 109 L 25 116 L 22 119 L 20 113 L 21 106 L 28 92 L 31 83 L 31 79 L 33 72 L 42 52 L 50 40 L 55 34 L 67 23 L 77 16 L 91 9 L 103 5 L 117 2 L 137 2 L 149 3 L 158 6 L 161 5 L 162 7 L 164 8 L 167 7 L 177 14 L 185 17 L 174 10 L 151 2 L 139 0 Z M 10 163 L 16 163 L 21 166 L 26 171 L 22 172 L 25 179 L 21 177 L 15 171 Z M 44 143 L 45 146 L 45 162 L 44 166 L 42 168 L 40 158 L 37 157 L 37 154 L 40 144 Z M 5 104 L 6 107 L 10 110 L 15 120 L 15 122 L 12 124 L 12 122 L 12 125 L 10 127 L 6 122 L 4 117 L 3 108 Z M 39 104 L 36 115 L 29 125 L 28 121 L 30 118 L 28 115 L 28 113 L 31 108 L 36 103 Z M 22 69 L 25 70 L 26 75 L 26 91 L 22 92 L 21 88 L 21 90 L 19 92 L 17 90 L 17 83 Z" fill="currentColor" fill-rule="evenodd"/>
</svg>
