<svg xmlns="http://www.w3.org/2000/svg" width="121" height="147" viewBox="0 0 121 147" role="img" aria-hidden="true">
  <path d="M 57 0 L 51 4 L 49 8 L 49 14 L 45 18 L 37 21 L 29 27 L 23 34 L 20 40 L 16 54 L 16 80 L 14 93 L 11 101 L 0 115 L 0 122 L 2 124 L 37 124 L 40 127 L 40 131 L 43 137 L 49 143 L 53 145 L 61 146 L 70 143 L 77 137 L 80 132 L 82 124 L 116 124 L 120 121 L 120 116 L 110 104 L 106 95 L 104 83 L 104 55 L 101 44 L 97 36 L 86 24 L 80 20 L 74 18 L 71 14 L 72 10 L 68 3 L 65 1 Z M 46 128 L 47 124 L 72 124 L 74 126 L 72 132 L 67 137 L 62 139 L 58 139 L 51 136 Z M 37 30 L 50 24 L 65 23 L 72 25 L 80 29 L 87 35 L 93 44 L 96 52 L 97 59 L 97 88 L 99 98 L 102 105 L 109 115 L 101 117 L 82 116 L 10 116 L 10 114 L 16 107 L 19 101 L 22 91 L 24 51 L 29 39 Z M 58 7 L 61 7 L 65 12 L 61 16 L 58 16 L 55 13 L 55 10 Z" fill="currentColor" fill-rule="evenodd"/>
</svg>
