<svg xmlns="http://www.w3.org/2000/svg" width="135" height="239" viewBox="0 0 135 239" role="img" aria-hidden="true">
  <path d="M 23 116 L 14 121 L 8 127 L 2 138 L 0 145 L 0 161 L 2 169 L 7 179 L 13 187 L 52 226 L 65 238 L 68 238 L 97 211 L 119 189 L 126 180 L 131 171 L 134 160 L 134 146 L 132 139 L 125 126 L 119 121 L 106 115 L 101 114 L 86 115 L 78 118 L 75 121 L 72 122 L 66 128 L 59 121 L 51 116 L 39 114 L 32 114 Z M 24 124 L 30 122 L 43 122 L 47 123 L 58 130 L 62 135 L 64 140 L 67 141 L 71 137 L 72 134 L 80 126 L 90 122 L 102 122 L 109 124 L 114 127 L 121 134 L 125 140 L 127 146 L 127 158 L 125 166 L 122 172 L 110 187 L 90 207 L 72 223 L 67 229 L 28 192 L 15 177 L 9 166 L 7 158 L 7 148 L 10 138 L 13 133 L 19 127 Z M 14 0 L 19 4 L 32 9 L 111 9 L 118 7 L 129 0 L 109 0 L 108 1 L 34 1 L 33 0 Z" fill="currentColor" fill-rule="evenodd"/>
</svg>
