<svg xmlns="http://www.w3.org/2000/svg" width="157" height="248" viewBox="0 0 157 248" role="img" aria-hidden="true">
  <path d="M 2 144 L 0 149 L 0 234 L 2 240 L 8 246 L 11 247 L 144 247 L 148 245 L 153 240 L 156 232 L 156 151 L 154 145 L 151 141 L 145 138 L 136 137 L 94 137 L 88 138 L 75 137 L 18 137 L 17 138 L 10 138 L 6 140 Z M 18 232 L 55 197 L 59 198 L 68 207 L 74 211 L 81 211 L 83 210 L 97 197 L 99 197 L 143 238 L 141 240 L 135 239 L 44 239 L 21 240 L 19 238 Z M 145 153 L 148 154 L 148 230 L 146 232 L 104 193 L 104 191 Z M 9 153 L 31 172 L 52 192 L 12 229 L 7 230 Z M 14 149 L 14 145 L 141 145 L 143 147 L 122 165 L 97 189 L 78 205 L 76 205 L 33 165 Z M 12 14 L 15 17 L 23 17 L 37 13 L 47 7 L 49 7 L 52 9 L 67 14 L 90 15 L 107 12 L 122 5 L 130 0 L 114 0 L 99 6 L 84 8 L 66 6 L 57 3 L 52 0 L 44 0 L 41 3 L 29 8 L 23 5 L 25 0 L 16 0 L 12 9 Z" fill="currentColor" fill-rule="evenodd"/>
</svg>
