<svg xmlns="http://www.w3.org/2000/svg" width="143" height="152" viewBox="0 0 143 152" role="img" aria-hidden="true">
  <path d="M 15 6 L 8 13 L 2 22 L 0 31 L 0 42 L 4 58 L 11 72 L 24 92 L 33 103 L 53 123 L 69 136 L 80 143 L 90 148 L 107 151 L 120 148 L 127 144 L 136 135 L 142 125 L 142 118 L 140 114 L 128 104 L 114 95 L 104 95 L 99 98 L 91 106 L 88 107 L 78 101 L 69 93 L 54 77 L 46 66 L 43 60 L 43 54 L 53 45 L 56 40 L 56 31 L 55 28 L 44 11 L 43 7 L 35 0 L 26 0 Z M 21 10 L 26 7 L 32 7 L 39 14 L 50 33 L 49 39 L 39 48 L 36 54 L 37 63 L 42 72 L 50 83 L 65 99 L 76 108 L 84 113 L 92 113 L 96 111 L 105 102 L 113 102 L 123 109 L 135 120 L 135 124 L 133 128 L 123 138 L 117 142 L 105 144 L 99 143 L 97 141 L 93 141 L 77 133 L 69 126 L 60 120 L 33 92 L 24 80 L 15 65 L 10 54 L 7 44 L 7 30 L 8 26 L 12 19 Z" fill="currentColor" fill-rule="evenodd"/>
</svg>
