<svg xmlns="http://www.w3.org/2000/svg" width="148" height="263" viewBox="0 0 148 263" role="img" aria-hidden="true">
  <path d="M 118 128 L 108 122 L 93 116 L 82 114 L 66 114 L 51 117 L 35 124 L 25 131 L 16 140 L 11 147 L 5 159 L 1 173 L 1 181 L 0 182 L 1 200 L 5 213 L 8 220 L 10 222 L 10 225 L 1 252 L 0 259 L 4 262 L 23 257 L 30 254 L 41 252 L 45 255 L 60 260 L 66 261 L 81 261 L 101 256 L 112 250 L 119 245 L 131 233 L 139 221 L 143 213 L 147 198 L 147 176 L 143 161 L 132 142 Z M 120 141 L 132 157 L 137 170 L 139 181 L 139 193 L 136 207 L 129 222 L 120 233 L 111 241 L 109 241 L 104 245 L 96 249 L 77 253 L 62 252 L 55 249 L 52 249 L 41 243 L 28 247 L 24 247 L 13 251 L 12 247 L 18 228 L 19 221 L 13 211 L 9 198 L 9 177 L 11 167 L 14 159 L 23 145 L 33 135 L 43 129 L 53 125 L 68 122 L 85 123 L 99 127 L 107 131 Z M 46 155 L 42 159 L 40 163 L 39 172 L 41 180 L 45 188 L 55 202 L 66 212 L 72 216 L 89 223 L 95 223 L 104 218 L 108 213 L 107 206 L 96 200 L 90 200 L 83 208 L 80 208 L 71 202 L 68 198 L 59 190 L 55 183 L 55 178 L 62 171 L 61 165 L 57 156 L 55 154 L 48 154 Z M 56 118 L 59 117 L 65 118 L 63 120 L 61 121 Z M 78 116 L 87 118 L 84 121 L 78 119 Z M 29 21 L 33 21 L 54 0 L 44 0 L 36 7 L 35 0 L 27 0 L 27 11 Z" fill="currentColor" fill-rule="evenodd"/>
</svg>
