<svg xmlns="http://www.w3.org/2000/svg" width="173" height="230" viewBox="0 0 173 230" role="img" aria-hidden="true">
  <path d="M 172 199 L 170 195 L 147 174 L 143 175 L 143 180 L 157 194 L 155 196 L 98 197 L 98 201 L 100 203 L 112 204 L 147 203 L 156 205 L 143 219 L 143 223 L 145 225 L 147 225 Z M 130 145 L 128 142 L 122 137 L 94 136 L 8 137 L 6 138 L 1 143 L 0 147 L 0 212 L 2 223 L 7 228 L 10 229 L 126 229 L 130 225 L 127 221 L 15 221 L 15 219 L 48 189 L 53 190 L 57 194 L 63 197 L 70 196 L 78 190 L 89 179 L 120 152 L 123 153 L 123 178 L 124 180 L 127 181 L 130 178 L 131 171 L 130 155 L 131 149 L 130 148 Z M 10 152 L 40 178 L 44 183 L 9 215 Z M 14 146 L 15 144 L 117 145 L 67 189 L 63 189 L 60 187 L 55 181 L 49 177 Z M 114 0 L 120 2 L 139 0 Z M 28 0 L 33 2 L 53 0 Z" fill="currentColor" fill-rule="evenodd"/>
</svg>
