<svg xmlns="http://www.w3.org/2000/svg" width="152" height="140" viewBox="0 0 152 140" role="img" aria-hidden="true">
  <path d="M 72 0 L 68 2 L 0 70 L 1 77 L 3 78 L 13 78 L 15 80 L 15 126 L 18 133 L 22 137 L 26 139 L 59 139 L 63 135 L 63 96 L 66 93 L 70 92 L 83 92 L 85 93 L 89 98 L 89 137 L 91 139 L 124 139 L 127 138 L 133 133 L 136 127 L 137 78 L 140 77 L 146 78 L 149 77 L 151 75 L 151 70 L 82 2 L 78 0 Z M 73 9 L 77 9 L 80 11 L 137 68 L 135 70 L 129 70 L 128 72 L 129 91 L 128 124 L 122 131 L 98 131 L 96 129 L 97 101 L 96 95 L 90 87 L 83 84 L 67 84 L 59 88 L 55 95 L 55 128 L 52 131 L 29 131 L 23 127 L 23 72 L 18 69 L 16 66 L 20 63 L 51 30 Z" fill="currentColor" fill-rule="evenodd"/>
</svg>
