<svg xmlns="http://www.w3.org/2000/svg" width="148" height="144" viewBox="0 0 148 144" role="img" aria-hidden="true">
  <path d="M 145 53 L 126 51 L 110 53 L 94 59 L 85 65 L 81 69 L 75 77 L 72 83 L 69 93 L 68 111 L 70 119 L 63 137 L 63 141 L 65 143 L 67 143 L 70 140 L 72 132 L 75 126 L 78 125 L 83 127 L 98 126 L 107 123 L 120 115 L 129 106 L 136 96 L 145 75 L 147 66 L 147 55 Z M 140 60 L 140 67 L 135 82 L 127 97 L 112 112 L 104 116 L 91 120 L 82 119 L 80 116 L 83 110 L 92 98 L 103 87 L 115 78 L 120 76 L 123 72 L 120 69 L 117 69 L 110 72 L 103 77 L 88 91 L 76 108 L 75 100 L 76 94 L 79 85 L 83 78 L 95 67 L 111 60 L 116 59 Z M 123 5 L 113 1 L 97 0 L 83 4 L 73 13 L 66 6 L 60 3 L 49 0 L 38 0 L 29 2 L 16 9 L 7 19 L 2 29 L 0 36 L 0 57 L 3 67 L 7 75 L 15 86 L 55 124 L 58 125 L 61 122 L 61 118 L 40 100 L 22 82 L 12 68 L 8 57 L 7 44 L 8 36 L 13 24 L 16 20 L 24 13 L 37 8 L 49 8 L 56 10 L 63 14 L 73 25 L 84 13 L 87 11 L 96 8 L 108 8 L 119 12 L 131 22 L 136 30 L 139 44 L 141 46 L 144 46 L 147 41 L 144 30 L 139 20 L 128 8 Z" fill="currentColor" fill-rule="evenodd"/>
</svg>
