<svg xmlns="http://www.w3.org/2000/svg" width="144" height="253" viewBox="0 0 144 253" role="img" aria-hidden="true">
  <path d="M 114 117 L 103 110 L 93 106 L 80 103 L 61 103 L 45 107 L 33 113 L 17 127 L 11 135 L 5 147 L 2 156 L 0 167 L 0 184 L 2 195 L 5 204 L 13 218 L 12 225 L 3 244 L 3 249 L 6 252 L 20 251 L 29 248 L 38 243 L 43 243 L 55 248 L 65 250 L 84 249 L 95 246 L 112 237 L 127 222 L 134 212 L 141 194 L 143 183 L 143 170 L 140 155 L 135 142 L 126 129 Z M 107 122 L 120 134 L 126 142 L 130 150 L 135 169 L 135 184 L 133 194 L 126 210 L 121 217 L 110 228 L 103 233 L 87 240 L 77 242 L 68 242 L 60 241 L 48 237 L 43 234 L 38 234 L 33 236 L 30 239 L 14 244 L 13 241 L 16 236 L 20 225 L 21 215 L 15 207 L 11 198 L 8 185 L 8 166 L 12 151 L 20 136 L 29 126 L 36 121 L 47 115 L 57 112 L 78 111 L 94 115 Z M 67 206 L 65 207 L 63 210 L 63 215 L 67 220 L 72 220 L 76 217 L 77 211 L 74 207 L 72 206 Z M 77 135 L 64 135 L 57 138 L 53 141 L 48 151 L 48 159 L 50 161 L 54 161 L 56 159 L 58 151 L 60 148 L 64 145 L 75 144 L 79 146 L 84 152 L 85 157 L 84 163 L 78 169 L 73 172 L 69 176 L 65 184 L 65 195 L 67 197 L 70 197 L 74 193 L 74 187 L 76 182 L 78 180 L 80 180 L 92 168 L 94 163 L 94 151 L 91 145 L 87 140 Z M 73 10 L 68 11 L 65 14 L 65 20 L 69 25 L 75 24 L 79 19 L 78 14 Z M 69 0 L 72 2 L 74 0 Z" fill="currentColor" fill-rule="evenodd"/>
</svg>
