<svg xmlns="http://www.w3.org/2000/svg" width="158" height="158" viewBox="0 0 158 158" role="img" aria-hidden="true">
  <path d="M 65 0 L 50 4 L 33 12 L 18 26 L 11 35 L 5 48 L 1 60 L 0 67 L 0 88 L 1 96 L 4 106 L 9 117 L 20 132 L 32 143 L 51 153 L 59 156 L 66 157 L 88 157 L 98 155 L 115 148 L 128 139 L 139 128 L 147 116 L 151 108 L 155 96 L 157 75 L 156 65 L 148 41 L 137 26 L 127 16 L 107 5 L 90 0 Z M 35 126 L 41 116 L 51 107 L 67 101 L 89 101 L 101 105 L 109 110 L 118 120 L 121 126 L 122 132 L 112 140 L 96 147 L 86 149 L 69 149 L 51 144 L 43 140 L 34 133 Z M 73 41 L 83 41 L 90 44 L 98 52 L 100 57 L 100 68 L 98 73 L 89 82 L 81 85 L 76 85 L 65 81 L 61 77 L 57 68 L 57 57 L 60 50 L 66 44 Z M 22 34 L 32 24 L 45 15 L 58 10 L 69 8 L 85 8 L 96 10 L 107 14 L 119 21 L 132 33 L 139 42 L 145 54 L 148 65 L 149 73 L 148 90 L 143 106 L 137 117 L 133 122 L 128 124 L 123 114 L 115 105 L 100 96 L 93 95 L 87 92 L 89 90 L 91 90 L 96 87 L 104 78 L 108 67 L 108 58 L 104 47 L 98 40 L 92 36 L 84 33 L 73 33 L 65 35 L 56 42 L 51 51 L 49 59 L 50 72 L 54 80 L 62 88 L 70 92 L 68 94 L 59 95 L 49 99 L 42 104 L 34 112 L 31 117 L 30 121 L 27 124 L 23 123 L 15 111 L 11 102 L 8 90 L 8 67 L 10 57 L 16 43 Z" fill="currentColor" fill-rule="evenodd"/>
</svg>
