<svg xmlns="http://www.w3.org/2000/svg" width="148" height="258" viewBox="0 0 148 258" role="img" aria-hidden="true">
  <path d="M 70 109 L 56 111 L 43 115 L 29 123 L 18 133 L 10 144 L 5 154 L 2 163 L 0 173 L 0 193 L 3 206 L 7 216 L 17 231 L 30 243 L 39 249 L 54 255 L 64 257 L 82 257 L 100 252 L 110 247 L 119 241 L 134 225 L 141 214 L 146 199 L 147 193 L 147 171 L 142 154 L 134 140 L 121 126 L 107 117 L 95 112 L 87 110 Z M 121 227 L 106 240 L 96 242 L 99 239 L 109 223 L 117 224 Z M 28 225 L 37 223 L 40 226 L 44 235 L 47 238 L 46 242 L 44 242 L 33 235 L 28 230 L 27 228 Z M 99 224 L 95 231 L 83 244 L 79 246 L 77 244 L 78 221 L 83 220 L 95 221 Z M 50 221 L 63 220 L 64 221 L 68 220 L 70 222 L 70 240 L 68 246 L 66 246 L 62 243 L 53 234 L 49 227 L 48 223 Z M 117 187 L 137 187 L 139 189 L 136 204 L 133 211 L 128 218 L 115 216 L 112 213 Z M 78 188 L 106 187 L 108 189 L 108 196 L 105 208 L 100 213 L 79 213 L 77 211 L 77 190 Z M 40 187 L 68 187 L 70 189 L 70 209 L 67 212 L 45 214 L 42 210 L 39 196 Z M 9 187 L 29 187 L 31 189 L 35 213 L 32 216 L 19 219 L 17 217 L 10 202 L 8 193 Z M 105 155 L 108 170 L 108 176 L 105 179 L 82 179 L 77 177 L 78 153 L 102 152 Z M 43 153 L 45 152 L 68 153 L 70 155 L 69 159 L 70 176 L 67 179 L 41 179 L 39 177 L 39 169 L 41 158 Z M 113 150 L 117 150 L 122 148 L 130 149 L 135 158 L 138 167 L 139 176 L 136 179 L 116 178 L 115 175 L 115 165 L 112 154 Z M 17 149 L 23 148 L 34 151 L 35 154 L 33 158 L 31 176 L 28 179 L 10 179 L 8 177 L 8 172 L 12 158 Z M 49 124 L 46 127 L 40 139 L 36 143 L 26 141 L 25 138 L 35 129 L 45 123 Z M 97 122 L 99 122 L 115 132 L 122 140 L 120 142 L 109 143 L 107 141 L 107 139 L 101 129 L 96 124 Z M 69 121 L 70 124 L 70 143 L 67 146 L 49 145 L 47 142 L 54 130 L 65 120 Z M 79 119 L 84 122 L 94 132 L 97 137 L 97 139 L 99 141 L 99 143 L 97 145 L 79 146 L 77 144 Z M 10 0 L 20 1 L 21 0 L 25 0 Z" fill="currentColor" fill-rule="evenodd"/>
</svg>
