<svg xmlns="http://www.w3.org/2000/svg" width="268" height="162" viewBox="0 0 268 162" role="img" aria-hidden="true">
  <path d="M 267 71 L 265 73 L 267 90 Z M 63 1 L 49 5 L 30 16 L 20 25 L 11 37 L 4 52 L 0 67 L 0 93 L 5 111 L 13 126 L 26 141 L 38 150 L 50 156 L 64 160 L 71 161 L 88 161 L 99 159 L 108 156 L 125 147 L 142 131 L 150 119 L 155 109 L 160 88 L 160 70 L 154 49 L 148 38 L 141 28 L 127 15 L 111 6 L 100 2 L 89 0 Z M 69 8 L 90 8 L 102 11 L 115 17 L 123 22 L 133 31 L 144 47 L 148 56 L 152 71 L 152 90 L 151 95 L 145 112 L 138 123 L 126 136 L 118 142 L 107 148 L 89 153 L 70 153 L 62 150 L 56 144 L 53 136 L 54 122 L 61 105 L 76 83 L 88 71 L 88 69 L 86 67 L 82 67 L 66 85 L 57 100 L 54 103 L 49 95 L 49 82 L 50 78 L 55 70 L 65 61 L 82 53 L 96 49 L 104 48 L 106 50 L 104 76 L 102 85 L 97 97 L 88 107 L 80 111 L 76 112 L 67 111 L 61 112 L 62 117 L 69 119 L 84 117 L 95 110 L 102 102 L 108 89 L 112 65 L 112 43 L 110 41 L 92 43 L 71 50 L 60 56 L 55 60 L 47 69 L 42 82 L 42 94 L 43 98 L 47 106 L 51 110 L 51 112 L 48 119 L 46 131 L 48 143 L 45 145 L 37 140 L 23 126 L 16 116 L 9 98 L 7 87 L 7 74 L 10 59 L 17 43 L 23 34 L 35 22 L 41 18 L 51 13 Z" fill="currentColor" fill-rule="evenodd"/>
</svg>
