<svg xmlns="http://www.w3.org/2000/svg" width="144" height="172" viewBox="0 0 144 172" role="img" aria-hidden="true">
  <path d="M 106 113 L 101 114 L 103 124 L 101 131 L 95 138 L 95 141 L 97 143 L 99 143 L 105 137 L 109 128 L 109 117 Z M 120 103 L 116 103 L 116 108 L 119 116 L 119 130 L 114 142 L 106 151 L 106 155 L 109 157 L 112 155 L 120 146 L 124 138 L 126 130 L 126 118 L 124 109 Z M 136 94 L 130 93 L 130 98 L 134 106 L 137 120 L 136 133 L 133 143 L 129 151 L 116 166 L 117 170 L 120 171 L 131 160 L 136 153 L 140 144 L 143 133 L 143 114 L 140 103 L 137 98 Z M 68 24 L 52 23 L 42 26 L 36 30 L 30 36 L 26 43 L 23 51 L 22 58 L 23 66 L 28 75 L 36 83 L 38 88 L 38 94 L 30 103 L 19 109 L 17 113 L 17 119 L 19 123 L 24 127 L 29 127 L 36 121 L 38 116 L 54 101 L 56 97 L 58 87 L 56 77 L 53 71 L 50 68 L 41 62 L 30 60 L 30 52 L 34 43 L 41 35 L 49 31 L 63 30 L 69 32 L 72 34 L 81 44 L 83 50 L 83 57 L 85 61 L 87 61 L 90 58 L 90 50 L 85 37 L 79 30 Z M 35 109 L 31 117 L 26 121 L 24 119 L 23 115 L 26 112 Z M 34 67 L 42 70 L 48 75 L 50 78 L 52 86 L 50 95 L 47 100 L 44 103 L 38 105 L 38 103 L 43 97 L 44 90 L 41 80 L 32 70 Z M 75 2 L 65 0 L 50 0 L 41 2 L 29 7 L 18 15 L 12 22 L 3 39 L 2 43 L 3 50 L 5 51 L 9 47 L 9 44 L 17 28 L 28 17 L 36 12 L 50 8 L 65 8 L 77 11 L 87 17 L 99 30 L 102 36 L 105 47 L 105 63 L 104 68 L 97 85 L 92 91 L 91 94 L 70 116 L 63 125 L 55 139 L 52 148 L 43 158 L 39 161 L 33 163 L 22 162 L 15 158 L 10 152 L 7 146 L 7 139 L 6 137 L 0 137 L 0 147 L 3 155 L 12 165 L 23 170 L 36 170 L 42 168 L 47 165 L 55 157 L 67 132 L 72 127 L 74 123 L 99 96 L 103 90 L 111 72 L 113 62 L 113 49 L 111 39 L 106 27 L 102 21 L 92 11 L 86 7 Z" fill="currentColor" fill-rule="evenodd"/>
</svg>
