<svg xmlns="http://www.w3.org/2000/svg" width="284" height="169" viewBox="0 0 284 169" role="img" aria-hidden="true">
  <path d="M 0 131 L 0 161 L 5 156 L 6 153 L 5 144 L 0 133 Z M 164 108 L 164 127 L 167 130 L 182 130 L 186 127 L 186 109 L 184 107 Z M 180 120 L 180 122 L 178 124 L 176 121 Z M 179 113 L 181 116 L 179 118 L 178 116 Z M 177 114 L 173 117 L 173 121 L 171 123 L 171 113 Z M 128 108 L 127 111 L 127 127 L 130 130 L 145 130 L 149 126 L 149 109 L 147 107 Z M 134 113 L 141 113 L 144 116 L 144 121 L 141 124 L 133 123 Z M 237 90 L 232 91 L 223 95 L 218 99 L 211 107 L 206 119 L 206 137 L 209 146 L 212 151 L 223 162 L 231 166 L 239 168 L 248 168 L 259 165 L 265 162 L 273 155 L 278 148 L 282 139 L 283 134 L 283 122 L 280 112 L 277 107 L 266 96 L 255 91 L 250 90 Z M 237 97 L 252 97 L 264 103 L 271 110 L 275 118 L 277 126 L 275 139 L 270 148 L 263 155 L 256 159 L 249 161 L 239 161 L 235 160 L 224 154 L 217 146 L 214 140 L 212 132 L 213 120 L 215 114 L 219 108 L 227 101 Z M 263 115 L 259 115 L 239 135 L 230 126 L 225 127 L 225 130 L 238 143 L 242 142 L 264 119 Z M 222 71 L 220 70 L 203 70 L 201 72 L 201 90 L 205 93 L 209 93 L 214 88 L 209 87 L 207 85 L 208 76 L 216 76 L 218 78 L 220 84 L 223 81 Z M 166 70 L 164 72 L 164 91 L 166 93 L 184 92 L 186 90 L 186 72 L 184 70 Z M 171 76 L 178 76 L 180 78 L 180 85 L 178 87 L 172 87 L 170 85 Z M 129 70 L 127 72 L 127 90 L 130 93 L 145 93 L 149 90 L 149 73 L 148 71 Z M 134 76 L 142 76 L 144 78 L 144 84 L 141 87 L 133 86 Z M 0 10 L 0 39 L 6 21 L 6 18 L 4 13 Z M 109 15 L 104 20 L 102 26 L 103 32 L 102 140 L 105 149 L 110 154 L 114 156 L 138 157 L 206 157 L 210 153 L 205 149 L 116 149 L 110 144 L 109 142 L 110 54 L 174 53 L 241 54 L 243 56 L 242 79 L 244 86 L 247 86 L 250 83 L 250 33 L 249 24 L 247 20 L 241 14 L 238 13 L 217 12 L 217 3 L 214 0 L 210 0 L 208 2 L 208 13 L 206 15 L 204 13 L 144 12 L 143 2 L 141 0 L 135 1 L 135 13 L 133 15 L 131 13 L 114 13 Z M 109 28 L 110 25 L 115 20 L 130 20 L 132 18 L 135 19 L 135 30 L 136 32 L 140 33 L 143 30 L 144 19 L 203 20 L 206 18 L 208 20 L 208 30 L 211 33 L 213 33 L 217 29 L 219 19 L 235 20 L 238 21 L 243 28 L 243 38 L 242 43 L 239 46 L 236 47 L 206 46 L 111 47 L 109 45 Z" fill="currentColor" fill-rule="evenodd"/>
</svg>
