<svg xmlns="http://www.w3.org/2000/svg" width="178" height="142" viewBox="0 0 178 142" role="img" aria-hidden="true">
  <path d="M 150 66 L 146 64 L 142 64 L 138 66 L 123 81 L 113 87 L 105 94 L 100 101 L 94 116 L 93 124 L 94 129 L 97 130 L 99 128 L 102 113 L 108 101 L 114 95 L 129 84 L 141 72 L 145 71 L 148 74 L 146 78 L 135 90 L 129 99 L 129 102 L 132 105 L 136 101 L 136 99 L 148 86 L 154 76 L 154 71 Z M 26 66 L 24 69 L 24 78 L 28 85 L 41 99 L 43 104 L 45 105 L 48 102 L 48 98 L 30 76 L 31 71 L 36 72 L 45 82 L 58 91 L 69 101 L 75 112 L 78 123 L 78 128 L 80 130 L 82 130 L 85 125 L 82 112 L 78 102 L 72 95 L 71 92 L 68 91 L 64 87 L 57 83 L 52 77 L 49 76 L 37 65 L 30 64 Z M 175 54 L 170 55 L 170 62 L 166 78 L 158 92 L 145 105 L 132 114 L 123 124 L 118 136 L 118 138 L 121 141 L 125 137 L 129 127 L 138 118 L 151 109 L 164 96 L 168 90 L 173 80 L 176 70 L 177 56 Z M 1 54 L 0 60 L 2 73 L 6 84 L 11 93 L 26 109 L 39 118 L 48 127 L 53 138 L 56 141 L 59 138 L 59 134 L 54 123 L 46 115 L 30 103 L 21 94 L 18 90 L 18 88 L 14 84 L 12 80 L 8 67 L 8 58 L 6 54 Z M 14 27 L 14 45 L 19 59 L 21 61 L 23 61 L 26 58 L 26 56 L 21 45 L 21 29 L 27 17 L 31 13 L 38 9 L 45 7 L 56 7 L 66 10 L 75 16 L 82 23 L 86 30 L 90 31 L 94 25 L 105 14 L 112 10 L 119 8 L 134 8 L 140 10 L 145 13 L 153 21 L 156 26 L 157 30 L 157 43 L 152 55 L 152 59 L 154 61 L 156 61 L 160 56 L 163 48 L 164 39 L 165 38 L 164 28 L 160 19 L 155 12 L 148 6 L 135 1 L 118 1 L 108 4 L 98 10 L 92 17 L 87 19 L 78 9 L 68 3 L 58 0 L 42 0 L 28 6 L 20 14 Z" fill="currentColor" fill-rule="evenodd"/>
</svg>
