<svg xmlns="http://www.w3.org/2000/svg" width="163" height="181" viewBox="0 0 163 181" role="img" aria-hidden="true">
  <path d="M 64 114 L 65 119 L 68 120 L 72 117 L 72 115 L 70 113 Z M 51 106 L 47 105 L 34 117 L 30 114 L 26 114 L 27 120 L 35 126 L 52 109 Z M 88 101 L 80 110 L 75 122 L 75 139 L 78 148 L 81 153 L 93 164 L 102 168 L 108 168 L 109 169 L 120 168 L 128 165 L 135 160 L 137 160 L 157 180 L 159 180 L 162 177 L 162 175 L 142 155 L 142 152 L 147 145 L 149 137 L 149 125 L 147 118 L 142 108 L 130 98 L 120 94 L 103 94 L 97 96 Z M 105 101 L 118 101 L 128 105 L 132 108 L 138 115 L 142 124 L 142 137 L 141 141 L 137 148 L 128 157 L 115 162 L 104 161 L 92 155 L 86 148 L 83 142 L 81 134 L 82 123 L 87 112 L 96 104 Z M 64 78 L 64 82 L 66 84 L 76 83 L 103 84 L 108 83 L 110 81 L 109 77 Z M 51 69 L 47 69 L 34 81 L 29 77 L 26 78 L 26 82 L 33 89 L 36 89 L 52 73 Z M 64 42 L 65 48 L 107 48 L 110 45 L 109 42 L 107 41 L 70 41 L 69 42 Z M 51 34 L 46 34 L 34 46 L 30 42 L 26 42 L 27 48 L 32 53 L 36 54 L 52 37 Z M 4 4 L 1 9 L 0 145 L 1 152 L 3 156 L 7 160 L 12 162 L 78 162 L 81 159 L 77 155 L 14 155 L 7 149 L 7 14 L 8 11 L 11 8 L 26 7 L 86 8 L 121 7 L 125 9 L 128 13 L 129 84 L 128 91 L 129 93 L 133 94 L 135 92 L 136 84 L 135 41 L 136 15 L 135 10 L 131 4 L 123 0 L 12 0 Z" fill="currentColor" fill-rule="evenodd"/>
</svg>
