<svg xmlns="http://www.w3.org/2000/svg" width="146" height="167" viewBox="0 0 146 167" role="img" aria-hidden="true">
  <path d="M 4 4 L 0 11 L 0 153 L 2 158 L 8 164 L 13 166 L 131 166 L 138 163 L 142 159 L 145 153 L 145 12 L 142 6 L 139 3 L 133 0 L 11 0 Z M 11 8 L 13 7 L 131 7 L 137 12 L 138 14 L 138 149 L 137 153 L 130 159 L 15 159 L 8 154 L 7 152 L 7 13 Z M 25 124 L 25 128 L 27 130 L 68 130 L 71 127 L 71 125 L 69 123 Z M 115 113 L 113 112 L 104 112 L 99 115 L 88 126 L 86 130 L 86 139 L 90 145 L 94 147 L 102 146 L 119 130 L 121 121 L 120 118 Z M 95 127 L 97 127 L 105 135 L 96 141 L 94 141 L 91 138 L 91 131 Z M 105 117 L 112 117 L 115 120 L 115 126 L 109 132 L 101 124 L 102 119 Z M 25 83 L 25 87 L 27 89 L 67 89 L 71 86 L 71 84 L 69 82 Z M 99 70 L 94 72 L 88 80 L 88 91 L 90 95 L 95 100 L 101 102 L 105 102 L 110 100 L 116 95 L 119 89 L 119 83 L 117 78 L 111 72 L 107 70 Z M 99 76 L 109 77 L 113 82 L 113 88 L 112 90 L 105 96 L 100 96 L 98 95 L 93 89 L 93 82 L 94 80 Z M 25 40 L 25 44 L 27 46 L 68 46 L 71 43 L 71 41 L 69 39 L 27 39 Z M 117 25 L 112 23 L 104 24 L 89 38 L 87 42 L 87 52 L 92 58 L 97 60 L 100 60 L 105 58 L 121 42 L 122 40 L 122 32 Z M 98 38 L 107 48 L 101 54 L 96 54 L 92 50 L 92 43 Z M 107 29 L 113 29 L 117 33 L 117 38 L 111 44 L 102 35 L 102 33 Z" fill="currentColor" fill-rule="evenodd"/>
</svg>
