<svg xmlns="http://www.w3.org/2000/svg" width="132" height="171" viewBox="0 0 132 171" role="img" aria-hidden="true">
  <path d="M 6 2 L 2 6 L 0 10 L 0 158 L 2 163 L 7 168 L 13 170 L 21 169 L 27 170 L 31 169 L 71 169 L 77 170 L 111 169 L 112 170 L 117 170 L 123 168 L 129 162 L 131 158 L 131 41 L 109 18 L 89 0 L 12 0 Z M 93 13 L 93 15 L 95 15 L 119 39 L 117 41 L 92 41 L 90 39 Z M 9 9 L 11 8 L 60 7 L 83 9 L 84 25 L 83 43 L 86 47 L 122 47 L 124 49 L 124 156 L 120 161 L 118 162 L 93 163 L 12 162 L 8 159 L 7 157 L 6 137 L 7 124 L 7 91 L 6 77 L 7 49 L 6 37 L 7 12 Z M 25 137 L 26 142 L 28 143 L 44 142 L 46 137 L 44 136 Z M 55 118 L 54 115 L 44 114 L 25 116 L 26 120 L 28 121 L 52 121 Z M 73 94 L 73 98 L 75 100 L 75 117 L 60 140 L 60 145 L 63 149 L 108 149 L 111 146 L 112 142 L 97 118 L 97 100 L 99 98 L 99 95 L 97 93 Z M 82 100 L 89 100 L 91 102 L 91 121 L 99 132 L 104 141 L 102 143 L 69 143 L 67 140 L 70 137 L 81 119 Z M 25 96 L 27 98 L 58 98 L 61 94 L 59 92 L 25 93 Z M 25 71 L 28 74 L 97 74 L 101 71 L 101 69 L 99 67 L 26 67 Z M 25 40 L 25 43 L 27 45 L 65 45 L 68 42 L 67 39 Z" fill="currentColor" fill-rule="evenodd"/>
</svg>
