<svg xmlns="http://www.w3.org/2000/svg" width="181" height="154" viewBox="0 0 181 154" role="img" aria-hidden="true">
  <path d="M 23 17 L 23 22 L 25 23 L 26 26 L 23 31 L 20 41 L 16 48 L 13 58 L 8 67 L 7 72 L 0 87 L 0 93 L 3 99 L 14 109 L 23 112 L 39 112 L 47 109 L 52 106 L 60 98 L 63 91 L 63 88 L 61 86 L 60 81 L 53 67 L 49 55 L 45 48 L 45 45 L 40 36 L 39 31 L 37 28 L 37 23 L 61 21 L 79 21 L 83 26 L 85 26 L 87 28 L 86 46 L 87 124 L 86 130 L 84 132 L 64 132 L 57 135 L 53 140 L 51 145 L 51 150 L 53 152 L 63 153 L 103 153 L 127 152 L 130 149 L 129 143 L 124 135 L 116 132 L 96 132 L 94 130 L 94 28 L 101 21 L 122 21 L 136 22 L 143 24 L 143 26 L 133 48 L 128 63 L 123 73 L 120 83 L 117 87 L 117 92 L 119 97 L 127 106 L 139 112 L 156 112 L 160 111 L 171 105 L 178 97 L 180 92 L 180 86 L 176 80 L 175 75 L 169 63 L 168 58 L 157 34 L 155 28 L 155 24 L 158 20 L 157 18 L 148 16 L 102 14 L 94 6 L 94 3 L 91 0 L 87 1 L 87 5 L 77 14 L 32 16 L 31 17 Z M 59 143 L 62 140 L 68 138 L 87 139 L 104 138 L 116 139 L 118 140 L 120 145 L 100 146 L 68 145 L 67 146 L 61 146 Z M 127 93 L 133 92 L 166 92 L 171 94 L 163 102 L 159 104 L 151 106 L 145 106 L 133 102 Z M 10 97 L 10 93 L 37 92 L 53 94 L 52 96 L 44 103 L 34 106 L 28 106 L 20 104 L 13 100 Z M 30 34 L 33 35 L 35 42 L 48 71 L 52 82 L 52 84 L 50 86 L 14 86 L 10 83 L 18 61 Z M 147 34 L 150 34 L 153 43 L 170 82 L 170 84 L 168 86 L 129 86 L 128 80 Z M 92 13 L 95 17 L 89 22 L 86 19 L 86 15 L 88 13 Z" fill="currentColor" fill-rule="evenodd"/>
</svg>
