<svg xmlns="http://www.w3.org/2000/svg" width="178" height="337" viewBox="0 0 178 337" role="img" aria-hidden="true">
  <path d="M 5 194 L 0 200 L 0 266 L 2 271 L 31 307 L 33 311 L 33 326 L 35 332 L 38 335 L 48 336 L 75 335 L 79 331 L 80 328 L 80 290 L 77 279 L 72 270 L 66 264 L 56 258 L 51 252 L 36 238 L 32 236 L 23 235 L 23 208 L 21 200 L 19 197 L 15 194 Z M 7 201 L 12 200 L 16 205 L 17 250 L 23 260 L 34 271 L 42 281 L 45 282 L 48 278 L 47 276 L 27 254 L 24 249 L 24 245 L 26 243 L 31 243 L 36 247 L 48 260 L 61 269 L 67 275 L 72 284 L 73 289 L 73 324 L 70 328 L 66 329 L 59 328 L 42 329 L 40 327 L 40 312 L 35 300 L 24 288 L 21 282 L 12 274 L 8 268 L 6 261 L 6 203 Z M 171 194 L 163 193 L 160 194 L 156 198 L 154 208 L 154 227 L 153 235 L 151 237 L 144 236 L 141 237 L 136 241 L 123 255 L 111 263 L 101 274 L 98 281 L 96 292 L 96 327 L 99 334 L 101 335 L 116 335 L 117 336 L 137 335 L 142 330 L 142 317 L 145 306 L 155 293 L 169 278 L 174 270 L 176 264 L 177 254 L 177 210 L 176 200 Z M 167 200 L 170 203 L 171 221 L 170 263 L 167 269 L 162 273 L 162 275 L 141 300 L 137 309 L 136 326 L 133 329 L 124 328 L 112 329 L 103 327 L 103 288 L 106 279 L 113 270 L 124 263 L 144 243 L 150 243 L 153 247 L 151 251 L 140 264 L 136 267 L 129 275 L 128 280 L 130 282 L 132 282 L 145 267 L 152 261 L 158 252 L 159 248 L 160 206 L 161 202 L 163 200 Z M 17 0 L 17 102 L 18 105 L 23 111 L 29 114 L 147 114 L 152 112 L 158 106 L 161 98 L 161 0 L 154 0 L 154 3 L 152 5 L 24 4 L 24 0 Z M 25 12 L 152 12 L 155 15 L 154 39 L 155 94 L 153 102 L 147 107 L 138 108 L 103 107 L 47 107 L 33 108 L 28 106 L 24 101 Z M 61 32 L 61 36 L 83 58 L 62 79 L 61 85 L 64 87 L 66 86 L 89 64 L 113 87 L 117 82 L 95 60 L 95 57 L 112 39 L 117 35 L 117 33 L 115 31 L 110 31 L 93 49 L 88 53 L 85 49 L 71 36 L 71 34 L 66 31 Z" fill="currentColor" fill-rule="evenodd"/>
</svg>
