<svg xmlns="http://www.w3.org/2000/svg" width="139" height="157" viewBox="0 0 139 157" role="img" aria-hidden="true">
  <path d="M 64 0 L 55 6 L 39 14 L 26 18 L 4 21 L 1 24 L 0 32 L 1 46 L 0 58 L 2 83 L 4 87 L 4 91 L 8 103 L 16 118 L 22 126 L 37 140 L 49 148 L 51 148 L 61 154 L 66 156 L 71 156 L 86 149 L 103 138 L 118 123 L 125 113 L 132 98 L 137 78 L 138 68 L 138 27 L 136 23 L 133 21 L 112 18 L 88 9 L 73 0 Z M 67 7 L 69 7 L 96 21 L 117 27 L 128 28 L 130 30 L 131 52 L 129 80 L 125 95 L 119 108 L 110 120 L 99 131 L 83 142 L 70 148 L 67 148 L 60 145 L 38 131 L 23 115 L 21 111 L 21 107 L 18 105 L 13 96 L 10 86 L 8 73 L 9 28 L 25 26 L 41 21 L 60 12 Z M 44 50 L 36 55 L 34 58 L 31 66 L 31 76 L 33 82 L 38 91 L 49 102 L 60 110 L 67 114 L 70 114 L 76 111 L 86 104 L 103 86 L 107 77 L 108 69 L 105 60 L 102 56 L 96 51 L 91 49 L 79 49 L 68 55 L 65 52 L 58 49 L 47 49 Z M 37 68 L 40 61 L 43 58 L 48 56 L 57 56 L 61 58 L 69 65 L 77 57 L 80 56 L 89 56 L 92 57 L 98 62 L 100 66 L 100 75 L 96 84 L 82 98 L 77 100 L 72 105 L 68 107 L 56 99 L 46 90 L 39 80 L 37 73 Z" fill="currentColor" fill-rule="evenodd"/>
</svg>
