<svg xmlns="http://www.w3.org/2000/svg" width="166" height="298" viewBox="0 0 166 298" role="img" aria-hidden="true">
  <path d="M 67 295 L 67 297 L 74 296 L 77 292 L 79 291 L 85 291 L 88 292 L 91 296 L 99 297 L 97 292 L 91 286 L 83 284 L 76 285 L 72 287 Z M 44 293 L 44 297 L 51 296 L 51 292 L 56 282 L 64 274 L 72 270 L 77 269 L 89 269 L 102 275 L 111 285 L 115 297 L 121 297 L 121 292 L 119 286 L 114 277 L 107 270 L 102 267 L 87 262 L 73 263 L 66 265 L 61 268 L 50 278 L 46 286 Z M 0 297 L 9 297 L 13 291 L 24 279 L 34 271 L 44 265 L 62 258 L 72 256 L 90 256 L 106 259 L 116 263 L 127 269 L 138 277 L 151 290 L 156 297 L 165 297 L 158 287 L 141 270 L 137 268 L 133 264 L 116 255 L 103 251 L 88 249 L 66 250 L 54 253 L 35 262 L 17 276 L 9 284 Z M 79 0 L 64 3 L 52 8 L 43 14 L 32 24 L 25 34 L 18 50 L 16 59 L 16 82 L 20 97 L 29 113 L 40 125 L 49 132 L 61 138 L 76 142 L 87 143 L 103 141 L 117 136 L 130 128 L 141 118 L 151 104 L 157 90 L 159 81 L 159 57 L 157 49 L 155 47 L 151 47 L 147 49 L 141 49 L 136 47 L 129 41 L 127 28 L 118 28 L 115 27 L 107 20 L 106 18 L 107 4 L 105 2 Z M 80 7 L 93 7 L 97 8 L 99 10 L 99 18 L 102 25 L 109 32 L 114 34 L 120 34 L 122 36 L 122 41 L 124 46 L 130 52 L 137 55 L 151 56 L 152 60 L 152 78 L 150 88 L 145 100 L 139 109 L 126 122 L 115 129 L 105 133 L 95 135 L 77 135 L 68 133 L 53 126 L 47 122 L 32 105 L 26 92 L 23 81 L 23 60 L 24 55 L 29 41 L 38 28 L 51 17 L 59 14 L 63 11 Z M 78 98 L 73 101 L 72 103 L 72 109 L 73 112 L 76 115 L 82 116 L 88 111 L 89 109 L 89 103 L 83 98 Z M 79 104 L 83 105 L 84 107 L 80 110 L 78 108 Z M 115 86 L 113 87 L 110 93 L 111 98 L 113 101 L 117 103 L 122 103 L 127 98 L 128 96 L 128 91 L 127 89 L 123 86 Z M 118 91 L 120 91 L 122 93 L 122 95 L 119 98 L 116 95 L 116 93 Z M 45 72 L 43 75 L 43 82 L 45 85 L 48 87 L 55 87 L 60 81 L 60 76 L 57 72 L 52 70 Z M 50 76 L 53 76 L 55 79 L 53 81 L 50 80 Z M 100 54 L 95 57 L 94 59 L 94 66 L 97 70 L 103 72 L 106 71 L 110 67 L 111 65 L 111 59 L 107 55 Z M 105 61 L 106 63 L 102 66 L 100 64 L 100 62 Z M 73 30 L 67 31 L 63 36 L 63 42 L 64 44 L 69 48 L 75 47 L 80 41 L 80 36 L 79 34 Z M 70 36 L 72 36 L 75 40 L 70 42 L 69 40 Z" fill="currentColor" fill-rule="evenodd"/>
</svg>
