<svg xmlns="http://www.w3.org/2000/svg" width="169" height="340" viewBox="0 0 169 340" role="img" aria-hidden="true">
  <path d="M 123 281 L 119 282 L 119 286 L 122 290 L 124 296 L 124 302 L 122 309 L 117 316 L 117 320 L 120 322 L 126 316 L 130 307 L 131 300 L 129 288 Z M 139 268 L 134 268 L 134 273 L 140 284 L 143 295 L 143 300 L 142 301 L 141 312 L 138 319 L 130 330 L 131 334 L 135 335 L 143 324 L 147 316 L 149 309 L 149 303 L 150 302 L 150 297 L 147 282 L 141 270 Z M 89 213 L 86 212 L 71 212 L 64 214 L 56 221 L 50 233 L 50 248 L 52 253 L 55 254 L 58 250 L 58 245 L 69 245 L 73 247 L 80 254 L 81 257 L 81 264 L 79 269 L 73 275 L 66 280 L 61 291 L 57 295 L 55 295 L 51 291 L 51 287 L 49 285 L 46 285 L 45 287 L 46 295 L 53 301 L 59 301 L 61 300 L 66 295 L 69 287 L 84 273 L 87 267 L 87 256 L 85 249 L 76 241 L 69 238 L 64 238 L 62 236 L 62 233 L 60 232 L 59 230 L 61 226 L 65 222 L 75 218 L 81 218 L 88 220 L 97 228 L 100 236 L 100 244 L 98 247 L 99 252 L 102 253 L 105 249 L 106 242 L 107 241 L 105 230 L 100 220 Z M 91 192 L 85 191 L 65 192 L 47 201 L 38 211 L 32 224 L 30 233 L 30 241 L 32 243 L 34 243 L 37 240 L 37 233 L 39 225 L 45 214 L 56 204 L 68 199 L 87 199 L 100 204 L 111 214 L 116 222 L 119 233 L 118 251 L 114 260 L 106 272 L 91 288 L 82 305 L 79 318 L 71 328 L 66 331 L 61 332 L 52 332 L 44 328 L 39 322 L 37 317 L 37 310 L 35 308 L 30 309 L 30 318 L 34 327 L 37 331 L 42 335 L 51 339 L 64 339 L 76 333 L 81 328 L 85 322 L 87 317 L 88 310 L 93 298 L 98 291 L 116 271 L 122 260 L 126 247 L 126 229 L 118 211 L 115 207 L 107 200 L 99 195 Z M 74 5 L 65 8 L 58 13 L 51 20 L 47 28 L 45 35 L 45 50 L 48 59 L 53 67 L 63 76 L 75 81 L 90 81 L 102 77 L 110 71 L 116 64 L 120 57 L 122 50 L 123 41 L 122 34 L 117 22 L 108 12 L 99 7 L 88 4 Z M 73 12 L 78 11 L 90 11 L 100 15 L 110 24 L 115 34 L 116 46 L 113 55 L 107 64 L 103 68 L 91 74 L 84 75 L 76 74 L 65 69 L 57 61 L 52 51 L 51 39 L 52 34 L 57 24 L 65 16 Z M 82 26 L 77 27 L 71 31 L 68 37 L 68 48 L 71 53 L 75 57 L 80 59 L 86 59 L 91 57 L 98 50 L 100 45 L 100 38 L 98 34 L 92 28 Z M 80 33 L 89 34 L 93 39 L 94 42 L 92 48 L 87 52 L 81 52 L 77 49 L 74 45 L 74 39 L 75 37 Z M 0 40 L 0 44 L 11 59 L 28 75 L 48 87 L 62 92 L 72 94 L 93 94 L 108 91 L 123 85 L 144 71 L 161 53 L 168 42 L 159 29 L 142 12 L 138 10 L 134 6 L 123 0 L 99 0 L 103 0 L 110 2 L 123 8 L 134 15 L 152 32 L 160 42 L 151 54 L 140 65 L 123 77 L 113 82 L 94 87 L 72 87 L 54 82 L 36 72 L 21 59 L 8 43 L 8 41 L 20 26 L 35 13 L 51 4 L 63 0 L 66 0 L 44 0 L 36 4 L 18 18 L 10 26 Z" fill="currentColor" fill-rule="evenodd"/>
</svg>
