<svg xmlns="http://www.w3.org/2000/svg" width="181" height="283" viewBox="0 0 181 283" role="img" aria-hidden="true">
  <path d="M 48 261 L 48 269 L 51 272 L 70 275 L 74 278 L 74 282 L 80 282 L 80 273 L 77 270 L 58 268 L 55 264 L 62 264 L 73 266 L 103 266 L 116 264 L 122 265 L 117 268 L 104 269 L 96 271 L 96 282 L 101 282 L 102 275 L 122 273 L 124 272 L 129 266 L 129 263 L 127 259 L 116 258 L 106 260 L 98 260 L 96 257 L 100 251 L 101 242 L 100 239 L 94 233 L 90 232 L 81 233 L 78 235 L 75 241 L 76 251 L 77 253 L 83 258 L 81 260 L 70 260 L 62 258 L 51 258 Z M 84 239 L 91 239 L 95 244 L 95 247 L 90 252 L 85 252 L 81 248 L 81 242 Z M 13 277 L 13 282 L 20 282 L 21 272 L 25 259 L 32 246 L 45 232 L 55 225 L 67 220 L 82 217 L 93 217 L 106 219 L 115 222 L 123 226 L 133 233 L 141 241 L 149 252 L 155 267 L 157 282 L 165 282 L 164 272 L 159 256 L 149 239 L 137 227 L 126 219 L 109 212 L 98 210 L 78 210 L 64 213 L 47 221 L 38 228 L 26 241 L 21 250 L 15 266 Z M 0 74 L 1 79 L 7 89 L 20 103 L 27 108 L 37 113 L 56 117 L 74 116 L 88 111 L 91 111 L 105 116 L 114 117 L 125 117 L 136 115 L 152 108 L 163 100 L 174 87 L 180 76 L 180 74 L 178 72 L 172 70 L 152 68 L 157 50 L 157 26 L 155 24 L 148 24 L 134 28 L 124 33 L 119 37 L 113 24 L 107 15 L 92 0 L 86 1 L 76 11 L 68 22 L 64 32 L 61 35 L 59 35 L 55 32 L 41 26 L 33 24 L 24 24 L 23 27 L 23 49 L 28 67 L 26 69 L 15 69 L 4 71 Z M 170 77 L 171 79 L 162 91 L 149 102 L 141 106 L 135 108 L 130 108 L 126 110 L 112 110 L 110 109 L 110 106 L 116 104 L 130 95 L 143 82 L 146 77 L 151 75 L 164 75 Z M 9 78 L 11 76 L 20 76 L 21 75 L 29 75 L 32 76 L 36 80 L 38 84 L 54 99 L 67 106 L 69 106 L 71 108 L 69 110 L 54 110 L 48 109 L 34 104 L 26 99 L 15 88 L 14 85 L 11 83 Z M 149 31 L 151 33 L 150 50 L 147 61 L 142 71 L 134 82 L 118 95 L 106 99 L 106 97 L 111 91 L 118 77 L 121 65 L 122 42 L 133 36 L 143 32 Z M 30 31 L 45 35 L 53 39 L 60 45 L 60 67 L 61 72 L 67 88 L 75 99 L 73 101 L 64 97 L 51 88 L 38 72 L 32 59 L 29 44 Z M 88 8 L 91 8 L 97 14 L 108 29 L 113 41 L 115 55 L 114 66 L 108 83 L 102 92 L 90 104 L 82 97 L 73 85 L 73 83 L 71 81 L 68 74 L 66 65 L 66 46 L 69 35 L 78 19 Z" fill="currentColor" fill-rule="evenodd"/>
</svg>
