<svg xmlns="http://www.w3.org/2000/svg" width="153" height="338" viewBox="0 0 153 338" role="img" aria-hidden="true">
  <path d="M 79 196 L 71 196 L 62 200 L 53 207 L 38 207 L 33 209 L 30 212 L 27 218 L 25 227 L 19 233 L 12 237 L 8 243 L 8 256 L 11 263 L 11 268 L 8 275 L 7 283 L 10 292 L 24 304 L 29 318 L 35 324 L 40 326 L 55 326 L 66 334 L 75 337 L 82 335 L 94 326 L 108 326 L 114 324 L 121 317 L 124 311 L 124 308 L 126 303 L 140 291 L 143 284 L 143 279 L 139 269 L 139 262 L 143 250 L 142 244 L 140 240 L 125 227 L 122 215 L 116 209 L 108 206 L 95 206 L 84 198 Z M 72 203 L 77 203 L 93 213 L 97 214 L 110 214 L 115 219 L 120 233 L 135 246 L 135 251 L 132 261 L 132 270 L 135 279 L 135 285 L 134 287 L 120 298 L 116 310 L 112 315 L 109 317 L 107 316 L 104 319 L 93 319 L 90 320 L 77 329 L 73 329 L 69 327 L 60 320 L 40 318 L 35 313 L 32 303 L 29 298 L 15 286 L 15 278 L 18 270 L 18 261 L 15 254 L 15 246 L 16 244 L 30 232 L 35 218 L 40 214 L 49 214 L 59 212 Z M 106 244 L 102 243 L 66 282 L 48 265 L 44 266 L 44 271 L 66 292 L 71 288 L 107 248 Z M 62 0 L 62 5 L 64 10 L 70 15 L 68 17 L 57 17 L 49 15 L 38 15 L 35 18 L 35 26 L 38 29 L 57 32 L 61 35 L 61 49 L 56 74 L 53 83 L 53 87 L 54 90 L 57 93 L 63 93 L 68 87 L 73 70 L 76 70 L 81 89 L 85 93 L 90 93 L 95 89 L 96 87 L 96 82 L 91 65 L 88 48 L 89 32 L 109 30 L 115 25 L 116 20 L 114 16 L 103 15 L 93 17 L 85 17 L 83 14 L 87 8 L 88 0 L 81 0 L 82 4 L 77 9 L 72 9 L 68 5 L 68 0 Z M 42 21 L 49 21 L 60 23 L 90 23 L 103 21 L 109 22 L 104 25 L 91 26 L 83 28 L 82 51 L 86 64 L 86 69 L 90 84 L 86 85 L 82 67 L 77 54 L 71 55 L 70 61 L 65 73 L 65 77 L 63 84 L 59 85 L 60 78 L 63 69 L 64 59 L 67 49 L 67 30 L 64 27 L 45 25 L 41 23 Z M 12 0 L 5 14 L 2 23 L 0 34 L 0 49 L 2 62 L 5 71 L 14 87 L 28 102 L 36 108 L 49 114 L 64 118 L 86 118 L 106 112 L 117 106 L 130 95 L 142 79 L 147 68 L 151 54 L 152 47 L 151 29 L 146 13 L 140 2 L 138 0 L 129 0 L 136 9 L 142 24 L 144 34 L 144 51 L 140 66 L 134 78 L 128 86 L 118 96 L 108 103 L 97 108 L 84 111 L 61 110 L 51 107 L 38 100 L 29 93 L 20 83 L 12 69 L 9 60 L 7 48 L 8 29 L 12 16 L 17 6 L 22 0 Z" fill="currentColor" fill-rule="evenodd"/>
</svg>
