<svg xmlns="http://www.w3.org/2000/svg" width="168" height="188" viewBox="0 0 168 188" role="img" aria-hidden="true">
  <path d="M 0 152 L 1 154 L 22 155 L 34 168 L 45 176 L 63 184 L 71 186 L 84 187 L 94 186 L 109 182 L 127 172 L 132 168 L 143 156 L 163 155 L 167 150 L 165 148 L 144 147 L 126 148 L 118 147 L 86 147 L 80 148 L 39 147 L 19 148 L 13 146 L 9 148 L 0 149 Z M 33 157 L 34 155 L 133 157 L 127 163 L 120 168 L 109 174 L 96 178 L 85 179 L 70 178 L 63 175 L 57 174 L 53 172 L 49 168 L 42 165 Z M 80 120 L 79 122 L 79 137 L 82 141 L 84 141 L 87 138 L 86 120 Z M 116 107 L 116 112 L 130 126 L 134 127 L 136 125 L 136 120 L 121 106 Z M 48 106 L 44 106 L 30 120 L 30 125 L 32 127 L 34 127 L 51 109 Z M 129 72 L 129 76 L 131 78 L 154 78 L 157 75 L 156 71 L 154 70 L 131 70 Z M 9 75 L 12 78 L 34 78 L 37 73 L 34 70 L 12 70 L 10 71 Z M 74 36 L 60 43 L 51 53 L 46 65 L 46 81 L 48 88 L 53 97 L 64 107 L 74 111 L 80 112 L 92 111 L 103 106 L 110 101 L 117 91 L 121 78 L 120 64 L 114 51 L 103 41 L 90 36 Z M 75 44 L 86 43 L 98 47 L 109 57 L 113 65 L 114 76 L 110 88 L 100 99 L 93 103 L 89 104 L 79 104 L 69 101 L 57 90 L 53 79 L 53 68 L 57 57 L 59 54 L 67 47 Z M 135 20 L 130 21 L 127 25 L 116 35 L 116 39 L 120 42 L 137 26 L 138 23 Z M 29 21 L 29 26 L 44 41 L 46 42 L 50 39 L 50 36 L 35 21 L 33 20 Z M 85 0 L 80 1 L 79 4 L 80 8 L 79 24 L 81 27 L 84 28 L 87 25 L 87 2 Z" fill="currentColor" fill-rule="evenodd"/>
</svg>
