<svg xmlns="http://www.w3.org/2000/svg" width="108" height="186" viewBox="0 0 108 186" role="img" aria-hidden="true">
  <path d="M 8 130 L 8 136 L 11 139 L 14 140 L 19 139 L 23 142 L 18 145 L 10 144 L 11 151 L 13 152 L 17 152 L 23 150 L 31 145 L 37 143 L 40 140 L 38 138 L 34 138 L 28 136 L 17 129 L 10 129 Z M 32 78 L 32 81 L 35 84 L 43 88 L 54 88 L 62 85 L 66 81 L 65 78 L 61 78 L 55 82 L 44 82 L 35 77 Z M 31 50 L 31 56 L 34 56 L 37 54 L 44 52 L 55 53 L 65 59 L 67 59 L 70 56 L 66 52 L 58 48 L 51 47 L 50 46 L 39 47 Z M 63 0 L 47 1 L 35 6 L 25 15 L 20 23 L 15 38 L 14 46 L 14 66 L 0 101 L 0 108 L 3 112 L 13 117 L 16 117 L 18 115 L 17 111 L 9 108 L 6 105 L 6 102 L 9 97 L 10 92 L 16 80 L 20 69 L 22 38 L 25 29 L 30 20 L 37 13 L 48 8 L 63 7 L 70 9 L 72 11 L 74 11 L 77 13 L 87 23 L 99 46 L 100 50 L 100 70 L 98 78 L 93 88 L 90 101 L 90 114 L 93 124 L 98 134 L 98 143 L 94 153 L 83 164 L 66 173 L 49 178 L 34 178 L 29 176 L 25 172 L 24 166 L 22 164 L 17 165 L 18 172 L 21 178 L 24 181 L 34 185 L 48 185 L 61 182 L 74 177 L 89 168 L 98 159 L 103 150 L 105 141 L 104 131 L 99 121 L 97 114 L 97 99 L 98 94 L 105 79 L 107 69 L 107 51 L 105 43 L 92 18 L 80 6 L 74 3 Z" fill="currentColor" fill-rule="evenodd"/>
</svg>
