<svg xmlns="http://www.w3.org/2000/svg" width="159" height="258" viewBox="0 0 159 258" role="img" aria-hidden="true">
  <path d="M 65 257 L 82 257 L 77 253 L 71 253 Z M 3 107 L 2 118 L 3 149 L 5 151 L 28 151 L 31 148 L 32 115 L 31 114 L 30 106 Z M 23 112 L 25 114 L 25 141 L 22 144 L 9 143 L 10 113 Z M 46 92 L 44 93 L 44 101 L 43 102 L 44 119 L 43 140 L 45 151 L 70 151 L 73 148 L 73 95 L 72 93 Z M 54 99 L 64 99 L 66 101 L 66 142 L 64 144 L 52 145 L 50 143 L 50 102 Z M 85 76 L 85 149 L 87 151 L 111 151 L 114 148 L 114 78 L 113 76 Z M 92 81 L 105 81 L 107 83 L 108 95 L 107 96 L 108 100 L 107 142 L 105 144 L 101 145 L 92 143 L 91 140 L 92 125 L 91 113 Z M 127 53 L 126 55 L 127 124 L 126 148 L 129 151 L 152 151 L 156 147 L 156 55 L 154 53 L 143 52 Z M 134 59 L 147 59 L 149 61 L 149 141 L 146 144 L 135 144 L 133 142 Z M 157 2 L 155 1 L 135 0 L 125 1 L 123 3 L 123 6 L 125 8 L 144 9 L 124 26 L 98 44 L 73 57 L 56 64 L 26 73 L 10 76 L 3 76 L 1 77 L 0 79 L 1 83 L 5 84 L 15 83 L 18 81 L 27 80 L 58 71 L 70 65 L 88 58 L 102 49 L 106 48 L 108 45 L 123 36 L 148 15 L 151 16 L 151 33 L 153 35 L 155 35 L 158 31 Z" fill="currentColor" fill-rule="evenodd"/>
</svg>
