<svg xmlns="http://www.w3.org/2000/svg" width="147" height="172" viewBox="0 0 147 172" role="img" aria-hidden="true">
  <path d="M 56 0 L 54 1 L 53 12 L 54 14 L 67 15 L 69 17 L 69 23 L 67 25 L 56 25 L 33 35 L 26 40 L 16 50 L 9 60 L 4 70 L 0 85 L 0 109 L 5 126 L 9 134 L 15 143 L 31 158 L 48 167 L 64 171 L 86 170 L 101 165 L 111 160 L 118 155 L 132 141 L 141 125 L 146 108 L 146 86 L 142 71 L 136 59 L 128 49 L 128 46 L 131 43 L 133 43 L 135 45 L 138 45 L 140 43 L 140 40 L 129 30 L 124 31 L 124 34 L 127 38 L 122 42 L 119 41 L 113 36 L 103 30 L 94 27 L 79 24 L 76 19 L 77 16 L 82 15 L 88 16 L 93 12 L 93 3 L 89 0 Z M 63 32 L 82 32 L 88 33 L 102 38 L 115 46 L 125 56 L 131 65 L 132 69 L 134 71 L 136 76 L 139 88 L 139 105 L 138 106 L 138 111 L 136 114 L 135 121 L 125 138 L 115 148 L 105 155 L 88 162 L 77 164 L 61 163 L 46 158 L 43 155 L 37 153 L 29 147 L 17 133 L 10 119 L 7 106 L 7 98 L 10 95 L 7 94 L 8 83 L 12 70 L 19 58 L 28 48 L 30 48 L 39 40 L 50 35 Z M 70 145 L 71 158 L 74 158 L 76 156 L 75 145 Z M 121 94 L 122 100 L 131 100 L 134 96 L 132 94 Z M 12 95 L 13 100 L 23 100 L 25 98 L 24 94 Z M 105 62 L 101 62 L 74 90 L 68 91 L 67 93 L 67 100 L 69 103 L 75 104 L 80 99 L 80 93 L 106 66 Z M 70 38 L 70 49 L 73 51 L 76 48 L 76 40 L 74 38 Z M 68 9 L 69 6 L 78 6 L 87 8 L 78 9 L 77 10 Z" fill="currentColor" fill-rule="evenodd"/>
</svg>
