<svg xmlns="http://www.w3.org/2000/svg" width="274" height="269" viewBox="0 0 274 269" role="img" aria-hidden="true">
  <path d="M 0 103 L 0 108 L 2 108 L 3 104 L 2 104 Z M 130 14 L 120 24 L 116 30 L 110 43 L 107 58 L 107 70 L 109 82 L 116 97 L 120 103 L 131 114 L 137 118 L 147 123 L 163 127 L 182 126 L 194 122 L 200 119 L 208 113 L 211 113 L 215 118 L 214 123 L 215 125 L 253 162 L 260 163 L 268 159 L 273 152 L 273 144 L 272 142 L 236 105 L 234 104 L 227 105 L 222 100 L 222 98 L 227 90 L 231 78 L 233 67 L 233 60 L 231 48 L 226 35 L 218 23 L 210 15 L 196 6 L 179 1 L 161 0 L 159 2 L 145 5 Z M 229 111 L 232 111 L 267 146 L 266 151 L 262 155 L 256 156 L 221 122 L 222 118 Z M 215 107 L 217 105 L 219 105 L 222 109 L 216 111 Z M 114 71 L 115 68 L 124 64 L 134 64 L 149 72 L 161 73 L 168 71 L 175 66 L 180 64 L 191 64 L 206 72 L 210 73 L 219 72 L 224 73 L 224 76 L 217 93 L 203 108 L 199 111 L 183 118 L 173 120 L 166 120 L 147 115 L 133 106 L 128 101 L 120 90 L 119 85 L 116 80 Z M 164 92 L 162 94 L 161 99 L 163 103 L 169 104 L 173 100 L 174 97 L 171 93 L 169 92 Z M 197 79 L 193 79 L 191 80 L 189 83 L 190 89 L 194 92 L 197 91 L 201 87 L 201 83 Z M 136 79 L 133 81 L 132 87 L 135 91 L 138 92 L 144 87 L 144 83 L 141 80 Z M 115 51 L 122 34 L 127 27 L 134 20 L 150 11 L 163 8 L 174 8 L 191 12 L 203 19 L 214 30 L 218 36 L 224 51 L 225 58 L 224 63 L 222 65 L 216 67 L 208 66 L 195 59 L 186 57 L 178 58 L 163 66 L 156 67 L 149 65 L 139 59 L 131 57 L 118 59 L 116 61 Z" fill="currentColor" fill-rule="evenodd"/>
</svg>
