<svg xmlns="http://www.w3.org/2000/svg" width="95" height="195" viewBox="0 0 95 195" role="img" aria-hidden="true">
  <path d="M 24 0 L 21 1 L 15 6 L 13 11 L 12 18 L 15 21 L 17 21 L 21 16 L 21 12 L 24 9 L 29 8 L 31 10 L 31 28 L 28 31 L 25 31 L 21 36 L 21 52 L 18 55 L 9 57 L 4 62 L 1 69 L 0 155 L 1 158 L 0 174 L 1 180 L 5 188 L 14 194 L 79 194 L 84 192 L 91 185 L 94 177 L 94 71 L 91 64 L 87 59 L 84 57 L 75 55 L 73 53 L 73 37 L 69 32 L 65 31 L 63 29 L 64 9 L 83 8 L 85 6 L 85 1 Z M 82 64 L 86 69 L 87 72 L 87 177 L 85 181 L 81 185 L 77 187 L 17 187 L 14 186 L 8 179 L 8 70 L 10 66 L 15 62 L 69 61 L 78 62 Z M 45 95 L 29 120 L 27 125 L 26 134 L 29 143 L 34 149 L 42 153 L 52 153 L 57 151 L 65 143 L 68 135 L 68 128 L 66 122 L 52 99 L 48 95 Z M 46 106 L 48 106 L 51 109 L 56 117 L 62 131 L 60 139 L 54 145 L 49 147 L 45 147 L 40 145 L 35 141 L 33 137 L 33 127 L 43 109 Z M 29 37 L 39 38 L 65 37 L 67 39 L 67 51 L 64 54 L 33 54 L 28 50 Z M 54 8 L 56 10 L 57 28 L 54 31 L 39 31 L 37 29 L 38 9 Z" fill="currentColor" fill-rule="evenodd"/>
</svg>
