<svg xmlns="http://www.w3.org/2000/svg" width="148" height="177" viewBox="0 0 148 177" role="img" aria-hidden="true">
  <path d="M 136 0 L 131 1 L 128 4 L 102 19 L 89 29 L 75 43 L 63 62 L 58 77 L 57 94 L 55 96 L 45 87 L 33 80 L 14 73 L 6 71 L 0 71 L 1 85 L 3 91 L 3 101 L 8 119 L 10 121 L 13 129 L 15 132 L 30 146 L 42 152 L 50 154 L 56 157 L 58 159 L 61 166 L 60 172 L 61 174 L 64 176 L 68 172 L 70 162 L 75 154 L 83 146 L 91 140 L 106 133 L 115 127 L 123 120 L 135 106 L 141 94 L 146 74 L 147 52 L 145 47 L 144 37 L 139 15 L 139 4 Z M 8 79 L 15 80 L 33 87 L 45 95 L 55 105 L 60 114 L 60 118 L 62 119 L 66 132 L 66 142 L 64 146 L 66 150 L 64 152 L 49 122 L 42 115 L 33 103 L 29 100 L 25 101 L 25 104 L 43 125 L 55 147 L 53 149 L 38 143 L 30 138 L 20 128 L 13 115 L 11 108 L 7 82 Z M 131 10 L 133 12 L 133 17 L 138 39 L 140 56 L 139 76 L 135 91 L 126 107 L 113 120 L 98 130 L 82 138 L 76 144 L 75 141 L 77 137 L 77 134 L 85 113 L 97 99 L 110 91 L 112 88 L 110 86 L 106 86 L 94 94 L 93 91 L 106 65 L 115 52 L 116 48 L 114 46 L 112 46 L 100 62 L 99 66 L 86 90 L 79 107 L 74 124 L 71 127 L 64 106 L 63 98 L 64 81 L 68 67 L 75 54 L 83 44 L 92 35 L 114 19 L 127 11 Z" fill="currentColor" fill-rule="evenodd"/>
</svg>
