<svg xmlns="http://www.w3.org/2000/svg" width="139" height="135" viewBox="0 0 139 135" role="img" aria-hidden="true">
  <path d="M 12 17 L 7 24 L 2 36 L 0 46 L 2 65 L 7 76 L 11 82 L 20 91 L 26 95 L 41 101 L 59 101 L 63 100 L 77 94 L 84 88 L 86 88 L 94 95 L 95 100 L 129 133 L 132 134 L 134 133 L 138 128 L 137 126 L 122 110 L 111 101 L 102 91 L 98 90 L 91 83 L 91 81 L 97 72 L 100 64 L 101 59 L 101 40 L 97 29 L 89 17 L 83 11 L 76 6 L 70 3 L 59 0 L 42 0 L 37 1 L 23 7 Z M 42 7 L 58 7 L 68 10 L 75 14 L 85 23 L 92 35 L 95 48 L 94 59 L 91 68 L 86 76 L 76 86 L 65 92 L 59 94 L 44 94 L 39 93 L 30 89 L 27 86 L 25 86 L 13 73 L 10 66 L 10 63 L 8 60 L 7 52 L 8 40 L 14 26 L 23 16 L 35 9 Z" fill="currentColor" fill-rule="evenodd"/>
</svg>
