<svg xmlns="http://www.w3.org/2000/svg" width="148" height="147" viewBox="0 0 148 147" role="img" aria-hidden="true">
  <path d="M 63 0 L 52 2 L 39 7 L 28 14 L 15 27 L 9 36 L 3 50 L 0 65 L 0 80 L 4 98 L 11 112 L 15 118 L 28 131 L 37 137 L 53 144 L 63 146 L 80 146 L 92 144 L 109 137 L 118 131 L 129 120 L 135 112 L 142 98 L 146 84 L 147 69 L 143 49 L 135 32 L 119 15 L 107 7 L 90 1 L 83 0 Z M 63 7 L 82 7 L 92 9 L 106 15 L 115 21 L 126 32 L 132 41 L 139 59 L 140 77 L 138 89 L 136 95 L 128 110 L 114 125 L 104 132 L 83 139 L 64 139 L 58 138 L 46 134 L 34 127 L 24 118 L 18 110 L 11 96 L 7 80 L 7 66 L 10 52 L 16 38 L 21 31 L 32 20 L 41 14 L 54 9 Z M 75 22 L 66 24 L 62 28 L 60 33 L 60 38 L 62 43 L 69 49 L 67 51 L 61 51 L 60 50 L 44 48 L 36 48 L 34 49 L 33 51 L 33 58 L 36 61 L 58 64 L 60 66 L 61 81 L 49 114 L 50 120 L 55 124 L 58 123 L 62 119 L 72 95 L 75 96 L 81 113 L 86 122 L 92 123 L 97 118 L 97 114 L 92 102 L 91 96 L 88 90 L 86 82 L 87 64 L 110 61 L 114 57 L 114 52 L 109 48 L 100 48 L 93 50 L 81 51 L 79 48 L 85 42 L 86 32 L 81 25 Z M 51 55 L 90 55 L 97 56 L 95 58 L 89 58 L 82 60 L 81 86 L 92 115 L 90 117 L 86 111 L 83 101 L 76 86 L 72 85 L 69 87 L 65 95 L 64 101 L 60 111 L 56 117 L 55 113 L 66 83 L 66 63 L 63 59 L 57 59 L 50 57 Z M 98 56 L 99 54 L 105 55 L 103 57 Z M 39 55 L 40 53 L 49 55 L 47 57 L 43 57 Z M 69 29 L 76 29 L 80 33 L 80 38 L 79 40 L 74 44 L 70 43 L 66 38 L 66 33 Z" fill="currentColor" fill-rule="evenodd"/>
</svg>
