<svg xmlns="http://www.w3.org/2000/svg" width="152" height="254" viewBox="0 0 152 254" role="img" aria-hidden="true">
  <path d="M 138 143 L 128 133 L 116 125 L 99 118 L 82 115 L 68 115 L 49 119 L 41 122 L 25 131 L 13 143 L 8 150 L 3 161 L 1 169 L 0 184 L 3 198 L 9 210 L 17 220 L 17 224 L 14 233 L 7 246 L 8 250 L 12 253 L 21 251 L 37 245 L 45 240 L 48 240 L 54 243 L 64 245 L 87 245 L 93 244 L 113 237 L 127 228 L 138 217 L 143 210 L 148 200 L 151 189 L 151 171 L 150 166 L 144 152 Z M 134 149 L 138 155 L 144 171 L 144 189 L 140 201 L 136 208 L 122 223 L 115 228 L 103 234 L 87 238 L 65 238 L 55 236 L 48 233 L 44 233 L 27 242 L 18 244 L 17 242 L 19 240 L 23 227 L 24 218 L 18 211 L 10 197 L 7 183 L 7 174 L 10 162 L 15 152 L 20 145 L 31 135 L 44 128 L 56 124 L 72 122 L 89 123 L 98 125 L 113 131 L 122 137 Z M 73 209 L 71 210 L 71 216 L 74 219 L 76 219 L 80 215 L 79 210 Z M 81 142 L 71 142 L 63 145 L 59 148 L 57 151 L 54 160 L 54 165 L 55 167 L 58 168 L 61 164 L 61 157 L 66 151 L 74 148 L 81 149 L 85 151 L 90 157 L 91 164 L 89 170 L 75 183 L 73 187 L 74 200 L 76 200 L 79 197 L 80 187 L 93 175 L 97 167 L 97 158 L 95 153 L 89 146 Z M 38 8 L 39 13 L 46 12 L 57 8 L 62 8 L 73 13 L 88 13 L 101 8 L 111 0 L 101 0 L 95 4 L 85 7 L 72 6 L 64 2 L 56 2 L 49 5 L 46 4 L 47 0 L 41 0 Z M 10 0 L 13 7 L 21 19 L 36 33 L 54 43 L 71 47 L 87 47 L 107 42 L 119 36 L 136 22 L 145 10 L 150 0 L 141 1 L 139 6 L 134 13 L 121 26 L 114 31 L 97 38 L 86 40 L 74 40 L 62 38 L 44 30 L 38 26 L 29 17 L 21 7 L 18 2 L 18 0 Z" fill="currentColor" fill-rule="evenodd"/>
</svg>
