<svg xmlns="http://www.w3.org/2000/svg" width="153" height="146" viewBox="0 0 153 146" role="img" aria-hidden="true">
  <path d="M 39 38 L 35 44 L 34 49 L 35 61 L 44 80 L 53 92 L 68 107 L 88 119 L 91 120 L 103 120 L 110 117 L 117 109 L 119 105 L 119 100 L 116 97 L 102 88 L 94 88 L 88 93 L 84 92 L 69 79 L 61 67 L 61 62 L 67 56 L 68 51 L 58 34 L 53 31 L 50 31 L 45 33 Z M 48 38 L 53 37 L 62 50 L 62 54 L 57 58 L 55 65 L 56 66 L 56 69 L 64 81 L 76 93 L 86 99 L 89 99 L 96 93 L 100 93 L 111 100 L 114 104 L 107 112 L 100 115 L 94 115 L 88 113 L 73 104 L 63 95 L 55 86 L 47 74 L 40 58 L 40 47 Z M 37 9 L 26 17 L 13 31 L 5 46 L 2 54 L 0 64 L 0 88 L 1 94 L 8 112 L 16 124 L 29 137 L 36 142 L 42 145 L 70 145 L 58 144 L 47 140 L 33 131 L 20 118 L 11 102 L 7 88 L 7 64 L 12 47 L 22 31 L 32 21 L 43 14 L 56 9 L 66 7 L 84 7 L 98 10 L 111 16 L 120 22 L 129 31 L 135 39 L 141 51 L 145 66 L 145 85 L 143 94 L 139 105 L 131 118 L 118 131 L 111 136 L 106 137 L 104 140 L 89 145 L 82 145 L 109 145 L 115 142 L 122 137 L 137 122 L 145 109 L 151 91 L 152 85 L 152 67 L 151 60 L 143 38 L 135 27 L 120 13 L 110 7 L 97 2 L 87 0 L 64 0 L 51 3 Z" fill="currentColor" fill-rule="evenodd"/>
</svg>
