<svg xmlns="http://www.w3.org/2000/svg" width="271" height="218" viewBox="0 0 271 218" role="img" aria-hidden="true">
  <path d="M 266 148 L 266 152 L 270 156 L 270 148 Z M 134 79 L 129 79 L 118 83 L 107 85 L 90 91 L 74 101 L 65 110 L 59 120 L 54 137 L 54 151 L 55 158 L 58 166 L 58 170 L 53 182 L 50 186 L 48 184 L 48 167 L 46 160 L 42 153 L 34 145 L 24 139 L 19 137 L 16 137 L 13 135 L 7 134 L 0 135 L 1 155 L 3 163 L 6 169 L 15 179 L 21 183 L 34 187 L 42 186 L 45 189 L 49 197 L 48 214 L 51 217 L 54 214 L 55 196 L 59 181 L 61 179 L 79 179 L 97 175 L 106 171 L 113 166 L 126 152 L 131 143 L 135 131 L 137 120 L 137 84 Z M 8 140 L 25 146 L 37 157 L 42 168 L 42 178 L 39 181 L 27 179 L 21 176 L 13 168 L 9 161 L 6 149 Z M 129 86 L 131 88 L 132 94 L 131 120 L 127 136 L 119 151 L 108 162 L 96 169 L 78 173 L 66 173 L 64 170 L 76 150 L 89 134 L 108 117 L 107 114 L 102 114 L 98 117 L 79 136 L 66 155 L 61 157 L 60 152 L 61 133 L 63 126 L 70 114 L 79 105 L 92 97 L 109 91 Z M 16 0 L 22 5 L 39 5 L 41 7 L 43 21 L 51 14 L 55 14 L 60 19 L 64 21 L 66 19 L 67 5 L 126 5 L 128 3 L 128 0 L 60 0 L 60 7 L 58 9 L 55 7 L 51 7 L 47 10 L 46 0 Z" fill="currentColor" fill-rule="evenodd"/>
</svg>
