<svg xmlns="http://www.w3.org/2000/svg" width="145" height="248" viewBox="0 0 145 248" role="img" aria-hidden="true">
  <path d="M 12 247 L 30 247 L 28 247 L 25 244 L 25 242 L 36 233 L 47 228 L 50 230 L 48 232 L 41 247 L 48 247 L 51 239 L 57 230 L 65 225 L 67 227 L 66 247 L 73 247 L 72 229 L 73 227 L 76 226 L 80 229 L 86 236 L 91 247 L 98 247 L 89 228 L 96 230 L 109 238 L 114 244 L 109 247 L 126 247 L 112 232 L 103 226 L 94 222 L 77 218 L 60 218 L 41 223 L 25 233 Z M 62 0 L 52 2 L 35 9 L 25 16 L 12 30 L 2 52 L 0 62 L 0 84 L 3 97 L 9 110 L 15 119 L 27 131 L 36 137 L 53 144 L 65 146 L 78 146 L 92 143 L 106 137 L 115 131 L 129 117 L 135 108 L 141 95 L 144 80 L 144 65 L 143 59 L 141 57 L 136 57 L 133 59 L 129 59 L 125 57 L 119 49 L 116 49 L 112 51 L 106 49 L 102 45 L 101 35 L 104 28 L 102 26 L 94 23 L 91 20 L 90 17 L 90 10 L 92 6 L 91 3 L 81 0 Z M 63 7 L 78 7 L 84 9 L 84 18 L 86 23 L 96 32 L 95 43 L 97 48 L 101 53 L 106 56 L 116 56 L 122 62 L 129 65 L 135 64 L 137 66 L 137 81 L 135 90 L 128 106 L 123 113 L 112 124 L 104 130 L 88 137 L 76 139 L 66 139 L 55 137 L 40 131 L 30 124 L 21 115 L 13 103 L 9 94 L 6 80 L 6 66 L 8 56 L 15 39 L 22 29 L 30 21 L 39 15 L 47 11 Z M 57 100 L 54 101 L 50 106 L 50 112 L 55 118 L 59 119 L 63 118 L 67 114 L 69 109 L 66 103 L 63 101 Z M 57 106 L 61 106 L 63 108 L 63 110 L 60 113 L 58 113 L 55 110 L 55 108 Z M 97 85 L 95 90 L 96 96 L 100 100 L 106 100 L 108 99 L 112 94 L 112 89 L 111 87 L 107 84 L 99 84 Z M 102 88 L 104 88 L 107 92 L 102 94 L 101 92 Z M 75 62 L 74 64 L 74 69 L 78 74 L 84 74 L 87 71 L 88 65 L 82 60 L 79 60 Z M 33 60 L 29 65 L 29 72 L 33 77 L 35 78 L 41 78 L 47 71 L 48 68 L 47 65 L 44 61 L 40 59 Z M 34 70 L 35 66 L 40 66 L 42 69 L 39 72 L 36 72 Z M 60 26 L 55 30 L 55 36 L 58 41 L 60 42 L 65 42 L 69 39 L 71 33 L 68 28 L 64 26 Z M 61 32 L 65 34 L 62 37 L 60 35 Z" fill="currentColor" fill-rule="evenodd"/>
</svg>
