<svg xmlns="http://www.w3.org/2000/svg" width="142" height="273" viewBox="0 0 142 273" role="img" aria-hidden="true">
  <path d="M 10 116 L 8 118 L 6 123 L 6 245 L 8 250 L 15 256 L 32 256 L 34 258 L 36 272 L 44 265 L 48 265 L 53 270 L 57 272 L 59 270 L 60 256 L 119 256 L 121 254 L 121 251 L 117 247 L 116 240 L 117 236 L 120 233 L 122 228 L 122 123 L 120 118 L 114 114 L 15 114 Z M 40 247 L 51 247 L 53 249 L 53 258 L 51 260 L 48 258 L 44 258 L 40 261 Z M 12 241 L 13 239 L 16 237 L 37 238 L 110 238 L 111 248 L 109 250 L 61 250 L 59 248 L 59 243 L 57 241 L 47 240 L 39 241 L 38 240 L 34 241 L 33 248 L 31 250 L 17 250 L 13 247 Z M 34 120 L 103 121 L 112 120 L 116 124 L 116 227 L 113 230 L 97 231 L 34 230 L 33 131 Z M 26 120 L 28 122 L 28 227 L 25 230 L 12 231 L 12 126 L 15 121 L 18 120 Z M 28 0 L 30 4 L 37 11 L 40 13 L 47 15 L 92 15 L 97 14 L 105 10 L 109 6 L 112 0 L 105 0 L 100 6 L 92 9 L 48 9 L 43 7 L 35 0 Z M 0 0 L 10 17 L 25 32 L 40 41 L 48 44 L 63 47 L 78 47 L 98 42 L 112 35 L 129 20 L 138 7 L 141 0 L 133 0 L 131 5 L 125 14 L 115 24 L 105 31 L 88 38 L 76 40 L 63 40 L 47 36 L 38 32 L 29 26 L 26 22 L 23 21 L 19 17 L 11 6 L 9 1 Z" fill="currentColor" fill-rule="evenodd"/>
</svg>
