<svg xmlns="http://www.w3.org/2000/svg" width="150" height="217" viewBox="0 0 150 217" role="img" aria-hidden="true">
  <path d="M 27 85 L 16 91 L 9 98 L 2 111 L 0 126 L 1 134 L 4 144 L 8 152 L 20 168 L 49 197 L 56 202 L 72 216 L 76 216 L 85 210 L 115 183 L 138 157 L 145 145 L 149 132 L 149 118 L 147 110 L 142 101 L 134 92 L 128 88 L 119 84 L 107 83 L 95 85 L 88 88 L 74 99 L 64 90 L 54 85 L 45 83 L 37 83 Z M 30 92 L 34 91 L 47 91 L 54 93 L 61 97 L 71 108 L 75 111 L 77 110 L 80 105 L 91 95 L 102 91 L 113 91 L 121 93 L 128 97 L 134 103 L 140 113 L 142 121 L 142 130 L 139 140 L 130 155 L 121 166 L 113 173 L 98 189 L 90 196 L 86 198 L 77 207 L 74 208 L 35 173 L 18 154 L 9 137 L 8 132 L 8 118 L 11 109 L 14 104 L 22 96 Z M 36 0 L 48 6 L 57 9 L 69 11 L 89 10 L 103 6 L 115 0 L 96 0 L 93 2 L 81 4 L 63 3 L 55 0 Z" fill="currentColor" fill-rule="evenodd"/>
</svg>
