<svg xmlns="http://www.w3.org/2000/svg" width="143" height="209" viewBox="0 0 143 209" role="img" aria-hidden="true">
  <path d="M 103 130 L 99 134 L 96 141 L 96 150 L 99 157 L 103 161 L 110 164 L 108 166 L 102 166 L 92 171 L 88 176 L 86 183 L 86 201 L 87 204 L 92 208 L 134 208 L 138 206 L 142 200 L 141 182 L 139 177 L 133 170 L 119 163 L 125 160 L 131 152 L 132 148 L 131 138 L 125 131 L 120 128 L 109 128 Z M 95 177 L 100 173 L 108 171 L 117 171 L 126 173 L 129 175 L 134 181 L 135 184 L 135 198 L 132 201 L 129 202 L 94 202 L 92 200 L 92 184 Z M 110 134 L 116 134 L 121 136 L 126 143 L 126 148 L 120 156 L 116 158 L 110 158 L 108 157 L 104 153 L 102 149 L 102 143 L 104 138 Z M 19 129 L 12 135 L 9 143 L 9 148 L 12 156 L 17 161 L 24 164 L 22 166 L 12 167 L 6 171 L 2 176 L 0 182 L 0 202 L 5 208 L 48 208 L 53 204 L 55 200 L 55 185 L 54 180 L 51 175 L 45 169 L 33 163 L 37 161 L 44 153 L 45 150 L 45 140 L 43 136 L 38 131 L 31 128 Z M 47 180 L 49 187 L 49 199 L 46 202 L 8 202 L 6 200 L 6 184 L 8 178 L 12 174 L 16 172 L 31 171 L 38 172 L 43 175 Z M 23 134 L 31 134 L 33 135 L 39 142 L 39 149 L 38 151 L 30 158 L 23 158 L 17 153 L 15 148 L 16 140 Z M 99 84 L 93 80 L 84 76 L 79 75 L 60 75 L 49 78 L 42 82 L 36 89 L 33 96 L 33 106 L 34 110 L 37 115 L 42 120 L 48 123 L 51 126 L 51 137 L 53 139 L 61 134 L 69 126 L 81 126 L 91 123 L 97 119 L 103 113 L 107 102 L 105 93 Z M 39 98 L 43 90 L 46 87 L 54 83 L 58 82 L 80 82 L 89 85 L 98 93 L 100 97 L 100 105 L 98 109 L 89 117 L 79 120 L 67 120 L 58 128 L 55 119 L 47 116 L 41 110 L 39 105 Z M 34 0 L 46 6 L 63 10 L 80 10 L 96 6 L 109 0 L 88 0 L 75 3 L 66 3 L 54 0 Z" fill="currentColor" fill-rule="evenodd"/>
</svg>
