<svg xmlns="http://www.w3.org/2000/svg" width="149" height="210" viewBox="0 0 149 210" role="img" aria-hidden="true">
  <path d="M 122 202 L 116 202 L 107 206 L 103 209 L 116 208 L 123 209 Z M 77 1 L 71 1 L 62 15 L 56 29 L 53 47 L 54 63 L 56 71 L 61 83 L 71 95 L 69 97 L 63 97 L 56 79 L 45 68 L 34 60 L 30 58 L 14 55 L 2 55 L 0 56 L 0 60 L 6 76 L 14 89 L 19 95 L 32 105 L 45 109 L 61 110 L 68 116 L 71 120 L 71 122 L 74 124 L 77 121 L 80 115 L 85 110 L 96 110 L 110 107 L 123 100 L 133 90 L 141 78 L 141 76 L 143 74 L 148 60 L 147 55 L 122 56 L 118 59 L 110 62 L 103 68 L 100 69 L 100 71 L 94 77 L 89 86 L 86 89 L 85 85 L 90 77 L 95 60 L 95 43 L 90 24 L 86 15 Z M 70 103 L 72 105 L 72 108 L 70 110 L 67 106 Z M 79 94 L 84 100 L 82 106 L 78 110 Z M 140 64 L 137 73 L 128 87 L 120 95 L 112 100 L 100 104 L 91 104 L 89 102 L 91 94 L 95 86 L 103 75 L 111 68 L 128 61 Z M 8 61 L 19 61 L 23 62 L 36 68 L 40 71 L 51 83 L 58 96 L 59 102 L 57 104 L 44 103 L 32 98 L 25 93 L 15 81 L 9 69 Z M 73 9 L 76 10 L 79 14 L 85 26 L 89 41 L 89 61 L 87 69 L 83 78 L 78 84 L 76 82 L 77 66 L 76 55 L 72 55 L 72 80 L 69 84 L 67 82 L 62 72 L 59 60 L 59 41 L 63 26 L 69 14 Z" fill="currentColor" fill-rule="evenodd"/>
</svg>
