<svg xmlns="http://www.w3.org/2000/svg" width="78" height="240" viewBox="0 0 78 240" role="img" aria-hidden="true">
  <path d="M 12 239 L 50 239 L 41 236 L 34 236 L 29 239 L 27 237 L 22 236 Z M 54 0 L 45 0 L 43 1 L 37 8 L 35 20 L 37 26 L 42 32 L 41 40 L 38 44 L 36 42 L 35 38 L 31 32 L 25 28 L 16 28 L 11 32 L 9 37 L 10 46 L 14 53 L 20 58 L 24 60 L 32 61 L 35 65 L 34 79 L 32 81 L 25 71 L 21 68 L 14 65 L 5 66 L 1 70 L 0 73 L 0 81 L 4 89 L 9 94 L 20 99 L 28 98 L 33 103 L 33 111 L 30 114 L 25 114 L 17 110 L 8 110 L 3 112 L 0 118 L 0 122 L 2 128 L 7 134 L 17 139 L 34 138 L 38 142 L 44 162 L 47 164 L 49 162 L 49 159 L 42 141 L 39 126 L 40 116 L 53 117 L 67 112 L 76 100 L 76 91 L 73 85 L 66 82 L 60 82 L 50 86 L 47 88 L 39 99 L 38 83 L 40 68 L 44 65 L 50 67 L 59 67 L 65 65 L 76 55 L 77 52 L 77 45 L 75 41 L 71 38 L 68 37 L 59 37 L 54 39 L 49 43 L 47 39 L 48 33 L 53 32 L 59 27 L 63 20 L 64 15 L 62 6 L 57 1 Z M 33 117 L 34 119 L 32 121 L 30 119 Z M 7 116 L 9 115 L 17 115 L 21 117 L 29 125 L 30 131 L 28 133 L 19 134 L 14 132 L 9 128 L 6 124 Z M 71 92 L 71 97 L 69 101 L 61 109 L 56 111 L 45 111 L 43 109 L 43 104 L 47 96 L 52 91 L 58 88 L 66 88 Z M 6 72 L 15 71 L 19 73 L 25 79 L 27 83 L 28 92 L 26 94 L 19 93 L 17 91 L 14 91 L 7 84 L 5 80 L 5 74 Z M 48 45 L 45 48 L 44 45 Z M 72 47 L 70 53 L 61 61 L 51 62 L 47 59 L 47 56 L 49 51 L 55 45 L 61 42 L 66 42 Z M 17 34 L 22 33 L 30 39 L 33 45 L 33 53 L 26 55 L 22 53 L 17 48 L 15 44 L 15 36 Z M 47 5 L 53 5 L 59 12 L 59 16 L 57 21 L 50 28 L 48 25 L 44 26 L 41 22 L 41 13 L 43 8 Z" fill="currentColor" fill-rule="evenodd"/>
</svg>
