<svg xmlns="http://www.w3.org/2000/svg" width="228" height="149" viewBox="0 0 228 149" role="img" aria-hidden="true">
  <path d="M 223 66 L 223 71 L 227 81 L 227 66 Z M 60 0 L 57 0 L 55 2 L 50 11 L 47 14 L 43 23 L 42 28 L 43 41 L 48 51 L 47 83 L 45 98 L 43 100 L 39 93 L 38 80 L 32 66 L 29 65 L 16 56 L 5 53 L 0 54 L 5 68 L 7 78 L 11 85 L 19 92 L 25 95 L 34 95 L 39 101 L 42 112 L 39 123 L 32 137 L 27 143 L 27 146 L 29 148 L 35 141 L 44 125 L 52 117 L 57 114 L 65 114 L 70 116 L 80 116 L 87 114 L 92 111 L 101 101 L 113 90 L 111 88 L 101 85 L 82 85 L 69 91 L 61 100 L 59 106 L 55 110 L 47 113 L 47 108 L 50 97 L 51 86 L 58 76 L 63 72 L 79 72 L 89 68 L 100 56 L 109 41 L 105 40 L 90 40 L 82 42 L 74 46 L 65 56 L 62 62 L 61 67 L 52 76 L 51 66 L 53 52 L 61 44 L 63 41 L 63 39 L 65 37 L 66 33 L 66 22 L 62 10 Z M 103 91 L 103 93 L 86 109 L 80 111 L 70 111 L 66 110 L 64 108 L 64 104 L 66 101 L 75 93 L 79 91 L 89 89 L 97 89 Z M 9 60 L 12 60 L 24 66 L 32 76 L 34 83 L 34 88 L 32 90 L 24 89 L 18 86 L 15 83 L 14 79 L 10 73 L 8 65 Z M 101 46 L 97 51 L 96 54 L 86 64 L 79 67 L 73 68 L 68 67 L 67 63 L 68 60 L 75 51 L 88 45 Z M 57 9 L 59 11 L 62 23 L 61 34 L 58 40 L 55 43 L 54 40 L 51 40 L 51 42 L 49 44 L 47 40 L 47 26 L 52 14 L 55 10 Z" fill="currentColor" fill-rule="evenodd"/>
</svg>
