<svg xmlns="http://www.w3.org/2000/svg" width="224" height="240" viewBox="0 0 224 240" role="img" aria-hidden="true">
  <path d="M 223 186 L 221 187 L 221 193 L 222 194 L 223 196 Z M 221 121 L 220 123 L 220 129 L 223 138 L 223 121 Z M 101 78 L 99 78 L 88 83 L 82 87 L 75 94 L 72 100 L 70 110 L 65 117 L 65 105 L 63 97 L 59 88 L 56 88 L 54 92 L 52 101 L 52 110 L 54 118 L 57 123 L 57 127 L 56 131 L 51 139 L 50 134 L 51 126 L 50 121 L 45 107 L 42 104 L 40 104 L 37 117 L 37 127 L 39 134 L 45 146 L 43 148 L 42 154 L 37 162 L 36 159 L 37 153 L 40 151 L 37 147 L 35 136 L 31 131 L 28 124 L 24 124 L 23 130 L 23 148 L 28 160 L 31 163 L 32 172 L 29 179 L 27 181 L 25 167 L 20 157 L 14 149 L 10 149 L 10 170 L 13 177 L 21 189 L 21 196 L 19 201 L 17 203 L 15 192 L 12 186 L 6 177 L 3 174 L 0 174 L 0 192 L 1 196 L 6 206 L 11 211 L 13 215 L 13 218 L 8 233 L 8 237 L 10 239 L 13 236 L 17 220 L 21 217 L 40 217 L 51 213 L 56 210 L 57 206 L 44 203 L 33 204 L 24 209 L 23 204 L 26 199 L 28 199 L 32 196 L 40 198 L 56 197 L 66 192 L 72 187 L 70 185 L 60 183 L 43 183 L 37 186 L 31 191 L 30 187 L 33 180 L 35 178 L 41 175 L 50 175 L 57 176 L 58 177 L 69 176 L 80 171 L 87 165 L 82 162 L 61 160 L 53 162 L 49 164 L 45 168 L 40 169 L 40 167 L 45 158 L 53 153 L 78 154 L 93 145 L 94 141 L 86 139 L 67 139 L 52 146 L 59 135 L 65 132 L 80 133 L 84 132 L 92 128 L 101 116 L 85 116 L 79 117 L 73 120 L 68 121 L 73 115 L 82 111 L 94 100 L 103 80 Z M 32 210 L 34 208 L 47 209 L 45 211 L 41 212 L 33 212 Z M 61 189 L 57 192 L 52 193 L 48 192 L 45 194 L 39 192 L 40 189 L 50 187 Z M 6 185 L 8 187 L 11 194 L 8 200 L 4 190 Z M 51 169 L 53 167 L 59 165 L 71 165 L 77 167 L 75 169 L 66 172 L 59 171 L 54 172 L 52 171 Z M 17 161 L 21 170 L 21 174 L 22 175 L 22 178 L 20 180 L 18 178 L 14 165 Z M 61 149 L 62 146 L 70 143 L 85 144 L 82 147 L 73 150 Z M 30 137 L 31 143 L 33 147 L 33 153 L 31 155 L 28 150 L 27 144 Z M 91 122 L 85 127 L 81 127 L 76 129 L 74 128 L 73 126 L 75 124 L 82 121 Z M 45 118 L 47 126 L 46 130 L 47 133 L 45 135 L 42 130 Z M 60 101 L 60 112 L 58 114 Z M 92 86 L 94 89 L 94 91 L 89 98 L 80 107 L 78 108 L 75 107 L 78 98 L 87 89 Z M 23 0 L 17 0 L 14 3 L 12 7 L 12 10 L 14 12 L 18 8 Z" fill="currentColor" fill-rule="evenodd"/>
</svg>
