<svg xmlns="http://www.w3.org/2000/svg" width="93" height="157" viewBox="0 0 93 157" role="img" aria-hidden="true">
  <path d="M 92 0 L 83 0 L 79 4 L 64 26 L 61 35 L 59 37 L 58 34 L 61 25 L 62 5 L 60 3 L 57 3 L 52 23 L 50 55 L 47 63 L 44 66 L 43 62 L 44 39 L 43 32 L 40 24 L 36 23 L 34 28 L 34 47 L 36 65 L 38 72 L 38 82 L 35 90 L 32 93 L 28 66 L 23 55 L 21 53 L 18 54 L 19 74 L 24 94 L 27 100 L 27 108 L 24 115 L 22 117 L 20 112 L 19 101 L 11 84 L 9 82 L 5 82 L 5 88 L 7 97 L 17 122 L 18 129 L 15 132 L 9 118 L 3 111 L 0 111 L 0 116 L 11 137 L 12 142 L 8 150 L 8 154 L 10 156 L 13 153 L 16 145 L 19 142 L 41 135 L 45 133 L 49 129 L 47 127 L 40 127 L 27 131 L 23 134 L 23 130 L 26 129 L 26 127 L 28 125 L 37 121 L 42 120 L 60 111 L 63 105 L 52 105 L 37 110 L 38 104 L 61 91 L 64 91 L 69 85 L 81 76 L 81 72 L 71 73 L 52 84 L 39 96 L 38 93 L 39 90 L 45 80 L 59 66 L 64 63 L 77 51 L 92 34 L 91 30 L 88 30 L 73 39 L 57 56 L 56 53 L 61 44 L 65 40 L 67 36 L 89 7 Z M 65 82 L 66 80 L 69 81 Z" fill="currentColor" fill-rule="evenodd"/>
</svg>
