<svg xmlns="http://www.w3.org/2000/svg" width="96" height="240" viewBox="0 0 96 240" role="img" aria-hidden="true">
  <path d="M 41 75 L 38 77 L 37 80 L 34 83 L 30 82 L 27 86 L 27 91 L 30 98 L 38 105 L 38 108 L 40 111 L 35 125 L 33 150 L 31 152 L 28 148 L 28 138 L 25 130 L 17 123 L 8 120 L 1 121 L 0 123 L 0 129 L 3 138 L 10 145 L 18 149 L 24 150 L 29 156 L 35 169 L 43 204 L 39 207 L 36 203 L 36 200 L 33 194 L 29 190 L 21 185 L 17 184 L 4 185 L 2 186 L 1 193 L 4 198 L 14 207 L 20 209 L 34 209 L 42 217 L 45 225 L 44 237 L 47 239 L 50 235 L 49 208 L 48 202 L 46 198 L 45 188 L 50 173 L 55 167 L 67 167 L 77 164 L 91 151 L 95 144 L 94 139 L 89 137 L 75 137 L 66 140 L 63 142 L 56 150 L 53 158 L 53 162 L 49 166 L 45 172 L 45 174 L 42 177 L 40 171 L 38 157 L 38 137 L 41 122 L 44 115 L 49 111 L 63 112 L 69 109 L 72 105 L 72 103 L 70 100 L 70 97 L 73 92 L 70 87 L 65 87 L 63 85 L 63 80 L 60 77 L 56 76 L 49 79 L 46 76 Z M 7 189 L 18 189 L 24 192 L 27 195 L 25 197 L 21 195 L 17 195 L 19 201 L 24 202 L 21 204 L 15 202 L 6 193 Z M 74 155 L 74 158 L 71 161 L 68 162 L 62 160 L 66 156 L 70 154 Z M 88 144 L 87 148 L 80 156 L 77 157 L 75 155 L 76 148 L 72 148 L 65 152 L 60 153 L 64 148 L 74 142 L 86 142 Z M 7 125 L 12 126 L 19 131 L 20 133 L 18 135 L 14 132 L 12 132 L 12 135 L 15 137 L 19 142 L 17 144 L 15 143 L 6 133 L 5 130 Z M 55 104 L 59 103 L 66 104 L 61 108 L 58 108 Z M 42 105 L 42 102 L 44 100 L 49 102 L 46 105 Z M 67 93 L 64 96 L 57 99 L 56 96 L 60 92 L 65 91 Z M 33 88 L 35 88 L 38 91 L 40 97 L 37 99 L 33 94 L 32 91 Z M 57 81 L 59 83 L 59 85 L 57 89 L 51 95 L 50 88 L 52 84 L 55 81 Z M 42 81 L 44 81 L 47 85 L 46 89 L 43 91 L 41 89 Z M 16 0 L 9 0 L 4 5 L 3 10 L 6 12 Z" fill="currentColor" fill-rule="evenodd"/>
</svg>
