<svg xmlns="http://www.w3.org/2000/svg" width="102" height="164" viewBox="0 0 102 164" role="img" aria-hidden="true">
  <path d="M 95 0 L 88 1 L 77 7 L 68 14 L 63 20 L 57 34 L 56 39 L 56 52 L 49 63 L 48 50 L 45 39 L 33 21 L 29 20 L 26 36 L 26 49 L 31 63 L 41 73 L 41 81 L 32 103 L 29 114 L 27 116 L 26 111 L 27 99 L 24 89 L 17 79 L 12 74 L 4 68 L 0 68 L 0 86 L 4 99 L 10 108 L 18 115 L 20 115 L 23 118 L 25 126 L 24 132 L 22 135 L 19 153 L 21 163 L 24 160 L 25 146 L 28 139 L 32 136 L 39 136 L 52 132 L 61 125 L 71 112 L 70 109 L 58 109 L 46 112 L 40 116 L 31 127 L 30 124 L 32 120 L 32 117 L 40 97 L 50 88 L 68 89 L 79 85 L 89 77 L 101 63 L 101 61 L 99 59 L 80 59 L 69 62 L 63 65 L 52 76 L 50 82 L 47 85 L 46 82 L 60 54 L 74 47 L 87 33 L 91 24 L 94 13 Z M 62 115 L 62 117 L 55 124 L 49 128 L 38 131 L 36 128 L 42 121 L 48 117 L 58 114 Z M 6 79 L 9 79 L 15 84 L 19 91 L 19 94 L 21 97 L 22 103 L 18 109 L 13 104 L 8 96 L 5 84 Z M 92 66 L 80 78 L 73 82 L 67 84 L 57 84 L 55 81 L 66 69 L 72 66 L 79 64 Z M 34 31 L 38 36 L 43 47 L 44 52 L 43 55 L 44 58 L 43 64 L 41 66 L 34 58 L 32 54 L 31 49 L 31 35 Z M 88 7 L 90 9 L 86 24 L 82 31 L 73 41 L 63 47 L 61 45 L 61 38 L 66 25 L 77 13 Z" fill="currentColor" fill-rule="evenodd"/>
</svg>
