<svg xmlns="http://www.w3.org/2000/svg" width="107" height="157" viewBox="0 0 107 157" role="img" aria-hidden="true">
  <path d="M 104 0 L 100 0 L 94 5 L 90 6 L 80 13 L 68 19 L 54 28 L 38 42 L 27 56 L 20 69 L 16 79 L 14 89 L 14 118 L 16 127 L 14 133 L 8 142 L 0 151 L 0 154 L 3 156 L 19 136 L 21 136 L 23 134 L 28 132 L 36 131 L 46 128 L 61 121 L 75 111 L 82 104 L 93 89 L 99 74 L 103 53 L 103 30 L 104 13 L 106 2 Z M 99 11 L 98 43 L 96 61 L 93 74 L 88 86 L 85 89 L 82 95 L 66 111 L 60 115 L 51 118 L 48 121 L 41 124 L 25 127 L 25 125 L 40 101 L 49 84 L 52 81 L 63 63 L 67 59 L 71 52 L 87 31 L 86 28 L 83 28 L 80 31 L 53 68 L 36 95 L 29 109 L 25 114 L 23 120 L 21 122 L 19 111 L 19 91 L 24 74 L 29 64 L 39 50 L 53 36 L 74 22 L 76 22 L 95 10 Z" fill="currentColor" fill-rule="evenodd"/>
</svg>
