<svg xmlns="http://www.w3.org/2000/svg" width="136" height="157" viewBox="0 0 136 157" role="img" aria-hidden="true">
  <path d="M 134 0 L 130 0 L 116 4 L 99 15 L 90 28 L 87 36 L 86 43 L 72 58 L 71 54 L 74 51 L 79 39 L 79 23 L 73 9 L 68 3 L 66 3 L 63 9 L 58 26 L 58 38 L 61 46 L 66 54 L 66 63 L 63 70 L 59 75 L 52 81 L 52 84 L 49 87 L 47 80 L 49 73 L 49 62 L 46 51 L 34 34 L 31 35 L 27 51 L 27 70 L 30 79 L 38 90 L 37 101 L 33 108 L 23 120 L 19 108 L 19 105 L 22 100 L 22 95 L 20 90 L 15 86 L 7 86 L 1 91 L 0 98 L 2 104 L 9 109 L 13 109 L 15 111 L 18 119 L 18 128 L 3 152 L 5 156 L 9 152 L 22 130 L 25 127 L 31 125 L 42 126 L 44 128 L 43 134 L 45 138 L 49 142 L 56 143 L 59 142 L 64 138 L 66 133 L 65 127 L 60 122 L 56 120 L 52 120 L 47 123 L 42 122 L 40 119 L 38 118 L 36 120 L 36 116 L 40 115 L 42 113 L 55 109 L 63 109 L 68 113 L 68 116 L 72 121 L 82 122 L 87 119 L 91 111 L 89 106 L 82 100 L 74 100 L 69 104 L 54 105 L 45 108 L 41 107 L 41 104 L 55 88 L 57 88 L 63 84 L 73 83 L 88 88 L 99 87 L 105 85 L 115 79 L 127 64 L 113 60 L 95 60 L 83 65 L 65 80 L 62 78 L 86 50 L 90 47 L 98 46 L 108 43 L 114 39 L 123 30 L 127 24 L 135 4 Z M 48 134 L 51 131 L 53 131 L 57 136 L 55 138 L 53 138 Z M 52 128 L 53 126 L 58 128 L 56 130 L 54 130 Z M 73 110 L 79 112 L 81 115 L 79 117 L 76 117 L 72 113 Z M 14 91 L 17 94 L 18 98 L 15 102 L 12 104 L 9 104 L 6 101 L 7 98 L 10 96 L 11 91 Z M 83 82 L 82 78 L 110 72 L 112 69 L 91 71 L 84 74 L 82 71 L 87 68 L 97 65 L 110 65 L 120 68 L 111 76 L 99 82 Z M 35 43 L 38 46 L 44 59 L 45 65 L 45 71 L 42 74 L 40 67 L 39 56 L 35 55 L 38 72 L 38 77 L 36 79 L 32 71 L 32 49 Z M 66 32 L 67 41 L 65 43 L 63 39 Z M 70 12 L 75 27 L 75 37 L 74 42 L 72 44 L 70 20 L 66 16 L 66 13 Z M 129 7 L 129 9 L 122 23 L 112 34 L 107 34 L 108 36 L 99 41 L 96 39 L 100 34 L 102 34 L 103 36 L 105 35 L 102 34 L 103 32 L 111 27 L 113 27 L 110 26 L 112 23 L 118 18 L 115 17 L 112 18 L 108 22 L 104 24 L 95 34 L 94 30 L 95 28 L 107 15 L 120 8 L 126 6 Z" fill="currentColor" fill-rule="evenodd"/>
</svg>
