<svg xmlns="http://www.w3.org/2000/svg" width="121" height="225" viewBox="0 0 121 225" role="img" aria-hidden="true">
  <path d="M 62 210 L 58 210 L 53 214 L 44 224 L 50 224 L 56 217 L 60 218 L 60 224 L 64 224 L 64 216 Z M 111 4 L 105 1 L 100 0 L 91 1 L 84 6 L 81 11 L 80 15 L 81 23 L 83 26 L 87 29 L 92 30 L 99 25 L 100 21 L 97 17 L 94 17 L 94 22 L 92 24 L 89 24 L 86 21 L 85 15 L 87 10 L 92 6 L 98 5 L 106 7 L 112 13 L 114 17 L 114 26 L 112 32 L 107 40 L 96 50 L 77 61 L 63 67 L 51 75 L 46 80 L 45 76 L 46 74 L 50 72 L 50 69 L 52 66 L 52 52 L 46 41 L 37 32 L 35 31 L 32 32 L 26 45 L 25 58 L 28 67 L 40 78 L 40 85 L 30 100 L 27 107 L 25 109 L 23 103 L 23 99 L 15 88 L 5 84 L 0 85 L 0 101 L 2 106 L 9 114 L 13 116 L 16 116 L 19 119 L 20 123 L 17 129 L 14 142 L 14 147 L 16 149 L 19 146 L 21 134 L 26 119 L 30 112 L 38 105 L 45 102 L 54 102 L 57 103 L 62 108 L 63 115 L 58 121 L 53 121 L 52 114 L 48 114 L 47 116 L 47 121 L 48 123 L 54 127 L 57 127 L 61 125 L 67 119 L 68 109 L 67 106 L 62 100 L 55 97 L 46 97 L 39 100 L 38 97 L 42 91 L 45 89 L 55 78 L 61 74 L 73 68 L 78 67 L 86 67 L 92 69 L 100 76 L 101 79 L 100 88 L 95 93 L 89 94 L 86 91 L 87 87 L 86 84 L 83 84 L 81 86 L 81 93 L 85 98 L 88 99 L 95 99 L 104 91 L 106 86 L 106 77 L 105 74 L 102 70 L 95 64 L 95 62 L 90 60 L 102 52 L 112 42 L 115 38 L 118 31 L 120 21 L 118 12 Z M 6 89 L 13 93 L 18 100 L 16 102 L 11 97 L 9 97 L 9 101 L 11 103 L 10 108 L 7 106 L 4 97 Z M 36 38 L 42 43 L 45 47 L 48 54 L 47 64 L 44 69 L 41 53 L 39 51 L 36 51 L 40 69 L 38 71 L 33 66 L 30 60 L 31 44 L 33 40 Z" fill="currentColor" fill-rule="evenodd"/>
</svg>
