<svg xmlns="http://www.w3.org/2000/svg" width="104" height="151" viewBox="0 0 104 151" role="img" aria-hidden="true">
  <path d="M 79 2 L 73 2 L 70 5 L 70 13 L 61 27 L 58 12 L 61 8 L 61 4 L 59 0 L 50 0 L 48 1 L 47 3 L 47 7 L 49 11 L 54 16 L 56 22 L 57 36 L 53 55 L 43 79 L 39 80 L 39 75 L 36 67 L 35 56 L 35 38 L 39 34 L 40 31 L 39 27 L 36 24 L 30 24 L 28 25 L 26 28 L 26 34 L 31 40 L 31 55 L 29 57 L 22 51 L 19 44 L 16 41 L 11 40 L 7 43 L 7 50 L 8 52 L 12 55 L 17 54 L 24 59 L 30 66 L 34 75 L 35 95 L 25 114 L 19 121 L 18 109 L 15 100 L 15 98 L 19 92 L 14 86 L 8 86 L 5 88 L 4 90 L 4 95 L 7 99 L 12 102 L 13 107 L 13 125 L 10 134 L 0 145 L 1 150 L 3 149 L 17 134 L 20 128 L 30 115 L 48 104 L 59 104 L 65 106 L 71 113 L 76 113 L 80 108 L 80 104 L 78 101 L 76 100 L 71 100 L 67 102 L 60 100 L 58 98 L 58 96 L 64 91 L 82 85 L 84 85 L 87 88 L 91 89 L 96 85 L 97 81 L 93 76 L 85 77 L 82 81 L 80 82 L 76 82 L 75 83 L 71 82 L 73 75 L 78 73 L 81 70 L 81 65 L 78 61 L 73 60 L 71 61 L 68 65 L 68 68 L 70 73 L 63 85 L 44 101 L 37 103 L 37 101 L 45 87 L 47 80 L 53 67 L 58 60 L 73 46 L 84 41 L 97 42 L 103 37 L 102 31 L 99 28 L 94 28 L 90 31 L 90 33 L 87 36 L 84 36 L 81 38 L 80 34 L 84 33 L 86 31 L 87 27 L 83 22 L 78 22 L 76 23 L 75 25 L 76 32 L 72 41 L 60 51 L 59 48 L 61 38 L 68 23 L 72 17 L 79 15 L 83 10 L 83 7 Z M 75 104 L 77 106 L 73 110 L 71 108 L 72 104 Z M 88 83 L 89 79 L 91 79 L 93 81 Z M 73 64 L 75 64 L 77 67 L 74 70 L 72 68 Z M 11 49 L 12 45 L 14 45 L 16 47 Z M 95 32 L 97 32 L 99 35 L 96 38 L 94 36 Z M 33 28 L 36 31 L 34 33 L 33 31 L 31 30 Z M 77 6 L 79 9 L 75 12 L 73 10 L 74 6 Z M 55 3 L 57 6 L 53 9 L 51 7 L 52 3 Z" fill="currentColor" fill-rule="evenodd"/>
</svg>
