<svg xmlns="http://www.w3.org/2000/svg" width="127" height="227" viewBox="0 0 127 227" role="img" aria-hidden="true">
  <path d="M 124 100 L 119 100 L 98 106 L 86 112 L 72 123 L 61 138 L 57 147 L 54 159 L 53 179 L 51 184 L 47 189 L 44 182 L 45 156 L 38 136 L 28 122 L 17 112 L 4 105 L 1 106 L 0 114 L 1 132 L 5 147 L 12 160 L 26 174 L 36 180 L 40 185 L 42 194 L 42 208 L 38 220 L 38 224 L 41 226 L 44 223 L 50 199 L 55 187 L 58 184 L 69 182 L 81 178 L 89 174 L 96 169 L 106 159 L 114 146 L 120 130 L 122 121 L 122 116 L 126 104 L 126 102 Z M 7 114 L 9 114 L 17 120 L 27 130 L 36 146 L 39 157 L 40 170 L 39 172 L 36 174 L 28 168 L 18 158 L 10 144 L 6 123 Z M 118 108 L 118 112 L 113 133 L 110 141 L 103 153 L 95 162 L 87 168 L 75 174 L 64 177 L 62 174 L 68 164 L 79 151 L 86 144 L 94 138 L 98 133 L 96 131 L 94 131 L 79 143 L 71 151 L 60 166 L 59 162 L 63 148 L 67 140 L 70 137 L 74 130 L 80 124 L 95 114 L 107 109 L 114 108 L 115 107 Z M 22 0 L 16 0 L 14 2 L 11 8 L 13 12 L 17 8 L 18 5 Z" fill="currentColor" fill-rule="evenodd"/>
</svg>
