<svg xmlns="http://www.w3.org/2000/svg" width="91" height="479" viewBox="0 0 91 479" role="img" aria-hidden="true">
  <path d="M 40 0 L 35 1 L 31 14 L 31 33 L 33 41 L 39 53 L 44 60 L 44 72 L 40 96 L 32 122 L 29 126 L 29 134 L 27 136 L 27 128 L 25 126 L 25 122 L 23 116 L 14 101 L 7 94 L 1 93 L 1 101 L 0 102 L 0 116 L 4 129 L 8 136 L 21 149 L 24 157 L 24 184 L 27 201 L 33 224 L 37 231 L 38 237 L 43 249 L 41 253 L 35 247 L 28 242 L 27 234 L 23 229 L 19 227 L 10 227 L 6 229 L 4 233 L 4 242 L 5 245 L 10 250 L 13 251 L 20 250 L 26 246 L 29 248 L 42 261 L 46 267 L 50 275 L 52 288 L 53 317 L 51 319 L 52 329 L 51 330 L 51 335 L 49 337 L 47 333 L 49 322 L 47 321 L 47 315 L 43 303 L 36 293 L 22 280 L 17 280 L 18 301 L 22 314 L 26 323 L 44 339 L 47 350 L 47 361 L 43 379 L 40 387 L 39 395 L 35 401 L 32 398 L 31 392 L 24 380 L 17 373 L 13 373 L 13 377 L 12 378 L 12 393 L 14 402 L 20 412 L 28 421 L 29 425 L 29 430 L 25 443 L 22 464 L 22 475 L 23 477 L 27 478 L 30 475 L 30 463 L 32 448 L 43 408 L 47 401 L 57 389 L 67 385 L 78 375 L 82 369 L 87 358 L 90 344 L 90 339 L 88 337 L 86 337 L 72 346 L 60 360 L 57 366 L 54 377 L 52 379 L 51 376 L 52 375 L 52 371 L 54 366 L 58 345 L 60 329 L 60 316 L 63 303 L 69 294 L 72 293 L 82 294 L 88 288 L 88 280 L 86 277 L 82 274 L 75 273 L 71 275 L 68 279 L 68 289 L 61 298 L 59 290 L 58 275 L 51 250 L 51 238 L 53 226 L 63 215 L 67 209 L 69 203 L 71 201 L 74 190 L 74 168 L 72 158 L 70 156 L 67 156 L 55 170 L 49 182 L 45 196 L 45 215 L 47 221 L 47 228 L 45 230 L 43 227 L 41 218 L 36 206 L 34 195 L 34 180 L 36 169 L 40 158 L 48 143 L 55 135 L 57 135 L 60 137 L 67 137 L 70 135 L 74 130 L 74 124 L 73 122 L 66 116 L 60 116 L 56 118 L 53 123 L 53 131 L 44 141 L 35 158 L 33 160 L 32 156 L 34 142 L 43 113 L 48 107 L 49 104 L 55 98 L 58 98 L 66 94 L 77 84 L 82 75 L 85 65 L 84 58 L 79 58 L 66 65 L 62 68 L 58 73 L 54 80 L 53 85 L 50 89 L 49 84 L 51 75 L 51 57 L 55 47 L 56 33 L 52 17 L 44 4 Z M 19 383 L 23 387 L 28 398 L 28 401 L 25 403 L 26 406 L 23 408 L 20 403 L 17 394 Z M 53 381 L 53 385 L 50 388 L 49 384 Z M 84 347 L 82 357 L 79 364 L 68 378 L 63 379 L 64 375 L 67 372 L 73 361 L 67 366 L 61 375 L 60 372 L 64 363 L 68 357 L 76 349 L 81 346 Z M 26 296 L 27 300 L 30 304 L 37 326 L 31 320 L 26 312 L 23 300 Z M 28 292 L 34 298 L 39 306 L 43 317 L 41 319 L 27 295 Z M 80 278 L 82 280 L 82 283 L 77 287 L 74 283 L 75 278 Z M 18 231 L 20 234 L 19 236 L 13 241 L 9 237 L 9 234 L 12 231 Z M 65 166 L 68 167 L 69 170 L 69 187 L 67 196 L 64 203 L 56 215 L 55 211 L 57 207 L 61 192 L 61 188 L 64 180 L 61 180 L 54 200 L 53 207 L 51 209 L 50 198 L 51 191 L 58 175 Z M 69 124 L 65 128 L 60 129 L 58 127 L 58 123 L 62 120 L 66 121 Z M 5 102 L 8 102 L 15 111 L 20 122 L 21 129 L 19 131 L 16 125 L 15 120 L 11 115 L 16 133 L 15 136 L 11 131 L 6 121 L 4 111 L 4 104 Z M 77 65 L 79 67 L 79 69 L 74 79 L 67 87 L 62 90 L 61 87 L 68 79 L 65 78 L 58 87 L 57 84 L 59 80 L 69 69 Z M 38 9 L 42 9 L 44 12 L 49 24 L 51 35 L 51 41 L 48 46 L 45 31 L 42 25 L 45 47 L 43 49 L 41 47 L 36 35 L 36 15 Z" fill="currentColor" fill-rule="evenodd"/>
</svg>
