<svg xmlns="http://www.w3.org/2000/svg" width="102" height="480" viewBox="0 0 102 480" role="img" aria-hidden="true">
  <path d="M 40 0 L 29 5 L 25 9 L 20 21 L 20 32 L 22 38 L 29 46 L 35 48 L 41 47 L 45 45 L 49 40 L 50 37 L 50 33 L 48 29 L 46 28 L 43 29 L 43 36 L 40 39 L 35 40 L 29 35 L 28 32 L 28 20 L 31 15 L 35 11 L 42 8 L 48 8 L 56 11 L 65 21 L 67 25 L 70 37 L 70 53 L 67 71 L 65 77 L 63 79 L 63 83 L 61 88 L 59 90 L 56 83 L 56 81 L 59 77 L 58 72 L 54 69 L 49 69 L 47 70 L 45 74 L 46 80 L 48 82 L 51 82 L 53 84 L 54 98 L 53 105 L 47 118 L 40 129 L 40 131 L 38 133 L 36 139 L 33 142 L 32 138 L 35 129 L 35 113 L 33 104 L 25 90 L 17 80 L 14 78 L 11 78 L 9 86 L 9 110 L 13 124 L 18 132 L 27 143 L 27 150 L 28 151 L 28 157 L 24 166 L 19 187 L 18 218 L 21 234 L 25 249 L 27 252 L 27 255 L 31 264 L 33 273 L 38 282 L 39 287 L 43 294 L 50 311 L 48 313 L 45 310 L 43 302 L 39 295 L 39 292 L 28 279 L 27 276 L 25 276 L 13 267 L 5 263 L 0 264 L 6 289 L 11 297 L 19 305 L 25 309 L 35 313 L 41 314 L 57 331 L 63 348 L 63 351 L 61 353 L 51 348 L 46 347 L 39 347 L 32 349 L 24 354 L 20 361 L 18 368 L 19 381 L 22 387 L 26 391 L 31 394 L 39 394 L 43 392 L 47 388 L 49 384 L 49 378 L 46 375 L 42 375 L 43 382 L 38 387 L 34 387 L 28 383 L 25 374 L 26 367 L 30 360 L 34 357 L 39 355 L 48 355 L 53 357 L 62 365 L 67 375 L 69 385 L 68 407 L 61 429 L 57 438 L 51 447 L 44 463 L 42 475 L 44 479 L 47 479 L 50 475 L 53 461 L 69 431 L 74 417 L 77 401 L 77 379 L 75 368 L 76 359 L 80 344 L 88 335 L 94 325 L 98 311 L 98 295 L 92 275 L 88 274 L 81 284 L 72 305 L 71 324 L 74 340 L 74 347 L 72 349 L 70 346 L 69 339 L 65 331 L 61 317 L 57 309 L 55 301 L 55 281 L 57 268 L 62 256 L 70 255 L 74 253 L 79 248 L 80 242 L 79 239 L 75 235 L 71 233 L 66 233 L 59 238 L 58 240 L 58 246 L 60 250 L 56 257 L 53 266 L 52 274 L 50 278 L 50 285 L 48 287 L 42 274 L 41 267 L 37 255 L 36 247 L 36 226 L 38 211 L 41 205 L 43 196 L 48 186 L 53 179 L 61 173 L 67 171 L 77 172 L 81 174 L 85 178 L 87 183 L 86 193 L 84 197 L 79 202 L 72 202 L 69 199 L 70 191 L 64 192 L 63 194 L 63 202 L 69 209 L 78 210 L 85 207 L 91 201 L 94 195 L 95 184 L 92 174 L 84 166 L 76 163 L 66 163 L 55 167 L 47 174 L 37 191 L 32 207 L 30 225 L 28 227 L 26 214 L 26 194 L 29 177 L 34 160 L 56 116 L 68 99 L 77 89 L 83 84 L 85 84 L 88 86 L 93 86 L 95 85 L 100 80 L 101 75 L 99 70 L 94 66 L 87 66 L 85 67 L 82 71 L 81 74 L 82 79 L 70 90 L 69 87 L 72 81 L 75 70 L 78 50 L 78 38 L 76 27 L 70 13 L 65 7 L 59 3 L 51 0 Z M 90 284 L 93 295 L 93 311 L 90 321 L 86 329 L 83 332 L 82 327 L 85 316 L 85 310 L 87 304 L 87 297 L 85 298 L 83 313 L 79 327 L 77 329 L 76 311 L 80 297 L 86 285 Z M 8 270 L 19 277 L 30 288 L 34 294 L 34 298 L 32 298 L 17 284 L 17 286 L 34 304 L 32 306 L 24 302 L 17 296 L 17 294 L 12 288 L 8 280 L 6 272 Z M 65 241 L 66 238 L 72 238 L 75 242 L 72 245 L 69 246 Z M 17 88 L 26 101 L 26 105 L 29 109 L 31 117 L 31 123 L 29 125 L 27 122 L 23 109 L 24 105 L 20 103 L 25 128 L 23 130 L 18 123 L 14 112 L 13 106 L 13 94 Z M 88 71 L 92 71 L 94 74 L 90 78 L 87 75 Z" fill="currentColor" fill-rule="evenodd"/>
</svg>
