<svg xmlns="http://www.w3.org/2000/svg" width="114" height="491" viewBox="0 0 114 491" role="img" aria-hidden="true">
  <path d="M 67 0 L 54 0 L 45 4 L 38 12 L 35 21 L 35 32 L 39 41 L 47 48 L 51 49 L 58 48 L 62 46 L 66 42 L 68 38 L 68 30 L 65 27 L 61 27 L 62 34 L 61 36 L 56 41 L 51 41 L 49 40 L 43 33 L 43 21 L 46 15 L 51 10 L 57 8 L 65 8 L 72 12 L 81 22 L 84 30 L 87 46 L 86 73 L 84 84 L 81 88 L 75 76 L 76 69 L 75 65 L 71 60 L 69 59 L 62 59 L 58 62 L 56 67 L 57 74 L 59 77 L 63 79 L 71 78 L 73 80 L 77 94 L 76 100 L 77 106 L 76 107 L 76 110 L 69 127 L 66 131 L 65 126 L 66 109 L 64 100 L 61 96 L 61 94 L 53 83 L 46 76 L 42 76 L 42 86 L 41 87 L 42 111 L 44 118 L 48 126 L 57 137 L 58 148 L 56 155 L 50 167 L 49 172 L 46 177 L 45 184 L 41 195 L 38 215 L 38 250 L 36 252 L 28 237 L 21 231 L 18 227 L 9 221 L 6 222 L 6 231 L 8 243 L 13 256 L 17 262 L 26 271 L 33 274 L 40 282 L 44 289 L 45 293 L 48 297 L 51 310 L 54 317 L 51 319 L 44 306 L 33 296 L 25 292 L 18 290 L 0 290 L 0 294 L 10 310 L 20 319 L 34 324 L 40 325 L 48 324 L 59 336 L 65 354 L 66 360 L 64 362 L 57 357 L 49 354 L 41 354 L 32 358 L 28 363 L 25 374 L 26 383 L 28 387 L 36 394 L 44 394 L 51 388 L 52 382 L 51 380 L 46 380 L 46 384 L 42 388 L 38 387 L 33 381 L 33 371 L 35 367 L 39 363 L 41 362 L 50 362 L 54 364 L 62 372 L 65 377 L 69 389 L 70 408 L 68 427 L 65 440 L 60 454 L 58 456 L 54 466 L 50 473 L 46 477 L 46 479 L 42 483 L 43 490 L 47 490 L 50 487 L 60 472 L 67 458 L 73 441 L 76 427 L 77 412 L 87 392 L 103 377 L 107 371 L 111 361 L 113 352 L 113 340 L 111 327 L 108 320 L 105 320 L 92 336 L 85 351 L 82 368 L 83 384 L 82 389 L 78 395 L 76 372 L 74 366 L 74 359 L 69 339 L 69 314 L 71 310 L 71 306 L 73 304 L 76 304 L 81 299 L 82 295 L 81 293 L 75 288 L 71 288 L 68 290 L 66 293 L 66 301 L 68 303 L 65 311 L 65 316 L 63 318 L 61 316 L 54 292 L 54 288 L 52 284 L 52 278 L 57 263 L 59 263 L 64 268 L 69 268 L 73 264 L 73 260 L 71 256 L 67 254 L 64 254 L 65 256 L 63 258 L 61 258 L 59 255 L 62 252 L 63 248 L 67 241 L 75 236 L 85 226 L 93 212 L 96 198 L 96 183 L 94 172 L 91 165 L 87 165 L 82 172 L 75 179 L 75 181 L 67 194 L 62 210 L 62 238 L 57 248 L 50 254 L 47 253 L 45 237 L 47 205 L 52 185 L 65 152 L 69 147 L 69 144 L 77 129 L 85 110 L 91 91 L 95 68 L 95 43 L 91 24 L 83 10 L 78 5 Z M 106 330 L 108 338 L 108 353 L 107 357 L 101 371 L 93 380 L 92 377 L 95 372 L 99 358 L 99 354 L 101 350 L 101 347 L 99 348 L 98 354 L 92 366 L 91 371 L 88 375 L 87 367 L 88 359 L 91 349 L 99 334 L 102 330 Z M 8 295 L 20 296 L 32 302 L 38 307 L 38 311 L 36 311 L 33 308 L 26 306 L 24 304 L 21 304 L 22 306 L 32 311 L 40 317 L 38 319 L 32 318 L 25 315 L 20 311 L 18 311 L 7 297 Z M 72 292 L 74 292 L 76 294 L 76 296 L 74 298 L 71 295 Z M 41 265 L 42 271 L 40 273 L 38 269 Z M 13 230 L 22 238 L 30 250 L 31 253 L 29 255 L 25 250 L 22 248 L 23 247 L 21 246 L 24 251 L 26 258 L 28 260 L 27 264 L 19 256 L 16 251 L 12 237 Z M 88 174 L 90 176 L 91 182 L 91 200 L 89 208 L 83 220 L 74 229 L 73 226 L 79 212 L 86 187 L 83 185 L 82 193 L 70 223 L 67 226 L 66 223 L 69 202 L 75 189 L 83 177 L 86 174 Z M 65 131 L 66 134 L 64 136 L 63 133 Z M 56 99 L 59 102 L 61 108 L 62 119 L 60 121 L 57 115 L 56 105 L 54 103 Z M 49 87 L 56 96 L 52 106 L 56 118 L 56 123 L 54 125 L 50 119 L 46 104 L 46 91 Z M 61 66 L 63 64 L 68 64 L 70 66 L 70 68 L 67 71 L 63 71 L 61 69 Z" fill="currentColor" fill-rule="evenodd"/>
</svg>
