<svg xmlns="http://www.w3.org/2000/svg" width="118" height="490" viewBox="0 0 118 490" role="img" aria-hidden="true">
  <path d="M 64 0 L 59 1 L 54 19 L 52 34 L 53 41 L 51 56 L 53 59 L 52 66 L 53 72 L 51 74 L 50 66 L 47 56 L 38 41 L 26 28 L 22 28 L 21 31 L 21 50 L 26 67 L 34 78 L 48 88 L 56 103 L 57 119 L 60 134 L 63 164 L 61 166 L 57 158 L 58 153 L 56 152 L 53 137 L 44 124 L 45 117 L 41 113 L 34 113 L 27 119 L 24 117 L 19 116 L 11 117 L 10 119 L 11 128 L 16 141 L 23 149 L 35 158 L 39 159 L 41 161 L 48 164 L 53 165 L 58 173 L 63 188 L 64 198 L 61 234 L 58 241 L 55 236 L 55 232 L 53 226 L 46 213 L 34 201 L 32 200 L 29 201 L 28 218 L 31 234 L 37 245 L 50 257 L 53 268 L 53 278 L 51 282 L 44 312 L 42 328 L 40 330 L 39 348 L 37 350 L 35 347 L 36 328 L 33 314 L 28 304 L 19 292 L 10 284 L 6 284 L 4 299 L 4 309 L 8 325 L 12 333 L 25 347 L 28 348 L 31 351 L 37 367 L 38 399 L 42 424 L 40 426 L 33 412 L 24 404 L 9 396 L 0 395 L 0 401 L 2 408 L 11 421 L 20 429 L 30 433 L 37 434 L 47 447 L 49 457 L 55 475 L 58 480 L 59 485 L 61 488 L 64 489 L 68 485 L 68 483 L 63 473 L 63 470 L 59 461 L 57 452 L 55 449 L 51 432 L 51 421 L 56 407 L 72 397 L 78 391 L 83 384 L 89 369 L 91 359 L 92 342 L 90 340 L 87 340 L 71 351 L 64 358 L 56 370 L 51 388 L 51 406 L 48 409 L 45 391 L 46 353 L 48 341 L 50 335 L 58 321 L 70 312 L 80 307 L 83 307 L 90 303 L 93 303 L 97 307 L 102 309 L 109 308 L 113 305 L 116 300 L 117 296 L 115 290 L 110 285 L 100 284 L 93 290 L 92 296 L 89 299 L 81 301 L 65 310 L 64 308 L 71 295 L 82 282 L 85 280 L 90 280 L 94 282 L 97 282 L 101 280 L 107 273 L 108 269 L 107 264 L 99 257 L 91 257 L 88 258 L 84 263 L 83 266 L 84 274 L 75 282 L 59 304 L 56 313 L 54 315 L 53 310 L 55 305 L 57 292 L 60 284 L 60 279 L 63 270 L 68 240 L 73 231 L 77 227 L 87 223 L 99 212 L 106 200 L 110 187 L 110 181 L 104 181 L 90 188 L 82 195 L 77 203 L 77 205 L 75 207 L 74 213 L 72 215 L 71 198 L 72 177 L 70 151 L 68 143 L 68 131 L 71 121 L 83 113 L 94 100 L 98 92 L 101 82 L 102 65 L 100 63 L 94 65 L 87 70 L 77 80 L 70 93 L 68 99 L 68 104 L 65 107 L 62 90 L 60 54 L 62 23 L 64 12 L 67 5 L 67 3 Z M 8 402 L 17 405 L 25 412 L 22 414 L 19 412 L 17 412 L 18 415 L 28 424 L 26 426 L 20 422 L 11 413 L 7 405 Z M 86 350 L 85 363 L 83 371 L 78 382 L 67 394 L 61 396 L 61 394 L 78 363 L 76 362 L 73 365 L 73 367 L 70 372 L 64 378 L 59 389 L 57 391 L 56 388 L 57 387 L 57 383 L 62 370 L 67 363 L 79 351 L 82 349 Z M 21 331 L 23 331 L 25 333 L 26 336 L 24 338 L 20 333 Z M 12 293 L 22 304 L 28 315 L 31 330 L 29 332 L 19 310 L 17 309 L 17 307 L 16 308 L 21 322 L 20 326 L 16 326 L 12 321 L 9 303 L 9 297 Z M 97 295 L 100 290 L 102 289 L 107 289 L 112 294 L 112 297 L 110 299 L 99 300 L 97 298 Z M 99 262 L 102 265 L 102 268 L 94 275 L 92 275 L 88 271 L 88 267 L 90 263 L 92 262 Z M 58 251 L 58 253 L 56 255 Z M 73 218 L 73 220 L 71 222 Z M 42 217 L 46 222 L 50 231 L 51 237 L 49 239 L 47 236 L 47 233 L 43 227 L 41 220 Z M 36 215 L 37 221 L 41 228 L 46 242 L 43 244 L 38 237 L 35 230 L 33 219 Z M 104 190 L 102 197 L 96 208 L 83 219 L 82 216 L 93 202 L 93 200 L 89 201 L 82 210 L 81 206 L 85 200 L 96 190 L 100 188 Z M 17 121 L 23 122 L 28 126 L 34 128 L 40 127 L 43 130 L 47 136 L 51 148 L 49 150 L 39 138 L 35 138 L 35 141 L 38 143 L 49 156 L 47 158 L 40 154 L 37 151 L 30 148 L 24 142 L 17 131 L 16 128 Z M 36 116 L 38 116 L 40 119 L 37 122 L 35 122 L 33 119 Z M 54 78 L 54 83 L 52 85 Z M 95 71 L 97 73 L 96 80 L 90 97 L 77 111 L 76 108 L 78 103 L 88 86 L 86 86 L 84 88 L 82 93 L 74 103 L 73 100 L 75 94 L 82 82 L 89 75 Z M 30 49 L 30 51 L 37 65 L 36 71 L 31 64 L 27 53 Z M 35 46 L 37 48 L 43 60 L 40 62 L 34 49 Z" fill="currentColor" fill-rule="evenodd"/>
</svg>
