<svg xmlns="http://www.w3.org/2000/svg" width="119" height="495" viewBox="0 0 119 495" role="img" aria-hidden="true">
  <path d="M 81 0 L 77 0 L 73 4 L 68 12 L 61 33 L 60 58 L 57 61 L 56 53 L 52 40 L 46 30 L 42 25 L 29 13 L 27 12 L 24 13 L 24 42 L 26 50 L 28 52 L 29 56 L 33 63 L 43 73 L 49 76 L 52 79 L 56 87 L 60 100 L 60 116 L 58 126 L 58 139 L 55 160 L 54 181 L 52 183 L 49 176 L 50 157 L 49 151 L 46 142 L 42 135 L 35 126 L 21 113 L 15 112 L 15 117 L 14 118 L 14 133 L 16 147 L 24 164 L 34 174 L 45 181 L 53 204 L 53 238 L 56 262 L 56 267 L 54 269 L 50 263 L 50 252 L 46 239 L 43 233 L 35 222 L 22 212 L 6 204 L 0 205 L 1 214 L 6 232 L 13 245 L 24 257 L 38 265 L 45 267 L 51 275 L 60 294 L 62 312 L 66 332 L 66 344 L 67 352 L 68 353 L 68 359 L 64 360 L 58 340 L 52 331 L 44 323 L 34 316 L 29 314 L 25 315 L 26 327 L 28 336 L 34 349 L 42 358 L 57 366 L 59 368 L 63 376 L 67 388 L 67 404 L 64 421 L 60 431 L 60 436 L 58 439 L 57 445 L 54 449 L 53 446 L 55 441 L 55 432 L 53 422 L 47 410 L 33 397 L 26 393 L 23 393 L 23 414 L 27 428 L 32 436 L 42 446 L 49 451 L 49 463 L 48 466 L 41 477 L 39 482 L 35 487 L 35 492 L 38 494 L 43 489 L 54 471 L 64 449 L 69 433 L 73 414 L 75 399 L 75 384 L 78 376 L 84 365 L 98 359 L 107 352 L 116 336 L 118 328 L 117 320 L 113 320 L 101 325 L 92 331 L 88 336 L 83 346 L 81 354 L 81 361 L 76 367 L 75 346 L 73 335 L 73 318 L 76 306 L 81 295 L 83 293 L 93 294 L 100 289 L 102 285 L 102 279 L 99 273 L 95 270 L 87 269 L 82 271 L 78 277 L 78 286 L 80 289 L 77 292 L 73 300 L 73 303 L 70 306 L 67 293 L 65 270 L 63 262 L 62 241 L 68 225 L 71 222 L 83 216 L 96 203 L 103 189 L 109 170 L 108 164 L 101 165 L 85 174 L 73 185 L 69 191 L 65 202 L 64 220 L 61 224 L 60 219 L 60 198 L 65 135 L 75 111 L 85 99 L 89 96 L 92 96 L 101 101 L 107 100 L 116 92 L 118 88 L 118 82 L 116 78 L 111 73 L 106 71 L 97 72 L 93 74 L 89 81 L 89 89 L 78 98 L 68 112 L 67 51 L 68 40 L 72 24 L 79 10 L 83 5 L 83 2 Z M 29 402 L 31 402 L 41 411 L 48 423 L 50 429 L 50 434 L 48 436 L 45 429 L 43 427 L 43 424 L 39 421 L 39 423 L 45 437 L 42 439 L 36 433 L 31 423 L 28 410 Z M 65 363 L 68 364 L 68 368 L 66 370 L 65 368 L 64 367 Z M 110 327 L 112 330 L 108 341 L 98 353 L 91 357 L 90 354 L 105 335 L 101 337 L 90 348 L 89 344 L 98 333 Z M 33 322 L 42 328 L 50 336 L 54 342 L 56 348 L 54 350 L 43 335 L 37 330 L 39 336 L 47 346 L 52 355 L 50 357 L 45 353 L 38 345 L 32 329 L 31 324 Z M 83 277 L 86 274 L 92 274 L 97 278 L 97 280 L 94 283 L 89 284 L 86 283 Z M 9 211 L 27 222 L 37 233 L 43 245 L 44 249 L 42 251 L 38 245 L 25 232 L 24 229 L 14 220 L 16 224 L 22 230 L 23 234 L 27 238 L 29 242 L 40 256 L 37 258 L 33 255 L 29 254 L 16 240 L 10 226 L 7 216 Z M 82 184 L 84 187 L 82 191 L 76 198 L 74 203 L 71 206 L 70 202 L 72 197 L 74 195 L 74 193 L 77 188 Z M 103 173 L 101 175 L 98 188 L 95 192 L 94 196 L 91 201 L 79 212 L 74 213 L 74 211 L 77 205 L 83 196 L 93 185 L 96 180 L 96 178 L 93 179 L 87 185 L 85 183 L 85 181 L 88 178 L 99 172 Z M 22 121 L 38 138 L 44 152 L 45 161 L 43 163 L 38 152 L 35 149 L 32 141 L 29 137 L 27 136 L 30 146 L 34 153 L 34 158 L 37 160 L 39 166 L 41 168 L 38 170 L 33 165 L 33 161 L 31 162 L 27 158 L 22 147 L 20 137 Z M 99 77 L 108 77 L 113 83 L 112 88 L 106 94 L 103 94 L 94 85 L 94 81 Z M 60 64 L 60 77 L 58 79 L 56 75 L 56 69 Z M 32 28 L 35 38 L 40 47 L 46 62 L 45 67 L 39 61 L 33 52 L 32 43 L 30 41 L 29 37 Z M 34 25 L 41 32 L 48 44 L 50 49 L 51 57 L 49 59 L 47 53 L 44 50 L 43 46 L 35 33 L 33 28 Z" fill="currentColor" fill-rule="evenodd"/>
</svg>
