<svg xmlns="http://www.w3.org/2000/svg" width="951" height="68" viewBox="0 0 951 68" role="img" aria-hidden="true">
  <path d="M 0 3 L 0 6 L 6 17 L 15 25 L 21 28 L 26 29 L 39 28 L 42 30 L 39 33 L 36 33 L 34 35 L 31 36 L 27 35 L 23 37 L 22 43 L 25 46 L 31 45 L 36 39 L 44 35 L 62 31 L 69 32 L 62 37 L 57 45 L 58 51 L 66 50 L 70 48 L 77 42 L 80 37 L 80 35 L 82 33 L 88 30 L 122 31 L 120 33 L 116 33 L 112 35 L 103 43 L 99 50 L 100 55 L 110 54 L 118 51 L 125 45 L 129 40 L 131 35 L 133 35 L 136 33 L 147 33 L 158 35 L 167 38 L 176 39 L 181 42 L 178 44 L 176 47 L 176 51 L 178 55 L 180 56 L 184 56 L 189 51 L 190 46 L 195 43 L 245 44 L 242 47 L 242 54 L 244 56 L 249 56 L 253 53 L 254 48 L 259 44 L 262 43 L 398 44 L 396 46 L 390 47 L 384 50 L 381 53 L 375 62 L 375 65 L 377 67 L 385 67 L 394 64 L 403 56 L 407 48 L 418 43 L 450 43 L 461 45 L 470 49 L 473 52 L 475 52 L 485 46 L 500 43 L 532 43 L 539 46 L 546 52 L 546 54 L 548 57 L 554 63 L 564 67 L 572 67 L 576 64 L 574 60 L 564 49 L 558 47 L 557 43 L 684 43 L 692 47 L 694 49 L 694 53 L 697 56 L 702 56 L 705 53 L 706 50 L 704 43 L 754 43 L 761 48 L 761 52 L 763 55 L 769 56 L 774 50 L 773 46 L 770 44 L 769 40 L 803 33 L 813 33 L 818 35 L 821 38 L 822 42 L 826 47 L 830 50 L 836 53 L 849 55 L 851 53 L 851 51 L 846 42 L 838 35 L 833 33 L 830 30 L 861 30 L 864 31 L 870 35 L 873 42 L 878 47 L 887 51 L 892 51 L 894 49 L 894 47 L 891 41 L 886 36 L 882 34 L 882 31 L 889 31 L 905 35 L 914 39 L 920 46 L 924 46 L 928 42 L 928 39 L 923 35 L 917 36 L 909 32 L 908 30 L 910 28 L 924 29 L 936 24 L 944 16 L 950 5 L 949 2 L 938 2 L 934 3 L 923 8 L 914 17 L 912 21 L 907 25 L 896 27 L 883 27 L 881 25 L 882 21 L 884 19 L 889 18 L 893 14 L 894 11 L 891 8 L 886 8 L 884 9 L 883 14 L 875 21 L 868 25 L 844 23 L 854 16 L 857 12 L 861 2 L 852 1 L 843 5 L 838 10 L 835 17 L 827 24 L 823 26 L 801 28 L 794 30 L 792 27 L 793 25 L 802 15 L 805 15 L 809 13 L 813 7 L 810 1 L 808 0 L 802 0 L 800 1 L 798 5 L 799 11 L 792 20 L 779 32 L 772 35 L 760 37 L 750 34 L 755 34 L 757 33 L 761 28 L 761 26 L 758 23 L 753 23 L 751 24 L 750 28 L 745 33 L 735 38 L 684 38 L 682 35 L 690 26 L 691 20 L 689 19 L 679 19 L 672 21 L 667 24 L 658 35 L 652 38 L 604 35 L 609 35 L 613 31 L 614 27 L 611 24 L 605 25 L 603 27 L 603 29 L 599 33 L 589 38 L 569 38 L 565 33 L 575 23 L 580 14 L 577 12 L 564 12 L 551 18 L 546 23 L 542 30 L 538 34 L 531 38 L 507 37 L 504 38 L 501 37 L 502 34 L 506 35 L 513 27 L 513 25 L 510 22 L 504 22 L 502 23 L 501 25 L 501 29 L 490 39 L 479 44 L 478 39 L 484 28 L 484 17 L 483 13 L 478 4 L 476 2 L 473 2 L 469 8 L 466 16 L 466 27 L 467 31 L 473 42 L 470 44 L 458 38 L 450 30 L 449 25 L 445 22 L 440 22 L 438 24 L 438 30 L 442 34 L 447 34 L 449 36 L 447 38 L 418 38 L 415 37 L 408 32 L 406 27 L 398 18 L 391 14 L 383 12 L 370 13 L 370 16 L 375 25 L 383 33 L 389 36 L 387 38 L 384 37 L 360 38 L 350 33 L 347 30 L 346 26 L 342 24 L 337 25 L 336 30 L 339 34 L 347 36 L 345 38 L 300 38 L 294 35 L 290 31 L 288 25 L 280 17 L 268 13 L 264 14 L 265 20 L 272 31 L 278 35 L 282 36 L 280 38 L 277 37 L 214 38 L 204 34 L 194 26 L 194 21 L 190 16 L 181 17 L 180 19 L 180 24 L 184 29 L 190 29 L 199 36 L 197 38 L 178 35 L 169 31 L 163 26 L 152 13 L 153 7 L 151 3 L 147 0 L 141 0 L 139 1 L 138 3 L 138 9 L 143 15 L 148 15 L 158 28 L 156 30 L 135 26 L 127 26 L 119 22 L 116 19 L 114 12 L 105 4 L 97 1 L 90 1 L 90 5 L 95 15 L 103 22 L 106 23 L 104 25 L 83 25 L 80 24 L 69 16 L 67 11 L 64 8 L 57 9 L 57 14 L 58 16 L 62 19 L 67 20 L 71 24 L 66 27 L 53 27 L 41 24 L 36 19 L 34 15 L 25 7 L 10 2 Z M 397 56 L 391 61 L 381 62 L 381 60 L 384 57 L 386 57 L 387 59 L 394 55 Z M 554 57 L 557 56 L 562 59 L 563 57 L 556 52 L 559 51 L 569 60 L 567 62 L 563 62 L 559 61 Z M 390 53 L 391 51 L 394 52 Z M 699 49 L 702 51 L 700 53 L 698 51 Z M 247 48 L 249 50 L 247 52 Z M 180 50 L 181 47 L 184 49 Z M 120 44 L 118 46 L 114 45 L 115 45 L 117 43 Z M 63 45 L 64 42 L 67 44 Z M 833 46 L 837 46 L 837 42 L 839 41 L 845 48 L 843 50 L 841 50 L 840 49 L 837 49 Z M 118 39 L 111 44 L 112 47 L 109 50 L 105 48 L 113 39 L 115 38 Z M 442 25 L 445 27 L 443 29 L 441 27 Z M 686 25 L 678 33 L 673 32 L 677 28 L 676 24 L 681 23 Z M 275 24 L 274 27 L 272 25 Z M 184 24 L 185 21 L 190 22 L 187 25 Z M 573 17 L 573 19 L 571 22 L 565 28 L 554 33 L 553 31 L 565 22 L 560 22 L 551 24 L 554 21 L 562 17 L 570 16 Z M 377 16 L 382 16 L 388 18 L 389 20 L 387 22 L 384 22 L 385 24 L 396 31 L 393 33 L 384 28 L 376 19 Z M 26 13 L 29 16 L 27 18 L 25 17 Z M 474 9 L 477 10 L 481 21 L 481 25 L 478 30 L 476 18 L 474 18 L 473 26 L 471 28 L 470 16 L 472 11 Z M 943 8 L 943 10 L 941 13 L 934 20 L 926 24 L 924 21 L 933 16 L 937 12 L 932 11 L 924 17 L 920 16 L 923 13 L 930 9 L 936 7 Z M 6 8 L 13 7 L 19 10 L 17 12 L 14 12 L 15 15 L 26 22 L 24 24 L 19 22 L 16 19 L 14 19 L 10 15 Z M 850 6 L 854 8 L 850 13 L 846 9 Z M 96 8 L 97 6 L 99 6 L 106 10 L 101 11 L 101 15 Z M 803 5 L 807 6 L 807 8 L 805 10 L 802 9 Z M 143 4 L 145 4 L 148 8 L 144 11 L 142 9 Z" fill="currentColor" fill-rule="evenodd"/>
</svg>
