<svg xmlns="http://www.w3.org/2000/svg" width="949" height="163" viewBox="0 0 949 163" role="img" aria-hidden="true">
  <path d="M 0 118 L 11 126 L 23 130 L 35 129 L 46 124 L 59 126 L 63 128 L 61 130 L 53 133 L 44 142 L 43 144 L 44 147 L 51 149 L 62 149 L 72 145 L 83 133 L 89 131 L 116 134 L 114 136 L 108 137 L 101 141 L 94 148 L 90 155 L 90 160 L 106 160 L 111 159 L 121 154 L 128 146 L 131 139 L 137 135 L 154 135 L 157 137 L 160 135 L 164 136 L 162 138 L 156 139 L 145 151 L 142 157 L 143 162 L 147 162 L 158 160 L 166 157 L 172 152 L 177 145 L 178 140 L 184 135 L 208 134 L 236 131 L 237 130 L 244 130 L 245 129 L 251 130 L 241 139 L 234 140 L 230 145 L 230 150 L 231 152 L 236 156 L 240 156 L 246 151 L 247 146 L 245 143 L 245 141 L 251 135 L 257 131 L 271 126 L 290 124 L 339 125 L 336 128 L 329 130 L 323 135 L 317 144 L 318 150 L 329 149 L 337 146 L 345 139 L 348 134 L 349 130 L 354 126 L 389 128 L 404 130 L 410 132 L 425 133 L 431 135 L 468 138 L 480 138 L 514 135 L 528 132 L 535 132 L 542 130 L 557 128 L 592 126 L 598 131 L 603 141 L 609 146 L 617 149 L 629 150 L 631 147 L 627 138 L 619 131 L 612 128 L 612 124 L 656 124 L 679 127 L 690 132 L 696 136 L 702 142 L 700 145 L 700 149 L 701 152 L 705 156 L 710 156 L 715 152 L 716 144 L 712 140 L 707 140 L 705 139 L 698 129 L 704 129 L 717 132 L 729 132 L 738 134 L 762 135 L 769 140 L 770 145 L 773 150 L 781 157 L 792 161 L 803 162 L 806 159 L 804 154 L 800 148 L 794 142 L 788 138 L 789 135 L 794 135 L 795 136 L 811 135 L 817 140 L 818 144 L 821 149 L 826 154 L 831 157 L 841 160 L 857 160 L 859 158 L 854 149 L 846 141 L 837 136 L 837 133 L 844 132 L 861 132 L 864 133 L 868 137 L 869 140 L 876 146 L 885 149 L 894 149 L 903 147 L 905 144 L 898 136 L 888 130 L 885 127 L 901 124 L 908 128 L 916 130 L 924 130 L 938 125 L 945 120 L 947 115 L 931 108 L 916 108 L 909 111 L 898 120 L 889 122 L 883 122 L 877 124 L 874 121 L 879 119 L 888 109 L 892 97 L 884 97 L 875 99 L 867 103 L 862 108 L 857 120 L 848 127 L 821 130 L 812 129 L 812 127 L 814 125 L 823 123 L 832 118 L 836 114 L 841 107 L 846 94 L 845 89 L 830 92 L 823 96 L 818 101 L 814 109 L 812 121 L 807 126 L 800 130 L 794 131 L 772 131 L 761 129 L 762 126 L 767 126 L 777 122 L 788 112 L 795 99 L 797 92 L 796 88 L 791 88 L 778 92 L 769 98 L 762 109 L 760 116 L 760 121 L 755 126 L 750 129 L 721 127 L 688 122 L 668 121 L 659 119 L 659 117 L 663 114 L 672 114 L 677 109 L 677 103 L 674 100 L 668 99 L 664 101 L 662 105 L 662 109 L 656 114 L 645 119 L 619 119 L 617 117 L 626 108 L 633 96 L 635 89 L 633 87 L 619 89 L 606 95 L 600 101 L 596 109 L 595 115 L 588 121 L 565 122 L 527 128 L 524 127 L 518 129 L 513 128 L 514 125 L 519 125 L 521 124 L 525 120 L 526 114 L 525 112 L 521 109 L 515 109 L 511 112 L 510 115 L 511 122 L 505 128 L 500 131 L 490 132 L 455 132 L 447 131 L 443 129 L 439 124 L 436 122 L 437 114 L 436 112 L 432 109 L 425 109 L 421 114 L 421 119 L 423 123 L 426 125 L 434 127 L 432 129 L 427 129 L 421 127 L 420 125 L 416 127 L 381 122 L 358 121 L 354 118 L 346 101 L 339 94 L 327 89 L 318 87 L 312 87 L 312 91 L 317 103 L 320 108 L 328 117 L 326 119 L 301 119 L 287 112 L 284 109 L 285 106 L 284 104 L 280 100 L 274 99 L 270 102 L 269 108 L 271 112 L 274 114 L 282 114 L 286 118 L 284 120 L 268 121 L 215 128 L 194 128 L 190 125 L 187 121 L 186 111 L 182 103 L 176 97 L 164 90 L 156 88 L 150 88 L 150 92 L 153 102 L 159 113 L 168 121 L 178 126 L 184 126 L 186 128 L 184 130 L 158 131 L 146 130 L 137 123 L 135 117 L 135 113 L 131 103 L 123 95 L 117 92 L 105 89 L 101 89 L 101 92 L 105 104 L 111 114 L 116 119 L 121 122 L 134 126 L 136 128 L 134 130 L 123 130 L 99 127 L 91 121 L 86 109 L 82 104 L 72 99 L 64 97 L 55 97 L 55 100 L 62 113 L 70 120 L 70 123 L 65 123 L 64 122 L 58 122 L 49 120 L 46 116 L 33 109 L 24 107 L 16 108 L 7 111 L 1 114 Z M 171 146 L 164 153 L 160 155 L 150 157 L 148 154 L 152 149 L 157 152 L 167 146 Z M 706 144 L 710 145 L 712 148 L 709 151 L 705 148 Z M 236 144 L 240 144 L 242 146 L 242 148 L 238 152 L 235 149 Z M 157 144 L 159 143 L 162 144 L 160 146 Z M 779 146 L 789 152 L 792 151 L 785 145 L 786 142 L 790 144 L 798 152 L 799 155 L 796 157 L 787 155 L 781 152 Z M 827 145 L 841 151 L 843 149 L 839 147 L 835 143 L 830 142 L 832 140 L 838 141 L 842 143 L 852 154 L 850 156 L 845 156 L 833 153 L 828 150 Z M 123 145 L 116 152 L 109 155 L 103 155 L 102 156 L 96 155 L 97 151 L 105 143 L 111 140 L 115 140 L 116 139 L 119 140 L 117 142 L 106 147 L 105 151 Z M 607 136 L 609 136 L 616 141 L 619 140 L 615 136 L 618 135 L 624 143 L 622 145 L 615 144 L 609 141 Z M 342 136 L 337 141 L 331 144 L 327 145 L 322 143 L 324 140 L 327 140 L 327 142 L 334 139 L 338 136 Z M 877 140 L 880 139 L 885 141 L 889 139 L 879 135 L 880 133 L 883 133 L 889 135 L 897 142 L 894 145 L 887 145 L 882 144 Z M 68 134 L 66 136 L 60 137 L 59 141 L 62 141 L 66 139 L 70 140 L 67 143 L 61 145 L 53 145 L 51 144 L 50 141 L 56 136 L 58 136 L 63 133 Z M 337 133 L 335 135 L 331 137 L 330 135 L 332 133 L 334 132 Z M 516 113 L 520 113 L 522 115 L 522 117 L 519 120 L 515 117 Z M 430 113 L 433 116 L 428 120 L 425 117 L 425 115 L 427 113 Z M 910 116 L 912 114 L 918 112 L 929 112 L 936 114 L 941 117 L 934 122 L 923 126 L 912 123 L 914 121 L 926 120 L 928 118 L 913 118 Z M 8 118 L 9 115 L 18 112 L 29 112 L 37 116 L 35 118 L 21 120 L 33 121 L 36 123 L 34 125 L 20 125 L 11 121 Z M 275 103 L 277 103 L 280 107 L 275 109 L 274 106 Z M 887 103 L 884 108 L 876 116 L 871 119 L 868 117 L 877 109 L 874 108 L 871 110 L 869 107 L 872 105 L 874 105 L 876 103 L 880 102 Z M 63 102 L 68 102 L 78 107 L 79 111 L 77 111 L 71 107 L 71 110 L 77 116 L 74 118 L 71 116 L 64 109 L 62 105 Z M 836 98 L 826 105 L 820 111 L 819 108 L 825 100 L 830 97 Z M 841 97 L 835 108 L 825 118 L 821 117 L 834 102 L 838 95 Z M 108 95 L 114 96 L 118 99 L 122 100 L 128 107 L 130 111 L 128 113 L 116 102 L 113 101 L 117 108 L 123 113 L 125 116 L 123 118 L 113 109 L 109 103 L 107 98 Z M 157 94 L 160 94 L 169 97 L 172 99 L 180 108 L 182 113 L 180 115 L 176 110 L 168 103 L 164 102 L 175 120 L 167 115 L 161 108 L 156 98 Z M 791 94 L 790 100 L 783 111 L 777 117 L 770 121 L 769 118 L 782 104 L 783 101 L 778 103 L 767 114 L 766 110 L 768 106 L 776 98 L 784 94 Z M 629 94 L 624 104 L 617 111 L 611 115 L 604 116 L 604 114 L 618 102 L 615 101 L 602 111 L 601 108 L 604 103 L 608 99 L 620 93 L 627 92 Z M 319 92 L 329 94 L 338 99 L 344 105 L 346 109 L 344 111 L 334 102 L 329 102 L 329 104 L 332 109 L 339 111 L 343 115 L 340 117 L 329 111 L 323 105 L 318 95 Z M 875 0 L 880 4 L 886 6 L 891 6 L 893 4 L 892 0 Z M 824 0 L 826 3 L 835 8 L 844 10 L 848 10 L 850 8 L 850 6 L 847 0 L 842 0 L 844 3 L 842 5 L 836 4 L 832 1 L 837 0 L 832 1 Z M 756 0 L 760 3 L 760 7 L 761 9 L 764 11 L 768 11 L 773 5 L 772 1 Z M 687 0 L 693 4 L 693 8 L 696 11 L 701 11 L 704 8 L 705 5 L 703 1 Z M 698 4 L 701 6 L 699 8 L 697 6 Z M 535 0 L 542 4 L 545 7 L 545 9 L 547 12 L 553 18 L 559 21 L 571 22 L 575 19 L 571 12 L 563 4 L 557 2 L 555 0 Z M 553 12 L 556 11 L 561 14 L 562 12 L 555 7 L 558 6 L 568 15 L 566 17 L 562 17 L 558 16 Z M 456 0 L 460 0 L 465 2 L 472 7 L 474 7 L 484 1 L 492 0 Z M 413 0 L 396 0 L 383 5 L 375 15 L 374 20 L 376 22 L 384 22 L 393 19 L 402 11 L 406 3 L 411 0 Z M 396 11 L 390 16 L 380 17 L 380 15 L 383 12 L 385 12 L 386 14 L 393 10 Z M 389 8 L 390 6 L 393 7 Z M 241 9 L 243 11 L 248 11 L 252 8 L 253 3 L 257 0 L 243 0 L 241 2 Z M 246 3 L 248 5 L 246 7 Z M 177 10 L 183 11 L 188 6 L 188 3 L 191 0 L 176 0 L 175 6 Z M 179 5 L 180 2 L 183 4 Z M 99 10 L 109 9 L 115 7 L 120 4 L 124 0 L 110 0 L 111 2 L 108 5 L 104 3 L 106 0 L 101 0 L 98 5 Z M 57 6 L 65 5 L 73 0 L 63 1 L 56 0 Z M 23 0 L 28 1 L 30 0 Z" fill="currentColor" fill-rule="evenodd"/>
</svg>
