<svg xmlns="http://www.w3.org/2000/svg" width="1040" height="176" viewBox="0 0 1040 176" role="img" aria-hidden="true">
  <path d="M 516 175 L 522 175 L 520 173 Z M 0 90 L 9 99 L 18 104 L 22 105 L 33 105 L 39 103 L 43 100 L 62 101 L 58 105 L 53 114 L 54 119 L 69 119 L 80 115 L 87 109 L 91 104 L 93 97 L 97 94 L 100 93 L 120 93 L 174 107 L 201 107 L 207 105 L 211 105 L 212 104 L 215 105 L 208 116 L 207 119 L 208 123 L 219 123 L 232 118 L 239 112 L 243 105 L 244 99 L 248 95 L 256 91 L 269 89 L 280 89 L 294 91 L 322 99 L 320 101 L 316 102 L 311 105 L 305 113 L 306 117 L 314 120 L 322 120 L 331 116 L 340 106 L 343 105 L 348 105 L 363 108 L 387 108 L 401 106 L 422 100 L 426 101 L 421 106 L 415 118 L 416 125 L 429 123 L 438 118 L 442 114 L 446 107 L 448 96 L 453 91 L 463 87 L 468 86 L 486 86 L 507 94 L 518 103 L 520 103 L 527 96 L 539 89 L 549 86 L 566 86 L 577 89 L 589 95 L 594 100 L 595 108 L 597 112 L 605 120 L 611 123 L 625 125 L 627 123 L 626 117 L 619 105 L 615 101 L 618 100 L 635 105 L 653 108 L 677 108 L 692 105 L 698 105 L 701 106 L 710 116 L 713 118 L 719 120 L 726 120 L 733 118 L 737 114 L 731 106 L 722 101 L 720 98 L 737 93 L 761 89 L 771 89 L 789 93 L 796 99 L 799 108 L 806 117 L 820 123 L 832 123 L 833 117 L 826 106 L 832 105 L 838 107 L 862 107 L 879 104 L 904 96 L 919 93 L 938 93 L 941 94 L 947 99 L 949 105 L 957 114 L 970 119 L 985 119 L 987 117 L 987 115 L 979 100 L 995 100 L 1005 105 L 1016 105 L 1026 101 L 1035 94 L 1038 87 L 1026 82 L 1014 81 L 1004 85 L 992 95 L 988 96 L 972 95 L 968 94 L 966 92 L 962 92 L 959 88 L 969 83 L 978 71 L 968 68 L 952 68 L 948 69 L 940 74 L 929 86 L 925 88 L 918 88 L 908 90 L 904 92 L 903 89 L 905 86 L 904 81 L 902 79 L 895 79 L 893 80 L 892 82 L 892 87 L 884 95 L 877 99 L 864 102 L 839 102 L 813 96 L 810 92 L 818 92 L 830 87 L 842 77 L 840 75 L 831 71 L 817 69 L 811 70 L 803 74 L 793 84 L 785 87 L 780 85 L 773 84 L 758 84 L 746 86 L 736 89 L 732 87 L 733 83 L 730 79 L 724 78 L 720 81 L 720 86 L 714 92 L 708 96 L 685 102 L 677 103 L 654 103 L 640 101 L 628 98 L 621 95 L 622 92 L 626 92 L 632 90 L 643 83 L 646 77 L 637 73 L 628 71 L 616 71 L 609 73 L 601 77 L 595 82 L 584 87 L 568 81 L 549 81 L 544 82 L 530 88 L 519 97 L 509 89 L 492 82 L 487 81 L 466 81 L 452 86 L 445 83 L 438 77 L 428 72 L 410 71 L 400 74 L 394 77 L 394 80 L 398 84 L 408 90 L 414 92 L 419 92 L 422 94 L 420 96 L 410 99 L 388 103 L 364 103 L 349 101 L 336 97 L 330 94 L 323 88 L 323 83 L 322 81 L 318 78 L 313 78 L 310 81 L 310 88 L 308 90 L 295 86 L 282 84 L 267 84 L 254 87 L 247 84 L 237 74 L 229 70 L 213 70 L 201 75 L 200 79 L 208 86 L 216 90 L 222 92 L 231 93 L 229 95 L 221 98 L 201 102 L 174 102 L 162 99 L 154 94 L 149 89 L 149 84 L 145 79 L 138 79 L 135 84 L 136 89 L 134 91 L 132 91 L 127 89 L 115 88 L 110 86 L 98 73 L 93 70 L 87 68 L 72 68 L 62 71 L 62 75 L 72 84 L 82 90 L 80 92 L 76 92 L 72 94 L 59 96 L 49 96 L 44 94 L 36 86 L 23 81 L 18 81 L 2 86 L 0 88 Z M 713 110 L 721 110 L 715 107 L 723 106 L 728 109 L 731 113 L 727 116 L 720 116 L 713 113 Z M 330 111 L 328 113 L 321 116 L 315 116 L 311 113 L 311 111 L 313 109 L 321 105 L 325 107 L 322 109 L 323 111 L 326 110 Z M 601 105 L 606 110 L 612 110 L 607 104 L 609 103 L 611 104 L 619 112 L 621 118 L 619 120 L 617 120 L 607 116 L 600 109 Z M 442 106 L 441 108 L 430 118 L 422 120 L 420 118 L 420 116 L 423 110 L 429 104 L 431 103 L 434 104 L 431 112 L 439 105 Z M 804 104 L 815 112 L 819 111 L 809 102 L 812 101 L 816 104 L 818 104 L 825 111 L 828 116 L 825 119 L 818 118 L 813 116 L 803 107 Z M 238 106 L 227 116 L 222 118 L 213 117 L 215 111 L 222 104 L 230 100 L 233 101 L 229 105 L 225 107 L 222 110 L 222 112 L 224 112 L 230 109 L 233 106 Z M 953 103 L 955 102 L 970 107 L 964 102 L 965 99 L 969 100 L 978 108 L 981 113 L 979 115 L 971 115 L 965 113 L 957 108 Z M 86 104 L 81 109 L 75 113 L 68 115 L 59 114 L 59 112 L 63 105 L 73 98 L 76 97 L 82 98 L 80 100 L 70 105 L 68 107 L 69 110 L 72 108 L 75 108 L 79 104 L 83 102 Z M 1003 93 L 1004 90 L 1007 88 L 1014 86 L 1023 86 L 1027 87 L 1032 90 L 1023 98 L 1016 101 L 1005 99 L 1007 97 L 1014 96 L 1020 94 L 1022 92 L 1013 91 Z M 7 90 L 9 88 L 15 86 L 24 86 L 25 87 L 28 87 L 36 92 L 32 93 L 25 92 L 20 89 L 17 91 L 18 94 L 20 95 L 31 97 L 34 99 L 32 101 L 24 101 L 14 97 L 10 94 Z M 139 86 L 140 83 L 144 85 L 142 87 Z M 897 82 L 899 82 L 901 85 L 898 88 L 896 86 Z M 727 82 L 729 84 L 725 88 L 723 86 L 723 84 L 725 82 Z M 315 82 L 317 82 L 319 85 L 316 88 L 314 86 Z M 604 80 L 611 77 L 620 76 L 621 75 L 632 76 L 639 80 L 633 85 L 627 87 L 622 86 L 620 88 L 607 85 L 619 84 L 626 82 L 626 79 L 617 80 L 613 82 L 606 83 Z M 401 78 L 414 75 L 420 75 L 422 77 L 418 81 L 416 81 L 417 83 L 427 84 L 431 86 L 429 88 L 416 88 L 412 87 L 402 82 Z M 805 79 L 808 76 L 814 74 L 818 75 L 825 74 L 831 76 L 833 79 L 828 83 L 815 88 L 807 85 L 821 82 L 823 80 L 813 79 L 808 81 Z M 207 78 L 209 76 L 215 74 L 226 74 L 235 78 L 237 80 L 235 82 L 227 79 L 220 79 L 221 82 L 223 83 L 227 83 L 229 85 L 235 86 L 233 88 L 230 87 L 224 88 L 213 84 L 210 82 Z M 943 85 L 945 83 L 958 79 L 959 77 L 953 77 L 942 80 L 943 77 L 950 73 L 954 72 L 966 72 L 971 75 L 964 81 L 957 85 L 948 87 Z M 70 73 L 73 72 L 86 72 L 96 77 L 94 79 L 89 79 L 84 77 L 81 77 L 83 80 L 95 84 L 90 87 L 83 85 L 74 80 Z M 658 0 L 664 1 L 666 0 Z M 588 0 L 599 4 L 611 3 L 613 0 Z M 433 0 L 434 3 L 437 4 L 446 4 L 456 0 Z M 376 0 L 378 1 L 381 1 L 384 0 Z" fill="currentColor" fill-rule="evenodd"/>
</svg>
