<svg xmlns="http://www.w3.org/2000/svg" width="1019" height="64" viewBox="0 0 1019 64" role="img" aria-hidden="true">
  <path d="M 0 29 L 0 32 L 5 39 L 10 42 L 21 45 L 45 44 L 84 35 L 99 33 L 107 34 L 104 37 L 93 38 L 89 41 L 82 49 L 80 54 L 80 56 L 82 58 L 90 57 L 97 54 L 105 46 L 106 41 L 110 37 L 123 30 L 128 29 L 135 30 L 125 39 L 121 46 L 121 49 L 123 51 L 127 48 L 129 42 L 137 34 L 148 28 L 154 26 L 193 23 L 228 23 L 264 25 L 307 30 L 347 37 L 375 44 L 414 52 L 444 56 L 464 57 L 500 61 L 506 63 L 512 63 L 519 61 L 544 58 L 553 58 L 562 56 L 572 56 L 595 53 L 691 33 L 725 28 L 768 24 L 813 23 L 862 26 L 879 33 L 887 40 L 892 49 L 895 51 L 897 49 L 897 46 L 894 40 L 885 29 L 893 30 L 909 38 L 913 42 L 914 46 L 917 51 L 922 55 L 933 58 L 936 58 L 939 55 L 937 52 L 937 50 L 932 43 L 924 38 L 921 38 L 920 34 L 926 34 L 971 44 L 978 45 L 996 45 L 1002 44 L 1011 40 L 1016 36 L 1018 32 L 1017 27 L 1015 25 L 1010 24 L 1008 25 L 1007 32 L 1009 34 L 1006 37 L 1001 39 L 984 40 L 973 39 L 953 35 L 952 31 L 961 29 L 968 25 L 971 26 L 975 25 L 980 20 L 980 16 L 977 13 L 970 13 L 967 16 L 967 19 L 963 23 L 959 25 L 949 28 L 935 30 L 927 30 L 919 28 L 911 28 L 904 26 L 855 20 L 822 18 L 784 18 L 751 20 L 708 25 L 673 31 L 611 45 L 579 50 L 572 48 L 578 42 L 584 43 L 587 42 L 592 37 L 592 30 L 588 26 L 582 25 L 579 26 L 575 31 L 575 39 L 570 44 L 561 50 L 550 53 L 525 56 L 524 53 L 527 50 L 536 49 L 543 46 L 554 36 L 560 23 L 559 19 L 546 20 L 538 24 L 531 31 L 527 39 L 526 45 L 517 53 L 512 54 L 512 45 L 519 32 L 520 19 L 515 6 L 510 0 L 507 1 L 501 12 L 499 21 L 501 34 L 504 41 L 508 46 L 508 51 L 505 55 L 500 52 L 494 46 L 493 40 L 489 32 L 481 24 L 469 19 L 460 19 L 461 28 L 468 40 L 472 44 L 481 49 L 493 51 L 496 54 L 494 56 L 479 53 L 476 54 L 466 53 L 456 49 L 444 39 L 444 31 L 441 27 L 436 25 L 431 26 L 427 31 L 427 36 L 429 40 L 433 43 L 441 42 L 444 46 L 447 48 L 445 50 L 437 50 L 405 45 L 396 42 L 391 42 L 382 39 L 372 38 L 353 33 L 322 27 L 286 22 L 254 19 L 188 18 L 141 22 L 127 25 L 98 29 L 77 29 L 57 23 L 54 20 L 53 16 L 50 13 L 44 12 L 42 13 L 40 16 L 40 20 L 43 24 L 45 25 L 52 25 L 56 27 L 59 30 L 59 33 L 63 30 L 68 32 L 64 35 L 59 35 L 44 39 L 24 40 L 11 37 L 9 35 L 9 33 L 12 30 L 11 26 L 8 24 L 2 25 Z M 927 52 L 928 50 L 932 51 L 930 53 Z M 89 46 L 92 47 L 93 49 L 95 50 L 91 53 L 85 51 Z M 581 30 L 586 30 L 588 32 L 588 34 L 584 38 L 582 38 L 580 36 Z M 434 30 L 437 30 L 440 33 L 440 35 L 437 38 L 434 38 L 432 36 L 432 32 Z M 554 25 L 554 28 L 548 37 L 545 40 L 543 40 L 537 44 L 536 41 L 544 34 L 542 31 L 539 35 L 536 37 L 533 35 L 538 29 L 545 25 L 549 24 Z M 466 24 L 473 25 L 479 28 L 486 35 L 484 38 L 477 33 L 475 33 L 482 44 L 478 43 L 472 38 L 465 27 Z M 972 17 L 975 19 L 973 21 L 971 19 Z M 510 7 L 512 9 L 516 18 L 516 29 L 514 34 L 512 36 L 511 33 L 512 23 L 511 17 L 509 14 L 509 17 L 508 18 L 508 32 L 506 34 L 504 32 L 503 28 L 504 15 L 506 10 Z" fill="currentColor" fill-rule="evenodd"/>
</svg>
