<svg xmlns="http://www.w3.org/2000/svg" width="132" height="68" viewBox="0 0 132 68" role="img" aria-hidden="true">
  <path d="M 0 31 L 0 33 L 2 35 L 12 36 L 16 35 L 25 28 L 42 29 L 36 34 L 32 41 L 33 44 L 39 44 L 46 41 L 51 36 L 53 31 L 55 29 L 60 29 L 63 31 L 63 35 L 76 37 L 83 36 L 87 37 L 97 43 L 95 45 L 90 46 L 87 49 L 82 49 L 78 45 L 75 45 L 72 47 L 71 50 L 72 54 L 75 56 L 83 56 L 83 59 L 85 61 L 88 61 L 91 58 L 92 53 L 98 51 L 105 51 L 113 53 L 129 67 L 131 64 L 115 50 L 111 45 L 111 43 L 115 39 L 115 35 L 112 32 L 108 33 L 106 31 L 107 25 L 105 23 L 98 24 L 98 29 L 99 31 L 104 33 L 104 39 L 102 41 L 98 38 L 96 38 L 87 33 L 83 27 L 83 22 L 81 17 L 76 12 L 69 8 L 66 9 L 66 11 L 67 12 L 68 19 L 73 26 L 71 28 L 62 25 L 54 24 L 50 20 L 48 15 L 42 9 L 36 7 L 31 7 L 29 5 L 29 2 L 27 0 L 21 0 L 19 2 L 19 8 L 24 11 L 30 11 L 31 15 L 35 19 L 41 22 L 39 24 L 22 25 L 19 23 L 12 23 L 7 25 Z M 76 48 L 78 48 L 80 50 L 77 53 L 75 51 Z M 42 35 L 44 37 L 39 41 L 37 38 L 40 35 Z M 14 29 L 10 33 L 6 32 L 6 30 L 10 27 Z M 73 14 L 77 18 L 72 20 L 71 18 Z M 34 13 L 35 11 L 37 11 L 40 14 L 37 16 Z M 24 2 L 26 5 L 22 6 Z" fill="currentColor" fill-rule="evenodd"/>
</svg>
