<svg xmlns="http://www.w3.org/2000/svg" width="159" height="58" viewBox="0 0 159 58" role="img" aria-hidden="true">
  <path d="M 60 39 L 58 39 L 57 43 L 53 47 L 51 47 L 52 50 L 55 50 L 57 52 L 57 54 L 59 57 L 61 55 L 61 53 L 68 48 L 65 47 L 62 44 Z M 158 27 L 152 31 L 145 32 L 146 35 L 154 36 L 158 38 Z M 35 15 L 33 15 L 32 17 L 32 23 L 30 28 L 25 33 L 20 35 L 17 35 L 18 38 L 25 39 L 29 42 L 32 48 L 32 53 L 34 57 L 36 55 L 36 48 L 39 41 L 44 38 L 49 38 L 51 36 L 42 33 L 38 29 Z M 34 29 L 40 36 L 34 43 L 30 38 L 29 38 L 28 35 L 32 30 Z M 10 0 L 8 0 L 7 4 L 1 11 L 5 12 L 9 18 L 12 13 L 18 9 L 12 5 Z" fill="currentColor" fill-rule="evenodd"/>
</svg>
