<svg xmlns="http://www.w3.org/2000/svg" width="158" height="158" viewBox="0 0 158 158" role="img" aria-hidden="true">
  <path d="M 75 0 L 68 3 L 59 9 L 41 9 L 37 11 L 33 16 L 29 24 L 24 29 L 14 35 L 11 38 L 9 43 L 9 58 L 7 63 L 1 72 L 0 80 L 1 84 L 9 99 L 9 115 L 10 118 L 15 123 L 25 128 L 28 131 L 37 146 L 43 149 L 61 149 L 75 157 L 81 157 L 95 149 L 112 149 L 117 147 L 123 141 L 127 133 L 132 128 L 140 124 L 147 117 L 149 107 L 148 104 L 149 95 L 156 84 L 157 75 L 149 61 L 148 56 L 149 46 L 147 40 L 141 34 L 135 31 L 127 23 L 125 18 L 120 11 L 117 9 L 98 9 L 82 0 Z M 82 150 L 83 148 L 86 149 Z M 69 149 L 80 150 L 77 153 L 75 153 Z M 36 138 L 38 135 L 49 142 L 44 145 L 41 144 Z M 123 134 L 115 144 L 113 145 L 106 143 L 111 139 Z M 129 125 L 128 127 L 125 130 L 124 127 L 125 125 Z M 16 108 L 18 113 L 22 118 L 21 122 L 13 115 Z M 145 105 L 144 115 L 140 119 L 134 122 L 133 120 L 141 109 L 142 105 Z M 143 93 L 146 94 L 146 96 L 143 99 Z M 13 93 L 16 97 L 14 99 L 12 97 L 11 95 Z M 150 70 L 153 75 L 153 80 L 151 85 L 148 88 L 147 85 L 147 73 Z M 10 70 L 10 85 L 7 87 L 4 81 L 4 75 L 6 71 Z M 13 57 L 16 58 L 16 60 L 13 63 Z M 135 35 L 140 38 L 144 42 L 145 52 L 143 54 L 137 41 L 133 36 Z M 24 36 L 19 42 L 16 49 L 14 51 L 13 43 L 14 41 L 20 36 Z M 70 14 L 86 14 L 92 18 L 102 18 L 116 25 L 119 28 L 120 32 L 123 35 L 128 37 L 130 39 L 131 43 L 134 44 L 138 50 L 139 53 L 138 60 L 144 71 L 144 84 L 139 94 L 140 101 L 135 112 L 126 122 L 123 123 L 122 126 L 114 134 L 105 139 L 96 140 L 86 144 L 70 144 L 64 141 L 56 141 L 40 133 L 37 130 L 34 124 L 29 121 L 22 113 L 18 104 L 18 95 L 14 88 L 13 83 L 14 68 L 19 61 L 18 52 L 21 46 L 28 40 L 28 37 L 30 35 L 33 35 L 41 25 L 52 19 L 63 19 L 67 15 Z M 106 13 L 114 13 L 117 15 L 127 29 L 123 30 L 121 25 L 115 19 L 105 15 Z M 52 14 L 39 22 L 32 30 L 31 27 L 36 21 L 37 17 L 41 13 Z M 68 9 L 76 4 L 80 4 L 92 10 L 94 13 L 99 14 L 97 16 L 93 16 L 88 11 L 85 10 L 71 11 Z" fill="currentColor" fill-rule="evenodd"/>
</svg>
