<svg xmlns="http://www.w3.org/2000/svg" width="184" height="106" viewBox="0 0 184 106" role="img" aria-hidden="true">
  <path d="M 48 105 L 54 104 L 61 105 L 60 102 L 56 98 L 54 98 Z M 0 19 L 2 22 L 7 23 L 10 20 L 74 20 L 75 16 L 10 16 L 7 13 L 4 13 L 1 15 Z M 183 19 L 183 16 L 180 13 L 175 11 L 172 11 L 165 16 L 101 17 L 102 20 L 166 20 L 171 24 L 177 24 Z M 171 20 L 173 17 L 175 17 L 178 18 L 175 21 Z M 87 0 L 85 6 L 82 9 L 80 9 L 79 20 L 81 22 L 80 25 L 86 30 L 86 33 L 89 35 L 91 33 L 92 27 L 94 28 L 97 24 L 96 21 L 98 19 L 98 16 L 96 9 L 94 9 L 92 7 L 91 2 L 89 0 Z M 91 19 L 92 16 L 95 18 Z M 83 16 L 86 18 L 84 20 L 82 18 Z" fill="currentColor" fill-rule="evenodd"/>
</svg>
