<svg xmlns="http://www.w3.org/2000/svg" width="142" height="115" viewBox="0 0 142 115" role="img" aria-hidden="true">
  <path d="M 56 114 L 110 114 L 105 111 L 91 112 L 88 110 L 96 105 L 100 105 L 112 111 L 114 114 L 141 114 L 140 112 L 137 110 L 118 110 L 102 101 L 92 102 L 79 110 L 61 110 L 57 112 Z M 52 15 L 50 17 L 50 21 L 52 23 L 56 23 L 59 18 L 56 15 Z M 52 2 L 50 4 L 50 7 L 51 9 L 55 12 L 59 8 L 59 4 L 57 2 Z M 0 0 L 1 59 L 3 57 L 6 46 L 6 48 L 11 51 L 15 48 L 16 45 L 13 41 L 8 41 L 5 44 L 6 5 L 10 10 L 9 23 L 11 30 L 15 37 L 26 46 L 28 43 L 27 29 L 25 23 L 26 20 L 29 24 L 37 31 L 48 35 L 52 34 L 48 22 L 40 14 L 31 9 L 37 8 L 44 4 L 46 4 L 47 0 L 30 0 L 16 5 L 11 4 L 4 0 Z M 34 20 L 38 22 L 36 19 L 39 18 L 44 23 L 47 28 L 45 30 L 42 29 L 42 26 L 38 27 L 36 26 Z M 13 15 L 15 15 L 21 23 L 23 30 L 21 32 L 18 27 L 13 24 L 12 20 Z M 18 12 L 21 11 L 24 13 L 26 16 L 25 21 Z M 24 8 L 26 11 L 23 10 Z" fill="currentColor" fill-rule="evenodd"/>
</svg>
