<svg xmlns="http://www.w3.org/2000/svg" width="374" height="34" viewBox="0 0 374 34" role="img" aria-hidden="true">
  <path d="M 185 12 L 180 15 L 179 22 L 182 26 L 188 27 L 192 24 L 194 19 L 193 16 L 190 13 Z M 185 16 L 187 16 L 190 19 L 190 21 L 186 24 L 183 21 L 183 18 Z M 204 18 L 205 21 L 211 24 L 226 29 L 239 31 L 258 32 L 286 29 L 301 25 L 313 25 L 325 29 L 333 33 L 335 30 L 326 25 L 320 23 L 321 20 L 352 11 L 365 11 L 371 13 L 372 9 L 364 7 L 346 8 L 322 16 L 298 22 L 298 18 L 304 14 L 312 5 L 307 4 L 302 10 L 296 15 L 295 12 L 298 8 L 297 5 L 294 5 L 290 11 L 288 19 L 281 25 L 262 27 L 244 27 L 236 26 L 228 23 L 230 21 L 236 20 L 244 16 L 253 6 L 255 0 L 232 0 L 220 5 L 207 18 Z M 249 5 L 241 13 L 236 16 L 222 19 L 221 17 L 223 15 L 228 14 L 230 11 L 220 14 L 220 10 L 228 5 L 238 3 L 245 3 Z M 168 19 L 164 18 L 153 6 L 144 1 L 140 0 L 117 0 L 119 6 L 128 16 L 135 20 L 144 23 L 142 25 L 128 27 L 109 27 L 90 25 L 84 20 L 83 13 L 77 5 L 74 5 L 74 8 L 77 13 L 75 15 L 64 4 L 61 4 L 61 7 L 75 20 L 73 22 L 64 20 L 57 17 L 49 16 L 33 10 L 20 7 L 8 7 L 0 9 L 1 13 L 7 11 L 20 11 L 50 20 L 52 22 L 50 24 L 37 29 L 36 33 L 39 33 L 49 28 L 59 25 L 69 25 L 80 28 L 100 31 L 134 31 L 145 29 L 157 25 L 166 21 Z M 123 5 L 127 3 L 140 4 L 146 6 L 152 11 L 150 13 L 141 11 L 142 13 L 148 16 L 146 18 L 140 18 L 132 14 Z" fill="currentColor" fill-rule="evenodd"/>
</svg>
