<svg xmlns="http://www.w3.org/2000/svg" width="147" height="46" viewBox="0 0 147 46" role="img" aria-hidden="true">
  <path d="M 27 37 L 23 37 L 21 40 L 21 42 L 25 45 L 30 40 Z M 44 16 L 42 16 L 42 19 L 39 22 L 37 22 L 37 24 L 42 28 L 43 31 L 46 26 L 48 26 L 51 23 L 48 22 L 45 19 Z M 8 16 L 6 16 L 6 18 L 1 22 L 0 24 L 3 26 L 7 31 L 10 26 L 12 26 L 13 22 L 11 22 L 9 20 Z M 23 3 L 21 5 L 21 8 L 26 11 L 30 6 L 27 3 Z M 146 0 L 144 2 L 142 5 L 144 5 L 146 6 Z" fill="currentColor" fill-rule="evenodd"/>
</svg>
