<svg xmlns="http://www.w3.org/2000/svg" width="200" height="194" viewBox="0 0 200 194" role="img" aria-hidden="true">
  <path d="M 159 15 L 148 9 L 144 8 L 142 6 L 136 5 L 129 2 L 115 0 L 97 0 L 87 2 L 68 8 L 56 15 L 37 33 L 31 44 L 28 47 L 22 30 L 19 31 L 14 46 L 13 61 L 16 75 L 19 80 L 20 84 L 20 91 L 18 93 L 13 82 L 2 70 L 0 70 L 0 84 L 3 95 L 12 105 L 18 108 L 23 113 L 26 120 L 26 123 L 31 131 L 29 133 L 18 125 L 17 119 L 14 117 L 9 117 L 7 119 L 7 124 L 9 127 L 13 129 L 18 128 L 28 134 L 34 139 L 41 147 L 40 150 L 32 144 L 24 141 L 8 140 L 8 143 L 12 148 L 22 155 L 29 157 L 45 157 L 51 159 L 55 162 L 55 165 L 50 176 L 43 188 L 44 193 L 52 193 L 64 189 L 70 185 L 76 183 L 82 178 L 95 181 L 114 182 L 137 177 L 147 173 L 159 166 L 169 158 L 180 147 L 189 132 L 196 113 L 199 97 L 198 76 L 195 63 L 187 45 L 178 32 Z M 15 146 L 16 144 L 23 144 L 27 150 L 33 152 L 31 154 L 28 154 L 21 151 Z M 57 117 L 60 118 L 61 121 L 61 132 L 60 136 L 57 140 L 56 137 L 58 127 L 55 128 L 55 133 L 53 135 L 52 126 L 55 119 Z M 29 110 L 31 112 L 31 116 L 29 118 Z M 44 85 L 44 93 L 41 97 L 39 95 L 37 95 L 37 97 L 35 99 L 34 96 L 39 86 L 41 84 Z M 6 79 L 12 87 L 9 89 L 9 92 L 13 98 L 11 99 L 7 94 L 3 83 Z M 20 40 L 23 41 L 25 49 L 25 65 L 23 67 L 20 53 L 20 65 L 18 67 L 17 60 L 16 59 L 17 48 Z M 151 16 L 160 22 L 164 27 L 167 28 L 175 36 L 186 53 L 192 70 L 194 81 L 194 98 L 193 105 L 188 123 L 182 135 L 173 147 L 162 158 L 155 163 L 140 171 L 127 175 L 111 177 L 100 177 L 88 175 L 85 173 L 81 173 L 68 182 L 53 187 L 51 185 L 51 183 L 59 166 L 61 166 L 63 163 L 59 161 L 56 157 L 57 147 L 61 141 L 65 131 L 62 111 L 61 109 L 58 108 L 50 122 L 49 126 L 49 142 L 52 150 L 50 152 L 44 146 L 34 129 L 34 115 L 37 110 L 43 104 L 46 98 L 47 93 L 46 76 L 44 76 L 35 86 L 31 96 L 30 107 L 28 109 L 25 105 L 23 95 L 24 91 L 23 81 L 28 67 L 29 59 L 36 43 L 45 31 L 59 19 L 72 12 L 90 6 L 98 5 L 118 5 L 126 8 L 135 9 Z M 131 88 L 131 95 L 134 98 L 138 98 L 141 95 L 142 90 L 139 87 L 133 87 Z M 81 88 L 80 90 L 81 95 L 84 98 L 88 98 L 91 95 L 92 91 L 89 87 Z M 109 86 L 105 88 L 105 94 L 107 97 L 112 98 L 117 92 L 114 87 Z" fill="currentColor" fill-rule="evenodd"/>
</svg>
