<svg xmlns="http://www.w3.org/2000/svg" width="207" height="183" viewBox="0 0 207 183" role="img" aria-hidden="true">
  <path d="M 18 12 L 16 15 L 15 29 L 16 53 L 15 58 L 1 72 L 0 124 L 1 173 L 2 175 L 9 181 L 28 182 L 122 181 L 129 179 L 143 179 L 149 181 L 154 181 L 163 179 L 173 174 L 174 170 L 161 167 L 154 167 L 143 171 L 138 171 L 148 160 L 151 160 L 158 156 L 174 155 L 185 150 L 199 134 L 192 133 L 175 137 L 169 141 L 154 156 L 153 154 L 161 143 L 164 137 L 167 134 L 168 131 L 178 121 L 189 116 L 195 116 L 197 115 L 201 111 L 206 101 L 205 97 L 203 97 L 191 102 L 188 104 L 182 111 L 180 115 L 175 120 L 174 116 L 180 99 L 189 85 L 191 77 L 190 63 L 187 54 L 184 55 L 184 57 L 179 64 L 175 75 L 176 103 L 172 116 L 170 118 L 169 123 L 166 127 L 165 72 L 163 69 L 151 60 L 151 66 L 154 70 L 157 71 L 158 74 L 149 82 L 148 18 L 147 15 L 143 11 L 141 10 L 108 9 L 98 10 L 85 0 L 79 0 L 75 4 L 73 4 L 66 10 L 33 9 L 22 10 Z M 146 176 L 146 174 L 149 171 L 167 173 L 165 175 L 157 178 L 148 178 Z M 152 148 L 152 150 L 145 158 L 144 155 L 148 148 Z M 192 138 L 184 146 L 181 147 L 176 151 L 170 152 L 167 150 L 167 146 L 173 142 L 176 142 L 185 137 Z M 148 121 L 150 129 L 150 136 L 147 146 L 144 149 L 142 144 L 142 128 L 144 122 Z M 161 106 L 161 108 L 159 110 Z M 201 104 L 197 109 L 192 110 L 188 115 L 186 116 L 183 114 L 189 107 L 195 103 L 198 102 Z M 7 80 L 43 111 L 47 113 L 58 124 L 64 127 L 69 132 L 82 141 L 84 141 L 100 127 L 104 125 L 115 116 L 121 110 L 123 110 L 133 100 L 139 97 L 155 82 L 158 80 L 161 81 L 161 101 L 157 104 L 157 110 L 160 113 L 161 116 L 161 134 L 160 138 L 154 146 L 151 145 L 153 125 L 148 113 L 145 113 L 141 122 L 138 134 L 138 140 L 140 145 L 140 151 L 142 153 L 141 160 L 131 171 L 120 177 L 12 177 L 10 176 L 6 171 L 5 159 L 6 136 L 5 123 L 6 90 L 5 89 Z M 12 69 L 15 70 L 16 79 L 14 81 L 11 79 L 7 74 L 8 72 Z M 185 62 L 187 64 L 188 75 L 187 81 L 184 84 L 182 80 L 179 81 L 178 73 L 183 63 Z M 21 17 L 25 14 L 85 14 L 89 15 L 100 14 L 138 14 L 141 15 L 144 19 L 143 32 L 144 85 L 134 93 L 130 98 L 122 103 L 97 125 L 83 135 L 80 135 L 72 128 L 71 125 L 63 121 L 53 112 L 43 105 L 37 99 L 32 96 L 20 85 L 21 75 L 20 25 Z M 114 28 L 107 29 L 98 34 L 95 37 L 91 45 L 89 55 L 77 70 L 76 66 L 79 61 L 81 48 L 78 39 L 75 37 L 75 39 L 69 49 L 69 66 L 71 70 L 71 76 L 63 92 L 60 95 L 59 90 L 62 85 L 62 73 L 57 61 L 55 59 L 53 59 L 51 64 L 50 77 L 51 83 L 58 95 L 58 100 L 55 107 L 56 111 L 58 109 L 60 104 L 67 99 L 70 99 L 72 101 L 87 100 L 98 92 L 90 89 L 78 89 L 64 95 L 70 85 L 79 77 L 83 76 L 89 78 L 97 78 L 106 74 L 115 67 L 113 65 L 99 64 L 93 65 L 81 71 L 81 69 L 92 56 L 102 51 L 108 45 L 114 33 Z M 77 97 L 78 92 L 81 91 L 87 91 L 91 93 L 84 98 L 79 99 Z M 94 72 L 97 70 L 98 67 L 107 69 L 102 73 L 97 75 Z M 57 67 L 60 77 L 60 82 L 57 87 L 53 80 L 53 70 Z M 77 46 L 78 56 L 76 58 L 76 61 L 73 64 L 71 61 L 71 53 L 73 47 Z M 110 34 L 107 41 L 98 50 L 95 49 L 94 45 L 96 41 L 102 35 L 106 33 Z M 79 8 L 80 5 L 85 5 L 87 7 L 85 9 Z" fill="currentColor" fill-rule="evenodd"/>
</svg>
