<svg xmlns="http://www.w3.org/2000/svg" width="296" height="190" viewBox="0 0 296 190" role="img" aria-hidden="true">
  <path d="M 260 105 L 261 108 L 276 113 L 289 113 L 295 111 L 295 103 L 286 100 L 276 100 Z M 270 105 L 276 103 L 288 104 L 286 106 L 280 106 L 281 108 L 289 109 L 287 111 L 279 111 L 270 108 Z M 32 22 L 25 29 L 12 47 L 4 66 L 0 85 L 0 103 L 2 117 L 8 134 L 19 153 L 33 167 L 51 180 L 57 181 L 71 187 L 96 189 L 108 187 L 121 183 L 142 172 L 159 173 L 167 171 L 170 168 L 173 167 L 176 163 L 169 161 L 161 161 L 153 164 L 152 161 L 166 148 L 169 148 L 175 145 L 184 144 L 191 141 L 199 134 L 205 126 L 205 122 L 195 123 L 192 125 L 189 125 L 177 133 L 174 138 L 170 142 L 169 139 L 173 134 L 178 122 L 183 115 L 199 100 L 199 98 L 201 96 L 203 91 L 203 85 L 205 79 L 204 73 L 202 73 L 192 83 L 187 92 L 186 101 L 184 103 L 183 97 L 184 77 L 182 71 L 183 64 L 185 63 L 186 61 L 186 57 L 189 50 L 191 50 L 194 47 L 194 43 L 192 41 L 186 42 L 187 50 L 185 53 L 185 56 L 183 58 L 183 61 L 181 63 L 175 46 L 163 31 L 162 28 L 158 26 L 151 18 L 146 16 L 141 12 L 129 7 L 125 4 L 116 3 L 106 0 L 81 0 L 76 2 L 67 3 L 58 6 L 44 13 Z M 167 166 L 164 169 L 161 170 L 154 169 L 154 167 L 156 165 L 160 164 Z M 148 131 L 149 133 L 149 141 L 147 148 L 145 150 L 141 147 L 141 144 L 142 143 L 142 139 L 144 132 Z M 200 127 L 191 137 L 181 142 L 180 139 L 185 135 L 182 133 L 184 131 L 192 127 L 196 127 L 197 126 Z M 166 97 L 168 99 L 170 104 L 171 111 L 169 113 L 166 108 L 165 111 L 166 116 L 164 118 L 162 113 L 163 99 Z M 202 82 L 200 91 L 197 97 L 193 101 L 192 98 L 193 95 L 191 94 L 191 91 L 193 89 L 193 87 L 199 81 Z M 89 4 L 112 6 L 129 11 L 142 18 L 152 26 L 162 36 L 171 50 L 178 66 L 181 81 L 181 90 L 179 92 L 180 103 L 175 123 L 170 130 L 169 126 L 172 118 L 173 106 L 169 91 L 166 88 L 164 88 L 159 108 L 160 119 L 165 134 L 163 143 L 156 152 L 141 166 L 140 163 L 141 161 L 146 157 L 146 154 L 151 146 L 151 127 L 149 121 L 146 122 L 141 131 L 141 133 L 139 135 L 138 141 L 139 160 L 134 169 L 128 175 L 111 182 L 99 184 L 76 183 L 66 179 L 59 178 L 54 174 L 46 171 L 34 162 L 20 146 L 18 141 L 15 138 L 12 132 L 6 113 L 4 97 L 5 82 L 7 71 L 11 59 L 19 44 L 24 37 L 39 22 L 42 21 L 48 16 L 54 13 L 65 10 L 70 7 Z M 142 95 L 122 74 L 112 65 L 108 66 L 108 69 L 129 90 L 127 92 L 80 93 L 53 92 L 44 94 L 45 98 L 47 99 L 128 100 L 128 102 L 117 112 L 108 122 L 108 125 L 110 127 L 112 126 Z M 165 63 L 163 65 L 164 72 L 169 73 L 172 76 L 177 86 L 177 90 L 178 86 L 176 85 L 177 82 L 171 73 L 172 65 L 169 63 Z" fill="currentColor" fill-rule="evenodd"/>
</svg>
