<svg xmlns="http://www.w3.org/2000/svg" width="208" height="192" viewBox="0 0 208 192" role="img" aria-hidden="true">
  <path d="M 98 140 L 97 142 L 97 148 L 98 150 L 107 151 L 109 149 L 108 140 Z M 65 141 L 66 151 L 68 152 L 73 152 L 77 149 L 77 142 L 75 140 Z M 32 140 L 32 149 L 35 152 L 40 152 L 44 149 L 43 140 Z M 130 112 L 130 121 L 132 123 L 139 123 L 142 120 L 142 114 L 141 112 Z M 98 112 L 97 114 L 97 119 L 99 123 L 106 123 L 109 120 L 109 113 L 107 111 Z M 65 112 L 65 121 L 67 123 L 74 123 L 77 120 L 77 113 L 75 111 Z M 32 112 L 32 120 L 33 122 L 41 123 L 44 120 L 44 113 L 42 111 Z M 98 83 L 97 91 L 99 95 L 105 95 L 109 92 L 108 83 Z M 65 84 L 66 94 L 68 95 L 73 95 L 77 91 L 77 85 L 75 83 Z M 132 82 L 130 84 L 130 92 L 133 95 L 139 95 L 142 92 L 142 85 L 140 83 Z M 32 83 L 33 94 L 35 95 L 40 95 L 44 92 L 43 83 L 36 82 Z M 195 60 L 193 60 L 185 76 L 184 81 L 184 94 L 186 100 L 186 109 L 181 121 L 181 124 L 172 141 L 170 143 L 169 140 L 173 132 L 175 122 L 175 112 L 172 103 L 167 93 L 165 93 L 163 102 L 160 109 L 160 125 L 165 138 L 164 151 L 145 171 L 139 173 L 139 171 L 148 158 L 150 149 L 149 134 L 147 130 L 145 130 L 140 137 L 136 147 L 136 172 L 128 181 L 126 181 L 123 184 L 112 188 L 106 188 L 107 191 L 119 189 L 142 179 L 150 179 L 154 181 L 165 182 L 177 178 L 182 174 L 177 171 L 173 170 L 157 170 L 152 173 L 149 172 L 160 162 L 167 158 L 183 156 L 193 152 L 203 142 L 207 136 L 201 135 L 195 136 L 186 140 L 182 140 L 175 148 L 172 150 L 171 148 L 184 128 L 188 125 L 190 125 L 193 120 L 196 118 L 203 119 L 207 115 L 207 108 L 205 107 L 199 107 L 196 110 L 196 115 L 186 123 L 185 120 L 190 102 L 192 100 L 192 98 L 199 85 L 199 72 Z M 159 178 L 160 174 L 171 173 L 173 175 L 171 177 L 165 179 Z M 200 140 L 198 143 L 189 151 L 184 153 L 180 151 L 183 148 L 181 149 L 180 147 L 185 143 L 192 140 L 196 140 L 197 139 Z M 145 138 L 147 140 L 147 151 L 145 157 L 139 162 L 138 153 L 139 148 L 143 139 Z M 200 111 L 204 113 L 201 116 L 199 114 Z M 167 102 L 169 104 L 171 110 L 172 124 L 170 126 L 167 116 L 167 129 L 165 131 L 163 126 L 163 115 L 164 107 Z M 193 83 L 195 85 L 195 87 L 193 89 Z M 195 69 L 196 71 L 196 81 L 190 83 L 190 85 L 188 87 L 187 81 L 191 70 Z M 35 1 L 32 4 L 32 13 L 29 16 L 16 16 L 7 19 L 3 24 L 1 29 L 0 40 L 0 148 L 2 164 L 4 168 L 10 174 L 18 177 L 110 177 L 114 174 L 114 172 L 19 172 L 13 170 L 8 165 L 6 160 L 5 134 L 6 125 L 5 77 L 7 62 L 12 61 L 30 62 L 46 61 L 86 62 L 99 61 L 164 61 L 171 63 L 171 86 L 174 84 L 175 81 L 175 31 L 171 22 L 163 17 L 160 16 L 146 16 L 144 14 L 144 5 L 138 0 L 133 0 L 128 3 L 127 5 L 127 13 L 124 16 L 50 15 L 50 10 L 48 4 L 45 1 L 42 0 Z M 6 30 L 7 28 L 15 21 L 29 21 L 32 24 L 32 32 L 33 34 L 38 38 L 42 38 L 46 36 L 50 30 L 50 21 L 125 21 L 127 23 L 127 32 L 129 35 L 133 38 L 138 38 L 144 32 L 146 21 L 160 21 L 164 23 L 170 30 L 171 34 L 170 54 L 168 56 L 146 57 L 145 56 L 136 57 L 82 57 L 79 56 L 78 57 L 38 57 L 5 55 Z M 133 5 L 137 5 L 140 9 L 140 29 L 135 33 L 131 29 Z M 38 5 L 42 5 L 45 9 L 45 28 L 41 33 L 39 33 L 36 30 L 36 10 Z" fill="currentColor" fill-rule="evenodd"/>
</svg>
