<svg xmlns="http://www.w3.org/2000/svg" width="210" height="337" viewBox="0 0 210 337" role="img" aria-hidden="true">
  <path d="M 67 328 L 64 327 L 56 336 L 60 336 Z M 86 326 L 88 327 L 103 328 L 107 329 L 121 336 L 128 336 L 120 331 L 106 326 L 101 325 Z M 82 122 L 80 123 L 77 127 L 77 135 L 82 140 L 88 140 L 93 135 L 94 129 L 92 125 L 88 122 Z M 92 38 L 82 38 L 72 41 L 68 43 L 62 49 L 60 53 L 60 63 L 64 67 L 67 68 L 72 66 L 74 64 L 76 60 L 74 55 L 74 50 L 75 48 L 80 44 L 89 44 L 93 46 L 98 53 L 99 56 L 99 68 L 98 71 L 92 81 L 85 89 L 80 101 L 80 109 L 81 111 L 85 113 L 88 110 L 89 101 L 92 95 L 107 82 L 113 74 L 116 65 L 115 56 L 112 50 L 105 43 Z M 180 37 L 178 38 L 178 41 L 172 55 L 170 64 L 171 78 L 176 92 L 176 101 L 173 110 L 171 112 L 170 99 L 168 90 L 158 74 L 156 73 L 156 81 L 154 87 L 154 102 L 159 115 L 163 122 L 162 130 L 157 142 L 151 150 L 139 162 L 128 171 L 123 172 L 124 168 L 137 155 L 145 140 L 145 128 L 144 120 L 143 119 L 143 113 L 141 113 L 128 133 L 126 139 L 126 148 L 125 149 L 126 163 L 122 170 L 107 183 L 71 198 L 71 202 L 78 198 L 91 193 L 112 187 L 117 187 L 124 189 L 135 195 L 148 196 L 156 194 L 166 189 L 172 184 L 163 182 L 151 177 L 145 176 L 138 176 L 119 181 L 142 165 L 148 163 L 167 164 L 174 162 L 182 158 L 191 150 L 201 136 L 186 139 L 180 139 L 170 142 L 150 156 L 158 147 L 169 130 L 177 123 L 191 118 L 199 111 L 205 100 L 209 86 L 206 86 L 197 92 L 195 92 L 185 100 L 176 115 L 175 110 L 176 109 L 177 99 L 179 92 L 185 82 L 188 73 L 188 61 L 187 56 Z M 128 186 L 146 185 L 136 184 L 132 180 L 136 179 L 147 179 L 159 183 L 163 186 L 155 191 L 146 193 L 140 193 L 133 191 L 130 189 Z M 192 143 L 191 145 L 177 158 L 170 160 L 164 159 L 161 161 L 159 158 L 163 157 L 177 150 L 179 147 L 173 150 L 163 151 L 167 147 L 172 144 L 188 141 Z M 141 123 L 142 136 L 140 147 L 138 150 L 133 151 L 136 140 L 134 141 L 133 147 L 131 152 L 129 154 L 128 143 L 130 136 L 137 124 Z M 170 118 L 170 120 L 169 122 L 167 124 L 166 121 Z M 203 93 L 203 96 L 199 106 L 188 117 L 186 118 L 183 116 L 191 108 L 193 104 L 185 106 L 186 104 L 196 95 Z M 158 84 L 161 84 L 165 91 L 167 98 L 167 106 L 165 108 L 161 98 L 163 106 L 163 111 L 161 113 L 159 111 L 156 101 L 156 92 Z M 181 49 L 185 61 L 185 75 L 183 81 L 181 83 L 178 65 L 178 72 L 177 76 L 175 78 L 173 70 L 173 63 L 177 50 Z M 70 14 L 64 14 L 56 16 L 42 23 L 35 28 L 22 42 L 18 48 L 13 59 L 10 72 L 11 93 L 12 74 L 16 58 L 25 42 L 38 28 L 44 24 L 56 18 Z M 134 14 L 114 4 L 96 0 L 76 0 L 64 2 L 52 6 L 39 13 L 29 20 L 16 34 L 11 42 L 4 57 L 0 75 L 0 97 L 1 104 L 5 117 L 11 129 L 17 138 L 27 148 L 27 154 L 23 170 L 20 176 L 21 183 L 38 177 L 53 169 L 56 169 L 59 171 L 74 175 L 99 175 L 113 171 L 118 166 L 118 164 L 112 167 L 100 170 L 88 171 L 74 170 L 62 167 L 56 164 L 52 164 L 28 176 L 26 174 L 30 161 L 32 147 L 19 133 L 11 119 L 6 105 L 4 88 L 6 67 L 11 52 L 18 39 L 35 21 L 48 13 L 64 7 L 73 5 L 87 4 L 98 5 L 108 7 L 122 12 L 139 23 L 154 39 L 160 49 L 164 59 L 166 57 L 166 53 L 164 51 L 161 42 L 152 30 L 143 21 Z" fill="currentColor" fill-rule="evenodd"/>
</svg>
