<svg xmlns="http://www.w3.org/2000/svg" width="286" height="337" viewBox="0 0 286 337" role="img" aria-hidden="true">
  <path d="M 168 325 L 167 336 L 172 336 L 172 327 L 170 325 Z M 3 86 L 0 86 L 0 97 L 0 95 L 1 94 Z M 192 59 L 189 59 L 184 61 L 175 68 L 170 74 L 164 87 L 163 92 L 163 105 L 164 109 L 167 115 L 171 119 L 175 121 L 185 121 L 192 116 L 195 110 L 194 100 L 189 95 L 184 93 L 175 92 L 175 83 L 177 78 L 181 72 L 186 67 L 192 64 L 194 61 Z M 147 58 L 132 69 L 125 80 L 122 88 L 121 95 L 122 106 L 125 114 L 131 120 L 138 122 L 145 120 L 152 113 L 154 107 L 153 102 L 149 96 L 142 93 L 135 93 L 133 91 L 133 85 L 136 77 L 142 69 L 153 61 L 152 59 Z M 257 49 L 255 55 L 247 69 L 245 77 L 245 92 L 250 107 L 250 117 L 245 121 L 243 109 L 239 101 L 234 95 L 230 92 L 229 105 L 230 118 L 239 136 L 237 145 L 230 156 L 214 171 L 213 168 L 222 157 L 227 143 L 227 136 L 225 128 L 221 120 L 218 120 L 217 125 L 212 136 L 211 142 L 211 149 L 213 154 L 214 162 L 213 166 L 209 172 L 202 179 L 198 180 L 194 184 L 179 191 L 176 189 L 180 185 L 190 179 L 195 174 L 198 166 L 200 156 L 198 148 L 184 162 L 180 172 L 180 176 L 178 182 L 175 187 L 172 190 L 160 197 L 153 198 L 148 200 L 149 202 L 154 202 L 171 197 L 185 197 L 196 203 L 202 205 L 214 205 L 224 202 L 226 200 L 216 193 L 195 187 L 207 180 L 216 177 L 223 177 L 232 181 L 245 182 L 257 178 L 266 172 L 263 170 L 249 165 L 234 165 L 225 169 L 221 173 L 220 170 L 229 162 L 237 153 L 242 150 L 260 147 L 270 142 L 278 134 L 285 122 L 285 120 L 282 120 L 275 123 L 268 124 L 260 127 L 249 137 L 246 143 L 243 146 L 242 142 L 245 138 L 251 124 L 253 110 L 260 100 L 265 88 L 265 74 L 264 69 L 260 58 L 260 54 Z M 195 197 L 202 198 L 205 196 L 198 194 L 199 192 L 202 192 L 210 194 L 218 199 L 216 201 L 211 202 L 201 202 L 195 200 Z M 231 175 L 246 172 L 242 172 L 237 170 L 238 168 L 252 169 L 256 171 L 257 173 L 251 177 L 244 178 L 239 180 L 234 179 Z M 197 157 L 195 165 L 193 167 L 189 168 L 185 176 L 182 179 L 181 176 L 187 163 L 194 156 Z M 220 129 L 223 133 L 224 142 L 222 144 L 219 142 L 217 144 L 216 150 L 214 143 L 214 139 L 217 131 Z M 278 127 L 273 135 L 265 142 L 257 145 L 253 143 L 267 134 L 268 132 L 266 132 L 256 138 L 255 135 L 258 132 L 271 126 Z M 243 125 L 246 126 L 246 128 L 244 130 Z M 234 101 L 240 109 L 240 111 L 237 113 L 237 117 L 239 124 L 237 126 L 233 119 L 232 113 Z M 254 62 L 258 62 L 262 75 L 262 86 L 260 93 L 256 99 L 255 85 L 253 85 L 252 95 L 250 97 L 248 91 L 248 78 Z M 141 15 L 129 19 L 111 29 L 103 36 L 95 46 L 86 62 L 83 72 L 80 87 L 81 97 L 80 102 L 83 117 L 88 131 L 91 137 L 101 151 L 109 159 L 122 168 L 130 172 L 139 174 L 145 177 L 155 176 L 150 176 L 138 173 L 124 167 L 114 160 L 101 147 L 94 137 L 89 126 L 84 109 L 83 88 L 86 72 L 91 58 L 98 46 L 110 33 L 121 25 L 131 20 L 146 15 Z M 180 1 L 157 0 L 138 3 L 127 7 L 110 16 L 100 24 L 90 35 L 82 47 L 77 57 L 72 72 L 70 85 L 70 107 L 76 129 L 82 142 L 89 153 L 95 160 L 107 171 L 117 178 L 139 187 L 150 189 L 162 189 L 164 187 L 140 183 L 129 179 L 114 171 L 104 163 L 94 152 L 82 132 L 76 114 L 75 108 L 75 81 L 79 64 L 88 45 L 93 38 L 108 23 L 122 14 L 134 9 L 150 5 L 177 5 L 191 8 L 199 11 L 209 16 L 221 24 L 233 36 L 241 48 L 242 46 L 233 31 L 219 18 L 198 6 Z" fill="currentColor" fill-rule="evenodd"/>
</svg>
