<svg xmlns="http://www.w3.org/2000/svg" width="221" height="334" viewBox="0 0 221 334" role="img" aria-hidden="true">
  <path d="M 108 184 L 104 187 L 103 189 L 103 194 L 106 198 L 111 199 L 116 195 L 117 189 L 114 185 Z M 108 188 L 110 188 L 112 191 L 110 193 L 107 192 Z M 14 156 L 14 158 L 25 169 L 30 172 L 37 174 L 53 173 L 63 177 L 67 180 L 65 182 L 55 183 L 46 187 L 42 187 L 44 190 L 50 193 L 57 195 L 66 195 L 70 194 L 79 189 L 90 189 L 98 191 L 100 189 L 87 185 L 83 181 L 81 177 L 80 171 L 76 164 L 63 152 L 61 152 L 63 162 L 66 170 L 69 174 L 72 176 L 72 179 L 70 179 L 68 177 L 64 176 L 55 167 L 54 164 L 54 150 L 53 146 L 47 135 L 44 134 L 44 138 L 43 139 L 43 152 L 45 160 L 41 159 L 39 161 L 31 158 Z M 53 189 L 54 187 L 59 187 L 60 189 L 67 190 L 65 192 L 59 192 L 55 191 Z M 23 163 L 24 161 L 31 166 L 40 169 L 38 171 L 31 169 Z M 68 160 L 73 168 L 69 169 L 66 163 Z M 47 143 L 49 145 L 51 150 L 48 153 L 45 150 Z M 218 114 L 201 125 L 196 132 L 195 129 L 197 125 L 192 132 L 192 125 L 190 117 L 187 112 L 186 108 L 184 107 L 182 113 L 182 128 L 186 137 L 186 145 L 182 150 L 182 152 L 180 155 L 169 166 L 168 164 L 172 160 L 177 149 L 175 134 L 172 135 L 167 143 L 165 151 L 166 163 L 163 169 L 159 173 L 148 180 L 141 183 L 140 181 L 148 176 L 155 166 L 158 153 L 153 154 L 147 159 L 142 165 L 137 180 L 134 183 L 127 187 L 120 188 L 121 191 L 128 189 L 140 189 L 152 195 L 163 195 L 176 190 L 178 187 L 174 187 L 168 184 L 154 180 L 160 175 L 169 172 L 179 174 L 187 173 L 196 168 L 203 161 L 205 157 L 193 157 L 184 159 L 177 163 L 176 161 L 183 154 L 189 146 L 195 143 L 198 143 L 203 141 L 214 131 L 218 122 L 219 117 Z M 152 189 L 159 188 L 157 187 L 159 185 L 163 186 L 167 189 L 165 191 L 161 192 Z M 198 162 L 189 169 L 186 170 L 184 167 L 187 166 L 190 161 Z M 151 160 L 153 163 L 149 168 L 147 167 L 146 165 L 147 163 Z M 174 145 L 174 149 L 169 154 L 168 150 L 170 145 Z M 206 134 L 203 137 L 202 135 Z M 214 122 L 212 128 L 207 133 L 206 129 L 203 131 L 202 129 L 206 125 Z M 187 118 L 189 123 L 186 127 L 184 124 Z M 0 114 L 3 125 L 8 134 L 13 139 L 18 142 L 29 146 L 35 153 L 39 155 L 38 151 L 34 144 L 35 136 L 38 129 L 38 116 L 36 107 L 34 108 L 30 115 L 28 124 L 29 131 L 27 133 L 25 131 L 23 125 L 22 130 L 17 124 L 14 123 L 2 114 Z M 15 132 L 17 138 L 13 134 Z M 6 124 L 8 122 L 14 126 L 19 131 L 17 132 L 13 129 L 14 132 L 12 133 L 9 130 Z M 35 119 L 35 126 L 32 128 L 30 126 L 31 120 Z M 217 69 L 214 71 L 208 80 L 205 88 L 202 91 L 200 90 L 201 97 L 199 99 L 195 88 L 189 82 L 184 79 L 184 86 L 186 93 L 188 97 L 198 109 L 198 121 L 201 116 L 201 112 L 203 108 L 212 99 L 217 91 L 218 87 Z M 189 86 L 193 90 L 194 96 L 192 98 L 187 89 Z M 216 80 L 214 89 L 212 91 L 208 88 L 208 86 L 210 82 Z M 198 30 L 198 33 L 195 40 L 194 46 L 195 56 L 192 58 L 191 62 L 186 57 L 175 52 L 173 52 L 173 54 L 177 61 L 183 67 L 193 72 L 197 76 L 200 85 L 200 70 L 201 69 L 201 66 L 205 59 L 206 50 L 205 49 L 204 40 Z M 180 60 L 182 58 L 188 63 L 185 65 Z M 201 42 L 203 48 L 201 50 L 197 49 L 197 46 Z M 111 30 L 108 31 L 96 68 L 92 72 L 69 73 L 63 72 L 53 73 L 53 76 L 83 99 L 85 102 L 83 105 L 80 115 L 80 119 L 74 136 L 75 143 L 108 120 L 111 120 L 115 122 L 133 136 L 145 143 L 146 139 L 136 105 L 136 100 L 153 86 L 162 80 L 168 74 L 156 72 L 127 72 L 124 68 Z M 108 47 L 112 47 L 121 76 L 155 78 L 150 83 L 130 97 L 130 103 L 138 129 L 136 131 L 111 113 L 108 113 L 99 119 L 94 124 L 82 130 L 85 117 L 91 99 L 80 90 L 69 83 L 66 77 L 97 77 L 100 73 Z M 20 30 L 14 45 L 14 58 L 19 69 L 19 83 L 16 88 L 5 70 L 2 69 L 2 87 L 5 96 L 18 111 L 21 123 L 23 121 L 22 108 L 32 96 L 36 84 L 34 79 L 24 89 L 22 94 L 22 98 L 20 100 L 19 95 L 21 79 L 23 75 L 27 71 L 33 69 L 41 62 L 46 52 L 41 53 L 32 57 L 28 62 L 27 58 L 30 54 L 26 52 L 23 35 Z M 32 89 L 30 93 L 28 95 L 27 90 L 28 88 Z M 7 80 L 11 85 L 8 87 L 7 94 L 5 88 Z M 40 59 L 34 62 L 34 60 L 36 58 Z M 21 43 L 22 48 L 20 50 L 17 49 L 17 47 Z M 176 9 L 176 21 L 177 26 L 180 32 L 180 35 L 178 37 L 170 32 L 166 31 L 156 31 L 159 35 L 164 39 L 173 43 L 181 44 L 183 45 L 186 49 L 189 48 L 186 43 L 186 36 L 188 29 L 187 24 L 183 15 L 178 9 Z M 167 38 L 168 35 L 173 38 L 171 40 Z M 182 19 L 185 27 L 183 29 L 179 23 Z M 142 1 L 150 14 L 154 18 L 159 21 L 166 23 L 170 27 L 173 27 L 168 21 L 167 17 L 164 12 L 159 7 L 152 3 L 146 1 Z M 152 7 L 156 10 L 154 14 L 150 9 Z M 77 0 L 72 1 L 61 6 L 54 13 L 50 23 L 41 33 L 40 30 L 43 26 L 43 10 L 40 10 L 37 13 L 33 20 L 32 24 L 32 33 L 34 39 L 31 46 L 31 49 L 33 48 L 34 46 L 40 43 L 46 43 L 53 40 L 64 31 L 60 30 L 59 31 L 50 32 L 44 35 L 43 32 L 51 24 L 64 18 L 72 10 L 77 2 Z M 41 18 L 41 22 L 36 28 L 35 25 L 37 19 Z M 69 8 L 64 14 L 62 12 L 62 10 L 66 7 Z" fill="currentColor" fill-rule="evenodd"/>
</svg>
