<svg xmlns="http://www.w3.org/2000/svg" width="230" height="196" viewBox="0 0 230 196" role="img" aria-hidden="true">
  <path d="M 75 116 L 69 121 L 66 129 L 66 134 L 71 146 L 78 154 L 96 170 L 98 170 L 105 163 L 109 161 L 125 144 L 128 136 L 128 128 L 124 120 L 115 115 L 103 116 L 97 122 L 92 117 L 85 115 Z M 115 120 L 117 121 L 124 130 L 124 136 L 116 148 L 97 165 L 93 162 L 90 158 L 84 154 L 74 143 L 71 136 L 71 129 L 73 125 L 80 120 L 88 120 L 92 122 L 97 128 L 100 124 L 105 120 Z M 101 107 L 102 110 L 105 110 L 109 106 L 110 102 L 113 99 L 122 95 L 137 95 L 144 97 L 149 100 L 154 105 L 155 108 L 159 108 L 159 102 L 149 93 L 145 91 L 137 89 L 124 89 L 114 92 L 103 102 Z M 89 99 L 79 92 L 68 89 L 51 90 L 43 94 L 36 101 L 33 106 L 31 113 L 32 123 L 31 141 L 32 143 L 34 144 L 36 142 L 36 113 L 39 106 L 44 100 L 56 95 L 72 95 L 82 100 L 86 104 L 88 108 L 91 110 L 93 108 L 93 106 Z M 128 44 L 119 48 L 116 51 L 112 59 L 112 67 L 115 78 L 120 83 L 125 85 L 135 85 L 143 81 L 147 77 L 150 70 L 150 58 L 147 52 L 142 47 L 138 45 Z M 127 50 L 134 50 L 136 51 L 145 61 L 145 69 L 144 71 L 137 78 L 132 80 L 129 80 L 123 77 L 121 75 L 117 66 L 117 63 L 120 55 L 124 51 Z M 56 45 L 52 47 L 48 51 L 45 56 L 44 62 L 45 72 L 49 79 L 58 85 L 72 84 L 79 77 L 82 72 L 83 60 L 81 58 L 81 56 L 78 51 L 73 47 L 66 44 Z M 60 50 L 66 50 L 72 53 L 75 56 L 77 62 L 77 69 L 76 71 L 69 78 L 65 80 L 61 80 L 56 78 L 50 71 L 49 65 L 50 59 L 53 54 Z M 16 42 L 14 48 L 9 56 L 2 78 L 0 92 L 0 101 L 3 123 L 7 132 L 7 135 L 14 149 L 22 159 L 25 165 L 35 174 L 40 176 L 46 181 L 58 188 L 62 188 L 72 192 L 81 194 L 100 195 L 113 193 L 123 190 L 156 173 L 165 172 L 173 175 L 186 175 L 192 173 L 205 166 L 206 164 L 196 159 L 190 158 L 181 158 L 174 161 L 168 161 L 167 164 L 163 168 L 160 169 L 158 166 L 161 164 L 175 149 L 177 145 L 185 138 L 202 134 L 211 129 L 219 121 L 224 111 L 225 106 L 228 102 L 228 98 L 212 103 L 208 103 L 203 107 L 195 116 L 189 130 L 185 134 L 184 131 L 187 125 L 192 107 L 200 90 L 203 86 L 203 83 L 215 72 L 220 59 L 219 41 L 215 40 L 204 54 L 201 65 L 201 80 L 198 84 L 198 87 L 196 92 L 193 95 L 192 88 L 195 80 L 194 66 L 192 59 L 188 52 L 179 44 L 178 73 L 182 83 L 185 86 L 186 90 L 188 92 L 189 99 L 187 114 L 184 120 L 183 126 L 178 134 L 178 137 L 176 141 L 166 152 L 165 149 L 167 142 L 174 131 L 177 118 L 171 100 L 168 96 L 166 96 L 165 104 L 161 111 L 160 115 L 160 130 L 163 138 L 163 144 L 162 149 L 156 161 L 150 168 L 135 179 L 128 181 L 118 186 L 110 188 L 107 187 L 102 189 L 79 188 L 71 186 L 64 182 L 58 181 L 41 171 L 36 167 L 33 162 L 24 154 L 12 133 L 10 127 L 11 123 L 9 120 L 9 115 L 7 113 L 6 108 L 6 88 L 8 82 L 9 72 L 11 66 L 13 64 L 14 58 L 25 40 L 40 25 L 58 14 L 64 13 L 76 8 L 94 7 L 95 6 L 119 8 L 125 11 L 128 11 L 131 13 L 137 14 L 147 19 L 156 25 L 161 31 L 168 34 L 166 32 L 164 27 L 145 13 L 130 6 L 110 1 L 94 0 L 70 4 L 58 8 L 46 14 L 28 28 L 23 33 L 23 35 L 20 39 Z M 190 169 L 186 172 L 176 169 L 185 167 Z M 177 164 L 179 162 L 193 162 L 197 165 L 195 167 L 193 167 L 190 165 L 178 166 Z M 166 124 L 166 126 L 164 128 Z M 167 115 L 167 117 L 165 119 Z M 217 115 L 217 117 L 215 120 L 207 128 L 202 130 L 199 129 L 200 126 L 210 117 Z M 166 108 L 170 107 L 172 112 L 170 114 L 166 111 Z M 222 106 L 219 109 L 211 111 L 205 118 L 199 122 L 198 118 L 205 110 L 218 104 Z M 192 72 L 192 74 L 190 76 Z M 185 67 L 187 74 L 184 79 L 182 69 Z M 189 61 L 190 66 L 191 68 L 189 70 L 188 66 L 186 63 Z M 185 55 L 185 60 L 183 62 Z M 216 49 L 217 51 L 215 63 L 212 66 L 210 59 L 208 65 L 206 67 L 205 62 L 207 57 L 209 55 L 210 51 L 213 48 Z" fill="currentColor" fill-rule="evenodd"/>
</svg>
