<svg xmlns="http://www.w3.org/2000/svg" width="209" height="213" viewBox="0 0 209 213" role="img" aria-hidden="true">
  <path d="M 34 135 L 30 134 L 8 149 L 10 154 L 16 149 L 27 143 L 30 140 L 32 140 L 35 137 Z M 30 118 L 29 115 L 27 114 L 0 116 L 1 120 L 28 120 Z M 7 82 L 7 84 L 11 88 L 20 93 L 31 101 L 34 97 L 13 83 Z M 183 58 L 180 59 L 180 61 L 169 81 L 169 100 L 171 104 L 171 111 L 169 116 L 168 124 L 165 129 L 163 137 L 158 148 L 151 158 L 137 173 L 136 170 L 138 166 L 146 157 L 150 147 L 149 123 L 147 123 L 143 127 L 140 133 L 136 136 L 135 138 L 135 142 L 133 146 L 134 168 L 131 174 L 128 177 L 127 182 L 114 194 L 98 204 L 89 208 L 86 208 L 82 212 L 93 210 L 106 205 L 119 196 L 125 190 L 135 185 L 141 183 L 146 183 L 149 185 L 162 185 L 166 184 L 176 178 L 182 172 L 186 170 L 188 167 L 170 164 L 156 167 L 154 165 L 154 160 L 162 147 L 169 141 L 173 139 L 181 138 L 190 134 L 197 127 L 208 106 L 198 107 L 183 114 L 177 119 L 173 127 L 172 132 L 169 136 L 168 132 L 170 128 L 170 124 L 172 120 L 172 116 L 175 107 L 183 96 L 187 86 L 187 77 Z M 171 176 L 168 179 L 161 182 L 153 180 L 155 178 L 166 175 Z M 155 172 L 165 168 L 175 168 L 179 170 L 174 174 L 172 172 L 166 172 L 161 174 Z M 151 164 L 153 166 L 153 168 L 142 178 L 141 174 L 149 165 Z M 147 133 L 147 141 L 142 142 L 140 148 L 138 150 L 137 146 L 140 138 L 142 135 Z M 197 119 L 197 121 L 192 127 L 188 125 L 193 119 Z M 200 113 L 197 116 L 194 116 L 191 119 L 187 120 L 183 124 L 180 122 L 184 117 L 191 113 L 197 111 Z M 183 77 L 183 88 L 181 93 L 179 95 L 178 91 Z M 178 70 L 180 72 L 180 74 L 177 80 L 176 87 L 173 91 L 172 84 Z M 108 33 L 104 32 L 87 32 L 77 35 L 64 47 L 58 59 L 57 76 L 60 87 L 66 93 L 70 93 L 70 91 L 65 85 L 66 80 L 68 79 L 81 80 L 85 82 L 90 87 L 95 97 L 97 104 L 96 112 L 92 121 L 84 128 L 82 133 L 74 141 L 71 142 L 68 141 L 64 137 L 64 131 L 68 125 L 67 119 L 64 119 L 62 125 L 57 130 L 55 130 L 53 132 L 53 138 L 55 144 L 58 148 L 64 151 L 71 152 L 78 150 L 83 147 L 90 140 L 92 135 L 92 130 L 96 126 L 102 114 L 102 98 L 99 87 L 97 84 L 91 78 L 89 78 L 85 75 L 79 73 L 65 73 L 63 71 L 66 57 L 70 49 L 74 45 L 90 38 L 100 38 L 108 40 L 116 45 L 121 50 L 121 52 L 126 60 L 128 69 L 127 86 L 123 98 L 117 109 L 112 114 L 114 117 L 122 108 L 128 98 L 131 89 L 133 78 L 133 69 L 131 58 L 128 50 L 124 44 L 119 39 Z M 115 1 L 108 0 L 87 0 L 76 3 L 68 7 L 52 19 L 46 27 L 37 46 L 35 61 L 35 70 L 36 72 L 38 73 L 41 69 L 42 53 L 54 29 L 68 16 L 78 11 L 92 7 L 102 7 L 118 11 L 123 13 L 126 16 L 128 16 L 138 25 L 146 36 L 149 43 L 152 56 L 152 82 L 148 96 L 143 107 L 137 116 L 127 126 L 116 134 L 109 141 L 103 151 L 100 161 L 95 171 L 90 176 L 87 177 L 82 182 L 77 183 L 74 185 L 69 185 L 61 183 L 54 178 L 54 175 L 50 171 L 50 163 L 48 161 L 45 161 L 44 163 L 44 173 L 47 181 L 52 186 L 62 191 L 67 192 L 79 191 L 93 184 L 104 169 L 106 161 L 112 148 L 122 137 L 126 135 L 139 124 L 140 121 L 149 110 L 151 104 L 155 98 L 155 93 L 157 89 L 159 76 L 159 57 L 154 38 L 149 27 L 137 13 L 126 6 Z" fill="currentColor" fill-rule="evenodd"/>
</svg>
