<svg xmlns="http://www.w3.org/2000/svg" width="208" height="194" viewBox="0 0 208 194" role="img" aria-hidden="true">
  <path d="M 69 30 L 67 32 L 64 32 L 59 35 L 49 38 L 39 45 L 34 50 L 31 56 L 26 61 L 22 69 L 17 87 L 16 110 L 18 120 L 20 123 L 21 129 L 30 146 L 43 160 L 57 170 L 72 175 L 84 177 L 98 177 L 108 175 L 119 170 L 122 170 L 131 164 L 144 152 L 150 144 L 153 137 L 156 133 L 159 124 L 159 120 L 161 116 L 161 99 L 160 97 L 155 93 L 144 93 L 140 90 L 138 90 L 134 84 L 134 71 L 128 67 L 118 66 L 114 64 L 110 60 L 108 55 L 108 49 L 110 45 L 111 39 L 108 34 L 102 31 L 92 29 Z M 66 38 L 80 36 L 94 36 L 101 39 L 103 41 L 102 56 L 103 60 L 107 67 L 109 69 L 118 73 L 126 73 L 129 77 L 128 83 L 131 92 L 138 98 L 141 99 L 152 99 L 155 103 L 154 119 L 150 126 L 150 131 L 140 147 L 132 155 L 114 166 L 99 170 L 80 170 L 62 164 L 53 158 L 51 158 L 39 147 L 36 143 L 34 137 L 29 131 L 26 125 L 23 111 L 23 88 L 29 70 L 35 60 L 48 47 Z M 83 132 L 79 135 L 79 143 L 83 146 L 86 146 L 91 142 L 92 137 L 88 133 Z M 118 127 L 116 128 L 114 131 L 114 137 L 116 140 L 120 142 L 123 141 L 128 136 L 128 133 L 125 129 L 121 127 Z M 119 132 L 121 132 L 123 135 L 120 137 L 118 135 Z M 50 109 L 47 111 L 46 113 L 46 122 L 50 125 L 56 125 L 61 119 L 61 114 L 57 109 Z M 54 114 L 56 116 L 52 120 L 50 118 L 51 114 Z M 97 90 L 94 93 L 94 101 L 95 103 L 99 106 L 105 106 L 108 103 L 109 95 L 103 90 Z M 102 95 L 104 98 L 100 101 L 98 99 L 99 95 Z M 49 72 L 47 75 L 47 82 L 51 86 L 54 86 L 60 81 L 61 76 L 56 72 Z M 51 79 L 52 76 L 55 76 L 57 78 L 53 81 Z M 81 57 L 77 59 L 77 66 L 81 70 L 83 70 L 88 66 L 89 61 L 86 58 Z M 22 33 L 21 36 L 13 46 L 6 61 L 1 78 L 0 102 L 2 120 L 6 133 L 12 146 L 21 160 L 27 165 L 33 172 L 49 184 L 56 185 L 64 189 L 70 191 L 74 191 L 78 193 L 102 193 L 117 190 L 125 186 L 128 186 L 137 181 L 144 179 L 155 179 L 161 181 L 180 180 L 191 172 L 193 168 L 201 160 L 207 156 L 196 154 L 175 156 L 162 162 L 153 172 L 147 173 L 147 171 L 167 149 L 184 142 L 198 129 L 203 115 L 205 105 L 206 94 L 204 89 L 197 97 L 176 110 L 171 117 L 166 127 L 164 135 L 164 141 L 159 152 L 141 171 L 138 172 L 125 182 L 114 185 L 108 188 L 100 189 L 76 187 L 62 183 L 41 171 L 26 156 L 24 150 L 18 144 L 13 134 L 9 122 L 9 117 L 7 112 L 6 90 L 9 74 L 11 69 L 13 67 L 14 61 L 17 54 L 24 45 L 24 43 L 29 39 L 31 35 L 50 19 L 55 18 L 58 15 L 60 15 L 64 12 L 75 10 L 77 8 L 86 6 L 108 6 L 118 8 L 125 11 L 129 11 L 141 17 L 145 21 L 153 26 L 162 35 L 169 44 L 169 46 L 173 52 L 176 62 L 178 64 L 180 75 L 182 74 L 182 68 L 180 58 L 177 51 L 175 49 L 174 45 L 167 34 L 154 20 L 138 9 L 130 7 L 126 4 L 120 2 L 107 0 L 89 0 L 65 4 L 56 9 L 52 9 L 44 16 L 38 20 L 36 20 Z M 195 160 L 184 172 L 180 173 L 175 177 L 172 177 L 164 174 L 167 174 L 169 172 L 176 170 L 186 165 L 187 163 L 182 164 L 179 166 L 167 167 L 166 165 L 172 161 L 179 159 Z M 200 107 L 199 116 L 195 125 L 184 137 L 177 139 L 175 141 L 174 139 L 180 133 L 180 131 L 190 120 L 190 118 L 193 115 L 197 107 Z M 196 105 L 191 112 L 179 125 L 175 132 L 170 137 L 169 132 L 173 121 L 184 109 L 192 104 Z" fill="currentColor" fill-rule="evenodd"/>
</svg>
