<svg xmlns="http://www.w3.org/2000/svg" width="237" height="161" viewBox="0 0 237 161" role="img" aria-hidden="true">
  <path d="M 21 83 L 22 105 L 46 106 L 49 103 L 49 85 L 47 83 Z M 26 87 L 43 87 L 45 89 L 45 97 L 41 101 L 25 100 Z M 58 86 L 60 105 L 94 106 L 146 104 L 151 105 L 154 102 L 153 83 L 66 82 L 65 83 L 59 83 Z M 63 99 L 64 87 L 68 88 L 149 88 L 150 91 L 150 98 L 147 101 L 65 101 Z M 235 57 L 233 57 L 231 62 L 224 69 L 217 73 L 206 84 L 200 96 L 198 115 L 190 124 L 189 127 L 181 134 L 177 136 L 177 133 L 185 123 L 189 115 L 190 110 L 189 101 L 186 91 L 182 86 L 181 83 L 179 82 L 178 89 L 174 96 L 171 105 L 171 121 L 173 126 L 173 134 L 171 138 L 161 149 L 156 152 L 144 155 L 141 157 L 133 157 L 134 160 L 150 158 L 164 153 L 174 147 L 184 144 L 193 145 L 198 147 L 208 147 L 217 143 L 235 129 L 231 127 L 222 125 L 214 125 L 206 126 L 197 131 L 193 131 L 194 126 L 202 117 L 218 109 L 227 100 L 232 90 L 234 83 L 236 61 Z M 212 140 L 207 143 L 200 144 L 199 140 L 209 138 L 210 137 Z M 192 134 L 191 136 L 186 140 L 183 138 L 188 133 Z M 199 134 L 201 132 L 209 129 L 218 129 L 224 132 L 218 138 L 215 136 L 217 133 L 204 134 L 200 136 Z M 180 94 L 183 95 L 186 109 L 184 118 L 182 120 L 180 101 L 178 110 L 178 116 L 175 119 L 174 111 L 176 102 Z M 231 76 L 227 93 L 223 99 L 218 104 L 211 108 L 210 105 L 212 102 L 217 98 L 218 94 L 228 76 Z M 225 75 L 222 78 L 221 83 L 217 87 L 216 90 L 204 105 L 203 102 L 205 98 L 205 95 L 211 84 L 221 75 Z M 114 53 L 113 73 L 115 75 L 134 74 L 136 72 L 135 53 Z M 118 57 L 128 57 L 132 60 L 132 67 L 129 70 L 120 70 L 118 68 L 117 60 Z M 21 53 L 20 70 L 21 74 L 42 75 L 44 73 L 45 56 L 44 53 Z M 26 57 L 35 57 L 39 60 L 40 67 L 37 70 L 27 70 L 25 68 Z M 202 54 L 200 52 L 175 53 L 175 56 L 174 57 L 175 75 L 181 75 L 182 74 L 193 75 L 199 74 L 202 71 Z M 178 58 L 180 56 L 191 56 L 194 57 L 198 60 L 198 68 L 196 70 L 180 70 L 178 68 Z M 144 53 L 145 75 L 166 73 L 165 53 L 147 52 Z M 149 57 L 160 57 L 162 59 L 162 67 L 159 70 L 150 70 L 148 68 Z M 83 53 L 84 74 L 103 74 L 106 71 L 105 53 L 94 52 Z M 88 58 L 100 57 L 102 59 L 102 67 L 97 71 L 89 70 L 87 68 Z M 52 53 L 53 59 L 53 74 L 72 75 L 75 72 L 75 55 L 73 53 L 55 52 Z M 57 57 L 69 57 L 71 59 L 71 67 L 68 70 L 65 70 L 64 71 L 58 70 L 56 68 Z M 178 22 L 179 44 L 199 45 L 202 42 L 201 23 Z M 183 27 L 196 26 L 198 28 L 198 37 L 195 40 L 191 41 L 184 40 L 182 38 Z M 147 23 L 146 43 L 149 45 L 167 45 L 170 42 L 169 23 L 161 22 Z M 153 26 L 164 26 L 166 28 L 166 36 L 162 40 L 158 41 L 154 40 L 152 38 L 151 31 Z M 116 23 L 117 44 L 137 44 L 139 42 L 138 23 L 118 22 Z M 122 27 L 133 26 L 135 28 L 135 37 L 132 40 L 122 40 L 120 37 Z M 84 22 L 85 44 L 106 44 L 108 42 L 108 29 L 106 23 Z M 89 26 L 101 26 L 104 29 L 103 37 L 100 40 L 90 40 L 88 38 Z M 76 24 L 74 22 L 53 23 L 53 31 L 52 32 L 53 45 L 73 44 L 76 40 Z M 57 26 L 67 26 L 71 29 L 72 37 L 69 40 L 59 40 L 57 38 L 56 33 Z M 20 23 L 22 44 L 42 44 L 44 42 L 43 22 Z M 26 27 L 37 27 L 40 32 L 40 37 L 37 40 L 27 40 L 25 38 Z M 0 110 L 3 118 L 8 123 L 13 125 L 158 125 L 163 123 L 164 119 L 161 118 L 116 119 L 12 118 L 7 113 L 6 83 L 6 17 L 9 9 L 12 7 L 19 6 L 38 7 L 41 6 L 66 7 L 189 6 L 209 7 L 215 12 L 216 15 L 215 58 L 217 63 L 217 67 L 219 66 L 222 54 L 222 13 L 221 10 L 219 8 L 219 6 L 217 3 L 210 0 L 12 0 L 9 1 L 3 5 L 1 9 L 0 16 L 1 32 Z" fill="currentColor" fill-rule="evenodd"/>
</svg>
