<svg xmlns="http://www.w3.org/2000/svg" width="226" height="160" viewBox="0 0 226 160" role="img" aria-hidden="true">
  <path d="M 224 42 L 221 43 L 214 51 L 202 59 L 195 66 L 194 69 L 190 74 L 187 88 L 187 95 L 185 100 L 181 105 L 180 109 L 165 126 L 161 127 L 163 120 L 167 116 L 173 105 L 174 100 L 174 92 L 171 83 L 169 81 L 168 73 L 166 71 L 163 71 L 160 83 L 156 92 L 155 98 L 156 111 L 159 119 L 159 122 L 157 127 L 155 129 L 154 133 L 146 142 L 139 145 L 134 149 L 113 156 L 106 156 L 107 159 L 118 158 L 129 155 L 134 152 L 142 150 L 151 143 L 165 137 L 173 137 L 179 139 L 191 139 L 198 136 L 207 130 L 213 122 L 220 116 L 209 114 L 194 114 L 190 115 L 188 117 L 180 120 L 167 134 L 165 131 L 174 122 L 185 106 L 190 101 L 206 92 L 218 79 L 223 66 L 223 56 L 224 49 L 225 48 Z M 211 119 L 200 130 L 198 130 L 194 134 L 192 132 L 190 132 L 185 135 L 182 133 L 184 131 L 189 129 L 197 128 L 199 125 L 203 124 L 205 122 L 199 123 L 195 122 L 192 125 L 183 128 L 182 125 L 185 122 L 191 119 L 200 118 L 201 117 Z M 169 87 L 170 99 L 169 103 L 167 105 Z M 165 87 L 162 103 L 158 104 L 158 100 L 161 88 Z M 195 80 L 196 84 L 195 86 L 193 88 L 193 81 Z M 220 59 L 218 70 L 215 77 L 207 86 L 202 88 L 198 92 L 197 89 L 201 83 L 206 78 L 210 70 L 216 62 Z M 215 57 L 211 64 L 202 74 L 201 77 L 196 81 L 195 75 L 199 67 L 205 61 L 212 56 Z M 1 134 L 6 140 L 13 142 L 130 142 L 137 140 L 140 137 L 131 135 L 108 136 L 69 134 L 67 136 L 19 134 L 16 136 L 11 134 L 11 132 L 36 107 L 39 106 L 62 82 L 66 80 L 72 73 L 74 73 L 91 89 L 95 89 L 96 90 L 102 89 L 107 86 L 121 73 L 123 73 L 132 81 L 144 95 L 149 95 L 150 91 L 146 88 L 142 83 L 136 79 L 127 70 L 127 68 L 144 52 L 150 48 L 163 35 L 168 32 L 188 13 L 191 14 L 190 53 L 192 60 L 194 59 L 196 52 L 197 30 L 196 20 L 197 12 L 196 8 L 194 6 L 194 4 L 188 0 L 10 0 L 5 2 L 1 6 L 0 10 L 0 131 Z M 8 14 L 21 25 L 39 43 L 44 46 L 55 58 L 58 59 L 69 69 L 18 118 L 15 119 L 7 128 Z M 12 8 L 14 6 L 183 6 L 185 8 L 155 36 L 143 45 L 136 53 L 134 53 L 126 62 L 100 84 L 94 83 L 75 67 L 67 58 L 63 56 L 55 48 L 47 42 L 39 33 L 36 32 L 23 20 Z" fill="currentColor" fill-rule="evenodd"/>
</svg>
