<svg xmlns="http://www.w3.org/2000/svg" width="228" height="262" viewBox="0 0 228 262" role="img" aria-hidden="true">
  <path d="M 184 243 L 182 245 L 182 249 L 186 253 L 188 253 L 190 256 L 186 259 L 184 257 L 182 257 L 183 260 L 187 261 L 192 257 L 192 253 L 190 251 L 188 251 L 185 247 L 191 245 L 189 243 Z M 171 243 L 169 243 L 170 261 L 177 259 L 173 259 L 171 257 L 172 248 Z M 156 243 L 151 255 L 150 260 L 153 258 L 153 257 L 159 256 L 161 259 L 163 257 L 159 245 Z M 143 243 L 143 260 L 145 259 Z M 124 243 L 123 248 L 124 259 L 126 258 L 128 251 L 133 258 L 136 258 L 137 254 L 135 243 L 135 251 L 133 253 L 128 246 Z M 107 243 L 105 244 L 103 247 L 103 255 L 107 260 L 111 261 L 117 257 L 119 253 L 119 250 L 115 244 L 113 243 Z M 107 245 L 113 245 L 116 249 L 116 254 L 112 259 L 109 259 L 106 256 L 105 249 Z M 82 243 L 82 260 L 85 252 L 87 254 L 88 259 L 90 258 L 91 254 L 95 253 L 95 259 L 97 258 L 96 243 L 94 243 L 91 251 L 89 253 L 86 248 L 85 244 Z M 73 243 L 73 260 L 75 259 Z M 57 243 L 58 245 L 60 246 L 64 259 L 65 245 L 68 243 Z M 50 243 L 45 243 L 43 245 L 43 249 L 46 252 L 49 253 L 51 256 L 47 259 L 45 257 L 43 257 L 45 260 L 47 261 L 50 260 L 53 257 L 53 253 L 48 250 L 46 245 L 52 245 Z M 37 243 L 29 243 L 31 261 L 37 259 L 33 259 L 31 257 L 32 253 L 35 253 L 37 251 L 33 251 L 31 249 L 32 245 Z M 23 243 L 13 243 L 13 245 L 15 245 L 17 247 L 17 260 L 20 258 L 21 245 L 22 245 Z M 131 65 L 117 75 L 111 82 L 105 92 L 101 103 L 100 108 L 100 121 L 102 130 L 105 135 L 110 140 L 115 142 L 124 142 L 127 141 L 136 133 L 138 129 L 138 118 L 135 113 L 129 108 L 126 107 L 116 107 L 111 109 L 108 112 L 107 101 L 109 93 L 115 83 L 126 72 L 135 66 Z M 81 65 L 71 72 L 60 84 L 54 95 L 51 106 L 50 120 L 52 129 L 54 133 L 61 140 L 66 142 L 75 142 L 81 139 L 87 132 L 89 126 L 88 118 L 86 114 L 81 109 L 76 107 L 66 107 L 57 110 L 57 102 L 62 88 L 66 82 L 74 74 L 85 66 Z M 41 19 L 26 33 L 14 50 L 9 60 L 4 74 L 0 93 L 0 124 L 2 137 L 11 163 L 20 178 L 28 188 L 41 200 L 58 210 L 77 216 L 95 216 L 102 215 L 117 210 L 128 204 L 136 202 L 142 202 L 148 206 L 157 209 L 165 209 L 177 205 L 179 202 L 177 200 L 166 195 L 155 194 L 146 197 L 141 200 L 141 196 L 148 192 L 159 183 L 165 181 L 174 181 L 180 183 L 185 183 L 193 181 L 202 176 L 211 167 L 203 164 L 189 165 L 177 170 L 166 178 L 167 175 L 168 175 L 171 170 L 177 164 L 186 152 L 195 147 L 203 146 L 213 141 L 221 133 L 227 122 L 223 121 L 213 124 L 206 128 L 201 133 L 197 141 L 192 146 L 191 142 L 193 140 L 201 119 L 209 107 L 211 100 L 211 87 L 207 75 L 204 76 L 196 90 L 194 106 L 197 117 L 197 122 L 194 131 L 184 150 L 179 156 L 178 153 L 184 142 L 186 136 L 186 125 L 184 118 L 180 110 L 177 109 L 172 123 L 172 138 L 176 148 L 176 156 L 173 163 L 168 170 L 146 190 L 145 186 L 154 176 L 158 166 L 158 153 L 155 143 L 152 144 L 146 153 L 143 161 L 142 166 L 142 172 L 144 179 L 143 187 L 140 192 L 135 197 L 130 199 L 127 202 L 123 204 L 113 206 L 117 202 L 121 194 L 126 189 L 126 183 L 123 180 L 120 180 L 118 181 L 117 183 L 117 186 L 120 190 L 120 193 L 118 198 L 110 210 L 98 213 L 80 213 L 62 208 L 50 202 L 37 192 L 25 179 L 19 170 L 12 156 L 6 137 L 3 117 L 4 92 L 7 77 L 11 65 L 20 47 L 27 37 L 38 26 L 50 17 L 71 7 L 91 3 L 108 3 L 124 6 L 133 9 L 147 16 L 156 22 L 169 34 L 181 51 L 192 76 L 194 74 L 188 57 L 176 37 L 160 21 L 152 15 L 137 7 L 129 4 L 110 0 L 88 0 L 73 3 L 57 9 Z M 149 204 L 149 201 L 154 201 L 155 202 L 161 200 L 151 197 L 154 196 L 166 197 L 174 202 L 172 204 L 164 207 L 157 207 Z M 124 184 L 119 186 L 119 184 L 122 182 Z M 205 169 L 198 176 L 190 180 L 183 181 L 176 179 L 178 177 L 191 174 L 193 172 L 188 172 L 185 174 L 178 176 L 177 173 L 185 168 L 189 167 Z M 153 149 L 156 154 L 156 164 L 153 173 L 151 175 L 150 170 L 148 170 L 148 174 L 146 176 L 144 172 L 145 162 L 149 152 Z M 222 126 L 217 134 L 211 140 L 205 143 L 202 141 L 212 133 L 210 132 L 203 138 L 202 135 L 207 130 L 209 130 L 212 127 L 217 125 Z M 179 115 L 181 117 L 183 122 L 184 133 L 183 138 L 181 140 L 180 136 L 178 137 L 178 140 L 176 142 L 174 138 L 174 126 L 177 116 Z M 205 81 L 208 86 L 209 99 L 207 106 L 203 111 L 202 108 L 203 101 L 205 98 L 203 92 L 200 103 L 200 110 L 198 112 L 196 106 L 197 96 L 200 87 L 203 82 Z" fill="currentColor" fill-rule="evenodd"/>
</svg>
