<svg xmlns="http://www.w3.org/2000/svg" width="230" height="366" viewBox="0 0 230 366" role="img" aria-hidden="true">
  <path d="M 124 348 L 123 364 L 125 363 L 127 355 L 134 364 L 136 363 L 134 348 L 134 355 L 132 357 L 129 352 Z M 115 348 L 114 362 L 115 365 L 117 363 Z M 97 348 L 97 364 L 99 363 L 101 358 L 107 365 L 108 363 L 103 356 L 103 353 L 107 348 L 105 348 L 100 354 Z M 84 347 L 80 350 L 80 353 L 82 356 L 87 358 L 89 360 L 86 363 L 81 362 L 83 365 L 87 365 L 91 361 L 91 358 L 87 355 L 85 350 L 90 349 L 87 347 Z M 103 320 L 104 322 L 107 322 L 109 320 Z M 99 250 L 101 253 L 106 255 L 113 254 L 115 251 L 104 252 L 101 250 Z M 93 245 L 95 246 L 121 244 L 119 244 L 115 241 L 108 242 L 107 241 L 104 241 Z M 67 197 L 68 199 L 76 203 L 86 203 L 91 201 L 93 198 L 90 198 L 87 200 L 80 200 L 76 199 L 71 196 Z M 170 188 L 169 198 L 166 201 L 161 203 L 166 204 L 170 209 L 170 216 L 172 215 L 173 206 L 175 204 L 181 202 L 176 201 L 173 198 Z M 171 200 L 173 203 L 170 205 L 168 202 Z M 209 185 L 207 185 L 205 190 L 203 192 L 198 205 L 197 220 L 200 230 L 200 237 L 191 261 L 182 273 L 181 268 L 185 262 L 187 256 L 187 245 L 185 238 L 181 230 L 177 227 L 173 242 L 173 253 L 175 261 L 179 268 L 179 270 L 175 281 L 162 295 L 153 302 L 141 309 L 140 307 L 151 295 L 156 285 L 157 280 L 156 268 L 154 262 L 151 262 L 144 273 L 141 282 L 142 300 L 141 304 L 132 313 L 123 317 L 114 319 L 115 321 L 132 317 L 151 307 L 160 300 L 168 297 L 176 297 L 182 299 L 192 299 L 199 297 L 211 289 L 215 284 L 208 282 L 193 282 L 183 285 L 170 292 L 194 265 L 199 262 L 206 261 L 211 259 L 215 256 L 223 247 L 229 234 L 226 232 L 224 232 L 214 237 L 205 245 L 201 245 L 203 236 L 209 227 L 214 216 L 215 207 L 214 199 Z M 182 297 L 181 293 L 197 290 L 202 287 L 199 287 L 194 289 L 188 289 L 184 291 L 182 288 L 193 284 L 204 284 L 210 286 L 205 291 L 192 297 Z M 152 268 L 154 270 L 155 280 L 153 288 L 148 295 L 147 291 L 151 279 L 149 279 L 146 291 L 142 292 L 142 286 L 147 272 L 149 269 Z M 185 252 L 185 255 L 183 257 Z M 201 246 L 203 250 L 200 257 L 195 262 L 194 260 L 196 258 L 196 254 Z M 223 235 L 225 237 L 222 242 L 222 245 L 218 250 L 208 258 L 205 256 L 218 242 L 212 246 L 206 252 L 205 249 L 207 246 L 213 240 Z M 179 233 L 184 241 L 183 249 L 181 245 L 179 245 L 180 260 L 178 262 L 175 254 L 175 245 L 176 238 Z M 208 192 L 210 194 L 212 202 L 212 213 L 209 222 L 206 226 L 205 222 L 207 214 L 206 205 L 205 207 L 204 221 L 201 225 L 199 219 L 199 212 L 201 202 L 205 194 Z M 66 182 L 74 179 L 86 179 L 97 183 L 98 181 L 96 179 L 89 176 L 75 176 L 67 179 Z M 102 124 L 100 124 L 99 132 L 95 141 L 85 153 L 70 164 L 60 169 L 45 179 L 29 194 L 23 203 L 18 216 L 17 222 L 18 237 L 20 236 L 20 222 L 26 205 L 29 200 L 44 184 L 58 174 L 79 162 L 94 148 L 99 140 L 102 131 Z M 81 120 L 80 124 L 76 130 L 64 142 L 55 149 L 37 160 L 27 170 L 20 181 L 20 184 L 26 175 L 36 165 L 62 148 L 75 135 L 80 128 Z M 119 97 L 101 96 L 75 100 L 64 104 L 52 110 L 40 118 L 25 133 L 13 151 L 8 161 L 4 173 L 0 192 L 0 225 L 4 243 L 8 255 L 15 269 L 25 284 L 40 299 L 55 309 L 63 311 L 56 296 L 48 284 L 42 272 L 42 241 L 45 235 L 47 237 L 46 257 L 48 259 L 48 263 L 50 262 L 49 241 L 51 222 L 54 216 L 56 218 L 56 258 L 57 259 L 57 264 L 59 263 L 59 224 L 62 225 L 64 231 L 65 250 L 70 267 L 81 284 L 86 295 L 87 299 L 86 314 L 87 319 L 89 317 L 90 311 L 90 299 L 85 285 L 75 270 L 77 267 L 92 275 L 105 278 L 114 276 L 118 273 L 124 266 L 133 251 L 142 230 L 145 217 L 145 198 L 143 196 L 143 191 L 147 177 L 147 168 L 144 155 L 139 145 L 128 133 L 115 123 L 107 115 L 104 110 L 102 109 L 104 115 L 110 123 L 123 133 L 135 145 L 141 155 L 144 168 L 144 174 L 141 177 L 132 176 L 124 179 L 119 184 L 116 190 L 115 194 L 115 208 L 119 224 L 114 229 L 114 231 L 117 230 L 121 226 L 121 219 L 118 207 L 118 202 L 117 201 L 118 192 L 121 186 L 125 182 L 134 179 L 139 179 L 143 181 L 143 185 L 141 190 L 141 195 L 137 199 L 131 200 L 122 198 L 123 200 L 130 203 L 137 202 L 141 203 L 142 206 L 142 219 L 138 232 L 130 250 L 121 265 L 113 273 L 105 275 L 93 272 L 79 265 L 70 258 L 69 248 L 67 244 L 67 236 L 65 226 L 63 222 L 58 218 L 58 215 L 53 211 L 52 208 L 47 208 L 46 213 L 44 215 L 43 225 L 41 231 L 41 236 L 39 238 L 35 234 L 33 234 L 33 245 L 40 274 L 46 287 L 50 292 L 56 303 L 53 304 L 40 294 L 30 284 L 19 269 L 12 255 L 6 237 L 3 217 L 3 198 L 4 190 L 9 169 L 16 153 L 28 135 L 41 122 L 52 114 L 66 107 L 78 103 L 96 100 L 111 100 L 133 104 L 148 110 L 163 119 L 182 137 L 195 158 L 201 175 L 204 173 L 197 154 L 188 139 L 169 119 L 146 105 L 132 100 Z M 38 241 L 38 243 L 40 246 L 40 253 L 38 255 L 36 250 L 35 243 Z M 47 223 L 49 225 L 48 228 L 46 232 Z M 51 212 L 51 214 L 49 216 Z M 137 0 L 138 5 L 141 5 L 142 4 L 145 5 L 146 3 L 141 3 L 139 0 Z M 130 0 L 128 0 L 128 4 L 130 3 Z M 120 0 L 121 3 L 123 2 L 123 0 Z M 116 0 L 114 0 L 114 4 L 116 3 Z M 93 0 L 99 5 L 104 4 L 108 0 L 105 0 L 102 3 L 99 3 L 96 0 Z M 87 0 L 84 0 L 84 4 L 87 2 Z M 77 0 L 75 0 L 74 2 L 75 5 L 77 3 Z" fill="currentColor" fill-rule="evenodd"/>
</svg>
