<svg xmlns="http://www.w3.org/2000/svg" width="247" height="220" viewBox="0 0 247 220" role="img" aria-hidden="true">
  <path d="M 160 194 L 158 194 L 156 196 L 154 201 L 157 199 L 158 199 L 160 197 Z M 152 176 L 146 177 L 146 184 L 151 189 L 150 197 L 152 196 L 153 185 L 155 183 L 155 178 Z M 149 178 L 151 178 L 153 181 L 150 184 L 148 182 Z M 93 138 L 94 154 L 108 154 L 110 152 L 109 138 Z M 97 141 L 105 141 L 107 143 L 107 147 L 104 150 L 96 149 Z M 117 138 L 117 153 L 119 154 L 131 154 L 133 152 L 132 138 L 120 137 Z M 121 141 L 129 141 L 131 143 L 131 147 L 128 150 L 125 151 L 122 150 L 120 148 Z M 117 117 L 118 132 L 121 133 L 131 133 L 134 130 L 134 124 L 132 117 Z M 120 120 L 130 121 L 130 126 L 127 129 L 119 128 Z M 93 117 L 94 132 L 108 132 L 110 130 L 110 117 Z M 97 120 L 105 120 L 107 122 L 107 127 L 105 129 L 100 129 L 96 127 Z M 218 67 L 215 67 L 210 79 L 208 89 L 209 101 L 214 114 L 214 119 L 212 123 L 212 129 L 210 138 L 208 143 L 206 145 L 205 137 L 207 133 L 207 121 L 205 115 L 202 113 L 205 122 L 203 124 L 201 119 L 199 118 L 202 130 L 200 132 L 197 126 L 196 120 L 197 107 L 195 103 L 195 106 L 194 107 L 194 122 L 197 131 L 203 139 L 204 142 L 203 152 L 201 158 L 195 166 L 193 171 L 182 185 L 181 182 L 182 179 L 189 167 L 190 162 L 190 155 L 188 145 L 186 140 L 184 138 L 182 138 L 179 144 L 176 154 L 176 169 L 178 174 L 179 182 L 175 191 L 165 201 L 147 215 L 139 217 L 144 212 L 148 206 L 150 201 L 148 201 L 146 207 L 139 214 L 139 219 L 147 219 L 159 210 L 167 207 L 175 206 L 183 210 L 189 211 L 197 210 L 205 207 L 207 205 L 200 200 L 193 198 L 185 198 L 179 200 L 175 204 L 169 204 L 169 202 L 186 185 L 197 180 L 209 181 L 220 178 L 229 171 L 236 162 L 219 162 L 215 163 L 204 169 L 200 173 L 200 175 L 197 178 L 192 180 L 191 178 L 197 171 L 203 159 L 212 147 L 216 144 L 231 139 L 241 130 L 242 125 L 246 118 L 246 116 L 241 116 L 232 119 L 224 125 L 221 129 L 217 139 L 209 148 L 208 145 L 210 142 L 215 128 L 217 115 L 223 104 L 225 97 L 224 80 Z M 183 205 L 191 203 L 185 202 L 186 200 L 193 200 L 200 203 L 201 205 L 199 207 L 193 209 L 186 209 Z M 231 165 L 220 175 L 213 178 L 207 179 L 206 175 L 212 173 L 213 171 L 206 174 L 205 172 L 209 168 L 220 164 Z M 221 168 L 219 168 L 217 169 L 218 171 L 220 170 Z M 184 145 L 186 147 L 188 154 L 188 162 L 187 166 L 185 168 L 185 157 L 183 155 L 182 157 L 182 169 L 180 171 L 178 168 L 178 158 L 180 149 L 182 145 Z M 239 127 L 226 139 L 222 138 L 231 129 L 237 125 Z M 237 122 L 223 134 L 222 132 L 227 125 L 234 121 Z M 221 93 L 223 95 L 221 103 L 219 105 L 219 93 Z M 217 73 L 219 75 L 222 83 L 222 89 L 220 91 L 218 89 L 216 84 L 216 105 L 214 107 L 211 100 L 211 85 L 213 78 L 215 74 Z M 114 51 L 111 51 L 38 119 L 39 123 L 56 123 L 58 125 L 58 199 L 62 198 L 61 119 L 47 118 L 47 116 L 109 58 L 112 59 L 116 58 L 180 118 L 178 120 L 164 119 L 165 177 L 164 194 L 165 197 L 168 184 L 167 173 L 167 147 L 169 123 L 185 123 L 187 120 L 169 102 Z M 168 13 L 164 12 L 162 10 L 150 5 L 128 0 L 99 0 L 87 2 L 67 9 L 49 19 L 40 26 L 29 37 L 17 53 L 9 69 L 3 88 L 1 98 L 0 124 L 3 145 L 10 167 L 19 184 L 28 196 L 38 206 L 52 217 L 56 219 L 65 219 L 61 218 L 47 209 L 41 204 L 28 190 L 15 169 L 11 159 L 11 156 L 8 150 L 4 127 L 5 99 L 9 81 L 13 70 L 20 56 L 28 44 L 47 25 L 65 14 L 77 9 L 98 4 L 117 3 L 129 4 L 143 7 L 155 11 L 169 18 L 188 32 L 200 45 L 208 57 L 210 54 L 200 39 L 184 24 Z" fill="currentColor" fill-rule="evenodd"/>
</svg>
