<svg xmlns="http://www.w3.org/2000/svg" width="282" height="226" viewBox="0 0 282 226" role="img" aria-hidden="true">
  <path d="M 0 152 L 0 161 L 4 153 Z M 258 152 L 253 148 L 244 149 L 240 146 L 232 146 L 227 149 L 217 148 L 212 150 L 205 155 L 191 168 L 184 173 L 152 170 L 125 160 L 118 159 L 104 160 L 97 162 L 85 169 L 63 190 L 63 192 L 91 169 L 99 165 L 106 163 L 123 163 L 154 174 L 178 175 L 187 178 L 192 184 L 190 186 L 175 186 L 176 189 L 173 192 L 162 192 L 147 189 L 135 189 L 132 193 L 144 192 L 159 195 L 179 195 L 185 194 L 194 189 L 207 185 L 238 155 L 247 151 L 252 151 L 254 153 L 254 156 L 239 172 L 235 178 L 214 200 L 196 208 L 186 211 L 181 214 L 176 215 L 166 220 L 158 221 L 134 214 L 130 214 L 122 211 L 110 209 L 102 209 L 91 212 L 79 222 L 79 224 L 91 216 L 99 213 L 114 213 L 156 224 L 163 224 L 173 221 L 180 217 L 185 216 L 190 213 L 200 210 L 216 203 L 229 190 L 246 169 L 254 161 L 258 155 Z M 221 153 L 198 175 L 193 178 L 190 176 L 189 173 L 215 152 Z M 239 150 L 217 170 L 208 180 L 204 183 L 198 185 L 195 184 L 195 181 L 208 171 L 222 156 L 232 149 Z M 106 103 L 105 112 L 102 115 L 97 117 L 100 117 L 105 121 L 106 129 L 108 128 L 108 120 L 110 118 L 116 116 L 111 115 L 108 112 Z M 221 90 L 219 96 L 215 100 L 213 100 L 213 102 L 216 102 L 219 105 L 220 112 L 222 109 L 222 105 L 225 102 L 229 101 L 225 100 L 223 98 Z M 232 49 L 230 53 L 230 56 L 227 59 L 222 60 L 223 62 L 226 62 L 230 66 L 231 73 L 233 64 L 235 62 L 240 60 L 236 60 L 233 57 Z M 233 61 L 229 62 L 231 59 Z M 183 28 L 179 29 L 172 37 L 166 50 L 165 59 L 167 73 L 163 86 L 163 90 L 159 91 L 159 77 L 155 65 L 152 60 L 142 50 L 140 50 L 139 64 L 140 65 L 141 75 L 144 81 L 158 94 L 161 103 L 162 110 L 162 127 L 160 129 L 157 123 L 156 115 L 151 105 L 146 100 L 140 96 L 132 92 L 129 92 L 131 103 L 136 114 L 144 122 L 155 126 L 159 131 L 161 141 L 158 155 L 156 157 L 157 160 L 159 158 L 161 151 L 165 145 L 169 143 L 176 142 L 182 139 L 190 131 L 196 120 L 192 119 L 191 120 L 187 120 L 176 125 L 171 130 L 169 136 L 165 142 L 164 132 L 165 125 L 170 113 L 174 109 L 176 109 L 184 104 L 191 97 L 195 90 L 198 80 L 199 73 L 196 72 L 189 75 L 178 84 L 172 94 L 170 108 L 165 116 L 164 95 L 167 81 L 171 72 L 181 61 L 185 49 L 185 35 Z M 191 123 L 189 129 L 181 137 L 175 140 L 172 138 L 178 134 L 182 129 L 173 135 L 172 133 L 177 127 L 185 123 Z M 141 116 L 142 114 L 146 114 L 152 120 L 150 122 L 146 119 L 144 119 Z M 133 96 L 135 96 L 142 100 L 150 108 L 150 110 L 153 114 L 151 116 L 144 107 L 141 105 L 141 107 L 144 110 L 139 113 L 135 107 Z M 195 78 L 194 86 L 187 98 L 177 106 L 176 103 L 182 94 L 186 90 L 187 86 L 183 89 L 179 96 L 175 100 L 174 96 L 178 92 L 178 88 L 186 80 L 192 77 Z M 144 56 L 151 63 L 156 74 L 153 78 L 153 76 L 150 70 L 147 68 L 151 79 L 153 81 L 152 86 L 148 82 L 147 78 L 143 73 L 142 69 Z M 179 34 L 182 35 L 183 38 L 183 49 L 178 61 L 173 67 L 172 62 L 176 54 L 178 45 L 176 45 L 171 62 L 169 64 L 168 52 L 170 49 L 170 46 L 172 42 Z M 124 11 L 104 24 L 91 37 L 85 45 L 74 65 L 67 89 L 65 117 L 68 140 L 73 156 L 75 158 L 77 156 L 77 154 L 73 145 L 70 132 L 69 124 L 69 104 L 72 82 L 78 65 L 84 53 L 96 37 L 110 24 L 131 12 L 146 7 L 166 4 L 189 5 L 199 7 L 214 12 L 235 24 L 253 41 L 263 56 L 269 68 L 276 92 L 278 111 L 277 131 L 273 152 L 268 167 L 261 181 L 251 196 L 234 213 L 220 223 L 215 225 L 223 225 L 235 217 L 257 194 L 269 173 L 276 155 L 281 130 L 281 102 L 277 80 L 269 59 L 261 46 L 247 29 L 230 16 L 223 12 L 203 4 L 187 1 L 167 0 L 166 1 L 157 1 L 143 4 Z" fill="currentColor" fill-rule="evenodd"/>
</svg>
