<svg xmlns="http://www.w3.org/2000/svg" width="213" height="208" viewBox="0 0 213 208" role="img" aria-hidden="true">
  <path d="M 78 130 L 76 130 L 76 134 L 74 138 L 68 143 L 65 143 L 66 146 L 69 146 L 74 150 L 76 154 L 76 158 L 78 157 L 80 151 L 84 147 L 88 146 L 90 144 L 80 138 Z M 78 140 L 81 144 L 77 147 L 75 145 L 75 142 Z M 127 111 L 124 111 L 123 118 L 120 121 L 115 124 L 111 124 L 112 127 L 117 128 L 121 131 L 124 136 L 125 140 L 127 139 L 128 134 L 132 129 L 136 127 L 139 127 L 141 125 L 133 122 L 129 118 Z M 126 120 L 131 125 L 126 129 L 121 126 L 121 124 Z M 84 60 L 80 60 L 79 70 L 77 74 L 71 81 L 63 86 L 54 88 L 54 90 L 56 92 L 65 93 L 71 97 L 76 102 L 80 111 L 80 117 L 82 119 L 85 115 L 85 109 L 90 99 L 96 94 L 104 91 L 108 91 L 110 89 L 108 87 L 101 86 L 97 84 L 90 78 L 89 75 L 86 72 Z M 84 74 L 86 80 L 97 89 L 95 91 L 91 92 L 86 97 L 84 103 L 82 105 L 79 98 L 72 91 L 66 89 L 71 86 L 78 79 L 80 75 Z M 46 14 L 25 34 L 17 44 L 8 61 L 2 81 L 0 95 L 1 120 L 8 145 L 18 164 L 25 172 L 27 176 L 45 192 L 67 203 L 83 207 L 105 207 L 118 204 L 136 196 L 146 196 L 154 199 L 162 199 L 176 195 L 179 192 L 170 187 L 163 186 L 162 185 L 152 187 L 149 186 L 158 178 L 170 172 L 186 172 L 197 168 L 212 154 L 210 152 L 193 152 L 188 153 L 186 155 L 183 155 L 181 157 L 180 154 L 185 147 L 189 138 L 201 126 L 206 116 L 208 108 L 209 94 L 208 87 L 206 82 L 202 83 L 195 92 L 188 107 L 186 119 L 187 136 L 183 145 L 179 148 L 175 158 L 173 160 L 173 162 L 179 159 L 173 164 L 171 167 L 166 168 L 165 165 L 166 162 L 170 158 L 173 153 L 176 141 L 176 133 L 174 124 L 171 116 L 169 114 L 167 114 L 160 132 L 160 150 L 163 158 L 162 166 L 157 172 L 157 174 L 146 184 L 141 186 L 132 193 L 119 199 L 106 202 L 92 203 L 77 201 L 60 195 L 43 184 L 27 168 L 16 152 L 10 138 L 5 117 L 5 88 L 9 71 L 18 51 L 29 36 L 37 28 L 41 26 L 46 21 L 64 11 L 80 6 L 87 5 L 112 5 L 132 10 L 142 15 L 146 19 L 149 19 L 157 25 L 164 32 L 173 43 L 178 51 L 187 76 L 188 92 L 190 91 L 190 74 L 184 52 L 170 30 L 152 14 L 150 14 L 148 12 L 130 4 L 113 0 L 82 0 L 80 2 L 68 4 L 49 14 Z M 170 192 L 167 195 L 164 196 L 153 193 L 164 193 L 168 190 Z M 194 164 L 187 169 L 183 167 L 185 165 L 190 163 Z M 193 158 L 190 161 L 182 163 L 183 160 L 189 157 Z M 206 156 L 196 164 L 193 163 L 198 159 L 198 155 Z M 172 134 L 172 145 L 170 147 Z M 170 123 L 171 126 L 167 132 L 166 150 L 164 152 L 163 135 L 166 124 Z M 205 99 L 205 106 L 203 115 L 200 121 L 197 124 L 196 120 L 201 106 L 201 103 Z M 201 96 L 197 104 L 193 120 L 191 122 L 190 114 L 192 107 L 196 98 Z" fill="currentColor" fill-rule="evenodd"/>
</svg>
