<svg xmlns="http://www.w3.org/2000/svg" width="292" height="376" viewBox="0 0 292 376" role="img" aria-hidden="true">
  <path d="M 140 375 L 152 375 L 164 370 L 182 367 L 195 367 L 207 369 L 218 372 L 222 375 L 237 375 L 235 375 L 225 369 L 216 367 L 211 364 L 188 362 L 177 362 L 162 365 L 149 371 L 143 372 Z M 156 130 L 157 135 L 195 135 L 197 133 L 196 130 Z M 157 111 L 157 115 L 159 116 L 208 115 L 212 116 L 216 113 L 214 111 L 210 110 L 198 111 L 188 110 L 183 111 L 175 110 Z M 156 95 L 158 97 L 196 96 L 212 97 L 214 96 L 216 93 L 214 91 L 201 92 L 156 92 Z M 157 73 L 158 77 L 185 77 L 188 74 L 186 72 Z M 0 55 L 0 69 L 3 76 L 6 89 L 6 118 L 4 128 L 0 138 L 0 152 L 8 129 L 11 109 L 11 97 L 8 77 Z M 140 47 L 138 51 L 137 62 L 138 154 L 140 158 L 145 161 L 214 161 L 215 157 L 178 156 L 146 157 L 142 153 L 142 52 L 144 50 L 204 50 L 206 52 L 206 73 L 210 78 L 222 79 L 227 78 L 232 81 L 233 133 L 236 130 L 236 75 L 221 57 L 208 45 L 144 45 Z M 211 57 L 213 57 L 219 63 L 220 66 L 227 72 L 225 74 L 213 74 L 211 72 L 210 59 Z M 202 0 L 175 0 L 159 4 L 149 8 L 136 15 L 118 31 L 104 51 L 97 68 L 93 83 L 92 91 L 92 116 L 93 124 L 97 140 L 99 143 L 99 146 L 108 161 L 109 165 L 115 173 L 129 187 L 139 195 L 153 202 L 165 206 L 175 208 L 185 208 L 199 205 L 214 198 L 224 191 L 235 186 L 245 186 L 250 188 L 258 188 L 267 186 L 274 183 L 281 178 L 290 169 L 277 165 L 269 165 L 259 167 L 251 171 L 248 174 L 247 170 L 253 163 L 257 156 L 271 148 L 280 139 L 281 136 L 284 133 L 291 112 L 290 104 L 291 99 L 289 97 L 286 97 L 269 112 L 264 118 L 261 123 L 257 134 L 256 153 L 249 164 L 239 173 L 238 169 L 240 167 L 242 161 L 243 150 L 240 138 L 237 138 L 230 147 L 226 156 L 225 167 L 227 178 L 225 183 L 220 189 L 214 193 L 212 193 L 204 199 L 184 204 L 165 201 L 154 197 L 146 193 L 142 189 L 135 186 L 121 172 L 120 169 L 110 157 L 101 137 L 97 121 L 96 94 L 99 76 L 104 62 L 109 52 L 116 41 L 129 27 L 146 15 L 150 14 L 152 12 L 157 10 L 178 5 L 203 5 L 217 8 L 220 10 L 223 10 L 237 17 L 243 21 L 245 25 L 248 25 L 253 29 L 268 47 L 276 62 L 281 80 L 282 94 L 284 92 L 282 67 L 276 51 L 269 39 L 251 20 L 248 19 L 237 11 L 214 2 Z M 241 180 L 235 182 L 238 179 Z M 276 176 L 274 178 L 270 179 L 267 182 L 263 183 L 256 183 L 250 185 L 247 183 L 249 181 L 253 181 L 264 177 L 268 177 L 272 175 Z M 237 175 L 237 177 L 229 185 L 228 182 L 230 179 Z M 249 177 L 252 174 L 264 169 L 279 169 L 283 171 L 278 174 L 269 173 L 260 175 L 250 179 Z M 239 146 L 239 158 L 238 161 L 236 163 L 235 159 L 236 158 L 236 153 L 234 154 L 233 159 L 230 163 L 229 157 L 232 150 L 236 145 Z M 287 105 L 286 119 L 284 124 L 282 126 L 280 133 L 274 140 L 265 148 L 264 145 L 274 129 L 283 111 L 280 112 L 279 116 L 274 119 L 273 124 L 265 135 L 264 139 L 261 143 L 260 136 L 264 125 L 271 116 L 281 106 L 284 104 Z" fill="currentColor" fill-rule="evenodd"/>
</svg>
