<svg xmlns="http://www.w3.org/2000/svg" width="296" height="209" viewBox="0 0 296 209" role="img" aria-hidden="true">
  <path d="M 41 66 L 39 71 L 39 136 L 40 139 L 45 144 L 47 145 L 145 145 L 153 138 L 154 135 L 153 121 L 154 117 L 153 100 L 154 77 L 153 69 L 149 65 L 140 63 L 116 63 L 107 64 L 103 63 L 65 63 L 64 64 L 48 63 Z M 46 137 L 52 132 L 77 106 L 80 106 L 88 114 L 94 117 L 99 117 L 101 116 L 112 106 L 115 106 L 122 113 L 123 116 L 129 120 L 146 138 L 144 140 L 53 139 L 48 140 Z M 46 75 L 64 92 L 72 98 L 75 102 L 45 131 Z M 146 74 L 149 75 L 149 129 L 147 131 L 125 109 L 118 104 L 117 101 Z M 144 70 L 131 81 L 127 86 L 121 90 L 115 97 L 104 107 L 101 108 L 97 112 L 93 111 L 62 83 L 54 74 L 50 72 L 50 69 L 136 68 L 137 69 Z M 295 45 L 285 64 L 279 88 L 279 119 L 280 125 L 287 148 L 295 162 L 295 151 L 292 147 L 286 131 L 283 113 L 283 91 L 284 84 L 288 69 L 295 55 Z M 114 1 L 100 0 L 88 1 L 72 4 L 63 7 L 44 17 L 34 25 L 21 39 L 9 58 L 2 80 L 0 93 L 0 116 L 4 135 L 8 146 L 14 158 L 25 174 L 41 189 L 52 197 L 68 204 L 79 207 L 86 208 L 104 208 L 110 207 L 123 203 L 151 188 L 157 188 L 165 191 L 171 191 L 183 188 L 190 183 L 184 179 L 177 177 L 169 177 L 162 179 L 159 177 L 168 168 L 175 164 L 187 163 L 197 159 L 206 152 L 215 140 L 209 139 L 208 140 L 195 141 L 189 143 L 183 149 L 181 147 L 181 145 L 185 139 L 185 136 L 198 124 L 202 117 L 202 114 L 204 112 L 206 103 L 205 96 L 206 85 L 204 83 L 200 84 L 189 99 L 187 105 L 185 107 L 183 114 L 183 135 L 180 143 L 176 146 L 174 154 L 171 157 L 170 154 L 172 150 L 173 139 L 170 126 L 167 122 L 164 123 L 159 136 L 158 147 L 161 161 L 161 167 L 159 172 L 143 187 L 137 191 L 133 192 L 126 197 L 117 199 L 113 202 L 102 204 L 98 203 L 88 204 L 64 197 L 56 193 L 53 190 L 49 189 L 41 183 L 28 170 L 27 167 L 20 159 L 15 150 L 15 148 L 11 142 L 6 124 L 4 112 L 5 87 L 8 73 L 17 53 L 28 38 L 42 25 L 56 16 L 63 13 L 83 7 L 90 6 L 110 6 L 123 8 L 132 11 L 151 20 L 158 25 L 171 37 L 181 51 L 189 68 L 192 87 L 193 71 L 192 66 L 185 47 L 177 38 L 176 35 L 158 18 L 153 16 L 150 13 L 135 6 Z M 175 186 L 173 188 L 164 185 L 173 184 Z M 176 186 L 177 181 L 179 181 L 183 184 L 181 186 Z M 170 182 L 171 180 L 175 181 L 173 183 Z M 177 156 L 177 158 L 173 162 L 172 160 L 174 156 Z M 208 144 L 197 155 L 184 161 L 183 159 L 185 157 L 199 150 L 201 148 L 197 147 L 192 150 L 189 149 L 191 147 L 201 143 Z M 170 141 L 169 150 L 167 152 L 166 143 L 167 141 Z M 168 131 L 169 136 L 167 138 L 165 137 L 164 152 L 162 154 L 161 142 L 162 137 L 165 131 Z M 203 97 L 203 102 L 199 115 L 194 121 L 193 116 L 199 104 L 199 99 L 200 97 Z M 198 98 L 194 107 L 189 114 L 188 110 L 191 103 L 195 97 Z" fill="currentColor" fill-rule="evenodd"/>
</svg>
