<svg xmlns="http://www.w3.org/2000/svg" width="297" height="377" viewBox="0 0 297 377" role="img" aria-hidden="true">
  <path d="M 52 376 L 64 376 L 73 372 L 93 368 L 114 369 L 127 372 L 135 376 L 148 376 L 143 374 L 140 371 L 131 368 L 127 368 L 115 364 L 106 363 L 82 364 L 69 369 L 60 371 Z M 100 83 L 92 83 L 89 84 L 80 90 L 82 94 L 88 90 L 92 89 L 94 91 L 93 99 L 82 143 L 83 151 L 88 155 L 92 155 L 99 153 L 109 143 L 108 140 L 104 141 L 100 146 L 95 148 L 93 146 L 93 135 L 97 122 L 102 95 L 104 90 L 103 85 Z M 105 54 L 100 54 L 96 56 L 94 60 L 94 67 L 97 71 L 102 72 L 106 70 L 110 64 L 110 59 L 109 57 Z M 296 48 L 295 51 L 291 56 L 282 81 L 280 93 L 280 116 L 282 129 L 287 145 L 296 163 L 296 152 L 290 141 L 284 114 L 284 111 L 285 110 L 284 96 L 287 79 L 289 72 L 296 58 Z M 113 0 L 88 0 L 71 4 L 55 10 L 52 13 L 44 17 L 36 25 L 30 29 L 18 44 L 7 64 L 1 87 L 0 113 L 2 129 L 7 147 L 16 165 L 33 187 L 52 199 L 55 202 L 72 208 L 86 211 L 99 211 L 111 209 L 128 202 L 146 191 L 155 191 L 161 193 L 169 193 L 180 190 L 187 186 L 190 183 L 188 181 L 182 179 L 170 178 L 169 177 L 164 177 L 158 182 L 154 181 L 166 168 L 174 164 L 186 164 L 199 159 L 211 148 L 215 142 L 213 140 L 200 140 L 195 141 L 180 151 L 179 147 L 184 139 L 188 129 L 198 119 L 204 109 L 207 98 L 207 77 L 205 72 L 201 73 L 191 86 L 188 92 L 187 97 L 184 102 L 185 123 L 184 130 L 181 136 L 180 142 L 174 145 L 174 124 L 170 108 L 167 105 L 165 105 L 165 107 L 162 111 L 158 126 L 158 141 L 160 150 L 163 155 L 162 164 L 156 174 L 153 177 L 149 176 L 151 170 L 151 163 L 147 151 L 144 152 L 139 161 L 138 167 L 139 185 L 136 190 L 129 197 L 113 204 L 97 207 L 89 205 L 79 205 L 71 203 L 62 199 L 56 195 L 53 195 L 48 192 L 35 181 L 23 167 L 14 151 L 7 132 L 4 111 L 4 96 L 6 83 L 14 60 L 18 52 L 25 42 L 42 25 L 59 14 L 75 8 L 84 6 L 113 5 L 124 7 L 127 9 L 131 9 L 146 16 L 159 25 L 174 41 L 183 57 L 188 72 L 188 81 L 190 80 L 189 69 L 190 66 L 188 58 L 182 45 L 180 43 L 179 39 L 172 31 L 156 16 L 153 14 L 151 14 L 144 9 L 129 3 Z M 161 187 L 165 186 L 174 187 L 170 190 Z M 146 184 L 145 186 L 141 186 Z M 169 183 L 170 181 L 177 181 L 182 184 L 180 186 L 177 186 L 175 184 Z M 175 154 L 176 157 L 175 159 L 172 162 L 171 159 L 172 157 Z M 202 152 L 198 156 L 192 159 L 188 156 L 198 151 Z M 174 149 L 172 155 L 166 163 L 165 160 L 170 150 Z M 209 145 L 204 149 L 198 148 L 195 151 L 184 156 L 183 153 L 187 149 L 192 146 L 200 144 Z M 168 115 L 171 125 L 171 137 L 168 140 L 166 123 L 165 137 L 161 138 L 161 125 L 164 116 Z M 204 89 L 204 95 L 203 101 L 201 104 L 201 108 L 198 113 L 194 117 L 193 113 L 195 110 L 195 107 L 199 98 L 200 90 Z M 200 86 L 194 99 L 194 103 L 191 112 L 187 113 L 189 99 L 196 86 Z" fill="currentColor" fill-rule="evenodd"/>
</svg>
