<svg xmlns="http://www.w3.org/2000/svg" width="240" height="233" viewBox="0 0 240 233" role="img" aria-hidden="true">
  <path d="M 120 181 L 115 194 L 115 206 L 120 221 L 118 223 L 113 217 L 112 213 L 109 208 L 102 201 L 88 196 L 88 198 L 94 210 L 99 215 L 105 219 L 116 224 L 118 226 L 120 232 L 123 229 L 123 226 L 127 222 L 137 218 L 147 209 L 153 197 L 141 199 L 136 202 L 130 209 L 127 217 L 123 223 L 122 216 L 126 207 L 127 200 L 124 189 L 122 188 L 123 186 Z M 96 202 L 102 203 L 108 210 L 107 215 L 105 217 L 100 214 L 95 208 L 94 204 Z M 149 200 L 149 202 L 144 210 L 137 216 L 133 218 L 132 215 L 139 208 L 137 208 L 133 212 L 132 209 L 133 207 L 141 201 Z M 122 187 L 125 196 L 125 205 L 121 206 L 120 198 L 120 206 L 118 208 L 116 204 L 116 196 L 118 188 Z M 57 157 L 58 159 L 155 159 L 180 157 L 167 156 L 156 157 L 74 156 L 73 157 Z M 154 113 L 152 113 L 151 123 L 148 135 L 143 140 L 125 143 L 144 143 L 151 137 L 155 116 Z M 81 113 L 86 139 L 91 143 L 111 143 L 113 145 L 114 150 L 116 148 L 116 145 L 113 140 L 110 139 L 93 140 L 89 137 L 86 127 L 85 118 L 83 113 Z M 83 94 L 84 97 L 88 99 L 95 106 L 97 110 L 99 133 L 101 131 L 101 113 L 97 103 L 91 97 L 86 94 Z M 223 88 L 221 88 L 217 102 L 217 115 L 221 127 L 221 135 L 218 147 L 216 149 L 214 138 L 207 125 L 207 128 L 206 129 L 205 146 L 206 152 L 209 158 L 209 165 L 205 175 L 194 190 L 180 203 L 179 200 L 187 193 L 193 184 L 196 172 L 196 162 L 194 162 L 187 171 L 183 179 L 181 187 L 181 192 L 177 201 L 168 210 L 151 218 L 144 220 L 140 220 L 138 222 L 142 222 L 147 220 L 156 220 L 168 225 L 182 225 L 193 222 L 194 220 L 191 218 L 183 215 L 169 212 L 184 203 L 200 201 L 210 197 L 222 184 L 215 184 L 205 186 L 204 187 L 201 186 L 201 183 L 204 178 L 210 172 L 217 170 L 226 165 L 238 148 L 236 147 L 223 153 L 217 159 L 216 156 L 218 154 L 220 145 L 222 141 L 234 128 L 236 124 L 239 112 L 239 107 L 237 107 L 228 117 L 227 102 L 225 92 Z M 165 222 L 165 219 L 173 218 L 168 217 L 169 215 L 182 216 L 188 220 L 186 222 L 180 224 L 171 224 Z M 217 187 L 206 197 L 197 200 L 196 198 L 204 193 L 201 194 L 199 191 L 202 189 L 208 187 L 212 187 L 213 186 Z M 194 169 L 194 174 L 191 184 L 189 186 L 188 183 L 186 184 L 186 186 L 184 188 L 183 185 L 189 171 Z M 233 153 L 229 159 L 220 167 L 219 164 L 221 162 L 218 164 L 217 161 L 223 155 L 229 152 Z M 210 141 L 213 143 L 210 146 L 210 148 L 208 150 Z M 207 137 L 208 134 L 211 136 Z M 236 114 L 236 118 L 233 126 L 229 131 L 228 128 L 229 125 L 227 124 L 227 122 L 229 118 Z M 222 112 L 222 116 L 220 118 Z M 224 96 L 225 104 L 223 106 L 219 105 L 220 97 Z M 16 88 L 15 95 L 13 100 L 13 115 L 11 117 L 3 108 L 0 107 L 2 119 L 6 129 L 19 144 L 23 155 L 21 158 L 16 153 L 6 148 L 2 147 L 2 149 L 8 159 L 14 166 L 32 175 L 41 187 L 39 189 L 37 187 L 31 185 L 17 184 L 24 193 L 33 199 L 39 201 L 51 202 L 60 205 L 70 211 L 68 213 L 64 213 L 51 217 L 45 220 L 46 222 L 58 225 L 71 225 L 83 220 L 92 220 L 98 222 L 103 221 L 100 221 L 96 219 L 89 218 L 81 215 L 78 212 L 74 211 L 69 208 L 64 203 L 59 194 L 59 188 L 57 180 L 54 174 L 47 165 L 46 162 L 44 161 L 44 173 L 46 183 L 51 191 L 60 200 L 58 202 L 55 199 L 51 198 L 41 185 L 40 182 L 38 181 L 31 168 L 31 165 L 30 164 L 31 158 L 35 147 L 34 131 L 31 125 L 24 142 L 25 149 L 23 151 L 21 146 L 21 140 L 19 138 L 18 130 L 22 118 L 23 105 L 20 92 L 18 88 Z M 77 220 L 73 223 L 64 224 L 56 222 L 54 219 L 58 216 L 61 216 L 63 218 L 63 220 L 65 219 L 65 216 L 67 215 L 71 216 L 67 219 Z M 27 187 L 31 187 L 40 191 L 39 194 L 35 193 L 38 193 L 40 196 L 41 196 L 41 199 L 38 199 L 30 195 L 26 191 Z M 48 169 L 51 172 L 55 179 L 56 190 L 58 192 L 56 194 L 52 189 L 53 186 L 52 189 L 49 185 L 50 182 L 53 183 L 52 180 L 46 176 Z M 7 153 L 10 152 L 13 153 L 17 156 L 23 163 L 20 166 L 17 166 L 10 159 Z M 32 135 L 33 137 L 33 148 L 31 150 L 29 147 L 27 148 L 26 144 L 28 136 Z M 5 113 L 9 117 L 12 122 L 12 124 L 10 125 L 12 129 L 11 132 L 7 128 L 3 115 Z M 19 96 L 19 99 L 21 103 L 21 114 L 19 116 L 15 116 L 14 105 Z M 154 55 L 149 57 L 146 60 L 143 67 L 143 77 L 145 83 L 153 91 L 149 95 L 144 97 L 140 101 L 137 106 L 135 113 L 136 133 L 138 131 L 138 117 L 139 110 L 141 105 L 146 100 L 152 97 L 155 92 L 161 91 L 165 97 L 170 99 L 176 105 L 179 112 L 181 151 L 183 149 L 183 114 L 179 103 L 172 96 L 168 95 L 166 93 L 167 87 L 171 84 L 173 81 L 175 75 L 175 68 L 172 61 L 166 56 L 163 55 Z M 162 58 L 168 62 L 171 68 L 171 76 L 169 81 L 164 86 L 158 88 L 152 86 L 149 83 L 147 79 L 146 71 L 147 66 L 151 60 L 155 58 Z M 83 55 L 73 55 L 69 57 L 64 62 L 62 71 L 63 79 L 67 86 L 72 90 L 68 95 L 66 95 L 59 101 L 55 110 L 54 117 L 55 126 L 54 127 L 54 146 L 56 151 L 58 149 L 58 111 L 61 104 L 68 98 L 70 98 L 73 95 L 74 92 L 85 89 L 92 82 L 94 76 L 94 69 L 91 61 L 87 57 Z M 74 58 L 84 59 L 90 66 L 91 70 L 91 74 L 89 80 L 82 87 L 79 88 L 72 86 L 68 82 L 66 77 L 66 67 L 67 64 Z M 188 26 L 198 37 L 208 51 L 216 68 L 219 79 L 220 75 L 211 53 L 200 37 Z M 173 16 L 175 16 L 181 21 L 186 24 L 182 20 L 178 17 L 174 15 Z M 169 12 L 157 6 L 136 0 L 104 0 L 83 6 L 65 15 L 56 21 L 48 28 L 38 39 L 29 53 L 24 63 L 21 72 L 20 79 L 22 77 L 24 68 L 32 51 L 42 37 L 59 21 L 68 15 L 80 9 L 99 3 L 111 1 L 128 1 L 146 4 L 155 7 L 165 12 L 167 11 L 168 13 Z" fill="currentColor" fill-rule="evenodd"/>
</svg>
