<svg xmlns="http://www.w3.org/2000/svg" width="313" height="458" viewBox="0 0 313 458" role="img" aria-hidden="true">
  <path d="M 70 457 L 74 457 L 89 449 L 101 445 L 115 442 L 135 442 L 147 443 L 156 446 L 159 445 L 160 447 L 162 448 L 165 447 L 175 454 L 181 457 L 183 457 L 176 452 L 165 447 L 149 442 L 137 440 L 120 440 L 105 442 L 89 447 Z M 302 243 L 307 253 L 312 260 L 312 257 L 308 251 L 308 247 L 312 248 L 312 246 Z M 0 252 L 7 265 L 15 273 L 33 280 L 41 288 L 44 293 L 54 302 L 55 307 L 49 301 L 37 295 L 32 294 L 16 294 L 17 296 L 34 308 L 40 310 L 58 310 L 65 312 L 75 318 L 73 320 L 70 319 L 67 321 L 61 322 L 51 327 L 49 329 L 49 331 L 53 331 L 60 333 L 71 333 L 88 326 L 97 326 L 108 329 L 120 330 L 128 336 L 130 341 L 132 334 L 139 330 L 151 329 L 165 326 L 166 325 L 173 326 L 182 331 L 189 333 L 205 332 L 209 328 L 199 322 L 185 319 L 186 316 L 200 310 L 216 310 L 223 308 L 239 297 L 241 294 L 222 295 L 212 299 L 204 306 L 203 304 L 216 291 L 220 285 L 228 278 L 238 276 L 243 273 L 252 264 L 258 252 L 253 253 L 239 259 L 238 262 L 233 267 L 232 264 L 236 258 L 240 245 L 248 233 L 251 226 L 253 216 L 251 198 L 248 199 L 246 205 L 239 218 L 238 222 L 239 242 L 236 253 L 233 257 L 232 254 L 234 246 L 233 234 L 228 223 L 224 217 L 222 216 L 222 236 L 223 242 L 230 258 L 227 271 L 223 279 L 214 291 L 199 303 L 199 301 L 209 290 L 214 280 L 214 264 L 211 256 L 210 260 L 203 273 L 200 297 L 195 305 L 186 314 L 170 322 L 153 327 L 145 328 L 143 325 L 145 323 L 149 314 L 149 311 L 146 311 L 139 315 L 134 320 L 131 331 L 129 333 L 127 325 L 124 319 L 121 316 L 112 311 L 110 311 L 112 320 L 115 325 L 113 327 L 108 327 L 92 323 L 72 313 L 65 306 L 60 297 L 58 276 L 49 257 L 47 256 L 47 259 L 46 260 L 46 279 L 52 292 L 62 304 L 60 306 L 46 293 L 34 275 L 31 268 L 30 262 L 30 256 L 37 239 L 35 216 L 26 233 L 25 246 L 26 254 L 28 258 L 26 260 L 24 257 L 24 254 L 22 252 L 19 241 L 21 226 L 19 216 L 8 196 L 6 209 L 7 225 L 11 234 L 17 242 L 22 257 L 27 265 L 26 268 L 22 263 L 15 257 L 3 252 Z M 180 325 L 185 326 L 188 325 L 188 322 L 194 322 L 201 325 L 205 328 L 201 331 L 187 331 L 180 328 Z M 55 328 L 60 324 L 67 322 L 79 323 L 77 325 L 70 327 L 80 327 L 78 329 L 73 331 L 59 331 Z M 146 316 L 146 318 L 143 324 L 137 325 L 135 324 L 136 320 L 140 316 L 142 315 Z M 115 314 L 118 316 L 122 323 L 120 323 L 123 327 L 121 329 L 117 326 L 113 317 Z M 235 297 L 221 307 L 218 308 L 211 306 L 217 302 L 214 301 L 218 298 L 225 296 Z M 23 298 L 24 296 L 34 296 L 40 298 L 45 301 L 43 303 L 41 302 L 42 304 L 46 306 L 44 308 L 40 308 L 34 306 Z M 212 265 L 213 269 L 212 280 L 209 287 L 207 289 L 206 286 L 209 278 L 207 279 L 206 285 L 204 287 L 203 278 L 208 266 Z M 51 265 L 51 267 L 54 271 L 57 279 L 58 287 L 56 289 L 53 284 L 50 285 L 48 280 L 47 271 Z M 254 257 L 251 262 L 243 271 L 240 273 L 235 272 L 241 267 L 242 265 L 236 266 L 242 260 L 250 256 Z M 6 256 L 8 256 L 16 260 L 24 268 L 23 271 L 25 273 L 23 275 L 16 272 L 13 269 L 13 263 L 11 266 L 5 258 Z M 227 225 L 231 233 L 232 239 L 230 241 L 228 239 L 228 241 L 226 243 L 224 238 Z M 35 225 L 36 230 L 34 243 L 31 247 L 30 241 L 32 237 L 30 237 L 30 240 L 28 242 L 27 237 L 31 226 Z M 250 206 L 251 217 L 248 229 L 245 233 L 244 224 L 243 230 L 241 232 L 240 223 L 243 213 L 246 207 Z M 9 204 L 12 205 L 18 219 L 19 231 L 17 233 L 15 229 L 15 220 L 13 220 L 13 227 L 15 231 L 13 233 L 10 229 L 8 220 Z M 312 186 L 312 191 L 311 192 L 311 209 L 312 210 L 312 213 Z M 72 171 L 71 175 L 72 278 L 76 282 L 78 283 L 188 283 L 193 278 L 194 276 L 195 264 L 194 172 L 190 168 L 188 167 L 171 167 L 169 165 L 169 158 L 165 154 L 160 154 L 158 155 L 157 157 L 157 164 L 154 167 L 111 167 L 109 165 L 109 158 L 108 156 L 105 154 L 100 154 L 97 157 L 97 164 L 94 167 L 77 167 Z M 76 199 L 190 199 L 192 201 L 192 274 L 191 276 L 186 280 L 78 280 L 75 277 Z M 179 246 L 177 246 L 170 255 L 163 261 L 158 256 L 156 256 L 156 258 L 164 266 Z M 123 246 L 124 268 L 143 268 L 145 266 L 143 246 Z M 126 248 L 143 249 L 143 263 L 140 266 L 127 266 L 125 264 Z M 91 246 L 92 268 L 110 268 L 113 265 L 111 246 Z M 94 248 L 106 247 L 111 250 L 111 263 L 108 266 L 93 265 Z M 123 214 L 124 235 L 142 236 L 145 233 L 145 221 L 143 214 Z M 126 215 L 141 215 L 143 217 L 143 230 L 139 234 L 127 234 L 125 232 Z M 155 214 L 156 236 L 174 236 L 177 233 L 177 215 L 175 213 Z M 158 215 L 173 215 L 175 217 L 175 231 L 172 234 L 159 234 L 157 232 Z M 111 213 L 91 214 L 92 236 L 101 235 L 102 236 L 110 236 L 113 233 Z M 94 215 L 109 215 L 111 217 L 111 231 L 108 234 L 95 234 L 93 232 Z M 75 173 L 78 170 L 95 170 L 97 172 L 97 179 L 100 183 L 105 183 L 109 179 L 110 170 L 155 170 L 157 172 L 157 180 L 162 184 L 165 183 L 169 179 L 170 170 L 187 170 L 191 174 L 192 179 L 192 192 L 189 195 L 161 196 L 85 196 L 77 195 L 75 193 Z M 164 157 L 166 159 L 166 177 L 162 180 L 160 178 L 161 157 Z M 104 157 L 106 159 L 106 177 L 102 180 L 100 178 L 101 157 Z M 23 211 L 25 210 L 26 199 L 29 186 L 37 166 L 52 144 L 60 136 L 63 135 L 67 130 L 74 125 L 90 117 L 110 111 L 134 109 L 150 111 L 166 115 L 185 124 L 196 132 L 210 146 L 221 162 L 227 175 L 231 187 L 235 211 L 236 205 L 231 181 L 225 166 L 212 146 L 195 129 L 175 117 L 154 110 L 143 108 L 118 108 L 106 110 L 90 115 L 74 123 L 55 138 L 48 146 L 39 159 L 32 173 L 29 181 L 29 184 L 27 187 Z M 99 0 L 110 4 L 124 6 L 127 8 L 158 5 L 174 0 L 168 0 L 159 3 L 147 5 L 129 5 L 116 3 L 107 0 Z" fill="currentColor" fill-rule="evenodd"/>
</svg>
