<svg xmlns="http://www.w3.org/2000/svg" width="218" height="228" viewBox="0 0 218 228" role="img" aria-hidden="true">
  <path d="M 187 115 L 187 118 L 189 121 L 189 128 L 186 133 L 186 135 L 190 132 L 191 128 L 190 118 L 189 116 Z M 197 107 L 197 109 L 200 113 L 202 121 L 202 129 L 199 138 L 196 141 L 197 144 L 202 137 L 204 129 L 203 116 L 200 109 Z M 207 97 L 207 99 L 210 103 L 214 113 L 215 118 L 215 132 L 213 140 L 206 153 L 210 150 L 216 138 L 217 133 L 217 116 L 216 112 L 209 98 Z M 145 53 L 141 52 L 129 52 L 126 53 L 118 58 L 112 67 L 109 78 L 109 89 L 110 93 L 115 102 L 121 108 L 123 106 L 114 94 L 115 91 L 121 91 L 129 93 L 135 96 L 141 102 L 144 110 L 143 119 L 140 124 L 133 129 L 129 129 L 123 132 L 120 135 L 119 139 L 115 143 L 113 143 L 110 140 L 111 133 L 114 132 L 115 134 L 118 133 L 114 132 L 114 129 L 116 126 L 116 119 L 114 112 L 118 111 L 115 109 L 111 110 L 110 116 L 113 121 L 113 124 L 107 133 L 107 141 L 108 143 L 113 147 L 117 146 L 122 141 L 124 136 L 128 133 L 133 133 L 139 130 L 144 125 L 147 118 L 147 107 L 144 100 L 137 93 L 128 89 L 115 87 L 113 85 L 113 75 L 114 71 L 118 64 L 124 58 L 134 55 L 142 56 L 150 60 L 155 65 L 160 74 L 162 81 L 163 96 L 161 108 L 159 114 L 154 123 L 154 125 L 158 120 L 165 102 L 165 94 L 166 93 L 165 78 L 159 64 L 154 58 Z M 139 34 L 128 35 L 118 38 L 110 43 L 103 50 L 98 59 L 95 69 L 95 79 L 99 65 L 106 53 L 113 46 L 127 39 L 143 39 L 147 40 L 158 45 L 168 55 L 173 64 L 177 80 L 177 93 L 175 104 L 172 113 L 162 131 L 147 147 L 138 162 L 126 173 L 123 174 L 112 174 L 108 172 L 101 165 L 99 158 L 96 154 L 96 160 L 100 170 L 105 175 L 114 179 L 122 179 L 128 177 L 138 169 L 147 154 L 168 130 L 175 118 L 181 97 L 181 76 L 178 65 L 173 54 L 170 50 L 161 42 L 150 36 Z M 149 3 L 135 0 L 116 0 L 102 2 L 86 7 L 72 14 L 60 23 L 51 32 L 42 44 L 39 13 L 33 22 L 26 38 L 25 47 L 27 65 L 25 71 L 23 90 L 21 92 L 19 89 L 18 82 L 14 74 L 6 64 L 1 60 L 1 70 L 3 83 L 7 92 L 12 99 L 19 106 L 21 110 L 25 137 L 28 145 L 26 147 L 20 136 L 0 119 L 0 125 L 6 146 L 11 154 L 19 162 L 32 168 L 39 174 L 59 201 L 57 201 L 46 190 L 36 184 L 28 182 L 23 182 L 18 180 L 14 180 L 14 182 L 27 195 L 34 200 L 47 203 L 59 203 L 74 210 L 83 216 L 81 218 L 74 215 L 67 215 L 50 219 L 51 221 L 69 227 L 78 227 L 88 223 L 102 223 L 107 225 L 114 226 L 139 226 L 159 221 L 175 214 L 192 202 L 201 192 L 190 202 L 179 210 L 166 217 L 155 221 L 138 224 L 117 224 L 106 222 L 101 220 L 96 215 L 94 208 L 94 202 L 92 196 L 80 178 L 78 177 L 77 180 L 78 196 L 83 206 L 93 215 L 91 217 L 75 209 L 61 196 L 58 190 L 56 182 L 56 174 L 58 167 L 58 157 L 54 139 L 52 139 L 46 155 L 46 168 L 54 186 L 54 190 L 48 184 L 36 163 L 33 155 L 33 140 L 37 133 L 43 126 L 46 120 L 49 105 L 48 98 L 38 108 L 34 114 L 31 124 L 31 139 L 29 141 L 27 136 L 27 130 L 25 124 L 25 102 L 28 96 L 35 91 L 44 82 L 49 72 L 52 63 L 50 62 L 35 72 L 30 80 L 28 89 L 26 91 L 25 83 L 29 67 L 33 59 L 40 51 L 41 48 L 51 34 L 62 23 L 69 18 L 74 16 L 77 13 L 83 10 L 97 5 L 112 2 L 137 2 L 144 3 L 145 4 Z M 57 220 L 59 218 L 63 217 L 76 218 L 72 221 L 81 223 L 79 225 L 65 225 L 58 222 Z M 85 202 L 86 207 L 84 205 Z M 82 184 L 87 190 L 91 198 L 92 202 L 89 205 L 86 197 L 83 196 L 80 197 L 79 190 Z M 21 183 L 34 185 L 43 190 L 45 195 L 40 194 L 38 192 L 34 191 L 35 193 L 39 193 L 40 195 L 46 197 L 46 200 L 40 200 L 35 198 L 32 195 L 30 195 L 20 185 Z M 31 158 L 33 160 L 33 162 L 35 165 L 33 166 L 30 163 Z M 51 146 L 54 146 L 56 155 L 56 169 L 54 171 L 51 158 L 51 163 L 49 165 L 48 153 Z M 6 129 L 8 128 L 11 130 L 19 138 L 25 149 L 26 154 L 25 157 L 22 153 L 17 149 L 15 146 L 16 145 L 15 143 L 13 142 L 14 145 L 20 153 L 15 154 L 11 150 L 4 134 L 4 132 Z M 7 133 L 8 135 L 10 136 L 9 134 Z M 47 106 L 44 120 L 41 126 L 36 132 L 35 129 L 39 120 L 37 121 L 34 126 L 33 122 L 35 116 L 38 111 L 44 105 Z M 17 86 L 18 89 L 18 91 L 16 93 L 14 89 Z M 5 67 L 12 74 L 12 78 L 9 78 L 9 76 L 8 77 L 11 86 L 16 96 L 14 98 L 9 92 L 5 83 L 3 71 Z M 48 67 L 45 77 L 41 83 L 33 90 L 32 87 L 38 79 L 35 81 L 33 84 L 32 80 L 34 76 L 40 70 Z M 28 42 L 31 43 L 31 50 L 28 53 Z M 37 20 L 40 21 L 39 24 L 40 39 L 37 48 L 33 53 L 32 48 L 36 34 L 32 33 L 32 28 L 36 23 Z" fill="currentColor" fill-rule="evenodd"/>
</svg>
