<svg xmlns="http://www.w3.org/2000/svg" width="237" height="227" viewBox="0 0 237 227" role="img" aria-hidden="true">
  <path d="M 189 79 L 189 81 L 204 83 L 210 85 L 218 90 L 226 98 L 232 110 L 233 114 L 233 127 L 232 131 L 226 144 L 221 150 L 221 154 L 225 167 L 222 169 L 207 160 L 197 163 L 180 163 L 173 161 L 165 157 L 156 149 L 153 148 L 153 150 L 161 158 L 169 163 L 185 167 L 199 166 L 204 164 L 207 164 L 227 175 L 229 172 L 224 151 L 233 139 L 236 130 L 236 112 L 234 105 L 230 97 L 226 92 L 216 84 L 209 81 L 200 79 Z M 172 62 L 163 56 L 152 52 L 146 51 L 117 51 L 103 55 L 98 58 L 90 66 L 85 74 L 82 85 L 82 103 L 83 108 L 88 120 L 94 128 L 88 149 L 89 153 L 110 142 L 114 142 L 120 145 L 129 147 L 147 147 L 152 146 L 165 141 L 172 136 L 181 126 L 187 112 L 188 92 L 186 82 L 181 72 Z M 166 62 L 178 75 L 184 90 L 184 108 L 181 117 L 175 127 L 166 136 L 150 143 L 129 144 L 118 141 L 113 138 L 110 138 L 98 145 L 96 145 L 94 147 L 93 140 L 97 126 L 93 122 L 89 115 L 85 103 L 85 84 L 91 70 L 103 59 L 117 54 L 125 53 L 147 54 L 154 56 Z M 95 103 L 92 103 L 93 106 Z M 150 101 L 148 103 L 148 107 L 151 110 L 153 110 L 156 107 L 157 104 L 154 101 Z M 132 102 L 131 104 L 132 108 L 135 110 L 137 109 L 140 104 L 137 101 Z M 120 101 L 115 102 L 115 107 L 119 110 L 123 106 L 123 104 Z M 172 6 L 154 1 L 130 0 L 109 4 L 103 7 L 97 8 L 80 17 L 67 27 L 49 47 L 40 64 L 36 74 L 34 83 L 31 87 L 29 73 L 26 68 L 23 57 L 20 55 L 16 76 L 16 90 L 19 100 L 28 117 L 29 127 L 32 139 L 34 142 L 35 148 L 41 160 L 39 163 L 31 154 L 24 138 L 20 133 L 8 125 L 0 118 L 0 123 L 3 133 L 7 142 L 12 148 L 13 146 L 11 144 L 12 141 L 20 143 L 14 137 L 10 128 L 15 131 L 23 140 L 24 148 L 21 146 L 27 153 L 25 155 L 16 150 L 18 153 L 34 161 L 50 176 L 60 189 L 71 198 L 68 200 L 61 198 L 58 195 L 46 189 L 32 189 L 27 191 L 20 191 L 23 195 L 37 202 L 41 203 L 52 203 L 60 200 L 65 200 L 79 204 L 87 209 L 85 211 L 68 210 L 65 211 L 53 219 L 53 222 L 65 223 L 72 221 L 78 216 L 84 213 L 97 213 L 113 220 L 131 225 L 138 226 L 158 226 L 166 225 L 183 220 L 197 213 L 203 209 L 216 196 L 196 212 L 181 219 L 178 219 L 175 221 L 162 224 L 143 224 L 125 221 L 118 219 L 108 214 L 100 205 L 100 190 L 99 187 L 90 172 L 88 172 L 87 187 L 89 195 L 91 199 L 101 208 L 102 213 L 95 211 L 79 202 L 73 196 L 66 183 L 65 179 L 65 167 L 67 162 L 67 150 L 64 139 L 57 129 L 53 146 L 53 154 L 57 166 L 62 174 L 64 183 L 69 191 L 67 193 L 56 182 L 49 173 L 41 157 L 39 145 L 40 130 L 43 124 L 49 117 L 52 107 L 50 80 L 43 90 L 40 96 L 37 106 L 38 142 L 36 144 L 33 137 L 30 123 L 30 105 L 36 78 L 41 65 L 48 52 L 55 42 L 67 29 L 88 14 L 102 8 L 115 4 L 127 2 L 149 3 L 158 2 L 159 4 L 163 5 L 166 4 L 170 5 L 171 7 Z M 74 212 L 71 215 L 75 216 L 68 221 L 63 222 L 57 219 L 62 214 L 66 212 L 70 212 L 71 211 Z M 27 192 L 30 194 L 28 196 L 26 194 Z M 30 193 L 35 190 L 43 190 L 48 193 L 46 195 L 40 196 L 50 197 L 53 199 L 48 202 L 42 202 L 32 198 L 31 196 L 33 194 Z M 62 149 L 65 150 L 66 152 L 66 157 L 63 159 L 60 155 L 60 151 Z M 58 142 L 59 146 L 59 156 L 61 164 L 59 166 L 58 164 L 56 163 L 54 157 Z M 7 131 L 9 133 L 7 135 Z M 45 119 L 44 121 L 42 123 L 41 119 Z M 50 96 L 50 99 L 51 100 L 50 108 L 48 114 L 46 116 L 43 112 L 43 109 L 46 102 L 46 97 Z M 47 93 L 46 97 L 40 105 L 39 102 L 42 97 L 43 93 Z M 22 63 L 24 65 L 28 77 L 29 84 L 26 87 L 23 83 L 22 78 L 23 90 L 21 92 L 18 91 L 17 82 L 19 75 L 19 68 Z" fill="currentColor" fill-rule="evenodd"/>
</svg>
