<svg xmlns="http://www.w3.org/2000/svg" width="247" height="240" viewBox="0 0 247 240" role="img" aria-hidden="true">
  <path d="M 0 145 L 1 148 L 12 162 L 20 167 L 26 169 L 30 169 L 35 172 L 50 189 L 54 197 L 44 189 L 35 186 L 21 186 L 25 191 L 38 200 L 47 202 L 59 202 L 67 205 L 73 210 L 79 213 L 77 215 L 66 215 L 54 220 L 54 222 L 58 224 L 71 227 L 78 226 L 88 222 L 98 222 L 115 228 L 118 230 L 121 237 L 124 239 L 126 237 L 126 233 L 129 230 L 139 225 L 150 222 L 158 222 L 168 226 L 180 226 L 193 222 L 194 220 L 185 216 L 169 213 L 172 210 L 174 210 L 185 202 L 188 201 L 206 200 L 215 196 L 224 189 L 226 186 L 223 185 L 214 185 L 208 186 L 196 193 L 195 191 L 205 180 L 209 173 L 215 167 L 227 162 L 239 151 L 246 139 L 241 139 L 232 143 L 222 152 L 221 149 L 223 146 L 225 137 L 231 125 L 233 117 L 233 109 L 229 91 L 226 92 L 225 97 L 222 103 L 220 114 L 221 125 L 223 132 L 223 138 L 219 151 L 210 169 L 208 171 L 207 168 L 210 163 L 212 156 L 212 146 L 208 129 L 205 130 L 204 137 L 201 145 L 201 162 L 203 169 L 203 173 L 201 180 L 196 188 L 182 202 L 179 203 L 169 211 L 168 209 L 181 196 L 184 190 L 186 182 L 187 167 L 185 167 L 179 174 L 173 184 L 171 192 L 170 203 L 168 207 L 159 216 L 150 221 L 143 222 L 143 220 L 148 213 L 150 205 L 147 205 L 139 209 L 132 217 L 130 224 L 127 228 L 126 225 L 128 220 L 128 216 L 125 208 L 122 209 L 120 213 L 120 222 L 121 225 L 120 228 L 117 224 L 115 217 L 113 214 L 109 211 L 109 215 L 107 215 L 111 225 L 102 217 L 100 213 L 101 208 L 107 209 L 99 204 L 97 204 L 97 206 L 103 222 L 98 221 L 88 216 L 79 207 L 77 203 L 74 187 L 62 167 L 60 166 L 60 177 L 62 189 L 65 195 L 77 207 L 75 209 L 67 204 L 58 196 L 48 185 L 44 176 L 44 164 L 46 157 L 46 149 L 41 129 L 39 129 L 34 147 L 35 159 L 38 166 L 41 170 L 38 172 L 29 155 L 24 141 L 24 129 L 27 118 L 27 110 L 21 91 L 19 90 L 16 102 L 15 114 L 13 116 L 7 110 L 3 108 L 3 112 L 6 122 L 9 128 L 22 140 L 25 150 L 29 157 L 28 161 L 20 152 L 12 148 L 3 145 Z M 164 220 L 172 219 L 168 218 L 169 216 L 180 216 L 187 219 L 188 221 L 184 224 L 171 225 L 167 224 Z M 59 221 L 64 217 L 67 216 L 78 217 L 75 220 L 85 221 L 83 223 L 73 225 L 64 224 Z M 123 212 L 126 213 L 126 217 L 123 221 L 121 219 L 121 216 Z M 147 210 L 144 217 L 136 225 L 135 222 L 137 219 L 134 218 L 135 215 L 139 211 L 143 209 Z M 219 190 L 215 194 L 210 197 L 204 199 L 198 197 L 203 194 L 201 192 L 205 189 L 208 188 L 216 188 Z M 182 190 L 180 194 L 178 196 L 177 192 L 178 190 Z M 27 190 L 28 188 L 37 188 L 43 190 L 47 193 L 45 195 L 42 195 L 44 194 L 45 196 L 50 198 L 48 200 L 40 199 L 31 194 Z M 64 174 L 69 180 L 72 187 L 71 190 L 69 190 L 69 193 L 71 196 L 69 197 L 64 189 L 62 182 Z M 184 174 L 184 184 L 181 187 L 178 187 L 176 192 L 174 194 L 173 190 L 175 184 L 181 174 Z M 30 161 L 32 163 L 30 166 L 29 164 Z M 5 150 L 8 149 L 9 150 L 13 150 L 20 154 L 23 157 L 23 161 L 21 160 L 22 162 L 25 164 L 23 166 L 16 163 L 8 155 Z M 242 143 L 237 151 L 230 158 L 225 161 L 221 160 L 225 156 L 223 155 L 223 153 L 229 147 L 238 142 Z M 208 138 L 210 145 L 210 156 L 208 158 L 206 156 L 206 159 L 204 161 L 202 156 L 203 144 L 205 138 Z M 40 136 L 42 138 L 44 147 L 44 158 L 42 160 L 39 154 L 39 156 L 37 158 L 36 145 L 37 141 Z M 21 125 L 23 127 L 23 130 L 21 132 Z M 7 114 L 9 114 L 15 122 L 12 123 L 17 130 L 15 132 L 10 127 L 6 118 Z M 229 99 L 231 107 L 231 119 L 230 123 L 228 125 L 226 115 L 226 120 L 223 123 L 222 112 L 225 100 Z M 22 98 L 22 101 L 25 109 L 25 120 L 23 122 L 20 118 L 18 125 L 17 105 L 18 101 Z M 125 35 L 121 36 L 116 41 L 107 47 L 92 54 L 72 58 L 63 58 L 63 103 L 64 115 L 67 129 L 72 144 L 86 166 L 100 180 L 113 189 L 124 195 L 148 180 L 162 166 L 172 152 L 178 140 L 183 124 L 186 99 L 186 59 L 184 57 L 175 58 L 162 56 L 156 54 L 139 46 Z M 126 40 L 133 46 L 152 56 L 165 60 L 173 60 L 182 62 L 183 65 L 183 83 L 181 117 L 176 135 L 168 152 L 161 162 L 146 177 L 135 185 L 123 191 L 113 185 L 109 178 L 112 179 L 113 178 L 115 181 L 118 181 L 119 183 L 122 183 L 117 181 L 102 170 L 106 175 L 104 177 L 102 177 L 95 171 L 81 154 L 77 144 L 74 140 L 69 125 L 66 100 L 67 61 L 81 60 L 90 58 L 110 49 L 118 44 L 122 40 Z M 87 154 L 91 161 L 97 165 L 94 162 L 94 161 L 88 156 L 89 155 Z M 113 75 L 108 81 L 106 93 L 107 96 L 106 101 L 104 103 L 100 104 L 97 108 L 97 146 L 101 150 L 109 151 L 145 151 L 147 150 L 152 144 L 152 109 L 148 104 L 143 102 L 142 84 L 139 79 L 133 74 L 128 72 L 120 72 Z M 101 107 L 103 106 L 145 106 L 149 110 L 149 144 L 146 147 L 142 148 L 104 148 L 100 145 Z M 122 116 L 120 117 L 119 126 L 121 139 L 126 139 L 129 135 L 128 127 L 130 124 L 130 120 L 128 117 Z M 126 132 L 126 134 L 124 136 Z M 125 119 L 128 122 L 123 126 L 121 124 L 122 119 Z M 116 77 L 122 75 L 126 75 L 132 77 L 137 82 L 139 86 L 139 100 L 136 103 L 110 102 L 109 87 L 112 81 Z M 129 49 L 130 51 L 131 50 L 133 53 L 136 53 L 138 56 L 143 57 L 144 59 L 146 60 L 148 59 L 149 61 L 167 66 L 175 66 L 177 68 L 177 107 L 175 120 L 171 134 L 165 147 L 162 150 L 159 156 L 144 172 L 131 181 L 126 183 L 124 186 L 126 184 L 138 178 L 146 172 L 156 162 L 163 153 L 167 146 L 167 144 L 171 138 L 175 127 L 179 102 L 179 67 L 177 65 L 163 64 L 149 60 L 140 56 Z M 125 45 L 123 45 L 114 52 L 99 60 L 80 65 L 70 65 L 70 102 L 71 112 L 75 133 L 79 140 L 79 143 L 82 146 L 83 149 L 84 148 L 82 147 L 81 145 L 82 144 L 78 136 L 75 124 L 73 123 L 74 119 L 72 118 L 73 112 L 72 103 L 70 102 L 72 66 L 81 66 L 97 62 L 112 55 L 122 47 L 127 47 Z M 186 22 L 191 28 L 199 35 L 213 55 L 219 68 L 222 77 L 223 84 L 224 79 L 222 72 L 213 52 L 201 35 L 191 25 Z M 184 20 L 176 14 L 160 7 L 147 3 L 135 1 L 119 0 L 113 2 L 107 2 L 89 7 L 72 15 L 58 25 L 45 38 L 35 52 L 30 62 L 25 75 L 24 84 L 26 81 L 26 77 L 29 68 L 36 54 L 47 38 L 63 23 L 81 12 L 104 4 L 118 2 L 130 2 L 145 4 L 160 9 L 162 8 L 167 12 L 169 11 L 171 12 L 173 15 L 178 16 L 180 19 Z" fill="currentColor" fill-rule="evenodd"/>
</svg>
