<svg xmlns="http://www.w3.org/2000/svg" width="217" height="230" viewBox="0 0 217 230" role="img" aria-hidden="true">
  <path d="M 199 184 L 200 186 L 205 187 L 211 191 L 214 197 L 213 202 L 207 208 L 201 210 L 192 207 L 188 203 L 188 195 L 186 196 L 185 201 L 186 202 L 186 205 L 189 209 L 199 212 L 205 212 L 210 210 L 214 206 L 216 202 L 216 194 L 215 191 L 211 187 L 204 184 Z M 197 154 L 192 152 L 182 153 L 156 174 L 146 185 L 145 188 L 145 196 L 147 201 L 153 206 L 158 208 L 161 208 L 168 205 L 190 187 L 204 172 L 205 167 L 203 160 Z M 166 171 L 182 189 L 165 204 L 157 205 L 153 203 L 149 199 L 148 197 L 148 187 L 156 178 L 164 171 Z M 193 155 L 195 156 L 202 164 L 201 172 L 194 180 L 184 188 L 169 170 L 169 168 L 184 155 Z M 127 117 L 126 127 L 124 129 L 115 130 L 116 142 L 125 142 L 127 144 L 128 154 L 137 154 L 139 152 L 140 142 L 148 142 L 150 140 L 149 129 L 141 129 L 139 127 L 138 117 L 131 118 Z M 130 120 L 135 120 L 137 122 L 138 132 L 146 132 L 148 134 L 148 137 L 145 140 L 137 140 L 137 148 L 134 151 L 131 151 L 129 149 L 128 140 L 120 140 L 118 138 L 119 132 L 127 132 L 129 130 Z M 101 45 L 99 47 L 99 68 L 104 71 L 104 74 L 93 84 L 90 92 L 90 179 L 93 185 L 98 188 L 107 189 L 133 189 L 140 187 L 119 185 L 100 186 L 98 185 L 93 179 L 94 168 L 143 167 L 140 167 L 139 166 L 95 166 L 93 164 L 94 102 L 170 102 L 172 104 L 172 151 L 174 149 L 175 135 L 174 106 L 175 93 L 172 85 L 161 75 L 162 70 L 166 67 L 166 48 L 163 45 Z M 93 98 L 93 92 L 95 87 L 106 77 L 108 70 L 156 70 L 158 72 L 159 78 L 165 82 L 170 87 L 172 95 L 166 100 L 95 100 Z M 103 48 L 114 47 L 161 48 L 163 50 L 163 64 L 160 67 L 147 68 L 104 67 L 102 65 Z M 113 1 L 103 3 L 84 10 L 67 21 L 49 40 L 44 48 L 40 58 L 38 60 L 35 37 L 32 32 L 23 55 L 23 72 L 25 77 L 25 93 L 24 104 L 22 106 L 20 103 L 18 92 L 12 83 L 4 73 L 2 72 L 3 94 L 5 101 L 10 110 L 20 120 L 22 124 L 22 127 L 25 131 L 27 144 L 29 148 L 26 150 L 25 147 L 15 137 L 3 130 L 0 130 L 4 144 L 11 157 L 18 164 L 26 168 L 31 169 L 40 175 L 45 181 L 46 184 L 54 192 L 57 199 L 42 185 L 35 183 L 29 183 L 20 181 L 32 194 L 45 200 L 56 200 L 63 203 L 69 208 L 84 217 L 104 225 L 113 227 L 118 227 L 123 229 L 147 228 L 163 224 L 175 218 L 156 225 L 143 227 L 127 227 L 105 223 L 96 220 L 80 212 L 69 204 L 56 191 L 50 177 L 50 166 L 55 152 L 55 136 L 50 120 L 44 132 L 41 142 L 41 154 L 49 178 L 47 180 L 42 174 L 34 158 L 27 134 L 26 119 L 29 110 L 33 106 L 38 103 L 45 95 L 54 74 L 49 75 L 35 86 L 29 98 L 28 106 L 26 108 L 25 100 L 28 83 L 37 68 L 41 57 L 51 40 L 66 24 L 79 15 L 87 12 L 93 8 L 106 4 L 118 2 L 140 2 L 152 4 L 166 9 L 168 8 L 176 12 L 178 15 L 180 16 L 181 15 L 166 7 L 154 3 L 136 0 Z M 27 187 L 28 185 L 35 185 L 41 187 L 45 190 L 43 193 L 48 196 L 46 198 L 40 197 L 33 193 Z M 32 165 L 34 164 L 36 166 L 37 168 L 35 169 L 33 167 Z M 5 135 L 7 135 L 16 140 L 22 146 L 28 156 L 29 159 L 27 161 L 20 153 L 20 151 L 17 151 L 20 155 L 18 157 L 14 157 L 11 154 L 7 147 L 4 138 Z M 52 128 L 54 147 L 51 159 L 49 161 L 47 144 L 47 153 L 44 156 L 43 141 L 44 136 L 48 128 Z M 49 80 L 48 85 L 43 95 L 34 104 L 33 100 L 38 93 L 36 94 L 33 98 L 32 95 L 35 89 L 45 80 Z M 6 79 L 14 89 L 19 102 L 19 106 L 17 108 L 15 103 L 13 102 L 13 99 L 11 96 L 16 110 L 14 112 L 9 105 L 5 95 L 4 85 Z M 32 41 L 34 43 L 35 49 L 35 62 L 32 71 L 30 73 L 29 70 L 29 58 L 28 68 L 26 70 L 24 68 L 24 60 L 29 43 Z" fill="currentColor" fill-rule="evenodd"/>
</svg>
