<svg xmlns="http://www.w3.org/2000/svg" width="180" height="157" viewBox="0 0 180 157" role="img" aria-hidden="true">
  <path d="M 100 0 L 88 0 L 80 10 L 74 21 L 72 27 L 71 41 L 76 60 L 80 66 L 80 79 L 77 95 L 73 106 L 70 110 L 68 104 L 69 81 L 64 70 L 59 65 L 55 59 L 52 58 L 46 53 L 44 53 L 44 75 L 47 85 L 50 90 L 66 104 L 67 108 L 66 117 L 63 122 L 58 127 L 60 130 L 68 122 L 75 119 L 82 119 L 89 122 L 101 123 L 111 120 L 113 118 L 115 118 L 126 110 L 118 106 L 102 104 L 91 106 L 73 118 L 72 115 L 81 103 L 89 95 L 108 93 L 115 90 L 123 84 L 129 77 L 136 61 L 137 54 L 134 54 L 112 59 L 105 63 L 96 72 L 91 82 L 91 85 L 88 92 L 79 101 L 78 98 L 81 90 L 81 84 L 83 79 L 83 70 L 84 67 L 98 52 L 103 43 L 105 37 L 105 16 Z M 121 82 L 118 85 L 118 81 Z M 120 71 L 117 76 L 112 78 L 112 75 L 116 71 Z M 126 67 L 123 70 L 123 66 Z M 114 66 L 116 69 L 112 73 L 111 70 Z M 112 65 L 110 67 L 111 69 L 109 71 L 107 67 L 108 65 Z M 93 19 L 94 24 L 91 24 Z M 86 12 L 84 14 L 84 18 L 88 19 L 90 22 L 88 31 L 85 35 L 84 33 L 86 24 L 83 27 L 80 26 L 78 24 L 78 19 L 80 15 Z M 20 0 L 14 8 L 4 31 L 0 51 L 0 65 L 2 82 L 5 94 L 15 115 L 25 128 L 36 138 L 46 145 L 61 152 L 78 156 L 100 156 L 117 152 L 132 145 L 144 137 L 157 124 L 166 111 L 173 96 L 179 73 L 179 49 L 176 33 L 173 24 L 166 10 L 160 1 L 154 0 L 162 11 L 161 14 L 149 0 L 145 0 L 153 9 L 163 27 L 167 39 L 169 49 L 169 69 L 165 89 L 160 100 L 149 117 L 138 128 L 130 134 L 113 142 L 106 144 L 84 146 L 83 145 L 76 145 L 68 142 L 64 142 L 60 139 L 58 139 L 41 128 L 27 113 L 16 93 L 11 73 L 11 53 L 13 38 L 15 35 L 17 26 L 23 14 L 34 0 L 30 0 L 20 13 L 18 19 L 14 25 L 9 42 L 8 48 L 8 72 L 12 91 L 18 103 L 17 107 L 14 105 L 8 90 L 4 71 L 4 52 L 6 38 L 12 20 L 18 9 L 25 0 Z M 45 135 L 55 141 L 65 145 L 71 146 L 73 148 L 71 150 L 69 150 L 57 146 L 46 140 L 44 138 Z M 21 110 L 29 121 L 36 127 L 41 135 L 37 134 L 19 114 Z M 162 13 L 165 16 L 169 24 L 174 41 L 176 55 L 174 80 L 171 88 L 171 92 L 164 105 L 163 109 L 155 121 L 144 132 L 133 140 L 124 145 L 121 145 L 119 147 L 110 150 L 88 153 L 87 149 L 95 149 L 107 147 L 114 145 L 117 143 L 120 143 L 122 141 L 126 141 L 131 136 L 134 135 L 139 131 L 152 118 L 160 107 L 169 86 L 172 70 L 172 50 L 171 43 L 167 29 L 161 16 Z" fill="currentColor" fill-rule="evenodd"/>
</svg>
