<svg xmlns="http://www.w3.org/2000/svg" width="353" height="303" viewBox="0 0 353 303" role="img" aria-hidden="true">
  <path d="M 135 302 L 140 301 L 146 302 L 152 293 L 167 281 L 180 275 L 197 271 L 212 271 L 232 276 L 241 280 L 250 286 L 265 302 L 268 302 L 263 294 L 258 289 L 260 288 L 266 294 L 271 302 L 275 302 L 265 288 L 248 274 L 243 272 L 240 269 L 229 265 L 213 262 L 194 262 L 188 263 L 166 271 L 153 280 L 142 291 L 136 299 Z M 226 271 L 228 269 L 234 271 L 231 274 Z M 213 268 L 214 266 L 219 266 L 224 268 L 222 270 L 215 270 Z M 195 267 L 193 269 L 186 270 L 181 273 L 177 273 L 168 277 L 159 284 L 157 284 L 145 296 L 144 294 L 153 284 L 164 276 L 182 268 L 190 267 L 191 266 Z M 198 267 L 199 265 L 213 266 L 211 268 Z M 0 155 L 0 174 L 2 166 Z M 0 34 L 0 46 L 3 51 L 7 63 L 9 73 L 9 80 L 6 95 L 0 107 L 0 115 L 0 111 L 5 102 L 9 101 L 7 115 L 0 133 L 0 147 L 0 143 L 4 130 L 7 125 L 8 119 L 11 115 L 13 117 L 14 124 L 12 126 L 12 133 L 13 135 L 19 140 L 22 139 L 23 136 L 23 129 L 22 127 L 16 122 L 13 110 L 12 87 L 15 76 L 16 87 L 21 100 L 28 107 L 35 110 L 35 95 L 30 85 L 22 77 L 19 76 L 13 69 L 9 60 L 3 41 L 5 41 L 13 49 L 14 54 L 17 60 L 23 66 L 28 68 L 30 65 L 29 60 L 26 55 L 22 51 L 14 48 L 4 37 Z M 20 128 L 20 129 L 21 131 L 19 133 L 18 131 L 17 130 Z M 20 93 L 21 91 L 23 91 L 25 94 L 27 93 L 28 91 L 30 91 L 32 93 L 32 96 L 30 98 L 23 97 Z M 0 10 L 1 25 L 19 23 L 16 19 L 7 11 Z M 191 4 L 183 13 L 180 21 L 180 38 L 178 45 L 176 47 L 171 46 L 171 43 L 172 42 L 171 38 L 168 35 L 165 35 L 163 37 L 163 42 L 170 48 L 172 54 L 173 61 L 173 85 L 171 87 L 169 78 L 163 69 L 163 67 L 158 61 L 154 58 L 152 58 L 153 75 L 156 84 L 161 91 L 171 99 L 174 105 L 178 120 L 176 122 L 171 114 L 159 105 L 150 104 L 150 106 L 157 118 L 162 123 L 170 127 L 177 128 L 187 137 L 188 140 L 192 144 L 196 153 L 183 143 L 174 141 L 161 141 L 162 145 L 175 154 L 181 156 L 198 156 L 206 160 L 216 168 L 227 174 L 224 176 L 213 171 L 209 166 L 198 169 L 190 168 L 186 171 L 183 171 L 183 174 L 185 176 L 187 176 L 195 181 L 199 181 L 203 183 L 210 183 L 217 181 L 222 178 L 233 178 L 252 184 L 249 186 L 239 185 L 228 190 L 229 194 L 232 194 L 238 197 L 248 197 L 266 189 L 277 188 L 290 190 L 299 193 L 301 195 L 297 199 L 298 202 L 303 197 L 306 197 L 311 201 L 312 199 L 309 196 L 310 193 L 319 190 L 325 189 L 343 189 L 352 193 L 350 181 L 352 179 L 352 173 L 345 181 L 338 185 L 330 187 L 322 187 L 311 190 L 305 193 L 302 193 L 300 191 L 292 188 L 282 187 L 270 184 L 260 176 L 257 167 L 245 158 L 243 158 L 243 160 L 245 163 L 245 166 L 247 170 L 252 176 L 258 178 L 259 183 L 242 178 L 236 172 L 233 171 L 229 166 L 227 160 L 227 151 L 225 144 L 222 139 L 217 134 L 214 134 L 213 136 L 213 147 L 218 158 L 230 170 L 228 172 L 213 162 L 206 155 L 202 147 L 202 142 L 204 135 L 204 121 L 201 111 L 197 108 L 193 120 L 193 130 L 195 137 L 198 142 L 196 145 L 194 143 L 193 140 L 187 133 L 184 125 L 183 115 L 184 109 L 191 100 L 194 94 L 195 90 L 194 72 L 192 72 L 189 77 L 185 81 L 181 90 L 182 112 L 180 114 L 177 105 L 175 94 L 176 90 L 175 80 L 179 69 L 182 66 L 188 63 L 196 55 L 201 46 L 204 37 L 204 34 L 201 34 L 188 43 L 183 49 L 181 46 L 181 39 L 191 28 L 195 22 L 198 12 L 198 4 L 200 1 L 197 0 Z M 241 188 L 243 187 L 249 188 L 244 191 L 251 192 L 249 194 L 245 195 L 241 192 Z M 257 187 L 258 185 L 260 185 L 261 186 L 265 187 L 263 189 L 261 189 Z M 199 175 L 201 175 L 203 177 L 200 180 L 198 178 Z M 197 171 L 200 170 L 205 172 L 203 174 Z M 220 144 L 223 145 L 223 147 L 224 149 L 222 151 L 220 149 Z M 179 144 L 181 146 L 177 147 L 177 149 L 174 151 L 172 149 L 174 143 Z M 162 115 L 166 119 L 164 121 L 160 117 Z M 161 112 L 163 111 L 171 117 L 169 119 Z M 193 89 L 192 93 L 188 94 L 188 90 L 190 88 Z M 187 88 L 187 90 L 186 93 L 184 95 L 183 91 Z M 157 71 L 159 73 L 157 75 L 155 73 Z M 161 69 L 164 72 L 166 77 L 164 79 L 158 77 L 160 75 L 160 73 L 158 72 L 159 70 Z M 191 43 L 194 44 L 193 47 L 195 45 L 198 46 L 197 49 L 193 53 L 191 49 L 188 48 L 188 46 Z M 191 11 L 191 13 L 185 15 L 187 12 Z" fill="currentColor" fill-rule="evenodd"/>
</svg>
