<svg xmlns="http://www.w3.org/2000/svg" width="272" height="151" viewBox="0 0 272 151" role="img" aria-hidden="true">
  <path d="M 0 98 L 1 102 L 9 109 L 10 111 L 11 124 L 16 134 L 26 143 L 30 145 L 33 144 L 34 129 L 30 125 L 24 114 L 17 109 L 11 107 Z M 21 128 L 24 131 L 20 132 Z M 189 59 L 182 59 L 180 60 L 179 70 L 175 74 L 175 76 L 180 72 L 183 72 L 184 73 L 188 72 L 192 68 L 193 64 Z M 183 66 L 183 63 L 185 63 L 187 62 L 189 64 L 187 66 Z M 0 74 L 11 74 L 17 72 L 32 64 L 36 64 L 38 62 L 31 57 L 24 54 L 18 53 L 4 53 L 3 54 L 0 54 Z M 12 57 L 13 55 L 18 55 L 25 58 L 23 60 L 20 60 L 17 58 Z M 271 55 L 267 45 L 258 36 L 250 32 L 242 30 L 220 30 L 205 34 L 194 38 L 184 44 L 182 44 L 165 55 L 164 53 L 167 48 L 175 43 L 185 33 L 188 27 L 190 20 L 190 0 L 187 0 L 178 7 L 171 16 L 167 26 L 166 45 L 164 49 L 160 53 L 159 56 L 145 70 L 140 73 L 134 79 L 126 84 L 121 89 L 99 102 L 98 99 L 109 88 L 111 84 L 119 76 L 124 65 L 124 51 L 116 33 L 112 33 L 112 36 L 108 43 L 105 53 L 105 70 L 109 81 L 108 84 L 95 98 L 87 103 L 78 107 L 68 109 L 57 109 L 53 107 L 53 105 L 59 100 L 63 100 L 68 96 L 69 92 L 68 90 L 64 87 L 58 88 L 56 91 L 57 98 L 53 102 L 47 105 L 41 105 L 35 103 L 31 100 L 8 91 L 5 91 L 2 89 L 0 89 L 0 93 L 11 95 L 23 100 L 38 108 L 69 132 L 82 140 L 99 146 L 105 146 L 117 150 L 127 150 L 135 148 L 144 142 L 150 136 L 155 126 L 139 127 L 123 131 L 110 143 L 102 144 L 89 140 L 81 136 L 78 133 L 82 132 L 89 133 L 97 130 L 109 117 L 92 118 L 84 122 L 78 128 L 72 129 L 63 124 L 49 112 L 57 111 L 75 112 L 87 110 L 114 99 L 123 98 L 136 93 L 148 90 L 161 90 L 164 91 L 168 95 L 173 97 L 176 94 L 172 90 L 168 88 L 158 87 L 149 89 L 149 86 L 166 82 L 176 82 L 189 85 L 196 89 L 202 95 L 204 101 L 203 105 L 199 109 L 195 109 L 193 107 L 194 101 L 197 102 L 199 100 L 197 98 L 192 98 L 189 102 L 189 107 L 193 112 L 198 113 L 202 111 L 207 105 L 206 96 L 197 86 L 186 81 L 173 79 L 167 81 L 158 81 L 135 88 L 122 95 L 121 93 L 150 69 L 174 52 L 196 41 L 214 35 L 226 33 L 241 33 L 248 35 L 256 39 L 264 47 L 268 56 L 268 65 L 264 75 L 257 82 L 251 85 L 241 86 L 235 84 L 229 77 L 229 71 L 233 71 L 233 76 L 235 76 L 238 73 L 238 69 L 235 66 L 229 66 L 226 69 L 225 72 L 226 79 L 227 81 L 234 87 L 240 89 L 249 89 L 256 87 L 266 78 L 269 73 L 271 67 Z M 143 137 L 142 140 L 139 143 L 135 142 L 134 140 L 140 136 Z M 130 131 L 134 134 L 134 136 L 132 138 L 126 134 Z M 92 122 L 93 120 L 96 121 Z M 60 94 L 61 90 L 64 90 L 66 93 L 64 95 Z M 107 58 L 110 60 L 109 62 L 107 64 Z M 110 52 L 110 55 L 108 57 Z M 185 17 L 184 21 L 182 23 L 181 19 L 182 17 Z M 179 15 L 175 19 L 174 17 L 175 15 Z" fill="currentColor" fill-rule="evenodd"/>
</svg>
