<svg xmlns="http://www.w3.org/2000/svg" width="295" height="250" viewBox="0 0 295 250" role="img" aria-hidden="true">
  <path d="M 282 165 L 282 168 L 286 177 L 294 190 L 294 184 L 291 181 L 292 178 L 294 178 L 294 176 L 291 173 L 294 172 L 293 168 L 288 167 L 285 165 Z M 279 109 L 282 127 L 284 133 L 288 140 L 292 145 L 294 146 L 294 120 L 290 115 L 284 110 Z M 286 120 L 289 126 L 286 129 L 284 126 L 283 121 Z M 289 118 L 294 123 L 294 125 L 292 127 L 288 124 L 287 120 Z M 283 51 L 283 72 L 286 82 L 294 94 L 294 75 L 290 70 L 291 68 L 291 63 L 294 67 L 294 62 L 288 54 Z M 288 64 L 288 66 L 292 74 L 289 77 L 286 76 L 285 70 Z M 166 0 L 164 0 L 156 7 L 152 9 L 140 21 L 132 32 L 123 50 L 116 81 L 111 87 L 109 92 L 101 102 L 94 114 L 72 143 L 71 140 L 73 137 L 76 125 L 81 117 L 86 105 L 86 102 L 88 99 L 90 81 L 89 65 L 85 49 L 77 31 L 73 30 L 73 34 L 70 41 L 69 49 L 67 52 L 65 60 L 63 80 L 64 96 L 67 104 L 67 109 L 72 123 L 72 131 L 62 158 L 34 198 L 33 201 L 30 204 L 29 199 L 37 183 L 42 168 L 44 156 L 44 144 L 41 127 L 37 120 L 36 115 L 30 104 L 27 103 L 26 111 L 23 118 L 22 127 L 19 136 L 19 161 L 20 168 L 26 189 L 27 198 L 23 212 L 17 225 L 3 246 L 0 249 L 6 248 L 20 226 L 33 212 L 42 206 L 80 207 L 88 205 L 101 200 L 118 189 L 124 187 L 127 184 L 117 180 L 108 179 L 103 177 L 81 178 L 70 182 L 58 188 L 40 204 L 36 206 L 35 203 L 52 179 L 66 165 L 81 155 L 93 151 L 95 153 L 96 159 L 100 163 L 106 165 L 113 165 L 117 164 L 122 161 L 130 153 L 133 146 L 132 141 L 126 136 L 120 135 L 108 137 L 99 142 L 94 148 L 79 153 L 77 155 L 75 155 L 64 161 L 64 159 L 71 151 L 82 135 L 93 124 L 104 116 L 137 111 L 148 107 L 168 96 L 189 79 L 190 75 L 184 74 L 162 75 L 147 78 L 141 82 L 133 85 L 129 89 L 121 94 L 101 115 L 97 117 L 96 115 L 101 109 L 119 81 L 135 70 L 145 60 L 153 49 L 160 35 L 163 25 L 166 9 Z M 81 200 L 82 198 L 85 199 Z M 79 197 L 80 200 L 76 201 Z M 88 190 L 91 191 L 91 196 L 95 196 L 93 198 L 87 200 L 85 191 Z M 83 189 L 84 187 L 87 188 Z M 92 184 L 93 181 L 98 183 L 94 186 Z M 89 182 L 86 186 L 82 187 L 73 186 L 78 183 L 83 184 Z M 25 143 L 26 148 L 24 150 L 22 148 L 23 144 Z M 124 146 L 120 147 L 116 151 L 113 152 L 102 152 L 100 149 L 101 144 L 108 139 L 112 138 L 119 138 L 121 140 L 121 143 Z M 30 139 L 30 141 L 28 143 L 26 144 L 26 141 L 27 138 Z M 25 135 L 25 137 L 23 139 Z M 28 122 L 29 124 L 26 127 L 25 125 Z M 150 101 L 146 105 L 136 104 L 137 101 L 140 100 L 143 101 L 146 99 L 148 99 Z M 158 91 L 159 95 L 157 97 L 150 99 L 149 92 L 154 90 Z M 145 91 L 143 93 L 141 94 L 140 92 L 142 90 Z M 149 89 L 150 86 L 156 87 L 154 89 Z M 75 75 L 75 81 L 72 86 L 71 78 L 69 78 L 68 88 L 67 86 L 65 85 L 65 80 L 68 75 Z M 87 69 L 84 71 L 84 73 L 87 74 L 82 77 L 82 68 Z M 150 41 L 151 38 L 154 40 Z M 134 35 L 135 38 L 133 40 L 132 37 Z M 144 32 L 145 35 L 142 38 L 141 35 Z M 149 30 L 151 32 L 151 34 L 148 37 L 147 34 Z" fill="currentColor" fill-rule="evenodd"/>
</svg>
