<svg xmlns="http://www.w3.org/2000/svg" width="237" height="161" viewBox="0 0 237 161" role="img" aria-hidden="true">
  <path d="M 0 0 L 1 160 L 4 160 L 5 159 L 229 160 L 236 154 L 236 150 L 231 146 L 227 147 L 227 154 L 232 154 L 227 158 L 223 156 L 182 157 L 174 154 L 179 151 L 183 147 L 185 147 L 189 144 L 190 142 L 189 138 L 181 138 L 181 146 L 176 150 L 167 154 L 157 156 L 130 156 L 115 154 L 112 150 L 125 150 L 130 148 L 141 147 L 154 141 L 160 135 L 164 128 L 168 115 L 165 114 L 157 119 L 154 119 L 149 122 L 142 129 L 137 137 L 137 139 L 130 146 L 122 148 L 113 148 L 100 145 L 88 139 L 85 139 L 79 136 L 76 133 L 67 129 L 41 124 L 53 119 L 69 118 L 80 121 L 89 125 L 90 122 L 89 115 L 82 107 L 84 105 L 90 104 L 111 95 L 123 95 L 128 97 L 135 104 L 137 110 L 137 114 L 134 120 L 126 127 L 120 127 L 114 123 L 113 121 L 115 116 L 117 119 L 120 116 L 119 112 L 116 111 L 112 112 L 110 116 L 110 121 L 111 124 L 115 128 L 119 130 L 125 130 L 130 128 L 137 121 L 140 111 L 139 106 L 136 100 L 131 95 L 124 90 L 109 83 L 87 83 L 75 86 L 61 95 L 46 111 L 45 108 L 47 105 L 54 98 L 65 84 L 69 73 L 69 67 L 72 60 L 72 58 L 69 58 L 58 64 L 54 65 L 44 76 L 39 73 L 40 78 L 37 90 L 37 112 L 36 117 L 34 119 L 31 97 L 19 66 L 18 61 L 19 45 L 21 39 L 28 31 L 30 30 L 40 30 L 46 35 L 48 39 L 48 43 L 46 47 L 42 51 L 39 51 L 37 49 L 37 46 L 39 44 L 35 43 L 33 45 L 33 49 L 34 51 L 37 53 L 43 53 L 49 48 L 51 43 L 51 38 L 48 32 L 42 27 L 32 27 L 25 30 L 20 35 L 17 40 L 16 31 L 23 15 L 30 6 L 35 3 L 38 3 L 41 6 L 47 6 L 51 2 L 51 0 L 47 1 L 47 2 L 43 2 L 45 0 L 34 0 L 31 2 L 22 11 L 18 18 L 15 27 L 14 34 L 12 36 L 11 29 L 12 22 L 19 0 L 16 0 L 11 14 L 9 23 L 9 47 L 14 65 L 27 95 L 25 97 L 17 89 L 6 66 L 5 56 L 3 51 L 3 0 Z M 153 133 L 154 130 L 158 132 L 156 134 Z M 29 138 L 33 133 L 39 130 L 44 129 L 59 130 L 66 132 L 78 138 L 90 146 L 102 152 L 111 155 L 109 157 L 96 156 L 73 157 L 68 156 L 68 154 L 70 151 L 70 148 L 66 143 L 62 141 L 52 138 L 36 139 L 32 141 L 29 140 Z M 153 124 L 155 127 L 152 130 L 149 131 L 147 129 L 147 127 L 150 124 Z M 80 93 L 77 96 L 77 92 Z M 73 90 L 75 88 L 78 89 L 76 91 Z M 82 89 L 82 86 L 90 84 L 100 85 L 98 87 L 96 87 L 96 89 L 94 91 L 91 92 L 84 91 L 85 89 Z M 52 71 L 54 73 L 54 79 L 52 81 L 47 79 L 47 76 L 49 73 Z M 6 71 L 6 74 L 10 80 L 6 86 L 9 90 L 16 91 L 23 98 L 28 107 L 31 117 L 29 131 L 26 135 L 23 124 L 21 122 L 16 120 L 11 120 L 8 123 L 9 129 L 13 130 L 16 127 L 14 123 L 16 123 L 21 127 L 23 132 L 22 139 L 20 142 L 13 148 L 9 147 L 9 150 L 11 152 L 14 152 L 36 142 L 40 141 L 55 141 L 61 143 L 67 149 L 65 151 L 61 149 L 62 154 L 60 156 L 5 156 L 3 154 L 4 75 Z" fill="currentColor" fill-rule="evenodd"/>
</svg>
