<svg xmlns="http://www.w3.org/2000/svg" width="230" height="232" viewBox="0 0 230 232" role="img" aria-hidden="true">
  <path d="M 197 198 L 195 199 L 194 203 L 196 207 L 200 208 L 204 205 L 205 202 L 203 199 Z M 110 136 L 101 141 L 93 149 L 90 154 L 86 167 L 86 172 L 89 186 L 93 193 L 102 202 L 109 206 L 116 208 L 131 208 L 137 206 L 144 202 L 153 193 L 159 183 L 161 176 L 161 165 L 159 158 L 150 145 L 144 140 L 138 137 L 128 134 L 120 134 Z M 116 139 L 130 139 L 142 144 L 152 154 L 156 163 L 157 173 L 152 188 L 144 197 L 130 204 L 120 205 L 112 203 L 108 200 L 106 200 L 99 194 L 94 187 L 91 179 L 91 163 L 96 152 L 104 144 Z M 142 158 L 139 158 L 118 180 L 108 171 L 104 172 L 104 174 L 118 187 L 143 161 Z M 207 82 L 203 81 L 199 95 L 200 107 L 205 118 L 204 133 L 201 138 L 200 129 L 196 118 L 194 115 L 183 107 L 185 127 L 189 135 L 198 144 L 199 147 L 199 155 L 197 162 L 189 179 L 186 182 L 185 185 L 183 187 L 182 183 L 184 181 L 187 171 L 187 161 L 182 148 L 180 145 L 176 142 L 175 149 L 173 154 L 173 166 L 175 174 L 179 182 L 179 186 L 174 196 L 165 205 L 152 214 L 142 219 L 126 225 L 110 228 L 89 228 L 75 226 L 76 228 L 90 231 L 112 231 L 139 224 L 151 218 L 158 218 L 170 223 L 181 223 L 186 220 L 180 215 L 163 210 L 174 205 L 190 202 L 186 201 L 176 203 L 175 200 L 186 188 L 190 186 L 205 185 L 214 182 L 224 173 L 228 167 L 212 167 L 208 168 L 201 172 L 194 178 L 193 175 L 199 165 L 200 160 L 204 152 L 208 149 L 216 146 L 223 140 L 229 126 L 229 122 L 225 122 L 216 127 L 210 133 L 208 140 L 206 142 L 205 137 L 207 120 L 213 104 L 213 96 Z M 164 217 L 166 215 L 175 216 L 180 219 L 178 221 L 170 221 L 165 219 Z M 223 170 L 216 177 L 208 182 L 203 183 L 200 181 L 202 179 L 211 176 L 216 173 L 211 173 L 206 176 L 200 175 L 208 171 L 216 169 Z M 179 159 L 180 171 L 178 173 L 176 170 L 175 160 Z M 183 158 L 184 160 L 184 164 L 182 166 L 181 162 L 180 161 Z M 225 127 L 225 130 L 222 136 L 211 143 L 213 140 L 216 138 L 219 133 L 217 133 L 214 136 L 213 134 L 221 127 Z M 195 123 L 198 130 L 196 132 L 192 124 Z M 190 122 L 194 132 L 192 134 L 189 131 L 187 125 Z M 210 97 L 210 105 L 208 107 Z M 205 95 L 205 103 L 203 105 Z M 206 63 L 210 67 L 215 61 L 211 56 L 206 61 Z M 204 47 L 204 49 L 206 48 Z M 113 37 L 105 34 L 90 34 L 86 35 L 74 41 L 66 50 L 61 64 L 62 81 L 65 88 L 70 95 L 78 102 L 84 105 L 82 107 L 75 108 L 61 114 L 55 118 L 44 130 L 39 140 L 35 154 L 35 178 L 37 180 L 39 178 L 39 157 L 40 150 L 46 135 L 50 129 L 57 122 L 71 114 L 82 111 L 92 110 L 102 110 L 119 113 L 128 117 L 138 124 L 145 132 L 146 135 L 148 136 L 150 134 L 150 132 L 145 125 L 134 115 L 124 110 L 115 108 L 111 104 L 118 100 L 125 93 L 130 85 L 132 78 L 132 73 L 133 72 L 132 62 L 129 53 L 124 46 L 119 41 Z M 93 38 L 105 39 L 114 43 L 122 50 L 128 62 L 128 67 L 129 68 L 128 78 L 122 90 L 110 100 L 101 103 L 92 103 L 80 98 L 71 89 L 66 77 L 66 62 L 71 51 L 81 42 Z M 116 0 L 85 0 L 80 1 L 59 8 L 42 18 L 28 31 L 16 47 L 7 66 L 1 90 L 0 98 L 0 127 L 5 149 L 14 170 L 26 188 L 34 195 L 37 199 L 45 205 L 59 213 L 76 218 L 82 218 L 83 219 L 89 218 L 80 217 L 67 213 L 51 205 L 40 197 L 33 190 L 19 172 L 10 153 L 5 134 L 3 116 L 3 102 L 5 87 L 13 61 L 20 48 L 31 33 L 42 23 L 58 12 L 77 5 L 88 3 L 110 3 L 116 5 L 122 5 L 142 12 L 149 16 L 163 26 L 172 35 L 183 50 L 191 68 L 193 67 L 191 59 L 182 42 L 167 25 L 151 13 L 137 6 Z" fill="currentColor" fill-rule="evenodd"/>
</svg>
