<svg xmlns="http://www.w3.org/2000/svg" width="228" height="232" viewBox="0 0 228 232" role="img" aria-hidden="true">
  <path d="M 205 78 L 203 78 L 202 83 L 195 98 L 196 114 L 201 126 L 199 141 L 193 157 L 187 167 L 185 169 L 184 166 L 187 157 L 189 155 L 188 152 L 189 140 L 186 131 L 180 120 L 176 120 L 176 125 L 173 136 L 173 146 L 176 156 L 181 165 L 181 171 L 177 180 L 174 184 L 149 208 L 140 214 L 133 215 L 146 201 L 148 196 L 150 183 L 148 176 L 146 176 L 140 183 L 135 192 L 132 211 L 129 216 L 123 222 L 112 227 L 102 229 L 102 231 L 116 229 L 129 223 L 133 223 L 134 222 L 142 223 L 154 227 L 165 227 L 178 221 L 190 213 L 183 210 L 172 208 L 161 209 L 154 212 L 152 209 L 172 191 L 176 189 L 186 189 L 192 191 L 203 190 L 214 185 L 226 177 L 219 174 L 200 173 L 192 176 L 181 183 L 180 181 L 188 171 L 194 160 L 199 155 L 211 151 L 216 148 L 222 142 L 227 131 L 222 130 L 209 136 L 200 150 L 199 147 L 203 136 L 204 127 L 212 110 L 212 96 L 207 80 Z M 182 214 L 179 217 L 172 221 L 168 221 L 163 224 L 158 225 L 157 223 L 150 220 L 157 218 L 167 218 L 170 215 L 165 215 L 164 216 L 156 217 L 153 215 L 155 213 L 159 212 L 173 211 Z M 144 183 L 147 185 L 145 187 L 146 194 L 143 201 L 139 206 L 138 204 L 136 203 L 136 198 L 140 188 Z M 139 201 L 141 198 L 139 199 Z M 219 178 L 207 186 L 202 188 L 186 186 L 188 184 L 202 182 L 206 180 L 195 180 L 192 181 L 190 179 L 199 176 L 210 175 Z M 186 145 L 186 149 L 184 151 Z M 222 136 L 220 140 L 215 145 L 209 149 L 206 147 L 215 140 L 211 141 L 207 145 L 206 143 L 211 138 L 217 136 L 219 134 Z M 181 128 L 185 140 L 183 142 L 182 138 L 180 136 L 181 152 L 179 154 L 178 150 L 176 148 L 176 140 L 177 139 L 177 130 L 178 128 Z M 206 87 L 209 95 L 210 107 L 208 115 L 206 117 L 205 100 L 203 100 L 203 116 L 201 118 L 198 110 L 198 101 L 199 95 L 202 88 Z M 75 37 L 68 42 L 59 53 L 53 67 L 52 76 L 45 82 L 43 86 L 42 98 L 43 104 L 45 108 L 52 114 L 59 114 L 61 112 L 63 103 L 64 108 L 67 112 L 69 118 L 72 123 L 80 131 L 80 134 L 75 140 L 56 148 L 50 152 L 45 157 L 40 166 L 37 175 L 38 187 L 41 184 L 41 174 L 47 161 L 55 153 L 62 149 L 72 146 L 78 143 L 83 137 L 84 131 L 74 119 L 71 114 L 68 105 L 67 97 L 68 77 L 72 67 L 81 57 L 86 54 L 96 51 L 107 51 L 114 53 L 120 56 L 129 65 L 135 78 L 136 96 L 133 111 L 130 117 L 123 126 L 115 127 L 113 124 L 109 121 L 100 120 L 94 122 L 92 126 L 92 130 L 94 134 L 99 137 L 106 137 L 109 136 L 114 131 L 118 131 L 120 133 L 120 137 L 123 142 L 130 146 L 137 148 L 151 156 L 155 160 L 160 168 L 163 179 L 163 187 L 166 185 L 166 173 L 165 169 L 159 159 L 147 148 L 127 140 L 124 136 L 125 130 L 131 129 L 141 124 L 145 120 L 148 115 L 152 113 L 159 106 L 161 101 L 161 91 L 158 83 L 150 76 L 149 66 L 144 54 L 131 40 L 125 36 L 116 32 L 110 31 L 91 31 L 81 34 Z M 96 130 L 97 125 L 99 124 L 106 124 L 111 127 L 111 129 L 107 133 L 101 133 Z M 142 96 L 142 113 L 144 115 L 134 124 L 131 123 L 131 121 L 135 116 Z M 146 81 L 151 82 L 155 86 L 157 91 L 157 100 L 155 105 L 149 110 L 146 109 L 145 106 L 145 84 Z M 55 81 L 57 83 L 57 107 L 53 110 L 47 104 L 46 92 L 48 85 L 51 82 Z M 145 65 L 146 75 L 142 78 L 142 82 L 140 84 L 136 69 L 132 62 L 124 54 L 118 50 L 109 47 L 93 47 L 84 50 L 79 53 L 72 60 L 65 73 L 64 78 L 64 98 L 62 100 L 61 79 L 58 77 L 56 74 L 57 68 L 63 54 L 73 43 L 82 38 L 91 35 L 111 35 L 117 37 L 130 44 L 140 55 Z M 112 0 L 90 0 L 74 3 L 57 9 L 37 23 L 26 34 L 15 51 L 6 72 L 1 94 L 0 105 L 1 132 L 7 157 L 13 171 L 25 189 L 36 201 L 52 212 L 70 220 L 86 222 L 96 222 L 107 220 L 109 218 L 103 218 L 102 219 L 83 219 L 62 213 L 43 202 L 27 186 L 19 174 L 11 157 L 6 140 L 4 126 L 4 101 L 7 82 L 13 64 L 22 46 L 25 42 L 28 40 L 29 37 L 40 25 L 48 19 L 57 14 L 59 14 L 62 11 L 72 7 L 84 4 L 93 3 L 115 4 L 125 6 L 145 14 L 161 25 L 178 43 L 184 52 L 191 66 L 192 71 L 194 70 L 191 60 L 185 47 L 178 37 L 167 25 L 157 17 L 142 8 L 124 2 Z" fill="currentColor" fill-rule="evenodd"/>
</svg>
