<svg xmlns="http://www.w3.org/2000/svg" width="231" height="230" viewBox="0 0 231 230" role="img" aria-hidden="true">
  <path d="M 147 168 L 148 170 L 152 170 L 150 168 Z M 80 133 L 76 135 L 72 139 L 69 146 L 70 157 L 73 163 L 78 169 L 98 188 L 101 189 L 113 178 L 128 162 L 132 153 L 132 147 L 130 141 L 127 137 L 120 133 L 111 133 L 108 134 L 100 140 L 93 134 L 90 133 Z M 120 137 L 127 143 L 128 146 L 128 154 L 127 157 L 123 163 L 100 185 L 85 171 L 76 161 L 73 154 L 74 144 L 75 142 L 81 137 L 90 137 L 92 138 L 99 146 L 102 146 L 103 143 L 108 138 L 110 137 Z M 212 96 L 210 95 L 203 110 L 203 112 L 206 109 L 209 110 L 207 119 L 205 121 L 205 127 L 203 130 L 203 134 L 201 136 L 200 124 L 202 114 L 199 114 L 197 120 L 198 145 L 191 161 L 180 177 L 169 188 L 168 186 L 170 184 L 170 182 L 179 170 L 182 158 L 180 144 L 177 135 L 173 134 L 173 136 L 166 149 L 164 156 L 164 171 L 165 178 L 166 179 L 166 184 L 163 191 L 154 201 L 134 215 L 133 212 L 136 209 L 140 199 L 145 194 L 145 187 L 141 184 L 137 185 L 135 188 L 135 194 L 137 202 L 133 210 L 121 221 L 107 226 L 96 227 L 97 229 L 108 229 L 121 225 L 135 218 L 140 217 L 145 217 L 155 222 L 166 222 L 169 221 L 174 217 L 169 213 L 164 211 L 149 212 L 149 208 L 160 200 L 163 199 L 170 199 L 180 204 L 187 206 L 199 206 L 212 202 L 212 199 L 206 195 L 197 191 L 193 190 L 182 190 L 173 193 L 170 191 L 178 183 L 186 178 L 192 176 L 204 175 L 213 171 L 219 166 L 230 152 L 219 151 L 206 155 L 200 159 L 191 169 L 190 166 L 197 156 L 200 148 L 213 134 L 217 126 L 218 117 L 216 119 L 215 107 Z M 155 219 L 155 216 L 157 216 L 159 214 L 164 214 L 167 217 L 163 220 L 157 220 Z M 177 200 L 178 197 L 190 199 L 195 197 L 182 194 L 184 192 L 199 194 L 207 199 L 203 202 L 195 204 L 188 204 Z M 141 188 L 143 191 L 138 193 L 139 188 Z M 224 155 L 211 169 L 207 170 L 205 172 L 196 174 L 195 172 L 197 170 L 201 169 L 212 161 L 207 162 L 201 166 L 198 165 L 205 159 L 218 154 Z M 176 143 L 179 154 L 178 164 L 175 171 L 173 173 L 172 170 L 174 164 L 173 151 L 170 172 L 168 174 L 167 156 L 168 152 L 172 144 Z M 213 111 L 213 119 L 215 125 L 213 129 L 208 133 L 206 136 L 205 132 L 208 124 L 209 114 Z M 202 75 L 201 77 L 202 82 L 206 84 L 208 83 L 211 78 L 208 74 Z M 113 44 L 103 42 L 90 43 L 82 47 L 75 54 L 70 66 L 70 81 L 72 87 L 77 95 L 88 103 L 89 105 L 87 107 L 83 107 L 77 109 L 67 114 L 55 125 L 49 137 L 46 147 L 45 155 L 45 177 L 49 178 L 50 176 L 49 164 L 50 148 L 55 133 L 61 125 L 69 118 L 77 113 L 89 110 L 109 110 L 116 111 L 124 114 L 136 122 L 140 126 L 146 135 L 149 143 L 150 156 L 152 162 L 154 160 L 154 147 L 152 138 L 145 126 L 134 115 L 129 112 L 116 107 L 112 107 L 111 103 L 117 100 L 127 89 L 130 83 L 130 78 L 131 77 L 130 66 L 126 56 Z M 102 46 L 103 47 L 110 48 L 115 51 L 122 58 L 125 63 L 127 74 L 126 80 L 122 89 L 111 99 L 100 102 L 94 101 L 87 98 L 79 91 L 75 83 L 74 67 L 77 59 L 82 53 L 86 50 L 93 47 Z M 93 0 L 75 3 L 63 7 L 49 14 L 36 24 L 23 38 L 15 50 L 8 64 L 4 75 L 0 97 L 0 124 L 4 143 L 7 152 L 15 169 L 28 187 L 37 196 L 54 208 L 64 213 L 73 216 L 83 218 L 104 218 L 107 216 L 90 216 L 75 213 L 64 209 L 49 201 L 35 189 L 26 179 L 18 167 L 9 147 L 4 123 L 4 94 L 5 88 L 12 64 L 18 52 L 28 38 L 43 23 L 57 14 L 73 7 L 88 4 L 105 3 L 123 5 L 135 8 L 155 17 L 168 26 L 186 45 L 196 62 L 198 61 L 193 50 L 185 38 L 166 20 L 152 11 L 127 2 L 112 0 Z" fill="currentColor" fill-rule="evenodd"/>
</svg>
