<svg xmlns="http://www.w3.org/2000/svg" width="312" height="358" viewBox="0 0 312 358" role="img" aria-hidden="true">
  <path d="M 65 357 L 78 357 L 91 353 L 113 353 L 124 354 L 133 357 L 145 357 L 126 351 L 110 349 L 85 351 Z M 59 117 L 62 117 L 63 118 L 66 118 L 67 117 L 101 117 L 104 118 L 105 114 L 59 114 Z M 59 94 L 60 98 L 124 98 L 125 94 Z M 211 76 L 208 76 L 202 88 L 200 97 L 200 106 L 205 118 L 205 130 L 202 146 L 199 151 L 198 145 L 199 144 L 199 140 L 195 126 L 186 113 L 183 113 L 182 136 L 186 147 L 194 158 L 195 167 L 192 177 L 190 179 L 189 184 L 182 194 L 181 190 L 183 186 L 183 176 L 178 165 L 176 165 L 173 176 L 173 185 L 176 192 L 176 201 L 172 209 L 164 218 L 164 221 L 174 212 L 189 204 L 198 204 L 201 207 L 203 207 L 207 203 L 207 200 L 204 197 L 200 197 L 195 202 L 186 203 L 181 206 L 180 203 L 189 190 L 194 186 L 206 184 L 217 179 L 224 172 L 230 160 L 221 161 L 210 164 L 205 167 L 202 171 L 197 175 L 196 172 L 204 151 L 209 146 L 218 142 L 225 135 L 229 126 L 230 121 L 226 120 L 216 125 L 212 129 L 211 133 L 207 139 L 206 134 L 208 129 L 208 120 L 216 104 L 216 92 L 213 80 Z M 201 200 L 204 202 L 202 204 L 200 202 Z M 179 173 L 180 176 L 178 179 L 178 184 L 176 186 L 175 178 Z M 225 165 L 215 177 L 210 180 L 203 182 L 203 178 L 211 174 L 220 167 L 218 167 L 216 169 L 207 173 L 203 173 L 206 170 L 218 164 Z M 187 130 L 189 132 L 192 146 L 190 148 L 186 142 L 184 132 Z M 225 126 L 225 129 L 223 133 L 212 140 L 220 131 L 220 127 L 222 125 Z M 190 125 L 193 128 L 196 139 L 194 141 L 190 133 L 189 129 Z M 187 120 L 187 124 L 185 122 Z M 211 89 L 213 91 L 213 102 L 212 107 L 209 111 L 208 108 L 210 101 L 209 92 Z M 208 88 L 207 102 L 204 106 L 203 94 L 204 91 Z M 58 75 L 59 78 L 128 78 L 130 76 L 128 74 Z M 311 61 L 305 73 L 301 85 L 296 113 L 296 129 L 299 151 L 303 165 L 311 183 L 311 174 L 304 156 L 300 135 L 301 103 L 305 85 L 311 70 Z M 38 49 L 37 51 L 37 191 L 40 195 L 95 195 L 101 194 L 103 192 L 46 191 L 41 189 L 42 52 L 145 52 L 147 54 L 146 69 L 147 108 L 146 125 L 144 127 L 139 127 L 132 123 L 127 123 L 122 127 L 115 126 L 110 130 L 109 133 L 105 137 L 100 140 L 100 149 L 96 155 L 96 159 L 100 164 L 100 173 L 102 176 L 106 178 L 108 183 L 105 199 L 98 225 L 100 231 L 127 212 L 131 212 L 159 231 L 162 227 L 156 204 L 154 189 L 152 184 L 153 177 L 156 176 L 160 172 L 160 163 L 163 160 L 163 154 L 160 150 L 161 144 L 160 141 L 151 134 L 150 129 L 151 109 L 151 68 L 150 51 L 147 48 Z M 113 187 L 123 188 L 128 192 L 133 191 L 137 187 L 148 187 L 150 189 L 150 193 L 152 198 L 153 208 L 155 212 L 156 221 L 154 223 L 134 209 L 128 207 L 105 223 L 104 217 L 109 195 Z M 129 126 L 131 126 L 136 130 L 145 130 L 147 132 L 148 136 L 152 140 L 157 143 L 157 152 L 160 156 L 160 158 L 157 162 L 157 170 L 148 177 L 148 180 L 143 184 L 136 184 L 131 188 L 128 188 L 123 184 L 117 185 L 112 180 L 112 178 L 103 170 L 104 164 L 100 159 L 100 155 L 104 150 L 103 143 L 112 135 L 114 130 L 121 131 Z M 124 138 L 117 141 L 114 144 L 110 154 L 111 164 L 113 168 L 122 176 L 135 177 L 141 173 L 146 168 L 149 161 L 149 152 L 145 144 L 140 140 L 135 138 Z M 126 141 L 133 141 L 138 143 L 144 149 L 146 154 L 146 160 L 143 166 L 137 172 L 132 174 L 127 174 L 122 172 L 116 166 L 114 161 L 114 152 L 116 148 L 121 143 Z M 171 24 L 157 14 L 140 6 L 120 1 L 112 0 L 104 1 L 100 0 L 84 2 L 65 8 L 49 16 L 40 23 L 26 37 L 17 50 L 9 66 L 3 85 L 0 106 L 0 127 L 4 149 L 10 166 L 15 176 L 23 187 L 26 187 L 22 182 L 11 161 L 7 147 L 7 142 L 5 138 L 4 132 L 4 99 L 7 89 L 7 83 L 11 70 L 20 52 L 32 36 L 46 23 L 57 16 L 71 9 L 93 4 L 122 5 L 131 7 L 145 12 L 158 19 L 168 26 L 186 45 L 194 58 L 197 66 L 198 63 L 197 58 L 194 52 L 183 36 Z" fill="currentColor" fill-rule="evenodd"/>
</svg>
