<svg xmlns="http://www.w3.org/2000/svg" width="312" height="231" viewBox="0 0 312 231" role="img" aria-hidden="true">
  <path d="M 200 182 L 197 183 L 197 184 L 195 186 L 195 188 Z M 168 170 L 168 173 L 170 171 Z M 212 96 L 209 97 L 209 99 L 205 105 L 205 107 L 203 109 L 201 115 L 201 127 L 204 135 L 204 143 L 201 149 L 199 158 L 191 171 L 190 168 L 191 152 L 189 145 L 186 146 L 180 156 L 177 164 L 177 185 L 172 194 L 162 204 L 148 213 L 147 210 L 151 204 L 153 198 L 157 195 L 158 192 L 155 188 L 150 188 L 148 190 L 148 195 L 150 198 L 150 202 L 148 207 L 143 214 L 136 219 L 126 223 L 108 227 L 88 227 L 68 224 L 69 226 L 72 226 L 84 230 L 108 230 L 126 226 L 133 223 L 152 222 L 153 221 L 162 221 L 166 226 L 170 226 L 174 221 L 172 217 L 166 216 L 162 220 L 146 218 L 171 201 L 178 201 L 184 204 L 192 204 L 203 200 L 205 197 L 201 194 L 195 192 L 188 192 L 183 193 L 180 195 L 179 192 L 186 184 L 195 176 L 206 174 L 212 171 L 219 164 L 226 152 L 220 151 L 212 154 L 207 157 L 200 165 L 199 162 L 202 155 L 205 152 L 205 146 L 207 139 L 215 128 L 217 116 L 215 104 Z M 167 219 L 169 219 L 171 221 L 168 224 L 166 222 Z M 200 198 L 198 200 L 191 202 L 186 202 L 184 201 L 184 198 L 193 198 L 194 196 L 196 195 Z M 188 196 L 189 194 L 193 195 L 191 197 Z M 155 193 L 151 194 L 153 191 Z M 188 178 L 184 182 L 183 180 L 185 178 L 185 177 Z M 189 163 L 188 168 L 185 172 L 184 169 L 185 168 L 185 164 Z M 211 160 L 204 166 L 203 164 L 208 159 Z M 184 157 L 187 158 L 184 162 L 184 166 L 181 171 L 180 163 Z M 220 157 L 217 162 L 209 170 L 207 171 L 201 171 L 215 159 L 216 155 Z M 205 119 L 208 122 L 207 128 L 205 130 L 203 127 Z M 212 110 L 214 112 L 214 122 L 212 127 L 210 129 L 209 123 L 210 112 Z M 206 76 L 200 76 L 199 78 L 199 83 L 203 86 L 208 82 L 208 78 Z M 202 79 L 205 81 L 203 83 L 201 81 Z M 311 38 L 301 53 L 293 71 L 287 96 L 286 107 L 286 124 L 290 149 L 297 169 L 305 183 L 311 191 L 311 185 L 305 176 L 297 159 L 293 147 L 290 128 L 290 103 L 293 84 L 299 66 L 308 48 L 311 45 Z M 107 28 L 104 29 L 93 59 L 88 66 L 84 67 L 50 68 L 51 73 L 80 97 L 78 107 L 75 115 L 75 119 L 71 131 L 69 133 L 59 124 L 50 119 L 32 106 L 30 106 L 30 118 L 32 133 L 34 136 L 35 143 L 40 154 L 46 163 L 55 172 L 68 180 L 85 187 L 98 199 L 102 207 L 105 221 L 108 219 L 109 210 L 114 199 L 117 195 L 127 186 L 134 183 L 156 168 L 170 151 L 177 135 L 181 113 L 179 106 L 165 116 L 160 121 L 151 126 L 146 131 L 141 132 L 133 102 L 133 99 L 132 98 L 133 95 L 163 71 L 162 68 L 123 66 L 121 64 L 110 32 Z M 108 117 L 129 131 L 137 135 L 138 137 L 128 149 L 120 162 L 116 172 L 113 185 L 111 188 L 111 196 L 109 198 L 107 124 L 105 124 L 104 126 L 105 129 L 105 155 L 104 165 L 105 200 L 103 202 L 100 193 L 100 185 L 98 183 L 97 175 L 94 167 L 88 155 L 82 146 L 74 138 L 74 136 L 104 117 Z M 178 113 L 174 135 L 165 153 L 160 159 L 148 170 L 129 181 L 122 187 L 121 184 L 132 169 L 157 143 L 155 143 L 146 152 L 138 158 L 126 171 L 122 178 L 118 182 L 117 179 L 122 166 L 124 164 L 126 158 L 132 149 L 147 133 L 151 131 L 161 122 L 175 112 Z M 35 112 L 61 130 L 76 144 L 86 158 L 90 166 L 96 183 L 94 185 L 92 181 L 83 170 L 63 150 L 54 143 L 57 148 L 65 157 L 75 166 L 91 185 L 89 187 L 85 184 L 65 175 L 58 170 L 48 160 L 43 153 L 37 139 L 33 116 Z M 108 39 L 111 49 L 114 54 L 118 67 L 120 70 L 122 71 L 147 71 L 154 73 L 139 86 L 129 93 L 128 99 L 130 103 L 130 107 L 135 123 L 133 128 L 109 113 L 104 112 L 78 129 L 77 125 L 78 124 L 78 120 L 82 109 L 83 101 L 85 97 L 84 94 L 63 78 L 60 72 L 65 71 L 90 71 L 94 68 L 104 40 Z M 121 1 L 103 0 L 80 3 L 65 8 L 53 14 L 44 20 L 25 38 L 16 51 L 7 70 L 3 84 L 0 105 L 1 129 L 4 143 L 9 158 L 13 166 L 24 183 L 35 195 L 51 207 L 69 215 L 84 218 L 89 217 L 76 215 L 63 210 L 45 199 L 40 195 L 26 180 L 19 170 L 14 160 L 8 145 L 4 126 L 4 97 L 6 93 L 7 82 L 11 69 L 19 53 L 22 50 L 28 40 L 42 26 L 53 18 L 60 14 L 62 14 L 68 10 L 91 4 L 124 5 L 135 8 L 152 15 L 168 26 L 181 39 L 191 53 L 196 64 L 198 63 L 198 61 L 193 51 L 181 34 L 166 20 L 157 14 L 143 7 Z" fill="currentColor" fill-rule="evenodd"/>
</svg>
