<svg xmlns="http://www.w3.org/2000/svg" width="240" height="278" viewBox="0 0 240 278" role="img" aria-hidden="true">
  <path d="M 176 277 L 179 277 L 180 276 L 184 275 L 176 275 Z M 156 275 L 156 277 L 160 277 L 158 275 Z M 146 275 L 146 277 L 149 277 L 149 275 Z M 122 275 L 122 277 L 124 277 Z M 167 274 L 167 277 L 169 277 Z M 129 274 L 130 277 L 140 275 L 137 275 L 136 274 Z M 111 274 L 111 277 L 114 277 L 113 274 Z M 91 277 L 94 277 L 95 276 L 104 277 L 100 274 L 95 274 L 92 275 Z M 73 274 L 73 277 L 77 276 L 79 276 L 80 277 L 83 277 L 81 275 Z M 186 247 L 187 263 L 194 261 L 190 261 L 188 259 L 189 256 L 192 256 L 194 254 L 190 254 L 188 252 L 189 249 L 194 247 Z M 168 247 L 168 262 L 173 259 L 177 263 L 178 261 L 176 258 L 176 256 L 179 251 L 176 247 Z M 171 249 L 173 249 L 175 252 L 172 254 L 170 252 Z M 131 247 L 128 250 L 127 253 L 128 258 L 131 262 L 137 263 L 141 260 L 134 261 L 131 258 L 130 253 L 132 249 L 136 248 L 139 250 L 139 247 Z M 108 247 L 107 258 L 108 263 L 113 255 L 114 259 L 119 263 L 121 261 L 120 247 L 118 247 L 118 253 L 116 255 L 111 248 Z M 99 247 L 97 247 L 97 262 L 99 261 Z M 78 247 L 79 263 L 83 258 L 88 263 L 89 261 L 84 255 L 84 253 L 88 247 L 86 247 L 82 251 L 80 247 Z M 152 247 L 151 253 L 147 260 L 148 263 L 150 260 L 156 259 L 161 261 L 156 247 Z M 153 253 L 156 255 L 154 257 L 152 255 Z M 64 246 L 62 247 L 61 252 L 65 256 L 67 256 L 69 258 L 66 261 L 64 261 L 61 259 L 61 261 L 63 263 L 68 263 L 71 260 L 71 256 L 68 253 L 65 252 L 66 249 L 69 250 L 71 248 L 68 246 Z M 208 42 L 205 43 L 201 47 L 200 50 L 200 72 L 197 75 L 193 76 L 193 100 L 195 103 L 195 105 L 191 109 L 186 112 L 183 118 L 183 201 L 184 203 L 188 206 L 231 206 L 237 202 L 239 197 L 239 122 L 237 116 L 231 110 L 228 109 L 225 106 L 225 102 L 228 99 L 228 77 L 226 75 L 223 75 L 221 73 L 220 68 L 220 49 L 218 46 L 214 43 Z M 228 114 L 230 113 L 232 115 L 230 116 Z M 225 110 L 229 113 L 226 114 L 218 114 L 218 117 L 223 127 L 223 148 L 222 149 L 223 153 L 222 164 L 220 169 L 220 175 L 216 178 L 213 184 L 206 191 L 200 192 L 195 196 L 196 200 L 194 202 L 188 202 L 186 200 L 186 120 L 188 116 L 193 111 L 198 109 L 222 109 Z M 199 105 L 200 102 L 206 101 L 210 104 L 208 106 Z M 197 78 L 213 79 L 212 96 L 210 98 L 201 99 L 196 97 Z M 206 46 L 212 46 L 214 48 L 211 58 L 213 73 L 211 75 L 205 75 L 203 72 L 204 48 Z M 112 39 L 112 54 L 115 70 L 116 91 L 119 110 L 119 123 L 121 136 L 122 170 L 124 176 L 124 202 L 129 206 L 164 206 L 166 205 L 170 200 L 171 161 L 174 137 L 174 124 L 176 113 L 176 102 L 178 94 L 178 83 L 180 64 L 183 49 L 182 39 Z M 147 194 L 142 198 L 140 196 L 141 193 L 143 192 Z M 149 180 L 146 183 L 147 188 L 139 193 L 139 200 L 137 202 L 129 202 L 127 200 L 128 179 Z M 126 173 L 128 169 L 131 172 L 138 174 L 136 176 L 131 176 Z M 169 52 L 168 71 L 167 75 L 164 78 L 164 81 L 163 82 L 164 85 L 164 93 L 162 98 L 163 109 L 161 111 L 161 116 L 157 125 L 157 133 L 154 141 L 154 147 L 151 152 L 147 156 L 144 156 L 141 158 L 141 160 L 135 166 L 132 166 L 130 168 L 126 167 L 122 105 L 120 95 L 120 83 L 118 75 L 116 54 L 117 51 Z M 115 46 L 116 42 L 179 43 L 179 45 L 176 48 L 117 48 Z M 68 0 L 66 2 L 66 9 L 71 13 L 70 24 L 71 27 L 67 30 L 66 35 L 60 40 L 60 60 L 51 68 L 48 77 L 48 150 L 46 152 L 41 146 L 37 138 L 37 128 L 42 117 L 43 108 L 41 96 L 38 97 L 32 109 L 31 113 L 32 123 L 30 125 L 28 121 L 24 103 L 24 96 L 29 86 L 31 78 L 30 62 L 28 55 L 25 51 L 22 54 L 17 64 L 15 72 L 15 81 L 17 89 L 22 100 L 22 107 L 20 109 L 15 101 L 10 96 L 0 90 L 1 103 L 6 114 L 13 122 L 25 128 L 30 133 L 41 152 L 50 163 L 50 168 L 32 151 L 18 145 L 6 144 L 6 146 L 13 156 L 25 167 L 34 170 L 49 170 L 53 171 L 59 174 L 66 181 L 75 187 L 77 193 L 73 190 L 62 185 L 52 184 L 38 187 L 38 189 L 47 196 L 59 200 L 67 200 L 75 197 L 85 197 L 92 199 L 100 204 L 114 209 L 118 208 L 108 204 L 106 201 L 108 198 L 108 75 L 106 70 L 101 65 L 96 62 L 96 41 L 95 39 L 90 36 L 89 30 L 87 30 L 85 28 L 85 14 L 88 11 L 91 10 L 105 10 L 113 12 L 116 8 L 115 4 L 106 1 L 98 0 L 78 1 Z M 45 188 L 47 187 L 60 187 L 64 191 L 53 190 L 54 192 L 65 193 L 70 195 L 65 198 L 53 196 L 46 192 Z M 14 148 L 22 149 L 29 152 L 36 158 L 34 160 L 24 155 L 25 157 L 40 166 L 38 168 L 29 166 L 22 162 L 13 151 Z M 105 140 L 105 175 L 103 177 Z M 74 130 L 76 137 L 76 152 L 75 156 L 72 160 L 71 137 L 69 145 L 69 157 L 67 159 L 65 154 L 65 143 L 69 132 Z M 105 124 L 105 128 L 103 130 Z M 105 112 L 105 118 L 103 120 Z M 38 103 L 41 107 L 40 118 L 38 120 L 37 114 L 38 113 L 38 109 L 36 107 Z M 6 100 L 11 101 L 16 106 L 16 112 L 12 107 L 9 105 L 18 119 L 16 121 L 6 110 L 4 104 Z M 105 83 L 105 92 L 103 94 Z M 95 68 L 98 67 L 101 70 L 99 71 L 97 70 Z M 61 66 L 85 67 L 85 69 L 87 72 L 87 77 L 89 81 L 89 93 L 90 94 L 89 128 L 92 131 L 93 145 L 91 152 L 90 168 L 91 174 L 94 177 L 94 184 L 96 187 L 102 188 L 105 182 L 105 197 L 102 200 L 95 198 L 83 190 L 75 181 L 75 178 L 73 175 L 73 166 L 77 157 L 79 149 L 78 133 L 75 123 L 73 122 L 69 126 L 63 141 L 63 156 L 65 164 L 69 170 L 71 176 L 68 178 L 56 166 L 52 161 L 51 158 L 52 75 L 55 69 Z M 25 58 L 27 60 L 29 76 L 27 83 L 25 85 L 23 66 L 23 69 L 22 70 L 22 80 L 19 85 L 17 77 L 18 69 L 21 61 Z M 65 41 L 81 43 L 80 60 L 78 62 L 70 63 L 66 62 L 64 60 L 63 47 Z M 69 36 L 70 33 L 78 36 L 74 38 L 71 38 Z M 75 11 L 80 11 L 82 13 L 82 23 L 81 28 L 79 30 L 76 30 L 74 28 Z M 70 4 L 73 3 L 106 4 L 110 5 L 112 7 L 104 8 L 93 7 L 71 8 Z" fill="currentColor" fill-rule="evenodd"/>
</svg>
