<svg xmlns="http://www.w3.org/2000/svg" width="211" height="370" viewBox="0 0 211 370" role="img" aria-hidden="true">
  <path d="M 32 340 L 30 340 L 29 345 L 22 351 L 26 352 L 29 355 L 30 361 L 32 358 L 33 353 L 39 350 L 37 350 L 33 347 L 32 345 Z M 101 321 L 98 321 L 98 323 L 101 323 L 103 325 L 101 327 L 92 327 L 92 369 L 94 369 L 93 365 L 96 328 L 106 330 L 101 335 L 97 336 L 99 338 L 103 336 L 114 326 L 111 325 L 109 326 Z M 71 325 L 72 328 L 74 328 L 82 336 L 84 337 L 87 336 L 84 335 L 81 329 L 88 327 L 82 325 L 87 321 L 83 321 L 75 326 Z M 53 312 L 54 315 L 56 316 L 57 314 L 55 312 Z M 10 306 L 10 311 L 9 313 L 4 318 L 0 318 L 0 320 L 5 321 L 9 325 L 10 332 L 12 331 L 13 324 L 16 321 L 18 321 L 21 319 L 16 317 L 14 315 Z M 10 317 L 13 318 L 13 320 L 11 322 L 9 320 Z M 98 307 L 100 306 L 101 304 Z M 58 304 L 56 304 L 56 306 Z M 130 299 L 130 302 L 125 306 L 126 308 L 130 311 L 130 314 L 132 313 L 132 310 L 135 308 L 136 306 L 132 303 Z M 80 298 L 80 305 L 82 307 L 88 304 L 82 302 L 82 298 Z M 47 298 L 46 300 L 47 301 L 48 303 L 49 301 Z M 48 288 L 46 287 L 44 291 L 44 293 L 46 292 L 46 290 Z M 199 285 L 196 285 L 193 287 L 183 299 L 179 312 L 179 326 L 172 339 L 161 352 L 160 348 L 166 339 L 168 334 L 168 318 L 166 310 L 162 309 L 158 316 L 154 329 L 154 339 L 156 345 L 156 353 L 152 360 L 148 364 L 140 369 L 160 368 L 176 369 L 178 368 L 178 365 L 173 363 L 160 363 L 154 366 L 151 365 L 166 352 L 169 351 L 177 352 L 190 349 L 193 347 L 203 336 L 203 334 L 197 334 L 186 336 L 181 338 L 171 348 L 170 345 L 180 331 L 182 326 L 193 315 L 196 310 L 199 298 Z M 168 368 L 169 366 L 172 365 L 174 367 L 172 369 Z M 190 339 L 185 343 L 182 344 L 179 343 L 187 338 Z M 198 338 L 190 346 L 187 348 L 180 350 L 180 346 L 188 343 L 192 340 L 192 337 Z M 163 316 L 166 320 L 166 330 L 164 332 L 162 322 L 160 337 L 157 341 L 156 329 L 157 324 L 160 318 Z M 197 295 L 195 306 L 192 312 L 187 318 L 186 315 L 191 304 L 193 296 Z M 193 294 L 193 296 L 190 300 L 189 305 L 186 310 L 185 314 L 183 316 L 182 308 L 183 305 L 190 294 Z M 138 269 L 132 270 L 126 274 L 118 274 L 114 272 L 108 272 L 109 274 L 111 274 L 114 277 L 126 279 L 130 278 L 134 275 Z M 45 267 L 47 270 L 56 277 L 63 278 L 72 270 L 74 272 L 74 275 L 76 275 L 78 273 L 73 267 L 68 264 L 64 263 L 58 263 L 49 267 Z M 55 268 L 57 270 L 57 272 L 55 274 L 52 270 Z M 59 272 L 59 269 L 61 267 L 65 267 L 68 270 L 64 274 L 61 274 Z M 107 250 L 109 254 L 127 249 L 133 249 L 142 252 L 136 247 L 129 245 L 117 246 Z M 44 250 L 44 253 L 51 250 L 63 250 L 78 255 L 80 252 L 75 248 L 62 245 L 51 246 Z M 92 202 L 92 324 L 94 323 L 94 320 L 93 319 Z M 102 173 L 103 175 L 107 175 L 126 183 L 133 188 L 144 199 L 152 212 L 157 229 L 158 236 L 158 257 L 154 258 L 153 242 L 142 220 L 126 205 L 112 199 L 101 197 L 102 199 L 111 201 L 120 205 L 129 211 L 139 221 L 147 235 L 152 253 L 151 279 L 149 292 L 144 312 L 139 324 L 129 339 L 115 353 L 108 358 L 104 359 L 102 361 L 97 362 L 97 364 L 105 363 L 118 355 L 123 350 L 126 351 L 126 365 L 127 366 L 127 369 L 131 369 L 129 362 L 129 344 L 135 337 L 144 322 L 145 316 L 148 310 L 149 305 L 154 303 L 159 298 L 163 291 L 167 278 L 168 264 L 167 261 L 164 258 L 161 257 L 161 233 L 160 227 L 155 212 L 148 199 L 138 188 L 128 181 L 111 174 Z M 162 261 L 165 265 L 165 272 L 163 281 L 158 294 L 152 301 L 151 294 L 153 290 L 154 275 L 161 267 L 158 267 L 156 270 L 155 265 L 158 261 Z M 83 173 L 71 175 L 59 180 L 50 186 L 38 199 L 31 211 L 26 227 L 25 233 L 25 255 L 21 258 L 18 262 L 19 279 L 24 294 L 27 299 L 34 305 L 36 305 L 38 307 L 43 324 L 47 332 L 57 345 L 57 360 L 55 369 L 58 369 L 59 367 L 62 350 L 70 357 L 80 363 L 83 364 L 87 361 L 84 361 L 77 358 L 71 354 L 56 339 L 47 325 L 41 309 L 35 280 L 34 254 L 36 242 L 43 226 L 47 220 L 60 208 L 85 197 L 80 197 L 65 202 L 63 204 L 61 204 L 56 207 L 48 214 L 41 223 L 36 233 L 32 246 L 31 255 L 29 257 L 28 235 L 33 215 L 37 206 L 41 200 L 55 186 L 61 182 L 72 177 L 78 176 Z M 24 261 L 27 261 L 30 264 L 31 267 L 29 269 L 25 266 L 28 272 L 32 276 L 34 294 L 36 298 L 33 301 L 27 293 L 21 273 L 22 262 Z M 92 167 L 92 199 L 94 198 Z M 143 93 L 144 96 L 143 109 L 145 108 L 146 105 L 148 105 L 152 110 L 153 108 L 151 105 L 151 102 L 153 100 L 152 95 Z M 147 96 L 149 96 L 151 98 L 148 101 L 146 99 Z M 125 93 L 126 107 L 130 110 L 133 110 L 138 104 L 137 94 L 135 94 L 135 104 L 130 108 L 128 106 L 127 93 Z M 110 93 L 108 94 L 105 98 L 105 105 L 108 109 L 113 110 L 119 106 L 120 104 L 120 97 L 117 94 Z M 110 95 L 113 95 L 117 98 L 117 104 L 114 107 L 110 107 L 108 105 L 107 99 Z M 100 93 L 90 93 L 91 96 L 95 99 L 95 109 L 97 108 L 98 96 Z M 73 93 L 73 109 L 75 108 L 77 101 L 80 106 L 85 108 L 83 94 L 83 100 L 81 102 L 78 99 L 77 96 Z M 57 93 L 55 94 L 52 98 L 52 105 L 56 109 L 60 110 L 63 109 L 67 104 L 67 98 L 64 94 L 62 93 Z M 62 96 L 64 98 L 65 102 L 64 104 L 59 108 L 55 104 L 55 98 L 57 96 Z M 40 93 L 36 95 L 34 102 L 35 103 L 35 106 L 38 109 L 43 110 L 45 109 L 47 106 L 41 108 L 37 104 L 37 98 L 40 95 L 43 95 L 44 96 L 47 95 L 43 93 Z M 124 65 L 123 68 L 120 71 L 116 66 L 114 66 L 119 74 L 120 82 L 122 80 L 121 74 L 126 66 Z M 97 65 L 98 82 L 105 81 L 110 75 L 110 70 L 109 68 L 106 66 Z M 105 68 L 108 73 L 107 76 L 104 79 L 101 80 L 103 68 Z M 80 65 L 77 67 L 75 71 L 75 76 L 77 80 L 81 82 L 84 82 L 90 77 L 91 71 L 87 66 L 85 65 Z M 81 67 L 84 67 L 88 70 L 88 76 L 83 80 L 78 75 L 79 68 Z M 59 65 L 61 82 L 66 81 L 69 78 L 67 66 L 65 65 Z M 62 75 L 65 74 L 67 76 L 64 79 L 62 76 Z M 132 37 L 146 29 L 165 14 L 172 11 L 192 12 L 196 11 L 203 7 L 210 0 L 206 0 L 201 5 L 191 10 L 183 8 L 185 6 L 194 4 L 199 2 L 201 0 L 203 0 L 198 0 L 189 3 L 186 2 L 189 0 L 184 0 L 178 5 L 178 0 L 174 0 L 163 12 L 162 9 L 167 0 L 162 1 L 161 13 L 146 26 L 134 34 L 132 34 Z M 99 0 L 95 0 L 96 23 L 97 25 L 99 24 Z M 24 0 L 26 10 L 33 26 L 34 20 L 32 17 L 28 0 Z" fill="currentColor" fill-rule="evenodd"/>
</svg>
