<svg xmlns="http://www.w3.org/2000/svg" width="360" height="349" viewBox="0 0 360 349" role="img" aria-hidden="true">
  <path d="M 10 293 L 4 298 L 3 301 L 0 304 L 2 315 L 0 318 L 0 326 L 5 321 L 10 311 L 11 307 Z M 7 300 L 9 302 L 8 311 L 6 313 L 6 307 L 4 308 L 1 312 L 0 309 L 5 301 Z M 0 290 L 3 290 L 7 287 L 0 287 Z M 0 276 L 0 280 L 5 281 Z M 176 253 L 175 257 L 179 264 L 179 269 L 175 278 L 177 287 L 182 292 L 188 294 L 196 294 L 197 295 L 212 294 L 221 296 L 227 302 L 230 307 L 235 321 L 237 331 L 240 337 L 241 335 L 237 318 L 235 315 L 234 309 L 225 294 L 227 292 L 235 291 L 240 289 L 250 283 L 248 283 L 237 288 L 227 289 L 222 291 L 209 292 L 188 291 L 184 289 L 179 284 L 179 276 L 182 270 L 183 262 L 186 260 L 181 260 L 179 258 L 178 253 Z M 356 229 L 352 230 L 343 237 L 334 247 L 329 259 L 328 275 L 326 280 L 311 299 L 295 313 L 294 310 L 300 300 L 308 290 L 312 278 L 313 267 L 311 254 L 309 250 L 306 250 L 298 262 L 292 275 L 291 279 L 291 292 L 293 300 L 293 307 L 288 317 L 282 323 L 276 327 L 264 331 L 272 322 L 278 310 L 277 299 L 278 294 L 277 290 L 274 290 L 267 300 L 264 309 L 264 328 L 261 333 L 251 341 L 235 348 L 245 347 L 264 337 L 274 334 L 282 335 L 297 342 L 311 342 L 323 338 L 325 335 L 323 333 L 315 329 L 308 327 L 293 327 L 281 331 L 280 328 L 301 313 L 308 311 L 313 311 L 325 314 L 332 314 L 339 312 L 347 308 L 357 299 L 359 295 L 356 295 L 355 294 L 336 294 L 326 297 L 316 305 L 309 309 L 308 306 L 322 291 L 328 282 L 333 277 L 339 274 L 350 262 L 354 254 L 357 241 Z M 290 337 L 290 334 L 300 334 L 301 335 L 311 334 L 301 333 L 295 331 L 296 329 L 307 329 L 313 331 L 318 335 L 313 339 L 309 340 L 299 340 Z M 275 298 L 276 300 L 276 306 L 274 314 L 271 318 L 270 314 L 273 304 L 271 305 L 269 316 L 266 321 L 265 313 L 267 306 L 271 298 Z M 353 298 L 347 304 L 337 310 L 333 311 L 320 308 L 329 306 L 348 299 L 341 300 L 333 303 L 326 304 L 323 303 L 333 297 L 338 296 L 350 296 Z M 308 264 L 310 266 L 309 280 L 305 289 L 301 294 L 300 291 L 302 286 L 302 282 L 305 274 L 305 270 Z M 307 257 L 309 260 L 305 263 L 303 269 L 302 278 L 298 289 L 298 293 L 295 296 L 294 278 L 299 266 L 303 260 Z M 346 239 L 349 241 L 347 243 L 339 259 L 332 269 L 331 263 L 334 254 L 337 248 Z M 354 236 L 351 253 L 345 264 L 337 271 L 336 268 L 338 266 L 339 262 L 342 258 L 343 254 L 350 241 L 351 235 Z M 0 229 L 0 262 L 15 276 L 16 274 L 3 259 L 0 241 Z M 79 227 L 75 228 L 69 233 L 62 241 L 57 252 L 56 271 L 55 274 L 52 277 L 51 281 L 37 301 L 30 308 L 29 304 L 30 301 L 36 293 L 39 287 L 42 276 L 42 264 L 38 253 L 35 251 L 27 266 L 24 276 L 24 288 L 27 297 L 26 308 L 22 315 L 14 322 L 1 330 L 0 334 L 7 330 L 11 329 L 19 329 L 30 333 L 40 334 L 50 331 L 59 325 L 60 323 L 45 318 L 38 318 L 29 320 L 18 326 L 17 324 L 36 306 L 43 303 L 59 304 L 64 303 L 74 298 L 86 285 L 70 284 L 66 285 L 57 289 L 51 295 L 43 298 L 51 285 L 55 281 L 56 277 L 59 272 L 73 259 L 78 249 L 80 236 Z M 51 326 L 49 328 L 42 331 L 32 331 L 26 327 L 47 325 Z M 32 322 L 34 321 L 48 322 L 46 324 L 39 324 L 38 325 Z M 79 288 L 69 298 L 62 301 L 56 302 L 55 298 L 69 293 L 73 290 L 67 291 L 59 295 L 56 293 L 58 291 L 68 287 Z M 37 260 L 39 265 L 39 280 L 37 286 L 34 290 L 33 283 L 35 275 L 34 267 L 32 282 L 30 284 L 31 288 L 28 291 L 27 284 L 29 282 L 27 280 L 28 271 L 32 262 Z M 77 234 L 76 244 L 74 251 L 69 260 L 64 265 L 63 262 L 64 259 L 68 253 L 69 248 L 74 238 L 72 239 L 62 260 L 60 262 L 59 256 L 60 251 L 64 243 L 72 236 L 73 234 Z M 181 225 L 183 227 L 189 227 L 186 224 L 184 223 Z M 205 203 L 206 205 L 207 205 L 209 208 L 211 208 L 213 211 L 217 210 L 226 211 L 230 210 L 235 206 L 222 207 L 216 205 L 213 202 L 215 193 L 213 193 L 212 199 L 208 203 Z M 209 175 L 208 178 L 209 182 L 214 179 L 227 179 L 236 183 L 247 190 L 238 180 L 229 175 L 222 173 L 216 173 Z M 0 141 L 0 144 L 14 151 L 26 160 L 35 169 L 45 183 L 54 204 L 57 217 L 58 237 L 60 236 L 60 223 L 58 209 L 53 192 L 50 188 L 50 186 L 38 168 L 25 155 L 13 147 Z M 244 135 L 244 153 L 246 155 L 249 167 L 252 174 L 261 188 L 271 199 L 270 206 L 276 224 L 284 235 L 289 245 L 290 249 L 289 258 L 280 266 L 274 266 L 271 263 L 269 263 L 267 269 L 263 274 L 270 268 L 280 269 L 285 268 L 285 270 L 281 275 L 280 279 L 285 275 L 287 266 L 290 263 L 292 257 L 292 247 L 288 235 L 280 224 L 273 210 L 274 202 L 279 207 L 290 215 L 305 230 L 309 236 L 311 242 L 311 237 L 303 224 L 293 214 L 284 207 L 267 190 L 260 181 L 250 161 L 248 155 L 248 150 L 246 146 L 246 135 Z M 250 120 L 248 120 L 238 125 L 235 125 L 224 130 L 217 135 L 211 141 L 206 148 L 197 168 L 197 184 L 193 194 L 181 207 L 172 214 L 172 222 L 180 231 L 180 235 L 176 239 L 176 246 L 177 248 L 181 251 L 186 252 L 192 255 L 198 253 L 195 253 L 192 251 L 185 243 L 182 242 L 180 239 L 182 237 L 183 230 L 176 223 L 175 221 L 175 216 L 184 209 L 192 201 L 197 194 L 200 182 L 200 170 L 203 161 L 208 151 L 212 145 L 225 133 L 240 125 L 249 122 Z M 180 244 L 183 244 L 185 249 L 182 249 L 179 246 Z M 15 27 L 16 43 L 23 41 L 18 40 L 19 35 L 23 34 L 19 34 L 17 32 L 18 29 L 23 27 Z M 0 26 L 0 41 L 2 37 L 7 43 L 8 41 L 6 38 L 6 35 L 8 32 L 8 30 L 5 27 Z M 0 33 L 1 29 L 3 29 L 5 31 Z M 253 9 L 254 11 L 258 9 Z M 335 0 L 331 3 L 330 13 L 333 16 L 339 17 L 344 14 L 343 8 L 338 8 L 341 12 L 338 15 L 336 14 L 333 10 L 333 4 L 335 2 L 340 2 L 342 4 L 342 1 L 340 0 Z M 311 0 L 312 5 L 312 17 L 317 9 L 319 13 L 324 15 L 322 0 L 322 7 L 320 9 L 313 0 Z M 302 0 L 302 16 L 304 15 L 305 2 Z M 286 0 L 283 2 L 281 9 L 283 14 L 285 16 L 291 17 L 296 13 L 295 8 L 290 8 L 292 12 L 288 15 L 284 11 L 284 5 L 287 2 L 294 1 L 292 0 Z M 269 0 L 263 16 L 267 13 L 272 13 L 275 17 L 277 15 L 273 7 L 272 2 Z M 245 0 L 245 16 L 247 15 L 248 3 L 247 1 Z M 239 0 L 228 0 L 228 2 L 231 2 L 233 4 L 233 16 L 235 15 L 236 2 Z M 210 0 L 210 16 L 212 15 L 214 7 L 221 17 L 222 0 L 220 0 L 221 6 L 218 9 L 215 4 Z M 196 0 L 191 13 L 191 16 L 193 15 L 193 14 L 201 14 L 201 15 L 204 15 L 202 8 L 198 0 Z" fill="currentColor" fill-rule="evenodd"/>
</svg>
