<svg xmlns="http://www.w3.org/2000/svg" width="300" height="284" viewBox="0 0 300 284" role="img" aria-hidden="true">
  <path d="M 258 281 L 258 283 L 266 283 L 260 281 Z M 222 283 L 232 283 L 231 281 L 226 281 L 225 282 Z M 237 254 L 235 254 L 235 269 L 237 268 Z M 17 254 L 17 269 L 19 268 L 22 262 L 25 267 L 29 268 L 29 254 L 27 254 L 27 261 L 25 263 L 20 255 Z M 245 253 L 245 269 L 247 268 L 249 260 L 254 267 L 258 268 L 256 254 L 256 261 L 254 263 L 248 254 Z M 216 253 L 216 269 L 221 265 L 226 270 L 227 268 L 222 262 L 222 260 L 227 254 L 223 254 L 219 259 L 218 253 Z M 202 253 L 200 254 L 199 259 L 207 265 L 204 268 L 202 268 L 199 266 L 199 268 L 201 270 L 205 270 L 209 266 L 209 263 L 201 258 L 202 255 L 205 256 L 208 255 L 206 253 Z M 3 253 L 0 254 L 0 256 L 5 256 L 8 259 L 8 263 L 4 268 L 0 268 L 0 270 L 5 270 L 10 265 L 10 259 L 6 254 Z M 0 208 L 4 208 L 13 205 L 18 202 L 19 200 L 17 198 L 9 195 L 0 194 L 0 196 L 7 197 L 13 200 L 8 204 L 0 206 Z M 236 189 L 238 193 L 239 189 Z M 200 181 L 200 184 L 203 186 L 206 183 L 204 181 Z M 254 178 L 255 183 L 257 183 L 259 181 L 258 178 Z M 275 174 L 277 179 L 279 177 L 278 174 Z M 220 174 L 220 178 L 223 180 L 226 176 L 224 174 Z M 175 174 L 177 179 L 180 176 L 178 174 Z M 243 159 L 239 160 L 239 165 L 242 167 L 246 162 Z M 188 157 L 187 161 L 190 165 L 192 165 L 195 162 L 195 159 L 193 157 Z M 266 155 L 266 159 L 268 161 L 271 161 L 273 159 L 273 156 L 271 154 Z M 160 154 L 161 161 L 163 161 L 167 158 L 167 155 L 165 153 Z M 213 150 L 211 151 L 212 158 L 215 159 L 218 156 L 217 151 Z M 255 137 L 254 143 L 256 145 L 258 145 L 261 142 L 261 139 L 259 137 Z M 228 137 L 228 142 L 230 144 L 232 144 L 236 140 L 236 138 L 234 136 Z M 176 137 L 176 142 L 178 144 L 181 144 L 184 141 L 184 139 L 181 136 Z M 147 138 L 149 140 L 151 140 L 155 135 L 152 132 L 147 133 Z M 280 130 L 281 137 L 284 137 L 287 134 L 286 130 L 284 129 Z M 202 128 L 201 133 L 205 136 L 209 133 L 209 130 L 207 128 Z M 136 112 L 137 114 L 141 114 L 150 117 L 155 120 L 167 123 L 180 122 L 189 118 L 193 115 L 204 112 L 220 113 L 229 118 L 231 118 L 233 120 L 243 123 L 256 123 L 276 114 L 287 113 L 292 115 L 299 116 L 299 114 L 290 111 L 280 111 L 268 114 L 259 119 L 255 120 L 242 120 L 222 111 L 214 109 L 207 109 L 196 111 L 184 117 L 181 117 L 179 119 L 175 120 L 164 120 L 157 118 L 147 113 Z M 35 103 L 26 109 L 18 120 L 15 130 L 15 150 L 10 160 L 0 173 L 0 181 L 20 180 L 27 178 L 33 175 L 47 160 L 47 158 L 38 158 L 23 162 L 12 169 L 7 175 L 5 176 L 4 173 L 10 166 L 18 150 L 28 141 L 34 131 L 36 123 L 36 105 Z M 41 163 L 30 174 L 23 177 L 16 175 L 22 171 L 31 168 L 34 165 L 27 167 L 20 171 L 16 170 L 24 164 L 38 161 Z M 33 116 L 33 124 L 31 131 L 27 138 L 23 142 L 22 139 L 24 136 L 24 133 L 28 124 L 29 119 Z M 29 114 L 21 137 L 18 141 L 17 132 L 20 123 L 25 115 Z M 0 101 L 0 115 L 3 126 L 3 147 L 2 154 L 0 158 L 0 166 L 4 159 L 7 146 L 7 126 L 4 111 Z M 135 96 L 136 98 L 145 99 L 157 105 L 164 107 L 177 106 L 184 104 L 198 97 L 203 96 L 219 97 L 228 100 L 236 105 L 244 107 L 255 107 L 263 105 L 267 102 L 280 98 L 286 98 L 299 101 L 298 98 L 290 96 L 276 96 L 269 98 L 256 104 L 244 104 L 219 94 L 206 93 L 197 94 L 176 104 L 164 104 L 146 97 Z M 263 63 L 261 64 L 261 66 L 256 71 L 254 71 L 255 73 L 257 73 L 261 77 L 262 81 L 264 76 L 270 71 L 267 70 L 264 67 Z M 182 59 L 181 64 L 177 68 L 174 68 L 175 70 L 177 70 L 181 73 L 182 79 L 184 78 L 185 72 L 189 70 L 190 68 L 187 68 L 185 66 Z M 226 30 L 224 30 L 224 35 L 222 39 L 218 43 L 212 44 L 213 46 L 219 48 L 222 51 L 224 55 L 224 60 L 226 59 L 226 56 L 228 51 L 232 47 L 236 46 L 237 44 L 232 43 L 228 39 L 226 34 Z M 223 42 L 226 42 L 229 45 L 225 50 L 221 46 L 221 44 Z M 171 15 L 153 30 L 141 46 L 133 62 L 129 74 L 126 91 L 126 116 L 128 129 L 134 149 L 147 172 L 163 189 L 172 196 L 187 204 L 205 210 L 218 212 L 241 211 L 260 206 L 270 201 L 279 199 L 284 199 L 299 205 L 299 201 L 294 198 L 299 199 L 299 191 L 294 192 L 286 196 L 283 194 L 299 182 L 299 177 L 294 182 L 293 179 L 299 171 L 298 165 L 299 152 L 296 167 L 294 169 L 293 161 L 296 149 L 299 146 L 299 140 L 292 153 L 291 159 L 292 177 L 289 183 L 280 192 L 268 199 L 246 207 L 232 209 L 216 209 L 204 207 L 189 202 L 170 191 L 164 186 L 150 171 L 140 155 L 136 146 L 131 130 L 129 119 L 128 96 L 129 95 L 129 89 L 131 84 L 131 79 L 133 70 L 141 52 L 151 37 L 165 23 L 178 14 L 200 5 L 215 2 L 234 2 L 250 5 L 272 14 L 290 27 L 299 37 L 298 31 L 285 19 L 271 10 L 262 6 L 246 1 L 239 0 L 210 0 L 191 5 Z" fill="currentColor" fill-rule="evenodd"/>
</svg>
