<svg xmlns="http://www.w3.org/2000/svg" width="476" height="151" viewBox="0 0 476 151" role="img" aria-hidden="true">
  <path d="M 140 134 L 140 149 L 142 148 L 144 145 L 147 149 L 150 149 L 148 146 L 148 142 L 150 140 L 150 137 L 147 134 Z M 143 137 L 145 136 L 147 138 L 143 138 Z M 126 134 L 124 142 L 122 145 L 122 150 L 124 147 L 129 146 L 131 147 L 133 150 L 134 146 L 131 138 L 128 134 Z M 104 134 L 105 150 L 111 150 L 113 149 L 117 144 L 117 138 L 112 134 Z M 111 136 L 114 139 L 114 144 L 109 148 L 107 146 L 108 136 Z M 85 134 L 85 150 L 87 149 L 90 142 L 93 147 L 97 148 L 98 146 L 97 134 L 95 134 L 95 140 L 93 142 L 90 137 L 87 134 Z M 69 134 L 71 150 L 78 148 L 74 148 L 72 146 L 73 143 L 77 141 L 74 141 L 72 139 L 73 136 L 77 134 Z M 55 134 L 56 150 L 63 148 L 58 147 L 58 139 Z M 41 134 L 36 147 L 36 150 L 38 149 L 39 146 L 42 147 L 44 146 L 47 150 L 49 149 L 49 147 L 44 135 Z M 21 134 L 18 137 L 18 145 L 22 150 L 28 150 L 31 147 L 23 148 L 21 146 L 20 140 L 23 136 L 29 137 L 30 135 L 28 134 Z M 434 108 L 435 124 L 442 122 L 438 122 L 436 120 L 437 117 L 439 117 L 441 115 L 438 115 L 436 113 L 437 110 L 441 108 Z M 418 108 L 418 123 L 423 119 L 426 124 L 427 121 L 425 119 L 425 116 L 427 114 L 427 110 L 425 108 Z M 421 111 L 423 110 L 425 112 L 421 112 Z M 404 108 L 399 121 L 400 124 L 402 121 L 408 120 L 411 124 L 412 121 L 408 110 L 406 108 Z M 367 108 L 367 123 L 372 119 L 375 124 L 376 121 L 375 116 L 377 112 L 374 108 Z M 374 112 L 370 113 L 372 110 Z M 352 108 L 353 124 L 360 122 L 356 122 L 354 120 L 355 117 L 358 117 L 360 115 L 356 115 L 354 113 L 355 110 L 360 108 Z M 346 108 L 335 108 L 336 110 L 338 110 L 340 112 L 340 123 L 342 122 L 343 110 Z M 331 108 L 323 108 L 323 123 L 325 122 L 326 117 L 330 115 L 327 115 L 325 113 L 326 110 Z M 309 108 L 304 123 L 308 120 L 313 120 L 316 124 L 317 119 L 314 115 L 313 110 L 311 108 Z M 390 107 L 385 108 L 382 112 L 382 119 L 386 124 L 389 125 L 395 121 L 387 122 L 384 118 L 384 113 L 385 111 L 393 108 Z M 139 106 L 134 122 L 136 121 L 141 107 Z M 88 106 L 88 121 L 90 120 L 93 113 L 99 122 L 101 120 L 99 106 L 99 111 L 96 113 L 90 106 Z M 112 105 L 108 108 L 107 116 L 111 121 L 117 122 L 119 121 L 122 117 L 121 113 L 115 113 L 115 115 L 117 115 L 119 117 L 116 120 L 114 120 L 110 116 L 110 111 L 111 109 L 114 107 L 117 107 L 119 109 L 121 107 L 117 105 Z M 78 105 L 78 121 L 80 120 Z M 55 105 L 54 108 L 54 121 L 56 120 L 58 115 L 63 119 L 64 116 L 68 115 L 68 121 L 70 120 L 69 105 L 66 106 L 65 110 L 62 114 L 60 112 L 58 107 Z M 44 105 L 44 121 L 46 120 Z M 38 106 L 27 105 L 27 107 L 30 108 L 31 121 L 33 120 L 34 108 L 36 108 Z M 21 20 L 22 41 L 41 41 L 43 39 L 42 20 Z M 24 23 L 38 23 L 40 25 L 40 36 L 37 39 L 24 38 L 23 34 Z M 73 20 L 71 19 L 52 20 L 53 41 L 71 41 L 74 38 Z M 56 23 L 69 23 L 71 25 L 71 36 L 68 39 L 55 38 Z M 284 16 L 284 23 L 320 58 L 341 69 L 362 77 L 371 77 L 381 75 L 406 68 L 426 67 L 445 75 L 457 83 L 461 84 L 463 82 L 443 70 L 435 66 L 428 64 L 409 64 L 375 73 L 361 73 L 355 71 L 326 58 L 295 30 L 288 22 L 287 18 L 289 16 L 293 16 L 299 18 L 319 33 L 334 42 L 336 44 L 337 48 L 340 51 L 346 53 L 366 53 L 375 52 L 387 49 L 402 48 L 380 47 L 367 50 L 346 50 L 343 49 L 339 45 L 339 42 L 343 37 L 352 35 L 360 35 L 372 33 L 378 31 L 395 22 L 408 19 L 421 19 L 435 24 L 449 34 L 461 40 L 471 44 L 475 42 L 451 31 L 439 22 L 433 19 L 420 15 L 408 16 L 404 15 L 402 17 L 398 17 L 393 19 L 381 26 L 365 31 L 353 31 L 347 33 L 323 20 L 317 20 L 313 24 L 304 17 L 295 13 L 288 13 Z M 319 24 L 324 24 L 338 32 L 340 35 L 335 39 L 322 31 L 318 27 Z M 404 13 L 406 13 L 417 6 L 424 3 L 443 7 L 448 6 L 458 0 L 452 0 L 446 4 L 438 5 L 435 1 L 447 0 L 416 1 L 409 9 L 405 11 Z M 342 0 L 342 15 L 345 19 L 374 19 L 378 15 L 378 0 L 358 0 L 358 3 L 356 6 L 357 13 L 354 16 L 348 16 L 346 14 L 346 0 Z M 83 0 L 84 12 L 103 12 L 105 10 L 105 0 L 102 0 L 102 7 L 98 10 L 94 9 L 88 10 L 86 8 L 86 0 Z M 52 0 L 53 12 L 72 12 L 74 10 L 74 0 L 71 0 L 71 7 L 68 10 L 57 10 L 55 8 L 55 0 Z M 21 0 L 22 12 L 41 12 L 43 10 L 43 0 L 40 0 L 40 6 L 37 9 L 34 10 L 25 10 L 23 8 L 23 0 Z M 1 55 L 3 58 L 7 61 L 11 61 L 12 62 L 20 61 L 35 62 L 106 62 L 119 61 L 128 66 L 134 67 L 145 66 L 156 61 L 165 52 L 170 43 L 171 38 L 171 25 L 169 20 L 170 14 L 174 12 L 183 10 L 188 7 L 195 0 L 190 1 L 187 5 L 180 9 L 179 6 L 186 0 L 183 0 L 181 2 L 180 0 L 178 0 L 174 4 L 174 0 L 171 0 L 168 8 L 165 11 L 155 2 L 155 0 L 122 0 L 119 2 L 109 13 L 106 19 L 104 27 L 104 37 L 108 49 L 113 56 L 111 58 L 8 58 L 4 53 L 4 0 L 1 0 L 1 11 L 0 12 Z M 140 42 L 136 46 L 133 44 L 136 41 Z M 141 44 L 141 42 L 144 38 L 150 38 L 152 40 L 143 46 Z M 145 31 L 147 34 L 142 36 L 142 33 Z M 150 3 L 155 6 L 160 11 L 155 15 L 149 15 L 149 19 L 138 33 L 132 38 L 125 31 L 123 31 L 123 34 L 134 45 L 133 48 L 127 53 L 122 59 L 116 54 L 111 47 L 108 38 L 108 26 L 110 19 L 113 13 L 121 5 L 130 1 L 143 1 Z" fill="currentColor" fill-rule="evenodd"/>
</svg>
