<svg xmlns="http://www.w3.org/2000/svg" width="203" height="370" viewBox="0 0 203 370" role="img" aria-hidden="true">
  <path d="M 4 224 L 2 231 L 2 295 L 3 321 L 2 351 L 3 365 L 5 368 L 160 369 L 167 362 L 172 353 L 173 348 L 173 335 L 171 330 L 172 324 L 176 322 L 185 320 L 190 317 L 197 310 L 201 302 L 202 296 L 196 297 L 186 302 L 176 314 L 175 311 L 178 301 L 189 284 L 191 274 L 189 258 L 187 254 L 184 255 L 177 266 L 173 276 L 173 288 L 175 293 L 176 302 L 172 314 L 167 321 L 157 312 L 157 228 L 152 221 L 149 220 L 129 219 L 129 210 L 127 208 L 121 208 L 120 210 L 120 218 L 117 220 L 114 219 L 42 219 L 42 210 L 40 208 L 34 209 L 33 211 L 33 217 L 31 219 L 26 220 L 9 220 Z M 142 352 L 138 356 L 135 354 L 138 351 Z M 143 354 L 143 352 L 146 348 L 152 348 L 154 350 L 145 356 Z M 147 341 L 149 344 L 144 346 L 144 343 Z M 152 313 L 157 316 L 162 321 L 157 325 L 151 325 L 151 329 L 140 343 L 134 348 L 127 341 L 125 341 L 125 344 L 136 355 L 135 358 L 129 363 L 124 369 L 118 364 L 113 357 L 110 348 L 110 336 L 112 329 L 115 323 L 123 315 L 132 311 L 145 311 Z M 189 307 L 186 310 L 185 310 L 183 312 L 182 310 L 186 306 Z M 198 303 L 192 312 L 189 315 L 182 319 L 181 316 L 187 311 L 193 301 Z M 187 263 L 188 278 L 187 281 L 182 289 L 181 285 L 182 284 L 183 274 L 185 268 L 184 266 L 181 274 L 179 286 L 177 288 L 175 286 L 175 279 L 177 272 L 182 263 Z M 7 253 L 153 254 L 154 274 L 153 307 L 150 309 L 143 307 L 135 307 L 126 309 L 121 312 L 113 320 L 108 329 L 106 337 L 106 347 L 109 357 L 115 366 L 113 368 L 10 368 L 6 363 Z M 23 330 L 24 351 L 43 351 L 45 349 L 44 330 Z M 26 333 L 40 333 L 42 335 L 42 346 L 39 349 L 26 348 L 25 344 Z M 75 330 L 73 329 L 54 330 L 55 351 L 73 351 L 76 348 Z M 58 333 L 71 333 L 73 335 L 73 346 L 70 349 L 57 348 Z M 85 301 L 86 322 L 105 322 L 107 320 L 106 301 Z M 89 303 L 99 303 L 104 305 L 104 317 L 100 320 L 96 319 L 90 320 L 88 318 Z M 54 301 L 55 322 L 74 322 L 76 320 L 75 301 Z M 71 303 L 73 305 L 73 317 L 70 320 L 59 320 L 57 318 L 58 304 Z M 23 301 L 24 322 L 43 322 L 45 320 L 44 301 Z M 42 304 L 42 316 L 39 319 L 36 320 L 27 320 L 25 318 L 25 307 L 28 304 L 34 303 Z M 116 272 L 117 293 L 136 293 L 138 291 L 138 274 L 136 272 Z M 120 275 L 135 276 L 135 288 L 132 291 L 120 291 L 118 289 L 118 277 Z M 85 272 L 86 293 L 105 293 L 107 291 L 106 272 Z M 102 274 L 104 276 L 104 288 L 101 291 L 88 290 L 89 275 Z M 54 272 L 55 293 L 73 294 L 76 291 L 75 272 Z M 71 274 L 73 276 L 73 288 L 71 290 L 67 291 L 58 291 L 56 289 L 57 275 Z M 23 272 L 24 293 L 43 293 L 45 291 L 44 272 Z M 26 275 L 42 276 L 42 288 L 39 291 L 27 291 L 25 289 Z M 150 226 L 144 240 L 144 247 L 142 249 L 8 249 L 6 247 L 6 228 L 9 224 L 12 223 L 31 223 L 33 225 L 33 234 L 35 237 L 38 238 L 42 235 L 44 223 L 120 224 L 120 235 L 123 238 L 125 238 L 129 234 L 131 222 L 147 223 L 149 224 Z M 126 213 L 126 232 L 124 234 Z M 38 211 L 40 213 L 40 232 L 36 233 Z M 128 95 L 129 111 L 136 109 L 132 109 L 130 107 L 130 95 Z M 109 95 L 109 106 L 111 110 L 117 111 L 121 107 L 121 95 L 119 95 L 119 105 L 114 109 L 112 107 L 111 95 Z M 78 95 L 78 101 L 77 102 L 78 111 L 80 109 Z M 192 94 L 193 111 L 197 106 L 202 109 L 199 104 L 202 100 L 202 97 L 198 94 Z M 195 100 L 196 97 L 199 99 Z M 176 94 L 173 96 L 171 101 L 172 107 L 177 111 L 182 111 L 186 108 L 187 104 L 186 98 L 183 95 Z M 177 96 L 180 96 L 184 100 L 184 104 L 180 109 L 177 109 L 174 106 L 174 99 Z M 157 94 L 158 97 L 161 98 L 162 111 L 164 109 L 165 97 L 168 95 Z M 146 94 L 141 110 L 145 107 L 149 107 L 154 109 L 150 96 L 148 94 Z M 87 94 L 87 110 L 89 109 L 92 104 L 93 108 L 96 108 L 97 105 L 99 104 L 101 106 L 101 110 L 103 109 L 103 99 L 101 94 L 99 94 L 96 98 L 93 99 L 89 94 Z M 71 94 L 61 94 L 61 97 L 63 97 L 65 99 L 65 110 L 67 109 L 69 97 Z M 50 94 L 48 95 L 47 101 L 54 106 L 50 109 L 47 107 L 47 109 L 49 111 L 53 111 L 57 107 L 57 105 L 49 99 L 50 96 L 56 96 L 53 94 Z M 31 94 L 29 95 L 26 99 L 26 106 L 29 110 L 35 111 L 40 107 L 41 105 L 41 99 L 38 95 Z M 32 96 L 36 97 L 39 101 L 39 105 L 35 109 L 32 109 L 29 106 L 28 103 L 29 98 Z M 19 94 L 17 95 L 18 110 L 20 109 Z M 0 94 L 1 105 L 0 108 L 1 111 L 7 111 L 11 108 L 11 105 L 9 103 L 10 97 L 6 94 Z M 4 106 L 5 104 L 7 106 Z M 176 67 L 174 68 L 170 80 L 170 83 L 172 81 Z M 145 66 L 145 81 L 147 80 L 149 74 L 155 82 L 157 80 L 155 66 L 155 73 L 153 75 L 149 69 Z M 129 66 L 130 82 L 137 80 L 133 80 L 131 78 L 132 75 L 136 73 L 132 72 L 133 68 L 137 66 Z M 110 67 L 108 70 L 108 77 L 112 82 L 115 83 L 119 82 L 122 79 L 121 74 L 116 74 L 119 78 L 117 80 L 114 80 L 111 77 L 111 70 L 113 68 L 118 68 L 120 70 L 122 68 L 119 66 L 112 66 Z M 95 66 L 94 71 L 90 79 L 91 82 L 93 79 L 99 78 L 102 82 L 103 79 L 101 76 L 101 73 L 99 68 L 97 66 Z M 76 66 L 77 82 L 84 80 L 81 80 L 79 78 L 78 66 Z M 62 66 L 61 78 L 62 82 L 69 80 L 66 80 L 64 78 Z M 43 66 L 40 69 L 40 77 L 44 82 L 50 82 L 55 77 L 55 70 L 54 68 L 51 66 Z M 44 68 L 49 68 L 53 73 L 52 77 L 49 80 L 45 80 L 43 78 Z M 24 66 L 21 69 L 21 77 L 25 82 L 31 82 L 34 79 L 32 78 L 30 80 L 26 80 L 23 76 L 23 71 L 24 69 L 32 69 L 33 67 L 31 66 Z M 53 12 L 56 15 L 55 12 Z M 53 4 L 56 7 L 56 4 Z M 79 32 L 80 34 L 88 34 L 105 31 L 115 27 L 125 27 L 141 35 L 151 35 L 162 31 L 163 29 L 156 24 L 150 22 L 138 21 L 132 23 L 129 21 L 141 13 L 143 13 L 145 11 L 150 9 L 160 9 L 167 11 L 176 10 L 183 7 L 191 0 L 187 0 L 182 4 L 173 8 L 165 6 L 167 4 L 181 0 L 174 0 L 170 2 L 168 2 L 167 0 L 162 0 L 156 5 L 153 3 L 156 0 L 152 0 L 147 5 L 138 9 L 145 0 L 137 0 L 137 7 L 134 12 L 129 17 L 120 22 L 117 22 L 113 25 L 110 23 L 120 13 L 126 0 L 119 0 L 117 7 L 113 13 L 112 10 L 116 0 L 113 0 L 110 10 L 110 18 L 109 21 L 102 28 L 93 31 Z M 134 27 L 146 29 L 152 29 L 155 27 L 157 29 L 155 31 L 148 33 L 143 33 L 134 30 Z M 142 26 L 143 24 L 148 24 L 152 26 L 150 28 Z M 120 1 L 123 2 L 122 6 L 118 12 L 117 9 Z" fill="currentColor" fill-rule="evenodd"/>
</svg>
