<svg xmlns="http://www.w3.org/2000/svg" width="279" height="167" viewBox="0 0 279 167" role="img" aria-hidden="true">
  <path d="M 171 98 L 165 99 L 154 108 L 149 118 L 148 126 L 139 135 L 139 130 L 142 123 L 142 115 L 140 110 L 136 111 L 132 117 L 129 125 L 129 131 L 131 139 L 129 141 L 127 146 L 118 154 L 117 150 L 122 142 L 122 138 L 120 136 L 118 136 L 115 140 L 116 146 L 115 151 L 108 159 L 102 162 L 97 163 L 100 165 L 105 164 L 118 158 L 129 158 L 136 163 L 139 162 L 142 158 L 138 155 L 124 155 L 125 152 L 138 146 L 146 148 L 153 148 L 160 145 L 170 137 L 167 135 L 161 134 L 151 135 L 143 139 L 142 137 L 149 128 L 157 125 L 162 121 L 167 115 L 171 104 Z M 154 141 L 156 140 L 156 137 L 163 139 L 157 144 Z M 137 135 L 138 137 L 136 139 L 135 137 Z M 139 117 L 136 121 L 135 126 L 133 128 L 132 124 L 135 117 Z M 167 104 L 165 112 L 157 121 L 156 119 L 164 108 L 157 109 L 161 105 Z M 56 21 L 50 21 L 30 31 L 14 48 L 10 54 L 2 72 L 0 81 L 0 98 L 2 107 L 6 115 L 14 123 L 25 128 L 35 128 L 43 125 L 53 116 L 56 111 L 57 107 L 57 94 L 53 86 L 47 80 L 43 78 L 36 76 L 28 77 L 23 76 L 24 64 L 31 48 L 36 41 L 46 31 L 57 24 Z M 124 20 L 106 28 L 98 34 L 87 45 L 80 55 L 75 65 L 70 83 L 70 98 L 73 109 L 76 115 L 84 123 L 94 128 L 105 128 L 112 126 L 118 122 L 123 117 L 128 106 L 128 96 L 127 92 L 123 85 L 118 80 L 111 77 L 94 76 L 94 66 L 100 51 L 106 42 L 118 30 L 125 26 L 128 23 L 127 21 Z M 278 0 L 272 1 L 272 13 L 269 16 L 259 16 L 257 17 L 255 21 L 255 156 L 258 159 L 278 159 L 278 150 L 265 150 L 263 148 L 264 24 L 270 24 L 272 26 L 271 91 L 273 141 L 278 142 Z" fill="currentColor" fill-rule="evenodd"/>
</svg>
