<svg xmlns="http://www.w3.org/2000/svg" width="202" height="171" viewBox="0 0 202 171" role="img" aria-hidden="true">
  <path d="M 17 10 L 8 20 L 3 30 L 0 43 L 0 123 L 1 133 L 4 143 L 12 156 L 21 163 L 29 167 L 43 170 L 121 170 L 135 167 L 142 164 L 147 160 L 152 160 L 157 166 L 162 166 L 167 162 L 167 158 L 162 154 L 157 154 L 153 157 L 133 155 L 143 146 L 148 144 L 154 145 L 154 148 L 159 148 L 167 138 L 169 130 L 163 130 L 161 131 L 159 135 L 155 139 L 153 139 L 150 141 L 149 138 L 151 135 L 157 129 L 165 124 L 176 123 L 186 118 L 195 108 L 199 101 L 200 95 L 184 99 L 175 103 L 170 107 L 165 113 L 162 121 L 159 124 L 158 120 L 163 109 L 163 106 L 164 104 L 174 95 L 178 84 L 177 69 L 174 69 L 167 76 L 166 73 L 170 68 L 171 62 L 170 52 L 171 45 L 170 37 L 167 27 L 161 17 L 153 9 L 146 5 L 131 1 L 111 0 L 39 1 L 25 5 Z M 195 101 L 190 110 L 186 114 L 184 114 L 179 119 L 173 116 L 186 107 L 188 104 L 184 107 L 174 111 L 173 109 L 175 107 L 182 103 L 191 100 Z M 147 96 L 149 102 L 147 104 L 143 103 L 143 107 L 141 109 L 140 104 L 143 96 Z M 175 78 L 175 83 L 174 85 L 172 87 L 171 83 Z M 27 15 L 39 11 L 59 10 L 94 11 L 113 10 L 136 12 L 145 16 L 149 19 L 155 26 L 160 37 L 161 47 L 162 84 L 160 89 L 161 105 L 159 108 L 159 112 L 152 129 L 145 137 L 144 133 L 145 130 L 149 124 L 153 114 L 153 102 L 146 86 L 144 86 L 139 96 L 137 103 L 137 118 L 142 129 L 142 133 L 137 146 L 127 155 L 120 159 L 117 158 L 117 156 L 122 145 L 126 142 L 127 136 L 123 131 L 118 131 L 116 132 L 114 136 L 114 140 L 119 146 L 114 157 L 111 160 L 44 160 L 31 157 L 24 153 L 18 147 L 13 138 L 10 124 L 10 46 L 11 38 L 14 29 L 17 24 Z M 76 41 L 66 44 L 60 47 L 55 51 L 49 58 L 46 63 L 42 74 L 41 91 L 43 99 L 47 107 L 52 114 L 58 120 L 70 126 L 78 128 L 88 128 L 97 126 L 105 122 L 119 109 L 126 94 L 127 79 L 125 70 L 122 65 L 122 63 L 117 56 L 110 49 L 99 43 L 92 41 Z M 75 51 L 90 51 L 103 56 L 111 64 L 117 77 L 116 93 L 111 103 L 102 112 L 92 117 L 86 118 L 75 117 L 65 112 L 57 104 L 52 93 L 51 78 L 55 66 L 64 56 Z M 133 25 L 127 28 L 125 32 L 125 40 L 131 46 L 136 46 L 143 40 L 145 34 L 144 31 L 139 26 Z" fill="currentColor" fill-rule="evenodd"/>
</svg>
