<svg xmlns="http://www.w3.org/2000/svg" width="223" height="145" viewBox="0 0 223 145" role="img" aria-hidden="true">
  <path d="M 2 9 L 0 15 L 1 132 L 4 138 L 9 142 L 13 144 L 176 144 L 178 142 L 169 136 L 142 133 L 149 128 L 162 123 L 169 123 L 176 129 L 184 133 L 193 135 L 202 134 L 211 131 L 213 129 L 208 124 L 195 117 L 183 116 L 176 117 L 169 120 L 165 118 L 169 114 L 181 106 L 198 107 L 204 105 L 209 102 L 220 91 L 221 86 L 203 86 L 189 90 L 189 86 L 196 81 L 202 80 L 207 74 L 207 13 L 204 6 L 202 4 L 196 1 L 183 0 L 173 1 L 83 1 L 79 0 L 72 1 L 25 1 L 24 0 L 17 0 L 11 1 L 7 3 Z M 179 124 L 183 124 L 195 127 L 197 125 L 192 123 L 187 123 L 185 121 L 187 119 L 196 121 L 206 127 L 202 130 L 195 132 L 183 129 L 179 127 Z M 216 91 L 206 100 L 205 96 L 208 94 L 210 89 Z M 173 64 L 176 65 L 177 76 L 175 86 L 171 87 L 171 82 L 173 74 L 171 74 L 170 78 L 168 80 L 168 82 L 165 85 L 164 79 L 167 72 Z M 11 21 L 33 38 L 49 52 L 68 66 L 73 71 L 66 78 L 29 109 L 10 127 Z M 198 22 L 198 56 L 193 62 L 188 74 L 188 84 L 181 96 L 181 99 L 174 107 L 163 115 L 162 112 L 166 105 L 174 96 L 180 82 L 179 59 L 178 57 L 175 56 L 165 69 L 160 80 L 160 96 L 162 102 L 160 111 L 155 118 L 147 126 L 136 132 L 133 130 L 139 122 L 142 115 L 146 112 L 147 104 L 145 102 L 140 101 L 136 103 L 135 105 L 135 110 L 137 119 L 133 126 L 124 135 L 119 136 L 114 135 L 18 136 L 14 134 L 14 132 L 21 125 L 73 79 L 80 76 L 91 85 L 98 89 L 103 89 L 109 87 L 190 23 L 196 20 Z M 12 11 L 14 9 L 192 9 L 194 11 L 142 51 L 132 60 L 119 69 L 110 77 L 103 81 L 98 80 L 91 75 L 85 69 L 78 65 L 63 52 L 55 47 L 48 40 L 34 30 L 28 24 L 15 15 Z" fill="currentColor" fill-rule="evenodd"/>
</svg>
