<svg xmlns="http://www.w3.org/2000/svg" width="220" height="304" viewBox="0 0 220 304" role="img" aria-hidden="true">
  <path d="M 156 292 L 150 293 L 138 303 L 145 303 L 147 301 L 150 301 L 151 303 L 156 303 L 157 295 Z M 2 17 L 0 21 L 0 156 L 3 159 L 49 159 L 83 164 L 87 166 L 91 166 L 98 168 L 105 173 L 113 173 L 119 168 L 127 167 L 131 165 L 146 162 L 174 159 L 215 159 L 219 154 L 218 133 L 218 33 L 219 21 L 217 17 L 215 16 L 204 16 L 202 14 L 202 2 L 200 0 L 176 0 L 150 5 L 136 10 L 122 17 L 109 27 L 98 18 L 77 8 L 56 2 L 41 0 L 17 1 L 17 13 L 14 16 L 4 16 Z M 208 24 L 210 26 L 210 147 L 207 150 L 172 150 L 164 152 L 155 152 L 139 155 L 139 152 L 155 146 L 178 142 L 198 142 L 202 138 L 203 24 Z M 9 24 L 15 24 L 17 26 L 16 91 L 18 141 L 20 142 L 43 142 L 55 144 L 63 147 L 70 148 L 81 153 L 79 155 L 73 153 L 41 150 L 10 150 L 8 148 Z M 193 6 L 195 8 L 195 133 L 193 135 L 181 135 L 162 138 L 141 144 L 114 158 L 112 152 L 114 29 L 134 17 L 139 16 L 144 13 L 154 10 L 176 6 Z M 170 42 L 167 44 L 164 48 L 156 65 L 157 92 L 153 105 L 148 115 L 146 117 L 145 112 L 148 107 L 150 97 L 147 85 L 139 74 L 136 75 L 134 84 L 134 97 L 135 101 L 142 112 L 143 116 L 140 127 L 128 144 L 141 132 L 147 129 L 155 128 L 161 130 L 167 124 L 162 121 L 158 121 L 146 126 L 146 124 L 149 119 L 156 112 L 165 111 L 171 109 L 174 107 L 182 98 L 185 89 L 181 89 L 171 92 L 164 96 L 157 106 L 156 103 L 161 88 L 170 78 L 174 69 L 174 54 Z M 181 94 L 178 99 L 174 103 L 169 106 L 167 103 L 175 97 L 173 97 L 169 100 L 165 99 L 175 93 Z M 141 81 L 143 85 L 140 86 L 140 90 L 136 91 L 137 82 Z M 170 51 L 171 55 L 171 67 L 166 69 L 166 64 L 168 57 L 166 58 L 163 67 L 160 71 L 158 69 L 160 61 L 165 52 L 167 50 Z M 24 6 L 49 7 L 74 13 L 90 20 L 100 26 L 106 31 L 107 151 L 106 156 L 103 158 L 98 154 L 86 148 L 65 140 L 43 136 L 25 135 L 23 133 Z" fill="currentColor" fill-rule="evenodd"/>
</svg>
