<svg xmlns="http://www.w3.org/2000/svg" width="291" height="180" viewBox="0 0 291 180" role="img" aria-hidden="true">
  <path d="M 0 113 L 2 110 L 0 111 Z M 14 101 L 0 105 L 0 108 L 5 106 L 9 107 L 4 116 L 0 120 L 0 124 L 9 114 L 13 107 Z M 289 109 L 286 109 L 277 112 L 268 117 L 261 129 L 261 132 L 254 140 L 253 136 L 256 131 L 258 124 L 258 113 L 253 101 L 251 99 L 248 100 L 248 103 L 244 113 L 245 126 L 249 133 L 249 137 L 247 140 L 248 146 L 246 151 L 235 162 L 234 159 L 237 152 L 240 148 L 240 142 L 237 138 L 233 139 L 232 141 L 232 150 L 234 152 L 229 164 L 222 172 L 212 176 L 214 178 L 216 178 L 228 172 L 238 172 L 242 174 L 248 174 L 253 170 L 247 167 L 242 167 L 238 169 L 235 167 L 240 162 L 247 159 L 253 159 L 260 161 L 269 159 L 282 149 L 280 147 L 263 147 L 253 151 L 250 154 L 249 152 L 261 137 L 274 133 L 285 123 L 288 117 Z M 275 151 L 271 155 L 269 155 L 267 157 L 263 157 L 262 158 L 259 155 L 267 153 L 269 149 Z M 274 120 L 271 123 L 270 121 Z M 284 117 L 284 119 L 274 130 L 270 130 L 270 128 L 275 124 L 280 118 L 278 115 L 280 114 Z M 251 107 L 253 109 L 255 115 L 253 117 L 252 113 L 249 109 Z M 147 50 L 143 55 L 143 57 L 140 62 L 140 76 L 149 96 L 163 113 L 173 122 L 182 127 L 185 130 L 199 136 L 203 137 L 214 137 L 224 132 L 227 129 L 231 122 L 232 114 L 228 110 L 209 100 L 203 101 L 200 104 L 199 107 L 194 112 L 188 109 L 174 97 L 166 84 L 166 82 L 170 79 L 175 73 L 174 65 L 170 59 L 169 55 L 166 50 L 161 46 L 154 46 Z M 152 55 L 155 53 L 159 53 L 162 56 L 169 70 L 161 79 L 161 85 L 170 99 L 180 109 L 193 116 L 198 116 L 205 108 L 208 107 L 222 114 L 225 118 L 217 128 L 208 130 L 207 129 L 203 129 L 197 127 L 185 121 L 178 116 L 163 102 L 151 85 L 147 75 L 147 63 L 148 60 Z M 245 22 L 230 11 L 216 5 L 201 1 L 182 0 L 167 2 L 156 5 L 141 12 L 123 27 L 114 38 L 106 53 L 99 76 L 99 100 L 100 108 L 104 121 L 108 130 L 111 134 L 111 139 L 108 145 L 106 155 L 99 173 L 100 179 L 103 179 L 141 166 L 143 166 L 153 172 L 167 177 L 178 179 L 195 179 L 205 177 L 209 175 L 214 171 L 218 170 L 225 163 L 226 158 L 224 158 L 218 162 L 206 167 L 195 169 L 177 169 L 164 166 L 154 162 L 145 156 L 140 156 L 117 164 L 114 161 L 118 146 L 122 137 L 122 133 L 115 122 L 110 107 L 109 101 L 109 76 L 113 61 L 121 45 L 129 35 L 141 24 L 156 16 L 164 13 L 179 10 L 191 10 L 209 13 L 215 15 L 233 25 L 249 41 L 255 50 L 261 63 L 265 79 L 265 103 L 263 108 L 263 115 L 266 113 L 274 104 L 275 98 L 275 79 L 274 73 L 269 56 L 263 44 L 255 33 Z" fill="currentColor" fill-rule="evenodd"/>
</svg>
