<svg xmlns="http://www.w3.org/2000/svg" viewBox="0 0 64 64" fill="none" stroke="currentColor" stroke-width="1.12" stroke-linecap="round" stroke-linejoin="round">
  <title>Section Divider Left</title>
  <path d="M9 32 C20 25 44 25 55 32"/><g transform="translate(18 30) rotate(-20) scale(0.3)">
  <path d="M0 0 C4 -5 10 -5 14 0 C10 5 4 5 0 0Z"/>
  <path d="M1 0 C5 .2 9 .1 13 0"/>
</g><g transform="translate(24 30) rotate(-20) scale(0.3)">
  <path d="M0 0 C4 -5 10 -5 14 0 C10 5 4 5 0 0Z"/>
  <path d="M1 0 C5 .2 9 .1 13 0"/>
</g><g transform="translate(32 30) rotate(200) scale(0.3)">
  <path d="M0 0 C4 -5 10 -5 14 0 C10 5 4 5 0 0Z"/>
  <path d="M1 0 C5 .2 9 .1 13 0"/>
</g><g transform="translate(40 30) rotate(200) scale(0.3)">
  <path d="M0 0 C4 -5 10 -5 14 0 C10 5 4 5 0 0Z"/>
  <path d="M1 0 C5 .2 9 .1 13 0"/>
</g><g transform="translate(46 30) rotate(200) scale(0.3)">
  <path d="M0 0 C4 -5 10 -5 14 0 C10 5 4 5 0 0Z"/>
  <path d="M1 0 C5 .2 9 .1 13 0"/>
</g><g transform="translate(32 29) scale(0.33)">
  <circle cx="0" cy="0" r=".8"/>
  <path d="M0 -5 C3 -3 3 0 0 2 C-3 0 -3 -3 0 -5Z"/>
  <path d="M0 5 C3 3 3 0 0 -2 C-3 0 -3 3 0 5Z"/>
  <path d="M-5 0 C-3 -3 0 -3 2 0 C0 3 -3 3 -5 0Z"/>
  <path d="M5 0 C3 -3 0 -3 -2 0 C0 3 3 3 5 0Z"/>
</g>
</svg>
