<svg xmlns="http://www.w3.org/2000/svg" width="117" height="48" viewBox="0 0 117 48" role="img" aria-hidden="true">
  <path d="M 113 20 L 114 23 L 116 24 L 116 20 Z M 104 18 L 102 20 L 103 24 L 106 25 L 108 24 L 110 21 L 107 18 Z M 22 0 L 20 0 L 19 10 L 16 16 L 12 20 L 8 22 L 0 23 L 1 26 L 10 27 L 17 33 L 19 37 L 19 41 L 21 47 L 23 45 L 23 39 L 26 32 L 32 27 L 41 26 L 43 24 L 34 22 L 30 20 L 26 16 L 24 11 Z M 22 16 L 24 19 L 30 24 L 21 32 L 14 26 L 14 22 L 19 17 Z" fill="currentColor" fill-rule="evenodd"/>
</svg>
