<svg xmlns="http://www.w3.org/2000/svg" width="161" height="179" viewBox="0 0 161 179" role="img" aria-hidden="true">
  <path d="M 77 0 L 75 1 L 75 23 L 72 25 L 56 12 L 52 13 L 53 20 L 68 31 L 75 38 L 76 69 L 75 80 L 72 82 L 36 61 L 33 54 L 32 35 L 29 31 L 24 32 L 24 40 L 26 52 L 24 54 L 8 44 L 1 45 L 1 49 L 4 52 L 19 60 L 20 62 L 18 64 L 15 64 L 9 68 L 0 71 L 0 75 L 4 78 L 17 73 L 24 69 L 31 67 L 33 69 L 35 69 L 69 89 L 70 91 L 32 114 L 26 114 L 6 106 L 0 107 L 0 111 L 6 115 L 14 117 L 16 119 L 20 120 L 17 123 L 1 132 L 2 138 L 4 139 L 22 128 L 26 129 L 24 148 L 27 151 L 29 151 L 32 148 L 34 122 L 39 118 L 54 110 L 71 99 L 75 100 L 76 105 L 76 141 L 54 160 L 55 166 L 57 167 L 64 162 L 70 156 L 72 155 L 75 156 L 76 158 L 77 177 L 79 178 L 83 175 L 84 154 L 86 154 L 99 165 L 102 166 L 105 160 L 104 158 L 100 156 L 86 145 L 83 141 L 85 98 L 105 110 L 119 117 L 127 124 L 128 140 L 130 150 L 134 151 L 137 148 L 135 133 L 136 128 L 138 128 L 149 135 L 156 138 L 160 133 L 157 130 L 142 122 L 142 118 L 155 113 L 160 109 L 160 107 L 158 105 L 153 105 L 143 110 L 135 112 L 130 115 L 95 95 L 93 93 L 91 88 L 96 84 L 127 66 L 131 66 L 153 75 L 157 75 L 160 72 L 159 69 L 140 61 L 140 59 L 142 57 L 156 49 L 159 46 L 159 44 L 157 42 L 153 42 L 146 45 L 142 49 L 135 53 L 134 50 L 137 34 L 134 30 L 131 30 L 129 32 L 126 57 L 123 60 L 108 69 L 106 69 L 103 72 L 86 82 L 83 81 L 83 36 L 97 24 L 105 16 L 105 14 L 103 12 L 99 12 L 90 20 L 85 23 L 83 21 L 83 4 L 81 1 Z" fill="currentColor" fill-rule="evenodd"/>
</svg>
