<svg xmlns="http://www.w3.org/2000/svg" width="104" height="266" viewBox="0 0 104 266" role="img" aria-hidden="true">
  <path d="M 30 250 L 28 251 L 26 254 L 26 260 L 29 264 L 35 265 L 39 260 L 40 255 L 36 250 Z M 33 254 L 36 257 L 34 259 L 33 257 L 31 256 Z M 75 251 L 76 258 L 73 265 L 101 265 L 103 263 L 102 257 L 99 254 L 94 254 L 90 257 L 90 259 L 87 262 L 84 262 L 81 264 L 80 260 L 84 259 L 86 257 L 87 253 L 83 248 L 78 248 L 76 249 Z M 95 258 L 97 258 L 99 261 L 96 264 L 94 262 Z M 51 225 L 48 227 L 47 233 L 49 237 L 54 242 L 57 254 L 56 265 L 61 265 L 64 257 L 72 243 L 79 241 L 82 238 L 83 233 L 79 228 L 73 228 L 70 231 L 70 239 L 61 253 L 58 238 L 61 234 L 61 230 L 59 226 L 57 225 Z M 77 232 L 79 235 L 75 238 L 73 236 L 74 232 Z M 55 229 L 57 232 L 53 235 L 51 233 L 52 229 Z M 60 0 L 56 0 L 43 12 L 37 24 L 36 32 L 40 46 L 40 53 L 37 63 L 36 76 L 32 77 L 34 62 L 33 57 L 29 50 L 20 41 L 14 37 L 10 38 L 9 55 L 11 64 L 14 69 L 23 77 L 27 78 L 30 81 L 33 87 L 35 118 L 33 120 L 30 117 L 31 109 L 30 103 L 27 101 L 26 98 L 19 91 L 8 86 L 0 85 L 0 91 L 2 100 L 7 111 L 12 116 L 18 119 L 26 120 L 35 129 L 37 132 L 39 141 L 43 149 L 44 154 L 48 154 L 49 151 L 43 137 L 44 128 L 49 122 L 54 122 L 60 120 L 65 117 L 70 112 L 74 104 L 77 94 L 76 90 L 67 90 L 55 95 L 48 103 L 45 110 L 45 119 L 41 123 L 39 118 L 38 98 L 42 88 L 48 81 L 59 80 L 66 76 L 73 69 L 77 61 L 80 51 L 79 47 L 72 47 L 62 50 L 55 54 L 47 65 L 45 71 L 45 77 L 40 83 L 39 80 L 41 77 L 40 73 L 41 72 L 41 68 L 45 63 L 43 61 L 44 53 L 46 49 L 58 38 L 62 28 L 63 19 L 62 6 Z M 71 96 L 69 105 L 61 114 L 55 117 L 54 113 L 64 102 L 57 104 L 52 110 L 51 106 L 52 104 L 58 98 L 65 95 Z M 7 92 L 10 92 L 14 94 L 23 102 L 25 107 L 23 109 L 14 98 L 11 98 L 11 101 L 22 113 L 18 114 L 11 108 L 7 101 L 6 97 Z M 74 53 L 74 56 L 69 66 L 61 74 L 59 75 L 55 74 L 55 72 L 66 62 L 61 61 L 51 67 L 53 63 L 62 55 L 70 52 Z M 22 49 L 25 52 L 29 61 L 29 63 L 27 65 L 24 59 L 21 56 L 21 53 L 20 52 Z M 16 45 L 19 51 L 18 59 L 21 62 L 24 69 L 22 71 L 17 65 L 16 59 L 14 57 L 14 50 Z M 54 7 L 58 8 L 58 27 L 54 35 L 49 40 L 48 36 L 54 18 L 51 17 L 49 24 L 46 29 L 45 35 L 41 36 L 41 28 L 42 23 L 45 20 L 46 16 Z" fill="currentColor" fill-rule="evenodd"/>
</svg>
