<svg xmlns="http://www.w3.org/2000/svg" width="116" height="155" viewBox="0 0 116 155" role="img" aria-hidden="true">
  <path d="M 44 2 L 33 8 L 23 19 L 18 33 L 18 57 L 13 61 L 7 62 L 4 65 L 0 72 L 0 140 L 1 143 L 9 152 L 15 154 L 99 154 L 103 153 L 113 145 L 115 138 L 115 74 L 114 71 L 108 63 L 97 59 L 97 37 L 95 28 L 90 17 L 82 9 L 73 3 L 61 0 L 54 0 Z M 10 70 L 13 68 L 100 68 L 102 69 L 108 76 L 108 137 L 106 141 L 100 146 L 15 146 L 11 144 L 9 142 L 7 137 L 8 112 L 7 111 L 8 101 L 7 77 Z M 52 86 L 49 87 L 44 93 L 44 103 L 49 110 L 49 125 L 50 127 L 53 129 L 61 129 L 63 128 L 66 124 L 66 108 L 71 101 L 71 96 L 69 91 L 65 87 L 62 86 Z M 53 92 L 60 92 L 65 98 L 64 102 L 60 105 L 59 113 L 60 114 L 60 120 L 57 123 L 55 121 L 56 107 L 53 105 L 50 101 L 50 96 Z M 32 20 L 38 14 L 43 11 L 50 9 L 65 9 L 74 13 L 82 20 L 87 28 L 89 34 L 89 57 L 86 60 L 28 60 L 26 58 L 26 33 Z" fill="currentColor" fill-rule="evenodd"/>
</svg>
