<svg xmlns="http://www.w3.org/2000/svg" width="154" height="146" viewBox="0 0 154 146" role="img" aria-hidden="true">
  <path d="M 39 39 L 34 47 L 32 56 L 33 70 L 32 91 L 33 103 L 36 110 L 46 119 L 53 121 L 98 121 L 106 119 L 111 116 L 117 109 L 121 100 L 121 54 L 119 47 L 116 42 L 111 37 L 103 33 L 51 33 L 45 35 Z M 47 41 L 52 39 L 98 39 L 105 41 L 112 47 L 115 54 L 115 98 L 112 105 L 106 112 L 98 115 L 54 115 L 49 113 L 41 106 L 39 102 L 39 53 L 41 47 Z M 70 55 L 62 59 L 56 66 L 54 72 L 54 82 L 58 91 L 63 96 L 72 100 L 81 100 L 88 97 L 96 89 L 99 82 L 99 72 L 93 60 L 91 60 L 82 55 Z M 71 61 L 80 61 L 85 63 L 92 71 L 93 80 L 91 85 L 84 92 L 80 94 L 72 94 L 67 91 L 61 84 L 60 80 L 61 70 L 67 63 Z M 98 48 L 96 49 L 95 51 L 95 56 L 97 58 L 101 59 L 106 55 L 106 51 L 103 48 Z M 38 9 L 28 16 L 17 27 L 9 39 L 2 57 L 0 71 L 1 89 L 4 101 L 10 114 L 16 123 L 31 138 L 43 145 L 68 145 L 56 143 L 44 138 L 35 132 L 32 128 L 29 127 L 21 118 L 12 102 L 9 93 L 8 86 L 8 64 L 11 52 L 18 38 L 24 30 L 32 22 L 39 17 L 51 11 L 66 7 L 87 7 L 96 9 L 112 16 L 121 22 L 132 33 L 142 50 L 146 64 L 147 80 L 145 92 L 142 101 L 131 120 L 121 130 L 111 137 L 94 144 L 83 145 L 111 145 L 122 138 L 135 126 L 144 113 L 150 99 L 153 84 L 153 67 L 150 52 L 142 35 L 136 27 L 121 13 L 109 6 L 95 1 L 89 0 L 65 0 L 55 2 Z" fill="currentColor" fill-rule="evenodd"/>
</svg>
