<svg xmlns="http://www.w3.org/2000/svg" width="339" height="348" viewBox="0 0 339 348" role="img" aria-hidden="true">
  <path d="M 6 287 L 5 289 L 6 292 L 7 289 Z M 4 285 L 5 282 L 4 280 Z M 300 272 L 302 272 L 304 270 L 300 270 Z M 307 268 L 309 268 L 311 266 L 307 266 Z M 0 258 L 1 264 L 0 269 L 1 271 L 3 270 Z M 0 250 L 0 255 L 2 254 Z M 5 221 L 1 236 L 0 247 L 2 246 L 2 241 L 4 237 L 6 224 Z M 307 220 L 307 222 L 309 224 L 311 222 L 309 220 Z M 299 216 L 302 220 L 304 218 L 302 216 Z M 338 211 L 315 224 L 315 264 L 338 277 L 338 255 L 334 259 L 331 258 L 323 259 L 326 263 L 329 264 L 332 267 L 329 268 L 318 261 L 318 227 L 320 225 L 337 216 Z M 11 211 L 9 212 L 7 216 L 7 218 L 10 216 L 11 213 Z M 285 207 L 285 209 L 287 211 L 289 209 L 287 207 Z M 100 196 L 98 196 L 99 206 L 101 204 Z M 29 184 L 25 184 L 18 187 L 18 190 L 21 192 L 12 205 L 11 209 L 14 207 L 16 202 L 22 194 L 24 194 L 26 197 L 28 195 Z M 165 175 L 166 186 L 170 183 L 179 195 L 180 199 L 183 203 L 185 208 L 186 215 L 188 218 L 189 227 L 187 229 L 184 228 L 188 236 L 190 237 L 192 235 L 195 229 L 195 227 L 192 228 L 190 225 L 189 215 L 187 209 L 184 207 L 185 203 L 183 201 L 182 196 L 179 193 L 179 191 L 173 184 L 172 181 L 173 177 Z M 45 127 L 55 156 L 57 169 L 56 181 L 47 202 L 42 209 L 33 226 L 26 245 L 22 265 L 22 293 L 28 320 L 35 336 L 36 330 L 34 327 L 29 309 L 26 292 L 26 267 L 31 243 L 34 241 L 49 247 L 64 257 L 75 267 L 94 292 L 96 299 L 98 318 L 98 333 L 99 335 L 101 334 L 100 297 L 102 291 L 108 285 L 120 269 L 131 258 L 146 247 L 159 241 L 163 242 L 164 244 L 169 270 L 169 288 L 167 302 L 163 316 L 163 323 L 148 336 L 136 344 L 134 344 L 134 347 L 148 339 L 167 324 L 174 321 L 194 322 L 198 321 L 205 317 L 215 304 L 202 304 L 193 306 L 187 309 L 180 315 L 179 311 L 186 303 L 190 295 L 205 281 L 211 267 L 212 261 L 211 247 L 209 247 L 194 263 L 191 269 L 189 277 L 189 290 L 188 294 L 184 301 L 165 322 L 164 319 L 169 310 L 172 295 L 173 285 L 173 267 L 171 254 L 169 250 L 168 242 L 159 219 L 148 201 L 147 196 L 143 189 L 141 179 L 141 164 L 147 142 L 153 128 L 150 127 L 148 129 L 142 145 L 137 166 L 137 181 L 141 195 L 151 213 L 151 215 L 154 219 L 148 224 L 124 235 L 116 237 L 109 237 L 99 239 L 80 237 L 70 233 L 61 231 L 51 226 L 43 220 L 43 216 L 56 194 L 61 176 L 60 159 L 58 151 L 49 128 Z M 210 308 L 203 315 L 193 320 L 185 318 L 187 316 L 196 314 L 206 309 L 191 313 L 188 312 L 192 309 L 203 306 L 208 306 Z M 205 259 L 195 281 L 192 285 L 191 279 L 193 271 L 198 262 Z M 209 255 L 209 262 L 207 272 L 201 282 L 197 286 L 196 283 L 199 279 L 200 273 L 206 260 L 206 258 L 204 257 Z M 34 235 L 38 226 L 40 224 L 42 224 L 62 235 L 84 241 L 112 241 L 133 235 L 142 231 L 153 224 L 157 225 L 157 227 L 160 233 L 160 236 L 158 238 L 154 239 L 147 243 L 140 239 L 134 240 L 129 245 L 122 248 L 113 257 L 111 258 L 105 258 L 104 262 L 98 269 L 96 270 L 93 269 L 88 270 L 88 272 L 86 274 L 83 270 L 84 268 L 79 267 L 62 251 L 44 241 L 37 239 Z M 159 27 L 151 27 L 153 43 L 159 41 L 154 38 L 155 35 L 157 36 L 159 34 L 154 31 L 155 28 Z M 124 27 L 121 27 L 122 42 L 124 41 Z M 142 26 L 142 34 L 140 36 L 137 31 L 133 27 L 131 27 L 132 43 L 137 35 L 142 42 L 144 40 Z M 104 26 L 105 29 L 106 29 L 109 33 L 109 42 L 111 41 L 112 29 L 115 27 Z M 86 26 L 87 40 L 89 42 L 93 43 L 99 38 L 97 27 L 96 37 L 92 41 L 89 38 L 88 26 Z M 70 26 L 67 27 L 65 30 L 65 38 L 67 41 L 73 43 L 80 37 L 80 31 L 77 27 L 75 26 Z M 70 28 L 74 28 L 78 33 L 77 37 L 73 41 L 71 41 L 67 37 L 67 31 Z M 48 26 L 49 42 L 51 39 L 53 38 L 58 43 L 59 41 L 56 37 L 56 35 L 59 31 L 56 27 Z M 52 28 L 54 28 L 56 31 L 53 34 L 52 31 Z M 326 0 L 326 15 L 328 14 L 329 9 L 334 9 L 336 11 L 336 15 L 338 14 L 336 0 L 336 4 L 333 7 L 330 7 L 328 5 L 328 0 Z M 161 0 L 162 15 L 169 13 L 165 13 L 163 11 L 164 8 L 167 8 L 169 6 L 165 6 L 163 4 L 164 1 L 169 0 Z M 143 0 L 143 14 L 148 11 L 152 15 L 153 13 L 151 10 L 151 8 L 154 3 L 153 1 Z M 146 1 L 148 1 L 150 4 L 147 6 L 145 4 Z M 127 0 L 126 5 L 122 12 L 123 15 L 125 12 L 131 11 L 136 13 L 131 0 Z M 128 5 L 131 7 L 129 9 L 127 7 Z M 105 0 L 102 5 L 104 12 L 108 15 L 114 14 L 116 12 L 109 13 L 106 10 L 105 5 L 107 1 L 111 0 L 114 2 L 115 0 Z M 83 0 L 82 10 L 83 15 L 88 7 L 89 11 L 94 15 L 96 13 L 96 0 L 93 0 L 93 5 L 91 7 L 86 0 Z M 74 0 L 72 0 L 72 14 L 74 13 Z M 53 0 L 54 15 L 58 10 L 63 15 L 64 13 L 59 7 L 59 5 L 63 0 L 60 0 L 57 3 L 56 0 Z M 36 1 L 36 4 L 40 8 L 42 8 L 44 10 L 41 13 L 39 13 L 36 11 L 36 13 L 38 15 L 43 15 L 46 12 L 46 8 L 43 5 L 40 4 L 41 1 L 44 2 L 46 0 Z" fill="currentColor" fill-rule="evenodd"/>
</svg>
