<svg xmlns="http://www.w3.org/2000/svg" width="220" height="205" viewBox="0 0 220 205" role="img" aria-hidden="true">
  <path d="M 44 65 L 41 68 L 41 75 L 44 79 L 51 80 L 54 82 L 64 83 L 71 86 L 77 86 L 80 89 L 82 94 L 82 113 L 79 125 L 77 128 L 77 132 L 71 151 L 67 159 L 66 164 L 66 170 L 70 175 L 76 175 L 81 171 L 97 131 L 100 132 L 103 138 L 105 146 L 110 155 L 110 159 L 116 173 L 118 175 L 122 176 L 126 175 L 131 168 L 131 164 L 118 126 L 118 122 L 116 118 L 115 113 L 115 94 L 117 88 L 120 86 L 130 85 L 153 79 L 156 76 L 157 73 L 156 68 L 152 65 L 143 65 L 121 70 L 79 70 L 59 67 L 49 64 Z M 150 69 L 152 72 L 148 76 L 118 82 L 112 87 L 111 90 L 111 119 L 116 136 L 122 151 L 126 167 L 123 170 L 121 170 L 119 168 L 116 161 L 116 158 L 110 146 L 110 143 L 107 138 L 106 132 L 103 126 L 100 123 L 96 123 L 94 125 L 93 130 L 91 132 L 87 145 L 82 154 L 82 158 L 78 167 L 75 170 L 73 170 L 71 168 L 71 162 L 73 159 L 76 147 L 82 132 L 86 116 L 87 108 L 86 89 L 82 84 L 76 81 L 68 79 L 57 78 L 54 75 L 54 73 L 56 71 L 65 72 L 74 75 L 119 75 L 127 74 L 131 72 L 146 69 Z M 47 69 L 51 69 L 53 71 L 53 73 L 49 76 L 46 73 Z M 94 34 L 88 37 L 85 40 L 84 43 L 84 56 L 87 60 L 92 64 L 95 65 L 103 65 L 107 63 L 111 59 L 114 50 L 114 46 L 113 43 L 108 37 L 103 34 Z M 95 40 L 103 40 L 108 44 L 109 49 L 108 54 L 104 58 L 100 60 L 94 59 L 89 53 L 89 45 L 91 42 Z M 36 20 L 35 23 L 27 30 L 14 47 L 6 62 L 1 81 L 0 111 L 3 129 L 8 143 L 21 166 L 28 174 L 48 191 L 55 193 L 66 199 L 74 200 L 81 203 L 88 204 L 108 204 L 127 201 L 135 198 L 151 198 L 161 202 L 173 202 L 182 200 L 183 196 L 167 191 L 162 191 L 154 193 L 152 191 L 153 186 L 160 181 L 171 176 L 176 175 L 194 175 L 205 171 L 210 166 L 215 158 L 215 155 L 212 155 L 207 160 L 203 161 L 201 163 L 188 165 L 179 171 L 177 164 L 193 147 L 201 143 L 213 130 L 216 124 L 219 107 L 219 103 L 216 101 L 215 104 L 210 109 L 200 117 L 194 120 L 187 133 L 186 142 L 183 150 L 177 160 L 166 172 L 159 178 L 158 175 L 162 171 L 167 159 L 166 147 L 165 145 L 163 144 L 157 158 L 156 172 L 152 179 L 142 188 L 138 190 L 114 197 L 89 197 L 83 195 L 76 195 L 56 187 L 40 176 L 31 167 L 27 160 L 22 156 L 14 141 L 8 120 L 6 107 L 7 85 L 9 81 L 10 73 L 14 62 L 26 41 L 40 27 L 50 20 L 64 13 L 87 7 L 105 7 L 114 8 L 124 12 L 129 12 L 143 18 L 149 22 L 155 28 L 162 32 L 167 37 L 179 53 L 186 68 L 190 82 L 191 89 L 191 107 L 193 111 L 193 114 L 195 113 L 196 108 L 198 106 L 197 84 L 195 81 L 194 70 L 191 66 L 189 57 L 179 40 L 173 34 L 172 31 L 155 17 L 151 16 L 145 11 L 129 4 L 125 4 L 121 2 L 109 0 L 86 0 L 78 1 L 75 3 L 71 3 L 62 7 L 56 8 L 51 12 L 43 15 L 39 19 Z M 211 126 L 209 130 L 200 136 L 200 134 L 202 131 L 206 128 L 208 125 Z M 203 123 L 203 127 L 196 133 L 191 140 L 190 137 L 194 127 L 199 122 Z M 214 118 L 214 120 L 211 123 L 210 119 Z M 209 117 L 206 120 L 206 116 Z" fill="currentColor" fill-rule="evenodd"/>
</svg>
