<svg xmlns="http://www.w3.org/2000/svg" width="288" height="61" viewBox="0 0 288 61" role="img" aria-hidden="true">
  <path d="M 287 43 L 283 37 L 276 33 L 263 32 L 252 35 L 235 45 L 233 45 L 231 42 L 228 42 L 227 46 L 222 51 L 215 51 L 210 49 L 207 46 L 208 41 L 213 37 L 213 34 L 209 31 L 206 31 L 204 32 L 202 39 L 202 44 L 205 50 L 211 54 L 209 56 L 202 56 L 189 50 L 176 41 L 173 40 L 156 40 L 156 36 L 158 32 L 159 25 L 158 17 L 155 9 L 152 4 L 148 0 L 146 0 L 141 5 L 136 15 L 136 34 L 139 40 L 136 42 L 129 39 L 118 40 L 111 43 L 101 50 L 93 54 L 86 56 L 80 53 L 84 50 L 85 47 L 82 45 L 77 50 L 70 52 L 66 49 L 64 45 L 64 39 L 66 35 L 72 32 L 75 32 L 86 41 L 88 39 L 86 33 L 83 30 L 77 28 L 70 28 L 66 30 L 62 34 L 57 47 L 55 47 L 44 40 L 31 34 L 19 32 L 11 33 L 6 35 L 0 42 L 1 45 L 7 39 L 12 37 L 25 37 L 34 40 L 55 52 L 62 55 L 65 55 L 74 60 L 88 60 L 95 58 L 103 54 L 111 48 L 120 44 L 132 44 L 135 45 L 141 49 L 145 54 L 147 55 L 154 47 L 161 44 L 171 44 L 180 48 L 188 55 L 201 60 L 213 60 L 217 59 L 233 51 L 254 39 L 264 36 L 270 36 L 277 38 L 285 45 Z M 148 6 L 153 14 L 155 23 L 152 37 L 149 43 L 146 46 L 143 42 L 140 33 L 139 22 L 140 16 L 143 9 L 146 6 Z" fill="currentColor" fill-rule="evenodd"/>
</svg>
