<svg xmlns="http://www.w3.org/2000/svg" width="232" height="37" viewBox="0 0 232 37" role="img" aria-hidden="true">
  <path d="M 214 20 L 217 23 L 219 23 L 222 20 L 228 21 L 231 17 L 228 14 L 222 16 L 220 14 L 215 14 Z M 18 17 L 15 14 L 10 14 L 7 17 L 5 15 L 0 16 L 0 19 L 3 22 L 6 20 L 8 20 L 11 23 L 13 23 L 17 20 Z M 211 18 L 209 16 L 135 16 L 131 14 L 130 10 L 127 10 L 124 7 L 122 0 L 119 0 L 118 6 L 114 10 L 111 10 L 111 12 L 108 15 L 105 16 L 21 16 L 22 20 L 107 20 L 112 23 L 112 27 L 116 27 L 118 29 L 118 32 L 121 36 L 123 34 L 123 31 L 125 27 L 129 27 L 131 25 L 131 22 L 133 20 L 150 21 L 209 20 Z M 121 10 L 128 18 L 125 20 L 120 26 L 118 22 L 113 17 Z" fill="currentColor" fill-rule="evenodd"/>
</svg>
