<svg xmlns="http://www.w3.org/2000/svg" width="353" height="197" viewBox="0 0 353 197" role="img" aria-hidden="true">
  <path d="M 351 88 L 344 83 L 337 80 L 331 79 L 317 79 L 313 80 L 305 85 L 300 90 L 297 96 L 281 111 L 274 113 L 275 102 L 277 99 L 277 95 L 276 93 L 272 90 L 264 91 L 262 95 L 262 99 L 265 104 L 271 105 L 273 107 L 272 112 L 267 117 L 265 117 L 261 120 L 250 124 L 235 136 L 235 139 L 239 137 L 247 130 L 265 121 L 280 118 L 298 120 L 312 126 L 322 135 L 323 137 L 324 150 L 329 160 L 339 169 L 343 171 L 346 170 L 347 155 L 343 151 L 337 140 L 330 135 L 324 133 L 316 126 L 312 124 L 309 118 L 324 121 L 336 126 L 352 135 L 352 130 L 348 129 L 344 126 L 321 117 L 318 117 L 315 115 L 304 113 L 284 113 L 285 110 L 294 102 L 298 100 L 324 100 L 330 98 L 345 90 L 349 90 Z M 334 154 L 337 157 L 333 158 Z M 270 92 L 274 96 L 268 100 L 265 97 L 265 95 L 268 92 Z M 325 83 L 326 81 L 331 81 L 338 84 L 336 86 L 333 86 L 330 84 Z M 118 1 L 115 0 L 115 17 L 119 28 L 129 42 L 131 57 L 129 59 L 125 49 L 116 39 L 111 37 L 108 34 L 106 34 L 106 36 L 108 39 L 109 47 L 113 57 L 119 64 L 129 72 L 132 81 L 131 96 L 129 99 L 128 109 L 127 111 L 123 112 L 125 106 L 125 90 L 123 87 L 122 82 L 116 75 L 113 73 L 112 93 L 114 100 L 122 112 L 121 123 L 118 127 L 117 131 L 107 143 L 106 140 L 111 129 L 111 118 L 109 113 L 109 109 L 107 107 L 105 107 L 105 110 L 99 122 L 99 135 L 101 141 L 101 145 L 95 155 L 91 159 L 80 166 L 75 167 L 72 166 L 82 157 L 88 146 L 88 137 L 87 135 L 84 134 L 78 140 L 75 145 L 73 152 L 72 162 L 61 174 L 53 178 L 38 181 L 37 179 L 39 177 L 44 175 L 50 169 L 54 161 L 54 159 L 51 159 L 42 165 L 39 172 L 29 181 L 17 185 L 5 186 L 0 188 L 0 190 L 12 187 L 30 187 L 36 189 L 41 193 L 46 195 L 60 196 L 66 193 L 69 193 L 70 189 L 57 183 L 46 182 L 53 181 L 63 177 L 75 177 L 78 179 L 88 182 L 103 182 L 117 175 L 118 171 L 114 171 L 107 168 L 95 167 L 89 168 L 78 174 L 76 171 L 83 168 L 100 156 L 103 155 L 119 156 L 127 154 L 142 144 L 133 141 L 123 143 L 117 143 L 115 146 L 111 148 L 106 153 L 105 150 L 115 140 L 117 136 L 125 129 L 129 127 L 134 127 L 143 123 L 151 115 L 156 106 L 153 105 L 149 107 L 140 109 L 131 117 L 127 123 L 126 120 L 130 112 L 133 102 L 138 95 L 141 94 L 148 88 L 153 80 L 155 73 L 156 61 L 152 60 L 142 71 L 139 76 L 137 84 L 135 86 L 134 75 L 135 74 L 135 62 L 138 50 L 146 43 L 146 39 L 144 37 L 141 37 L 138 39 L 137 41 L 138 47 L 136 50 L 136 53 L 134 55 L 131 45 L 132 28 L 131 20 L 125 9 Z M 53 186 L 58 187 L 57 192 L 55 194 L 53 192 L 52 188 Z M 99 170 L 105 170 L 108 172 L 107 176 L 102 179 L 100 177 L 100 174 L 98 172 Z M 45 168 L 46 164 L 50 166 Z M 121 146 L 122 144 L 129 145 L 130 148 L 124 150 L 125 147 Z M 79 143 L 81 143 L 85 147 L 85 149 L 81 154 L 80 150 L 77 152 L 76 148 Z M 104 125 L 104 127 L 102 129 Z M 109 122 L 109 128 L 107 130 Z M 143 117 L 144 114 L 147 116 Z M 153 72 L 152 76 L 149 79 L 147 77 L 145 77 L 143 79 L 142 76 L 143 73 L 148 71 L 148 73 Z M 114 47 L 116 50 L 114 52 L 113 50 Z M 123 11 L 126 15 L 122 16 Z" fill="currentColor" fill-rule="evenodd"/>
</svg>
