<svg xmlns="http://www.w3.org/2000/svg" width="215" height="201" viewBox="0 0 215 201" role="img" aria-hidden="true">
  <path d="M 192 64 L 185 64 L 185 69 L 187 72 L 187 75 L 185 80 L 185 85 L 188 82 L 187 79 L 189 72 L 193 69 Z M 182 42 L 180 43 L 179 47 L 181 51 L 184 52 L 188 49 L 189 46 L 187 43 Z M 34 20 L 18 37 L 12 47 L 4 66 L 0 87 L 0 110 L 1 119 L 4 132 L 7 139 L 7 143 L 15 157 L 27 173 L 48 190 L 53 191 L 58 194 L 69 198 L 80 200 L 100 200 L 118 196 L 141 184 L 145 184 L 149 182 L 162 184 L 173 182 L 184 175 L 187 172 L 183 170 L 178 169 L 166 169 L 162 170 L 148 177 L 156 169 L 162 161 L 169 155 L 174 152 L 188 149 L 196 145 L 199 145 L 206 138 L 206 136 L 211 130 L 214 124 L 208 123 L 198 126 L 188 132 L 186 132 L 178 144 L 173 149 L 172 146 L 177 135 L 180 132 L 180 129 L 188 114 L 201 102 L 205 95 L 208 81 L 207 73 L 204 73 L 194 82 L 192 85 L 188 98 L 187 107 L 184 111 L 182 102 L 183 86 L 181 82 L 180 71 L 174 57 L 173 50 L 164 38 L 164 36 L 145 17 L 143 17 L 134 10 L 126 8 L 119 4 L 106 1 L 94 0 L 77 1 L 73 3 L 69 3 L 55 7 L 51 10 L 45 12 L 37 19 Z M 159 178 L 162 178 L 164 176 L 164 173 L 167 172 L 180 173 L 177 176 L 166 181 Z M 208 128 L 206 132 L 196 142 L 187 146 L 185 143 L 191 140 L 193 137 L 187 138 L 188 135 L 192 132 L 203 127 Z M 164 110 L 166 112 L 168 120 L 168 130 L 166 132 L 165 125 L 163 125 L 163 136 L 161 138 L 159 132 L 159 123 L 161 118 L 161 113 L 162 111 Z M 179 86 L 179 88 L 177 90 Z M 204 81 L 203 91 L 201 95 L 197 99 L 197 96 L 193 94 L 193 92 L 198 86 L 199 83 Z M 167 73 L 170 76 L 173 82 L 170 86 L 165 79 Z M 87 5 L 104 6 L 121 10 L 127 14 L 134 16 L 147 27 L 149 27 L 155 33 L 166 48 L 169 56 L 172 60 L 178 81 L 176 83 L 173 78 L 173 75 L 165 67 L 161 66 L 161 74 L 163 81 L 167 88 L 176 96 L 179 105 L 177 127 L 172 140 L 168 147 L 165 150 L 164 146 L 167 142 L 170 134 L 171 124 L 168 107 L 165 102 L 162 103 L 157 117 L 157 134 L 160 145 L 160 154 L 157 162 L 145 175 L 131 185 L 130 181 L 135 173 L 140 169 L 141 167 L 139 163 L 134 162 L 131 165 L 131 169 L 133 172 L 128 180 L 126 186 L 123 189 L 111 193 L 95 196 L 73 194 L 67 191 L 60 190 L 54 186 L 50 185 L 47 182 L 37 176 L 29 168 L 27 165 L 27 163 L 21 158 L 16 150 L 7 126 L 5 111 L 5 85 L 7 73 L 14 53 L 18 46 L 21 43 L 22 40 L 37 24 L 47 17 L 60 12 L 62 10 L 67 8 Z M 33 67 L 32 69 L 32 136 L 35 139 L 47 140 L 78 139 L 121 140 L 142 139 L 145 136 L 147 132 L 145 76 L 146 71 L 142 66 L 35 66 Z M 141 77 L 141 131 L 138 134 L 128 135 L 37 134 L 38 77 L 42 78 L 51 87 L 55 89 L 87 115 L 91 115 L 103 104 L 112 98 L 127 84 L 130 83 L 136 77 L 138 76 Z M 44 74 L 44 71 L 47 70 L 116 70 L 134 72 L 120 85 L 109 93 L 92 108 L 88 110 Z" fill="currentColor" fill-rule="evenodd"/>
</svg>
