<svg xmlns="http://www.w3.org/2000/svg" viewBox="0 0 64 64" fill="none" stroke="currentColor" stroke-width="1.12" stroke-linecap="round" stroke-linejoin="round">
  <title>Sparkle Leaf</title>
  <path d="M18 45 C26 30 38 22 50 14"/><g transform="translate(26 35) rotate(-35) scale(0.45)">
  <path d="M0 0 C4 -5 10 -5 14 0 C10 5 4 5 0 0Z"/>
  <path d="M1 0 C5 .2 9 .1 13 0"/>
</g><g transform="translate(38 24) rotate(150) scale(0.45)">
  <path d="M0 0 C4 -5 10 -5 14 0 C10 5 4 5 0 0Z"/>
  <path d="M1 0 C5 .2 9 .1 13 0"/>
</g><g transform="translate(47 17) scale(0.42)">
  <path d="M0 -5 V5"/>
  <path d="M-5 0 H5"/>
  <path d="M-3 -3 L3 3"/>
  <path d="M3 -3 L-3 3"/>
</g><g transform="translate(17 45) scale(0.3)">
  <path d="M0 -5 V5"/>
  <path d="M-5 0 H5"/>
  <path d="M-3 -3 L3 3"/>
  <path d="M3 -3 L-3 3"/>
</g>
</svg>
