<svg xmlns="http://www.w3.org/2000/svg" width="136" height="60" viewBox="0 0 136 60" role="img" aria-hidden="true">
  <path d="M 135 24 L 129 18 L 122 15 L 115 15 L 109 17 L 105 17 L 93 14 L 104 5 L 105 0 L 93 2 L 88 5 L 78 16 L 76 17 L 70 17 L 62 20 L 58 18 L 64 11 L 66 5 L 65 1 L 63 1 L 56 5 L 53 8 L 50 13 L 48 22 L 45 25 L 39 27 L 35 30 L 29 31 L 29 29 L 32 23 L 31 16 L 28 16 L 24 20 L 21 25 L 19 38 L 0 55 L 1 59 L 16 46 L 25 43 L 30 43 L 34 45 L 43 45 L 49 43 L 51 46 L 57 47 L 60 44 L 60 42 L 58 39 L 52 38 L 49 40 L 47 40 L 43 37 L 34 35 L 36 33 L 47 28 L 57 29 L 69 27 L 64 23 L 68 23 L 72 21 L 77 21 L 82 27 L 89 33 L 98 36 L 100 36 L 102 34 L 93 20 L 108 20 L 114 25 L 122 28 L 132 27 Z M 88 27 L 91 26 L 95 29 L 93 31 L 91 30 Z M 121 22 L 122 20 L 125 20 L 126 21 L 128 22 L 126 24 L 123 24 Z M 62 8 L 61 10 L 56 12 L 56 10 L 59 7 Z M 99 5 L 96 8 L 91 7 L 92 7 L 94 5 L 96 4 Z" fill="currentColor" fill-rule="evenodd"/>
</svg>
