<svg xmlns="http://www.w3.org/2000/svg" width="140" height="142" viewBox="0 0 140 142" role="img" aria-hidden="true">
  <path d="M 60 0 L 41 5 L 32 10 L 25 15 L 12 29 L 6 39 L 0 59 L 0 83 L 3 93 L 9 106 L 16 116 L 25 125 L 33 131 L 45 137 L 63 141 L 75 141 L 86 139 L 100 134 L 112 126 L 125 113 L 129 107 L 137 89 L 139 81 L 139 59 L 135 44 L 131 36 L 125 27 L 112 14 L 99 6 L 87 2 L 77 0 Z M 113 113 L 114 115 L 105 123 L 98 127 L 94 128 L 92 130 L 89 129 L 89 127 L 92 124 L 96 116 L 98 109 L 102 108 Z M 25 114 L 31 110 L 39 108 L 41 110 L 50 128 L 44 129 L 36 125 L 26 117 Z M 91 105 L 93 107 L 90 114 L 88 116 L 87 120 L 82 127 L 74 134 L 72 124 L 73 111 L 72 106 L 74 103 Z M 47 105 L 65 103 L 67 105 L 67 131 L 65 133 L 61 132 L 54 124 L 46 108 Z M 105 73 L 131 73 L 133 76 L 131 86 L 127 97 L 121 107 L 118 109 L 116 107 L 103 103 L 101 101 L 103 93 Z M 73 73 L 85 74 L 86 73 L 96 73 L 98 75 L 98 85 L 96 92 L 96 97 L 94 99 L 77 98 L 72 96 Z M 42 73 L 65 73 L 67 75 L 67 94 L 64 97 L 50 99 L 44 98 L 41 84 Z M 7 73 L 25 74 L 33 73 L 35 75 L 36 92 L 38 99 L 34 103 L 28 105 L 20 110 L 15 104 L 11 96 L 6 78 Z M 45 42 L 65 44 L 67 46 L 67 65 L 65 67 L 49 68 L 41 66 L 41 54 L 43 49 L 43 44 Z M 94 41 L 96 43 L 97 48 L 98 65 L 96 67 L 72 66 L 73 51 L 72 50 L 73 44 L 81 44 Z M 101 40 L 103 38 L 116 32 L 120 32 L 124 37 L 129 47 L 132 57 L 133 65 L 131 67 L 106 68 L 104 66 L 104 54 Z M 19 31 L 21 31 L 27 35 L 35 38 L 38 41 L 36 48 L 35 65 L 33 67 L 6 66 L 7 56 L 9 49 L 16 34 Z M 89 10 L 100 14 L 109 20 L 114 26 L 112 28 L 102 33 L 100 33 L 98 31 L 95 22 L 88 12 Z M 50 12 L 48 14 L 42 26 L 41 31 L 39 33 L 28 29 L 25 26 L 25 24 L 36 15 L 47 10 Z M 73 9 L 76 8 L 80 11 L 86 18 L 92 31 L 92 34 L 90 36 L 85 36 L 79 38 L 74 38 L 72 36 L 72 30 L 73 29 L 72 11 Z M 65 7 L 67 9 L 66 29 L 67 35 L 64 38 L 48 36 L 47 32 L 48 27 L 51 21 L 57 12 Z" fill="currentColor" fill-rule="evenodd"/>
</svg>
