<svg xmlns="http://www.w3.org/2000/svg" width="283" height="100" viewBox="0 0 283 100" role="img" aria-hidden="true">
  <path d="M 0 74 L 0 84 L 3 91 L 9 97 L 13 99 L 21 99 L 25 97 L 29 93 L 29 87 L 22 87 L 24 93 L 20 97 L 14 97 L 5 89 L 3 85 L 4 80 L 7 80 L 23 72 L 40 72 L 44 73 L 60 80 L 68 86 L 85 93 L 101 96 L 113 95 L 120 92 L 124 89 L 126 89 L 134 94 L 141 96 L 149 96 L 160 94 L 178 88 L 197 76 L 209 72 L 215 72 L 216 71 L 226 72 L 232 74 L 243 80 L 246 80 L 247 84 L 246 88 L 239 95 L 235 97 L 227 95 L 226 91 L 228 89 L 227 86 L 221 87 L 221 92 L 222 94 L 228 99 L 237 99 L 241 97 L 248 90 L 251 82 L 272 82 L 277 86 L 279 85 L 282 81 L 282 78 L 278 75 L 275 75 L 268 81 L 257 81 L 253 80 L 251 78 L 250 71 L 241 61 L 234 58 L 221 57 L 209 59 L 207 61 L 194 66 L 168 85 L 156 91 L 148 93 L 141 93 L 132 90 L 129 87 L 129 85 L 134 80 L 147 78 L 156 73 L 161 68 L 167 58 L 170 49 L 171 42 L 159 42 L 156 44 L 153 44 L 143 50 L 140 53 L 136 61 L 133 77 L 128 82 L 126 80 L 126 64 L 136 51 L 140 43 L 142 34 L 142 27 L 140 20 L 128 1 L 123 0 L 115 11 L 111 19 L 109 27 L 109 38 L 113 49 L 124 64 L 124 80 L 121 82 L 118 79 L 116 74 L 116 66 L 114 60 L 107 50 L 100 45 L 85 41 L 80 42 L 80 46 L 85 62 L 89 68 L 95 74 L 105 79 L 114 79 L 116 80 L 122 86 L 119 89 L 109 93 L 101 93 L 91 90 L 80 84 L 63 71 L 48 62 L 40 59 L 28 57 L 16 58 L 9 61 L 4 65 Z M 248 74 L 248 76 L 246 78 L 243 76 L 239 76 L 234 72 L 229 70 L 210 68 L 205 69 L 200 73 L 184 80 L 180 84 L 177 83 L 182 78 L 197 68 L 208 63 L 219 60 L 230 60 L 234 61 L 240 64 L 246 70 Z M 3 74 L 5 69 L 11 63 L 19 60 L 31 60 L 39 62 L 46 65 L 50 68 L 56 70 L 73 83 L 70 84 L 61 79 L 57 75 L 54 75 L 48 72 L 48 69 L 26 69 L 23 71 L 17 72 L 8 77 L 3 77 Z M 167 46 L 166 53 L 160 65 L 151 73 L 141 77 L 140 74 L 155 57 L 152 56 L 139 70 L 138 64 L 144 53 L 149 49 L 160 45 Z M 85 45 L 96 47 L 103 51 L 109 57 L 113 65 L 114 70 L 112 72 L 99 57 L 96 56 L 96 59 L 111 75 L 109 77 L 100 74 L 90 65 L 84 51 Z M 125 4 L 130 9 L 136 18 L 139 26 L 139 38 L 134 48 L 132 50 L 127 46 L 127 43 L 126 42 L 127 29 L 126 26 L 124 26 L 124 49 L 120 54 L 112 40 L 112 25 L 117 13 L 122 6 Z" fill="currentColor" fill-rule="evenodd"/>
</svg>
