<svg xmlns="http://www.w3.org/2000/svg" width="168" height="210" viewBox="0 0 168 210" role="img" aria-hidden="true">
  <path d="M 161 193 L 157 188 L 142 182 L 134 182 L 128 180 L 118 180 L 116 181 L 117 184 L 132 185 L 149 189 L 156 194 L 149 199 L 142 201 L 130 202 L 125 204 L 103 205 L 70 204 L 53 201 L 48 199 L 45 196 L 43 196 L 42 192 L 44 192 L 50 188 L 62 186 L 64 183 L 55 182 L 45 185 L 39 188 L 36 192 L 36 195 L 41 201 L 50 205 L 65 208 L 75 209 L 120 209 L 127 207 L 135 207 L 150 203 L 156 200 L 160 196 Z M 87 0 L 71 5 L 56 14 L 44 26 L 37 39 L 33 50 L 31 60 L 31 77 L 33 91 L 38 106 L 38 111 L 35 109 L 32 117 L 32 129 L 30 131 L 26 126 L 22 114 L 22 103 L 24 100 L 25 89 L 23 80 L 16 66 L 13 66 L 10 77 L 10 91 L 12 99 L 18 108 L 21 120 L 19 122 L 11 115 L 10 109 L 6 106 L 1 107 L 0 113 L 2 116 L 4 117 L 9 117 L 14 120 L 22 128 L 33 145 L 31 146 L 26 141 L 18 137 L 4 135 L 4 138 L 11 148 L 19 154 L 28 156 L 37 156 L 45 160 L 54 168 L 50 169 L 45 167 L 34 167 L 29 169 L 30 172 L 43 178 L 53 178 L 58 176 L 66 176 L 78 182 L 84 184 L 89 184 L 94 190 L 99 193 L 121 167 L 126 159 L 133 151 L 147 128 L 150 125 L 163 96 L 166 84 L 167 69 L 166 57 L 162 43 L 159 36 L 148 20 L 132 8 L 126 5 L 121 4 L 116 1 L 110 0 Z M 37 172 L 38 170 L 46 170 L 48 172 L 45 175 L 43 175 Z M 11 139 L 14 139 L 20 142 L 20 147 L 28 151 L 25 153 L 16 148 L 11 143 L 10 141 Z M 31 131 L 33 134 L 30 134 Z M 36 119 L 39 120 L 40 122 L 39 130 L 37 130 L 35 128 Z M 42 116 L 45 119 L 50 130 L 65 151 L 65 153 L 77 167 L 85 178 L 83 180 L 76 178 L 71 174 L 69 174 L 59 168 L 54 164 L 44 153 L 44 151 L 42 149 L 41 142 L 44 133 L 44 127 L 41 119 Z M 16 74 L 20 80 L 21 87 L 22 88 L 22 90 L 20 93 L 16 96 L 13 92 L 13 78 Z M 87 5 L 108 5 L 123 9 L 134 15 L 147 27 L 153 35 L 158 46 L 159 53 L 162 60 L 162 79 L 159 93 L 154 107 L 150 113 L 148 119 L 142 127 L 141 131 L 138 136 L 134 140 L 130 147 L 126 151 L 125 154 L 117 163 L 112 171 L 99 186 L 83 169 L 75 157 L 65 145 L 53 126 L 42 104 L 36 81 L 36 59 L 41 41 L 46 32 L 60 17 L 74 9 Z M 95 40 L 88 41 L 80 45 L 76 49 L 68 61 L 66 68 L 66 76 L 68 86 L 73 94 L 73 97 L 76 100 L 80 101 L 84 104 L 91 107 L 101 108 L 114 104 L 125 94 L 129 87 L 131 80 L 131 68 L 128 59 L 124 53 L 124 51 L 120 47 L 109 42 Z M 101 45 L 102 46 L 110 47 L 121 57 L 125 63 L 127 74 L 126 80 L 121 91 L 114 98 L 105 102 L 98 103 L 92 102 L 85 99 L 82 95 L 80 95 L 76 91 L 72 82 L 71 71 L 73 62 L 76 56 L 81 51 L 88 47 Z" fill="currentColor" fill-rule="evenodd"/>
</svg>
