<svg xmlns="http://www.w3.org/2000/svg" width="208" height="263" viewBox="0 0 208 263" role="img" aria-hidden="true">
  <path d="M 143 244 L 136 245 L 136 251 L 141 254 L 143 257 L 139 260 L 137 258 L 135 258 L 137 261 L 141 262 L 146 257 L 146 255 L 142 252 L 139 248 Z M 121 244 L 122 261 L 130 260 L 124 259 L 125 253 L 128 251 L 124 249 L 128 246 L 129 244 Z M 103 244 L 103 258 L 104 260 L 109 262 L 111 261 L 115 256 L 113 244 L 113 257 L 110 260 L 108 260 L 105 257 Z M 89 244 L 90 261 L 98 260 L 94 260 L 92 258 L 91 244 Z M 79 245 L 76 245 L 71 258 L 71 261 L 73 258 L 79 257 L 84 259 Z M 76 251 L 79 253 L 77 255 L 75 253 Z M 67 244 L 64 253 L 62 255 L 57 244 L 55 244 L 61 261 L 63 260 L 68 246 Z M 58 55 L 50 59 L 41 68 L 36 78 L 34 85 L 34 102 L 37 112 L 42 121 L 52 134 L 72 153 L 78 157 L 101 177 L 117 157 L 150 124 L 159 112 L 165 97 L 166 88 L 164 76 L 159 67 L 151 59 L 140 54 L 123 54 L 119 55 L 108 62 L 103 69 L 100 71 L 90 60 L 81 55 L 77 54 L 62 54 Z M 141 58 L 150 63 L 157 70 L 162 82 L 162 94 L 159 104 L 149 120 L 119 150 L 108 162 L 103 170 L 100 172 L 93 165 L 87 161 L 63 140 L 44 118 L 40 110 L 37 99 L 37 87 L 39 79 L 44 70 L 52 62 L 65 57 L 74 57 L 85 61 L 96 71 L 100 78 L 102 77 L 106 70 L 115 61 L 119 59 L 126 57 Z M 117 1 L 110 0 L 91 0 L 74 3 L 58 9 L 56 11 L 54 11 L 39 21 L 24 36 L 18 44 L 8 64 L 3 79 L 1 89 L 0 101 L 1 126 L 4 141 L 8 153 L 11 157 L 12 161 L 17 170 L 26 183 L 43 199 L 62 210 L 78 215 L 97 215 L 108 212 L 123 203 L 133 195 L 149 195 L 152 196 L 157 203 L 162 202 L 164 200 L 164 196 L 161 193 L 157 193 L 153 195 L 144 193 L 139 194 L 139 190 L 146 185 L 158 180 L 177 181 L 184 179 L 189 176 L 198 168 L 200 164 L 198 163 L 183 163 L 178 164 L 166 171 L 161 177 L 156 179 L 155 176 L 170 161 L 174 155 L 181 149 L 193 144 L 198 144 L 201 147 L 203 147 L 207 143 L 207 139 L 205 137 L 198 138 L 195 142 L 191 142 L 183 146 L 182 143 L 188 132 L 194 127 L 201 115 L 203 106 L 203 97 L 201 87 L 197 88 L 189 99 L 186 105 L 184 112 L 185 131 L 174 152 L 170 155 L 163 163 L 162 161 L 165 157 L 167 152 L 170 150 L 169 146 L 170 133 L 167 123 L 164 121 L 159 130 L 156 139 L 156 152 L 158 158 L 158 164 L 155 172 L 145 182 L 131 193 L 130 189 L 135 181 L 137 169 L 140 166 L 141 163 L 138 159 L 133 159 L 131 161 L 131 166 L 135 170 L 132 183 L 126 192 L 127 195 L 123 199 L 106 210 L 93 213 L 87 213 L 75 211 L 63 207 L 52 201 L 41 193 L 29 181 L 19 167 L 10 148 L 5 129 L 4 122 L 4 93 L 6 82 L 12 63 L 18 51 L 26 39 L 34 30 L 45 21 L 62 11 L 76 6 L 95 3 L 106 3 L 128 7 L 143 13 L 160 24 L 173 37 L 184 53 L 188 61 L 191 72 L 195 75 L 194 67 L 184 46 L 175 34 L 165 24 L 150 13 L 138 7 Z M 160 195 L 162 198 L 158 201 L 156 199 L 157 195 Z M 195 167 L 189 173 L 183 177 L 177 179 L 168 177 L 170 175 L 179 173 L 181 171 L 177 171 L 170 174 L 170 170 L 176 167 L 183 165 Z M 134 161 L 136 161 L 138 164 L 135 166 L 133 164 Z M 201 139 L 203 139 L 205 142 L 202 145 L 200 143 Z M 166 129 L 168 134 L 169 143 L 167 145 L 166 151 L 164 153 L 163 150 L 165 145 L 164 142 L 165 141 L 163 138 L 162 149 L 159 154 L 158 140 L 162 129 Z M 200 94 L 200 110 L 198 116 L 192 125 L 191 121 L 196 105 L 194 105 L 190 120 L 187 124 L 186 112 L 188 107 L 195 95 L 197 93 Z" fill="currentColor" fill-rule="evenodd"/>
</svg>
