<svg xmlns="http://www.w3.org/2000/svg" width="199" height="129" viewBox="0 0 199 129" role="img" aria-hidden="true">
  <path d="M 174 113 L 171 117 L 171 123 L 175 127 L 178 128 L 184 124 L 185 122 L 185 117 L 184 115 L 181 113 Z M 176 121 L 177 117 L 179 117 L 181 119 Z M 142 113 L 139 117 L 139 122 L 143 127 L 148 127 L 152 124 L 154 119 L 152 115 L 149 113 Z M 144 121 L 145 117 L 147 117 L 149 119 Z M 109 114 L 107 119 L 109 125 L 111 127 L 117 127 L 122 121 L 121 116 L 118 113 L 111 113 Z M 116 117 L 118 119 L 114 123 L 112 121 L 113 117 Z M 79 113 L 76 116 L 76 123 L 77 125 L 80 127 L 85 127 L 90 122 L 90 117 L 85 113 Z M 84 117 L 86 119 L 82 123 L 80 121 L 81 117 Z M 47 113 L 44 116 L 44 123 L 47 127 L 53 127 L 57 123 L 58 117 L 53 113 Z M 48 120 L 49 117 L 52 117 L 54 119 L 50 122 Z M 14 113 L 11 117 L 11 123 L 12 125 L 15 127 L 20 127 L 25 122 L 25 117 L 21 113 Z M 15 120 L 16 117 L 19 117 L 21 119 L 17 122 Z M 0 81 L 1 86 L 13 86 L 16 89 L 16 94 L 13 97 L 2 97 L 0 98 L 1 103 L 3 104 L 16 103 L 22 96 L 22 87 L 24 85 L 14 80 L 2 80 Z M 26 86 L 26 95 L 27 98 L 30 102 L 35 104 L 66 104 L 69 103 L 73 100 L 75 96 L 76 88 L 80 89 L 80 98 L 81 100 L 85 103 L 88 104 L 119 104 L 123 103 L 130 95 L 131 85 L 132 96 L 138 103 L 141 104 L 174 103 L 181 96 L 182 87 L 183 96 L 188 102 L 194 104 L 198 100 L 190 95 L 191 87 L 195 86 L 197 84 L 196 81 L 194 80 L 188 81 L 185 84 L 178 83 L 176 81 L 172 80 L 157 79 L 149 80 L 146 79 L 136 81 L 132 85 L 129 86 L 125 82 L 119 79 L 101 80 L 95 79 L 83 81 L 79 86 L 77 84 L 75 85 L 72 82 L 67 80 L 45 79 L 33 80 L 29 82 Z M 139 88 L 141 86 L 172 86 L 174 88 L 174 93 L 170 98 L 143 98 L 139 95 Z M 85 88 L 87 86 L 120 86 L 123 89 L 123 93 L 119 97 L 88 97 L 85 94 Z M 32 88 L 34 86 L 68 87 L 67 90 L 69 92 L 68 95 L 65 98 L 34 97 L 32 95 Z M 161 58 L 161 67 L 162 69 L 168 74 L 192 74 L 197 69 L 197 57 L 194 53 L 191 52 L 170 51 L 166 52 Z M 167 66 L 168 59 L 170 58 L 190 58 L 192 60 L 192 65 L 187 68 L 169 68 Z M 156 58 L 153 54 L 146 51 L 115 52 L 112 53 L 109 56 L 109 58 L 107 60 L 107 66 L 110 70 L 115 74 L 149 74 L 154 70 L 156 66 Z M 114 60 L 116 58 L 148 58 L 150 60 L 150 64 L 147 68 L 118 68 L 114 64 Z M 52 57 L 52 68 L 53 70 L 58 74 L 88 75 L 96 74 L 98 73 L 105 65 L 105 60 L 103 57 L 96 52 L 65 51 L 58 52 L 54 54 Z M 57 60 L 59 58 L 94 58 L 96 59 L 97 65 L 94 68 L 60 68 L 57 64 Z M 1 54 L 0 69 L 2 72 L 6 74 L 39 74 L 41 73 L 46 67 L 47 60 L 45 56 L 43 54 L 36 51 L 5 52 Z M 5 60 L 7 58 L 37 58 L 41 61 L 41 65 L 38 68 L 24 67 L 7 68 L 5 66 Z M 0 39 L 1 45 L 3 46 L 152 46 L 194 45 L 197 42 L 196 39 L 194 38 L 178 39 L 135 39 L 134 38 L 127 39 L 68 39 L 43 37 L 41 39 L 2 38 Z M 0 14 L 2 16 L 4 16 L 24 8 L 40 8 L 63 17 L 79 17 L 86 15 L 99 9 L 114 7 L 123 9 L 141 17 L 157 17 L 165 15 L 178 9 L 187 9 L 194 12 L 197 9 L 197 6 L 195 4 L 189 2 L 177 2 L 155 10 L 144 10 L 137 8 L 125 2 L 116 0 L 105 0 L 94 3 L 81 9 L 77 10 L 66 10 L 56 7 L 46 2 L 36 0 L 21 1 L 15 3 L 0 10 Z" fill="currentColor" fill-rule="evenodd"/>
</svg>
