<svg xmlns="http://www.w3.org/2000/svg" width="87" height="116" viewBox="0 0 87 116" role="img" aria-hidden="true">
  <path d="M 56 115 L 65 115 L 66 112 L 78 115 L 69 108 L 63 109 Z M 29 28 L 28 30 L 29 35 L 32 37 L 34 37 L 38 33 L 38 30 L 34 27 Z M 30 31 L 34 31 L 32 33 Z M 47 7 L 48 10 L 68 10 L 69 6 Z M 47 2 L 32 0 L 23 1 L 7 0 L 6 1 L 0 1 L 1 66 L 4 63 L 7 37 L 9 37 L 11 39 L 11 42 L 17 51 L 23 57 L 25 55 L 27 44 L 27 38 L 22 21 L 32 24 L 43 24 L 53 22 L 54 18 L 41 10 L 38 7 L 39 4 L 45 4 Z M 20 31 L 22 33 L 23 37 L 23 47 L 21 49 L 14 41 L 17 39 L 18 42 L 19 39 L 18 38 Z M 17 13 L 21 12 L 23 14 L 21 16 L 19 15 Z M 30 12 L 32 10 L 37 11 L 48 18 L 46 20 L 40 20 L 38 18 L 38 16 L 32 14 Z M 5 9 L 7 9 L 15 17 L 16 20 L 15 30 L 11 33 L 7 29 L 4 24 Z M 11 8 L 11 5 L 13 4 L 18 4 L 21 6 L 17 9 Z" fill="currentColor" fill-rule="evenodd"/>
</svg>
