<svg xmlns="http://www.w3.org/2000/svg" width="125" height="186" viewBox="0 0 125 186" role="img" aria-hidden="true">
  <path d="M 64 0 L 58 1 L 23 59 L 11 82 L 2 106 L 0 117 L 0 125 L 3 142 L 8 153 L 14 162 L 28 175 L 38 180 L 47 183 L 58 184 L 59 185 L 72 184 L 86 180 L 102 170 L 110 162 L 116 153 L 122 139 L 124 131 L 123 109 L 117 91 L 106 68 L 72 11 Z M 61 12 L 63 12 L 69 20 L 73 28 L 84 44 L 91 58 L 102 76 L 112 98 L 116 113 L 116 131 L 113 142 L 107 153 L 101 158 L 100 161 L 96 165 L 89 170 L 83 173 L 68 177 L 49 176 L 43 174 L 29 166 L 19 156 L 15 150 L 11 142 L 8 131 L 8 114 L 10 105 L 15 91 L 36 51 L 55 20 Z M 18 118 L 18 128 L 20 136 L 26 148 L 39 160 L 47 164 L 51 165 L 55 162 L 55 160 L 53 158 L 50 158 L 44 154 L 40 153 L 31 144 L 25 131 L 25 119 L 23 117 Z" fill="currentColor" fill-rule="evenodd"/>
</svg>
