<svg xmlns="http://www.w3.org/2000/svg" width="1036" height="144" viewBox="0 0 1036 144" role="img" aria-hidden="true">
  <path d="M 948 115 L 946 116 L 945 124 L 948 127 L 951 128 L 956 124 L 957 119 L 956 117 L 953 115 Z M 949 119 L 953 121 L 950 124 L 948 122 Z M 82 115 L 79 117 L 78 123 L 81 127 L 85 128 L 90 124 L 90 118 L 86 115 Z M 82 122 L 83 119 L 86 121 Z M 0 102 L 0 110 L 2 117 L 5 122 L 11 127 L 19 130 L 30 130 L 40 127 L 53 120 L 62 113 L 72 108 L 85 105 L 105 108 L 109 110 L 136 114 L 171 117 L 394 118 L 389 122 L 386 123 L 382 127 L 377 126 L 372 129 L 371 135 L 375 140 L 381 140 L 385 136 L 387 128 L 397 122 L 405 119 L 424 116 L 443 116 L 453 118 L 451 120 L 443 123 L 435 130 L 431 137 L 432 142 L 435 143 L 444 143 L 456 138 L 467 128 L 471 122 L 475 121 L 483 122 L 499 128 L 512 136 L 516 140 L 518 140 L 528 132 L 543 125 L 557 121 L 566 121 L 569 122 L 574 127 L 578 133 L 586 139 L 597 143 L 605 143 L 609 142 L 611 140 L 611 138 L 603 127 L 598 123 L 591 120 L 590 118 L 592 116 L 620 116 L 634 119 L 648 126 L 653 131 L 653 135 L 657 140 L 662 140 L 664 139 L 667 135 L 666 129 L 661 126 L 656 127 L 644 119 L 644 116 L 773 117 L 871 116 L 920 111 L 938 106 L 956 106 L 972 113 L 984 122 L 997 128 L 1000 128 L 1003 130 L 1014 130 L 1026 125 L 1030 121 L 1035 110 L 1035 103 L 1032 96 L 1028 91 L 1020 87 L 1012 87 L 1009 88 L 1005 92 L 1005 101 L 1008 104 L 1012 105 L 1015 102 L 1014 98 L 1011 98 L 1009 95 L 1013 92 L 1019 92 L 1023 94 L 1027 98 L 1030 105 L 1030 109 L 1028 115 L 1023 120 L 1012 125 L 1006 125 L 998 123 L 990 119 L 970 106 L 957 101 L 938 101 L 912 107 L 865 111 L 663 110 L 663 108 L 668 102 L 669 98 L 665 95 L 658 95 L 652 97 L 640 109 L 636 111 L 597 109 L 602 105 L 607 99 L 611 91 L 610 87 L 596 87 L 586 91 L 575 101 L 571 108 L 565 114 L 545 120 L 542 119 L 542 117 L 548 108 L 550 99 L 547 90 L 542 85 L 539 84 L 533 84 L 526 88 L 517 102 L 511 90 L 506 86 L 497 84 L 490 87 L 486 95 L 486 101 L 488 109 L 492 116 L 491 119 L 484 118 L 475 114 L 471 110 L 467 102 L 456 92 L 444 87 L 431 87 L 431 93 L 434 99 L 437 103 L 445 110 L 443 112 L 404 112 L 398 110 L 387 98 L 379 95 L 370 96 L 371 104 L 373 107 L 377 110 L 375 112 L 370 112 L 369 111 L 181 112 L 129 108 L 96 101 L 77 101 L 64 106 L 51 115 L 36 123 L 28 125 L 22 125 L 15 123 L 8 117 L 5 109 L 5 104 L 8 97 L 12 93 L 21 92 L 25 95 L 21 98 L 21 104 L 24 105 L 26 104 L 30 99 L 30 94 L 29 92 L 23 87 L 13 87 L 5 92 Z M 661 130 L 663 133 L 659 136 L 657 134 L 658 130 Z M 377 130 L 379 130 L 382 133 L 379 136 L 377 136 L 375 134 L 375 132 Z M 583 131 L 587 129 L 587 124 L 590 124 L 597 127 L 603 133 L 603 136 L 601 138 L 596 138 L 586 134 Z M 458 124 L 455 127 L 453 127 L 453 130 L 455 130 L 457 128 L 460 129 L 455 134 L 445 138 L 437 137 L 438 133 L 444 127 L 455 123 Z M 453 109 L 454 107 L 459 109 L 457 111 Z M 663 100 L 663 102 L 657 107 L 655 105 L 651 104 L 656 100 L 659 99 Z M 375 102 L 377 99 L 381 100 L 387 104 L 385 106 L 379 106 Z M 605 92 L 605 94 L 601 100 L 593 107 L 581 111 L 580 109 L 585 106 L 589 102 L 585 102 L 578 104 L 579 102 L 586 96 L 598 91 Z M 436 93 L 437 91 L 449 93 L 456 97 L 461 102 L 459 104 L 453 102 L 453 104 L 450 107 L 448 107 L 441 101 Z M 538 89 L 540 90 L 544 95 L 543 107 L 535 119 L 528 126 L 521 131 L 520 114 L 524 99 L 532 90 Z M 497 89 L 503 90 L 509 96 L 513 105 L 515 113 L 515 129 L 513 131 L 497 116 L 492 107 L 491 103 L 492 93 Z M 872 0 L 874 2 L 875 8 L 880 12 L 885 11 L 889 7 L 888 0 Z M 880 0 L 882 0 L 885 4 L 882 7 L 880 7 L 878 5 L 878 2 Z M 791 0 L 794 9 L 796 12 L 803 18 L 811 21 L 825 21 L 826 15 L 824 11 L 814 0 Z M 798 4 L 810 12 L 814 11 L 805 4 L 806 1 L 812 4 L 819 11 L 820 15 L 818 17 L 807 15 L 803 13 L 798 8 Z M 753 0 L 757 5 L 759 6 L 762 5 L 766 0 Z M 373 0 L 397 3 L 433 1 L 444 2 L 440 5 L 434 5 L 430 10 L 430 15 L 433 18 L 438 18 L 440 17 L 444 11 L 444 8 L 447 5 L 454 1 L 458 0 L 477 1 L 491 4 L 502 9 L 506 12 L 516 23 L 526 12 L 539 5 L 555 1 L 562 0 L 576 0 L 580 1 L 589 6 L 592 14 L 596 18 L 601 18 L 604 15 L 605 11 L 600 5 L 594 5 L 593 1 L 635 3 L 660 0 L 534 0 L 525 6 L 516 14 L 513 10 L 499 0 Z M 601 11 L 597 14 L 595 11 L 599 10 Z M 438 11 L 435 14 L 434 11 Z M 269 3 L 274 6 L 277 5 L 282 0 L 274 1 L 269 0 Z M 243 0 L 220 0 L 217 2 L 211 9 L 208 15 L 209 21 L 221 21 L 230 18 L 238 11 L 242 4 Z M 237 6 L 230 13 L 226 15 L 219 17 L 215 17 L 213 14 L 216 9 L 220 5 L 230 0 L 233 1 L 221 9 L 221 12 L 227 10 L 234 5 Z M 143 3 L 144 8 L 147 11 L 151 12 L 158 7 L 159 5 L 159 0 L 144 0 Z M 147 5 L 148 1 L 153 1 L 155 4 L 152 7 L 149 7 Z" fill="currentColor" fill-rule="evenodd"/>
</svg>
