<svg xmlns="http://www.w3.org/2000/svg" width="118" height="155" viewBox="0 0 118 155" role="img" aria-hidden="true">
  <path d="M 4 23 L 2 26 L 0 33 L 1 116 L 0 140 L 2 146 L 8 152 L 13 154 L 103 154 L 111 150 L 115 145 L 117 139 L 117 31 L 114 25 L 110 21 L 104 19 L 90 19 L 86 15 L 73 15 L 71 13 L 70 6 L 66 2 L 62 0 L 55 0 L 49 3 L 46 7 L 45 12 L 42 15 L 30 15 L 26 19 L 11 19 Z M 11 27 L 13 26 L 26 26 L 28 28 L 28 36 L 29 38 L 34 41 L 84 41 L 88 38 L 89 35 L 89 31 L 88 30 L 89 26 L 103 26 L 109 31 L 110 35 L 110 138 L 109 141 L 104 146 L 100 147 L 15 147 L 9 143 L 8 141 L 8 31 Z M 53 121 L 53 124 L 55 126 L 94 126 L 96 124 L 95 120 Z M 40 115 L 37 115 L 32 119 L 27 125 L 23 121 L 19 121 L 19 124 L 26 132 L 28 132 L 36 125 L 42 117 Z M 53 93 L 53 95 L 55 97 L 60 98 L 93 98 L 95 97 L 97 94 L 94 91 L 55 91 Z M 42 89 L 40 87 L 36 87 L 27 96 L 23 92 L 19 92 L 19 96 L 27 104 L 29 103 Z M 54 63 L 54 67 L 56 69 L 93 69 L 96 66 L 95 63 Z M 42 60 L 40 58 L 37 58 L 27 68 L 23 64 L 19 65 L 19 68 L 26 75 L 29 75 L 36 67 L 41 63 Z M 36 22 L 49 22 L 52 19 L 52 11 L 53 9 L 56 7 L 59 7 L 64 10 L 65 12 L 65 19 L 68 22 L 80 22 L 82 24 L 82 31 L 79 34 L 70 34 L 69 33 L 39 34 L 35 32 Z" fill="currentColor" fill-rule="evenodd"/>
</svg>
