<svg xmlns="http://www.w3.org/2000/svg" width="203" height="190" viewBox="0 0 203 190" role="img" aria-hidden="true">
  <path d="M 70 79 L 68 79 L 54 87 L 43 98 L 38 114 L 37 126 L 35 129 L 33 140 L 31 142 L 26 133 L 26 123 L 21 108 L 12 98 L 7 94 L 3 93 L 3 111 L 6 119 L 15 129 L 21 132 L 25 136 L 31 152 L 30 156 L 26 150 L 17 142 L 7 140 L 0 140 L 0 142 L 4 149 L 11 156 L 22 160 L 28 160 L 35 166 L 39 175 L 48 188 L 50 185 L 46 180 L 43 174 L 42 169 L 43 155 L 46 149 L 49 148 L 51 149 L 55 147 L 57 145 L 58 141 L 54 136 L 48 136 L 45 139 L 45 146 L 42 149 L 40 158 L 38 160 L 36 153 L 36 139 L 40 125 L 43 122 L 47 121 L 55 116 L 63 107 L 66 102 L 71 85 Z M 6 143 L 10 143 L 14 147 L 11 147 L 13 150 L 20 153 L 20 156 L 17 156 L 12 153 L 6 147 L 5 145 Z M 8 99 L 16 107 L 13 108 L 10 106 L 11 112 L 17 123 L 15 125 L 11 121 L 7 113 L 6 107 Z M 59 91 L 55 96 L 48 99 L 48 97 L 54 91 Z M 67 86 L 62 104 L 59 107 L 54 107 L 52 104 L 62 91 L 60 88 L 63 85 Z M 41 18 L 28 34 L 22 47 L 19 58 L 19 82 L 22 94 L 29 109 L 32 109 L 32 105 L 35 100 L 32 96 L 28 83 L 27 70 L 28 59 L 34 41 L 40 32 L 49 23 L 56 18 L 72 11 L 85 9 L 95 9 L 112 13 L 126 21 L 139 34 L 143 40 L 149 54 L 151 64 L 151 79 L 149 89 L 142 104 L 126 121 L 114 128 L 102 132 L 83 133 L 73 131 L 66 128 L 61 129 L 55 128 L 52 129 L 54 132 L 61 136 L 63 136 L 65 138 L 82 142 L 96 142 L 113 138 L 125 132 L 130 128 L 135 127 L 142 135 L 141 140 L 142 142 L 153 152 L 180 181 L 189 189 L 194 189 L 196 188 L 202 181 L 201 175 L 153 127 L 148 128 L 141 121 L 141 119 L 149 109 L 157 93 L 160 81 L 160 61 L 158 52 L 153 39 L 145 27 L 133 15 L 122 8 L 106 2 L 91 0 L 76 1 L 59 6 Z" fill="currentColor" fill-rule="evenodd"/>
</svg>
