<svg xmlns="http://www.w3.org/2000/svg" width="150" height="183" viewBox="0 0 150 183" role="img" aria-hidden="true">
  <path d="M 73 0 L 60 8 L 44 16 L 25 23 L 9 27 L 4 27 L 0 30 L 0 83 L 2 98 L 9 121 L 17 136 L 27 150 L 38 161 L 48 169 L 67 180 L 75 182 L 93 174 L 108 163 L 126 144 L 138 124 L 144 108 L 148 89 L 149 77 L 149 31 L 146 28 L 143 27 L 138 27 L 109 18 L 90 9 L 78 1 Z M 73 8 L 77 9 L 84 14 L 104 24 L 121 30 L 141 35 L 140 37 L 142 40 L 141 48 L 142 76 L 140 94 L 135 113 L 128 128 L 120 140 L 105 156 L 87 169 L 79 173 L 74 174 L 63 170 L 47 159 L 35 148 L 26 137 L 21 129 L 19 123 L 17 121 L 14 114 L 10 101 L 7 80 L 7 49 L 8 47 L 7 38 L 11 33 L 26 30 L 48 22 L 64 14 Z M 112 62 L 107 61 L 93 76 L 85 83 L 70 100 L 62 107 L 59 102 L 57 102 L 42 87 L 39 87 L 37 89 L 37 92 L 60 116 L 64 116 L 113 65 Z" fill="currentColor" fill-rule="evenodd"/>
</svg>
