<svg xmlns="http://www.w3.org/2000/svg" width="90" height="117" viewBox="0 0 90 117" role="img" aria-hidden="true">
  <path d="M 48 114 L 48 116 L 53 116 L 52 114 Z M 2 114 L 2 116 L 6 116 L 5 114 Z M 41 111 L 37 111 L 37 114 L 39 116 Z M 17 111 L 13 111 L 15 116 Z M 28 109 L 25 110 L 25 113 L 27 115 L 30 111 Z M 88 69 L 89 1 L 85 0 L 80 4 L 76 4 L 75 5 L 72 5 L 64 2 L 48 2 L 41 6 L 39 4 L 30 5 L 30 8 L 33 10 L 31 12 L 0 12 L 1 16 L 28 16 L 30 18 L 27 21 L 28 25 L 32 26 L 30 29 L 31 34 L 34 34 L 37 30 L 35 25 L 45 24 L 48 25 L 42 29 L 37 35 L 31 48 L 34 50 L 43 48 L 61 38 L 59 40 L 58 48 L 56 50 L 53 47 L 50 47 L 48 49 L 49 55 L 51 56 L 56 52 L 59 53 L 60 61 L 73 46 L 78 43 L 78 39 L 84 36 L 85 72 Z M 70 41 L 70 45 L 63 52 L 64 42 L 65 44 L 67 41 Z M 54 35 L 48 41 L 43 43 L 41 45 L 37 45 L 37 43 L 40 39 L 41 41 L 46 39 L 49 36 Z M 47 33 L 47 35 L 41 40 L 40 38 L 41 36 Z M 44 19 L 45 17 L 48 18 Z M 77 13 L 80 14 L 81 18 L 81 28 L 79 33 L 75 37 L 73 30 L 70 30 L 67 33 L 64 31 L 68 20 L 73 17 Z M 44 14 L 42 17 L 42 19 L 40 21 L 37 21 L 36 22 L 33 21 L 33 19 L 36 16 L 41 13 Z M 43 13 L 44 9 L 48 6 L 61 6 L 76 9 L 65 21 L 59 22 L 52 21 L 52 19 L 54 17 L 59 15 L 60 11 L 48 15 L 46 15 Z" fill="currentColor" fill-rule="evenodd"/>
</svg>
