<svg xmlns="http://www.w3.org/2000/svg" width="153" height="146" viewBox="0 0 153 146" role="img" aria-hidden="true">
  <path d="M 101 39 L 88 33 L 83 32 L 70 32 L 55 37 L 43 47 L 36 59 L 34 67 L 34 83 L 39 96 L 37 107 L 34 114 L 35 119 L 42 118 L 53 114 L 58 114 L 69 119 L 84 119 L 97 114 L 104 109 L 110 103 L 116 94 L 119 87 L 120 82 L 120 69 L 116 56 L 112 50 Z M 105 51 L 112 63 L 114 76 L 113 83 L 108 95 L 98 106 L 91 110 L 81 113 L 68 112 L 60 108 L 52 108 L 45 111 L 42 110 L 43 105 L 46 99 L 46 95 L 43 91 L 40 80 L 41 65 L 46 54 L 56 44 L 64 40 L 72 38 L 80 38 L 95 43 Z M 58 54 L 54 59 L 54 68 L 55 72 L 61 82 L 70 91 L 83 98 L 92 98 L 96 96 L 99 93 L 100 88 L 92 82 L 84 83 L 80 88 L 74 84 L 68 78 L 65 73 L 65 70 L 70 65 L 67 56 L 63 53 Z M 61 62 L 61 64 L 59 66 Z M 46 5 L 30 14 L 17 26 L 9 38 L 3 51 L 0 65 L 0 86 L 5 105 L 17 125 L 27 135 L 38 143 L 42 145 L 69 145 L 58 144 L 40 136 L 34 132 L 19 116 L 11 101 L 7 86 L 7 66 L 9 56 L 16 40 L 21 33 L 33 21 L 42 15 L 53 10 L 66 7 L 85 7 L 98 10 L 117 20 L 130 32 L 141 51 L 145 67 L 145 85 L 143 94 L 135 112 L 130 119 L 117 132 L 110 137 L 93 144 L 83 145 L 109 145 L 118 140 L 132 128 L 141 116 L 148 102 L 152 85 L 152 65 L 150 55 L 146 45 L 140 34 L 134 26 L 126 18 L 115 10 L 105 5 L 97 2 L 87 0 L 65 0 L 54 2 Z" fill="currentColor" fill-rule="evenodd"/>
</svg>
