<svg xmlns="http://www.w3.org/2000/svg" width="195" height="215" viewBox="0 0 195 215" role="img" aria-hidden="true">
  <path d="M 74 118 L 70 118 L 64 120 L 58 125 L 56 132 L 57 140 L 64 151 L 62 167 L 61 168 L 61 174 L 63 176 L 76 176 L 84 174 L 82 149 L 86 145 L 86 142 L 89 138 L 89 132 L 84 123 L 80 120 Z M 68 124 L 76 124 L 78 125 L 83 130 L 84 136 L 82 140 L 77 144 L 76 154 L 78 163 L 78 168 L 75 170 L 72 168 L 68 170 L 66 167 L 68 165 L 68 157 L 70 146 L 63 141 L 62 139 L 62 130 L 63 128 Z M 50 5 L 39 13 L 34 18 L 27 29 L 23 42 L 23 81 L 20 84 L 14 84 L 7 87 L 1 95 L 0 101 L 0 192 L 1 198 L 4 205 L 10 211 L 15 213 L 22 214 L 83 214 L 101 211 L 106 208 L 109 208 L 113 205 L 123 202 L 137 206 L 147 207 L 159 204 L 164 200 L 168 199 L 170 197 L 164 192 L 158 189 L 149 188 L 135 190 L 130 193 L 125 198 L 123 195 L 148 171 L 153 171 L 156 169 L 170 166 L 183 153 L 189 142 L 194 137 L 189 136 L 179 137 L 168 140 L 162 143 L 155 150 L 151 159 L 146 161 L 146 158 L 151 146 L 153 136 L 155 132 L 167 120 L 173 109 L 175 83 L 174 80 L 172 80 L 164 88 L 155 95 L 151 100 L 147 112 L 147 123 L 149 130 L 149 137 L 146 146 L 146 150 L 144 155 L 142 157 L 141 149 L 143 132 L 143 107 L 141 105 L 140 101 L 138 101 L 138 105 L 137 106 L 138 152 L 137 159 L 135 164 L 135 169 L 131 179 L 119 193 L 118 189 L 120 183 L 125 175 L 127 163 L 125 153 L 115 139 L 112 138 L 112 147 L 110 151 L 109 158 L 109 170 L 115 181 L 115 188 L 112 195 L 105 202 L 97 206 L 86 207 L 85 208 L 65 207 L 34 208 L 20 207 L 12 204 L 8 200 L 6 194 L 6 98 L 12 91 L 19 89 L 29 90 L 128 89 L 132 90 L 138 95 L 141 96 L 143 94 L 143 91 L 137 85 L 125 84 L 123 82 L 124 57 L 123 56 L 124 48 L 120 31 L 109 14 L 96 5 L 84 1 L 66 0 L 58 2 L 53 5 Z M 142 194 L 140 196 L 138 197 L 137 195 L 139 193 Z M 136 202 L 136 199 L 147 198 L 151 199 L 151 196 L 148 196 L 145 194 L 147 192 L 152 192 L 158 194 L 161 197 L 159 199 L 151 202 L 138 203 Z M 115 166 L 117 168 L 117 171 L 115 173 Z M 147 165 L 144 168 L 143 165 Z M 116 156 L 116 158 L 114 160 L 113 157 Z M 177 153 L 171 160 L 167 162 L 158 162 L 161 161 L 169 154 L 173 152 Z M 171 146 L 165 153 L 163 154 L 160 153 L 161 149 L 165 146 Z M 185 142 L 180 149 L 177 145 L 174 146 L 170 145 L 175 142 L 180 141 Z M 171 97 L 168 110 L 165 114 L 165 116 L 159 122 L 158 118 L 162 112 L 167 98 Z M 163 92 L 166 94 L 162 99 L 156 112 L 154 119 L 152 121 L 151 113 L 156 99 L 161 95 Z M 51 26 L 64 19 L 76 18 L 82 19 L 89 22 L 102 34 L 106 45 L 107 53 L 106 82 L 104 84 L 84 83 L 48 84 L 40 82 L 40 45 L 44 35 L 47 30 Z M 38 22 L 46 14 L 51 11 L 66 6 L 79 6 L 90 9 L 96 12 L 100 17 L 104 19 L 108 23 L 114 31 L 116 36 L 118 47 L 118 81 L 115 84 L 113 84 L 111 82 L 111 42 L 108 37 L 108 34 L 103 26 L 97 20 L 85 15 L 83 13 L 66 13 L 52 18 L 39 32 L 35 42 L 34 67 L 35 79 L 34 82 L 32 84 L 30 84 L 28 82 L 28 46 L 32 31 L 37 25 Z" fill="currentColor" fill-rule="evenodd"/>
</svg>
