<svg xmlns="http://www.w3.org/2000/svg" width="242" height="358" viewBox="0 0 242 358" role="img" aria-hidden="true">
  <path d="M 58 357 L 69 357 L 78 353 L 89 351 L 111 351 L 117 353 L 127 354 L 134 357 L 144 357 L 138 354 L 117 348 L 86 348 L 73 351 Z M 213 91 L 211 91 L 211 94 L 205 106 L 203 113 L 203 127 L 206 136 L 209 141 L 210 146 L 209 155 L 205 168 L 201 176 L 194 186 L 186 194 L 185 192 L 192 179 L 193 173 L 192 163 L 190 163 L 180 175 L 178 183 L 177 196 L 175 200 L 165 210 L 154 216 L 131 224 L 107 227 L 86 226 L 64 221 L 65 223 L 85 229 L 93 230 L 114 230 L 135 226 L 149 221 L 157 220 L 170 226 L 181 227 L 187 224 L 182 219 L 178 217 L 165 215 L 166 212 L 173 208 L 177 207 L 187 207 L 192 209 L 203 209 L 207 208 L 221 200 L 224 196 L 206 192 L 207 188 L 211 183 L 210 181 L 205 188 L 205 191 L 202 194 L 187 197 L 208 174 L 223 168 L 231 161 L 237 150 L 241 139 L 236 138 L 220 148 L 214 155 L 213 161 L 211 163 L 210 158 L 213 150 L 214 141 L 220 128 L 220 113 Z M 166 222 L 167 219 L 175 219 L 180 222 L 178 224 L 171 224 Z M 212 201 L 209 204 L 207 204 L 203 207 L 197 206 L 196 207 L 193 207 L 192 203 L 201 202 L 207 200 Z M 194 199 L 199 196 L 213 197 L 211 199 Z M 184 177 L 185 180 L 183 186 L 181 188 L 180 183 Z M 235 144 L 234 150 L 228 160 L 220 167 L 216 169 L 215 166 L 227 154 L 231 148 L 229 148 L 221 157 L 217 157 L 219 153 L 227 146 Z M 211 101 L 214 102 L 214 107 L 216 108 L 218 115 L 218 126 L 216 132 L 214 134 L 211 111 L 211 132 L 209 134 L 206 128 L 205 123 L 205 117 L 208 107 Z M 208 72 L 209 76 L 213 79 L 217 74 L 217 72 L 213 68 Z M 166 89 L 164 87 L 160 87 L 150 90 L 127 103 L 124 92 L 118 81 L 117 77 L 114 75 L 110 69 L 104 63 L 101 63 L 89 78 L 81 93 L 79 102 L 76 104 L 67 97 L 51 89 L 43 87 L 37 88 L 36 107 L 38 123 L 42 136 L 40 138 L 20 138 L 7 142 L 7 146 L 15 159 L 29 173 L 36 178 L 46 183 L 55 186 L 52 189 L 48 196 L 47 202 L 49 204 L 60 207 L 77 207 L 90 202 L 103 190 L 111 199 L 123 205 L 136 207 L 153 203 L 156 200 L 156 198 L 154 193 L 149 187 L 150 184 L 155 183 L 163 179 L 173 172 L 187 156 L 193 144 L 191 142 L 183 139 L 161 137 L 165 125 L 167 112 L 167 94 Z M 108 188 L 110 186 L 120 188 L 143 187 L 149 192 L 152 197 L 145 202 L 135 203 L 126 202 L 115 197 L 109 191 Z M 99 187 L 93 195 L 81 202 L 77 203 L 61 203 L 53 201 L 52 196 L 55 191 L 60 187 L 86 188 L 92 186 Z M 188 147 L 180 159 L 168 171 L 162 175 L 152 180 L 141 183 L 134 184 L 117 183 L 118 180 L 125 178 L 142 165 L 148 159 L 158 143 L 162 142 L 176 142 L 185 144 Z M 14 144 L 25 142 L 40 142 L 45 143 L 56 160 L 65 169 L 73 175 L 88 182 L 86 184 L 67 184 L 61 183 L 57 181 L 53 181 L 43 177 L 33 171 L 20 158 L 13 147 Z M 160 92 L 162 94 L 163 98 L 162 117 L 157 136 L 152 146 L 143 158 L 134 167 L 122 175 L 113 179 L 112 175 L 119 167 L 126 153 L 129 144 L 130 138 L 129 109 L 135 103 L 143 98 L 145 98 L 151 94 Z M 42 92 L 45 92 L 57 96 L 69 103 L 76 110 L 75 131 L 79 152 L 84 163 L 94 177 L 88 178 L 79 174 L 73 170 L 58 156 L 54 150 L 46 135 L 43 125 L 41 114 Z M 102 69 L 104 69 L 110 76 L 121 96 L 125 108 L 127 122 L 126 138 L 120 158 L 110 173 L 104 179 L 102 179 L 93 170 L 87 160 L 83 150 L 83 147 L 81 144 L 79 132 L 80 113 L 84 97 L 92 81 L 96 75 Z M 131 60 L 130 65 L 134 68 L 138 64 L 138 62 L 136 60 Z M 69 60 L 68 64 L 69 66 L 72 68 L 76 64 L 76 62 L 74 60 Z M 209 54 L 209 56 L 211 59 L 211 55 Z M 105 40 L 100 41 L 99 43 L 99 46 L 102 49 L 104 49 L 108 44 Z M 197 66 L 192 54 L 180 36 L 163 20 L 154 14 L 135 5 L 119 1 L 95 0 L 76 3 L 64 7 L 49 14 L 35 25 L 25 35 L 17 46 L 7 65 L 3 78 L 0 97 L 0 115 L 1 122 L 3 127 L 5 124 L 4 92 L 5 85 L 10 68 L 17 53 L 21 47 L 26 42 L 26 40 L 38 27 L 59 13 L 71 8 L 90 4 L 112 4 L 125 6 L 140 11 L 161 23 L 176 37 L 177 40 L 180 42 L 187 52 L 196 71 L 198 77 L 198 81 L 200 80 L 200 78 L 199 77 Z" fill="currentColor" fill-rule="evenodd"/>
</svg>
