<svg xmlns="http://www.w3.org/2000/svg" width="146" height="142" viewBox="0 0 146 142" role="img" aria-hidden="true">
  <path d="M 21 12 L 11 22 L 7 28 L 2 40 L 0 50 L 0 64 L 2 75 L 8 88 L 13 95 L 21 103 L 30 109 L 36 112 L 47 115 L 66 115 L 74 113 L 87 107 L 95 100 L 97 100 L 100 103 L 100 111 L 125 136 L 132 141 L 137 141 L 139 140 L 144 135 L 145 132 L 145 128 L 143 124 L 115 97 L 113 96 L 107 97 L 103 93 L 103 91 L 110 79 L 114 65 L 114 50 L 110 36 L 102 22 L 87 8 L 79 4 L 60 0 L 50 0 L 37 3 L 30 6 Z M 109 103 L 114 104 L 140 131 L 136 135 L 132 134 L 106 109 L 106 106 Z M 47 9 L 66 9 L 73 12 L 76 12 L 85 17 L 99 32 L 104 42 L 106 51 L 106 63 L 105 68 L 101 79 L 94 89 L 83 99 L 81 99 L 74 104 L 63 107 L 52 107 L 42 105 L 33 101 L 27 97 L 15 84 L 11 76 L 8 64 L 9 45 L 17 28 L 24 20 L 31 15 L 37 12 Z" fill="currentColor" fill-rule="evenodd"/>
</svg>
