<svg xmlns="http://www.w3.org/2000/svg" width="314" height="69" viewBox="0 0 314 69" role="img" aria-hidden="true">
  <path d="M 155 54 L 151 56 L 150 63 L 153 67 L 157 68 L 162 64 L 162 57 L 160 55 Z M 157 58 L 159 60 L 156 63 Z M 288 40 L 289 44 L 311 44 L 312 40 Z M 0 40 L 1 44 L 23 44 L 24 40 Z M 284 36 L 278 29 L 271 26 L 264 26 L 256 30 L 257 35 L 260 32 L 263 31 L 273 31 L 279 36 L 280 39 L 279 46 L 273 52 L 268 54 L 260 54 L 247 49 L 233 38 L 221 31 L 215 29 L 203 29 L 196 32 L 193 35 L 191 40 L 191 48 L 193 52 L 199 56 L 206 56 L 208 55 L 210 50 L 208 50 L 205 52 L 200 52 L 196 49 L 195 47 L 195 40 L 198 36 L 202 34 L 210 33 L 216 34 L 223 37 L 234 44 L 241 50 L 253 57 L 257 58 L 270 58 L 277 55 L 282 50 L 284 46 Z M 28 39 L 28 44 L 31 51 L 35 55 L 42 58 L 55 58 L 61 56 L 87 38 L 100 33 L 110 34 L 114 36 L 118 42 L 117 47 L 112 52 L 107 52 L 104 50 L 101 50 L 101 53 L 103 55 L 113 56 L 117 54 L 122 47 L 121 37 L 116 32 L 109 29 L 97 29 L 91 31 L 83 35 L 63 50 L 52 54 L 44 54 L 38 52 L 34 48 L 33 38 L 34 35 L 37 32 L 40 31 L 50 31 L 56 35 L 58 32 L 55 29 L 48 26 L 38 27 L 34 29 L 30 33 Z M 158 0 L 154 1 L 154 3 L 150 11 L 142 19 L 132 24 L 133 27 L 142 31 L 150 39 L 156 51 L 158 49 L 162 39 L 170 31 L 177 28 L 179 23 L 173 21 L 164 13 Z M 157 10 L 163 18 L 171 25 L 161 34 L 156 42 L 152 35 L 142 26 L 142 24 L 151 16 L 154 11 Z" fill="currentColor" fill-rule="evenodd"/>
</svg>
