<svg xmlns="http://www.w3.org/2000/svg" width="221" height="117" viewBox="0 0 221 117" role="img" aria-hidden="true">
  <path d="M 0 102 L 0 116 L 9 116 L 9 114 L 13 110 L 15 110 L 19 114 L 21 114 L 26 110 L 32 116 L 65 116 L 64 110 L 62 107 L 58 104 L 54 105 L 52 115 L 48 113 L 45 109 L 40 105 L 24 106 L 21 104 L 17 105 L 14 109 L 10 109 L 2 102 Z M 60 110 L 60 111 L 61 113 L 59 115 L 57 113 Z M 35 108 L 38 108 L 41 112 L 38 115 L 36 115 L 33 112 L 33 110 Z M 18 108 L 22 108 L 20 110 Z M 76 42 L 73 44 L 72 48 L 75 52 L 78 52 L 82 49 L 83 46 L 79 42 Z M 82 34 L 84 30 L 82 32 Z M 50 30 L 52 33 L 57 34 L 62 28 L 59 24 L 51 25 Z M 76 1 L 73 1 L 71 2 L 70 4 L 70 8 L 74 11 L 79 7 L 78 2 Z M 58 57 L 69 47 L 72 40 L 73 33 L 78 29 L 83 28 L 89 24 L 95 25 L 92 28 L 89 34 L 91 45 L 101 36 L 103 31 L 104 23 L 108 19 L 116 16 L 121 16 L 123 14 L 121 12 L 113 13 L 108 15 L 103 14 L 100 11 L 98 6 L 95 3 L 90 1 L 85 2 L 85 7 L 87 10 L 91 13 L 98 14 L 101 16 L 99 18 L 90 20 L 80 20 L 73 18 L 70 15 L 70 13 L 67 8 L 62 4 L 54 0 L 52 0 L 53 8 L 56 13 L 61 18 L 79 24 L 72 30 L 66 33 L 60 39 L 57 46 Z M 98 34 L 94 38 L 94 33 Z M 60 7 L 63 11 L 59 12 L 58 10 Z" fill="currentColor" fill-rule="evenodd"/>
</svg>
