<svg xmlns="http://www.w3.org/2000/svg" width="293" height="37" viewBox="0 0 293 37" role="img" aria-hidden="true">
  <path d="M 292 20 L 289 21 L 286 25 L 289 29 L 292 28 Z M 123 17 L 124 21 L 196 21 L 199 18 L 197 16 Z M 0 17 L 1 21 L 74 21 L 76 19 L 75 16 Z M 268 19 L 274 23 L 280 23 L 287 20 L 289 18 L 287 16 L 281 14 L 274 14 L 269 16 Z M 274 19 L 275 17 L 280 18 L 278 20 Z M 286 7 L 287 12 L 292 16 L 292 8 Z M 100 0 L 98 0 L 95 8 L 90 13 L 82 17 L 83 20 L 89 22 L 96 29 L 99 36 L 102 33 L 104 27 L 109 22 L 113 21 L 117 18 L 115 16 L 111 15 L 105 10 L 102 5 L 102 2 Z M 100 9 L 108 18 L 104 21 L 99 27 L 92 20 L 91 17 Z" fill="currentColor" fill-rule="evenodd"/>
</svg>
