<svg xmlns="http://www.w3.org/2000/svg" width="184" height="160" viewBox="0 0 184 160" role="img" aria-hidden="true">
  <path d="M 10 16 L 4 26 L 0 39 L 0 59 L 3 71 L 8 82 L 24 105 L 29 109 L 47 128 L 82 157 L 86 159 L 94 152 L 104 148 L 117 148 L 122 151 L 123 155 L 128 156 L 133 152 L 133 149 L 131 146 L 125 145 L 121 147 L 112 145 L 109 146 L 105 144 L 116 136 L 123 134 L 132 134 L 144 139 L 155 139 L 169 133 L 170 129 L 159 125 L 148 123 L 135 126 L 129 130 L 128 127 L 144 113 L 150 111 L 156 111 L 169 105 L 175 99 L 179 93 L 183 85 L 183 83 L 175 83 L 165 86 L 159 89 L 152 95 L 148 101 L 146 107 L 139 114 L 132 117 L 133 111 L 139 104 L 143 93 L 142 77 L 138 67 L 135 67 L 128 81 L 126 88 L 126 97 L 130 112 L 125 124 L 117 132 L 107 136 L 109 129 L 112 126 L 115 120 L 115 113 L 113 111 L 110 111 L 107 114 L 107 128 L 100 141 L 91 150 L 87 150 L 68 134 L 64 132 L 34 103 L 17 81 L 12 71 L 9 62 L 8 45 L 10 33 L 16 22 L 23 15 L 30 11 L 41 8 L 48 8 L 57 10 L 68 16 L 76 24 L 81 33 L 83 39 L 86 41 L 88 39 L 90 33 L 95 24 L 99 19 L 105 14 L 117 9 L 123 8 L 133 9 L 140 11 L 148 16 L 155 23 L 161 34 L 163 41 L 163 58 L 158 75 L 154 82 L 155 85 L 159 81 L 163 80 L 168 72 L 172 57 L 172 44 L 170 34 L 166 24 L 162 18 L 152 8 L 147 5 L 132 0 L 120 0 L 108 3 L 98 9 L 92 15 L 89 20 L 85 23 L 80 16 L 74 10 L 64 4 L 56 1 L 38 0 L 23 5 L 17 9 Z M 164 131 L 160 134 L 145 137 L 139 135 L 139 132 L 155 130 L 152 129 L 153 127 L 162 129 Z M 171 94 L 173 96 L 167 103 L 163 101 L 163 99 L 169 94 Z M 167 91 L 163 95 L 154 101 L 153 99 L 158 93 L 164 90 Z M 173 90 L 174 87 L 177 89 Z M 138 75 L 140 82 L 140 86 L 138 88 L 137 82 L 135 82 L 134 89 L 131 92 L 130 85 L 134 76 Z" fill="currentColor" fill-rule="evenodd"/>
</svg>
