<svg xmlns="http://www.w3.org/2000/svg" width="307" height="232" viewBox="0 0 307 232" role="img" aria-hidden="true">
  <path d="M 23 166 L 20 165 L 17 169 L 13 169 L 8 175 L 0 182 L 0 191 L 2 191 L 10 186 L 7 183 L 14 183 L 16 185 L 10 191 L 0 193 L 0 197 L 8 195 L 17 190 L 24 182 L 7 180 L 7 178 L 13 171 L 18 171 Z M 296 103 L 294 104 L 287 114 L 283 122 L 282 132 L 281 133 L 283 149 L 279 160 L 272 174 L 259 190 L 258 187 L 263 181 L 269 165 L 269 157 L 266 147 L 263 148 L 259 154 L 255 163 L 254 168 L 255 187 L 250 196 L 245 201 L 235 208 L 224 214 L 219 215 L 217 213 L 221 211 L 228 204 L 232 197 L 234 186 L 231 186 L 221 195 L 217 203 L 215 210 L 210 215 L 209 212 L 211 210 L 201 212 L 200 215 L 206 212 L 208 214 L 208 216 L 203 221 L 190 226 L 191 228 L 208 224 L 211 222 L 230 222 L 238 224 L 243 231 L 246 231 L 248 230 L 251 226 L 247 221 L 242 221 L 240 223 L 238 223 L 223 217 L 241 209 L 248 209 L 258 212 L 270 212 L 287 204 L 291 199 L 280 196 L 268 196 L 263 197 L 257 200 L 255 197 L 271 182 L 277 180 L 283 180 L 293 176 L 302 166 L 306 158 L 302 157 L 301 158 L 294 159 L 285 164 L 279 170 L 278 167 L 282 161 L 283 155 L 287 147 L 293 141 L 296 136 L 299 128 L 298 105 Z M 281 203 L 275 207 L 266 210 L 259 210 L 255 206 L 266 205 L 276 202 Z M 263 200 L 265 199 L 275 200 L 273 202 L 265 203 Z M 230 194 L 227 201 L 221 206 L 220 202 L 223 199 L 224 196 L 227 193 Z M 266 164 L 266 168 L 265 172 L 263 174 L 262 170 L 263 169 Z M 261 163 L 260 174 L 256 175 L 257 165 L 258 163 Z M 300 163 L 290 174 L 288 175 L 284 174 L 292 167 L 285 168 L 289 164 L 297 161 Z M 296 119 L 295 132 L 289 141 L 288 138 L 292 127 L 292 123 Z M 292 113 L 295 114 L 292 117 L 287 137 L 285 139 L 284 128 L 289 117 Z M 291 80 L 288 84 L 288 87 L 290 89 L 293 89 L 296 86 L 296 83 L 293 80 Z M 15 75 L 12 75 L 6 87 L 4 96 L 4 106 L 11 123 L 11 133 L 6 152 L 2 153 L 0 143 L 0 153 L 2 158 L 2 162 L 0 165 L 0 172 L 5 162 L 11 156 L 19 154 L 26 150 L 33 142 L 35 137 L 36 129 L 30 130 L 18 137 L 12 147 L 11 143 L 14 138 L 13 135 L 15 121 L 22 105 L 22 96 Z M 32 136 L 28 145 L 25 148 L 23 148 L 18 152 L 17 149 L 28 138 L 21 139 L 29 134 Z M 17 89 L 18 92 L 18 108 L 17 112 L 15 114 L 14 102 L 16 100 L 16 97 L 14 95 Z M 12 89 L 11 98 L 12 111 L 10 113 L 7 107 L 7 99 L 8 93 Z M 197 36 L 193 36 L 180 47 L 175 49 L 172 52 L 156 59 L 153 59 L 150 61 L 140 62 L 134 64 L 134 108 L 138 127 L 142 139 L 150 155 L 159 168 L 179 187 L 194 196 L 207 189 L 217 181 L 230 168 L 240 154 L 250 132 L 254 116 L 256 100 L 255 63 L 244 62 L 233 59 L 231 57 L 228 57 L 208 46 Z M 196 45 L 210 56 L 224 63 L 235 67 L 244 68 L 249 71 L 249 100 L 247 114 L 243 130 L 234 150 L 224 164 L 212 176 L 199 186 L 194 188 L 179 178 L 164 163 L 157 154 L 148 136 L 142 115 L 140 96 L 140 76 L 142 69 L 146 69 L 163 64 L 184 53 L 193 45 Z M 194 74 L 192 75 L 190 78 L 185 90 L 186 103 L 192 112 L 191 124 L 189 126 L 187 122 L 187 119 L 181 110 L 173 105 L 170 106 L 170 123 L 173 129 L 182 137 L 182 144 L 178 150 L 172 156 L 173 159 L 182 151 L 192 151 L 193 152 L 203 152 L 210 149 L 218 141 L 219 136 L 210 134 L 199 135 L 190 140 L 189 137 L 193 130 L 198 125 L 204 124 L 211 121 L 217 115 L 221 105 L 220 97 L 214 98 L 206 102 L 201 107 L 199 111 L 198 117 L 196 119 L 195 113 L 201 103 L 202 90 L 200 84 Z M 214 140 L 204 149 L 202 150 L 194 150 L 193 146 L 202 144 L 204 141 L 198 142 L 195 144 L 193 141 L 206 137 L 212 137 Z M 173 110 L 175 110 L 181 115 L 185 120 L 185 123 L 186 124 L 186 126 L 182 127 L 182 125 L 179 119 L 177 118 L 181 129 L 178 131 L 174 126 L 172 118 Z M 216 101 L 218 103 L 216 111 L 211 117 L 209 117 L 203 122 L 202 119 L 203 117 L 211 109 L 211 107 L 209 107 L 208 110 L 201 117 L 200 114 L 202 110 L 210 103 Z M 194 81 L 196 83 L 199 90 L 199 97 L 197 100 L 195 98 L 195 89 L 193 90 L 193 104 L 191 106 L 188 101 L 188 91 L 191 83 Z M 216 2 L 197 0 L 176 1 L 151 8 L 136 16 L 120 29 L 108 43 L 94 68 L 89 86 L 86 106 L 86 120 L 88 135 L 96 160 L 109 182 L 124 198 L 140 209 L 157 216 L 167 218 L 187 217 L 179 217 L 162 214 L 151 210 L 139 204 L 125 194 L 116 185 L 108 175 L 99 158 L 95 148 L 91 129 L 90 110 L 91 95 L 94 81 L 99 67 L 109 48 L 112 44 L 121 36 L 121 34 L 129 26 L 136 22 L 140 18 L 159 9 L 168 6 L 181 4 L 204 4 L 211 5 L 227 9 L 242 16 L 254 24 L 267 36 L 272 42 L 284 61 L 284 55 L 278 45 L 264 28 L 241 11 Z" fill="currentColor" fill-rule="evenodd"/>
</svg>
