<svg xmlns="http://www.w3.org/2000/svg" width="154" height="147" viewBox="0 0 154 147" role="img" aria-hidden="true">
  <path d="M 139 28 L 127 16 L 118 10 L 105 4 L 89 0 L 64 0 L 51 3 L 33 11 L 26 16 L 16 25 L 14 30 L 11 33 L 5 45 L 1 60 L 0 76 L 2 88 L 8 104 L 15 115 L 12 126 L 6 138 L 6 143 L 9 146 L 17 146 L 31 142 L 41 136 L 61 143 L 69 144 L 92 143 L 106 139 L 121 131 L 129 125 L 135 119 L 145 105 L 150 94 L 153 82 L 153 60 L 152 55 L 144 35 Z M 123 23 L 132 32 L 137 39 L 143 52 L 146 68 L 146 75 L 143 90 L 136 105 L 133 109 L 119 123 L 110 129 L 93 135 L 78 137 L 66 136 L 51 132 L 44 128 L 38 129 L 35 132 L 23 137 L 17 134 L 22 118 L 22 110 L 17 104 L 10 89 L 8 81 L 8 62 L 12 47 L 21 32 L 31 22 L 48 12 L 63 8 L 89 8 L 107 13 Z M 108 64 L 105 64 L 101 66 L 100 68 L 100 75 L 103 78 L 106 79 L 109 78 L 114 73 L 113 67 Z M 74 64 L 70 67 L 70 75 L 73 78 L 77 79 L 83 75 L 84 69 L 80 65 Z M 47 64 L 40 66 L 39 69 L 40 75 L 43 78 L 46 79 L 49 78 L 53 74 L 54 71 L 53 68 L 50 65 Z" fill="currentColor" fill-rule="evenodd"/>
</svg>
